<svg width="164" height="164" viewBox="0 0 164 164" fill="none" xmlns="http://www.w3.org/2000/svg">
<ellipse cx="76.5" cy="152" rx="40.5" ry="7" fill="#99C9D3"/>
<path d="M73.5222 127.217C73.3608 128.903 74.2467 148.285 68.9411 148.285H58.6974C58.6974 148.285 55.9639 148.123 55.9639 144.507C55.9639 140.891 62.2894 141.132 62.2894 141.132L61.0257 124.5" fill="#F49631"/>
<path d="M68.9413 150.517H58.6976C58.6529 150.517 58.6117 150.517 58.5671 150.513C56.6234 150.4 53.7354 148.707 53.7354 144.507C53.7354 143.157 54.247 141.949 55.2189 141.015C56.5032 139.778 58.3713 139.256 59.896 139.04L58.804 124.672C58.7113 123.443 59.6316 122.371 60.861 122.278C62.0904 122.186 63.1618 123.106 63.2545 124.335L64.5183 140.967C64.5663 141.602 64.3431 142.227 63.9001 142.684C63.4571 143.14 62.8459 143.391 62.2071 143.367C60.9949 143.329 58.962 143.607 58.3129 144.236C58.2271 144.322 58.1996 144.366 58.1996 144.51C58.1996 145.146 58.3164 145.918 58.8624 146.056H68.8933C69.0753 145.915 70.1879 144.854 70.8198 139.349C71.2559 135.548 71.2627 131.286 71.2662 128.992C71.2662 127.859 71.2696 127.344 71.3039 127.007C71.4207 125.781 72.5093 124.878 73.7387 124.998C74.9647 125.115 75.8644 126.204 75.7476 127.429C75.7339 127.611 75.7339 128.35 75.7304 129.002C75.7133 140.18 74.8788 150.52 68.9448 150.52L68.9413 150.517Z" fill="black"/>
<path d="M82.9338 127.218C82.7724 128.904 83.6584 148.286 78.3528 148.286H70.3995C70.3995 148.286 67.666 148.124 67.666 144.508C67.666 140.892 73.9915 141.133 73.9915 141.133L72.7278 124.501" fill="#F49631"/>
<path d="M78.3569 150.518H70.4036C70.359 150.518 70.3178 150.518 70.2731 150.514C68.3294 150.401 65.4414 148.708 65.4414 144.508C65.4414 143.158 65.9531 141.95 66.9249 141.016C68.2093 139.779 70.0774 139.257 71.6021 139.041L70.5101 124.673C70.4173 123.444 71.3377 122.372 72.5671 122.279C73.7965 122.187 74.8679 123.107 74.9606 124.336L76.2243 140.967C76.2724 141.603 76.0492 142.228 75.6062 142.685C75.1667 143.141 74.552 143.392 73.9132 143.368C72.701 143.33 70.668 143.608 70.019 144.237C69.9332 144.323 69.9057 144.367 69.9057 144.511C69.9057 145.147 70.0224 145.919 70.5685 146.057H78.3088C78.4908 145.916 79.6034 144.855 80.2353 139.35C80.6714 135.549 80.6783 131.287 80.6817 128.993C80.6817 127.86 80.6852 127.345 80.7195 127.008C80.8363 125.782 81.9249 124.879 83.1542 124.999C84.3802 125.116 85.2799 126.205 85.1632 127.43C85.1494 127.612 85.1494 128.351 85.146 129.003C85.1288 140.181 84.2944 150.521 78.3603 150.521L78.3569 150.518Z" fill="black"/>
<path d="M99.4585 128.171C132.329 127.007 142.597 106.616 143.638 102.42C144.984 96.9903 149.455 68.9994 148.291 62.6017C147.127 56.2007 146.028 51.6952 138.466 51.4067C130.904 51.1148 133.456 66.386 134.328 70.7473C135.2 75.1085 133.727 87.5913 128.576 99.6929C123.425 111.795 99.4585 114.209 99.4585 114.209L99.4413 106.197C99.431 101.19 98.9846 96.1902 98.1089 91.2589L96.8692 84.274C96.8692 84.274 104.919 80.2493 107.632 65.658C111.536 44.6691 93.6687 31.6232 93.9606 30.1705C94.2525 28.7179 93.0883 16.7915 90.4716 15.3354C87.8548 13.8794 81.4538 27.8423 81.4538 27.8423C81.4538 27.8423 79.9977 27.5504 72.436 26.97C64.8742 26.3897 49.4553 31.0428 49.4553 31.0428C49.4553 31.0428 41.6016 18.536 38.693 19.9886C35.7843 21.4446 36.6566 36.8601 36.6566 36.8601C32.5838 39.4768 28.2225 45.0056 25.8942 60.713C23.566 76.4203 42.3434 90.4381 42.3434 90.4381C41.6772 93.4155 38.7685 113.278 44.0226 126.918C47.3845 135.644 55.5164 137.763 70.5884 137.972C88.2017 138.216 96.1584 132.134 99.4585 128.175V128.171Z" fill="#F49631"/>
<path d="M71.4919 140.208C71.1726 140.208 70.8601 140.208 70.5579 140.201C55.3965 139.992 45.8533 137.883 41.9385 127.719C37.0793 115.102 38.8444 97.4577 39.8952 91.3485C35.7057 87.9144 21.5093 75.0745 23.6865 60.3836C25.5581 47.7498 28.9681 39.8618 34.3733 35.7375C34.3183 34.2505 34.2565 31.6235 34.3527 28.89C34.5931 22.2176 35.5615 19.0583 37.694 17.9937C40.7263 16.4793 44.0573 19.9717 46.9144 23.5878C48.3327 25.3804 49.6067 27.221 50.4206 28.4401C54.6582 27.2485 66.1211 24.2471 72.6046 24.7451C76.4679 25.0404 78.7721 25.267 80.1217 25.4181C82.371 20.7169 85.9768 14.1613 88.9919 13.1723C89.8744 12.8838 90.7844 12.9594 91.5502 13.3852C92.7796 14.0686 94.3421 15.7066 95.5028 22.3721C95.9252 24.8 96.2652 27.9387 96.2274 29.6935C96.5193 30.0472 97.0069 30.5864 97.4534 31.0809C102.141 36.2594 113.113 48.3919 109.823 66.0704C107.615 77.9316 102.003 83.3609 99.3215 85.3423L100.304 90.8746C101.2 95.9192 101.657 101.074 101.67 106.197L101.684 111.671C103.975 111.317 107.622 110.631 111.454 109.415C117.021 107.646 124.157 104.374 126.519 98.8244C131.402 87.3581 132.941 75.2084 132.137 71.1906C131.028 65.6446 129.72 55.6996 133.408 51.3727C134.699 49.8583 136.478 49.1028 138.549 49.1818C148.185 49.5526 149.407 56.2765 150.485 62.2106C151.749 69.1508 147.168 97.4474 145.801 102.966C145.156 105.576 142.048 112.107 134.926 118.148C128.851 123.295 117.979 129.545 100.506 130.373C92.7762 138.817 79.4555 140.218 71.4885 140.218L71.4919 140.208ZM39.648 22.379C38.8994 24.4772 38.5422 30.6825 38.8856 36.7333C38.9303 37.5369 38.5422 38.3027 37.8623 38.7354C34.7991 40.7065 30.4516 45.1605 28.0993 61.0361C25.9976 75.2256 43.4976 88.5154 43.6761 88.6493C44.3801 89.1747 44.7098 90.0676 44.5175 90.9227C43.7929 94.1575 41.1624 113.289 46.1006 126.111C48.7894 133.093 54.9741 135.521 70.6162 135.737C87.498 135.964 94.8572 130.201 97.7418 126.74C98.147 126.252 98.7446 125.96 99.3764 125.94C112.834 125.462 123.823 121.692 132.038 114.728C138.49 109.257 141.073 103.474 141.468 101.877C142.893 96.1252 147.134 68.7284 146.093 62.9935C144.864 56.2284 143.937 53.8418 138.377 53.6289C137.491 53.5945 137.086 53.9276 136.804 54.2539C135.084 56.2731 134.97 62.5711 136.516 70.3012C137.591 75.6789 135.647 88.7729 130.626 100.559C128.188 106.283 122.165 110.699 112.725 113.68C105.949 115.82 99.919 116.4 99.6649 116.42C99.0399 116.479 98.4218 116.273 97.9582 115.85C97.4946 115.428 97.2301 114.831 97.2267 114.206L97.2061 106.194C97.1958 101.328 96.7597 96.4309 95.908 91.6404L94.6684 84.6555C94.4967 83.6837 94.9843 82.7118 95.8668 82.2688C95.8668 82.2688 97.6422 81.321 99.6924 78.7799C101.602 76.4138 104.15 72.1453 105.434 65.2394C108.319 49.7346 98.384 38.7526 94.1429 34.0616C92.3401 32.0699 91.5056 31.1461 91.7597 29.7656C91.9348 28.1036 90.963 20.607 89.7611 17.9662C88.2638 19.6077 85.599 24.1407 83.4802 28.7629C83.0475 29.7038 82.0276 30.2224 81.0146 30.0232C80.9699 30.0163 79.3903 29.7347 72.2646 29.1887C65.2042 28.6496 50.2523 33.1276 50.1012 33.1722C49.1397 33.4641 48.0992 33.0726 47.5669 32.221C44.7613 27.7533 41.3341 23.5294 39.6514 22.3721L39.648 22.379ZM91.77 29.7313C91.77 29.7313 91.77 29.745 91.7666 29.7519C91.7666 29.745 91.7666 29.7382 91.77 29.7313Z" fill="black"/>
<path d="M59.1801 59.8099C58.5654 59.4528 57.7858 59.6554 57.3222 60.1911C56.9342 60.6375 56.6286 61.2832 57.1711 61.9597C58.2288 63.2749 59.884 61.8189 59.884 61.1149C59.884 60.6582 59.702 60.1087 59.1801 59.8065V59.8099Z" fill="black"/>
<path d="M58.1935 63.3503C57.5479 63.3503 56.947 63.055 56.5005 62.5021C55.8 61.6333 55.8652 60.5584 56.6723 59.6312C57.4312 58.759 58.6674 58.522 59.6118 59.068C60.3192 59.4801 60.7416 60.2459 60.7416 61.1182C60.7416 61.9286 59.9415 62.8695 58.9593 63.2164C58.7018 63.3057 58.4442 63.3503 58.1935 63.3503ZM58.506 60.4897C58.3034 60.4897 58.094 60.6065 57.9635 60.7576C57.6166 61.156 57.7334 61.3002 57.833 61.4238C58.015 61.6505 58.1558 61.647 58.2725 61.6264C58.6193 61.5646 58.9422 61.2246 59.0143 61.0701C59.0074 60.9293 58.9593 60.6821 58.7396 60.555C58.664 60.5104 58.5816 60.4932 58.4992 60.4932L58.506 60.4897Z" fill="black"/>
<path d="M71.7543 59.8099C71.1396 59.4528 70.3601 59.6554 69.8965 60.1911C69.5084 60.6375 69.2028 61.2832 69.7454 61.9597C70.8031 63.2749 72.4583 61.8189 72.4583 61.1149C72.4583 60.6582 72.2763 60.1087 71.7543 59.8065V59.8099Z" fill="black"/>
<path d="M70.7717 63.3498C70.1261 63.3498 69.5251 63.0545 69.0787 62.5016C68.3781 61.6328 68.4434 60.5579 69.2504 59.6307C70.0093 58.7585 71.2456 58.5215 72.1899 59.0676C72.8973 59.4796 73.3197 60.2454 73.3197 61.1177C73.3197 61.9281 72.5196 62.8691 71.5374 63.2159C71.2799 63.3052 71.0223 63.3498 70.7717 63.3498ZM71.0842 60.4893C70.8816 60.4893 70.6755 60.606 70.5416 60.7537C70.1947 61.152 70.3115 61.2963 70.4111 61.4233C70.5931 61.65 70.7339 61.6465 70.8506 61.6259C71.1975 61.5641 71.5203 61.2241 71.5924 61.0696C71.5855 60.9288 71.5375 60.6816 71.3177 60.5545C71.2421 60.5099 71.1597 60.4927 71.0773 60.4927L71.0842 60.4893Z" fill="black"/>
<path d="M64.7572 78.8647C63.363 78.8647 62.1851 77.7143 60.6913 74.8881C60.4372 74.4073 60.4544 73.8338 60.7325 73.3668C61.0107 72.9032 61.5155 72.6182 62.0546 72.6182H66.0313C66.4502 72.6182 66.8486 72.7864 67.1405 73.0886C67.4323 73.3908 67.5869 73.796 67.5766 74.2116C67.4839 77.1648 66.4571 78.8613 64.7538 78.8613L64.7572 78.8647Z" fill="#EF9178"/>
<path d="M66.0354 74.1673C66.0354 74.1673 65.9358 77.3198 64.7579 77.3198C64.1673 77.3198 63.3088 76.5334 62.0588 74.1673H66.0354ZM66.0354 71.0767H62.0588C60.9736 71.0767 59.9709 71.6433 59.4111 72.5739C58.8514 73.5011 58.8205 74.655 59.3253 75.6131C60.5821 77.986 62.2064 80.4104 64.7545 80.4104C65.51 80.4104 68.0409 80.122 68.8547 76.4029C69.0814 75.3658 69.1192 74.3734 69.1226 74.2635C69.1501 73.429 68.8341 72.6151 68.2538 72.0142C67.67 71.4132 66.8699 71.0732 66.0354 71.0732V71.0767Z" fill="black"/>
<path d="M58.3809 41.6021C61.6535 41.7669 61.2483 33.7038 60.6027 28.2471C58.5595 28.666 56.5917 29.1296 54.8953 29.5589C54.7889 34.5005 55.2044 41.4441 58.3809 41.6055V41.6021Z" fill="#FFCE6C"/>
<path d="M58.4736 43.838C58.4049 43.838 58.3363 43.838 58.2676 43.8346C52.3576 43.5393 52.5877 32.9796 52.6632 29.5112C52.6838 28.5084 53.3741 27.6396 54.3493 27.3958C56.3685 26.8876 58.3225 26.4377 60.1563 26.0634C60.7676 25.9398 61.4029 26.0737 61.9111 26.4411C62.4159 26.8086 62.749 27.3683 62.8211 27.9899C64.0471 38.3504 62.5773 41.2762 61.3651 42.5709C60.5959 43.3951 59.576 43.8415 58.4771 43.8415L58.4736 43.838ZM57.1137 31.3106C57.1515 36.448 57.9139 38.3985 58.3225 39.075C58.6213 38.2577 59.0746 36.1046 58.6385 30.9569C58.1371 31.0702 57.6288 31.1904 57.1137 31.3106Z" fill="black"/>
<path d="M71.9243 26.9352C70.3377 26.8631 68.4593 26.9936 66.471 27.2477C66.2134 31.9318 66.1482 41.4166 69.8673 41.6021C73.4147 41.7807 72.642 32.2992 71.9243 26.9387V26.9352Z" fill="#FFCE6C"/>
<path d="M69.9596 43.8381C69.8909 43.8381 69.8222 43.8381 69.7535 43.8347C68.5722 43.7763 67.5042 43.2509 66.6629 42.3168C64.6231 40.0503 63.8058 34.9405 64.2385 27.128C64.2968 26.0531 65.1176 25.174 66.1856 25.0367C68.4589 24.7482 70.4232 24.6383 72.02 24.7104C73.0983 24.7585 73.9877 25.5724 74.132 26.6438C74.5955 30.1122 75.8284 39.3257 72.8682 42.5434C72.0956 43.3848 71.0688 43.8381 69.9562 43.8381H69.9596ZM68.6203 29.264C68.4417 35.4968 69.2693 38.2406 69.8085 39.1094C70.1965 38.0723 70.6155 35.2083 69.9527 29.1781C69.5303 29.1953 69.0873 29.2262 68.6237 29.264H68.6203Z" fill="black"/>
<path d="M98.228 91.9697C93.7156 92.0659 88.7672 92.7802 88.6332 95.4587C88.4993 98.1751 94.0247 98.3605 99.0281 97.9724C98.8324 95.9635 98.5645 93.9615 98.228 91.9697Z" fill="#FFCE6C"/>
<path d="M95.4765 100.356C90.322 100.356 88.5191 99.2704 87.6022 98.381C86.7712 97.574 86.3454 96.4957 86.4037 95.3487C86.6716 89.9847 95.3323 89.7993 98.1791 89.7409C99.2814 89.7272 100.243 90.5101 100.428 91.6022C100.772 93.6385 101.047 95.7093 101.249 97.7594C101.308 98.3569 101.122 98.951 100.737 99.4112C100.353 99.8714 99.7965 100.156 99.199 100.201C97.7945 100.307 96.5617 100.356 95.4765 100.356ZM91.1599 95.3968C91.8124 95.6372 93.3233 95.9737 96.5445 95.8741C96.4792 95.3453 96.4071 94.813 96.3281 94.2842C93.0864 94.5074 91.7059 95.0671 91.1564 95.3968H91.1599Z" fill="black"/>
<path d="M99.4403 106.193C99.4403 105.276 99.4163 104.359 99.3854 103.442C94.6086 103.442 88.7776 104.033 88.6334 106.942C88.4926 109.734 94.3407 109.85 99.4506 109.425L99.4437 106.193H99.4403Z" fill="#FFCE6C"/>
<path d="M95.473 111.842C90.3391 111.842 88.5328 110.767 87.6125 109.875C86.7746 109.064 86.3453 107.986 86.4037 106.832C86.6853 101.204 96.256 101.214 99.3878 101.21C100.59 101.21 101.575 102.165 101.617 103.367C101.651 104.418 101.671 105.342 101.671 106.186L101.678 109.418C101.678 110.582 100.792 111.55 99.6316 111.647C98.0451 111.78 96.6681 111.839 95.473 111.839V111.842ZM91.1598 106.884C91.857 107.138 93.5259 107.502 97.2106 107.333V106.197C97.2106 106.039 97.2106 105.881 97.2106 105.719C93.3405 105.894 91.7608 106.526 91.1667 106.884H91.1598Z" fill="black"/>
<path d="M94.7354 65.4107C94.7354 65.4107 107.386 63.3743 113.351 63.9546Z" fill="#FFEEC7"/>
<path d="M94.7319 67.6431C93.6536 67.6431 92.7058 66.8636 92.5306 65.7647C92.3349 64.549 93.1625 63.402 94.3781 63.2063C94.907 63.1204 107.383 61.1321 113.568 61.7331C114.794 61.8533 115.693 62.9453 115.573 64.1713C115.453 65.3972 114.364 66.2935 113.135 66.1768C107.52 65.6273 95.2126 67.5916 95.089 67.6122C94.9688 67.6328 94.8486 67.6397 94.7319 67.6397V67.6431Z" fill="black"/>
<path d="M95.9473 70.6862C95.9473 70.6862 107.05 69.7968 113.591 72.9664Z" fill="#FFEEC7"/>
<path d="M113.588 75.1982C113.262 75.1982 112.928 75.1261 112.616 74.975C106.706 72.111 96.2286 72.9009 96.1222 72.9112C94.8928 73.0039 93.8179 72.0904 93.7218 70.8645C93.6256 69.6385 94.5391 68.5602 95.7685 68.4606C96.2458 68.4229 107.558 67.5609 114.563 70.9572C115.672 71.4963 116.136 72.8287 115.597 73.9379C115.212 74.7346 114.415 75.1982 113.588 75.1982Z" fill="black"/>
<path d="M35.7525 66.647C35.7525 66.647 23.0499 68.3159 17.4971 70.5824Z" fill="#FFEEC7"/>
<path d="M17.4975 72.8148C16.6184 72.8148 15.7839 72.2893 15.4302 71.424C14.9632 70.2839 15.5126 68.9789 16.6527 68.5153C22.4047 66.1699 34.9287 64.5043 35.4576 64.4357C36.6801 64.2708 37.7996 65.1362 37.961 66.3587C38.1224 67.5813 37.2604 68.7008 36.0379 68.8622C35.9143 68.8793 23.5551 70.5208 18.3354 72.6499C18.0607 72.7632 17.7722 72.8148 17.4941 72.8148H17.4975Z" fill="black"/>
<path d="M36.102 72.0483C36.102 72.0483 25.2092 74.3732 19.8486 79.2839Z" fill="#FFEEC7"/>
<path d="M19.8478 81.5168C19.2434 81.5168 18.6424 81.273 18.2029 80.7922C17.3684 79.8822 17.4302 78.4708 18.3402 77.6398C24.082 72.3788 35.1671 69.9681 35.6341 69.8685C36.8395 69.611 38.0242 70.3802 38.2818 71.5856C38.5393 72.7909 37.7701 73.9757 36.5647 74.2332C36.4274 74.2641 26.187 76.5031 21.3553 80.933C20.9261 81.3245 20.3869 81.5203 19.8478 81.5203V81.5168Z" fill="black"/>
<path d="M148.139 74.2813C148.067 74.2813 147.999 74.2813 147.927 74.271L134.118 72.966C132.892 72.8493 131.989 71.7607 132.106 70.5347C132.223 69.3088 133.315 68.4056 134.537 68.5224L148.346 69.8273C149.571 69.9441 150.475 71.0327 150.358 72.2586C150.248 73.4159 149.276 74.2813 148.139 74.2813Z" fill="black"/>
<path d="M147.368 81.5163C147.258 81.5163 147.144 81.5094 147.031 81.4922L133.996 79.5279C132.776 79.3425 131.939 78.2058 132.121 76.9867C132.306 75.7676 133.443 74.9297 134.662 75.1117L147.697 77.076C148.916 77.2615 149.754 78.3981 149.572 79.6172C149.404 80.723 148.453 81.5163 147.368 81.5163Z" fill="black"/>
<path d="M146.543 87.7194C146.43 87.7194 146.32 87.7125 146.203 87.6919L133.154 85.707C131.935 85.5216 131.097 84.3849 131.283 83.1658C131.468 81.9467 132.608 81.1088 133.824 81.2943L146.873 83.2791C148.092 83.4646 148.93 84.6012 148.745 85.8203C148.576 86.9261 147.625 87.7159 146.54 87.7159L146.543 87.7194Z" fill="black"/>
<path d="M145.125 96.8603C144.871 96.8603 144.61 96.8157 144.359 96.723L131.244 91.9187C130.087 91.4964 129.493 90.212 129.915 89.0547C130.338 87.8975 131.622 87.2999 132.779 87.7258L145.894 92.53C147.051 92.9524 147.645 94.2367 147.223 95.394C146.893 96.2972 146.038 96.8603 145.128 96.8603H145.125Z" fill="black"/>
<path d="M48.8196 91.2104C48.8196 91.2104 38.7991 91.9659 31.306 93.24C21.306 94.9398 13.4523 98.0064 17.1852 105.743C18.7957 109.078 24.8946 108.831 31.4227 108.807C41.0209 108.772 51.2784 106.269 51.2784 106.269" fill="#F49631"/>
<path d="M28.4372 111.049C22.4722 111.049 17.1013 110.709 15.1714 106.712C13.7325 103.731 13.6192 101.029 14.8314 98.6832C16.7545 94.9607 21.7167 92.6015 30.9303 91.039C38.4371 89.765 48.2345 89.0163 48.65 88.9854C49.8794 88.8927 50.9508 89.813 51.0435 91.0424C51.1362 92.2718 50.2159 93.3433 48.9865 93.436C48.8869 93.4428 38.9797 94.1983 31.6789 95.438C24.2991 96.6914 19.9653 98.4737 18.7978 100.73C18.5986 101.115 17.9942 102.286 19.1927 104.772C20.0924 106.636 25.4873 106.609 30.2503 106.578L31.4145 106.571C40.6246 106.537 50.6486 104.123 50.7482 104.099C51.9467 103.81 53.152 104.542 53.4439 105.74C53.7358 106.939 53.0009 108.144 51.8059 108.436C51.3766 108.542 41.1809 111.001 31.4316 111.035L30.2778 111.042C29.6597 111.046 29.0484 111.049 28.4406 111.049H28.4372Z" fill="black"/>
<path d="M148.139 66.6133C148.074 66.6133 148.012 66.6133 147.947 66.603L134.139 65.3667C132.961 65.2603 132.092 64.2197 132.195 63.0419C132.301 61.864 133.338 60.9883 134.52 61.0982L148.328 62.3344C149.506 62.4409 150.375 63.4814 150.272 64.6593C150.172 65.7719 149.238 66.6098 148.139 66.6098V66.6133Z" fill="black"/>
</svg>
