<?xml version="1.0" encoding="UTF-8"?>
<!DOCTYPE svg PUBLIC "-//W3C//DTD SVG 1.1//EN" "http://www.w3.org/Graphics/SVG/1.1/DTD/svg11.dtd">
<svg xmlns="http://www.w3.org/2000/svg" version="1.1" width="492px" height="492px" style="shape-rendering:geometricPrecision; text-rendering:geometricPrecision; image-rendering:optimizeQuality; fill-rule:evenodd; clip-rule:evenodd" xmlns:xlink="http://www.w3.org/1999/xlink">
<g><path style="opacity:0.973" fill="#020100" d="M 251.5,434.5 C 249.58,441.126 245.58,446.293 239.5,450C 216.5,450.667 193.5,450.667 170.5,450C 165.494,447.162 162.161,442.995 160.5,437.5C 158.932,427.93 162.599,421.43 171.5,418C 140.687,412.185 123.187,393.685 119,362.5C 117.206,352.228 115.873,341.895 115,331.5C 96.52,334.32 78.02,334.153 59.5,331C 50.3333,328.5 44.5,322.667 42,313.5C 39.3757,301.703 42.8757,292.203 52.5,285C 58.2643,281.784 64.2643,279.117 70.5,277C 84.6494,273.364 98.9828,270.697 113.5,269C 100.803,258.306 90.3027,245.806 82,231.5C 74.6394,234.873 67.8061,239.039 61.5,244C 53.4469,244.62 50.6136,241.12 53,233.5C 59.7171,227.223 67.2171,222.056 75.5,218C 74.782,216.013 73.782,214.179 72.5,212.5C 64.9363,215.084 57.2696,216.917 49.5,218C 43.535,214.104 43.2017,209.77 48.5,205C 55.2329,202.443 62.0662,200.277 69,198.5C 69.4151,170.838 76.0818,144.838 89,120.5C 92.8872,115.37 97.2205,110.703 102,106.5C 101.703,95.5234 102.037,84.5234 103,73.5C 103.582,67.5049 105.248,61.8382 108,56.5C 112.852,51.2124 118.352,50.3791 124.5,54C 135.32,62.497 144.153,72.6637 151,84.5C 175.504,76.2773 200.67,72.7773 226.5,74C 230.555,74.2315 234.555,74.7315 238.5,75.5C 242.571,69.0319 246.404,62.3652 250,55.5C 253.453,50.3788 257.286,45.5455 261.5,41C 269.858,36.3543 276.358,38.1876 281,46.5C 285.817,60.0686 288.484,74.0686 289,88.5C 304.485,104.125 316.485,122.125 325,142.5C 329.532,155.786 331.699,169.452 331.5,183.5C 335.971,183.689 340.304,184.523 344.5,186C 347.6,190.733 346.934,194.733 342.5,198C 338.167,198.333 333.833,198.667 329.5,199C 328.773,201.124 328.106,203.291 327.5,205.5C 333.343,208.068 339.343,210.568 345.5,213C 348.948,219.266 347.281,223.433 340.5,225.5C 334.614,223.427 328.614,221.76 322.5,220.5C 317.698,234.147 309.865,245.814 299,255.5C 298.833,256.5 298.667,257.5 298.5,258.5C 303.844,283.227 305.844,308.227 304.5,333.5C 326.582,331.196 346.915,324.029 365.5,312C 369.702,308.133 373.535,303.967 377,299.5C 387.97,274.455 394.47,248.288 396.5,221C 394.177,208.081 392.51,195.081 391.5,182C 391.434,171.762 393.934,162.262 399,153.5C 403.241,148.714 408.575,146.38 415,146.5C 431.727,146.691 442.727,154.691 448,170.5C 450.401,178.841 451.901,187.341 452.5,196C 450.042,234.204 444.876,272.037 437,309.5C 427.714,333.126 412.214,351.626 390.5,365C 363.406,381.109 334.072,389.775 302.5,391C 289.197,403.605 273.53,411.938 255.5,416C 253.57,421.986 252.236,428.153 251.5,434.5 Z"/></g>
<g><path style="opacity:1" fill="#f29530" d="M 277.5,334.5 C 281.634,335.485 285.968,335.818 290.5,335.5C 290.198,338.059 290.532,340.393 291.5,342.5C 291.393,344.903 292.393,346.736 294.5,348C 324.456,346.792 351.79,337.792 376.5,321C 380.369,317.466 383.869,313.633 387,309.5C 391.978,299.218 396.645,288.884 401,278.5C 410.317,281.044 419.15,284.544 427.5,289C 426.344,300.805 422.511,311.639 416,321.5C 396.405,347.726 370.572,364.559 338.5,372C 324.265,374.723 309.932,376.723 295.5,378C 285.803,387.849 274.469,395.183 261.5,400C 237.568,406.246 213.235,408.246 188.5,406C 172.129,405.767 157.629,400.601 145,390.5C 139.991,383.149 136.324,375.149 134,366.5C 131.808,355.947 130.308,345.28 129.5,334.5C 129.613,332.359 130.28,330.525 131.5,329C 139.961,327.841 148.294,326.175 156.5,324C 160.032,320.61 160.366,316.943 157.5,313C 155.966,312.077 154.299,311.577 152.5,311.5C 123.214,318.857 93.5477,321.024 63.5,318C 60.7799,317.277 58.6132,315.777 57,313.5C 52.9004,303.523 56.067,296.689 66.5,293C 74.6161,289.888 82.9494,287.554 91.5,286C 110.429,283.092 129.429,280.759 148.5,279C 152.883,276.082 153.55,272.415 150.5,268C 148.966,267.077 147.299,266.577 145.5,266.5C 140.82,267.654 136.154,267.654 131.5,266.5C 116.994,255.332 104.994,241.999 95.5,226.5C 100.249,224.229 105.249,222.729 110.5,222C 115.342,218.306 115.675,214.306 111.5,210C 104.111,209.61 96.9445,210.777 90,213.5C 88.2856,212.924 87.1189,211.757 86.5,210C 93.6002,207.815 100.934,206.482 108.5,206C 115.059,201.578 115.059,197.245 108.5,193C 100.42,193.402 92.4202,194.568 84.5,196.5C 83.1506,170.564 89.3172,146.564 103,124.5C 106.7,120.465 110.7,116.798 115,113.5C 115.333,101.833 115.667,90.1667 116,78.5C 116.375,74.2788 117.375,70.2788 119,66.5C 121.333,68.8333 123.667,71.1667 126,73.5C 132.531,82.024 139.031,90.524 145.5,99C 149.535,99.2405 153.369,98.4072 157,96.5C 157.869,104.25 159.202,111.917 161,119.5C 166.515,131.713 174.515,133.713 185,125.5C 187.775,120.544 189.108,115.21 189,109.5C 189.5,102.842 189.666,96.175 189.5,89.5C 190.5,89.5 191.5,89.5 192.5,89.5C 191.826,100.058 192.993,110.391 196,120.5C 200.473,130.702 207.639,133.202 217.5,128C 220.3,123.942 222.134,119.442 223,114.5C 223.5,106.507 223.666,98.5069 223.5,90.5C 224.552,88.744 226.219,88.0773 228.5,88.5C 232.849,88.585 237.182,88.9184 241.5,89.5C 243.965,89.5223 246.298,89.0223 248.5,88C 253.809,76.379 260.142,65.379 267.5,55C 268.332,54.3123 268.998,54.479 269.5,55.5C 271.134,59.7016 272.301,64.035 273,68.5C 273.835,77.2093 274.835,85.876 276,94.5C 284.045,103.542 291.711,112.876 299,122.5C 312.345,141.37 318.511,162.37 317.5,185.5C 306.124,186.19 294.791,187.356 283.5,189C 277.941,190.458 276.108,193.958 278,199.5C 279.47,201.152 281.303,202.152 283.5,202.5C 294.087,200.344 304.754,199.177 315.5,199C 314.74,200.441 314.074,201.941 313.5,203.5C 303.851,204.332 294.184,204.832 284.5,205C 279.577,208.615 279.244,212.615 283.5,217C 291.827,217.5 300.16,217.666 308.5,217.5C 306.738,223.691 303.904,229.358 300,234.5C 294.994,239.839 289.661,244.839 284,249.5C 284.283,256.204 285.116,262.871 286.5,269.5C 276.711,268.984 268.211,271.984 261,278.5C 256.767,287.135 258.934,293.635 267.5,298C 275.014,300.135 282.681,300.968 290.5,300.5C 290.5,301.5 290.5,302.5 290.5,303.5C 281.687,303.307 273.354,305.14 265.5,309C 256.556,315.942 256.223,323.276 264.5,331C 268.599,333.09 272.933,334.256 277.5,334.5 Z"/></g>
<g><path style="opacity:1" fill="#eabd63" d="M 205.5,87.5 C 206.833,87.5 208.167,87.5 209.5,87.5C 210.968,97.1944 210.802,106.861 209,116.5C 207.253,113.79 206.253,110.79 206,107.5C 205.5,100.842 205.334,94.175 205.5,87.5 Z"/></g>
<g><path style="opacity:1" fill="#88531b" d="M 228.5,88.5 C 226.219,88.0773 224.552,88.744 223.5,90.5C 222.596,89.791 222.263,88.791 222.5,87.5C 224.735,87.2053 226.735,87.5386 228.5,88.5 Z"/></g>
<g><path style="opacity:1" fill="#ecbe64" d="M 171.5,92.5 C 172.833,92.5 174.167,92.5 175.5,92.5C 175.964,100.34 175.464,108.007 174,115.5C 171.025,107.979 170.191,100.312 171.5,92.5 Z"/></g>
<g><path style="opacity:1" fill="#ed912f" d="M 411.5,160.5 C 428.712,159.712 437.046,168.045 436.5,185.5C 426.17,184.786 415.837,184.119 405.5,183.5C 404.552,174.956 406.552,167.289 411.5,160.5 Z"/></g>
<g><path style="opacity:1" fill="#060300" d="M 171.5,176.5 C 178.827,175.329 181.994,178.329 181,185.5C 174.852,191.571 170.352,190.571 167.5,182.5C 168.432,180.235 169.765,178.235 171.5,176.5 Z"/></g>
<g><path style="opacity:1" fill="#100802" d="M 210.5,175.5 C 216.653,175.484 219.486,178.484 219,184.5C 217.053,188.557 213.886,190.057 209.5,189C 204.088,184.187 204.421,179.687 210.5,175.5 Z"/></g>
<g><path style="opacity:1" fill="#e98f2e" d="M 435.5,198.5 C 437.273,201.488 437.94,204.821 437.5,208.5C 428.23,207.248 418.897,206.415 409.5,206C 408.376,205.161 407.709,203.994 407.5,202.5C 406.63,200.091 406.63,197.758 407.5,195.5C 416.755,197.066 426.089,198.066 435.5,198.5 Z"/></g>
<g><path style="opacity:1" fill="#7d4d19" d="M 435.5,198.5 C 436.5,198.5 437.5,198.5 438.5,198.5C 438.813,202.042 438.479,205.375 437.5,208.5C 437.94,204.821 437.273,201.488 435.5,198.5 Z"/></g>
<g><path style="opacity:1" fill="#080401" d="M 182.5,212.5 C 188.176,212.334 193.843,212.501 199.5,213C 202.196,213.69 204.363,215.19 206,217.5C 208.203,226.078 206.037,233.245 199.5,239C 196.298,240.483 192.964,240.817 189.5,240C 180.324,234.487 176.49,226.653 178,216.5C 179.667,215.267 181.167,213.933 182.5,212.5 Z"/></g>
<g><path style="opacity:1" fill="#e48c2d" d="M 409.5,219.5 C 418.548,219.644 427.548,220.311 436.5,221.5C 436.425,224.206 436.092,226.873 435.5,229.5C 426.857,228.282 418.191,227.282 409.5,226.5C 409.5,224.167 409.5,221.833 409.5,219.5 Z"/></g>
<g><path style="opacity:1" fill="#6f4338" d="M 197.5,222.5 C 193.629,222.185 189.962,222.518 186.5,223.5C 185.957,223.44 185.624,223.107 185.5,222.5C 189.649,221.191 193.649,221.191 197.5,222.5 Z"/></g>
<g><path style="opacity:1" fill="#e58b73" d="M 197.5,222.5 C 195.521,233.894 191.854,234.228 186.5,223.5C 189.962,222.518 193.629,222.185 197.5,222.5 Z"/></g>
<g><path style="opacity:1" fill="#e18a2d" d="M 408.5,239.5 C 416.822,240.609 425.155,241.609 433.5,242.5C 433.5,244.5 433.5,246.5 433.5,248.5C 425.502,247.401 417.502,246.234 409.5,245C 407.19,243.541 406.857,241.708 408.5,239.5 Z"/></g>
<g><path style="opacity:1" fill="#e98f2e" d="M 404.5,257.5 C 413.497,258.832 422.497,260.166 431.5,261.5C 431.073,265.926 430.239,270.26 429,274.5C 420.894,271.198 412.727,268.031 404.5,265C 404.263,262.712 404.263,260.212 404.5,257.5 Z"/></g>
<g><path style="opacity:1" fill="#e9bc62" d="M 288.5,283.5 C 288.5,284.5 288.5,285.5 288.5,286.5C 285.167,286.5 281.833,286.5 278.5,286.5C 276.712,286.785 275.045,286.452 273.5,285.5C 278.385,282.765 283.385,282.098 288.5,283.5 Z"/></g>
<g><path style="opacity:1" fill="#896f3a" d="M 288.5,283.5 C 289.434,284.568 289.768,285.901 289.5,287.5C 285.629,287.815 281.962,287.482 278.5,286.5C 281.833,286.5 285.167,286.5 288.5,286.5C 288.5,285.5 288.5,284.5 288.5,283.5 Z"/></g>
<g><path style="opacity:1" fill="#e2b760" d="M 283.5,316.5 C 286.167,316.5 288.833,316.5 291.5,316.5C 291.5,318.167 291.5,319.833 291.5,321.5C 285.824,321.666 280.157,321.499 274.5,321C 274.167,320.667 273.833,320.333 273.5,320C 276.776,318.308 280.109,317.141 283.5,316.5 Z"/></g>
<g><path style="opacity:1" fill="#87531a" d="M 277.5,334.5 C 282.167,334.5 286.833,334.5 291.5,334.5C 291.5,337.167 291.5,339.833 291.5,342.5C 290.532,340.393 290.198,338.059 290.5,335.5C 285.968,335.818 281.634,335.485 277.5,334.5 Z"/></g>
<g><path style="opacity:1" fill="#e48c2d" d="M 192.5,419.5 C 196.182,419.335 199.848,419.501 203.5,420C 197.197,424.122 194.864,429.955 196.5,437.5C 189.245,437.813 182.079,437.48 175,436.5C 174.202,434.741 174.369,433.074 175.5,431.5C 180.469,430.153 185.469,428.986 190.5,428C 192.314,425.519 192.98,422.685 192.5,419.5 Z"/></g>
<g><path style="opacity:1" fill="#ed922f" d="M 232.5,418.5 C 234.833,418.5 237.167,418.5 239.5,418.5C 239.429,424.783 238.096,430.783 235.5,436.5C 226.941,437.815 218.441,437.815 210,436.5C 209.202,434.741 209.369,433.074 210.5,431.5C 215.469,430.153 220.469,428.986 225.5,428C 228.125,425.804 229.125,422.97 228.5,419.5C 230.099,419.768 231.432,419.434 232.5,418.5 Z"/></g>
<g><path style="opacity:0.99" fill="#98c7d1" d="M 251.5,434.5 C 274.33,434.954 296.996,437.121 319.5,441C 327.004,442.376 334.337,444.376 341.5,447C 344.759,448.211 347.592,450.044 350,452.5C 351.123,455.956 350.29,458.79 347.5,461C 332.541,467.657 316.874,471.657 300.5,473C 259.559,476.817 218.559,477.483 177.5,475C 156.703,473.812 136.37,470.145 116.5,464C 113.241,462.789 110.408,460.956 108,458.5C 106.877,455.044 107.71,452.21 110.5,450C 126.464,443.106 143.131,438.94 160.5,437.5C 162.161,442.995 165.494,447.162 170.5,450C 193.5,450.667 216.5,450.667 239.5,450C 245.58,446.293 249.58,441.126 251.5,434.5 Z"/></g>
</svg>
