<svg width="164" height="164" viewBox="0 0 164 164" fill="none" xmlns="http://www.w3.org/2000/svg">
<ellipse cx="76.5" cy="152" rx="40.5" ry="7" fill="#99C9D3"/>
<path d="M73.6071 127.721C73.4457 129.407 74.3317 148.789 69.0261 148.789H58.7823C58.7823 148.789 56.0488 148.628 56.0488 145.012C56.0488 141.396 62.3744 141.636 62.3744 141.636L61.1106 125.005" fill="white"/>
<path d="M69.0302 151.021H58.7864C58.7418 151.021 58.7006 151.021 58.6559 151.018C56.7122 150.904 53.8242 149.211 53.8242 145.011C53.8242 143.662 54.3359 142.453 55.3077 141.519C56.592 140.283 58.4602 139.761 59.9849 139.544L58.8929 125.176C58.8002 123.947 59.7205 122.876 60.9499 122.783C62.1793 122.69 63.2507 123.61 63.3434 124.84L64.6071 141.471C64.6552 142.106 64.432 142.731 63.989 143.188C63.5494 143.645 62.9348 143.895 62.296 143.871C61.0838 143.837 59.0508 144.112 58.4018 144.74C58.3159 144.826 58.2885 144.871 58.2885 145.015C58.2885 145.65 58.4052 146.423 58.9512 146.56H68.9821C69.1641 146.419 70.2768 145.358 70.9086 139.853C71.3447 136.052 71.3516 131.79 71.355 129.496C71.355 128.363 71.3585 127.848 71.3928 127.511C71.5096 126.286 72.5982 125.386 73.8276 125.503C75.0535 125.619 75.9532 126.708 75.8365 127.934C75.8227 128.116 75.8227 128.854 75.8193 129.507C75.8021 140.685 74.9677 151.024 69.0336 151.024L69.0302 151.021Z" fill="black"/>
<path d="M83.0237 127.721C82.8623 129.407 83.7482 148.789 78.4426 148.789H70.4894C70.4894 148.789 67.7559 148.627 67.7559 145.011C67.7559 141.395 74.0814 141.636 74.0814 141.636L72.8176 125.004" fill="white"/>
<path d="M78.4467 151.021H70.4935C70.4488 151.021 70.4076 151.021 70.363 151.017C68.4193 150.904 65.5312 149.211 65.5312 145.011C65.5312 143.661 66.0429 142.453 67.0148 141.518C68.2991 140.282 70.1672 139.76 71.692 139.544L70.5999 125.176C70.5072 123.946 71.4275 122.875 72.6569 122.782C73.8829 122.69 74.9577 123.61 75.0504 124.839L76.3142 141.47C76.3623 142.106 76.139 142.731 75.696 143.187C75.253 143.644 74.6384 143.895 74.0031 143.871C72.7908 143.836 70.7579 144.111 70.1089 144.74C70.023 144.825 69.9955 144.87 69.9955 145.014C69.9955 145.65 70.1123 146.422 70.6583 146.56H78.3986C78.5806 146.419 79.6933 145.358 80.3252 139.853C80.7613 136.051 80.7681 131.79 80.7716 129.496C80.7716 128.363 80.775 127.851 80.8093 127.511C80.9261 126.285 82.0182 125.389 83.2441 125.502C84.4701 125.619 85.3698 126.707 85.2565 127.93C85.2427 128.112 85.2427 128.85 85.2393 129.503C85.2221 140.681 84.3876 151.024 78.4536 151.024L78.4467 151.021Z" fill="black"/>
<path d="M101.457 121.814C101.457 121.814 101.996 123.847 103.675 124.84C105.355 125.832 106.502 123.215 106.502 123.215C106.502 123.215 107.652 125.413 109.716 125.413C111.78 125.413 111.34 120.839 111.34 120.839C111.34 120.839 112.971 119.867 113.806 117.831C114.64 115.798 112.284 115.132 112.284 115.132C112.284 115.132 113.222 113.913 112.549 111.811C111.876 109.709 109.551 111.134 109.551 111.134C109.551 111.134 108.407 109.263 106.56 109.325C104.712 109.387 104.317 111.426 104.317 111.426C104.317 111.426 103.847 110.276 101.876 110.685C99.9047 111.093 99.9219 114.579 99.9219 114.579" fill="white"/>
<path d="M109.716 127.645C108.424 127.645 107.377 127.182 106.57 126.598C106.261 126.814 105.914 127 105.526 127.123C104.534 127.443 103.473 127.316 102.539 126.763C100.142 125.348 99.3758 122.686 99.2968 122.388C98.9809 121.196 99.6883 119.974 100.88 119.658C102.065 119.345 103.28 120.042 103.606 121.224C103.679 121.474 103.926 122.072 104.341 122.528C104.389 122.453 104.431 122.374 104.465 122.302C104.808 121.515 105.571 121.007 106.429 120.976C107.291 120.939 108.081 121.419 108.479 122.182C108.576 122.353 108.806 122.666 109.084 122.896C109.156 122.367 109.173 121.653 109.118 121.048C109.039 120.173 109.427 119.355 110.196 118.923C110.196 118.923 111.069 118.353 111.615 117.264C110.88 117.041 110.231 116.55 110.035 115.808C109.839 115.066 109.953 114.376 110.468 113.82C110.509 113.72 110.581 113.494 110.554 113.14C110.073 113.408 109.547 113.49 109.001 113.36C108.404 113.215 107.947 112.834 107.642 112.302C107.484 112.058 107.013 111.567 106.653 111.56C106.601 111.629 106.532 111.766 106.501 111.876C106.35 112.862 105.567 113.576 104.575 113.7C103.795 113.792 103.043 113.442 102.569 112.838C102.549 112.838 102.521 112.841 102.494 112.844C102.312 113.164 102.15 113.961 102.147 114.582C102.14 115.811 101.144 116.811 99.9149 116.811C98.6855 116.811 97.6896 115.825 97.6828 114.596C97.669 112.144 98.6374 109.077 101.416 108.5C102.195 108.339 102.878 108.332 103.466 108.428C104.204 107.673 105.214 107.141 106.477 107.099C108.112 107.037 109.365 107.783 110.207 108.528C110.873 108.394 111.649 108.38 112.425 108.669C113.49 109.064 114.286 109.943 114.668 111.138C115.045 112.316 115.073 113.336 114.953 114.16C115.286 114.472 115.595 114.86 115.828 115.338C116.179 116.052 116.467 117.213 115.866 118.679C115.258 120.159 114.341 121.217 113.613 121.886C113.61 123.27 113.383 125.279 112.264 126.512C111.598 127.243 110.691 127.649 109.712 127.649L109.716 127.645Z" fill="black"/>
<path d="M101.045 60.2013C101.045 60.2013 105.012 61.8668 103.504 67.6154C101.997 73.364 98.7033 71.0014 98.7033 71.0014C98.7033 71.0014 102.862 75.6683 100.238 78.9959C97.6181 82.3235 94.7232 80.3661 94.7232 80.3661C94.7232 80.3661 97.0206 83.9821 94.3764 86.2726C94.3764 86.2726 103.494 104.044 100.75 123.34C100.194 127.251 97.9958 130.768 94.6786 132.917C90.0529 135.919 82.5632 138.635 70.6745 138.474C55.6025 138.268 47.4672 136.145 44.1087 127.419C39.3697 115.112 41.2756 97.7389 42.1788 92.2753C41.3237 92.162 40.3278 91.8667 39.1877 91.2898C34.3389 88.8482 38.1919 84.3633 38.1919 84.3633C38.1919 84.3633 35.7777 85.7369 31.6569 82.2651C27.5394 78.7933 34.3869 73.8001 34.3869 73.8001C34.3869 73.8001 32.1445 75.9258 28.913 70.9361C25.6816 65.9465 31.595 62.4025 31.595 62.4025L37.7832 42.1519L64.8264 31.9185L87.5254 36.5716L99.9189 43.8449L101.042 60.1944" fill="white"/>
<path d="M71.701 140.712C71.3508 140.712 71.0005 140.712 70.6434 140.705C55.482 140.496 45.9388 138.387 42.024 128.223C37.34 116.063 38.8955 99.8025 39.6785 93.9337C39.184 93.7551 38.6861 93.5388 38.1847 93.2847C35.6882 92.0278 34.8674 90.273 34.6167 89.023C34.4416 88.1473 34.4965 87.2991 34.6717 86.5299C33.3942 86.1487 31.8935 85.3863 30.2211 83.9749C28.4011 82.4434 28.0714 80.6954 28.1127 79.5038C28.1676 77.931 28.8922 76.4715 29.7782 75.2628C28.8304 74.5416 27.9169 73.5045 27.0412 72.1549C25.8462 70.3074 25.4478 68.3122 25.8977 66.3789C26.5158 63.7072 28.5488 61.8631 29.6923 61.0114L35.6538 41.506C35.8564 40.8467 36.3509 40.3144 37 40.0706L64.0431 29.8406C64.438 29.6895 64.8673 29.6551 65.2828 29.741L87.9819 34.3941C88.2223 34.4422 88.4523 34.5315 88.6618 34.6551L101.055 41.9284C101.691 42.3027 102.103 42.9655 102.154 43.7004L103.198 58.9132C105.029 60.3384 106.938 63.3397 105.667 68.1817C105.039 70.5684 104.012 72.203 102.604 73.0547C103.555 75.328 103.833 78.0512 102 80.3795C100.842 81.8458 99.4138 82.7696 97.8685 83.0649C97.9372 84.2325 97.7277 85.4756 97.0135 86.6089C99.1151 91.2174 105.368 106.743 102.965 123.655C102.312 128.243 99.7367 132.302 95.9008 134.792C89.8397 138.724 81.7044 140.712 71.7079 140.712H71.701ZM38.3255 81.9798C38.9059 81.9798 39.4862 82.2442 39.9464 82.7215C40.7431 83.5526 40.6401 84.9468 39.888 85.819C39.5481 86.2242 38.8406 87.3953 38.9951 88.1542C39.0776 88.556 39.4793 88.9406 40.1902 89.2977C41.0144 89.7132 41.7836 89.9708 42.4738 90.0635C43.0714 90.1425 43.6139 90.4619 43.9711 90.9495C44.3317 91.4337 44.4759 92.045 44.3798 92.6425C41.7012 108.8 44.2561 121.602 46.1895 126.619C48.8784 133.6 55.0631 136.028 70.7052 136.245C80.2896 136.375 87.9475 134.627 93.4661 131.049C96.2202 129.263 98.0711 126.341 98.5416 123.03C101.151 104.648 92.477 87.4674 92.3912 87.2957C91.9207 86.3822 92.1371 85.2627 92.9166 84.5896C94.0636 83.5938 92.8823 81.6329 92.8342 81.5505C92.2573 80.6405 92.3706 79.4214 93.1639 78.6899C93.9502 77.9654 95.1007 77.8761 95.9626 78.5079C96.543 78.8445 97.4461 78.9509 98.4935 77.6185C99.8706 75.8706 97.0718 72.5224 97.0443 72.488C96.2683 71.6192 96.2373 70.2559 97.0443 69.4146C97.8445 68.5835 99.0876 68.453 99.9873 69.1707C100.087 69.2223 100.224 69.2635 100.265 69.2532C100.375 69.2223 100.911 68.7312 101.354 67.0519C102.271 63.5664 100.588 62.4709 100.169 62.258C99.352 61.9524 98.8884 61.2347 98.83 60.3624L97.7896 45.1873L86.7319 38.7004L65.0287 34.2499L39.6167 43.8652L33.7479 63.0684C33.5865 63.5973 33.2328 64.0471 32.7589 64.3322C32.182 64.6859 30.5886 65.9427 30.2555 67.4125C30.0872 68.1508 30.2658 68.9132 30.8015 69.7374C32.0824 71.7119 32.8928 71.9901 33.068 72.0279C33.0748 72.021 33.0817 72.0176 33.0886 72.0107C34.0398 71.317 35.3653 71.4819 36.1174 72.385C36.8695 73.2882 36.7905 74.624 35.9389 75.4345C35.8152 75.5512 35.671 75.668 35.5096 75.7779C34.2837 76.736 32.625 78.5148 32.5872 79.6755C32.5838 79.8197 32.5735 80.1185 33.1126 80.5752C35.4718 82.5635 36.8523 82.4502 37.1751 82.385C37.5391 82.1206 37.9409 81.9935 38.3393 81.9935L38.3255 81.9798Z" fill="black"/>
<path d="M101.044 60.2007C101.044 60.2007 105.011 61.8662 103.503 67.6148C101.996 73.3634 98.7024 71.0008 98.7024 71.0008C98.7024 71.0008 102.861 75.6676 100.237 78.9952C97.6173 82.3228 94.7224 80.3654 94.7224 80.3654C94.7224 80.3654 97.0197 83.9815 94.3755 86.272C91.7313 88.5625 89.7774 87.6937 89.252 86.6291" fill="white"/>
<path d="M91.2305 89.9502C90.8665 89.9502 90.5368 89.9125 90.2449 89.8507C88.9228 89.5828 87.8033 88.7449 87.247 87.6082C86.7044 86.5025 87.1611 85.1632 88.2703 84.6206C89.3211 84.1055 90.578 84.4901 91.1687 85.4791C91.3679 85.4963 91.9688 85.4001 92.9132 84.5794C94.0601 83.5835 92.8788 81.6227 92.8308 81.5402C92.2538 80.6302 92.3671 79.4111 93.1604 78.6797C93.9468 77.9551 95.0972 77.8658 95.9592 78.4977C96.5395 78.8342 97.4427 78.9407 98.4901 77.6083C99.8671 75.8603 97.0684 72.5121 97.0409 72.4778C96.2648 71.609 96.2339 70.2457 97.0409 69.4043C97.841 68.5733 99.0842 68.4428 99.9839 69.1605C100.083 69.212 100.221 69.2532 100.262 69.2429C100.372 69.212 100.908 68.7209 101.351 67.0417C102.288 63.4737 100.506 62.4091 100.138 62.234L100.187 62.2546L101.917 58.1406C103.909 58.9751 107.254 62.1516 105.671 68.1784C105.042 70.565 104.015 72.1996 102.607 73.0513C103.559 75.3246 103.837 78.0478 102.003 80.3761C100.846 81.8424 99.4173 82.7662 97.872 83.0615C97.9715 84.7167 97.5079 86.5162 95.8459 87.9585C94.0464 89.5175 92.453 89.9502 91.2408 89.9502H91.2305Z" fill="black"/>
<path d="M59.3422 60.3143C58.7275 59.9572 57.948 60.1598 57.4844 60.6955C57.0963 61.1419 56.7907 61.7875 57.3332 62.4641C58.3909 63.7793 60.0462 62.3233 60.0462 61.6193C60.0462 61.1625 59.8641 60.6131 59.3422 60.3109V60.3143Z" fill="black"/>
<path d="M58.3595 63.8552C57.7139 63.8552 57.113 63.5599 56.6666 63.007C55.966 62.1382 56.0313 61.0633 56.8383 60.1361C57.5972 59.2639 58.8334 59.0269 59.7778 59.5729C60.4852 59.985 60.9076 60.7508 60.9076 61.6231C60.9076 62.4335 60.1075 63.3744 59.1253 63.7213C58.8678 63.8106 58.6102 63.8552 58.3595 63.8552ZM58.672 60.9946C58.4694 60.9946 58.2634 61.1114 58.1295 61.2625C57.7826 61.6608 57.8994 61.8051 57.999 61.9287C58.181 62.1553 58.3217 62.1519 58.4385 62.1313C58.7853 62.0695 59.1082 61.7295 59.1803 61.575C59.1734 61.4342 59.1253 61.1869 58.9055 61.0599C58.83 61.0152 58.7476 60.9981 58.6652 60.9981L58.672 60.9946Z" fill="black"/>
<path d="M71.9193 60.3148C71.3046 59.9577 70.5251 60.1603 70.0615 60.696C69.6735 61.1424 69.3678 61.788 69.9104 62.4645C70.9681 63.7798 72.6233 62.3237 72.6233 61.6198C72.6233 61.163 72.4413 60.6136 71.9193 60.3114V60.3148Z" fill="black"/>
<path d="M70.9328 63.8552C70.2872 63.8552 69.6862 63.5599 69.2398 63.007C68.5393 62.1382 68.6045 61.0633 69.4115 60.1361C70.1704 59.2639 71.4067 59.0269 72.351 59.5729C73.0584 59.985 73.4808 60.7508 73.4808 61.6231C73.4808 62.4335 72.6807 63.3744 71.6986 63.7213C71.441 63.8106 71.1835 63.8552 70.9328 63.8552ZM71.2487 60.9946C71.0461 60.9946 70.8366 61.1114 70.7062 61.2625C70.3593 61.6608 70.4761 61.8051 70.5757 61.9287C70.7577 62.1553 70.8984 62.1519 71.0152 62.1313C71.362 62.0695 71.6848 61.7295 71.7569 61.575C71.7501 61.4342 71.702 61.1869 71.4823 61.0599C71.4067 61.0152 71.3243 60.9981 71.2418 60.9981L71.2487 60.9946Z" fill="black"/>
<path d="M64.9232 79.3701C63.529 79.3701 62.3511 78.2197 60.8573 75.3934C60.6032 74.9127 60.6204 74.3392 60.8985 73.8722C61.1767 73.4086 61.6815 73.1235 62.2206 73.1235H66.1973C66.6163 73.1235 67.0146 73.2918 67.3065 73.594C67.5984 73.8962 67.7529 74.3014 67.7426 74.7169C67.6499 77.6702 66.6231 79.3666 64.9198 79.3666L64.9232 79.3701Z" fill="#EF9178"/>
<path d="M66.2014 74.6727C66.2014 74.6727 66.1018 77.8252 64.9239 77.8252C64.3333 77.8252 63.4748 77.0388 62.2248 74.6727H66.2014ZM66.2014 71.5821H62.2248C61.1396 71.5821 60.1369 72.1487 59.5771 73.0793C59.0174 74.0065 58.9865 75.1603 59.4913 76.1184C60.7481 78.4914 62.3724 80.9158 64.9205 80.9158C65.676 80.9158 68.2069 80.6273 69.0208 76.9083C69.2474 75.8712 69.2852 74.8787 69.2886 74.7688C69.3161 73.9344 69.0002 73.1205 68.4198 72.5195C67.836 71.9186 67.0359 71.5786 66.2014 71.5786V71.5821Z" fill="black"/>
<path d="M48.9075 91.7144C48.9075 91.7144 38.887 92.4698 31.3939 93.7439C21.3939 95.4437 13.5402 98.5103 17.273 106.247C18.8836 109.582 24.9825 109.334 31.5106 109.31C41.1088 109.276 51.3663 106.773 51.3663 106.773" fill="white"/>
<path d="M28.5255 111.553C22.5606 111.553 17.1897 111.213 15.2632 107.212C13.8243 104.232 13.711 101.533 14.9232 99.1836C16.8429 95.4611 21.8085 93.1019 31.0221 91.5394C38.5289 90.2654 48.3262 89.5168 48.7418 89.4859C49.9746 89.3897 51.0426 90.3135 51.1353 91.5429C51.228 92.7723 50.3077 93.8437 49.0783 93.9364C48.9787 93.9433 39.0715 94.6988 31.7707 95.9385C24.3875 97.1919 20.0571 98.9742 18.8896 101.23C18.6904 101.615 18.086 102.786 19.2845 105.272C20.1842 107.137 25.5791 107.106 30.3421 107.079L31.5063 107.072C40.7164 107.037 50.7404 104.623 50.84 104.599C52.0384 104.307 53.2438 105.042 53.5357 106.241C53.8276 107.439 53.0927 108.644 51.8977 108.936C51.4684 109.043 41.2727 111.502 31.5234 111.536L30.3696 111.543C29.7515 111.546 29.1402 111.55 28.5324 111.55L28.5255 111.553Z" fill="black"/>
<path d="M89.3944 43.4353C89.3944 43.4353 86.5063 45.585 86.0015 48.8817C85.4933 52.175 90.3765 52.3398 90.3765 52.3398C90.3765 52.3398 87.6155 55.5644 88.9273 58.8405C90.2391 62.1165 97.2275 58.5142 97.2275 58.5142C97.2275 58.5142 99.8099 60.4854 103.57 60.5197C107.33 60.5541 106.887 56.3885 106.887 56.3885C106.887 56.3885 109.418 57.1028 112.327 54.7024C115.236 52.302 111.496 49.5101 111.496 49.5101C111.496 49.5101 113.742 46.5053 112.471 43.6104C111.201 40.7155 107.712 41.3852 107.712 41.3852C107.712 41.3852 109.24 39.9085 107.341 37.0342C105.442 34.1634 99.9129 36.4092 99.9129 36.4092C99.9129 36.4092 103.11 33.9333 99.3325 29.9498C95.5516 25.9629 91.7089 30.7637 91.7089 30.7637C91.7089 30.7637 92.1416 25.5439 89.2604 23.3667C86.3793 21.1895 82.0077 24.5068 82.0077 24.5068C83.1684 21.8145 77.9521 17.1683 74.7962 17.0481C70.8745 16.9004 67.7942 20.932 67.7942 20.932C67.7942 20.932 67.0147 17.1236 62.0456 16.3269C57.0731 15.5336 55.7544 20.877 55.7544 20.877C55.7544 20.877 53.2991 18.6621 48.6184 19.9224C44.0306 21.1586 45.3046 28.48 45.3046 28.48C45.3046 28.48 43.7593 25.7431 37.6982 26.3887C31.6371 27.0343 32.3651 35.7877 32.3651 35.7877C32.3651 35.7877 29.7518 32.7794 25.1708 36.0212C20.5897 39.2629 21.8535 43.3529 21.8535 43.3529C21.8535 43.3529 16.2354 42.8962 16.2354 47.1613C16.2354 51.4263 20.6309 53.4421 20.6309 53.4421C20.6309 53.4421 14.9235 56.6186 17.9318 60.9352C20.94 65.2518 26.5856 60.9421 26.5856 60.9421C26.5856 60.9421 23.0931 67.0101 27.4372 67.7656C31.7847 68.5245 35.5691 68.1193 35.6652 64.3624C35.6652 64.3624 39.5422 67.769 42.9935 64.5444C46.4447 61.3198 44.1782 58.3219 42.7909 57.7381C42.7909 57.7381 48.7696 54.4723 47.1865 50.609C45.9468 47.5802 41.9392 46.6771 41.9392 46.6771" fill="white"/>
<path d="M30.6689 70.3034C29.5872 70.3034 28.3852 70.1867 27.0528 69.9532C25.3873 69.6613 24.1201 68.7547 23.4848 67.3982C23.1208 66.6187 23.0006 65.7671 23.035 64.9257C22.2074 65.0837 21.3283 65.1318 20.4388 64.991C18.6806 64.7162 17.1834 63.7478 16.0982 62.1956C14.9616 60.5645 14.5735 58.7788 14.9787 57.0308C15.305 55.6126 16.1016 54.4416 16.9395 53.5453C15.4835 52.1888 14 50.0837 14 47.1476C14 45.4649 14.6078 44.0158 15.7582 42.9546C16.864 41.9347 18.2857 41.4643 19.4979 41.2514C19.6696 39.2562 20.5934 36.5124 23.8798 34.1841C26.3317 32.4499 28.5226 32.0824 30.274 32.3469C30.8166 28.7239 32.6984 24.6649 37.458 24.1567C39.7794 23.9094 41.5926 24.1017 42.9903 24.4932C43.3474 21.5949 44.6798 18.6587 48.0349 17.7556C50.8886 16.9864 53.1104 17.2783 54.6592 17.7968C55.9881 15.6059 58.4607 13.4836 62.3926 14.1121C65.3631 14.586 67.2003 15.939 68.3198 17.2748C69.9063 16.0077 72.1969 14.6993 74.8788 14.8057C78.0176 14.9225 81.7023 17.7556 83.3163 20.314C83.4709 20.5578 83.6082 20.7982 83.725 21.0317C85.8781 20.2178 88.4743 19.9671 90.6034 21.5742C92.3376 22.8826 93.1892 24.84 93.6013 26.6292C94.2744 26.3544 95.023 26.1621 95.8334 26.1278C97.1315 26.0729 99.0752 26.4231 100.95 28.4011C102.478 30.0117 103.299 31.6738 103.399 33.3496C106.702 33.1504 108.371 34.5412 109.202 35.7947C110.068 37.0996 110.442 38.2912 110.517 39.3249C112.059 39.7335 113.642 40.7088 114.518 42.704C115.528 45.0013 115.044 47.388 114.278 49.1153C114.968 49.967 115.634 51.1449 115.669 52.546C115.693 53.5693 115.38 55.07 113.749 56.4161C111.96 57.8893 110.246 58.4594 108.91 58.638C108.708 59.4484 108.33 60.3275 107.647 61.083C106.949 61.8522 105.665 62.752 103.55 62.7451C100.696 62.721 98.3987 61.7561 97.0834 61.0418C95.2325 61.8419 91.8259 63.0164 89.3637 62.0995C88.1858 61.6599 87.317 60.8186 86.8568 59.6647C85.9914 57.5047 86.352 55.4271 86.9702 53.8337C86.1735 53.4903 85.3836 52.9924 84.7724 52.2575C83.9173 51.2273 83.5773 49.9395 83.7937 48.5384C84.4221 44.4588 87.6913 41.921 88.0622 41.6428C89.0512 40.9045 90.4488 41.1106 91.1871 42.0996C91.922 43.0851 91.7195 44.4759 90.7407 45.2177C90.6892 45.2589 88.5636 46.921 88.2099 49.2218C88.1892 49.3523 88.203 49.4038 88.203 49.4038C88.3712 49.6991 89.5697 50.0769 90.4523 50.1078C91.3108 50.1353 92.0766 50.6538 92.42 51.4402C92.7634 52.2266 92.6295 53.14 92.0732 53.7925C92.0629 53.8028 90.2565 56.004 90.9742 57.9443C91.7229 58.2087 94.2469 57.5356 96.2043 56.5295C96.9701 56.138 97.8973 56.217 98.5807 56.7424C98.5875 56.7492 100.669 58.2636 103.588 58.2877C103.952 58.2877 104.213 58.2259 104.333 58.0954C104.604 57.8001 104.697 57.0411 104.662 56.6016C104.58 55.8426 104.834 55.0837 105.432 54.6064C106.022 54.1359 106.747 53.9917 107.461 54.2286C107.698 54.2699 109.137 54.4347 110.905 52.9786C111.16 52.7692 111.204 52.649 111.204 52.649C111.204 52.4189 110.71 51.7218 110.147 51.2891C109.178 50.5439 108.976 49.1497 109.707 48.171C109.71 48.1641 111.136 46.1243 110.425 44.5034C109.903 43.3118 108.289 43.5487 108.107 43.5762C107.135 43.7651 106.17 43.2878 105.717 42.4121C105.291 41.5913 105.428 40.5955 106.033 39.9086C106.098 39.7507 106.108 39.2115 105.48 38.2637C104.934 37.4396 102.358 37.831 100.748 38.4766C99.6933 38.899 98.433 38.4973 97.8973 37.4945C97.365 36.5021 97.6054 35.3036 98.5223 34.658C98.6082 34.5756 98.9207 34.2425 98.9413 33.7686C98.9687 33.1607 98.5326 32.3469 97.7085 31.4781C96.8431 30.5646 96.2284 30.5886 96.0292 30.5921C94.9372 30.6298 93.7661 31.7665 93.4399 32.1614C92.8183 32.9169 91.7778 33.1848 90.8712 32.8173C89.9681 32.4499 89.4015 31.5433 89.4804 30.5715C89.5594 29.5344 89.4427 26.2961 87.9111 25.1388C86.7813 24.2871 84.3019 25.5646 83.3472 26.2789C82.5368 26.8833 81.4173 26.873 80.624 26.2446C79.8411 25.6264 79.5629 24.5687 79.9372 23.6518C79.9372 23.4939 79.7724 22.8551 78.9276 21.8936C77.5883 20.3655 75.6618 19.3043 74.7071 19.2666C72.4681 19.1945 70.2291 21.4163 69.5561 22.2817C69.0101 22.9822 68.1069 23.3462 67.245 23.1264C66.3899 22.9067 65.7511 22.2542 65.6035 21.3888C65.5142 21.0557 64.8377 19.0262 61.6852 18.5214C58.8281 18.0612 58.0005 21.0591 57.9147 21.4025C57.7224 22.1855 57.1626 22.838 56.3899 23.0578C55.6241 23.2707 54.8412 23.099 54.2711 22.5461C54.0513 22.3813 52.3652 21.2171 49.1922 22.0722C46.7128 22.7384 47.4889 28.044 47.4992 28.0955C47.688 29.215 47.0665 30.4204 45.9745 30.7363C44.9065 31.0419 43.835 30.6367 43.3817 29.634C43.1448 29.3833 41.7986 28.1917 37.9285 28.6003C34.1167 29.0055 34.5803 35.5337 34.5837 35.6023C34.6593 36.5879 34.1235 37.5598 33.1998 37.9135C32.2863 38.2637 31.2939 38.0302 30.6895 37.2644C30.3942 36.9828 29.0618 35.987 26.4519 37.8345C23.4505 39.9567 23.8935 42.3365 23.9828 42.7005C24.2266 43.4079 24.0858 44.1531 23.6257 44.7472C23.1655 45.3482 22.4169 45.6298 21.6614 45.568C21.0123 45.5233 19.4327 45.6263 18.7699 46.2445C18.6154 46.3887 18.454 46.6085 18.454 47.1511C18.454 49.8983 21.5309 51.3921 21.5618 51.4093C22.3173 51.7664 22.8152 52.5219 22.8427 53.3564C22.8702 54.1909 22.434 54.9738 21.706 55.3825C21.1806 55.6812 19.5941 56.8248 19.3159 58.0473C19.2438 58.3632 19.2129 58.8749 19.752 59.6476C20.25 60.3619 20.741 60.5233 21.1119 60.5816C22.5989 60.822 24.6353 59.5995 25.2294 59.1496C26.0776 58.5143 27.2589 58.559 28.0522 59.2595C28.8454 59.9635 29.0411 61.1242 28.5089 62.0411C27.7568 63.3598 27.3413 64.9875 27.5027 65.4649C27.5439 65.4855 27.6401 65.5232 27.8083 65.5507C31.6064 66.2135 32.7877 65.537 33.059 65.3172C33.162 65.2313 33.4024 65.0356 33.423 64.2904C33.4436 63.425 33.9656 62.6489 34.7588 62.3021C35.5521 61.9553 36.4759 62.0995 37.1249 62.6695C37.513 62.9992 39.6146 64.6166 41.4552 62.8962C42.015 62.3742 42.6606 61.5878 42.5541 60.822C42.4786 60.2794 42.0562 59.8571 41.8914 59.7712C41.1015 59.4381 40.5795 58.686 40.5349 57.831C40.4903 56.9759 40.9504 56.1723 41.7025 55.7602C42.5335 55.3001 45.7718 53.0748 45.1022 51.4368C44.4566 49.864 42.2245 49.0226 41.4175 48.8337C40.2224 48.5487 39.4738 47.3537 39.752 46.1586C40.0301 44.9636 41.2149 44.2115 42.4134 44.4828C42.9388 44.603 47.6022 45.7603 49.2334 49.7472C50.6036 53.0954 48.55 56.083 46.2251 58.0404C46.5548 58.6105 46.8089 59.263 46.9394 59.9841C47.1626 61.2307 47.142 63.6895 44.5012 66.1551C41.9429 68.5486 39.0961 68.4456 36.9154 67.6317C36.5892 68.1159 36.2218 68.4868 35.8818 68.765C34.6352 69.7849 32.9079 70.2931 30.6517 70.2931L30.6689 70.3034ZM106.156 39.7713H106.153C106.153 39.7713 106.153 39.7713 106.156 39.7713Z" fill="black"/>
</svg>
