<?xml version="1.0" encoding="UTF-8"?>
<!DOCTYPE svg PUBLIC "-//W3C//DTD SVG 1.1//EN" "http://www.w3.org/Graphics/SVG/1.1/DTD/svg11.dtd">
<svg xmlns="http://www.w3.org/2000/svg" version="1.1" width="492px" height="492px" style="shape-rendering:geometricPrecision; text-rendering:geometricPrecision; image-rendering:optimizeQuality; fill-rule:evenodd; clip-rule:evenodd" xmlns:xlink="http://www.w3.org/1999/xlink">
<g><path style="opacity:0.974" fill="#030303" d="M 251.5,434.5 C 250.213,442.565 245.88,448.399 238.5,452C 216.167,452.667 193.833,452.667 171.5,452C 165.67,448.687 162.003,443.853 160.5,437.5C 160.094,428.48 164.094,422.313 172.5,419C 142.494,414.661 124.994,397.495 120,367.5C 117.704,356.265 116.204,344.931 115.5,333.5C 99.8491,334.55 84.1825,334.716 68.5,334C 46.9,331.646 38.4,319.812 43,298.5C 45.4506,293.42 48.9506,289.253 53.5,286C 59.4878,282.506 65.8211,279.839 72.5,278C 83.2194,275.524 93.886,273.191 104.5,271C 102.979,267.356 102.145,263.523 102,259.5C 94.0602,256.22 88.0602,250.887 84,243.5C 82.7161,237.135 83.8828,231.302 87.5,226C 83.1949,221.025 79.6949,215.525 77,209.5C 71.1921,206.222 68.1921,201.222 68,194.5C 53.7174,195.899 45.5507,189.399 43.5,175C 43.8372,169.327 45.8372,164.327 49.5,160C 41.1106,151.413 39.2773,141.58 44,130.5C 47.3954,126.303 51.7287,123.636 57,122.5C 61.5578,105.304 72.7244,96.304 90.5,95.5C 94.5194,74.9717 106.853,67.305 127.5,72.5C 130.298,58.0046 139.131,50.6713 154,50.5C 157.085,50.9566 160.085,51.6233 163,52.5C 170.575,41.5608 180.742,38.3941 193.5,43C 197.873,44.7131 201.707,47.2131 205,50.5C 216.663,41.3818 228.496,41.2151 240.5,50C 244.203,53.3675 247.536,57.0342 250.5,61C 255.465,60.5822 260.465,60.5822 265.5,61C 269.164,62.0024 272.331,63.8358 275,66.5C 277.435,70.372 279.602,74.372 281.5,78.5C 296.98,76.4259 306.646,83.0925 310.5,98.5C 322.883,98.8834 329.883,105.217 331.5,117.5C 340.436,120.287 345.103,126.454 345.5,136C 344.992,139.364 344.326,142.697 343.5,146C 348.355,154.802 347.355,162.802 340.5,170C 336.219,172.973 331.553,175.14 326.5,176.5C 324.943,180.724 322.276,184.057 318.5,186.5C 319.878,199.048 316.545,210.215 308.5,220C 312.309,234.214 307.476,244.047 294,249.5C 293.474,252.911 292.641,256.245 291.5,259.5C 300.435,279.97 306.101,301.303 308.5,323.5C 310.783,323.392 312.783,322.559 314.5,321C 320.018,319.713 325.018,320.713 329.5,324C 334.322,323.778 338.489,325.278 342,328.5C 343.554,336.063 345.721,343.397 348.5,350.5C 347.602,356.296 345.102,361.296 341,365.5C 340.684,380.564 333.517,385.564 319.5,380.5C 315.479,381.764 311.479,381.764 307.5,380.5C 304.844,383.801 302.678,387.468 301,391.5C 288.741,405.719 273.241,414.386 254.5,417.5C 254.035,423.294 253.035,428.961 251.5,434.5 Z"/></g>
<g><path style="opacity:1" fill="#fdfdfd" d="M 180.5,54.5 C 188.7,54.336 194.2,58.0027 197,65.5C 199.559,68.3492 202.726,69.1825 206.5,68C 217.596,53.9104 228.43,54.0771 239,68.5C 237.805,76.2966 240.971,79.7966 248.5,79C 252.796,75.0184 257.796,73.685 263.5,75C 265.041,76.5793 266.208,78.4127 267,80.5C 267.333,84.8333 267.667,89.1667 268,93.5C 269.145,96.4772 271.312,98.1439 274.5,98.5C 278.213,96.9597 281.547,94.793 284.5,92C 290.751,91.3902 294.751,94.2235 296.5,100.5C 295.952,102.556 294.786,104.223 293,105.5C 291.436,111.046 293.436,114.379 299,115.5C 302.718,114.112 306.552,113.112 310.5,112.5C 314.423,112.447 316.756,114.28 317.5,118C 314.766,128.272 318.766,132.605 329.5,131C 331.282,133.243 331.782,135.743 331,138.5C 329.802,141.55 328.635,144.55 327.5,147.5C 327.695,150.89 329.195,153.557 332,155.5C 331.983,159.485 329.817,161.652 325.5,162C 316.596,160.739 312.263,164.573 312.5,173.5C 311.167,173.833 309.833,174.167 308.5,174.5C 302.252,173.584 296.419,171.584 291,168.5C 285.687,170.705 280.187,172.371 274.5,173.5C 273.558,173.392 272.725,173.059 272,172.5C 271.926,167.295 273.593,162.628 277,158.5C 277.753,154.507 276.253,151.674 272.5,150C 270.167,149.667 267.833,149.333 265.5,149C 264.041,145.047 264.874,141.547 268,138.5C 270,136.5 272,134.5 274,132.5C 275.249,126.989 273.082,123.989 267.5,123.5C 265.209,123.622 263.209,124.455 261.5,126C 256.864,130.771 253.364,136.271 251,142.5C 249.377,151.253 252.543,157.586 260.5,161.5C 256.782,170.505 258.448,178.339 265.5,185C 274.113,187.323 282.446,186.489 290.5,182.5C 293.966,184.489 297.632,185.989 301.5,187C 305.776,194.185 305.276,201.018 300,207.5C 293.932,203.822 290.099,205.489 288.5,212.5C 291.252,217.002 293.752,221.669 296,226.5C 295.665,235.305 291.498,237.638 283.5,233.5C 279.313,234.017 277.313,236.351 277.5,240.5C 279.16,244.296 279.66,248.296 279,252.5C 275.974,256.183 272.808,256.35 269.5,253C 261.946,252.888 259.446,256.388 262,263.5C 267.113,268.982 273.28,270.982 280.5,269.5C 294.226,301.192 299.06,334.192 295,368.5C 291.919,383.586 283.086,393.753 268.5,399C 236.744,409.357 204.411,411.357 171.5,405C 151.557,401.724 139.391,390.224 135,370.5C 132.109,357.312 130.275,343.979 129.5,330.5C 139.041,329.633 148.374,327.799 157.5,325C 161.704,320.845 161.371,317.178 156.5,314C 153.5,313.333 150.5,313.333 147.5,314C 120.52,320.113 93.1868,322.113 65.5,320C 57.1518,317.708 53.9851,312.208 56,303.5C 60.5076,297.818 66.3409,293.985 73.5,292C 98.135,285.962 123.135,282.295 148.5,281C 153.321,277.399 153.654,273.399 149.5,269C 141.98,268.291 134.48,268.457 127,269.5C 116.064,268.928 113.73,264.262 120,255.5C 122.04,249.648 120.04,246.315 114,245.5C 108.519,247.184 103.685,246.018 99.5,242C 96.8696,238.772 97.0362,235.605 100,232.5C 103,229.5 106,226.5 109,223.5C 109.609,215.705 106.109,213.038 98.5,215.5C 96.6841,214.185 95.0175,212.685 93.5,211C 96.8333,210 100.167,209 103.5,208C 106.011,206.152 108.511,204.319 111,202.5C 127.657,205.512 137.491,198.679 140.5,182C 140.554,179.145 139.888,176.478 138.5,174C 140.986,170.844 143.486,167.678 146,164.5C 150.715,153.73 148.215,144.897 138.5,138C 134.365,135.678 130.032,133.845 125.5,132.5C 119.369,134.094 117.536,137.761 120,143.5C 124.194,145.736 128.361,148.069 132.5,150.5C 135.21,154.262 135.043,157.929 132,161.5C 128.484,163.926 125.151,166.593 122,169.5C 120.689,174.544 122.356,178.211 127,180.5C 127.231,186.608 124.231,189.941 118,190.5C 114.927,190.547 112.427,189.38 110.5,187C 107.833,186.333 105.167,186.333 102.5,187C 100.597,189.93 98.9305,192.93 97.5,196C 92.5111,196.499 87.5111,196.666 82.5,196.5C 82.6717,191.653 83.6717,186.986 85.5,182.5C 85.0106,176.918 82.0106,174.751 76.5,176C 72.1087,179.706 67.1087,181.372 61.5,181C 57.3561,178.28 56.5228,174.78 59,170.5C 61.4794,167.931 64.146,165.598 67,163.5C 67.6667,161.167 67.6667,158.833 67,156.5C 63.3425,153.842 60.0092,150.842 57,147.5C 53.6466,143.696 53.8132,140.196 57.5,137C 61.893,136.983 66.0597,136.15 70,134.5C 68.926,123.245 73.426,115.079 83.5,110C 87.4845,108.885 90.8178,109.885 93.5,113C 98.1205,114.538 101.287,113.038 103,108.5C 103.333,103.833 103.667,99.1667 104,94.5C 105.123,91.7513 106.623,89.2513 108.5,87C 115.611,84.8173 122.611,85.1506 129.5,88C 131.541,91.3624 134.541,92.3624 138.5,91C 139.667,90.5 140.5,89.6667 141,88.5C 141.333,82.8333 141.667,77.1667 142,71.5C 143.893,66.1324 147.726,63.7991 153.5,64.5C 157.338,64.2538 160.672,65.4205 163.5,68C 165.833,68.6667 168.167,68.6667 170.5,68C 172.563,65.4894 174.063,62.656 175,59.5C 176.73,57.5981 178.563,55.9314 180.5,54.5 Z"/></g>
<g><path style="opacity:1" fill="#080808" d="M 172.5,177.5 C 179.164,177 182.331,180 182,186.5C 177.965,191.364 173.632,191.698 169,187.5C 168.333,185.5 168.333,183.5 169,181.5C 170.376,180.295 171.542,178.962 172.5,177.5 Z"/></g>
<g><path style="opacity:1" fill="#0c0c0c" d="M 210.5,177.5 C 219.306,177.464 221.639,181.297 217.5,189C 210.005,192.652 206.172,190.485 206,182.5C 207.025,180.313 208.525,178.646 210.5,177.5 Z"/></g>
<g><path style="opacity:1" fill="#080707" d="M 182.5,214.5 C 188.842,214.334 195.175,214.5 201.5,215C 207.025,217.919 208.858,222.419 207,228.5C 201.161,244.935 192.494,246.601 181,233.5C 179.223,230.28 177.723,226.947 176.5,223.5C 177.284,219.573 179.284,216.573 182.5,214.5 Z"/></g>
<g><path style="opacity:1" fill="#e58a73" d="M 186.5,223.5 C 190.167,223.5 193.833,223.5 197.5,223.5C 197.663,225.857 197.497,228.19 197,230.5C 195.33,232.698 193.33,233.032 191,231.5C 189.223,228.941 187.723,226.274 186.5,223.5 Z"/></g>
<g><path style="opacity:1" fill="#f6f6f6" d="M 318.5,334.5 C 319.552,334.351 320.552,334.517 321.5,335C 323.189,338.964 326.189,340.464 330.5,339.5C 328.52,344.441 329.52,348.608 333.5,352C 331.72,354.784 329.553,357.284 327,359.5C 326.667,362.167 326.333,364.833 326,367.5C 321.91,361.314 317.41,360.98 312.5,366.5C 311.416,365.335 310.583,364.002 310,362.5C 309.5,355.174 309.334,347.841 309.5,340.5C 314.709,341.604 317.709,339.604 318.5,334.5 Z"/></g>
<g><path style="opacity:1" fill="#f2f2f2" d="M 228.5,420.5 C 232.167,420.5 235.833,420.5 239.5,420.5C 239.616,426.819 238.283,432.819 235.5,438.5C 227.167,439.833 218.833,439.833 210.5,438.5C 209.515,436.902 209.349,435.235 210,433.5C 215.031,431.974 220.197,430.807 225.5,430C 228.029,427.358 229.029,424.192 228.5,420.5 Z"/></g>
<g><path style="opacity:1" fill="#efefef" d="M 193.5,421.5 C 196.85,421.335 200.183,421.502 203.5,422C 197.197,426.122 194.864,431.955 196.5,439.5C 189.492,439.666 182.492,439.5 175.5,439C 173.78,435.914 174.447,433.581 177.5,432C 181.918,431.792 186.251,431.126 190.5,430C 192.93,427.695 193.93,424.862 193.5,421.5 Z"/></g>
<g><path style="opacity:0.99" fill="#98c8d2" d="M 251.5,434.5 C 274.33,434.954 296.996,437.121 319.5,441C 327.004,442.376 334.337,444.376 341.5,447C 344.759,448.211 347.592,450.044 350,452.5C 351.123,455.956 350.29,458.79 347.5,461C 332.541,467.657 316.874,471.657 300.5,473C 259.559,476.817 218.559,477.483 177.5,475C 156.703,473.812 136.37,470.145 116.5,464C 113.241,462.789 110.408,460.956 108,458.5C 106.877,455.044 107.71,452.21 110.5,450C 126.464,443.106 143.131,438.94 160.5,437.5C 162.003,443.853 165.67,448.687 171.5,452C 193.833,452.667 216.167,452.667 238.5,452C 245.88,448.399 250.213,442.565 251.5,434.5 Z"/></g>
</svg>
