<svg width="164" height="164" viewBox="0 0 164 164" fill="none" xmlns="http://www.w3.org/2000/svg">
<ellipse cx="76.5" cy="152" rx="40.5" ry="7" fill="#99C9D3"/>
<path d="M39.9989 44.3094C39.5662 44.3094 39.1266 44.1823 38.742 43.9213C38.7111 43.9007 36.2008 42.1837 33.6974 40.4598C32.5607 41.6755 31.0051 42.9255 29.1198 42.9255C28.0484 42.9255 27.0456 42.5134 26.2146 41.7304C24.1473 39.7867 24.8753 36.9605 25.9742 34.7833C25.4866 34.3026 25.0093 33.7497 24.6384 33.135C23.5532 31.3424 23.5944 29.3713 24.7551 27.7298C25.6411 26.4798 27.001 25.7896 28.5875 25.7896C31.7057 25.7896 35.0676 28.4681 35.83 29.1137L44.5593 35.7895C45.514 36.5175 45.72 37.8705 45.0263 38.8527L41.8258 43.3719C41.3897 43.9866 40.7029 44.3163 40.0023 44.3163L39.9989 44.3094Z" fill="#EF9178"/>
<path d="M28.5842 28.0185C31.1117 28.0185 34.4256 30.8481 34.4256 30.8481L43.1996 37.5583L39.999 42.0775C39.999 42.0775 36.2353 39.5054 33.2958 37.469C32.5471 38.3996 30.8232 40.6901 29.1165 40.6901C28.6495 40.6901 28.1825 40.5184 27.7395 40.0995C26.2697 38.7155 27.7532 35.9202 28.8349 34.2925C27.2106 33.0597 25.0952 31.1022 26.5719 29.0143C27.0836 28.2932 27.7944 28.0185 28.5808 28.0185M28.5842 23.5542C26.2525 23.5542 24.2436 24.5775 22.9284 26.4388C21.256 28.8049 21.1804 31.7375 22.7258 34.289C22.9146 34.6015 23.1241 34.9003 23.3404 35.1819C23.234 35.4635 23.1378 35.7382 23.0554 36.0129C21.8295 40.1063 23.7834 42.5136 24.6832 43.3584C25.9366 44.5363 27.4716 45.1612 29.12 45.1612C31.0362 45.1612 32.6364 44.3336 33.907 43.3172C35.8404 44.6461 37.4578 45.7519 37.4853 45.7691C38.2545 46.2945 39.1336 46.5486 40.0025 46.5486C41.4036 46.5486 42.7806 45.8927 43.6494 44.6633L46.85 40.1441C48.2373 38.1833 47.8252 35.4772 45.9193 34.0178L37.2346 27.3729C36.043 26.3736 32.3548 23.5576 28.5945 23.5576L28.5842 23.5542Z" fill="black"/>
<path d="M79.552 35.4427C79.4558 35.4427 79.3597 35.4358 79.2635 35.4255L73.7725 34.7146C72.5809 34.5601 71.7258 33.4921 71.8357 32.2971L72.8453 21.3562C73.0204 17.1323 74.6585 12.2354 78.7141 12.2354C78.9201 12.2354 79.1296 12.2491 79.3356 12.2766C81.3274 12.5375 82.8075 13.8391 83.3878 15.8548C83.587 16.5451 83.6728 17.2697 83.6935 17.9565C86.0389 18.6261 88.611 20.0066 88.6385 22.8431C88.6522 24.0416 88.2367 25.0959 87.4469 25.896C86.4132 26.9434 84.837 27.4619 82.6323 27.4825C82.2031 30.4942 81.7635 33.5024 81.7566 33.5402C81.5952 34.6494 80.644 35.4495 79.552 35.4495V35.4427Z" fill="#EF9178"/>
<path d="M78.714 14.4643C78.8204 14.4643 78.9337 14.4711 79.0471 14.4849C81.5848 14.8145 81.5883 17.6991 81.396 19.7287C83.3293 20.0377 86.3891 20.8413 86.4097 22.8605C86.4303 24.89 84.2806 25.2438 82.4983 25.2438C81.7909 25.2438 81.1384 25.1888 80.7057 25.1579C80.2112 28.695 79.5484 33.2107 79.5484 33.2107L74.0574 32.4999L75.0704 21.5006C75.0704 21.5006 75.3417 14.4643 78.7105 14.4643M78.714 10C77.0588 10 73.0306 10.6628 71.3273 16.7891C70.7847 18.7465 70.6474 20.6353 70.6165 21.1916L69.6137 32.0947C69.394 34.4848 71.1041 36.6242 73.4873 36.9298L78.9784 37.6407C79.1741 37.6647 79.3664 37.6785 79.5587 37.6785C81.7428 37.6785 83.6453 36.0782 83.9715 33.8598C83.9749 33.8289 84.26 31.8886 84.5931 29.5638C86.4612 29.2822 87.9241 28.5851 89.0367 27.4621C90.2386 26.2465 90.8945 24.5947 90.8739 22.8159C90.8602 21.5831 90.4172 18.513 86.5779 16.6415C86.3238 16.5178 86.056 16.3976 85.7744 16.2877C85.716 15.9375 85.637 15.5838 85.534 15.2301C84.7064 12.3661 82.4949 10.4327 79.624 10.0584C79.3218 10.0172 79.0127 10 78.714 10Z" fill="black"/>
<path d="M135.211 139.499C135.211 139.499 137.244 136.415 137.292 132.236C137.326 129.358 134.833 125.275 131.474 123.314C123.483 118.654 116.392 124.348 116.392 124.348C116.392 124.348 122.271 121.037 123.782 115.557C124.534 112.826 123.281 108.967 121.512 105.876C117.577 99.0079 106.086 101.195 106.086 101.195C106.086 101.195 113.322 100.732 116.801 96.5525C118.384 94.65 118.143 90.4605 117.797 86.9406C116.687 75.6769 103.35 78.9667 103.35 78.9667C103.35 78.9667 116.107 76.7724 114.62 65.7834C114.143 62.2566 112.542 60.2992 111.076 58.7264C106.55 53.857 102.258 56.9133 102.258 56.9133C102.258 56.9133 113.13 52.212 107.896 42.2533C105.959 38.5686 104.126 37.2121 100.644 36.6386C96.0797 35.89 91.6875 38.4175 91.6875 38.4175L97.5323 86.6796L108.586 120.883L127.494 135.426L135.204 139.488L135.211 139.499Z" fill="#33758E"/>
<path d="M135.961 142.417L126.29 137.321L106.682 122.239L95.3497 87.1705L92.4925 63.5751L83.7666 67.3491L92.2178 61.3292L89.2989 37.2291L90.5798 36.4907C90.7858 36.3706 95.724 33.5718 101.012 34.4441C105.243 35.1377 107.647 36.9749 109.879 41.2229C111.679 44.6432 112.039 47.933 110.954 51.003C110.484 52.332 109.783 53.4859 108.986 54.4714C110.216 55.0106 111.483 55.8828 112.716 57.2118C114.539 59.1727 116.301 61.5353 116.837 65.4913C117.468 70.1513 115.999 74.1005 112.571 77.0332C113.633 77.3766 114.673 77.8608 115.628 78.5373C118.186 80.347 119.663 83.1011 120.02 86.7275C120.422 90.8174 120.672 95.3985 118.516 97.9843C118.008 98.5921 117.441 99.1347 116.837 99.6155C119.426 100.477 121.881 102.036 123.447 104.773C124.587 106.765 127.115 111.865 125.933 116.154C125.628 117.263 125.174 118.293 124.639 119.234C127.056 119.193 129.773 119.742 132.599 121.387C136.527 123.678 139.57 128.458 139.525 132.263C139.467 137.04 137.173 140.577 137.073 140.725L135.961 142.414V142.417ZM128.708 133.551L134.216 136.453C134.632 135.371 135.04 133.887 135.061 132.208C135.085 130.23 133.076 126.834 130.35 125.244C125.48 122.404 120.978 124.2 118.938 125.347C118.77 125.467 118.615 125.577 118.471 125.673L128.708 133.547V133.551ZM110.504 119.547L115.549 123.427L114.996 122.61C115.078 122.545 115.604 122.133 116.483 121.614C118.066 120.457 120.769 118.091 121.63 114.966C122.128 113.166 121.321 110.034 119.577 106.988C117.235 102.902 110.995 102.933 108.063 103.194C107.019 103.369 106.325 103.417 106.229 103.424L105.669 99.0042C105.786 98.9836 106.469 98.8565 107.517 98.757C109.577 98.3929 113.152 97.4486 115.089 95.1237C115.844 94.2137 116.012 91.5352 115.58 87.1602C115.353 84.8491 114.525 83.2179 113.052 82.1774C110.185 80.1478 105.604 80.8072 104.264 81.0579C103.952 81.13 103.763 81.1609 103.732 81.1678L102.819 76.7996C102.87 76.7859 103.097 76.731 103.468 76.6623C105.573 76.1678 113.454 73.7914 112.41 66.0854C112.022 63.2248 110.786 61.6932 109.443 60.2475C107.235 57.8712 105.291 58.0325 104.251 58.4C103.626 58.7503 103.207 58.9357 103.145 58.9632L96.7611 61.7242L99.7246 86.2055L110.497 119.547H110.504ZM94.1031 39.76L96.3593 58.3828L100.968 55.0999C101.328 54.8423 101.785 54.5848 102.317 54.365C103.615 53.5958 105.892 51.9508 106.751 49.4921C107.403 47.6205 107.132 45.5944 105.927 43.297C104.182 39.9763 102.836 39.2655 100.288 38.8465C97.9218 38.4585 95.5282 39.183 94.1031 39.7565V39.76Z" fill="black"/>
<path d="M73.361 127.692C73.1996 129.378 74.0856 148.76 68.78 148.76H58.5362C58.5362 148.76 55.8027 148.598 55.8027 144.982C55.8027 141.366 62.1283 141.607 62.1283 141.607L60.8645 124.976" fill="#A3C8D2"/>
<path d="M68.7792 150.991H58.405C56.4613 150.875 53.5732 149.182 53.5732 144.982C53.5732 143.632 54.0849 142.423 55.0568 141.489C56.3411 140.253 58.2092 139.731 59.7339 139.515L58.6419 125.147L63.0924 124.81L64.545 143.938L62.045 143.842C60.8328 143.804 58.7999 144.082 58.1508 144.71C58.065 144.796 58.0375 144.841 58.0375 144.985C58.0375 146.307 58.5423 146.503 58.6488 146.53H68.7311C68.9132 146.39 70.0258 145.329 70.6576 139.824C71.0938 136.022 71.1006 131.761 71.1041 129.467C71.1041 128.333 71.1075 127.822 71.1418 127.482L75.5855 127.901C75.5718 128.079 75.5718 128.821 75.5683 129.474C75.5512 140.651 74.7167 150.995 68.7827 150.995L68.7792 150.991Z" fill="black"/>
<path d="M82.7756 127.691C82.6142 129.378 83.5002 148.759 78.1946 148.759H70.2413C70.2413 148.759 67.5078 148.598 67.5078 144.982C67.5078 141.366 73.8333 141.606 73.8333 141.606L72.5696 124.975" fill="#A3C8D2"/>
<path d="M78.1938 150.992H70.11C68.1664 150.875 65.2783 149.182 65.2783 144.982C65.2783 143.633 65.79 142.424 66.7618 141.49C68.0462 140.253 69.9143 139.731 71.439 139.515L70.347 125.147L74.7975 124.811L76.2501 143.938L73.7501 143.842C72.5379 143.804 70.5049 144.082 69.8559 144.711C69.7701 144.797 69.7426 144.841 69.7426 144.986C69.7426 146.308 70.2474 146.503 70.3538 146.531H78.1457C78.3277 146.39 79.4403 145.329 80.0722 139.824C80.5083 136.023 80.5152 131.761 80.5186 129.467C80.5186 128.334 80.5221 127.822 80.5564 127.482L85.0001 127.905L82.7782 127.692L85.0001 127.898C84.9863 128.076 84.9863 128.818 84.9829 129.471C84.9657 140.648 84.1313 150.992 78.1972 150.992H78.1938Z" fill="black"/>
<path d="M138.786 142.904C140.936 142.784 136.767 141.479 118.481 126.589C104.552 115.246 103.261 87.0973 103.553 73.1791C103.715 65.4765 103.769 61.3041 101.057 54.0926C97.3066 44.1373 91.0566 32.1868 67.0904 31.318C57.9283 30.9849 39.8858 36.7335 35.5795 43.8797C32.1111 49.6318 32.7636 54.982 33.3817 58.2341C33.6255 59.5115 33.3817 60.8371 32.6743 61.9222C30.6722 64.982 28.5225 69.1269 29.4463 74.7381C29.824 77.0389 30.7135 81.4723 32.1867 84.144C33.8487 87.1556 36.2045 88.3782 38.4504 90.2978C38.6255 90.4489 38.7045 90.6859 38.653 90.9091C37.9868 93.8864 35.0781 113.749 40.3322 127.389C43.6942 136.115 51.826 138.234 66.898 138.443C84.5113 138.687 92.468 132.605 95.7681 128.646C97.1967 126.932 99.6864 126.561 101.575 127.75C105.157 130.002 110.469 135.397 116.733 138.45C124.23 142.1 132.887 143.23 138.783 142.904H138.786Z" fill="#A3C8D2"/>
<path d="M136.836 145.188C131.005 145.188 122.956 143.962 115.758 140.456C111.52 138.392 107.729 135.339 104.68 132.887C103.007 131.541 101.565 130.38 100.387 129.639C99.4359 129.041 98.1893 129.23 97.4819 130.075C89.5733 139.556 74.9099 140.789 66.8639 140.676C51.7026 140.466 42.1594 138.358 38.2445 128.193C33.2686 115.277 35.2397 97.0872 36.2734 91.4038C35.9815 91.1738 35.6827 90.9437 35.3771 90.7102C33.6498 89.3846 31.6958 87.8839 30.226 85.2225C28.5811 82.2418 27.6471 77.6024 27.235 75.099C26.1945 68.7597 28.5914 64.0722 30.7995 60.7C31.1841 60.1093 31.3215 59.3813 31.1841 58.6499C30.4527 54.7934 29.9135 48.9487 33.6635 42.7262C38.4987 34.7042 57.3928 28.7461 67.1695 29.0861C78.4607 29.4948 86.9462 32.2832 93.1104 37.606C98.4881 42.2523 101.201 48.1485 103.141 53.303C106.04 60.9987 105.943 65.5969 105.782 73.2205C105.531 85.0886 106.407 113.876 119.886 124.855C129.058 132.324 134.662 136.359 137.677 138.529C138.8 139.336 139.539 139.869 140.057 140.284C140.61 140.727 141.908 141.764 141.438 143.371C141.259 143.986 140.689 145.033 138.907 145.13C138.254 145.167 137.561 145.185 136.833 145.185L136.836 145.188ZM99.1921 124.831C100.421 124.831 101.665 125.167 102.77 125.861C104.168 126.74 105.706 127.98 107.485 129.412C110.507 131.843 113.934 134.604 117.719 136.445C122.726 138.883 128.186 140.102 132.839 140.535C129.525 138.117 124.432 134.309 117.077 128.316C110.583 123.028 106.016 113.931 103.498 101.28C101.431 90.8887 101.177 80.2329 101.325 73.1278C101.483 65.5626 101.565 61.7645 98.9689 54.8758C95.2429 44.9823 89.3913 34.3574 67.0116 33.5469C57.8667 33.2104 41.0673 39.0998 37.4925 45.0304C34.5632 49.8896 34.9307 54.4157 35.5763 57.8188C35.9334 59.6904 35.566 61.5825 34.5426 63.145C32.6676 66.009 30.8613 69.5839 31.6477 74.3778C32.259 78.0969 33.1896 81.3455 34.1408 83.066C35.1573 84.91 36.5206 85.9574 38.1003 87.1662C38.6841 87.6126 39.2885 88.0762 39.8997 88.6016C40.7068 89.2919 41.0639 90.3633 40.8304 91.397C40.1092 94.6318 37.4753 113.763 42.4135 126.586C45.1023 133.567 51.2871 135.995 66.9292 136.208C83.8075 136.424 91.1701 130.672 94.0547 127.211C95.3562 125.652 97.2587 124.824 99.1886 124.824L99.1921 124.831Z" fill="black"/>
<path d="M61.6614 122.068C44.7967 119.053 43.7184 125.038 44.5323 132.844C49.0447 136.676 56.0123 138.294 66.8983 138.441C70.5968 138.493 73.866 138.263 76.7574 137.837C77.585 132.902 79.23 132.768 75.3014 127.885C72.9422 124.956 67.5336 123.118 61.6614 122.068Z" fill="white"/>
<path d="M67.9009 140.683C67.5574 140.683 67.214 140.683 66.8672 140.676C55.0678 140.515 47.9559 138.681 43.0898 134.546L42.4065 133.966L42.3137 133.077C41.8742 128.88 41.8879 124.608 44.927 121.782C47.9868 118.935 53.4332 118.331 62.0527 119.873C69.5423 121.212 74.5835 123.437 77.0389 126.487C80.4351 130.707 80.4248 132.342 79.5492 135.608C79.3568 136.332 79.1336 137.153 78.9585 138.207L78.6906 139.807L77.0835 140.044C74.2264 140.467 71.1392 140.68 67.8974 140.68L67.9009 140.683ZM46.6681 131.693C50.6722 134.677 56.9874 136.075 66.929 136.212C69.7243 136.25 72.3926 136.123 74.8857 135.834C75.0059 135.312 75.1295 134.859 75.2394 134.454C75.7889 132.404 75.861 132.139 73.5636 129.285C71.8534 127.16 67.4888 125.378 61.2697 124.265C54.3363 123.025 49.8618 123.29 47.9662 125.051C46.7677 126.164 46.3762 128.118 46.6681 131.693Z" fill="black"/>
<path d="M55.0482 60.2855C54.4335 59.9284 53.654 60.131 53.1904 60.6667C52.8024 61.1131 52.4967 61.7587 53.0393 62.4352C54.097 63.7505 55.7522 62.2944 55.7522 61.5905C55.7522 61.1337 55.5702 60.5843 55.0482 60.2821V60.2855Z" fill="black"/>
<path d="M54.0646 63.8254C53.419 63.8254 52.8181 63.5301 52.3716 62.9772C51.6711 62.1084 51.7363 61.0335 52.5433 60.1063C53.3023 59.2341 54.5385 58.9971 55.4829 59.5431C56.1903 59.9552 56.6127 60.721 56.6127 61.5933C56.6127 62.4037 55.8126 63.3446 54.8339 63.688C54.5763 63.7773 54.3187 63.822 54.0681 63.822L54.0646 63.8254ZM54.3806 60.9648C54.178 60.9648 53.9719 61.0816 53.838 61.2327C53.4911 61.631 53.6079 61.7753 53.7075 61.9023C53.8895 62.129 54.0303 62.1256 54.147 62.1049C54.4939 62.0397 54.8167 61.7032 54.8888 61.5486C54.8819 61.4078 54.8339 61.1606 54.6141 61.0335C54.5385 60.9889 54.4561 60.9717 54.3737 60.9717L54.3806 60.9648Z" fill="black"/>
<path d="M67.6244 60.2836C67.0097 59.9264 66.2302 60.129 65.7666 60.6648C65.3785 61.1112 65.0729 61.7568 65.6155 62.4333C66.6732 63.7485 68.3284 62.2925 68.3284 61.5885C68.3284 61.1318 68.1464 60.5823 67.6244 60.2801V60.2836Z" fill="black"/>
<path d="M66.6418 63.8244C65.9962 63.8244 65.3952 63.5291 64.9488 62.9762C64.2482 62.1074 64.3135 61.0325 65.1205 60.1054C65.8794 59.2331 67.1157 58.9962 68.06 59.5422C68.7675 59.9543 69.1898 60.7201 69.1898 61.5923C69.1898 62.4027 68.3897 63.3437 67.411 63.6871C67.1534 63.7764 66.8959 63.821 66.6452 63.821L66.6418 63.8244ZM66.9543 60.9639C66.7517 60.9639 66.5456 61.0806 66.4151 61.2317C66.0683 61.6301 66.185 61.7743 66.2846 61.9014C66.4666 62.128 66.6074 62.1246 66.7242 62.104C67.071 62.0387 67.3938 61.7022 67.4659 61.5477C67.4591 61.4069 67.411 61.1596 67.1912 61.0325C67.1157 60.9879 67.0333 60.9707 66.9508 60.9707L66.9543 60.9639Z" fill="black"/>
<path d="M60.6274 79.3398C59.2331 79.3398 58.0552 78.1894 56.5614 75.3632C56.3073 74.8824 56.3245 74.3089 56.6026 73.8419C56.8808 73.3783 57.3856 73.0933 57.9248 73.0933H61.9014C62.3203 73.0933 62.7187 73.2615 63.0106 73.5637C63.3025 73.8659 63.457 74.2711 63.4467 74.6867C63.354 77.6399 62.3272 79.3364 60.6239 79.3364L60.6274 79.3398Z" fill="#EF9178"/>
<path d="M61.9055 74.6424C61.9055 74.6424 61.8059 77.7949 60.628 77.7949C60.0374 77.7949 59.1789 77.0085 57.9289 74.6424H61.9055ZM61.9055 71.5518H57.9289C56.8437 71.5518 55.841 72.1184 55.2812 73.049C54.7215 73.9762 54.6906 75.1301 55.1954 76.0882C56.4522 78.4611 58.0765 80.8855 60.6246 80.8855C61.3801 80.8855 63.911 80.5971 64.7249 76.878C64.9515 75.8409 64.9893 74.8485 64.9927 74.7386C65.0202 73.9041 64.7043 73.0902 64.1239 72.4893C63.5401 71.8883 62.74 71.5483 61.9055 71.5483V71.5518Z" fill="black"/>
<path d="M48.8157 92.5854C48.8157 92.5854 38.7952 93.3409 31.3021 94.615C21.3021 96.3148 13.4484 99.3814 17.1812 107.118C18.7918 110.453 24.8907 110.206 31.4188 110.182C41.017 110.147 51.2745 107.644 51.2745 107.644" fill="#A3C8D2"/>
<path d="M28.4371 112.427C22.4722 112.427 17.1013 112.087 15.1714 108.09C13.7325 105.109 13.6192 102.407 14.8314 100.061C16.7545 96.3385 21.7167 93.9793 30.9303 92.4168C38.4371 91.1428 48.2345 90.3942 48.65 90.3633C49.8794 90.2637 50.9508 91.1909 51.0435 92.4203C51.1362 93.6497 50.2159 94.7211 48.9865 94.8138C48.8869 94.8207 38.9797 95.5762 31.6789 96.8159C24.2991 98.0693 19.9653 99.8516 18.7978 102.108C18.5986 102.492 17.9942 103.663 19.1927 106.15C20.0924 108.014 25.4873 107.987 30.2503 107.956L31.4145 107.949C40.6246 107.915 50.6486 105.501 50.7482 105.477C51.9467 105.185 53.152 105.92 53.4439 107.118C53.7358 108.317 53.0009 109.522 51.8059 109.814C51.3766 109.92 41.1809 112.379 31.4316 112.413L30.2778 112.42C29.6597 112.424 29.0484 112.427 28.4406 112.427H28.4371Z" fill="black"/>
</svg>
