<?xml version="1.0" encoding="UTF-8"?>
<!DOCTYPE svg PUBLIC "-//W3C//DTD SVG 1.1//EN" "http://www.w3.org/Graphics/SVG/1.1/DTD/svg11.dtd">
<svg xmlns="http://www.w3.org/2000/svg" version="1.1" width="492px" height="492px" style="shape-rendering:geometricPrecision; text-rendering:geometricPrecision; image-rendering:optimizeQuality; fill-rule:evenodd; clip-rule:evenodd" xmlns:xlink="http://www.w3.org/1999/xlink">
<g><path style="opacity:0.976" fill="#010202" d="M 251.5,434.5 C 249.25,440.801 245.583,446.301 240.5,451C 239.167,451.333 237.833,451.667 236.5,452C 214.833,452.667 193.167,452.667 171.5,452C 165.057,449.068 161.057,444.234 159.5,437.5C 159.236,430.365 161.902,424.699 167.5,420.5C 152.761,418.757 139.428,413.591 127.5,405C 116.807,393.626 110.307,380.126 108,364.5C 106.212,355.238 105.045,345.905 104.5,336.5C 89.4373,338.069 74.4373,337.569 59.5,335C 50.3598,332.526 44.5264,326.693 42,317.5C 39.1826,304.641 43.3493,294.808 54.5,288C 71.2979,280.172 88.9646,275.505 107.5,274C 103.667,270.833 99.8333,267.667 96,264.5C 83.6634,246.823 78.6634,227.156 81,205.5C 82.7716,196.294 86.4383,187.961 92,180.5C 91.5571,169.852 91.5571,159.185 92,148.5C 92.8844,143.627 94.3844,138.96 96.5,134.5C 86.1025,137.65 77.2691,134.984 70,126.5C 67.3099,119.861 66.8099,113.028 68.5,106C 61.4026,95.1577 62.0693,84.8244 70.5,75C 77.4664,69.6755 85.133,68.3421 93.5,71C 99.6102,73.221 105.277,76.221 110.5,80C 119.358,87.0253 128.358,93.8586 137.5,100.5C 160.103,90.4461 183.77,85.7794 208.5,86.5C 209.406,73.0359 211.239,59.7026 214,46.5C 220.755,29.8046 232.255,25.3046 248.5,33C 252.949,36.946 255.949,41.7793 257.5,47.5C 272.616,55.3431 276.116,66.6764 268,81.5C 263.883,85.3087 259.049,87.642 253.5,88.5C 253.051,91.2898 253.051,93.9564 253.5,96.5C 260.698,99.0132 267.198,102.68 273,107.5C 289.393,98.8942 305.226,99.7275 320.5,110C 332.156,121.968 336.323,136.135 333,152.5C 331.421,155.994 329.587,159.327 327.5,162.5C 351.121,178.315 356.621,198.982 344,224.5C 342.167,226.333 340.333,228.167 338.5,230C 351.79,235.3 358.957,245.134 360,259.5C 360.667,267.5 360.667,275.5 360,283.5C 358.838,289.327 356.004,294.16 351.5,298C 366.478,305.074 375.311,316.908 378,333.5C 379.4,341.45 378.234,348.95 374.5,356C 399.629,358.361 414.296,371.861 418.5,396.5C 418.189,403.053 416.856,409.387 414.5,415.5C 417.241,417.953 420.075,420.286 423,422.5C 425.269,426.714 424.769,430.547 421.5,434C 391.272,437.087 362.938,431.087 336.5,416C 324.807,407.818 313.473,399.152 302.5,390C 299.652,387.479 296.652,387.146 293.5,389C 283.026,401.298 270.026,409.798 254.5,414.5C 253.499,421.173 252.499,427.84 251.5,434.5 Z"/></g>
<g><path style="opacity:1" fill="#e88d74" d="M 233.5,42.5 C 237.585,42.4587 240.752,44.1254 243,47.5C 243.203,51.4213 243.703,55.2546 244.5,59C 249.997,59.2677 254.497,61.4343 258,65.5C 259.58,70.5962 257.746,73.7629 252.5,75C 248.848,75.4986 245.182,75.6653 241.5,75.5C 240.554,80.7926 239.887,86.126 239.5,91.5C 233.847,90.7245 228.18,90.0579 222.5,89.5C 223.331,79.1759 224.164,68.8426 225,58.5C 225.518,51.7902 228.351,46.4569 233.5,42.5 Z"/></g>
<g><path style="opacity:1" fill="#e98d75" d="M 82.5,83.5 C 87.9379,83.4788 92.9379,84.9788 97.5,88C 105.5,94 113.5,100 121.5,106C 122.451,106.718 122.617,107.551 122,108.5C 117.885,110.948 114.052,113.781 110.5,117C 109.167,117.667 107.833,117.667 106.5,117C 104.301,115.303 101.968,113.803 99.5,112.5C 96.4913,117.09 92.3247,120.09 87,121.5C 83.1667,121 81,118.833 80.5,115C 81.4672,110.564 83.1339,106.397 85.5,102.5C 82.8874,100.631 80.7207,98.2972 79,95.5C 76.4576,90.3612 77.6243,86.3612 82.5,83.5 Z"/></g>
<g><path style="opacity:1" fill="#a2c7d0" d="M 184.5,100.5 C 205.364,98.8672 225.698,101.367 245.5,108C 270.558,118.397 287.391,136.563 296,162.5C 298.406,169.052 300.406,175.718 302,182.5C 302.931,213.504 304.265,244.504 306,275.5C 308.498,303.827 315.832,330.827 328,356.5C 332.174,363.516 336.841,370.183 342,376.5C 359.711,391.601 377.877,406.101 396.5,420C 374.83,419.11 355.164,412.444 337.5,400C 328.167,392.667 318.833,385.333 309.5,378C 296.382,371.195 285.715,373.862 277.5,386C 266.311,395.094 253.644,401.261 239.5,404.5C 239.942,399.58 239.442,394.58 238,389.5C 231.995,378.496 223.162,370.663 211.5,366C 190.735,358.461 169.402,355.795 147.5,358C 137.526,360.809 130.526,366.975 126.5,376.5C 121.296,363.027 118.629,349.027 118.5,334.5C 131.449,333.895 144.116,331.729 156.5,328C 158.815,326.704 159.815,324.704 159.5,322C 159.775,318.94 158.442,316.94 155.5,316C 142.846,317.728 130.18,319.728 117.5,322C 100.854,323.407 84.1875,323.74 67.5,323C 64.3634,322.399 61.3634,321.399 58.5,320C 53.395,313.89 53.395,307.89 58.5,302C 70.8837,294.901 84.2171,290.567 98.5,289C 115.513,286.666 132.513,284.666 149.5,283C 153.665,278.648 153.331,274.648 148.5,271C 139.814,270.946 131.147,271.446 122.5,272.5C 120.172,265.998 115.839,261.165 109.5,258C 106.067,254.958 103.234,251.458 101,247.5C 95.4393,233.909 93.4393,219.909 95,205.5C 97.8808,197.407 101.547,189.74 106,182.5C 106.605,175.093 106.105,167.759 104.5,160.5C 104.955,142.408 112.955,128.908 128.5,120C 146.345,110.776 165.011,104.276 184.5,100.5 Z"/></g>
<g><path style="opacity:1" fill="#31728b" d="M 290.5,115.5 C 311.382,115.217 321.215,125.55 320,146.5C 318.248,152.258 314.915,156.925 310,160.5C 305.939,151.378 301.606,142.378 297,133.5C 293.213,128.044 289.046,122.877 284.5,118C 286.723,117.434 288.723,116.6 290.5,115.5 Z"/></g>
<g><path style="opacity:1" fill="#317189" d="M 314.5,174.5 C 325.466,176.287 332.633,182.621 336,193.5C 339.013,210.148 332.679,221.481 317,227.5C 317.011,209.759 316.177,192.093 314.5,174.5 Z"/></g>
<g><path style="opacity:1" fill="#050606" d="M 159.5,177.5 C 166.005,176.518 169.172,179.185 169,185.5C 165.468,191.29 161.135,191.957 156,187.5C 155.333,185.5 155.333,183.5 156,181.5C 157.376,180.295 158.542,178.962 159.5,177.5 Z"/></g>
<g><path style="opacity:1" fill="#040505" d="M 197.5,177.5 C 206.306,177.464 208.639,181.297 204.5,189C 196.544,192.451 193.044,189.951 194,181.5C 194.69,179.65 195.856,178.316 197.5,177.5 Z"/></g>
<g><path style="opacity:1" fill="#050505" d="M 169.5,214.5 C 176.175,214.334 182.842,214.5 189.5,215C 194.726,219.547 195.893,225.047 193,231.5C 190.012,241.489 183.846,244.323 174.5,240C 167.368,234.908 164.202,228.075 165,219.5C 166.025,217.313 167.525,215.646 169.5,214.5 Z"/></g>
<g><path style="opacity:1" fill="#e48a72" d="M 173.5,224.5 C 177.298,223.517 181.298,223.183 185.5,223.5C 185.504,227.236 184.171,230.236 181.5,232.5C 177.813,230.813 175.147,228.147 173.5,224.5 Z"/></g>
<g><path style="opacity:1" fill="#32738b" d="M 317.5,241.5 C 326.096,240.782 333.93,242.782 341,247.5C 343.194,250.554 344.861,253.888 346,257.5C 353.092,280.072 345.259,292.405 322.5,294.5C 318.876,277.036 317.209,259.369 317.5,241.5 Z"/></g>
<g><path style="opacity:1" fill="#32738b" d="M 325.5,308.5 C 353.803,307.297 366.303,320.631 363,348.5C 360.08,354.92 355.58,359.92 349.5,363.5C 339.188,350.875 332.021,336.542 328,320.5C 326.846,316.553 326.013,312.553 325.5,308.5 Z"/></g>
<g><path style="opacity:1" fill="#fbfbfb" d="M 151.5,370.5 C 173.984,368.956 195.317,373.123 215.5,383C 219.723,386.556 223.223,390.723 226,395.5C 226.048,399.539 225.548,403.539 224.5,407.5C 201.563,409.796 178.897,408.296 156.5,403C 150.774,401.303 145.441,398.803 140.5,395.5C 139.138,389.443 139.304,383.443 141,377.5C 143.663,373.762 147.163,371.429 151.5,370.5 Z"/></g>
<g><path style="opacity:1" fill="#31728a" d="M 367.5,370.5 C 384.757,368.873 396.924,375.873 404,391.5C 405.01,397.064 404.343,402.398 402,407.5C 387.546,396.714 373.379,385.548 359.5,374C 362.309,372.907 364.976,371.74 367.5,370.5 Z"/></g>
<g><path style="opacity:1" fill="#9bbec8" d="M 215.5,431.5 C 219.833,431.5 224.167,431.5 228.5,431.5C 228.806,428.615 228.473,425.948 227.5,423.5C 227.5,422.167 227.5,420.833 227.5,419.5C 231.534,419.495 235.534,419.162 239.5,418.5C 239.089,425.477 237.422,432.144 234.5,438.5C 226.167,439.833 217.833,439.833 209.5,438.5C 207.782,433.307 209.782,430.974 215.5,431.5 Z"/></g>
<g><path style="opacity:1" fill="#9abdc6" d="M 181.5,431.5 C 185.5,431.5 189.5,431.5 193.5,431.5C 193.795,429.265 193.461,427.265 192.5,425.5C 192.5,424.167 192.5,422.833 192.5,421.5C 195.85,421.335 199.183,421.502 202.5,422C 196.197,426.122 193.864,431.955 195.5,439.5C 188.468,439.83 181.468,439.497 174.5,438.5C 173.515,436.902 173.349,435.235 174,433.5C 176.228,431.887 178.728,431.22 181.5,431.5 Z"/></g>
<g><path style="opacity:1" fill="#49595e" d="M 192.5,425.5 C 193.461,427.265 193.795,429.265 193.5,431.5C 189.5,431.5 185.5,431.5 181.5,431.5C 184.962,430.518 188.629,430.185 192.5,430.5C 192.5,428.833 192.5,427.167 192.5,425.5 Z"/></g>
<g><path style="opacity:1" fill="#4a5b60" d="M 227.5,423.5 C 228.473,425.948 228.806,428.615 228.5,431.5C 224.167,431.5 219.833,431.5 215.5,431.5C 219.298,430.517 223.298,430.183 227.5,430.5C 227.5,428.167 227.5,425.833 227.5,423.5 Z"/></g>
<g><path style="opacity:0.99" fill="#98c8d2" d="M 251.5,434.5 C 274.33,434.954 296.996,437.121 319.5,441C 327.004,442.376 334.337,444.376 341.5,447C 344.759,448.211 347.592,450.044 350,452.5C 351.123,455.956 350.29,458.79 347.5,461C 332.541,467.657 316.874,471.657 300.5,473C 259.559,476.817 218.559,477.483 177.5,475C 156.703,473.812 136.37,470.145 116.5,464C 113.241,462.789 110.408,460.956 108,458.5C 106.877,455.044 107.71,452.21 110.5,450C 126.159,443.234 142.493,439.068 159.5,437.5C 161.057,444.234 165.057,449.068 171.5,452C 193.167,452.667 214.833,452.667 236.5,452C 237.833,451.667 239.167,451.333 240.5,451C 245.583,446.301 249.25,440.801 251.5,434.5 Z"/></g>
</svg>
