<?xml version="1.0" encoding="UTF-8"?>
<!DOCTYPE svg PUBLIC "-//W3C//DTD SVG 1.1//EN" "http://www.w3.org/Graphics/SVG/1.1/DTD/svg11.dtd">
<svg xmlns="http://www.w3.org/2000/svg" version="1.1" width="492px" height="492px" style="shape-rendering:geometricPrecision; text-rendering:geometricPrecision; image-rendering:optimizeQuality; fill-rule:evenodd; clip-rule:evenodd" xmlns:xlink="http://www.w3.org/1999/xlink">
<g><path style="opacity:0.978" fill="#020101" d="M 281.5,436.5 C 279.772,437.379 277.939,438.046 276,438.5C 273.292,437.891 270.792,436.891 268.5,435.5C 263.203,429.702 257.703,424.035 252,418.5C 250.84,423.792 250.007,429.125 249.5,434.5C 247.405,437.896 245.572,441.563 244,445.5C 241.736,448.433 238.902,450.6 235.5,452C 213.5,452.667 191.5,452.667 169.5,452C 163.555,448.964 159.888,444.13 158.5,437.5C 157.826,432.533 159.16,428.2 162.5,424.5C 166.614,421.11 171.281,418.776 176.5,417.5C 162.301,415.16 149.301,409.993 137.5,402C 127.552,392.608 121.385,381.108 119,367.5C 116.268,355.314 115.102,342.981 115.5,330.5C 106.175,330.951 96.8414,331.284 87.5,331.5C 77.726,331.762 68.0593,330.929 58.5,329C 49.228,326.728 43.728,320.895 42,311.5C 39.7238,295.435 46.2238,284.602 61.5,279C 69.0871,276.471 76.5871,273.971 84,271.5C 84.8335,267.165 85.6668,262.832 86.5,258.5C 86.3918,257.558 86.0585,256.725 85.5,256C 75.5,253.667 65.5,251.333 55.5,249C 51.5587,246.187 50.7253,242.687 53,238.5C 56.1227,232.418 59.6227,226.585 63.5,221C 57.7095,216.878 52.2095,212.378 47,207.5C 45.627,205.305 45.2937,202.971 46,200.5C 53.0253,191.642 59.8586,182.642 66.5,173.5C 59.947,167.961 53.447,162.294 47,156.5C 44.3989,151.498 45.5656,147.665 50.5,145C 57.2661,143.475 63.9327,141.642 70.5,139.5C 67.7652,130.666 66.2652,121.666 66,112.5C 66.8333,111.667 67.6667,110.833 68.5,110C 75.6795,107.797 83.0128,106.297 90.5,105.5C 89.3957,97.9292 88.0623,90.4292 86.5,83C 86.988,78.512 89.488,76.012 94,75.5C 100.151,77.1058 106.151,79.1058 112,81.5C 114.853,75.2822 117.52,68.9488 120,62.5C 123.659,58.8849 127.659,58.5515 132,61.5C 134,58.1667 136,54.8333 138,51.5C 143.791,46.8204 149.958,46.3204 156.5,50C 161.333,53.5 165.5,57.6667 169,62.5C 172.626,56.7495 176.126,50.9162 179.5,45C 182.167,44.3333 184.833,44.3333 187.5,45C 194.333,50.5 201.167,56 208,61.5C 212.915,54.672 217.581,47.672 222,40.5C 226.269,37.6169 230.269,37.9502 234,41.5C 235.667,44.5 237.333,47.5 239,50.5C 243.987,41.2274 251.153,39.0607 260.5,44C 265.164,48.8085 269.164,53.9751 272.5,59.5C 275.935,58.6155 279.268,57.4488 282.5,56C 286.591,54.7728 290.091,55.6061 293,58.5C 294.219,66.7972 295.053,75.1305 295.5,83.5C 302.345,82.6412 309.178,81.6412 316,80.5C 322.758,81.6623 325.258,85.6623 323.5,92.5C 323.291,96.8514 322.957,101.185 322.5,105.5C 328.502,106.223 334.502,107.056 340.5,108C 341.931,108.465 343.097,109.299 344,110.5C 344.667,113.167 344.667,115.833 344,118.5C 341.294,124.078 338.461,129.578 335.5,135C 341.5,136.333 347.5,137.667 353.5,139C 356.194,141.653 357.027,144.82 356,148.5C 352.167,155 348.333,161.5 344.5,168C 348.714,170.274 353.047,172.274 357.5,174C 362.649,178.269 362.816,182.769 358,187.5C 352.952,193.759 347.786,199.926 342.5,206C 346.46,212.752 350.293,219.586 354,226.5C 354.658,230.025 353.491,232.859 350.5,235C 345.244,237.141 339.91,238.974 334.5,240.5C 336.64,245.499 339.474,250.166 343,254.5C 345.269,258.714 344.769,262.547 341.5,266C 336.42,267.804 331.42,269.804 326.5,272C 330.659,275.247 334.992,278.247 339.5,281C 342.35,283.858 342.85,287.025 341,290.5C 337.595,293.784 334.095,296.95 330.5,300C 336.287,302.394 341.954,305.06 347.5,308C 349.908,311.043 350.074,314.209 348,317.5C 343.119,322.681 337.953,327.515 332.5,332C 339.268,335.772 345.768,339.939 352,344.5C 353.378,348.898 352.212,352.398 348.5,355C 342.843,357.493 337.51,360.493 332.5,364C 337,368.5 341.5,373 346,377.5C 348.601,382.502 347.434,386.335 342.5,389C 335.578,390.974 328.745,393.141 322,395.5C 320.982,403.803 320.315,412.136 320,420.5C 318.734,423.635 316.401,425.302 313,425.5C 306.196,423.226 299.362,421.393 292.5,420C 288.451,425.271 284.784,430.771 281.5,436.5 Z M 268.5,435.5 C 262.211,434.628 255.878,434.295 249.5,434.5C 250.007,429.125 250.84,423.792 252,418.5C 257.703,424.035 263.203,429.702 268.5,435.5 Z"/></g>
<g><path style="opacity:1" fill="#fdeadb" d="M 252.5,58.5 C 253.458,58.9528 254.292,59.6195 255,60.5C 260.754,74.9353 264.088,89.9353 265,105.5C 280.778,121.284 293.445,139.284 303,159.5C 308.618,175.999 308.951,192.665 304,209.5C 301.59,217.733 298.59,225.733 295,233.5C 289.229,243.376 283.729,253.376 278.5,263.5C 290.916,297.577 294.75,332.577 290,368.5C 286.298,381.204 278.131,389.704 265.5,394C 247.952,400.672 229.785,403.839 211,403.5C 192.379,404.102 174.212,401.602 156.5,396C 142.028,388.248 134.195,376.082 133,359.5C 130.627,348.912 130.127,338.245 131.5,327.5C 139.713,326.613 147.713,324.78 155.5,322C 159.5,318.333 159.5,314.667 155.5,311C 152.5,310.333 149.5,310.333 146.5,311C 119.827,317.127 92.8268,319.127 65.5,317C 57.3035,315.14 53.8035,309.973 55,301.5C 56.4578,299.04 58.2911,296.873 60.5,295C 75.211,287.947 90.711,283.78 107,282.5C 120.481,280.835 133.981,279.335 147.5,278C 153.458,272.302 152.458,268.135 144.5,265.5C 141.478,266.649 138.478,266.649 135.5,265.5C 126.814,255.982 118.314,246.315 110,236.5C 102.267,226.7 96.9335,215.7 94,203.5C 92.5056,173.655 100.839,146.989 119,123.5C 124.921,118.289 131.754,114.789 139.5,113C 140.667,111.833 141.833,110.667 143,109.5C 143.333,99.8333 143.667,90.1667 144,80.5C 144.591,74.459 146.258,68.7923 149,63.5C 158.855,74.7053 167.355,86.872 174.5,100C 195.151,99.335 215.817,98.6683 236.5,98C 237.333,97.1667 238.167,96.3333 239,95.5C 242.026,82.5855 246.526,70.2521 252.5,58.5 Z"/></g>
<g><path style="opacity:1" fill="#533a21" d="M 226.5,58.5 C 229.076,60.7772 231.076,63.6105 232.5,67C 230.891,72.8462 228.725,78.3462 226,83.5C 211.521,84.5098 197.021,85.0098 182.5,85C 180.959,82.0844 179.293,79.2511 177.5,76.5C 180.347,71.468 183.181,66.468 186,61.5C 192.593,66.8813 199.093,72.3813 205.5,78C 207.695,79.373 210.029,79.7063 212.5,79C 218.042,72.7449 222.708,65.9115 226.5,58.5 Z"/></g>
<g><path style="opacity:1" fill="#543a21" d="M 278.5,71.5 C 279.75,71.5774 280.583,72.244 281,73.5C 281.333,78.5 281.667,83.5 282,88.5C 281.453,93.7683 283.62,97.1017 288.5,98.5C 295.516,97.5724 302.516,96.5724 309.5,95.5C 308.557,102.144 308.391,108.811 309,115.5C 309.833,116.333 310.667,117.167 311.5,118C 316.474,119.051 321.474,119.885 326.5,120.5C 324.821,126.193 322.321,131.526 319,136.5C 318.333,139.167 318.333,141.833 319,144.5C 319.903,145.701 321.069,146.535 322.5,147C 327.882,147.976 333.215,149.143 338.5,150.5C 334.561,157.379 330.894,164.379 327.5,171.5C 327.848,173.697 328.848,175.53 330.5,177C 334.714,179.274 339.047,181.274 343.5,183C 338.786,188.926 333.953,194.759 329,200.5C 328.077,202.034 327.577,203.701 327.5,205.5C 330.154,212.307 333.487,218.807 337.5,225C 330.071,227.025 323.237,230.192 317,234.5C 316.333,236.833 316.333,239.167 317,241.5C 320.963,246.437 324.13,251.771 326.5,257.5C 319.305,259.761 312.305,262.594 305.5,266C 302.634,270.221 303.301,273.888 307.5,277C 312.887,280.02 317.887,283.52 322.5,287.5C 318.84,290.991 315.006,294.324 311,297.5C 310.272,300.23 310.438,302.897 311.5,305.5C 317.5,308.833 323.5,312.167 329.5,315.5C 324.816,320.019 319.982,324.352 315,328.5C 313.627,330.695 313.294,333.029 314,335.5C 319.399,340.118 325.232,344.118 331.5,347.5C 326.825,350.84 321.825,353.673 316.5,356C 313.346,358.775 312.846,361.942 315,365.5C 318.818,370.285 322.985,374.785 327.5,379C 320.778,380.346 314.612,382.846 309,386.5C 307.571,393.719 307.071,401.053 307.5,408.5C 302.304,407.713 297.304,406.213 292.5,404C 290.833,403.333 289.167,403.333 287.5,404C 282.794,409.267 278.461,414.767 274.5,420.5C 270.981,417.146 267.314,413.98 263.5,411C 272.741,407.38 281.407,402.713 289.5,397C 296.464,390.912 301.298,383.412 304,374.5C 309.741,337.089 306.575,300.423 294.5,264.5C 306.389,246.343 314.889,226.677 320,205.5C 323.568,190.356 323.235,175.356 319,160.5C 310.392,137.575 297.392,117.575 280,100.5C 277.901,91.5777 276.568,82.5777 276,73.5C 276.995,72.9341 277.828,72.2674 278.5,71.5 Z"/></g>
<g><path style="opacity:1" fill="#523920" d="M 128.5,77.5 C 128.654,85.29 128.654,93.29 128.5,101.5C 118.782,104.788 110.615,110.455 104,118.5C 93.4261,133.656 86.0928,150.323 82,168.5C 76.9919,164.323 72.1586,159.99 67.5,155.5C 72.3355,153.54 77.3355,152.04 82.5,151C 83.7014,150.097 84.5348,148.931 85,147.5C 84.1557,138.434 82.6557,129.434 80.5,120.5C 87.6236,120.068 94.6236,118.901 101.5,117C 103.871,115.257 105.205,112.923 105.5,110C 104.446,104.842 103.446,99.6755 102.5,94.5C 102.833,93.8333 103.167,93.1667 103.5,92.5C 107.713,94.2377 112.046,95.571 116.5,96.5C 118.299,96.423 119.966,95.923 121.5,95C 124.325,89.3589 126.658,83.5255 128.5,77.5 Z"/></g>
<g><path style="opacity:1" fill="#0a0909" d="M 176.5,174.5 C 183.329,173.828 186.163,176.828 185,183.5C 178.957,190.593 174.457,189.759 171.5,181C 172.242,178.095 173.909,175.928 176.5,174.5 Z"/></g>
<g><path style="opacity:1" fill="#070606" d="M 213.5,174.5 C 219.679,173.858 222.846,176.525 223,182.5C 219.468,188.29 215.135,188.957 210,184.5C 209.333,182.5 209.333,180.5 210,178.5C 211.376,177.295 212.542,175.962 213.5,174.5 Z"/></g>
<g><path style="opacity:1" fill="#533a20" d="M 78.5,181.5 C 76.0061,204.863 82.3394,225.697 97.5,244C 88.0333,242.671 78.7,240.505 69.5,237.5C 72.3333,232.5 75.1667,227.5 78,222.5C 78.6667,220.167 78.6667,217.833 78,215.5C 72.6582,210.99 67.4916,206.323 62.5,201.5C 68.2368,195.103 73.5702,188.436 78.5,181.5 Z"/></g>
<g><path style="opacity:1" fill="#070505" d="M 186.5,211.5 C 192.509,211.334 198.509,211.501 204.5,212C 206.624,213.122 208.457,214.622 210,216.5C 211.819,224.368 209.986,231.201 204.5,237C 196.52,240.949 190.02,239.116 185,231.5C 181.419,227.091 180.085,222.091 181,216.5C 182.73,214.598 184.563,212.931 186.5,211.5 Z"/></g>
<g><path style="opacity:1" fill="#e68c73" d="M 189.5,221.5 C 193.298,220.517 197.298,220.183 201.5,220.5C 201.689,224.297 200.356,227.297 197.5,229.5C 196.833,229.333 196.167,229.167 195.5,229C 193.361,226.522 191.361,224.022 189.5,221.5 Z"/></g>
<g><path style="opacity:1" fill="#533a21" d="M 101.5,250.5 C 106.603,256.105 111.936,261.605 117.5,267C 117.167,267.333 116.833,267.667 116.5,268C 110.779,268.59 105.112,269.423 99.5,270.5C 99.1667,269.667 98.8333,268.833 98.5,268C 99.7718,262.203 100.772,256.369 101.5,250.5 Z"/></g>
<g><path style="opacity:1" fill="#f5e3d3" d="M 195.5,417.5 C 199.5,418.167 203.5,418.833 207.5,419.5C 197.157,422.172 192.824,428.838 194.5,439.5C 187.492,439.666 180.492,439.5 173.5,439C 172.167,437 172.167,435 173.5,433C 178.533,432.065 183.533,431.065 188.5,430C 189.701,429.097 190.535,427.931 191,426.5C 191.498,423.518 191.665,420.518 191.5,417.5C 192.833,417.5 194.167,417.5 195.5,417.5 Z"/></g>
<g><path style="opacity:1" fill="#837970" d="M 195.5,417.5 C 200.511,417.334 205.511,417.501 210.5,418C 209.756,419.039 208.756,419.539 207.5,419.5C 203.5,418.833 199.5,418.167 195.5,417.5 Z"/></g>
<g><path style="opacity:1" fill="#f2e0d1" d="M 231.5,416.5 C 233.5,416.5 235.5,416.5 237.5,416.5C 237.703,424.461 236.037,431.961 232.5,439C 224.254,439.815 216.088,439.648 208,438.5C 207.257,436.559 207.424,434.726 208.5,433C 212.716,431.796 217.049,431.13 221.5,431C 222.5,430.167 223.5,429.333 224.5,428.5C 225.426,424.906 225.759,421.24 225.5,417.5C 227.735,417.795 229.735,417.461 231.5,416.5 Z"/></g>
<g><path style="opacity:0.99" fill="#98c8d2" d="M 249.5,434.5 C 255.878,434.295 262.211,434.628 268.5,435.5C 270.792,436.891 273.292,437.891 276,438.5C 277.939,438.046 279.772,437.379 281.5,436.5C 301.978,437.302 321.978,440.802 341.5,447C 344.759,448.211 347.592,450.044 350,452.5C 351.123,455.956 350.29,458.79 347.5,461C 332.541,467.657 316.874,471.657 300.5,473C 252.833,477.667 205.167,477.667 157.5,473C 141.126,471.657 125.459,467.657 110.5,461C 107.71,458.79 106.877,455.956 108,452.5C 115.63,447.063 124.13,443.563 133.5,442C 141.879,440.493 150.212,438.993 158.5,437.5C 159.888,444.13 163.555,448.964 169.5,452C 191.5,452.667 213.5,452.667 235.5,452C 238.902,450.6 241.736,448.433 244,445.5C 245.572,441.563 247.405,437.896 249.5,434.5 Z"/></g>
</svg>
