<svg width="164" height="164" viewBox="0 0 164 164" fill="none" xmlns="http://www.w3.org/2000/svg">
<ellipse cx="76.5" cy="152" rx="40.5" ry="7" fill="#99C9D3"/>
<path d="M40.6018 94.9976L29.5613 96.4502L31.8587 83.7476L19.836 81.0038L24.2969 73.2154L17.7207 67.848L25.8456 57.7622L17.7207 50.7807L26.4295 48.5829L24.2969 38.8234L33.0228 37.1475L31.5428 27.7039L39.1079 30.2279L42.2089 22.2747L55.3888 28.6757L61.4087 17.2163L70.1346 24.3385L76.0068 15.2349L82.3598 25.7122L95.732 20.9182L96.5081 30.743L105.759 29.4518L105.145 37.5253L112.796 38.3701L108.4 47.0342L116.676 48.5829L111.635 57.3741L118.228 60.2896L111.505 68.6241L115.9 76.3369L107.755 79.4585L112.679 86.7318L103.685 90.4509L111.827 95.7428L105.759 100.609L114.259 104.606L106.979 111.093L115.382 116.199L106.979 120.722L113.572 127.576L105.042 130.162L104.523 139.599L96.8962 136.986L92.0954 144.029L84.6778 136.986L60.0488 134.17L40.6018 94.9976Z" fill="#563C22"/>
<path d="M92.0952 146.262C91.5252 146.262 90.9757 146.045 90.5568 145.647L83.6818 139.119L59.798 136.385C59.0459 136.3 58.39 135.839 58.0535 135.159L39.3139 97.4158L29.8565 98.659C29.1491 98.7517 28.4416 98.501 27.9506 97.9859C27.4595 97.4708 27.2432 96.7496 27.3702 96.0491L29.2899 85.4482L19.3449 83.1783C18.6546 83.0203 18.0811 82.5464 17.7961 81.8974C17.5111 81.2483 17.5523 80.5066 17.9025 79.8919L21.4224 73.7449L16.3126 69.5726C15.3614 68.7965 15.2171 67.3988 15.9864 66.4441L22.7549 58.0444L16.268 52.471C15.6361 51.9284 15.3579 51.0768 15.5502 50.2663C15.7425 49.4559 16.3675 48.8172 17.178 48.6145L23.7885 46.9456L22.1161 39.2945C21.9891 38.7073 22.1024 38.0926 22.4321 37.5878C22.7617 37.0864 23.2837 36.7396 23.8744 36.6263L30.4815 35.3591L29.3379 28.048C29.2178 27.2788 29.5062 26.5027 30.1003 25.9979C30.6944 25.4931 31.5083 25.3385 32.2466 25.5858L37.796 27.4368L40.1278 21.4649C40.3544 20.8846 40.8145 20.4244 41.3915 20.1978C41.9718 19.9711 42.6209 19.9952 43.1806 20.2699L54.4134 25.7232L59.4271 16.1799C59.7396 15.5858 60.2994 15.1635 60.9553 15.0295C61.6112 14.8956 62.2945 15.0639 62.8131 15.4863L69.6056 21.0288L74.1249 14.0233C74.5369 13.3846 75.2443 13 75.9998 13C76.0101 13 76.0204 13 76.0307 13C76.8 13.0103 77.5108 13.4155 77.9092 14.0749L83.3178 22.9931L94.973 18.8138C95.6289 18.5769 96.3534 18.6628 96.9372 19.0405C97.521 19.4182 97.8954 20.0467 97.9503 20.7404L98.5409 28.2025L105.447 27.2376C106.116 27.1449 106.793 27.3578 107.284 27.8214C107.775 28.285 108.033 28.9443 107.981 29.6174L107.528 35.5411L113.036 36.1489C113.764 36.2314 114.406 36.6606 114.753 37.3062C115.1 37.9518 115.11 38.7245 114.781 39.3769L111.731 45.3831L117.078 46.3858C117.789 46.5198 118.39 46.9868 118.692 47.6461C118.994 48.3055 118.96 49.0644 118.603 49.6928L114.794 56.3343L119.121 58.2471C119.756 58.5286 120.224 59.0884 120.388 59.7615C120.553 60.4345 120.392 61.1488 119.956 61.688L114.19 68.8377L117.833 75.2319C118.156 75.7985 118.215 76.475 117.995 77.0897C117.775 77.7044 117.301 78.1886 116.693 78.4221L111.175 80.5375L114.523 85.4825C114.901 86.0388 115.007 86.7325 114.811 87.3747C114.619 88.0168 114.145 88.5388 113.527 88.7964L108.455 90.8946L113.039 93.8753C113.64 94.2668 114.018 94.9193 114.053 95.637C114.087 96.3513 113.778 97.0415 113.218 97.488L109.942 100.115L115.203 102.591C115.883 102.91 116.353 103.549 116.463 104.291C116.573 105.033 116.298 105.778 115.739 106.279L110.711 110.761L116.535 114.301C117.219 114.717 117.627 115.465 117.607 116.265C117.586 117.065 117.14 117.793 116.432 118.171L110.619 121.303L115.172 126.035C115.711 126.595 115.921 127.395 115.725 128.147C115.529 128.899 114.956 129.493 114.214 129.72L107.178 131.852L106.745 139.73C106.707 140.427 106.343 141.069 105.763 141.461C105.182 141.852 104.454 141.949 103.792 141.722L97.7752 139.662L93.9324 145.3C93.565 145.843 92.9778 146.193 92.3253 146.262C92.2463 146.272 92.1673 146.276 92.0884 146.276L92.0952 146.262ZM61.5082 132.089L84.9284 134.768C85.4091 134.823 85.859 135.032 86.2127 135.366L91.7278 140.602L95.0519 135.726C95.6186 134.895 96.6694 134.548 97.6206 134.871L102.456 136.53L102.813 130.039C102.864 129.102 103.496 128.298 104.393 128.024L109.437 126.495L105.371 122.271C104.887 121.77 104.667 121.07 104.774 120.379C104.88 119.689 105.306 119.092 105.921 118.758L110.89 116.083L105.818 113.003C105.213 112.636 104.818 112.004 104.753 111.3C104.688 110.596 104.963 109.902 105.491 109.432L110.248 105.191L104.805 102.632C104.108 102.306 103.63 101.64 103.538 100.874C103.448 100.108 103.757 99.3526 104.358 98.8684L108.015 95.9358L102.459 92.3231C101.766 91.8699 101.377 91.0697 101.453 90.2455C101.529 89.4214 102.057 88.7037 102.823 88.3877L109.286 85.716L105.897 80.7126C105.516 80.1494 105.412 79.442 105.615 78.793C105.818 78.1439 106.309 77.622 106.944 77.3782L112.662 75.1872L109.554 69.7305C109.101 68.9338 109.18 67.9379 109.757 67.2237L114.65 61.1557L110.718 59.4181C110.141 59.1605 109.698 58.6729 109.499 58.0719C109.303 57.471 109.368 56.8151 109.684 56.2656L113.163 50.2011L107.978 49.2292C107.287 49.0987 106.697 48.6523 106.388 48.0239C106.079 47.392 106.082 46.6537 106.398 46.0253L109.334 40.2389L104.884 39.7478C103.689 39.6139 102.813 38.5596 102.902 37.3577L103.307 32.0487L96.7999 32.9587C96.192 33.0446 95.5739 32.8729 95.0931 32.4882C94.6124 32.1036 94.3136 31.537 94.2656 30.9223L93.7195 24.0096L83.0946 27.8179C82.0953 28.1785 80.9827 27.7802 80.4332 26.8736L75.9312 19.4457L71.9923 25.5515C71.6489 26.0837 71.0926 26.4477 70.4641 26.5473C69.8357 26.6469 69.197 26.4752 68.7059 26.0734L62.0954 20.6785L57.3461 29.717C56.7863 30.785 55.4779 31.2142 54.3962 30.6854L43.3935 25.342L41.1682 31.0391C40.7355 32.1448 39.513 32.7218 38.3832 32.344L34.3001 30.9841L35.2102 36.8048C35.3956 37.993 34.6058 39.116 33.4245 39.3426L26.9479 40.5857L28.5927 48.1097C28.8503 49.2876 28.1257 50.4552 26.9582 50.7505L22.4218 51.8941L27.2844 56.0699C28.1978 56.8563 28.3249 58.2265 27.5694 59.164L20.8352 67.5224L25.691 71.4888C26.5358 72.179 26.759 73.3809 26.2164 74.3287L23.2528 79.5038L32.3393 81.578C33.5034 81.8424 34.2521 82.9791 34.0392 84.1535L32.2843 93.8444L40.2926 92.7902C41.2369 92.6666 42.1607 93.1542 42.5831 94.0093L61.491 132.093L61.5082 132.089Z" fill="black"/>
<path d="M72.945 127.811C72.7836 129.497 73.6696 148.879 68.364 148.879H58.1203C58.1203 148.879 55.3867 148.718 55.3867 145.102C55.3867 141.485 61.7123 141.726 61.7123 141.726L60.4485 125.095" fill="#FFECDC"/>
<path d="M68.3632 151.111H58.1195C58.0748 151.111 58.0336 151.111 57.989 151.107C56.0453 150.994 53.1572 149.301 53.1572 145.101C53.1572 143.752 53.6689 142.543 54.6408 141.609C55.9251 140.373 57.7932 139.851 59.3179 139.634L58.2259 125.266C58.1332 124.037 59.0535 122.965 60.2829 122.873C61.5123 122.783 62.5837 123.7 62.6764 124.93L63.9402 141.561C63.9882 142.196 63.765 142.821 63.322 143.278C62.879 143.735 62.2678 143.982 61.629 143.961C60.4134 143.927 58.3839 144.202 57.7348 144.83C57.649 144.916 57.6215 144.961 57.6215 145.105C57.6215 145.74 57.7383 146.513 58.2843 146.65H68.3151C68.4971 146.509 69.6098 145.448 70.2416 139.943C70.6778 136.142 70.6846 131.88 70.6881 129.586C70.6881 128.453 70.6915 127.941 70.7258 127.601C70.8426 126.375 71.9312 125.479 73.1606 125.592C74.3865 125.709 75.2862 126.798 75.1729 128.024C75.1592 128.206 75.1592 128.944 75.1558 129.597C75.1386 140.774 74.3041 151.118 68.3701 151.118L68.3632 151.111Z" fill="black"/>
<path d="M82.0965 127.924C81.9385 129.589 82.8108 148.734 77.5738 148.734H69.7167C69.7167 148.734 67.0176 148.576 67.0176 145.005C67.0176 141.433 73.2641 141.67 73.2641 141.67L72.0176 125.242" fill="#FFECDC"/>
<path d="M77.5695 150.939H69.7124C69.6678 150.939 69.6266 150.939 69.5819 150.935C67.6623 150.822 64.8086 149.15 64.8086 145.005C64.8086 143.669 65.3134 142.477 66.2715 141.557C67.5387 140.335 69.3862 139.819 70.8937 139.607L69.8154 125.414C69.7227 124.198 70.6327 123.14 71.8484 123.048C73.0641 122.958 74.1217 123.865 74.2145 125.081L75.461 141.509C75.5091 142.134 75.2859 142.752 74.8498 143.205C74.4136 143.659 73.8058 143.903 73.1774 143.879C71.9789 143.834 69.9734 144.115 69.3278 144.737C69.2419 144.819 69.2179 144.868 69.2179 145.008C69.2179 145.637 69.3347 146.399 69.8738 146.533H77.5215C77.7035 146.396 78.7989 145.348 79.4239 139.909C79.8531 136.155 79.86 131.942 79.8635 129.679C79.8635 128.563 79.8669 128.054 79.8978 127.718C80.0146 126.506 81.0928 125.616 82.3016 125.733C83.5138 125.85 84.3998 126.921 84.2865 128.133C84.2728 128.312 84.2728 129.043 84.2693 129.686C84.2522 140.726 83.428 150.942 77.5661 150.942L77.5695 150.939Z" fill="black"/>
<path d="M42.8195 89.0574C42.8195 89.0574 28.8223 76.6845 28.8223 66.3892C28.8223 56.094 34.1107 37.5089 45.4053 35.7918C45.4053 35.7918 44.9039 22.2102 48.3346 18.9925C51.7652 15.7748 59.7734 31.4306 59.7734 31.4306C59.7734 31.4306 70.9237 30.4313 77.7884 30.5721C77.7884 30.5721 81.5041 16.4169 84.0796 16.5612C86.6551 16.7054 89.2272 20.5653 90.9408 34.5762C90.9408 34.5762 105.491 48.5322 105.206 61.3996C104.921 74.2669 98.039 83.7415 95.6077 87.8864C98.0253 94.6755 101.319 110.06 99.6049 122.117C99.0555 125.98 96.8817 129.456 93.6091 131.578C89.0384 134.541 81.6414 137.227 69.8969 137.065C55.0103 136.859 46.9747 134.768 43.654 126.149C39.097 114.315 41.8991 94.9056 42.816 89.054L42.8195 89.0574Z" fill="#FFECDC"/>
<path d="M70.9099 139.545C70.563 139.545 70.2127 139.545 69.8625 139.538C54.7732 139.332 45.2712 137.22 41.3495 127.038C39.1311 121.279 37.16 110.201 40.1785 89.9812C36.82 86.7909 26.3496 76.0664 26.3496 66.3893C26.3496 56.7121 31.2362 37.6153 42.8948 33.8551C42.8674 29.1676 43.2898 20.3386 46.6448 17.193C47.5995 16.2968 48.8426 15.9293 50.1407 16.156C51.7478 16.4341 54.1208 17.5708 58.2451 23.9135C59.4642 25.7885 60.5115 27.6188 61.1812 28.8379C64.1791 28.5975 70.6969 28.1202 75.9133 28.0961C76.315 26.7054 76.9229 24.7067 77.6372 22.691C79.9105 16.2899 81.6893 13.965 84.2099 14.1024C88.8425 14.3599 91.5725 20.1532 93.2792 33.4292C96.2085 36.4065 107.943 49.1194 107.668 61.458C107.4 73.4909 101.755 82.6151 98.7222 87.5155C98.578 87.749 98.4406 87.9723 98.3101 88.1817C100.776 95.7298 103.719 110.668 102.043 122.467C101.387 127.076 98.8012 131.152 94.9482 133.652C88.918 137.563 80.8343 139.545 70.9064 139.545H70.9099ZM49.6874 21.2177C48.3481 23.3572 47.6647 30.1325 47.8708 35.7026C47.9154 36.956 47.0157 38.0446 45.776 38.2335C36.1298 39.6998 31.2878 57.0727 31.2878 66.3893C31.2878 70.019 33.5061 74.7203 37.6991 79.9847C41.0267 84.1605 44.4161 87.179 44.4505 87.2099C45.0789 87.7697 45.3845 88.611 45.254 89.442C42.809 105.026 43.0597 117.749 45.9546 125.266C48.561 132.038 54.6118 134.394 69.9277 134.603C79.337 134.723 86.8541 133.02 92.2628 129.514C94.9207 127.79 96.703 124.971 97.1563 121.777C98.7943 110.235 95.6487 95.3761 93.2792 88.7209C93.0354 88.0341 93.1076 87.2751 93.475 86.6433C93.7738 86.1316 94.124 85.5719 94.5258 84.9194C97.3108 80.4173 102.496 72.0383 102.737 61.3481C102.994 49.7307 89.3679 36.4924 89.2305 36.3619C88.8219 35.967 88.5574 35.445 88.4887 34.8818C87.1048 23.5804 85.2917 20.3249 84.4332 19.3977C83.3033 21.2452 81.473 26.2555 80.1715 31.204C79.883 32.3063 78.8872 33.0687 77.7333 33.0446C71.0884 32.9073 60.1029 33.8825 59.9896 33.8928C58.9868 33.9821 58.0287 33.4533 57.572 32.5604C54.9278 27.3956 51.3804 22.3407 49.684 21.2212L49.6874 21.2177Z" fill="black"/>
<path d="M48.3919 90.8838C48.3919 90.8838 38.4949 91.629 31.0946 92.8858C21.2182 94.5651 13.4573 97.5939 17.1454 105.238C18.7354 108.531 24.7622 108.288 31.2113 108.264C40.6927 108.229 50.8232 105.757 50.8232 105.757" fill="#FFECDC"/>
<path d="M28.2624 110.483C22.3696 110.483 17.0674 110.147 15.1581 106.197C13.7364 103.254 13.6231 100.586 14.8215 98.2682C16.7206 94.5903 21.6244 92.262 30.7247 90.7167C38.1422 89.4564 47.8193 88.7181 48.228 88.6872C49.4402 88.5944 50.5013 89.5045 50.5906 90.7201C50.6833 91.9358 49.7733 92.9935 48.5577 93.0828C48.4581 93.0896 38.6745 93.8348 31.463 95.0608C24.1725 96.3005 19.8902 98.0587 18.7398 100.287C18.5441 100.669 17.9465 101.826 19.1313 104.278C20.0207 106.122 25.3503 106.091 30.0516 106.063L31.202 106.057C40.3194 106.022 50.1992 103.639 50.2987 103.615C51.4835 103.327 52.6751 104.051 52.9636 105.236C53.252 106.421 52.5274 107.612 51.3427 107.901C50.9203 108.004 40.8482 110.435 31.2157 110.469L30.0756 110.476C29.4678 110.476 28.8599 110.483 28.2624 110.483Z" fill="black"/>
<path d="M60.4486 59.3212C59.8339 58.964 59.0544 59.1666 58.5908 59.7024C58.2028 60.1488 57.8971 60.7944 58.4397 61.4709C59.4974 62.7861 61.1526 61.3301 61.1526 60.6261C61.1526 60.1694 60.9706 59.6199 60.4486 59.3177V59.3212Z" fill="black"/>
<path d="M59.4621 62.862C58.8165 62.862 58.2155 62.5667 57.7691 62.0138C57.0686 61.145 57.1338 60.0701 57.9408 59.143C58.6997 58.2707 59.936 58.0338 60.8803 58.5798C61.5877 58.9919 62.0101 59.7576 62.0101 60.6299C62.0101 61.4403 61.21 62.3813 60.2313 62.7247C59.9737 62.814 59.7162 62.8586 59.4655 62.8586L59.4621 62.862ZM59.778 60.0015C59.5754 60.0015 59.3659 60.1182 59.2354 60.2693C58.8886 60.6677 59.0054 60.8119 59.105 60.939C59.287 61.1656 59.4277 61.1622 59.5445 61.1416C59.8913 61.0763 60.2141 60.7398 60.2862 60.5853C60.2794 60.4445 60.2313 60.1972 60.0115 60.0702C59.936 60.0255 59.8536 60.0083 59.7711 60.0083L59.778 60.0015Z" fill="black"/>
<path d="M73.0199 59.3221C72.4052 58.965 71.6257 59.1676 71.1621 59.7033C70.7741 60.1498 70.4684 60.7954 71.011 61.4719C72.0687 62.7871 73.7239 61.3311 73.7239 60.6271C73.7239 60.1704 73.5419 59.6209 73.0199 59.3187V59.3221Z" fill="black"/>
<path d="M72.0373 62.862C71.3917 62.862 70.7907 62.5667 70.3443 62.0138C69.6438 61.145 69.709 60.0701 70.516 59.143C71.2749 58.2707 72.5112 58.0338 73.4555 58.5798C74.1629 58.9919 74.5853 59.7576 74.5853 60.6299C74.5853 61.4403 73.7852 62.3813 72.8065 62.7247C72.5489 62.814 72.2914 62.8586 72.0407 62.8586L72.0373 62.862ZM72.3498 60.0015C72.1472 60.0015 71.9411 60.1182 71.8072 60.2693C71.4604 60.6677 71.5771 60.8119 71.6767 60.939C71.8587 61.1656 71.9995 61.1622 72.1163 61.1416C72.4631 61.0763 72.7859 60.7398 72.858 60.5853C72.8511 60.4445 72.8031 60.1972 72.5833 60.0702C72.5078 60.0255 72.4253 60.0083 72.3429 60.0083L72.3498 60.0015Z" fill="black"/>
<path d="M66.0228 78.3779C64.6286 78.3779 63.4508 77.2275 61.9569 74.4013C61.7028 73.9205 61.72 73.347 61.9982 72.88C62.2763 72.4164 62.7811 72.1313 63.3203 72.1313H67.2969C67.7159 72.1313 68.1142 72.2996 68.4061 72.6018C68.698 72.904 68.8525 73.3092 68.8422 73.7247C68.7495 76.678 67.7227 78.3744 66.0195 78.3744L66.0228 78.3779Z" fill="#EF9178"/>
<path d="M67.301 73.6805C67.301 73.6805 67.2014 76.833 66.0235 76.833C65.4329 76.833 64.5744 76.0466 63.3244 73.6805H67.301ZM67.301 70.5899H63.3244C62.2392 70.5899 61.2365 71.1565 60.6767 72.0871C60.117 73.0143 60.0861 74.1681 60.5909 75.1262C61.8477 77.4992 63.4721 79.9236 66.0201 79.9236C66.7756 79.9236 69.3065 79.6352 70.1204 75.9161C70.347 74.879 70.3848 73.8865 70.3882 73.7767C70.4157 72.9422 70.0998 72.1283 69.5194 71.5274C68.9356 70.9264 68.1355 70.5864 67.301 70.5864V70.5899Z" fill="black"/>
</svg>
