<svg width="164" height="164" viewBox="0 0 164 164" fill="none" xmlns="http://www.w3.org/2000/svg">
<ellipse cx="76.5" cy="152" rx="40.5" ry="7" fill="#99C9D3"/>
<path d="M73.5202 127.401C73.3588 129.087 74.2448 148.469 68.9392 148.469H58.6954C58.6954 148.469 55.9619 148.307 55.9619 144.691C55.9619 141.075 62.2874 141.316 62.2874 141.316L61.0237 124.685" fill="#AA977D"/>
<path d="M68.9384 150.701H58.6946C58.65 150.701 58.6087 150.701 58.5641 150.697C56.6204 150.584 53.7324 148.891 53.7324 144.691C53.7324 143.342 54.244 142.133 55.2159 141.199C56.5002 139.962 58.3684 139.44 59.8931 139.224L58.8011 124.856C58.7084 123.627 59.6287 122.555 60.8581 122.462C62.0875 122.37 63.1589 123.29 63.2516 124.519L64.5153 141.151C64.5634 141.786 64.3402 142.411 63.8972 142.868C63.4576 143.324 62.8429 143.572 62.2042 143.551C60.992 143.513 58.959 143.791 58.3065 144.42C58.2207 144.506 58.1933 144.55 58.1933 144.695C58.1933 145.33 58.31 146.102 58.856 146.24H68.8868C69.0689 146.099 70.1815 145.038 70.8134 139.533C71.2495 135.732 71.2563 131.47 71.2597 129.176C71.2597 128.043 71.2632 127.531 71.2976 127.191C71.4143 125.965 72.5029 125.069 73.7323 125.182C74.9583 125.299 75.858 126.388 75.7446 127.614C75.7309 127.796 75.7309 128.534 75.7275 129.186C75.7103 140.364 74.8758 150.708 68.9418 150.708L68.9384 150.701Z" fill="black"/>
<path d="M82.9367 127.401C82.7753 129.087 83.6614 148.469 78.3558 148.469H70.4024C70.4024 148.469 67.6689 148.307 67.6689 144.691C67.6689 141.075 73.9945 141.316 73.9945 141.316L72.7307 124.685" fill="#AA977D"/>
<path d="M78.355 150.701H70.4016C70.357 150.701 70.3158 150.701 70.2712 150.698C68.3275 150.584 65.4395 148.891 65.4395 144.692C65.4395 143.342 65.9512 142.133 66.923 141.199C68.2073 139.963 70.0755 139.441 71.6002 139.225L70.5081 124.857C70.4154 123.627 71.3357 122.556 72.5651 122.463C73.7979 122.37 74.8659 123.291 74.9586 124.52L76.2224 141.151C76.2705 141.786 76.0473 142.411 75.6043 142.868C75.1647 143.325 74.55 143.576 73.9113 143.551C72.6991 143.514 70.6661 143.792 70.0171 144.42C69.9312 144.506 69.9037 144.551 69.9037 144.695C69.9037 145.33 70.0205 146.103 70.5666 146.24H78.3068C78.4888 146.1 79.6015 145.038 80.2334 139.534C80.6695 135.732 80.6764 131.47 80.6798 129.177C80.6798 128.043 80.6832 127.532 80.7175 127.192C80.8343 125.966 81.9264 125.069 83.1523 125.183C84.3783 125.3 85.278 126.388 85.1647 127.614C85.151 127.796 85.151 128.534 85.1475 129.187C85.1303 140.365 84.2959 150.708 78.3618 150.708L78.355 150.701Z" fill="black"/>
<path d="M94.3068 23.349C94.3068 23.349 94.1008 18.0262 97.7683 17.1024C101.432 16.1787 103.778 16.4191 104.482 19.1594C105.186 21.8998 101.604 26.6491 94.9387 27.6209L94.3102 23.349H94.3068Z" fill="#AA977D"/>
<path d="M94.9341 28.9674C94.2782 28.9674 93.7047 28.4866 93.6051 27.8204L92.9767 23.5484C92.9699 23.5003 92.9664 23.4523 92.963 23.4042C92.963 23.3424 92.908 21.8417 93.3682 20.2105C94.0378 17.8273 95.4458 16.3026 97.4376 15.8012C99.3812 15.3136 104.546 14.0121 105.782 18.8266C106.139 20.2208 105.755 21.8657 104.697 23.4557C102.805 26.2991 99.2266 28.3527 95.1298 28.9502C95.0646 28.9605 94.9994 28.9639 94.9341 28.9639V28.9674ZM95.6483 23.2394L96.0605 26.0347C98.8421 25.3582 101.177 23.8884 102.458 21.9653C103.069 21.045 103.341 20.1212 103.179 19.4928C102.939 18.5553 102.609 17.271 98.0969 18.4076C95.7239 19.0052 95.6484 22.7277 95.6518 23.2394H95.6483Z" fill="black"/>
<path d="M38.7739 26.917C38.7739 26.917 39.2581 21.6114 35.6455 20.4987C32.0328 19.3861 29.6806 19.4994 28.8323 22.1986C27.9876 24.8978 31.8337 29.9252 38.4408 31.2473L38.7739 26.9135V26.917Z" fill="#AA977D"/>
<path d="M38.4399 32.5935C38.3506 32.5935 38.2647 32.5832 38.1755 32.566C33.1205 31.5564 29.7929 28.6203 28.3643 26.213C27.4372 24.6471 27.1453 23.0777 27.5471 21.7968C29.034 17.0544 34.1233 18.6238 36.036 19.2144C38.0003 19.8188 39.3258 21.4157 39.8684 23.8298C40.2256 25.4198 40.1191 26.8621 40.1053 27.0269L39.7757 31.3538C39.7448 31.7384 39.5525 32.0887 39.2468 32.3222C39.0099 32.5008 38.7249 32.5935 38.4364 32.5935H38.4399ZM32.1177 21.1787C30.5621 21.1787 30.3149 21.9685 30.1157 22.6004C29.9509 23.1292 30.1604 23.9672 30.6789 24.8428C31.6267 26.4431 33.8588 28.5035 37.2208 29.5544L37.4303 26.814C37.4303 26.814 37.4303 26.8037 37.4303 26.7968C37.4372 26.7247 37.7531 22.5558 35.2462 21.7831C33.8382 21.3504 32.8355 21.1787 32.1143 21.1787H32.1177Z" fill="black"/>
<path d="M99.4595 124.685C99.4595 124.685 112.959 129.582 120.521 131.034C128.082 132.49 138.264 135.107 137.1 136.577C135.936 138.047 126.358 140.317 118.484 140.344C94.4354 140.423 70.586 139.276 70.586 139.276C55.5585 138.5 47.3821 135.825 44.0202 127.095C38.7661 113.455 41.6747 93.5928 42.3409 90.6155C42.3409 90.6155 30.8402 84.678 30.1431 75.6156C29.446 66.5531 32.2345 57.4906 32.2345 57.4906C32.2345 57.4906 23.8692 29.953 52.8011 20.1934C81.733 10.4338 99.8716 24.6714 104.387 41.4571C107.54 53.1775 118.007 78.6616 97.2514 85.3614L98.1099 91.4362C98.9856 96.3675 99.4286 101.368 99.4423 106.374L99.4595 113.06V124.681V124.685Z" fill="#AA977D"/>
<path d="M116.083 142.353C93.0779 142.353 70.7222 141.292 70.4921 141.282C55.9043 140.53 46.0761 138.016 42.151 127.82C37.3296 115.307 39.0568 97.81 40.1042 91.6493C36.859 89.6782 28.7753 83.9742 28.1469 75.7737C27.5219 67.6488 29.5411 59.6646 30.1558 57.4771C29.6647 55.554 28.3495 49.3247 29.7026 42.1338C31.1929 34.2148 36.2993 23.6483 52.1646 18.2946C69.9256 12.3022 82.161 15.5954 89.297 19.4141C97.6452 23.8784 103.851 31.7252 106.33 40.9353C106.673 42.2093 107.113 43.6825 107.58 45.2416C109.486 51.6152 112.099 60.3445 111.814 68.2188C111.484 77.3843 107.333 83.5931 99.4687 86.6974L100.094 91.1205C100.983 96.1411 101.44 101.272 101.45 106.368L101.467 113.054V123.263C105.032 124.517 114.949 127.913 120.904 129.06C124.815 129.812 128.785 130.743 131.8 131.618C137.25 133.198 138.586 134.235 139.053 135.488C139.348 136.282 139.208 137.151 138.679 137.817C136.625 140.409 125.197 142.322 118.497 142.343C117.693 142.343 116.89 142.346 116.086 142.346L116.083 142.353ZM70.7634 19.0192C65.3514 19.0192 59.5341 20.046 53.4421 22.0995C42.2402 25.8804 35.585 32.8206 33.6688 42.7347C32.2093 50.2828 34.1359 56.8487 34.1565 56.9139C34.2698 57.2951 34.2698 57.7038 34.1565 58.0849C34.129 58.1708 31.4882 66.9104 32.1476 75.4681C32.7519 83.3252 43.1606 88.7853 43.2671 88.8369C44.0775 89.2558 44.5032 90.1658 44.3041 91.0553C43.5795 94.3039 40.9387 113.504 45.8975 126.374C48.6894 133.617 55.1763 136.471 70.6948 137.271C70.9249 137.281 94.7674 138.418 118.483 138.335C123.995 138.318 129.815 137.199 133.098 136.227C130.389 135.296 125.753 134.08 120.145 133.002C112.515 131.536 99.3348 126.769 98.7785 126.567C97.9852 126.278 97.4563 125.526 97.4563 124.681V113.061L97.4392 106.378C97.4289 101.498 96.9893 96.5875 96.1377 91.7867C96.1343 91.7627 96.1308 91.7386 96.1274 91.718L95.2689 85.6432C95.1315 84.6782 95.7119 83.7545 96.639 83.4523C103.864 81.1205 107.518 76.0897 107.807 68.0746C108.068 60.8631 105.564 52.4977 103.737 46.392C103.263 44.802 102.813 43.3013 102.456 41.9758C100.265 33.8302 94.7777 26.8935 87.4048 22.9477C82.5044 20.3241 76.8932 19.0123 70.7669 19.0123L70.7634 19.0192Z" fill="black"/>
<path d="M89.0978 115.911C89.1871 106.601 87.1953 91.3951 87.1953 91.3951C87.1953 91.3951 85.2207 68.2049 67.3706 66.8313C46.8075 65.2482 46.9894 91.3951 46.9894 91.3951C46.9894 91.3951 44.1907 93.3765 41.5156 97.1608C40.7566 104.874 40.4201 117.521 44.1117 127.099C47.4599 135.794 55.5917 138.483 70.5161 139.269C70.6466 139.269 70.7806 139.269 70.9076 139.279C70.9076 139.279 70.9145 139.286 70.9145 139.29C72.2057 139.352 78.7475 139.647 87.8753 139.911C88.2221 135.409 89.0223 124.187 89.1012 115.914L89.0978 115.911Z" fill="white"/>
<path d="M87.8716 141.913C87.851 141.913 87.8339 141.913 87.8133 141.913C78.665 141.649 72.051 141.35 70.8182 141.292C70.7598 141.292 70.7014 141.285 70.643 141.274C70.6293 141.274 70.6155 141.274 70.6018 141.274H70.4713C70.4507 141.274 70.43 141.274 70.406 141.271C55.9212 140.509 46.1548 137.991 42.2366 127.82C38.2496 117.47 38.8196 104.046 39.5167 96.9649C39.5511 96.618 39.6747 96.2884 39.8739 96.0033C41.8485 93.208 43.8951 91.3227 45.0009 90.4024C45.1383 86.9993 46.1273 75.9176 53.0573 69.4581C56.8313 65.9417 61.6939 64.3826 67.5214 64.8325C75.5915 65.454 81.9101 70.2823 85.7974 78.7953C88.531 84.7843 89.1251 90.5398 89.1869 91.1751C89.3243 92.2328 91.1923 106.738 91.103 115.928C91.0241 124.269 90.2171 135.584 89.8737 140.062C89.7947 141.11 88.919 141.913 87.8751 141.913H87.8716ZM71.2062 137.294C72.7137 137.363 78.2975 137.61 86.0138 137.847C86.395 132.628 87.02 123.108 87.0921 115.89C87.1779 106.831 85.224 91.8035 85.2034 91.6524C85.1999 91.6215 85.1965 91.594 85.1931 91.5631C85.1896 91.5082 84.6779 85.9553 82.1058 80.3681C78.8126 73.2218 73.8024 69.3379 67.2124 68.8331C62.5593 68.476 58.7166 69.671 55.8011 72.3839C49.0051 78.706 48.9879 91.2575 48.9913 91.3845C48.9913 92.037 48.6788 92.6551 48.1466 93.0329C48.1259 93.0466 45.7839 94.743 43.459 97.8955C42.8237 104.746 42.3876 117.051 45.9796 126.381C48.7612 133.603 55.2 136.453 70.5812 137.267H70.6568C70.7735 137.267 70.8902 137.27 71.0035 137.277C71.0722 137.277 71.1375 137.288 71.2062 137.298V137.294Z" fill="black"/>
<path d="M62.1859 59.994C61.5712 59.6369 60.7917 59.8395 60.3281 60.3752C59.94 60.8216 59.6344 61.4672 60.177 62.1437C61.2347 63.459 62.8899 62.0029 62.8899 61.299C62.8899 60.8422 62.7079 60.2928 62.1859 59.9906V59.994Z" fill="black"/>
<path d="M61.1995 63.5349C60.5539 63.5349 59.9528 63.2396 59.5064 62.6867C58.8059 61.8179 58.8711 60.743 59.6781 59.8158C60.437 58.9436 61.6733 58.7066 62.6177 59.2526C63.3251 59.6647 63.7475 60.4305 63.7475 61.3027C63.7475 62.1132 62.9474 63.0541 61.9652 63.401C61.7077 63.4902 61.4501 63.5349 61.1995 63.5349ZM61.5119 60.6743C61.3093 60.6743 61.0998 60.7911 60.9693 60.9422C60.6225 61.3405 60.7393 61.4848 60.8389 61.6118C61.0209 61.8385 61.1617 61.835 61.2784 61.8144C61.6253 61.7526 61.948 61.4126 62.0202 61.2581C62.0133 61.1173 61.9652 60.8701 61.7454 60.743C61.6699 60.6984 61.5875 60.6812 61.505 60.6812L61.5119 60.6743Z" fill="black"/>
<path d="M74.7553 59.995C74.1406 59.6379 73.361 59.8405 72.8974 60.3762C72.5094 60.8226 72.2038 61.4682 72.7463 62.1447C73.804 63.46 75.4593 62.0039 75.4593 61.2999C75.4593 60.8432 75.2773 60.2938 74.7553 59.9916V59.995Z" fill="black"/>
<path d="M73.7726 63.5354C73.127 63.5354 72.5261 63.24 72.0796 62.6872C71.3791 61.8183 71.4443 60.7435 72.2514 59.8163C73.0103 58.944 74.2466 58.7071 75.1909 59.2531C75.8983 59.6652 76.3207 60.431 76.3207 61.3032C76.3207 62.1137 75.5205 63.0546 74.5384 63.4014C74.2808 63.4907 74.0233 63.5354 73.7726 63.5354ZM74.0852 60.6748C73.8826 60.6748 73.6765 60.7916 73.5426 60.9392C73.1957 61.3376 73.3124 61.4818 73.412 61.6089C73.594 61.8355 73.7348 61.8321 73.8516 61.8115C74.1984 61.7497 74.5213 61.4097 74.5934 61.2552C74.5865 61.1144 74.5384 60.8671 74.3187 60.7401C74.2431 60.6954 74.1607 60.6782 74.0783 60.6782L74.0852 60.6748Z" fill="black"/>
<path d="M67.7592 79.0488C66.3649 79.0488 65.1871 77.8984 63.6933 75.0722C63.4392 74.5914 63.4563 74.0179 63.7345 73.5509C64.0126 73.0873 64.5175 72.8022 65.0566 72.8022H69.0332C69.4521 72.8022 69.8505 72.9705 70.1424 73.2727C70.4343 73.5749 70.5888 73.9801 70.5785 74.3956C70.4858 77.3489 69.459 79.0454 67.7557 79.0454L67.7592 79.0488Z" fill="#EF9178"/>
<path d="M69.0373 74.3514C69.0373 74.3514 68.9377 77.5039 67.7598 77.5039C67.1692 77.5039 66.3107 76.7175 65.0607 74.3514H69.0373ZM69.0373 71.2608H65.0607C63.9755 71.2608 62.9728 71.8274 62.4131 72.758C61.8533 73.6852 61.8224 74.839 62.3272 75.7971C63.5841 78.1701 65.2083 80.5945 67.7564 80.5945C68.5119 80.5945 71.0463 80.306 71.8567 76.587C72.0833 75.5499 72.121 74.5574 72.1245 74.4476C72.152 73.6131 71.8361 72.7992 71.2557 72.1983C70.672 71.5973 69.8717 71.2573 69.0373 71.2573V71.2608Z" fill="black"/>
<path d="M96.0371 65.5948C96.0371 65.5948 108.688 63.5584 114.653 64.1387Z" fill="#FFEEC7"/>
<path d="M96.0336 67.8277C94.9553 67.8277 94.0075 67.0481 93.8324 65.9492C93.6366 64.7336 94.4642 63.5866 95.6799 63.3909C96.2087 63.305 108.685 61.3167 114.869 61.9177C116.095 62.0379 116.995 63.1299 116.875 64.3558C116.755 65.5818 115.663 66.4781 114.437 66.3613C108.822 65.8119 96.5144 67.7761 96.3907 67.7968C96.2705 67.8174 96.1503 67.8242 96.0336 67.8242V67.8277Z" fill="black"/>
<path d="M97.248 70.8698C97.248 70.8698 108.35 69.9804 114.892 73.15Z" fill="#FFEEC7"/>
<path d="M114.888 75.3818C114.562 75.3818 114.229 75.3097 113.916 75.1586C107.989 72.2877 97.5289 73.0844 97.4259 73.0948C96.1999 73.1875 95.1216 72.2774 95.0221 71.0481C94.9225 69.8187 95.8393 68.7438 97.0687 68.6442C97.5461 68.6064 108.858 67.7445 115.863 71.1408C116.972 71.6799 117.436 73.0123 116.897 74.1215C116.512 74.9182 115.716 75.3818 114.888 75.3818Z" fill="black"/>
<path d="M37.0542 66.8306C37.0542 66.8306 24.3517 68.4995 18.7988 70.766Z" fill="#FFEEC7"/>
<path d="M18.7993 72.9986C17.9201 72.9986 17.0857 72.4732 16.732 71.6078C16.2649 70.4677 16.8143 69.1628 17.9544 68.6992C23.7064 66.3537 36.2304 64.6882 36.7593 64.6161C37.9784 64.4547 39.1013 65.3167 39.2627 66.5392C39.4241 67.7617 38.5622 68.8812 37.3397 69.0426C37.2161 69.0598 24.8569 70.7012 19.6371 72.8304C19.3624 72.9437 19.074 72.9952 18.7958 72.9952L18.7993 72.9986Z" fill="black"/>
<path d="M37.4018 72.2334C37.4018 72.2334 26.509 74.5582 21.1484 79.4689Z" fill="#FFEEC7"/>
<path d="M21.1466 81.7014C20.5422 81.7014 19.9412 81.4576 19.5017 80.9768C18.6672 80.0668 18.7291 78.6554 19.6391 77.8244C25.3808 72.5634 36.4659 70.1527 36.9329 70.0531C38.1383 69.7956 39.323 70.5648 39.5806 71.7701C39.8381 72.9755 39.0689 74.1602 37.8635 74.4178C37.7262 74.4487 27.4859 76.6877 22.6542 81.1176C22.2249 81.5091 21.6857 81.7048 21.1466 81.7048V81.7014Z" fill="black"/>
<path d="M48.8158 91.3956C48.8158 91.3956 38.7952 92.1511 31.3021 93.4252C21.3021 95.125 13.4484 98.1916 17.1812 105.929C18.7918 109.263 24.8908 109.016 31.4189 108.992C41.0171 108.957 51.2745 106.454 51.2745 106.454C51.2745 106.454 56.3294 105.537 55.5533 99.3317C54.9009 94.1223 53.9016 90.6367 48.8123 91.3956H48.8158Z" fill="#AA977D"/>
<path d="M28.4371 111.234C22.4722 111.234 17.1013 110.894 15.1714 106.893C13.7325 103.913 13.6192 101.213 14.8314 98.8645C16.7545 95.142 21.7167 92.7828 30.9302 91.2204C38.1726 89.991 47.5476 89.2526 48.571 89.1737C50.8924 88.844 52.8086 89.2355 54.2646 90.3412C56.7302 92.2128 57.3484 95.6709 57.7708 99.0534C58.5847 105.558 54.2269 108.154 51.7475 108.638C50.81 108.865 40.9096 111.189 31.4316 111.224L30.2778 111.231C29.6597 111.234 29.0484 111.237 28.4405 111.237L28.4371 111.234ZM50.1129 93.5246C49.821 93.5246 49.4982 93.5521 49.1445 93.6036C49.0895 93.6105 49.038 93.6173 48.9831 93.6208C48.8835 93.6276 38.9763 94.3831 31.6755 95.6228C24.2957 96.8762 19.9619 98.6585 18.7943 100.915C18.5952 101.299 17.9907 102.47 19.1892 104.957C20.089 106.821 25.4838 106.794 30.2469 106.763L31.411 106.756C40.6418 106.722 50.6451 104.308 50.7447 104.283C50.8099 104.266 50.8065 104.266 50.8752 104.256C51.5449 104.112 53.8044 103.325 53.3409 99.6063C53.0284 97.1029 52.5957 94.6819 51.5655 93.8989C51.2358 93.6482 50.7482 93.5246 50.1129 93.5246Z" fill="black"/>
</svg>
