<?xml version="1.0" encoding="UTF-8"?>
<!DOCTYPE svg PUBLIC "-//W3C//DTD SVG 1.1//EN" "http://www.w3.org/Graphics/SVG/1.1/DTD/svg11.dtd">
<svg xmlns="http://www.w3.org/2000/svg" version="1.1" width="492px" height="492px" style="shape-rendering:geometricPrecision; text-rendering:geometricPrecision; image-rendering:optimizeQuality; fill-rule:evenodd; clip-rule:evenodd" xmlns:xlink="http://www.w3.org/1999/xlink">
<g><path style="opacity:0.972" fill="#020202" d="M 251.5,434.5 C 249.415,439.823 246.415,444.657 242.5,449C 240.913,449.862 239.246,450.529 237.5,451C 215.5,451.667 193.5,451.667 171.5,451C 165.442,448.443 161.776,443.943 160.5,437.5C 159.264,428.802 162.597,422.635 170.5,419C 141.244,412.409 124.411,394.242 120,364.5C 117.846,353.937 116.68,343.27 116.5,332.5C 100.514,333.533 84.5141,333.7 68.5,333C 47.8697,331.261 39.0363,320.095 42,299.5C 44.2911,293.405 48.1244,288.571 53.5,285C 59.4878,281.506 65.8211,278.839 72.5,277C 85.0668,273.961 97.7335,271.461 110.5,269.5C 98.4277,259.767 89.4277,247.767 83.5,233.5C 76.5018,236.997 69.8352,240.997 63.5,245.5C 56.5286,244.079 54.3619,240.079 57,233.5C 64.6166,226.939 73.1166,221.772 82.5,218C 83.5914,215.936 83.7581,213.769 83,211.5C 74.0224,213.828 65.0224,216.161 56,218.5C 51.4456,218.448 48.9456,216.114 48.5,211.5C 48.7189,210.062 49.2189,208.729 50,207.5C 60.8331,202.081 72.3331,198.748 84.5,197.5C 85.5877,188.895 87.2544,180.395 89.5,172C 82.8145,144.466 86.4811,118.466 100.5,94C 93.3554,89.5221 87.5221,83.6887 83,76.5C 78.778,60.3889 84.9446,53.2222 101.5,55C 111.916,56.4174 118.082,62.2507 120,72.5C 156.341,48.1637 196.175,39.6637 239.5,47C 253.376,50.1911 266.209,55.6911 278,63.5C 280.801,50.7499 288.801,44.4166 302,44.5C 315.24,46.3041 319.906,53.6374 316,66.5C 311.809,73.6899 305.975,79.1899 298.5,83C 305.958,91.8094 311.792,101.643 316,112.5C 323.912,136.066 330.078,160.066 334.5,184.5C 338.182,184.335 341.848,184.501 345.5,185C 351.353,188.451 352.019,192.785 347.5,198C 346.128,198.402 344.795,198.902 343.5,199.5C 340.916,198.607 338.249,198.274 335.5,198.5C 335.5,201.833 335.5,205.167 335.5,208.5C 340.747,209.541 345.58,211.541 350,214.5C 352.804,220.891 350.804,224.891 344,226.5C 340.539,225.068 337.039,223.735 333.5,222.5C 327.745,239.923 316.411,252.257 299.5,259.5C 299.167,260.167 298.833,260.833 298.5,261.5C 301.222,276.39 303.056,291.39 304,306.5C 304.5,327.497 304.667,348.497 304.5,369.5C 331.961,378.93 359.961,386.43 388.5,392C 394.895,393.798 401.228,395.798 407.5,398C 416.037,400.25 418.871,405.417 416,413.5C 412.195,416.319 408.029,418.486 403.5,420C 392.997,422.862 382.33,424.862 371.5,426C 332.159,426.522 292.826,426.522 253.5,426C 252.518,428.738 251.852,431.572 251.5,434.5 Z"/></g>
<g><path style="opacity:1" fill="#a59279" d="M 297.5,53.5 C 300.518,53.3354 303.518,53.502 306.5,54C 308.922,56.0027 309.755,58.5027 309,61.5C 305.262,69.6016 299.096,74.1016 290.5,75C 285.317,69.0089 285.317,62.8422 290.5,56.5C 292.764,55.1308 295.097,54.1308 297.5,53.5 Z"/></g>
<g><path style="opacity:1" fill="#a8967c" d="M 198.5,56.5 C 224.849,54.3381 249.182,60.1715 271.5,74C 286.862,85.6923 298.028,100.526 305,118.5C 310.611,136.332 315.611,154.332 320,172.5C 321.075,176.77 321.575,181.103 321.5,185.5C 309.082,186.261 296.749,187.761 284.5,190C 278.363,196.626 279.696,200.793 288.5,202.5C 299.767,200.675 311.1,199.675 322.5,199.5C 322.808,201.924 322.474,204.257 321.5,206.5C 310.547,205.356 299.547,205.189 288.5,206C 283.196,210.098 283.196,214.098 288.5,218C 298.167,218.333 307.833,218.667 317.5,219C 318.624,219.249 319.624,219.749 320.5,220.5C 314.795,235.705 304.128,245.538 288.5,250C 287.667,250.833 286.833,251.667 286,252.5C 287.114,266.859 288.78,281.193 291,295.5C 291.333,322.167 291.667,348.833 292,375.5C 294.034,378.42 296.868,380.253 300.5,381C 313.771,385.535 327.105,389.868 340.5,394C 359.987,398.039 379.321,402.705 398.5,408C 387.712,411.058 376.712,413.058 365.5,414C 333.491,414.738 301.491,414.571 269.5,413.5C 274.264,365.721 273.431,318.055 267,270.5C 264.314,251.105 257.314,233.438 246,217.5C 225.393,194.297 200.559,188.131 171.5,199C 160.333,204.833 151.833,213.333 146,224.5C 139.062,238.354 135.229,253.021 134.5,268.5C 117.638,261.14 105.138,249.14 97,232.5C 96.2571,230.559 96.4238,228.726 97.5,227C 103.892,225.153 110.225,223.153 116.5,221C 120.116,214.606 118.282,210.773 111,209.5C 105.749,210.604 100.583,211.937 95.5,213.5C 95.2865,211.856 95.6198,210.356 96.5,209C 102.13,207.815 107.797,206.815 113.5,206C 118.833,202 118.833,198 113.5,194C 108.154,193.568 102.82,193.734 97.5,194.5C 98.5255,186.707 100.192,179.04 102.5,171.5C 90.8432,113.336 113.843,76.8359 171.5,62C 180.551,59.7187 189.551,57.8854 198.5,56.5 Z"/></g>
<g><path style="opacity:1" fill="#a59279" d="M 91.5,63.5 C 106.372,60.8793 112.872,66.8793 111,81.5C 109.471,82.7287 108.304,84.2287 107.5,86C 98.6654,83.5031 92.6654,77.8364 89.5,69C 89.7579,66.9907 90.4245,65.1573 91.5,63.5 Z"/></g>
<g><path style="opacity:1" fill="#090706" d="M 180.5,176.5 C 189.303,175.788 192.137,179.455 189,187.5C 182.674,192.089 178.508,190.589 176.5,183C 177.205,180.458 178.539,178.292 180.5,176.5 Z"/></g>
<g><path style="opacity:1" fill="#040303" d="M 218.5,176.5 C 225.164,176 228.331,179 228,185.5C 223.965,190.364 219.632,190.698 215,186.5C 214.333,184.5 214.333,182.5 215,180.5C 216.376,179.295 217.542,177.962 218.5,176.5 Z"/></g>
<g><path style="opacity:1" fill="#fdfdfd" d="M 189.5,205.5 C 213.527,204.092 231.361,213.758 243,234.5C 250.576,248.562 254.91,263.562 256,279.5C 261.426,323.778 261.926,368.112 257.5,412.5C 231.05,412.782 204.717,411.282 178.5,408C 151.221,403.721 135.721,387.887 132,360.5C 130.629,350.496 129.629,340.496 129,330.5C 136.762,328.844 144.595,327.344 152.5,326C 166.94,322.794 173.607,313.794 172.5,299C 172.789,290.658 170.956,282.825 167,275.5C 162.06,269.113 155.56,266.113 147.5,266.5C 147.342,244.323 155.675,226.156 172.5,212C 178.02,209.11 183.686,206.943 189.5,205.5 Z"/></g>
<g><path style="opacity:1" fill="#060505" d="M 190.5,213.5 C 197.175,213.334 203.842,213.5 210.5,214C 211.579,214.956 212.745,215.789 214,216.5C 216.846,224.884 215.346,232.384 209.5,239C 202.091,243.065 195.924,241.565 191,234.5C 188.35,230.868 186.517,226.868 185.5,222.5C 185.904,218.771 187.571,215.771 190.5,213.5 Z"/></g>
<g><path style="opacity:1" fill="#e48a72" d="M 194.5,223.5 C 198.298,222.517 202.298,222.183 206.5,222.5C 206.579,225.271 206.079,227.937 205,230.5C 203.612,231.554 202.112,231.72 200.5,231C 198.361,228.522 196.361,226.022 194.5,223.5 Z"/></g>
<g><path style="opacity:1" fill="#a7957b" d="M 135.5,280.5 C 141.509,280.334 147.509,280.501 153.5,281C 154.308,281.308 154.975,281.808 155.5,282.5C 159.125,289.776 160.292,297.443 159,305.5C 158.654,307.848 157.487,309.681 155.5,311C 123.87,319.745 91.8698,321.745 59.5,317C 52.6667,309.896 53,303.23 60.5,297C 69.5754,291.98 79.2421,288.647 89.5,287C 104.932,284.49 120.266,282.323 135.5,280.5 Z"/></g>
<g><path style="opacity:1" fill="#a7947b" d="M 196.5,429.5 C 195.527,431.948 195.194,434.615 195.5,437.5C 188.833,437.5 182.167,437.5 175.5,437.5C 174.193,435.777 174.193,433.943 175.5,432C 180.5,431 185.5,430 190.5,429C 192.219,427.13 193.219,424.963 193.5,422.5C 195.857,422.337 198.19,422.503 200.5,423C 198.266,424.638 196.933,426.805 196.5,429.5 Z"/></g>
<g><path style="opacity:1" fill="#a49178" d="M 227.5,424.5 C 231.514,424.334 235.514,424.501 239.5,425C 238.442,429.563 236.775,433.896 234.5,438C 226.254,438.815 218.088,438.648 210,437.5C 209.257,435.559 209.424,433.726 210.5,432C 215.467,430.935 220.467,429.935 225.5,429C 227.037,427.89 227.703,426.39 227.5,424.5 Z"/></g>
<g><path style="opacity:0.99" fill="#98c8d2" d="M 251.5,434.5 C 274.33,434.954 296.996,437.121 319.5,441C 327.004,442.376 334.337,444.376 341.5,447C 344.759,448.211 347.592,450.044 350,452.5C 351.123,455.956 350.29,458.79 347.5,461C 332.541,467.657 316.874,471.657 300.5,473C 259.559,476.817 218.559,477.483 177.5,475C 156.703,473.812 136.37,470.145 116.5,464C 113.241,462.789 110.408,460.956 108,458.5C 106.877,455.044 107.71,452.21 110.5,450C 126.464,443.106 143.131,438.94 160.5,437.5C 161.776,443.943 165.442,448.443 171.5,451C 193.5,451.667 215.5,451.667 237.5,451C 239.246,450.529 240.913,449.862 242.5,449C 246.415,444.657 249.415,439.823 251.5,434.5 Z"/></g>
<g><path style="opacity:1" fill="#726553" d="M 196.5,429.5 C 196.5,432.5 196.5,435.5 196.5,438.5C 189.313,438.825 182.313,438.491 175.5,437.5C 182.167,437.5 188.833,437.5 195.5,437.5C 195.194,434.615 195.527,431.948 196.5,429.5 Z"/></g>
</svg>
