<?xml version="1.0" encoding="UTF-8"?>
<!DOCTYPE svg PUBLIC "-//W3C//DTD SVG 1.1//EN" "http://www.w3.org/Graphics/SVG/1.1/DTD/svg11.dtd">
<svg xmlns="http://www.w3.org/2000/svg" version="1.1" width="492px" height="492px" style="shape-rendering:geometricPrecision; text-rendering:geometricPrecision; image-rendering:optimizeQuality; fill-rule:evenodd; clip-rule:evenodd" xmlns:xlink="http://www.w3.org/1999/xlink">
<g><path style="opacity:0.984" fill="#000000" d="M 251.5,434.5 C 250.161,439.008 248.328,443.342 246,447.5C 244.039,450.135 241.539,451.969 238.5,453C 216.167,453.667 193.833,453.667 171.5,453C 164.766,450.038 161.099,444.872 160.5,437.5C 159.975,429.054 163.641,423.221 171.5,420C 141.211,415.378 124.045,397.878 120,367.5C 118.112,356.652 117.612,345.818 118.5,335C 101.52,335.542 84.52,335.542 67.5,335C 47.0956,333.059 38.5956,321.893 42,301.5C 45.5816,292.287 52.0816,286.12 61.5,283C 73.4645,278.426 85.7978,275.259 98.5,273.5C 84.6932,258.955 76.5266,241.622 74,221.5C 72,205.833 72,190.167 74,174.5C 75.9492,162.605 80.6159,151.939 88,142.5C 93.1667,136.667 98.3333,130.833 103.5,125C 87.6642,113.844 81.8308,98.6776 86,79.5C 93.4734,57.7478 108.807,47.0811 132,47.5C 149.426,47.2927 163.426,53.9594 174,67.5C 176.133,71.2316 177.466,75.2316 178,79.5C 178.378,86.1891 178.378,92.8558 178,99.5C 186.396,98.1489 194.896,97.4823 203.5,97.5C 200.751,82.7391 203.918,69.4058 213,57.5C 219.462,50.8509 227.296,46.6842 236.5,45C 279.737,40.2371 298.904,59.4038 294,102.5C 292.753,105.329 291.253,107.995 289.5,110.5C 303.752,118.587 313.919,130.254 320,145.5C 330.661,171.47 335.661,198.47 335,226.5C 334.314,241.235 329.314,254.235 320,265.5C 313.599,271.934 306.766,277.767 299.5,283C 303.525,295.266 306.525,307.766 308.5,320.5C 319.533,317.841 329.199,320.341 337.5,328C 359.176,350.281 356.176,368.615 328.5,383C 320.662,384.586 313.495,383.086 307,378.5C 302.021,394.814 291.521,405.981 275.5,412C 268.699,414.879 261.699,417.045 254.5,418.5C 253.868,423.933 252.868,429.266 251.5,434.5 Z"/></g>
<g><path style="opacity:1" fill="#fdfdfd" d="M 184.5,111.5 C 196.192,111.395 207.858,111.895 219.5,113C 237.801,118.097 256.468,120.431 275.5,120C 294.029,127.535 305.862,141.035 311,160.5C 319.108,182.48 322.441,205.146 321,228.5C 316.891,251.615 303.724,267.115 281.5,275C 262.244,279.357 242.744,281.19 223,280.5C 190.629,280.455 158.462,277.955 126.5,273C 107.731,266.671 95.8973,253.838 91,234.5C 86.7705,216.062 85.4372,197.395 87,178.5C 89.5572,165.052 95.5572,153.385 105,143.5C 109.833,138.667 114.667,133.833 119.5,129C 137.391,128.028 154.057,123.028 169.5,114C 174.661,113.268 179.661,112.434 184.5,111.5 Z"/></g>
<g><path style="opacity:1" fill="#050505" d="M 171.5,161.5 C 187.83,160.662 194.996,168.328 193,184.5C 185.427,199.533 173.261,207.366 156.5,208C 141.807,204.78 137.64,196.28 144,182.5C 150.74,172.253 159.906,165.253 171.5,161.5 Z"/></g>
<g><path style="opacity:1" fill="#040404" d="M 209.5,162.5 C 228.386,161.19 242.219,168.857 251,185.5C 253.705,196.93 249.538,204.43 238.5,208C 225.029,208.515 213.862,203.682 205,193.5C 198.514,184.528 198.014,175.361 203.5,166C 205.727,165.059 207.727,163.892 209.5,162.5 Z"/></g>
<g><path style="opacity:1" fill="#f7f7f7" d="M 172.5,174.5 C 179.827,173.329 182.994,176.329 182,183.5C 177.619,188.821 173.285,188.821 169,183.5C 168.333,181.833 168.333,180.167 169,178.5C 170.376,177.295 171.542,175.962 172.5,174.5 Z"/></g>
<g><path style="opacity:1" fill="#f5f5f5" d="M 210.5,174.5 C 217.827,173.329 220.994,176.329 220,183.5C 215.965,188.364 211.632,188.698 207,184.5C 205.756,180.191 206.923,176.858 210.5,174.5 Z"/></g>
<g><path style="opacity:1" fill="#0b0909" d="M 184.5,210.5 C 189.844,210.334 195.177,210.501 200.5,211C 202.587,211.792 204.421,212.959 206,214.5C 208.964,222.914 207.464,230.414 201.5,237C 195.734,239.446 190.401,238.779 185.5,235C 183.667,232.5 181.833,230 180,227.5C 175.762,220.157 177.262,214.49 184.5,210.5 Z"/></g>
<g><path style="opacity:1" fill="#e38a72" d="M 187.5,220.5 C 191.167,220.5 194.833,220.5 198.5,220.5C 198.579,223.271 198.079,225.937 197,228.5C 195.333,229.833 193.667,229.833 192,228.5C 189.843,226.183 188.343,223.516 187.5,220.5 Z"/></g>
<g><path style="opacity:1" fill="#fdfdfd" d="M 132.5,355.5 C 131.87,347.757 132.537,340.424 134.5,333.5C 162.502,339.667 190.836,343 219.5,343.5C 245.622,344.965 270.956,341.298 295.5,332.5C 297.352,348.413 296.185,364.08 292,379.5C 288.553,386.614 283.386,392.114 276.5,396C 255.8,405.607 233.967,410.107 211,409.5C 191.918,410.22 173.418,407.387 155.5,401C 143.229,393.645 136.062,382.812 134,368.5C 133.535,364.152 133.035,359.819 132.5,355.5 Z"/></g>
<g><path style="opacity:1" fill="#a2a2a2" d="M 134.5,333.5 C 132.537,340.424 131.87,347.757 132.5,355.5C 131.508,348.018 131.175,340.352 131.5,332.5C 132.791,332.263 133.791,332.596 134.5,333.5 Z"/></g>
<g><path style="opacity:0.989" fill="#98c8d2" d="M 251.5,434.5 C 274.33,434.954 296.996,437.121 319.5,441C 327.004,442.376 334.337,444.376 341.5,447C 344.759,448.211 347.592,450.044 350,452.5C 351.123,455.956 350.29,458.79 347.5,461C 332.541,467.657 316.874,471.657 300.5,473C 259.559,476.817 218.559,477.483 177.5,475C 156.703,473.812 136.37,470.145 116.5,464C 113.241,462.789 110.408,460.956 108,458.5C 106.877,455.044 107.71,452.21 110.5,450C 126.464,443.106 143.131,438.94 160.5,437.5C 161.099,444.872 164.766,450.038 171.5,453C 193.833,453.667 216.167,453.667 238.5,453C 241.539,451.969 244.039,450.135 246,447.5C 248.328,443.342 250.161,439.008 251.5,434.5 Z"/></g>
</svg>
