<svg width="164" height="164" viewBox="0 0 164 164" fill="none" xmlns="http://www.w3.org/2000/svg">
<ellipse cx="76.5" cy="152" rx="40.5" ry="7" fill="#99C9D3"/>
<path d="M73.5183 128.109C73.3569 129.796 74.2429 149.177 68.9373 149.177H58.6935C58.6935 149.177 55.96 149.016 55.96 145.4C55.96 141.784 62.2855 142.024 62.2855 142.024L61.0217 125.393" fill="black"/>
<path d="M68.9413 151.409H58.6975C58.6529 151.409 58.6117 151.409 58.5671 151.406C56.6234 151.292 53.7354 149.599 53.7354 145.4C53.7354 144.05 54.247 142.841 55.2189 141.907C56.5032 140.671 58.3713 140.149 59.896 139.933L58.804 125.564C58.7113 124.335 59.6316 123.264 60.861 123.171C62.0904 123.075 63.1618 123.999 63.2545 125.228L64.5182 141.859C64.5663 142.494 64.3432 143.119 63.9002 143.576C63.4606 144.033 62.8459 144.283 62.2071 144.259C60.9949 144.225 58.962 144.5 58.313 145.128C58.2271 145.214 58.1996 145.259 58.1996 145.403C58.1996 146.725 58.7044 146.921 58.8109 146.948H68.8932C69.0752 146.808 70.1879 145.746 70.8198 140.242C71.2559 136.44 71.2628 132.178 71.2662 129.885C71.2662 128.751 71.2696 128.24 71.3039 127.9C71.4207 126.674 72.5093 125.774 73.7387 125.891C74.9647 126.007 75.8644 127.096 75.7511 128.322C75.7374 128.504 75.7373 129.242 75.7339 129.895C75.7167 141.073 74.8823 151.416 68.9482 151.416L68.9413 151.409Z" fill="black"/>
<path d="M82.9348 128.109C82.7734 129.796 83.6593 149.177 78.3537 149.177H70.4005C70.4005 149.177 67.667 149.016 67.667 145.4C67.667 141.784 73.9925 142.024 73.9925 142.024L72.7288 125.393" fill="black"/>
<path d="M78.3549 151.409H70.4016C70.357 151.409 70.3157 151.409 70.2711 151.406C68.3274 151.292 65.4395 149.599 65.4395 145.4C65.4395 144.05 65.9511 142.841 66.9229 141.907C68.2072 140.671 70.0754 140.149 71.6001 139.933L70.5081 125.564C70.4154 124.335 71.3357 123.264 72.5651 123.171C73.7945 123.075 74.8659 123.999 74.9586 125.228L76.2223 141.859C76.2704 142.494 76.0472 143.119 75.6042 143.576C75.1612 144.033 74.5465 144.283 73.9112 144.259C72.6956 144.222 70.666 144.5 70.0135 145.128C69.9277 145.214 69.9003 145.259 69.9003 145.403C69.9003 146.725 70.4051 146.921 70.5116 146.948H78.3068C78.4888 146.808 79.6014 145.746 80.2333 140.242C80.6694 136.44 80.6763 132.178 80.6797 129.885C80.6797 128.751 80.6832 128.24 80.7175 127.9C80.8343 126.674 81.9228 125.774 83.1522 125.891C84.3782 126.007 85.2779 127.096 85.1646 128.322C85.1509 128.504 85.1509 129.242 85.1474 129.895C85.1303 141.073 84.2958 151.416 78.3617 151.416L78.3549 151.409Z" fill="black"/>
<path d="M98.6167 111.446C98.6167 111.446 105.948 106.498 110.461 110.862C114.973 115.227 116.69 118.743 113.435 122.136C110.179 125.529 106.931 128.922 99.719 120.361L98.6133 111.446H98.6167Z" fill="black"/>
<path d="M107.651 127.982C107.575 127.982 107.5 127.982 107.421 127.979C104.474 127.882 101.486 125.922 98.0147 121.801C97.7365 121.471 97.5614 121.066 97.5064 120.637L96.4007 111.722C96.2976 110.887 96.672 110.067 97.3657 109.596C97.4515 109.538 99.5222 108.154 102.225 107.374C106.174 106.234 109.556 106.887 112.008 109.26C114.402 111.574 120.755 117.725 115.044 123.683C113.107 125.702 110.92 127.985 107.647 127.985L107.651 127.982ZM101.854 119.421C104.749 122.735 106.552 123.487 107.565 123.518C108.873 123.569 110.051 122.439 111.823 120.592C112.936 119.431 114.46 117.841 108.907 112.467C106.614 110.249 102.888 111.684 101.013 112.642L101.851 119.421H101.854Z" fill="black"/>
<path d="M94.2722 94.1331C94.2722 94.1331 101.865 92.2684 106.865 84.4353C112.5 75.6133 108.094 57.1793 103.953 48.2336C99.8113 39.2879 91.2296 37.6739 91.2296 37.6739C91.2296 37.6739 97.2427 36.8978 96.2056 28.6251C94.8148 17.5125 86.7688 17.1451 82.6308 17.2481C79.7702 17.3202 73.3829 17.801 70.8966 25.2598C68.4104 32.7185 73.4344 35.4864 73.4344 35.4864L68.9599 35.1567C64.4853 34.827 56.0444 35.9843 56.0444 35.9843C56.0512 33.996 57.2394 33.5049 57.2394 28.4981C57.2394 20.3903 47.7924 17.1073 39.8391 18.9308C31.8858 20.7543 30.4023 27.9795 30.7903 31.472C31.721 39.8373 39.2588 41.0633 39.2588 41.0633C39.2588 41.0633 30.1036 48.6388 27.9058 55.5275C25.5878 62.7905 24.2313 91.324 44.348 93.7553C43.4208 99.6791 39.4064 115.829 44.0218 127.807C47.3837 136.533 55.5156 138.652 70.5876 138.862C82.3424 139.023 89.7977 136.368 94.4336 133.408C97.8162 131.248 100.096 127.701 100.663 123.728C102.397 111.52 99.7461 100.967 97.3011 94.0953" fill="white"/>
<path d="M71.6136 141.1C71.2633 141.1 70.913 141.1 70.5559 141.093C55.3945 140.884 45.8513 138.775 41.9365 128.611C37.7091 117.635 40.271 103.707 41.6446 96.2207C41.6858 95.9975 41.727 95.7812 41.7648 95.5717C36.5931 94.3973 32.4688 91.4611 29.4915 86.8217C23.0045 76.7188 23.894 60.7573 25.7793 54.8473C27.359 49.892 32.0258 44.789 35.0718 41.846C32.1872 40.2011 29.1652 37.0589 28.5712 31.7155C28.0286 26.8186 30.4462 18.7932 39.3404 16.7534C45.0993 15.4347 51.3252 16.5748 55.1954 19.6586C57.9941 21.8873 59.4707 24.9436 59.4707 28.4944C59.4707 30.8192 59.2304 32.3062 58.9556 33.3845C61.7475 33.0857 65.7722 32.7492 68.65 32.8968C67.8533 30.7849 67.6301 27.9999 68.7771 24.5521C70.8272 18.4051 75.4666 15.1977 82.5716 15.0157C85.1128 14.9505 88.4267 15.0913 91.5105 16.7671C95.3978 18.879 97.7193 22.7733 98.4164 28.3467C98.9658 32.756 97.8119 35.4998 96.3009 37.1997C99.4362 38.8103 103.44 41.8254 105.975 47.2958C109.711 55.3658 115.305 75.3589 108.742 85.637C105.978 89.9673 102.496 92.6322 99.7007 94.2153C103.173 104.349 104.237 114.38 102.867 124.04C102.208 128.673 99.5702 132.773 95.6313 135.287C89.5874 139.143 81.5071 141.097 71.6101 141.097L71.6136 141.1ZM44.1686 20.6785C42.8946 20.6785 41.6 20.8193 40.3397 21.1077C32.1907 22.9759 33.0011 31.142 33.0114 31.2245C33.7462 37.8281 39.5601 38.8515 39.6185 38.8583C40.4839 38.9991 41.1844 39.631 41.4145 40.4758C41.6446 41.3206 41.3596 42.2203 40.6831 42.78C40.5972 42.8521 32.0018 50.0259 30.0306 56.2037C28.5746 60.7642 27.4345 75.3589 33.2449 84.4076C35.9029 88.5456 39.7284 90.946 44.6116 91.5367C45.2126 91.6088 45.7586 91.9247 46.1226 92.4055C46.4866 92.8897 46.6412 93.501 46.5484 94.0985C46.4214 94.9158 46.2394 95.8945 46.0333 97.0277C44.7387 104.078 42.3245 117.203 46.0986 127.004C48.7874 133.985 54.9721 136.413 70.6142 136.626C80.1128 136.746 87.7193 135.039 93.2309 131.523C96.0709 129.71 97.9733 126.753 98.4507 123.412C99.7041 114.579 98.7529 105.383 95.6176 96.0559C95.154 96.2104 94.8621 96.2825 94.8037 96.2997C93.6087 96.595 92.3964 95.8602 92.1045 94.6651C91.8126 93.4701 92.5407 92.2647 93.7323 91.9659C93.8525 91.935 100.58 90.1322 104.986 83.2332C109.793 75.7023 106.301 58.611 101.929 49.1708C98.3477 41.4373 91.1155 39.9263 90.8099 39.8645C89.7385 39.6516 88.9692 38.6935 89.007 37.5981C89.0448 36.5163 89.8449 35.6166 90.9164 35.4621C91.5654 35.3522 94.7007 34.5314 93.9967 28.8996C92.9321 20.3729 87.6849 19.3461 82.6953 19.4766C79.1685 19.5658 74.8793 20.3832 73.0215 25.9601C71.1465 31.5885 74.4844 33.5081 74.5188 33.5253C75.4357 34.0335 75.8787 35.1118 75.5799 36.1145C75.2812 37.1207 74.323 37.7835 73.2756 37.7045L68.801 37.3748C64.6115 37.0658 56.435 38.1784 56.356 38.1887C55.7139 38.278 55.0683 38.0823 54.5807 37.6564C54.093 37.2306 53.8149 36.6159 53.8183 35.9669C53.8217 34.8508 54.0793 34.0678 54.3265 33.3089C54.6493 32.3268 55.0134 31.2142 55.0134 28.4909C55.0134 26.3172 54.1411 24.5178 52.4206 23.1441C50.4151 21.5473 47.3623 20.6716 44.172 20.6716L44.1686 20.6785Z" fill="black"/>
<path d="M73.2316 35.4859C73.2316 35.4859 68.2075 32.7146 70.6938 25.2593C73.18 17.804 79.5674 17.3232 82.428 17.2477C86.566 17.1447 94.612 17.5087 96.0028 28.6247C97.0364 36.8973 91.0268 37.6734 91.0268 37.6734H86.8201C83.2693 37.6734 79.7322 37.2132 76.3016 36.2998L73.2316 35.4825V35.4859Z" fill="black"/>
<path d="M91.0271 39.9058H86.8204C83.0773 39.9058 79.3445 39.4181 75.7284 38.4566L72.6584 37.6393C72.4832 37.5912 72.3115 37.526 72.1535 37.4367C69.8527 36.1661 66.1474 31.8426 68.5787 24.5487C70.6288 18.4017 75.2682 15.1943 82.3732 15.0123C84.9144 14.9471 88.2283 15.0879 91.3121 16.7637C95.1994 18.8756 97.5209 22.7698 98.218 28.3433C99.5126 38.7038 91.3945 39.8748 91.3121 39.8851C91.2159 39.8989 91.1233 39.9023 91.0271 39.9023V39.9058ZM74.1384 33.4154L76.8753 34.1434C80.1171 35.0054 83.4653 35.4415 86.8204 35.4415H90.8279C91.6693 35.2595 94.4577 34.2464 93.7915 28.8996C92.7269 20.3729 87.4797 19.3461 82.49 19.4766C78.9633 19.5659 74.6742 20.3832 72.8163 25.9601C71.192 30.833 73.4791 32.9278 74.1418 33.412L74.1384 33.4154Z" fill="black"/>
<path d="M39.2588 41.0595C39.2588 41.0595 31.721 39.8335 30.7904 31.4681C30.4023 27.9792 31.8859 20.7505 39.8391 18.927C47.7924 17.1035 57.2394 20.3865 57.2394 28.4943C57.2394 33.5011 56.0513 33.9922 56.0444 35.9805L53.8775 37.1103C49.7326 39.2737 45.1963 40.5787 40.5363 40.9564L39.2588 41.0595Z" fill="black"/>
<path d="M39.2618 43.292C39.1416 43.292 39.0214 43.2817 38.9047 43.2646C35.7179 42.746 29.461 39.6657 28.575 31.7158C28.0324 26.8189 30.45 18.7935 39.3442 16.7537C45.1031 15.435 51.329 16.5751 55.1992 19.6589C57.998 21.8876 59.4746 24.9439 59.4746 28.4947C59.4746 32.0455 58.9492 33.5325 58.568 34.7C58.3654 35.3216 58.283 35.5895 58.2796 35.9878C58.2761 36.8154 57.816 37.5743 57.0811 37.9589L54.9142 39.0887C50.4808 41.4033 45.7041 42.7769 40.7179 43.1787L39.4403 43.2817C39.3819 43.2852 39.3202 43.2886 39.2618 43.2886V43.292ZM44.169 20.6788C42.895 20.6788 41.6004 20.8196 40.3401 21.1081C32.1911 22.9762 33.0015 31.1424 33.0118 31.2248C33.3208 34.0132 34.5365 36.1423 36.6244 37.5537C37.8057 38.3539 38.9459 38.6973 39.406 38.8106L40.3573 38.735C44.7425 38.3813 48.9458 37.1726 52.8469 35.1362L53.9698 34.5489C54.066 34.1025 54.1965 33.7042 54.3235 33.3161C54.6463 32.334 55.0103 31.2213 55.0103 28.4981C55.0103 26.3244 54.1381 24.5249 52.4176 23.1513C50.4121 21.5545 47.3592 20.6788 44.169 20.6788Z" fill="black"/>
<path d="M65.1224 78.2617C63.7282 78.2617 62.5504 77.1113 61.0566 74.285C60.8025 73.8043 60.8196 73.2308 61.0977 72.7638C61.3759 72.3002 61.8807 72.0151 62.4199 72.0151H66.3965C66.8154 72.0151 67.2138 72.1834 67.5057 72.4856C67.7976 72.7878 67.9521 73.193 67.9418 73.6085C67.8491 76.5618 66.8223 78.2582 65.119 78.2582L65.1224 78.2617Z" fill="#EF9178"/>
<path d="M66.4006 73.5638C66.4006 73.5638 66.301 76.7163 65.1231 76.7163C64.5324 76.7163 63.674 75.9299 62.424 73.5638H66.4006ZM66.4006 70.4732H62.424C61.3388 70.4732 60.3361 71.0398 59.7763 71.9704C59.2166 72.8976 59.1857 74.0514 59.6905 75.0095C60.9474 77.3825 62.5716 79.8069 65.1197 79.8069C65.8752 79.8069 68.4061 79.5185 69.22 75.7994C69.4466 74.7623 69.4843 73.7699 69.4878 73.66C69.5152 72.8255 69.1994 72.0116 68.619 71.4107C68.0352 70.8097 67.235 70.4697 66.4006 70.4697V70.4732Z" fill="black"/>
<path d="M57.1658 56.1757C54.2537 56.9415 51.6026 58.9642 50.1775 61.3303C48.9103 63.4319 48.1343 66.0212 50.8849 67.199C55.9158 69.3522 61.4206 64.0638 62.6878 61.3749C63.5394 59.5686 62.9556 54.651 57.1658 56.1757Z" fill="black"/>
<path d="M53.3675 69.5453C52.3064 69.5453 51.2282 69.3461 50.1602 68.8894C48.3916 68.1304 47.6842 66.932 47.4026 66.0597C46.8909 64.4697 47.2927 62.5604 48.6011 60.3901C50.3044 57.5673 53.4053 55.2734 56.6951 54.408C60.6614 53.364 62.6773 54.9231 63.5289 55.9464C65.0811 57.8146 65.1085 60.5446 64.3427 62.1655C62.9004 65.2252 58.3022 69.5487 53.3641 69.5487L53.3675 69.5453ZM57.6327 57.9519C55.2666 58.5735 52.9554 60.2733 51.7467 62.2788C50.9259 63.6387 50.7714 64.5384 50.895 64.9299C50.9637 65.1463 51.2041 65.342 51.6059 65.5137C55.4829 67.1758 60.1257 62.5089 61.0289 60.5961C61.2349 60.1634 61.2693 58.9581 60.7096 58.2885C60.064 57.5124 58.6766 57.6772 57.6292 57.9519H57.6327Z" fill="black"/>
<path d="M80.9573 60.7206C79.1338 58.3236 76.2527 56.6478 73.5226 56.2357C71.0947 55.8683 68.4059 56.143 68.3715 59.1375C68.3063 64.6114 75.298 67.6745 78.2684 67.8153C80.2602 67.9115 84.5802 65.4905 80.9607 60.724L80.9573 60.7206Z" fill="black"/>
<path d="M78.3808 69.6483C78.3121 69.6483 78.2434 69.6483 78.1781 69.6448C74.0745 69.4491 66.4578 65.6579 66.5367 59.1126C66.5608 57.1895 67.3987 56.0769 68.0993 55.4828C69.3733 54.4011 71.2894 54.0439 73.7963 54.4217C77.0586 54.9127 80.3622 56.9011 82.4192 59.6105C84.8986 62.8763 84.2324 65.3351 83.6108 66.513C82.5222 68.5837 80.1528 69.6483 78.3808 69.6483ZM71.9694 57.9416C71.1762 57.9416 70.6851 58.0927 70.4722 58.2747C70.3004 58.4224 70.2077 58.7177 70.2043 59.1538C70.1528 63.3743 76.2379 65.8777 78.3533 65.9773C78.8306 66.0047 79.9605 65.572 80.3657 64.7994C80.8361 63.9065 80.1528 62.6874 79.4968 61.8255C78.0168 59.8784 75.5649 58.3949 73.2469 58.0446C72.7558 57.9691 72.33 57.9382 71.9694 57.9382V57.9416Z" fill="black"/>
<path d="M59.5472 59.204C58.9325 58.8468 58.153 59.0494 57.6894 59.5852C57.3014 60.0316 56.9958 60.6772 57.5383 61.3537C58.596 62.6689 60.2512 61.2129 60.2512 60.5089C60.2512 60.0522 60.0692 59.5027 59.5472 59.2005V59.204Z" fill="white"/>
<path d="M58.5618 62.7453C57.9162 62.7453 57.3151 62.45 56.8687 61.8971C56.1682 61.0283 56.2334 59.9534 57.0404 59.0263C57.7993 58.154 59.0356 57.9171 59.98 58.4631C60.6874 58.8752 61.1098 59.6409 61.1098 60.5132C61.1098 61.3236 60.3097 62.2646 59.331 62.608C59.0734 62.6973 58.8159 62.7419 58.5652 62.7419L58.5618 62.7453ZM58.8777 59.8848C58.6751 59.8848 58.469 60.0015 58.3351 60.1526C57.9882 60.551 58.105 60.6952 58.2046 60.8223C58.3866 61.0489 58.5274 61.0455 58.6442 61.0249C58.991 60.9596 59.3138 60.6231 59.3859 60.4686C59.379 60.3278 59.3309 60.0805 59.1112 59.9534C59.0356 59.9088 58.9532 59.8916 58.8708 59.8916L58.8777 59.8848Z" fill="white"/>
<path d="M72.1215 59.205C71.5068 58.8478 70.7272 59.0504 70.2636 59.5861C69.8756 60.0326 69.57 60.6782 70.1126 61.3547C71.1702 62.6699 72.8255 61.2139 72.8255 60.5099C72.8255 60.0532 72.6435 59.5037 72.1215 59.2015V59.205Z" fill="white"/>
<path d="M71.1369 62.7458C70.4913 62.7458 69.8903 62.4505 69.4439 61.8976C68.7434 61.0288 68.8086 59.9539 69.6156 59.0267C70.3745 58.1545 71.6108 57.9175 72.5552 58.4636C73.2626 58.8756 73.685 59.6414 73.685 60.5137C73.685 61.3241 72.8848 62.265 71.9061 62.6085C71.6485 62.6977 71.391 62.7424 71.1403 62.7424L71.1369 62.7458ZM71.4494 59.8853C71.2468 59.8853 71.0407 60.002 70.9068 60.1531C70.56 60.5515 70.6767 60.6957 70.7763 60.8227C70.9583 61.0494 71.0991 61.046 71.2158 61.0254C71.5627 60.9601 71.8855 60.6236 71.9577 60.469C71.9508 60.3282 71.9027 60.081 71.6829 59.9539C71.6074 59.9093 71.525 59.8921 71.4425 59.8921L71.4494 59.8853Z" fill="white"/>
<path d="M48.8149 91.9521C48.8149 91.9521 78.0421 95.8258 93.5572 91.9521L96.8539 96.0146L100.151 110.338C100.151 110.338 82.8292 120.098 43.1865 110.805L48.8149 91.9521Z" fill="black"/>
<path d="M48.3585 94.1317C48.3585 94.1317 38.7981 92.8576 31.305 94.1317C21.305 95.8315 13.4514 98.8981 17.1842 106.635C18.7948 109.97 24.8936 109.722 31.4217 109.698C41.0199 109.664 51.2774 107.16 51.2774 107.16" fill="black"/>
<path d="M28.4372 111.945C22.4722 111.945 17.1013 111.605 15.1714 107.604C13.7325 104.623 13.6192 101.924 14.8314 99.5752C16.7545 95.8527 21.7168 93.4935 30.9303 91.931C38.6672 90.6157 48.2482 91.8692 48.6534 91.9207C49.8759 92.0821 50.7345 93.205 50.5696 94.4275C50.4048 95.6501 49.2853 96.5051 48.0628 96.3472C47.97 96.3334 38.7393 95.1349 31.6789 96.3334C24.2991 97.5869 19.9654 99.3691 18.7978 101.625C18.5986 102.01 17.9942 103.181 19.1927 105.667C20.0924 107.532 25.4874 107.501 30.2504 107.473L31.4145 107.467C40.6246 107.432 50.6486 105.018 50.7482 104.994C51.9467 104.706 53.152 105.437 53.4439 106.636C53.7358 107.834 53.0009 109.039 51.8058 109.331C51.3766 109.438 41.1809 111.897 31.4317 111.931L30.2778 111.938C29.6597 111.941 29.0485 111.945 28.4406 111.945H28.4372Z" fill="black"/>
</svg>
