<?xml version="1.0" encoding="UTF-8"?>
<!DOCTYPE svg PUBLIC "-//W3C//DTD SVG 1.1//EN" "http://www.w3.org/Graphics/SVG/1.1/DTD/svg11.dtd">
<svg xmlns="http://www.w3.org/2000/svg" version="1.1" width="492px" height="492px" style="shape-rendering:geometricPrecision; text-rendering:geometricPrecision; image-rendering:optimizeQuality; fill-rule:evenodd; clip-rule:evenodd" xmlns:xlink="http://www.w3.org/1999/xlink">
<g><path style="opacity:0.97" fill="#020202" d="M 251.5,434.5 C 249.713,438.075 247.879,441.741 246,445.5C 244.039,448.135 241.539,449.969 238.5,451C 216.167,451.667 193.833,451.667 171.5,451C 165.442,448.443 161.776,443.943 160.5,437.5C 159.365,428.269 163.032,421.769 171.5,418C 140.474,412.972 122.974,394.806 119,363.5C 117.042,353.252 115.875,342.919 115.5,332.5C 99.5209,333.589 83.5209,333.755 67.5,333C 47.0956,331.059 38.5956,319.893 42,299.5C 44.2911,293.405 48.1244,288.571 53.5,285C 68.6596,277.542 84.6596,272.876 101.5,271C 79.574,250.185 71.074,224.685 76,194.5C 79.1885,178.298 87.3551,165.132 100.5,155C 92.1688,124.142 95.0021,94.3086 109,65.5C 123.238,49.4731 139.738,46.3064 158.5,56C 166.058,63.6169 170.558,72.7836 172,83.5C 172.5,101.164 172.667,118.83 172.5,136.5C 184.511,135.248 196.511,134.915 208.5,135.5C 205.702,119.624 204.869,103.624 206,87.5C 208.472,71.7218 215.305,58.2218 226.5,47C 234.041,41.3371 242.374,40.0038 251.5,43C 262.988,46.1624 270.821,53.3291 275,64.5C 278.483,74.8802 280.483,85.5469 281,96.5C 281.749,111.521 281.583,126.521 280.5,141.5C 299.861,145.023 313.027,156.023 320,174.5C 330.096,199.571 332.096,225.238 326,251.5C 324.527,255.779 322.527,259.779 320,263.5C 313.599,269.934 306.766,275.767 299.5,281C 303.199,292.963 306.033,305.13 308,317.5C 318.502,315.835 328.002,318.335 336.5,325C 359.347,347.257 356.68,365.924 328.5,381C 320.662,382.586 313.495,381.086 307,376.5C 302.021,392.814 291.521,403.981 275.5,410C 268.699,412.879 261.699,415.045 254.5,416.5C 253.686,422.531 252.686,428.531 251.5,434.5 Z"/></g>
<g><path style="opacity:1" fill="#fddcd0" d="M 237.5,55.5 C 251.738,54.2316 260.571,60.5649 264,74.5C 265.645,80.3917 266.645,86.3917 267,92.5C 267.496,112.18 267.496,131.846 267,151.5C 267.833,152.333 268.667,153.167 269.5,154C 282.222,154.112 292.722,158.946 301,168.5C 313.731,190.547 318.398,214.214 315,239.5C 312.404,251.872 305.571,261.038 294.5,267C 285.451,272.128 275.784,275.461 265.5,277C 260.167,281 260.167,285 265.5,289C 272.531,289.989 279.197,288.822 285.5,285.5C 296.764,314.722 299.264,344.722 293,375.5C 288.042,386.457 279.875,393.957 268.5,398C 244.225,406.826 219.225,409.826 193.5,407C 184.413,406.205 175.413,404.871 166.5,403C 147.925,397.756 137.091,385.59 134,366.5C 131.607,354.25 130.107,341.917 129.5,329.5C 139.056,328.755 148.389,326.922 157.5,324C 160.366,320.057 160.032,316.39 156.5,313C 140.549,314.99 124.549,316.99 108.5,319C 94.5,319.667 80.5,319.667 66.5,319C 59.1922,318.359 55.1922,314.359 54.5,307C 55.1251,303.416 56.7918,300.416 59.5,298C 70.7316,291.855 82.7316,287.855 95.5,286C 113.832,283.519 132.166,281.186 150.5,279C 153.314,275.064 152.981,271.397 149.5,268C 140.505,268.133 131.505,268.133 122.5,268C 99.3504,255.392 88.0171,235.725 88.5,209C 88.311,188.876 96.6444,173.376 113.5,162.5C 114.84,161.312 115.507,159.812 115.5,158C 106.562,130.056 107.729,102.556 119,75.5C 125.317,66.9266 133.817,63.0932 144.5,64C 152.044,67.9121 156.544,74.0788 158,82.5C 158.333,103.833 158.667,125.167 159,146.5C 159.785,148.286 160.951,149.786 162.5,151C 173.289,150.111 184.122,149.277 195,148.5C 203.493,149.333 211.993,149.5 220.5,149C 222.446,147.607 223.779,145.774 224.5,143.5C 219.355,124.429 217.855,105.096 220,85.5C 223.029,73.7632 228.862,63.7632 237.5,55.5 Z"/></g>
<g><path style="opacity:1" fill="#040303" d="M 243.5,68.5 C 251.667,69.4966 256.5,74.1632 258,82.5C 262.549,103.48 262.549,124.48 258,145.5C 257.426,147.492 256.259,148.992 254.5,150C 247.833,150.667 241.167,150.667 234.5,150C 232.036,146.951 230.536,143.451 230,139.5C 227.741,124.571 227.074,109.571 228,94.5C 229.91,83.6475 235.076,74.9809 243.5,68.5 Z"/></g>
<g><path style="opacity:1" fill="#060404" d="M 133.5,72.5 C 141.154,71.243 146.321,74.243 149,81.5C 149.667,83.5 150.333,85.5 151,87.5C 151.333,108.172 151,128.839 150,149.5C 149.535,150.931 148.701,152.097 147.5,153C 140.827,154.435 134.16,155.935 127.5,157.5C 125.303,157.152 123.47,156.152 122,154.5C 115.673,131.695 116.006,109.029 123,86.5C 125.317,80.8312 128.817,76.1645 133.5,72.5 Z"/></g>
<g><path style="opacity:1" fill="#e09480" d="M 244.5,87.5 C 246.011,89.4758 246.844,91.8091 247,94.5C 248.954,108.854 248.787,123.187 246.5,137.5C 245.178,137.67 244.011,137.337 243,136.5C 240.726,123.923 240.059,111.256 241,98.5C 241.474,94.5783 242.641,90.9116 244.5,87.5 Z"/></g>
<g><path style="opacity:1" fill="#e49783" d="M 136.5,88.5 C 137.222,88.9175 137.722,89.5842 138,90.5C 138.735,107.535 138.235,124.535 136.5,141.5C 135.264,142.246 133.93,142.579 132.5,142.5C 131.415,130.193 131.248,117.859 132,105.5C 132.726,99.5944 134.226,93.9277 136.5,88.5 Z"/></g>
<g><path style="opacity:1" fill="#100e0d" d="M 173.5,176.5 C 180.771,176.036 183.604,179.369 182,186.5C 177.585,191.726 173.251,191.726 169,186.5C 168.077,182.017 169.577,178.683 173.5,176.5 Z"/></g>
<g><path style="opacity:1" fill="#0d0b0b" d="M 210.5,176.5 C 217.164,176 220.331,179 220,185.5C 216.087,191.617 211.754,191.951 207,186.5C 206.182,182.469 207.349,179.136 210.5,176.5 Z"/></g>
<g><path style="opacity:1" fill="#070605" d="M 183.5,213.5 C 189.509,213.334 195.509,213.501 201.5,214C 206.294,215.58 208.294,218.913 207.5,224C 207.826,235.335 202.493,241.002 191.5,241C 182.783,236.32 178.283,229.153 178,219.5C 179.36,216.977 181.193,214.977 183.5,213.5 Z"/></g>
<g><path style="opacity:1" fill="#e28971" d="M 187.5,222.5 C 191.167,222.5 194.833,222.5 198.5,222.5C 198.909,226.62 197.576,229.954 194.5,232.5C 190.682,230.195 188.349,226.862 187.5,222.5 Z"/></g>
<g><path style="opacity:1" fill="#f9d9cd" d="M 310.5,331.5 C 315.742,331.023 320.742,331.856 325.5,334C 330.083,337.912 333.917,342.412 337,347.5C 338.25,350.077 338.584,352.743 338,355.5C 334.833,360 331,363.833 326.5,367C 323.5,367.667 320.5,367.667 317.5,367C 315.023,365.357 312.69,363.524 310.5,361.5C 309.194,351.44 309.194,341.44 310.5,331.5 Z"/></g>
<g><path style="opacity:1" fill="#f5d5c9" d="M 228.5,419.5 C 232.167,419.5 235.833,419.5 239.5,419.5C 239.345,426.123 237.678,432.29 234.5,438C 226.5,438.667 218.5,438.667 210.5,438C 209.424,436.274 209.257,434.441 210,432.5C 215.099,431.105 220.265,429.938 225.5,429C 228.029,426.358 229.029,423.192 228.5,419.5 Z"/></g>
<g><path style="opacity:1" fill="#fadace" d="M 197.5,420.5 C 199.527,420.338 201.527,420.505 203.5,421C 199.857,422.805 197.524,425.638 196.5,429.5C 195.527,431.948 195.194,434.615 195.5,437.5C 188.833,437.5 182.167,437.5 175.5,437.5C 174.193,435.777 174.193,433.943 175.5,432C 179.716,430.796 184.049,430.13 188.5,430C 190.751,429.252 192.084,427.752 192.5,425.5C 193.451,424.081 193.784,422.415 193.5,420.5C 194.833,420.5 196.167,420.5 197.5,420.5 Z"/></g>
<g><path style="opacity:1" fill="#6a5c57" d="M 197.5,420.5 C 196.167,420.5 194.833,420.5 193.5,420.5C 193.784,422.415 193.451,424.081 192.5,425.5C 192.5,423.5 192.5,421.5 192.5,419.5C 194.415,419.216 196.081,419.549 197.5,420.5 Z"/></g>
<g><path style="opacity:0.99" fill="#98c8d2" d="M 251.5,434.5 C 274.33,434.954 296.996,437.121 319.5,441C 327.004,442.376 334.337,444.376 341.5,447C 344.759,448.211 347.592,450.044 350,452.5C 351.123,455.956 350.29,458.79 347.5,461C 332.541,467.657 316.874,471.657 300.5,473C 259.559,476.817 218.559,477.483 177.5,475C 156.703,473.812 136.37,470.145 116.5,464C 113.241,462.789 110.408,460.956 108,458.5C 106.877,455.044 107.71,452.21 110.5,450C 126.464,443.106 143.131,438.94 160.5,437.5C 161.776,443.943 165.442,448.443 171.5,451C 193.833,451.667 216.167,451.667 238.5,451C 241.539,449.969 244.039,448.135 246,445.5C 247.879,441.741 249.713,438.075 251.5,434.5 Z"/></g>
<g><path style="opacity:1" fill="#ac968e" d="M 196.5,429.5 C 196.5,432.5 196.5,435.5 196.5,438.5C 189.313,438.825 182.313,438.491 175.5,437.5C 182.167,437.5 188.833,437.5 195.5,437.5C 195.194,434.615 195.527,431.948 196.5,429.5 Z"/></g>
</svg>
