<svg width="164" height="164" viewBox="0 0 164 164" fill="none" xmlns="http://www.w3.org/2000/svg">
<ellipse cx="76.5" cy="152" rx="40.5" ry="7" fill="#99C9D3"/>
<path d="M98.6177 110.768C98.6177 110.768 105.949 105.82 110.462 110.185C114.974 114.549 116.691 118.066 113.436 121.459C110.18 124.851 106.932 128.244 99.72 119.683L98.6143 110.768H98.6177Z" fill="#FFDED2"/>
<path d="M107.649 127.303C107.573 127.303 107.498 127.303 107.419 127.3C104.472 127.204 101.485 125.243 98.0127 121.119C97.7346 120.789 97.5595 120.384 97.5045 119.954L96.3987 111.04C96.2957 110.205 96.67 109.384 97.3637 108.914C97.4496 108.856 99.5203 107.472 102.223 106.692C106.172 105.552 109.555 106.205 112.007 108.577C114.4 110.892 120.753 117.042 115.042 123C113.105 125.02 110.918 127.303 107.645 127.303H107.649ZM101.855 118.742C104.75 122.056 106.553 122.808 107.566 122.839C108.878 122.87 110.053 121.761 111.824 119.913C112.937 118.753 114.462 117.163 108.909 111.788C106.615 109.57 102.889 111.005 101.014 111.963L101.852 118.739L101.855 118.742Z" fill="black"/>
<path d="M73.5222 127.43C73.3608 129.116 74.2468 148.498 68.9412 148.498H58.6974C58.6974 148.498 55.9639 148.337 55.9639 144.721C55.9639 141.105 62.2894 141.345 62.2894 141.345L61.0257 124.714" fill="#FFDED2"/>
<path d="M68.9404 150.73H58.6966C58.652 150.73 58.6108 150.73 58.5661 150.727C56.6224 150.613 53.7344 148.92 53.7344 144.72C53.7344 143.371 54.2461 142.162 55.2179 141.228C56.5022 139.992 58.3704 139.47 59.8951 139.253L58.803 124.885C58.7103 123.656 59.6306 122.585 60.86 122.492C62.0929 122.399 63.1608 123.319 63.2536 124.549L64.5173 141.18C64.5654 141.815 64.3421 142.44 63.8992 142.897C63.4596 143.354 62.8449 143.604 62.2062 143.58C60.994 143.543 58.961 143.821 58.312 144.449C58.2261 144.535 58.1986 144.58 58.1986 144.724C58.1986 145.359 58.3154 146.132 58.8614 146.269H68.8923C69.0743 146.128 70.1869 145.067 70.8188 139.562C71.2549 135.761 71.2618 131.499 71.2652 129.205C71.2652 128.072 71.2686 127.56 71.303 127.22C71.4197 125.995 72.5083 125.095 73.7377 125.212C74.9637 125.328 75.8634 126.417 75.7501 127.643C75.7363 127.825 75.7364 128.563 75.7329 129.216C75.7158 140.394 74.8813 150.737 68.9472 150.737L68.9404 150.73Z" fill="black"/>
<path d="M82.9367 127.432C82.7753 129.118 83.6613 148.5 78.3557 148.5H70.4024C70.4024 148.5 67.6689 148.339 67.6689 144.723C67.6689 141.107 73.9944 141.347 73.9944 141.347L72.7307 124.716" fill="#FFDED2"/>
<path d="M78.355 150.732H70.4017C70.357 150.732 70.3158 150.732 70.2712 150.729C68.3275 150.615 65.4395 148.922 65.4395 144.722C65.4395 143.373 65.9512 142.164 66.923 141.23C68.2073 139.994 70.0754 139.472 71.6002 139.255L70.5081 124.887C70.4154 123.658 71.3357 122.586 72.5651 122.494C73.7979 122.401 74.866 123.321 74.9587 124.551L76.2224 141.182C76.2705 141.817 76.0473 142.442 75.6043 142.899C75.1613 143.356 74.5466 143.606 73.9113 143.582C72.6991 143.544 70.6661 143.823 70.0136 144.451C69.9278 144.537 69.9003 144.582 69.9003 144.726C69.9003 146.048 70.4051 146.244 70.5116 146.271H78.3034C78.4854 146.13 79.5981 145.069 80.2299 139.564C80.6661 135.763 80.6729 131.501 80.6764 129.207C80.6764 128.074 80.6798 127.562 80.7141 127.222C80.8309 125.996 81.9195 125.097 83.1489 125.214C84.3748 125.33 85.2745 126.419 85.1612 127.645C85.1475 127.827 85.1475 128.565 85.144 129.218C85.1269 140.395 84.2924 150.739 78.3584 150.739L78.355 150.732Z" fill="black"/>
<path d="M96.9374 92.372C99.3825 99.2436 102.394 110.84 100.66 123.048C100.104 126.96 97.9058 130.476 94.5885 132.626C89.9628 135.627 82.4732 138.344 70.5845 138.182C55.5125 137.976 47.3772 135.854 44.0187 127.128C39.4034 115.147 41.086 98.3679 42.0166 92.4441L40.9383 91.9668C27.027 85.4971 26.9549 72.2519 27.9061 65.1469C28.8677 57.98 36.3573 52.8873 36.3573 52.8873C36.3573 52.8873 33.3766 43.7733 34.867 35.4904C36.3573 27.2075 37.1849 21.2425 45.1382 19.4191C53.0914 17.5956 55.4094 26.7095 55.2446 30.3531C55.0798 33.9966 55.2618 46.4244 55.2515 48.4127C55.2515 48.4127 63.6924 47.252 68.1669 47.5851L72.6415 47.9148C72.6415 47.9148 69.3277 34.3297 71.8139 26.8744C74.3002 19.4191 78.2768 15.7721 81.0927 16.27C83.9086 16.768 89.5439 17.2625 91.0343 28.3648C92.5247 39.467 91.0343 49.5735 91.0343 49.5735C91.0343 49.5735 99.8151 48.9107 103.957 57.8564C108.098 66.8021 110.251 82.3789 103.129 88.3439C96.0033 94.3088 89.7087 94.4737 89.7087 94.4737" fill="#FFDED2"/>
<path d="M71.6145 140.422C71.2643 140.422 70.914 140.422 70.5568 140.415C55.3955 140.206 45.8523 138.097 41.9375 127.932C37.2706 115.82 38.785 99.7078 39.568 93.7909C28.8091 88.5814 23.8846 78.3274 25.691 64.8556C26.5186 58.6846 31.3949 54.004 33.785 52.0431C32.9712 48.9765 31.4499 41.8543 32.6655 35.0995L32.7995 34.3509C34.2418 26.2981 35.4883 19.3441 44.6366 17.2493C47.7754 16.5316 50.6187 17.1394 52.868 19.0179C56.491 22.0398 57.607 27.5171 57.4731 30.4636C57.3529 33.0803 57.4216 40.5219 57.4594 44.969C57.4594 45.2952 57.4662 45.6077 57.4662 45.8996C60.392 45.5734 65.1997 45.1338 68.3281 45.3639L69.8426 45.4772C68.9806 40.879 67.7512 31.9951 69.6914 26.1744C72.3597 18.1662 77.0987 13.3105 81.4737 14.0797L81.8137 14.1381C86.6488 14.9588 91.7862 17.2562 93.2388 28.0769C94.3342 36.2259 93.8775 43.7671 93.5169 47.4896C96.9029 47.9635 102.693 49.835 105.976 56.9298C110.275 66.2155 112.796 83.1659 104.554 90.065C102.864 91.4763 101.216 92.589 99.6639 93.4681C102.167 101.078 104.489 111.933 102.864 123.372C102.212 127.96 99.6364 132.019 95.8005 134.508C89.7394 138.44 81.6042 140.429 71.6077 140.429L71.6145 140.422ZM41.8585 89.9379L42.9162 90.4049C43.8434 90.8136 44.3757 91.7923 44.2211 92.7916C41.1167 112.585 45.581 124.979 46.103 126.325C48.7918 133.307 54.9766 135.734 70.6187 135.951C80.1997 136.074 87.861 134.333 93.3796 130.755C96.1337 128.969 97.9846 126.043 98.4551 122.737C99.9248 112.386 97.8816 102.472 95.5979 95.3671C92.2326 96.6206 89.9318 96.7064 89.7669 96.7098C88.5444 96.7304 87.5107 95.7689 87.4764 94.5361C87.4421 93.3033 88.4173 92.2799 89.6501 92.2456C89.6914 92.2456 95.3335 91.964 101.697 86.6343C107.785 81.5348 105.701 66.9401 101.934 58.7979C98.4825 51.3426 91.2779 51.7959 91.2023 51.8028C90.5258 51.8577 89.8631 51.5933 89.3995 51.0988C88.9359 50.6043 88.7264 49.9243 88.826 49.2513C88.8397 49.1551 90.2511 39.3028 88.8226 28.6676C87.6104 19.6463 83.8329 19.0041 81.0753 18.5371L80.7045 18.4719C79.5163 18.2589 76.1956 20.7864 73.9325 27.5824C71.6798 34.3372 74.7807 47.2595 74.8116 47.39C74.9799 48.0837 74.8082 48.8151 74.3446 49.3611C73.8844 49.9072 73.1873 50.1956 72.4765 50.1441L68.0019 49.8144C63.8192 49.5054 55.6359 50.618 55.5535 50.6283C54.9113 50.7176 54.2657 50.5219 53.7781 50.096C53.2904 49.6702 53.0123 49.0555 53.0157 48.4065C53.0157 47.8811 53.0054 46.6311 52.9917 45.0033C52.9505 40.2197 52.8852 32.991 53.0088 30.2541C53.1016 28.1937 52.2121 24.2823 50.0041 22.4382C48.8365 21.4663 47.4079 21.1882 45.6325 21.5968C39.6126 22.9773 38.6957 26.7445 37.1916 35.1339L37.0577 35.8859C35.6806 43.5267 38.4451 52.1084 38.4725 52.1942C38.7816 53.1386 38.4279 54.1757 37.6071 54.7354C37.5453 54.7801 30.9279 59.3817 30.114 65.4462C29.0186 73.6124 30.169 84.4881 41.8551 89.9345L41.8585 89.9379Z" fill="black"/>
<path d="M48.8157 91.4243C48.8157 91.4243 38.7952 92.1798 31.3021 93.4538C21.3021 95.1537 13.4484 98.2203 17.1812 105.957C18.7918 109.292 24.8907 109.044 31.4188 109.02C41.017 108.986 51.2745 106.483 51.2745 106.483" fill="#FFDED2"/>
<path d="M28.4337 111.266C22.4688 111.266 17.1014 110.926 15.1714 106.925C13.7326 103.945 13.6192 101.245 14.8314 98.8965C16.7511 95.174 21.7167 92.8148 30.9303 91.2523C38.4371 89.9783 48.2345 89.2297 48.65 89.1988C49.8828 89.1026 50.9508 90.0264 51.0435 91.2558C51.1362 92.4852 50.2159 93.5566 48.9865 93.6493C48.8869 93.6562 38.9797 94.4117 31.6789 95.6513C24.2991 96.9048 19.9653 98.6871 18.7978 100.943C18.5986 101.328 17.9942 102.499 19.1927 104.985C20.0924 106.853 25.4873 106.819 30.2469 106.795L31.411 106.788C40.6212 106.754 50.6452 104.34 50.7448 104.315C51.9432 104.024 53.1486 104.758 53.4405 105.957C53.7324 107.155 52.9975 108.361 51.8024 108.653C51.3732 108.759 41.1775 111.218 31.4282 111.252L30.2709 111.259C29.6528 111.263 29.0416 111.266 28.4337 111.266Z" fill="black"/>
<path d="M59.5463 60.0238C58.9316 59.6667 58.152 59.8693 57.6884 60.405C57.3004 60.8514 56.9948 61.497 57.5374 62.1735C58.5951 63.4888 60.2502 62.0327 60.2502 61.3287C60.2502 60.872 60.0682 60.3226 59.5463 60.0204V60.0238Z" fill="black"/>
<path d="M58.5607 63.5647C57.9151 63.5647 57.3142 63.2693 56.8677 62.7165C56.1672 61.8476 56.2324 60.7728 57.0394 59.8456C57.7984 58.9733 59.0346 58.7364 59.979 59.2824C60.6864 59.6945 61.1088 60.4603 61.1088 61.3325C61.1088 62.143 60.3087 63.0839 59.3265 63.4307C59.069 63.52 58.8114 63.5647 58.5607 63.5647ZM58.8766 60.7041C58.674 60.7041 58.4646 60.8209 58.3341 60.972C57.9872 61.3703 58.104 61.5145 58.2036 61.6416C58.3856 61.8682 58.5264 61.8648 58.6432 61.8442C58.99 61.7824 59.3128 61.4424 59.3849 61.2879C59.3781 61.1471 59.33 60.8998 59.1102 60.7728C59.0346 60.7281 58.9522 60.711 58.8698 60.711L58.8766 60.7041Z" fill="black"/>
<path d="M72.1185 60.0248C71.5038 59.6676 70.7243 59.8703 70.2607 60.406C69.8727 60.8524 69.567 61.498 70.1096 62.1745C71.1673 63.4897 72.8225 62.0337 72.8225 61.3297C72.8225 60.873 72.6405 60.3235 72.1185 60.0214V60.0248Z" fill="black"/>
<path d="M71.1359 63.5647C70.4903 63.5647 69.8894 63.2693 69.4429 62.7165C68.7424 61.8476 68.8076 60.7728 69.6146 59.8456C70.3736 58.9733 71.6098 58.7364 72.5542 59.2824C73.2616 59.6945 73.684 60.4603 73.684 61.3325C73.684 62.143 72.8839 63.0839 71.9017 63.4307C71.6442 63.52 71.3866 63.5647 71.1359 63.5647ZM71.4484 60.7041C71.2458 60.7041 71.0398 60.8209 70.9058 60.972C70.559 61.3703 70.6758 61.5145 70.7753 61.6416C70.9573 61.8682 71.0982 61.8648 71.2149 61.8442C71.5618 61.7824 71.8846 61.4424 71.9567 61.2879C71.9498 61.1471 71.9017 60.8998 71.6819 60.7728C71.6064 60.7281 71.524 60.711 71.4416 60.711L71.4484 60.7041Z" fill="black"/>
<path d="M65.1244 79.0786C63.7302 79.0786 62.5523 77.9282 61.0585 75.1019C60.8044 74.6212 60.8216 74.0477 61.0997 73.5807C61.3779 73.1171 61.8827 72.832 62.4218 72.832H66.3984C66.8174 72.832 67.2157 73.0003 67.5076 73.3025C67.7995 73.6047 67.9541 74.0099 67.9438 74.4254C67.851 77.3787 66.8243 79.0751 65.121 79.0751L65.1244 79.0786Z" fill="#EF9178"/>
<path d="M66.4026 74.3812C66.4026 74.3812 66.303 77.5336 65.1251 77.5336C64.5345 77.5336 63.676 76.7473 62.426 74.3812H66.4026ZM66.4026 71.2905H62.426C61.3408 71.2905 60.338 71.8572 59.7783 72.7878C59.2185 73.715 59.1876 74.8688 59.6924 75.8269C60.9493 78.1999 62.5736 80.6243 65.1217 80.6243C65.8772 80.6243 68.4081 80.3358 69.2219 76.6168C69.4486 75.5797 69.4864 74.5872 69.4898 74.4773C69.5173 73.6429 69.2013 72.829 68.621 72.228C68.0372 71.6271 67.2371 71.2871 66.4026 71.2871V71.2905Z" fill="black"/>
<path d="M79.5098 48.2038H84.0359C84.0359 48.2038 85.9761 39.1551 84.6815 31.6551C83.9672 27.5068 82.8442 24.4162 81.5015 25.5803C80.1588 26.7444 78.0984 31.2602 78.0881 34.89C78.0675 43.8117 79.5098 48.2073 79.5098 48.2073V48.2038Z" fill="#F4A28C"/>
<path d="M84.0321 50.4357H79.5061C78.5411 50.4357 77.686 49.8175 77.3838 48.9007C77.322 48.7083 75.8316 44.0586 75.8488 34.8829C75.8591 30.7242 78.105 25.5594 80.0315 23.8905C80.914 23.1281 82.0094 22.9015 83.0397 23.2689C85.337 24.0896 86.2402 27.6027 86.8721 31.2737C88.2217 39.1067 86.2917 48.2825 86.2093 48.6706C85.9895 49.7008 85.0795 50.4357 84.0253 50.4357H84.0321ZM81.2574 45.9714H82.1674C82.631 43.0696 83.3556 37.1081 82.48 32.036C82.2567 30.7414 82.0301 29.7764 81.8275 29.0621C81.0789 30.6349 80.3199 32.9186 80.3165 34.8932C80.3027 40.3602 80.8625 44.0552 81.2574 45.9714Z" fill="black"/>
<path d="M42.7096 50.4008L48.0976 49.2366L48.5578 33.2305C48.6025 31.6989 48.3999 30.1639 47.9019 28.7457C47.2529 26.9016 46.1265 25.2738 44.3958 27.712C41.3635 31.9771 40.8587 42.6433 42.7131 50.4008H42.7096Z" fill="#F4A28C"/>
<path d="M42.7086 52.6364C41.699 52.6364 40.7856 51.9462 40.5383 50.9228C38.677 43.1344 38.9277 31.5548 42.5747 26.4243C44.0101 24.4017 45.4936 24.1441 46.4861 24.2849C48.0279 24.5012 49.2127 25.7547 50.006 28.0108C50.5794 29.6386 50.8404 31.4209 50.7889 33.2993L50.3287 49.3054C50.2978 50.3322 49.5733 51.2079 48.5671 51.4242L43.1791 52.5883C43.0211 52.6227 42.8631 52.6399 42.7052 52.6399L42.7086 52.6364ZM45.837 29.6111C43.8899 33.1482 43.3096 41.0568 44.4463 47.7463L45.916 47.4304L46.3247 33.1722C46.3624 31.8879 46.1976 30.6928 45.837 29.6145V29.6111Z" fill="black"/>
</svg>
