<?xml version="1.0" encoding="UTF-8"?>
<!DOCTYPE svg PUBLIC "-//W3C//DTD SVG 1.1//EN" "http://www.w3.org/Graphics/SVG/1.1/DTD/svg11.dtd">
<svg xmlns="http://www.w3.org/2000/svg" version="1.1" width="492px" height="492px" style="shape-rendering:geometricPrecision; text-rendering:geometricPrecision; image-rendering:optimizeQuality; fill-rule:evenodd; clip-rule:evenodd" xmlns:xlink="http://www.w3.org/1999/xlink">
<g><path style="opacity:0.978" fill="#020100" d="M 251.5,434.5 C 249.58,441.126 245.58,446.293 239.5,450C 216.5,450.667 193.5,450.667 170.5,450C 165.494,447.162 162.161,442.995 160.5,437.5C 158.932,427.93 162.599,421.43 171.5,418C 140.687,412.185 123.187,393.685 119,362.5C 117.206,352.228 115.873,341.895 115,331.5C 96.52,334.32 78.02,334.153 59.5,331C 50.3333,328.5 44.5,322.667 42,313.5C 39.3757,301.703 42.8757,292.203 52.5,285C 58.2643,281.784 64.2643,279.117 70.5,277C 84.6164,273.177 98.9498,270.51 113.5,269C 95.3525,253.516 81.8525,234.683 73,212.5C 67.4888,180.044 72.8221,149.378 89,120.5C 92.8872,115.37 97.2205,110.703 102,106.5C 101.602,95.5198 101.935,84.5198 103,73.5C 103.35,66.1094 105.85,59.6094 110.5,54C 116.514,50.9098 122.18,51.5765 127.5,56C 136.466,64.6265 144.299,74.1265 151,84.5C 175.494,76.2015 200.661,72.7015 226.5,74C 230.555,74.2315 234.555,74.7315 238.5,75.5C 242.571,69.0319 246.404,62.3652 250,55.5C 253.453,50.3788 257.286,45.5455 261.5,41C 269.858,36.3543 276.358,38.1876 281,46.5C 285.817,60.0686 288.484,74.0686 289,88.5C 304.485,104.125 316.485,122.125 325,142.5C 336.594,179.518 331.261,213.851 309,245.5C 305.667,248.833 302.333,252.167 299,255.5C 301.076,271.108 303.076,286.775 305,302.5C 327.254,285.649 351.754,281.149 378.5,289C 399.666,299.478 410,316.645 409.5,340.5C 409.264,362.801 400.597,380.968 383.5,395C 368.021,405.498 351.021,412.498 332.5,416C 306.379,421.39 280.045,423.557 253.5,422.5C 252.705,426.476 252.038,430.476 251.5,434.5 Z"/></g>
<g><path style="opacity:1" fill="#b05800" d="M 272.5,334.5 C 278.31,335.49 284.31,335.823 290.5,335.5C 290.194,338.385 290.527,341.052 291.5,343.5C 292.843,348.078 295.843,349.578 300.5,348C 307.538,341.293 314.872,334.96 322.5,329C 331.177,322.718 340.844,318.884 351.5,317.5C 373.518,320.876 381.352,333.21 375,354.5C 364.903,372.117 350.736,376.284 332.5,367C 327.536,362.727 326.37,357.561 329,351.5C 334.288,339.013 342.621,336.347 354,343.5C 356.045,346.719 355.545,349.552 352.5,352C 348.5,352.333 344.5,352.667 340.5,353C 335.613,356.225 335.28,359.892 339.5,364C 359.095,369.059 368.595,361.559 368,341.5C 361.215,329.001 350.715,324.167 336.5,327C 322.79,332.737 315.456,343.071 314.5,358C 316.172,372.345 324.172,381.011 338.5,384C 369.637,386.701 387.303,372.535 391.5,341.5C 388.749,321.914 377.749,309.748 358.5,305C 337.646,304.506 319.813,311.672 305,326.5C 304.333,324.5 304.333,322.5 305,320.5C 320.672,305.053 339.505,297.887 361.5,299C 379.979,301.146 391.146,311.313 395,329.5C 398.626,357.418 388.126,377.918 363.5,391C 340.562,401.068 316.562,406.734 291.5,408C 254.431,409.26 217.431,408.26 180.5,405C 155.22,403.702 139.72,390.869 134,366.5C 130.791,354.317 129.624,341.984 130.5,329.5C 139.244,327.985 147.911,326.151 156.5,324C 160.032,320.61 160.366,316.943 157.5,313C 155.966,312.077 154.299,311.577 152.5,311.5C 122.163,319.187 91.4964,321.02 60.5,317C 51.3712,306.517 53.3712,298.517 66.5,293C 74.6161,289.888 82.9494,287.554 91.5,286C 110.429,283.092 129.429,280.759 148.5,279C 152.883,276.082 153.55,272.415 150.5,268C 147.961,266.953 145.295,266.453 142.5,266.5C 139.136,266.893 135.803,267.06 132.5,267C 111.341,251.517 95.8406,231.683 86,207.5C 83.6068,198.312 82.9401,188.979 84,179.5C 86.371,159.718 92.7044,141.384 103,124.5C 106.7,120.465 110.7,116.798 115,113.5C 115.333,102.167 115.667,90.8333 116,79.5C 116.266,74.9306 117.266,70.5973 119,66.5C 128.786,76.9436 137.786,87.9436 146,99.5C 146.4,108.241 148.4,116.575 152,124.5C 157.475,131.037 163.975,132.204 171.5,128C 173.377,125.749 174.877,123.249 176,120.5C 177.359,110.891 177.859,101.224 177.5,91.5C 178.5,91.5 179.5,91.5 180.5,91.5C 180.065,103.373 182.232,114.707 187,125.5C 191.14,130.211 196.306,131.711 202.5,130C 206.058,128.108 208.558,125.275 210,121.5C 212.57,109.914 213.07,98.2475 211.5,86.5C 212.833,86.5 214.167,86.5 215.5,86.5C 215.316,94.8749 215.816,103.208 217,111.5C 217.808,119.292 221.308,125.458 227.5,130C 237.945,132.227 244.112,128.061 246,117.5C 247.598,108.51 247.765,99.5099 246.5,90.5C 251.89,81.3944 257.057,72.0611 262,62.5C 264.092,59.319 266.425,56.319 269,53.5C 273.008,66.894 275.342,80.5606 276,94.5C 284.045,103.542 291.711,112.876 299,122.5C 321.769,156.776 323.435,192.109 304,228.5C 298.71,236.79 292.044,243.79 284,249.5C 284.068,255.577 284.901,261.577 286.5,267.5C 277.698,267.967 269.031,269.134 260.5,271C 249.274,275.771 246.608,283.438 252.5,294C 257.957,297.497 263.957,299.497 270.5,300C 277.158,300.5 283.825,300.666 290.5,300.5C 290.5,301.5 290.5,302.5 290.5,303.5C 281.792,303.299 273.125,303.799 264.5,305C 251.958,307.267 247.458,314.433 251,326.5C 252.543,328.378 254.376,329.878 256.5,331C 261.717,332.743 267.05,333.91 272.5,334.5 Z"/></g>
<g><path style="opacity:1" fill="#e9a52c" d="M 193.5,88.5 C 195.167,88.5 196.833,88.5 198.5,88.5C 198.97,97.6684 198.47,106.668 197,115.5C 194.049,106.769 192.882,97.7691 193.5,88.5 Z"/></g>
<g><path style="opacity:1" fill="#eba72d" d="M 228.5,88.5 C 230.167,88.5 231.833,88.5 233.5,88.5C 233.97,97.6684 233.47,106.668 232,115.5C 229.049,106.812 227.883,97.812 228.5,88.5 Z"/></g>
<g><path style="opacity:1" fill="#e7a42c" d="M 159.5,95.5 C 161.167,95.5 162.833,95.5 164.5,95.5C 164.788,102.563 164.288,109.563 163,116.5C 160.025,109.821 158.859,102.821 159.5,95.5 Z"/></g>
<g><path style="opacity:1" fill="#040100" d="M 171.5,176.5 C 178.827,175.329 181.994,178.329 181,185.5C 174.852,191.571 170.352,190.571 167.5,182.5C 168.432,180.235 169.765,178.235 171.5,176.5 Z"/></g>
<g><path style="opacity:1" fill="#0b0400" d="M 210.5,175.5 C 219.561,176.377 221.561,180.544 216.5,188C 207.316,190.816 204.149,187.649 207,178.5C 208.145,177.364 209.312,176.364 210.5,175.5 Z"/></g>
<g><path style="opacity:1" fill="#060200" d="M 182.5,212.5 C 188.176,212.334 193.843,212.501 199.5,213C 201.848,213.346 203.681,214.513 205,216.5C 208.267,225.291 206.433,232.791 199.5,239C 196.298,240.483 192.964,240.817 189.5,240C 180.324,234.487 176.49,226.653 178,216.5C 179.667,215.267 181.167,213.933 182.5,212.5 Z"/></g>
<g><path style="opacity:1" fill="#6f4338" d="M 197.5,222.5 C 193.629,222.185 189.962,222.518 186.5,223.5C 185.957,223.44 185.624,223.107 185.5,222.5C 189.649,221.191 193.649,221.191 197.5,222.5 Z"/></g>
<g><path style="opacity:1" fill="#e58b73" d="M 197.5,222.5 C 195.521,233.894 191.854,234.228 186.5,223.5C 189.962,222.518 193.629,222.185 197.5,222.5 Z"/></g>
<g><path style="opacity:1" fill="#e6a32c" d="M 266.5,282.5 C 273.833,282.5 281.167,282.5 288.5,282.5C 288.5,284.167 288.5,285.833 288.5,287.5C 280.021,287.95 271.688,287.117 263.5,285C 264.571,284.148 265.571,283.315 266.5,282.5 Z"/></g>
<g><path style="opacity:1" fill="#eaa62d" d="M 272.5,316.5 C 278.833,316.5 285.167,316.5 291.5,316.5C 291.5,318.167 291.5,319.833 291.5,321.5C 283.131,321.774 274.798,321.44 266.5,320.5C 265.833,320.167 265.167,319.833 264.5,319.5C 264.833,319.167 265.167,318.833 265.5,318.5C 267.982,317.933 270.316,317.266 272.5,316.5 Z"/></g>
<g><path style="opacity:1" fill="#643100" d="M 272.5,334.5 C 278.833,334.5 285.167,334.5 291.5,334.5C 291.5,337.5 291.5,340.5 291.5,343.5C 290.527,341.052 290.194,338.385 290.5,335.5C 284.31,335.823 278.31,335.49 272.5,334.5 Z"/></g>
<g><path style="opacity:1" fill="#a95400" d="M 192.5,419.5 C 196.182,419.335 199.848,419.501 203.5,420C 197.471,424.229 194.804,430.062 195.5,437.5C 188.825,437.666 182.158,437.5 175.5,437C 173.867,433.583 174.867,431.25 178.5,430C 182.619,429.857 186.619,429.19 190.5,428C 192.314,425.519 192.98,422.685 192.5,419.5 Z"/></g>
<g><path style="opacity:1" fill="#aa5500" d="M 227.5,421.5 C 231.5,421.5 235.5,421.5 239.5,421.5C 238.986,426.71 237.653,431.71 235.5,436.5C 227.187,437.665 218.853,437.832 210.5,437C 208.968,434.67 209.302,432.67 211.5,431C 216.201,430.072 220.868,429.072 225.5,428C 227.229,426.211 227.896,424.044 227.5,421.5 Z"/></g>
<g><path style="opacity:0.99" fill="#98c7d1" d="M 251.5,434.5 C 274.33,434.954 296.996,437.121 319.5,441C 327.004,442.376 334.337,444.376 341.5,447C 344.759,448.211 347.592,450.044 350,452.5C 351.123,455.956 350.29,458.79 347.5,461C 332.541,467.657 316.874,471.657 300.5,473C 259.559,476.817 218.559,477.483 177.5,475C 156.703,473.812 136.37,470.145 116.5,464C 113.241,462.789 110.408,460.956 108,458.5C 106.877,455.044 107.71,452.21 110.5,450C 126.464,443.106 143.131,438.94 160.5,437.5C 162.161,442.995 165.494,447.162 170.5,450C 193.5,450.667 216.5,450.667 239.5,450C 245.58,446.293 249.58,441.126 251.5,434.5 Z"/></g>
</svg>
