<svg width="164" height="164" viewBox="0 0 164 164" fill="none" xmlns="http://www.w3.org/2000/svg">
<ellipse cx="76.5" cy="152" rx="40.5" ry="7" fill="#99C9D3"/>
<path d="M73.5202 127.213C73.3588 128.9 74.2448 148.281 68.9392 148.281H58.6954C58.6954 148.281 55.9619 148.12 55.9619 144.504C55.9619 140.888 62.2874 141.128 62.2874 141.128L61.0237 124.497" fill="#B25900"/>
<path d="M68.9384 150.513H58.6946C58.65 150.513 58.6087 150.513 58.5641 150.51C56.6204 150.396 53.7324 148.703 53.7324 144.504C53.7324 143.154 54.244 141.945 55.2159 141.011C56.5002 139.775 58.3684 139.253 59.8931 139.037L58.8011 124.669C58.7084 123.439 59.6287 122.368 60.8581 122.275C62.0909 122.182 63.1589 123.103 63.2516 124.332L64.5153 140.963C64.5634 141.598 64.3402 142.223 63.8972 142.68C63.4576 143.137 62.8429 143.384 62.2042 143.363C60.992 143.329 58.959 143.604 58.31 144.232C58.2241 144.318 58.1967 144.363 58.1967 144.507C58.1967 145.829 58.7015 146.025 58.808 146.052H68.8903C69.0723 145.912 70.185 144.85 70.8168 139.346C71.2529 135.544 71.2598 131.283 71.2633 128.989C71.2633 127.855 71.2667 127.344 71.301 127.004C71.4178 125.778 72.5064 124.878 73.7358 124.995C74.9617 125.112 75.8614 126.2 75.7481 127.426C75.7343 127.608 75.7343 128.346 75.7309 128.999C75.7137 140.177 74.8793 150.52 68.9453 150.52L68.9384 150.513Z" fill="black"/>
<path d="M82.9368 127.214C82.7754 128.9 83.6614 148.282 78.3558 148.282H70.4025C70.4025 148.282 67.6689 148.12 67.6689 144.504C67.6689 140.888 73.9945 141.129 73.9945 141.129L72.7307 124.498" fill="#B25900"/>
<path d="M78.3559 150.514H70.4027C70.3581 150.514 70.3168 150.514 70.2722 150.51C68.3285 150.397 65.4404 148.704 65.4404 144.504C65.4404 143.155 65.9521 141.946 66.924 141.012C68.2083 139.775 70.0765 139.253 71.6012 139.037L70.5091 124.669C70.4164 123.44 71.3367 122.368 72.5661 122.275C73.7989 122.183 74.8669 123.103 74.9596 124.332L76.2234 140.964C76.2715 141.599 76.0482 142.224 75.6053 142.681C75.1657 143.137 74.551 143.385 73.9123 143.364C72.7001 143.33 70.6671 143.604 70.018 144.233C69.9322 144.319 69.9047 144.363 69.9047 144.508C69.9047 145.83 70.4095 146.025 70.516 146.053H78.3112C78.4933 145.912 79.6059 144.851 80.2378 139.346C80.6739 135.548 80.6808 131.283 80.6842 128.992C80.6842 127.859 80.6876 127.344 80.722 127.008C80.8387 125.782 81.9273 124.885 83.1567 124.999C84.3827 125.115 85.2824 126.204 85.1657 127.43C85.1519 127.612 85.1519 128.35 85.1485 129.003C85.1313 140.181 84.2968 150.521 78.3628 150.521L78.3559 150.514Z" fill="black"/>
<path d="M99.4398 106.192C99.4398 106.192 109.44 95.0688 123.111 98.0186C136.782 100.968 138.124 121.367 126.311 129.976C109.148 142.483 70.5869 137.963 70.5869 137.963C55.5148 137.757 47.3796 135.635 44.0211 126.909C38.767 113.269 41.6756 93.4067 42.3418 90.4294C42.3418 90.4294 23.5679 76.4116 25.8927 60.7042C28.2176 44.9969 32.5823 39.468 36.6551 36.8513C36.6551 36.8513 35.7828 21.4358 38.6915 19.9798C41.6001 18.5238 49.4538 31.034 49.4538 31.034C49.4538 31.034 64.8692 26.3809 72.4344 26.9612C79.9962 27.5416 81.4523 27.8335 81.4523 27.8335C81.4523 27.8335 87.8533 13.8706 90.4701 15.3267C93.0868 16.7827 94.2509 28.7057 93.9591 30.1618C93.6672 31.6178 111.535 44.6638 107.63 65.6492C104.914 80.2405 96.8677 84.2652 96.8677 84.2652L98.1074 91.2501C98.9831 96.1814 99.426 101.181 99.4398 106.188L99.457 112.874V114.2" fill="#B25900"/>
<path d="M86.5684 141.015C78.0485 141.015 71.5547 140.321 70.4387 140.198C55.3426 139.982 45.8371 137.856 41.9326 127.715C37.0734 115.098 38.8385 97.4542 39.8894 91.345C35.6998 87.911 21.5035 75.0711 23.6807 60.3836C25.5522 47.7498 28.9622 39.8618 34.3674 35.7375C34.3124 34.2505 34.2507 31.6269 34.3468 28.89C34.5872 22.2176 35.5556 19.0583 37.6882 17.9937C40.7204 16.4793 44.0514 19.9717 46.9085 23.5878C48.3268 25.3804 49.6008 27.221 50.4147 28.4401C54.6523 27.2485 66.1152 24.2471 72.5987 24.7451C76.462 25.0438 78.7662 25.267 80.1158 25.4181C82.3651 20.7169 85.9709 14.1613 88.986 13.1723C89.8685 12.8838 90.7785 12.9594 91.5443 13.3852C92.7737 14.0686 94.3362 15.7066 95.4969 22.3721C95.9193 24.8 96.2593 27.9387 96.2215 29.6935C96.5134 30.0472 97.0011 30.5864 97.4475 31.0809C102.135 36.2594 113.107 48.3919 109.817 66.0704C107.609 77.9316 101.998 83.3609 99.3156 85.3423L100.298 90.8746C100.912 94.3395 101.321 97.8526 101.52 101.376C105.912 98.0552 113.835 93.7489 123.574 95.8471C129.951 97.2241 134.635 102.169 136.098 109.082C137.911 117.646 134.504 126.774 127.619 131.791C117.149 139.422 99.5182 141.025 86.565 141.025L86.5684 141.015ZM39.6456 22.3756C38.8935 24.4738 38.5398 30.6791 38.8832 36.7299C38.9278 37.5335 38.5398 38.2993 37.8633 38.7319C34.8001 40.7031 30.4526 45.1571 28.1002 61.0327C25.9986 75.2222 43.4986 88.512 43.6771 88.6424C44.3811 89.1679 44.7108 90.0607 44.5185 90.9158C43.7939 94.1507 41.1634 113.282 46.1016 126.105C48.7904 133.086 54.9751 135.514 70.6172 135.727C70.6928 135.727 70.7717 135.734 70.8473 135.74C71.225 135.785 108.742 140.009 124.995 128.165C131.331 123.546 132.949 115.706 131.736 109.989C130.631 104.772 127.317 101.204 122.64 100.195C112.176 97.9384 103.879 104.985 101.675 107.1L101.692 114.192C101.692 115.425 100.7 116.427 99.4667 116.431H99.4598C98.2304 116.431 97.2311 115.435 97.2277 114.206L97.2071 106.194C97.1968 101.328 96.7606 96.4309 95.909 91.6404L94.6693 84.6555C94.4976 83.6837 94.9853 82.7118 95.8678 82.2688C95.8678 82.2688 97.6432 81.321 99.6933 78.7799C101.603 76.4138 104.151 72.1453 105.435 65.2394C108.32 49.7346 98.385 38.7526 94.1439 34.0616C92.341 32.0699 91.5066 31.1461 91.7607 29.7656C91.9358 28.107 90.964 20.607 89.7621 17.9662C88.2648 19.6077 85.6 24.1407 83.4812 28.7629C83.0485 29.7038 82.0286 30.2224 81.0156 30.0232C80.9709 30.0163 79.3913 29.7347 72.2656 29.1887C65.2086 28.6496 50.2533 33.1276 50.1022 33.1722C49.1407 33.4641 48.1036 33.0726 47.5679 32.221C44.7623 27.7533 41.3351 23.5294 39.6524 22.3721L39.6456 22.3756ZM91.771 29.7279C91.771 29.7279 91.771 29.7416 91.7676 29.7485C91.7676 29.7416 91.7676 29.7347 91.771 29.7279Z" fill="black"/>
<path d="M59.1771 59.8065C58.5624 59.4494 57.7829 59.652 57.3193 60.1877C56.9313 60.6341 56.6256 61.2797 57.1682 61.9562C58.2259 63.2715 59.8811 61.8154 59.8811 61.1115C59.8811 60.6547 59.6991 60.1053 59.1771 59.8031V59.8065Z" fill="black"/>
<path d="M58.1926 63.3474C57.547 63.3474 56.946 63.0521 56.4996 62.4992C55.799 61.6304 55.8643 60.5555 56.6713 59.6283C57.4302 58.7561 58.6665 58.5191 59.6108 59.0651C60.3183 59.4772 60.7407 60.243 60.7407 61.1152C60.7407 61.9257 59.9405 62.8666 58.9618 63.21C58.7043 63.2993 58.4467 63.3439 58.1961 63.3439L58.1926 63.3474ZM58.5085 60.4868C58.3059 60.4868 58.0998 60.6036 57.9659 60.7547C57.6191 61.153 57.7359 61.2973 57.8355 61.4243C58.0175 61.651 58.1583 61.6475 58.275 61.6269C58.6219 61.5617 58.9446 61.2251 59.0168 61.0706C59.0099 60.9298 58.9618 60.6826 58.742 60.5555C58.6665 60.5109 58.5841 60.4937 58.5016 60.4937L58.5085 60.4868Z" fill="black"/>
<path d="M71.7524 59.8055C71.1377 59.4484 70.3581 59.651 69.8945 60.1867C69.5064 60.6332 69.2008 61.2788 69.7434 61.9553C70.8011 63.2705 72.4564 61.8145 72.4564 61.1105C72.4564 60.6538 72.2743 60.1043 71.7524 59.8021V59.8055Z" fill="black"/>
<path d="M70.7697 63.3464C70.1241 63.3464 69.5231 63.0511 69.0767 62.4982C68.3762 61.6294 68.4414 60.5545 69.2484 59.6273C70.0073 58.7551 71.2436 58.5181 72.188 59.0641C72.8954 59.4762 73.3178 60.242 73.3178 61.1143C73.3178 61.9247 72.5176 62.8656 71.5389 63.209C71.2814 63.2983 71.0238 63.343 70.7731 63.343L70.7697 63.3464ZM71.0822 60.4858C70.8796 60.4858 70.6736 60.6026 70.5396 60.7537C70.1928 61.152 70.3095 61.2963 70.4091 61.4233C70.5911 61.65 70.7319 61.6465 70.8487 61.6259C71.1955 61.5607 71.5184 61.2242 71.5905 61.0696C71.5836 60.9288 71.5355 60.6816 71.3157 60.5545C71.2402 60.5099 71.1578 60.4927 71.0754 60.4927L71.0822 60.4858Z" fill="black"/>
<path d="M64.7533 78.8618C63.3591 78.8618 62.1812 77.7114 60.6874 74.8851C60.4333 74.4044 60.4504 73.8309 60.7286 73.3639C61.0068 72.9003 61.5116 72.6152 62.0507 72.6152H66.0273C66.4463 72.6152 66.8447 72.7835 67.1366 73.0857C67.4285 73.3879 67.5829 73.7931 67.5726 74.2086C67.4799 77.1619 66.4531 78.8583 64.7499 78.8583L64.7533 78.8618Z" fill="#EF9178"/>
<path d="M66.0314 74.1644C66.0314 74.1644 65.9318 77.3169 64.754 77.3169C64.1633 77.3169 63.3048 76.5305 62.0548 74.1644H66.0314ZM66.0314 71.0737H62.0548C60.9697 71.0737 59.967 71.6404 59.4072 72.571C58.8475 73.4982 58.8165 74.652 59.3214 75.6101C60.5782 77.9831 62.2025 80.4075 64.7505 80.4075C65.506 80.4075 68.037 80.119 68.8508 76.4C69.0775 75.3629 69.1152 74.3704 69.1186 74.2605C69.1461 73.4261 68.8302 72.6122 68.2499 72.0112C67.6661 71.4103 66.8659 71.0703 66.0314 71.0703V71.0737Z" fill="black"/>
<path d="M54.5527 41.5992C57.664 41.7537 57.4511 34.477 56.8673 29.0684C54.4669 29.6384 52.3927 30.1982 51.0535 30.5725C51.0294 35.3973 51.5892 41.4481 54.5527 41.5958V41.5992Z" fill="#FFB531"/>
<path d="M54.6481 43.8352C54.5794 43.8352 54.5107 43.8352 54.4454 43.8318C48.7586 43.5468 48.8102 33.7769 48.8239 30.5661C48.8308 29.5702 49.4936 28.6979 50.4517 28.4301C51.7909 28.0558 53.9029 27.4857 56.3548 26.9019C56.9798 26.7543 57.6357 26.8813 58.1576 27.2522C58.6796 27.6231 59.0196 28.2 59.0883 28.8353C60.1391 38.5605 58.6968 41.3387 57.519 42.5852C56.7532 43.3991 55.7366 43.8387 54.6446 43.8387L54.6481 43.8352ZM53.3054 32.2728C53.4256 36.6959 54.1158 38.4404 54.497 39.0722C54.7786 38.3064 55.1906 36.3627 54.8815 31.8607C54.3184 32.0049 53.7896 32.1423 53.3054 32.2728Z" fill="black"/>
<path d="M66.0396 41.5984C69.5595 41.7735 68.8281 32.4432 68.1138 27.062C66.3658 27.2234 64.484 27.5084 62.6124 27.8518C62.3858 32.7007 62.475 41.4198 66.0396 41.5984Z" fill="#FFB531"/>
<path d="M66.1351 43.8344C66.0664 43.8344 65.9978 43.8344 65.9291 43.8309C61.7018 43.6215 59.8885 38.3605 60.3831 27.7493C60.4311 26.7122 61.1901 25.8468 62.21 25.6579C64.3116 25.2733 66.2313 24.9986 67.9071 24.8441C69.0987 24.7307 70.1701 25.5858 70.3246 26.774C70.7813 30.2115 71.9901 39.3461 69.0403 42.5432C68.2676 43.3811 67.2408 43.8344 66.1317 43.8344H66.1351ZM64.7821 29.7445C64.6619 35.6407 65.4586 38.2609 65.9806 39.1022C66.3583 38.0858 66.767 35.3179 66.1626 29.5384C65.7162 29.6002 65.256 29.6689 64.7821 29.7445Z" fill="black"/>
<path d="M77.6779 41.5989C81.0776 41.7671 80.511 33.0687 79.8241 27.6223C78.8386 27.5124 77.3001 27.3579 74.9513 27.1621C74.728 27.1861 74.5082 27.2136 74.2815 27.2411C74.024 31.9251 73.9588 41.41 77.6779 41.5954V41.5989Z" fill="#FFB531"/>
<path d="M77.7712 43.8343C77.7025 43.8343 77.6338 43.8343 77.5651 43.8308C76.3838 43.7725 75.3158 43.247 74.4744 42.313C72.4346 40.0465 71.6173 34.9366 72.05 27.1242C72.1084 26.0493 72.9291 25.1702 73.9971 25.0328C74.2307 25.0019 74.4642 24.9745 74.6943 24.9504C74.8385 24.9333 74.9861 24.9333 75.1303 24.9436C77.1461 25.1118 78.8048 25.2664 80.0685 25.4072C81.0953 25.5205 81.9057 26.324 82.0362 27.3474C83.3995 38.1853 81.9092 41.2175 80.6695 42.5534C79.8968 43.3844 78.8735 43.8343 77.7677 43.8343H77.7712ZM76.4215 29.5314C76.2739 35.5479 77.0775 38.2265 77.6098 39.0918C77.9326 38.2265 78.4511 35.7986 77.8123 29.6619C77.3796 29.6207 76.916 29.5761 76.4215 29.5349V29.5314Z" fill="black"/>
<path d="M98.2232 91.9663C93.7108 92.0625 85.5241 92.7767 85.3902 95.4553C85.2563 98.1716 94.0199 98.3571 99.0234 97.969C98.8276 95.9601 98.5597 93.9581 98.2232 91.9663Z" fill="#FFB531"/>
<path d="M94.8301 100.363C91.0389 100.363 86.2209 99.9507 84.2635 98.0483C83.5046 97.3065 83.1131 96.3484 83.1612 95.3422C83.3363 91.8326 88.1474 90.8677 89.727 90.5517C92.9619 89.9061 96.7119 89.7653 98.1748 89.7344C99.2806 89.7276 100.239 90.5036 100.424 91.5957C100.768 93.6286 101.042 95.6994 101.245 97.7529C101.303 98.3505 101.118 98.9445 100.733 99.4047C100.349 99.8649 99.7923 100.15 99.1947 100.195C98.2882 100.263 96.681 100.363 94.8301 100.363ZM88.7999 95.3766C90.4826 95.7474 93.3431 95.9638 96.5402 95.8676C96.4716 95.3354 96.3995 94.7996 96.3239 94.2708C92.8006 94.4562 90.2559 94.913 88.7999 95.3766Z" fill="black"/>
<path d="M99.4383 106.19C99.4383 105.273 99.4143 104.356 99.3834 103.439C94.6066 103.439 85.3896 103.017 85.3896 106.938C85.3896 109.734 94.3353 109.847 99.4452 109.421L99.4383 106.19Z" fill="#FFB531"/>
<path d="M94.7952 111.849C91.0074 111.849 86.3612 111.437 84.3729 109.61C83.3667 108.687 83.1572 107.646 83.1572 106.939C83.1572 105.726 83.6208 104.627 84.4965 103.759C86.9518 101.32 92.1269 101.159 98.1365 101.2C98.5761 101.2 98.9951 101.207 99.3831 101.207C100.585 101.207 101.571 102.162 101.612 103.364C101.646 104.415 101.667 105.338 101.667 106.183L101.674 109.415C101.674 110.579 100.788 111.547 99.6269 111.643C98.6413 111.726 96.8419 111.846 94.7918 111.846L94.7952 111.849ZM88.0507 106.66C89.5652 107.186 93.0679 107.516 97.2059 107.33V106.197C97.2059 106.022 97.2059 105.843 97.2025 105.661C95.2725 105.654 93.0507 105.671 91.138 105.902C89.4209 106.108 88.5178 106.427 88.0542 106.66H88.0507Z" fill="black"/>
<path d="M48.8158 91.2075C48.8158 91.2075 38.7952 91.963 31.3021 93.237C21.3021 94.9369 13.4484 98.0035 17.1812 105.74C18.7918 109.075 24.8908 108.828 31.4189 108.804C41.0171 108.769 51.2745 106.266 51.2745 106.266" fill="#B25900"/>
<path d="M28.4302 111.049C22.4687 111.049 17.1013 110.709 15.1714 106.709C13.7325 103.728 13.6192 101.029 14.8314 98.6797C16.7511 94.9572 21.7167 92.598 30.9302 91.0355C38.4371 89.7615 48.2344 89.0129 48.65 88.982C49.8794 88.8858 50.9508 89.8096 51.0435 91.039C51.1362 92.2684 50.2159 93.3398 48.9865 93.4325C48.8869 93.4394 38.9797 94.1949 31.6789 95.4346C24.2991 96.688 19.9654 98.4703 18.7978 100.726C18.5986 101.111 17.9942 102.282 19.1927 104.768C20.0924 106.636 25.4907 106.602 30.2503 106.578L31.411 106.571C40.6212 106.537 50.6452 104.123 50.7448 104.099C51.9433 103.807 53.1486 104.542 53.4404 105.74C53.7323 106.939 52.9974 108.144 51.8024 108.436C51.3731 108.542 41.1775 111.001 31.4282 111.035L30.2744 111.042C29.6562 111.042 29.0381 111.049 28.4302 111.049Z" fill="black"/>
<path d="M99.457 114.201C99.457 114.201 112.379 99.5759 122.592 105.153C132.805 110.73 127.888 123.734 119.495 125.932C114.011 127.368 104.495 124.493 107.984 116.234C111.792 107.224 122.396 111.863 120.659 117.011C119.46 120.565 116.356 120.015 114.677 119.727" fill="#B25900"/>
<path d="M116.532 128.526C113.053 128.526 109.21 127.379 106.913 124.728C105.673 123.296 103.898 120.178 105.927 115.373C108.551 109.165 114.076 107.983 118.101 109.508C121.926 110.961 123.891 114.419 122.771 117.729C120.965 123.083 115.955 122.217 114.31 121.932C113.094 121.723 112.273 120.566 112.483 119.35C112.692 118.134 113.839 117.321 115.055 117.53C117.39 117.935 118.073 117.691 118.544 116.301C118.905 115.236 117.768 114.154 116.518 113.68C115.793 113.406 112.081 112.279 110.041 117.108C108.788 120.068 109.918 121.373 110.288 121.802C112.078 123.866 116.198 124.491 118.929 123.777C122.5 122.842 125.553 119.185 126.034 115.27C126.277 113.279 126.016 109.566 121.521 107.115C118.08 105.236 113.698 106.009 108.489 109.405C104.269 112.159 101.157 115.645 101.126 115.679C100.309 116.599 98.8977 116.689 97.9774 115.871C97.0536 115.054 96.9678 113.646 97.7817 112.722C98.3586 112.07 112.016 96.8364 123.657 103.193C128.63 105.909 131.109 110.507 130.46 115.81C129.76 121.531 125.385 126.695 120.055 128.09C118.983 128.371 117.778 128.519 116.528 128.519L116.532 128.526Z" fill="black"/>
<path d="M98.2227 91.9653C93.7103 92.0614 85.3896 91.2063 85.3896 95.4543C85.3896 98.174 94.0194 98.356 99.0228 97.968L98.2227 91.9653Z" fill="#FFB531"/>
<path d="M94.8635 100.362C91.1238 100.362 86.3642 99.9603 84.3552 98.1025C83.3628 97.1822 83.1533 96.1554 83.1533 95.4549C83.1533 94.1259 83.641 92.9377 84.5648 92.0242C86.9686 89.6444 91.7316 89.6925 95.9348 89.7337C96.7453 89.7406 97.5111 89.7509 98.1704 89.7337C99.3174 89.7097 100.279 90.5442 100.43 91.6705L101.23 97.6733C101.313 98.2811 101.137 98.8958 100.753 99.3731C100.368 99.8504 99.8016 100.146 99.1903 100.194C98.294 100.263 96.7007 100.359 94.8635 100.359V100.362ZM87.8408 95.0805C89.1491 95.6197 92.4871 95.9906 96.4878 95.8704L96.2645 94.2014C96.1409 94.2014 96.0173 94.2014 95.8902 94.198C93.5001 94.174 89.1217 94.1293 87.8373 95.084L87.8408 95.0805Z" fill="black"/>
</svg>
