<svg width="375" height="667" viewBox="0 0 375 667" fill="none" xmlns="http://www.w3.org/2000/svg">
<g clip-path="url(#clip0_716_9676)">
<path d="M376 0H0V667H376V0Z" fill="#F3F7F9"/>
<path d="M360.73 517.1C358.26 515.84 355.21 517.16 354.2 519.74C352.68 523.6 354.02 527.25 357.64 526.6C363.17 525.61 365.21 519.38 360.74 517.1H360.73Z" fill="#CCE4E9"/>
<path d="M360.73 517.1C358.26 515.84 355.21 517.16 354.2 519.74C352.68 523.6 354.02 527.25 357.64 526.6C363.17 525.61 365.21 519.38 360.74 517.1H360.73Z" fill="#CCE4E9"/>
<path d="M104.76 526.08C102.29 524.82 99.2395 526.14 98.2295 528.72C96.7095 532.58 98.0495 536.23 101.67 535.58C107.2 534.59 109.24 528.36 104.77 526.08H104.76Z" fill="#CCE4E9"/>
<path d="M104.76 600.8C102.29 599.54 99.2395 600.86 98.2295 603.44C96.7095 607.3 98.0495 610.95 101.67 610.3C107.2 609.31 109.24 603.08 104.77 600.8H104.76Z" fill="#CCE4E9"/>
<path d="M21.53 482.02C19.06 480.76 16.01 482.08 15 484.66C13.48 488.52 14.82 492.17 18.44 491.52C23.97 490.53 26.01 484.3 21.54 482.02H21.53Z" fill="#CCE4E9"/>
<path d="M321.68 460.36C319.21 459.1 316.16 460.42 315.15 463C313.63 466.86 314.97 470.51 318.59 469.86C324.12 468.87 326.16 462.64 321.69 460.36H321.68Z" fill="#CCE4E9"/>
<path d="M104.76 366.01C102.29 364.75 99.2395 366.07 98.2295 368.65C96.7095 372.51 98.0495 376.16 101.67 375.51C107.2 374.52 109.24 368.29 104.77 366.01H104.76Z" fill="#CCE4E9"/>
<path d="M334.761 346.28C332.291 345.02 329.241 346.34 328.231 348.92C326.711 352.78 328.051 356.43 331.671 355.78C337.201 354.79 339.24 348.56 334.77 346.28H334.761Z" fill="#CCE4E9"/>
<path d="M157.01 312.06C154.54 310.8 151.49 312.12 150.48 314.7C148.96 318.56 150.3 322.21 153.92 321.56C159.45 320.57 161.49 314.34 157.02 312.06H157.01Z" fill="#CCE4E9"/>
<path d="M360.73 229.57C358.26 228.31 355.21 229.63 354.2 232.21C352.68 236.07 354.02 239.72 357.64 239.07C363.17 238.08 365.21 231.85 360.74 229.57H360.73Z" fill="#CCE4E9"/>
<path d="M83.99 267.69C81.52 266.43 78.47 267.75 77.46 270.33C75.94 274.19 77.28 277.84 80.9 277.19C86.43 276.2 88.47 269.97 84 267.69H83.99Z" fill="#CCE4E9"/>
<path d="M271.27 248.65C268.8 247.39 265.75 248.71 264.74 251.29C263.22 255.15 264.56 258.8 268.18 258.15C273.71 257.16 275.75 250.93 271.28 248.65H271.27Z" fill="#CCE4E9"/>
<path d="M21.53 614.09C19.06 612.83 16.01 614.15 15 616.73C13.48 620.59 14.82 624.24 18.44 623.59C23.97 622.6 26.01 616.37 21.54 614.09H21.53Z" fill="#CCE4E9"/>
<path d="M297.61 633.47C295.14 632.21 292.09 633.53 291.08 636.11C289.56 639.97 290.9 643.62 294.52 642.97C300.05 641.98 302.09 635.75 297.62 633.47H297.61Z" fill="#CCE4E9"/>
<path d="M79.2 129.73C76.73 128.47 73.68 129.79 72.67 132.37C71.15 136.23 72.49 139.88 76.11 139.23C81.64 138.24 83.68 132.01 79.21 129.73H79.2Z" fill="#CCE4E9"/>
<path d="M348.16 21.22C345.69 19.96 342.64 21.28 341.63 23.86C340.11 27.72 341.45 31.37 345.07 30.72C350.6 29.73 352.64 23.5 348.17 21.22H348.16Z" fill="#CCE4E9"/>
<path d="M258.76 0.949959C256.29 -0.310041 253.24 1.00996 252.23 3.58996C250.71 7.44996 252.05 11.1 255.67 10.45C261.2 9.45996 263.24 3.22996 258.77 0.949959H258.76Z" fill="#CCE4E9"/>
<path d="M217.03 531.11C214.56 529.85 211.51 531.17 210.5 533.75C208.98 537.61 210.32 541.26 213.94 540.61C219.47 539.62 221.51 533.39 217.04 531.11H217.03Z" fill="#CCE4E9"/>
<path d="M38.1472 75.4828C35.6772 74.2228 32.6272 75.5428 31.6172 78.1228C30.0972 81.9828 31.4372 85.6328 35.0572 84.9828C40.5872 83.9928 42.6272 77.7628 38.1572 75.4828H38.1472Z" fill="#CCE4E9"/>
<path d="M348.16 566.17C345.69 564.91 342.64 566.23 341.63 568.81C340.11 572.67 341.45 576.32 345.07 575.67C350.6 574.68 352.64 568.45 348.17 566.17H348.16Z" fill="#CCE4E9"/>
<path d="M356.03 417.77C355.78 418.25 355.54 418.82 355.44 419.42C355.12 421.27 356.76 422.83 358.63 422.62C359.75 422.49 361.02 421.93 361.29 420.06C361.54 418.34 360.86 417.17 359.91 416.57C358.56 415.72 356.77 416.35 356.03 417.77Z" fill="#CCE4E9"/>
<path d="M118.66 458.23C118.41 458.71 118.17 459.28 118.07 459.88C117.75 461.73 119.39 463.29 121.26 463.08C122.38 462.95 123.65 462.39 123.92 460.52C124.17 458.8 123.49 457.63 122.54 457.03C121.19 456.18 119.4 456.81 118.66 458.23Z" fill="#CCE4E9"/>
<path d="M121.63 645.35C121.38 645.83 121.14 646.4 121.04 647C120.72 648.85 122.36 650.41 124.23 650.2C125.35 650.07 126.62 649.51 126.89 647.64C127.14 645.92 126.46 644.75 125.51 644.15C124.16 643.3 122.37 643.93 121.63 645.35Z" fill="#CCE4E9"/>
<path d="M34.6898 396.81C34.4398 397.29 34.1997 397.86 34.0997 398.46C33.7797 400.31 35.4198 401.87 37.2898 401.66C38.4098 401.53 39.6798 400.97 39.9498 399.1C40.1998 397.38 39.5198 396.21 38.5698 395.61C37.2198 394.76 35.4298 395.39 34.6898 396.81Z" fill="#CCE4E9"/>
<path d="M194.54 383.53C194.29 384.01 194.05 384.58 193.95 385.18C193.63 387.03 195.27 388.59 197.14 388.38C198.26 388.25 199.53 387.69 199.8 385.82C200.05 384.1 199.37 382.93 198.42 382.33C197.07 381.48 195.28 382.11 194.54 383.53Z" fill="#CCE4E9"/>
<path d="M78.6302 360.65C78.3802 361.13 78.1402 361.7 78.0402 362.3C77.7202 364.15 79.3602 365.71 81.2302 365.5C82.3502 365.37 83.6202 364.81 83.8902 362.94C84.1402 361.22 83.4602 360.05 82.5102 359.45C81.1602 358.6 79.3702 359.23 78.6302 360.65Z" fill="#CCE4E9"/>
<path d="M52.1204 637.45C51.8704 637.93 51.6304 638.5 51.5304 639.1C51.2104 640.95 52.8504 642.51 54.7204 642.3C55.8404 642.17 57.1104 641.61 57.3804 639.74C57.6304 638.02 56.9504 636.85 56.0004 636.25C54.6504 635.4 52.8604 636.03 52.1204 637.45Z" fill="#CCE4E9"/>
<path d="M69.7103 586.47C69.4603 586.95 69.2203 587.52 69.1203 588.12C68.8003 589.97 70.4403 591.53 72.3103 591.32C73.4303 591.19 74.7003 590.63 74.9703 588.76C75.2203 587.04 74.5403 585.87 73.5903 585.27C72.2403 584.42 70.4503 585.05 69.7103 586.47Z" fill="#CCE4E9"/>
<path d="M289.95 195.06C289.7 195.54 289.46 196.11 289.36 196.71C289.04 198.56 290.68 200.12 292.55 199.91C293.67 199.78 294.94 199.22 295.21 197.35C295.46 195.63 294.78 194.46 293.83 193.86C292.48 193.01 290.69 193.64 289.95 195.06Z" fill="#CCE4E9"/>
<path d="M39.4896 259.8C39.2396 260.28 38.9996 260.85 38.8996 261.45C38.5796 263.3 40.2196 264.86 42.0896 264.65C43.2096 264.52 44.4796 263.96 44.7496 262.09C44.9996 260.37 44.3196 259.2 43.3696 258.6C42.0196 257.75 40.2296 258.38 39.4896 259.8Z" fill="#CCE4E9"/>
<path d="M246.96 237.5C246.71 237.98 246.47 238.55 246.37 239.15C246.05 241 247.69 242.56 249.56 242.35C250.68 242.22 251.95 241.66 252.22 239.79C252.47 238.07 251.79 236.9 250.84 236.3C249.49 235.45 247.7 236.08 246.96 237.5Z" fill="#CCE4E9"/>
<path d="M121.63 195.06C121.38 195.54 121.14 196.11 121.04 196.71C120.72 198.56 122.36 200.12 124.23 199.91C125.35 199.78 126.62 199.22 126.89 197.35C127.14 195.63 126.46 194.46 125.51 193.86C124.16 193.01 122.37 193.64 121.63 195.06Z" fill="#CCE4E9"/>
<path d="M204.06 608.73C203.81 609.21 203.57 609.78 203.47 610.38C203.15 612.23 204.79 613.79 206.66 613.58C207.78 613.45 209.05 612.89 209.32 611.02C209.57 609.3 208.89 608.13 207.94 607.53C206.59 606.68 204.8 607.31 204.06 608.73Z" fill="#CCE4E9"/>
<path d="M275.48 115.4C275.23 115.88 274.99 116.45 274.89 117.05C274.57 118.9 276.21 120.46 278.08 120.25C279.2 120.12 280.47 119.56 280.74 117.69C280.99 115.97 280.31 114.8 279.36 114.2C278.01 113.35 276.22 113.98 275.48 115.4Z" fill="#CCE4E9"/>
<path d="M56.6302 76.5844C56.3802 77.0644 56.1402 77.6344 56.0402 78.2344C55.7202 80.0844 57.3602 81.6444 59.2302 81.4344C60.3502 81.3044 61.6202 80.7444 61.8902 78.8744C62.1402 77.1544 61.4602 75.9844 60.5102 75.3844C59.1602 74.5344 57.3702 75.1644 56.6302 76.5844Z" fill="#CCE4E9"/>
<path d="M351.24 132.63C350.99 133.11 350.75 133.68 350.65 134.28C350.33 136.13 351.97 137.69 353.84 137.48C354.96 137.35 356.23 136.79 356.5 134.92C356.75 133.2 356.07 132.03 355.12 131.43C353.77 130.58 351.98 131.21 351.24 132.63Z" fill="#CCE4E9"/>
<path d="M340.5 142.39C340.25 142.87 340.01 143.44 339.91 144.04C339.59 145.89 341.23 147.45 343.1 147.24C344.22 147.11 345.49 146.55 345.76 144.68C346.01 142.96 345.33 141.79 344.38 141.19C343.03 140.34 341.24 140.97 340.5 142.39Z" fill="#CCE4E9"/>
<path d="M215.3 47.11C215.05 47.59 214.81 48.16 214.71 48.76C214.39 50.61 216.03 52.17 217.9 51.96C219.02 51.83 220.29 51.27 220.56 49.4C220.81 47.68 220.13 46.51 219.18 45.91C217.83 45.06 216.04 45.69 215.3 47.11Z" fill="#CCE4E9"/>
<path d="M269.54 55.01C269.29 55.49 269.05 56.06 268.95 56.66C268.63 58.51 270.27 60.07 272.14 59.86C273.26 59.73 274.53 59.17 274.8 57.3C275.05 55.58 274.37 54.41 273.42 53.81C272.07 52.96 270.28 53.59 269.54 55.01Z" fill="#CCE4E9"/>
<path d="M79.6302 6.58437C79.3802 7.06437 79.1402 7.63437 79.0402 8.23437C78.7202 10.0844 80.3602 11.6444 82.2302 11.4344C83.3502 11.3044 84.6202 10.7444 84.8902 8.87437C85.1402 7.15437 84.4602 5.98437 83.5102 5.38437C82.1602 4.53437 80.3702 5.16437 79.6302 6.58437Z" fill="#CCE4E9"/>
<path d="M80.5297 521.65C80.0897 521.65 79.6497 521.78 79.2597 521.97C78.0097 522.59 75.2997 524.4 77.9997 527.69C81.4097 531.86 86.5797 528.08 84.7297 525.22C83.1497 522.77 81.9197 521.67 80.5297 521.65Z" fill="#CCE4E9"/>
<path d="M177.3 455.92C176.86 455.92 176.42 456.05 176.03 456.24C174.78 456.86 172.07 458.67 174.77 461.96C178.18 466.13 183.35 462.35 181.5 459.49C179.92 457.04 178.69 455.94 177.3 455.92Z" fill="#CCE4E9"/>
<path d="M255.95 635.15C255.51 635.15 255.07 635.28 254.68 635.47C253.43 636.09 250.72 637.9 253.42 641.19C256.83 645.36 262 641.58 260.15 638.72C258.57 636.27 257.34 635.17 255.95 635.15Z" fill="#CCE4E9"/>
<path d="M362.72 323.72C362.28 323.72 361.84 323.85 361.45 324.04C360.2 324.66 357.49 326.47 360.19 329.76C363.6 333.93 368.77 330.15 366.92 327.29C365.34 324.84 364.11 323.74 362.72 323.72Z" fill="#CCE4E9"/>
<path d="M13.9301 209.65C13.4901 209.65 13.0501 209.78 12.6601 209.97C11.4101 210.59 8.70011 212.4 11.4001 215.69C14.8101 219.86 19.9801 216.08 18.1301 213.22C16.5501 210.77 15.3201 209.67 13.9301 209.65Z" fill="#CCE4E9"/>
<path d="M214.23 168.52C213.79 168.52 213.35 168.65 212.96 168.84C211.71 169.46 209 171.27 211.7 174.56C215.11 178.73 220.28 174.95 218.43 172.09C216.85 169.64 215.62 168.54 214.23 168.52Z" fill="#CCE4E9"/>
<path d="M327.82 21.8199C327.38 21.8199 326.94 21.9499 326.55 22.1399C325.3 22.7599 322.59 24.5699 325.29 27.8599C328.7 32.0299 333.87 28.2499 332.02 25.3899C330.44 22.9399 329.21 21.8399 327.82 21.8199Z" fill="#CCE4E9"/>
<path d="M61.1196 130.33C60.6796 130.33 60.2396 130.46 59.8496 130.65C58.5996 131.27 55.8896 133.08 58.5896 136.37C61.9996 140.54 67.1696 136.76 65.3196 133.9C63.7396 131.45 62.5096 130.35 61.1196 130.33Z" fill="#CCE4E9"/>
<path d="M150.07 639.1C149.63 639.1 149.19 639.23 148.8 639.42C147.55 640.04 144.84 641.85 147.54 645.14C150.95 649.31 156.12 645.53 154.27 642.67C152.69 640.22 151.46 639.12 150.07 639.1Z" fill="#CCE4E9"/>
<path d="M205.96 48.76C205.52 48.76 205.08 48.89 204.69 49.08C203.44 49.7 200.73 51.51 203.43 54.8C206.84 58.97 212.01 55.19 210.16 52.33C208.58 49.88 207.35 48.78 205.96 48.76Z" fill="#CCE4E9"/>
<path d="M280.35 596.37C279.91 596.37 279.47 596.5 279.08 596.69C277.83 597.31 275.12 599.12 277.82 602.41C281.23 606.58 286.4 602.8 284.55 599.94C282.97 597.49 281.74 596.39 280.35 596.37Z" fill="#CCE4E9"/>
<path d="M191.119 489.04C190.959 489.15 190.819 489.29 190.689 489.44C190.119 490.13 188.849 492.12 190.929 494.35C193.509 497.12 198.859 492.74 197.939 490.48C197.069 488.36 193.679 487.22 191.119 489.05V489.04Z" fill="#CCE4E9"/>
<path d="M253.61 416.77C253.45 416.88 253.31 417.02 253.18 417.17C252.61 417.86 251.34 419.85 253.42 422.08C256 424.85 261.35 420.47 260.43 418.21C259.56 416.09 256.17 414.95 253.61 416.78V416.77Z" fill="#CCE4E9"/>
<path d="M249.48 519.4C249.32 519.51 249.18 519.65 249.05 519.8C248.48 520.49 247.21 522.48 249.29 524.71C251.87 527.48 257.22 523.1 256.3 520.84C255.43 518.72 252.04 517.58 249.48 519.41V519.4Z" fill="#CCE4E9"/>
<path d="M99.6097 475.34C99.4497 475.45 99.3097 475.59 99.1797 475.74C98.6097 476.43 97.3397 478.42 99.4197 480.65C102 483.42 107.35 479.04 106.43 476.78C105.56 474.66 102.17 473.52 99.6097 475.35V475.34Z" fill="#CCE4E9"/>
<path d="M295.338 550.905C295.178 551.015 295.038 551.155 294.908 551.305C294.338 551.995 293.068 553.985 295.148 556.215C297.728 558.985 303.078 554.605 302.158 552.345C301.288 550.225 297.898 549.085 295.338 550.915V550.905Z" fill="#CCE4E9"/>
<path d="M191.12 444.12C190.96 444.23 190.82 444.37 190.69 444.52C190.12 445.21 188.85 447.2 190.93 449.43C193.51 452.2 198.86 447.82 197.94 445.56C197.07 443.44 193.68 442.3 191.12 444.13V444.12Z" fill="#CCE4E9"/>
<path d="M269.09 317.52C268.93 317.63 268.79 317.77 268.66 317.92C268.09 318.61 266.82 320.6 268.9 322.83C271.48 325.6 276.83 321.22 275.91 318.96C275.04 316.84 271.65 315.7 269.09 317.53V317.52Z" fill="#CCE4E9"/>
<path d="M25.3099 187.28C25.1499 187.39 25.0099 187.53 24.8799 187.68C24.3099 188.37 23.0399 190.36 25.1199 192.59C27.6999 195.36 33.0499 190.98 32.1299 188.72C31.2599 186.6 27.8699 185.46 25.3099 187.29V187.28Z" fill="#CCE4E9"/>
<path d="M340.05 588.7C339.89 588.81 339.75 588.95 339.62 589.1C339.05 589.79 337.78 591.78 339.86 594.01C342.44 596.78 347.79 592.4 346.87 590.14C346 588.02 342.61 586.88 340.05 588.71V588.7Z" fill="#CCE4E9"/>
<path d="M183.22 274.62C183.06 274.73 182.92 274.87 182.79 275.02C182.22 275.71 180.95 277.7 183.03 279.93C185.61 282.7 190.96 278.32 190.04 276.06C189.17 273.94 185.78 272.8 183.22 274.63V274.62Z" fill="#CCE4E9"/>
<path d="M16.3382 17.9054C16.1782 18.0154 16.0382 18.1554 15.9082 18.3054C15.3382 18.9954 14.0682 20.9854 16.1482 23.2154C18.7282 25.9854 24.0782 21.6054 23.1582 19.3454C22.2882 17.2254 18.8982 16.0854 16.3382 17.9154V17.9054Z" fill="#CCE4E9"/>
<path d="M155.99 12.62C155.83 12.73 155.69 12.87 155.56 13.02C154.99 13.71 153.72 15.7 155.8 17.93C158.38 20.7 163.73 16.32 162.81 14.06C161.94 11.94 158.55 10.8 155.99 12.63V12.62Z" fill="#CCE4E9"/>
<path d="M151.86 91.2201C151.7 91.3301 151.56 91.4701 151.43 91.6201C150.86 92.3101 149.59 94.3 151.67 96.53C154.25 99.3 159.6 94.9201 158.68 92.6601C157.81 90.5401 154.42 89.4001 151.86 91.2301V91.2201Z" fill="#CCE4E9"/>
<path d="M360.38 73.43C360.22 73.54 360.08 73.68 359.95 73.83C359.38 74.52 358.11 76.51 360.19 78.74C362.77 81.51 368.12 77.13 367.2 74.87C366.33 72.75 362.94 71.61 360.38 73.44V73.43Z" fill="#CCE4E9"/>
</g>
<defs>
<clipPath id="clip0_716_9676">
<rect width="375" height="667" fill="white"/>
</clipPath>
</defs>
</svg>
