<svg width="375" height="667" viewBox="0 0 375 667" fill="none" xmlns="http://www.w3.org/2000/svg">
<g clip-path="url(#clip0_666_1617)">
<rect width="375" height="667" fill="#FEFAF9"/>
<path opacity="0.3" d="M141.642 0H0V214.49C1.61646 214.425 3.22705 214.342 4.8313 214.247C5.58228 214.159 6.32959 214.072 7.0752 213.986L7.1499 213.977L7.15723 213.976C8.09009 213.868 9.01929 213.76 9.94629 213.651C10.8184 213.512 11.6873 213.378 12.553 213.243C13.0769 213.161 13.5994 213.08 14.1206 212.998C14.4014 212.953 14.6816 212.909 14.9614 212.864L17.4331 212.486C18.2488 212.329 19.0642 212.173 19.8733 212.011C21.4929 211.711 23.0996 211.4 24.6948 211.103C31.9631 208.769 39.1775 206.192 46.3125 203.282C53.4243 200.305 60.417 196.948 67.2795 193.237C74.156 189.549 80.7783 185.318 87.2043 180.755C93.6106 176.175 99.8237 171.22 105.582 165.766C106.447 164.937 107.268 164.057 108.097 163.167L108.099 163.165L108.121 163.142C108.403 162.839 108.686 162.536 108.972 162.233C109.442 161.724 109.926 161.222 110.413 160.716L110.418 160.71L110.427 160.702C110.719 160.398 111.012 160.093 111.304 159.786C111.676 159.393 112.046 158.996 112.41 158.59C113.118 157.783 113.84 156.978 114.568 156.167L114.598 156.134C116.148 154.407 117.719 152.656 119.219 150.811C120.905 148.897 122.49 146.871 124.097 144.815C124.711 144.03 125.329 143.24 125.956 142.451C127.024 140.969 128.103 139.486 129.188 137.997C129.37 137.744 129.554 137.492 129.739 137.24C129.85 137.09 129.961 136.939 130.071 136.787C130.154 136.674 130.236 136.559 130.318 136.445C130.393 136.339 130.467 136.234 130.541 136.127C130.632 135.996 130.722 135.863 130.811 135.729C131.323 134.953 131.836 134.176 132.354 133.393C132.873 132.61 133.391 131.827 133.915 131.037L134.701 129.853L135.436 128.635C136.418 126.999 137.399 125.35 138.387 123.707C138.998 122.638 139.577 121.552 140.159 120.46L140.168 120.443C140.33 120.139 140.492 119.836 140.655 119.532C140.82 119.224 140.986 118.915 141.154 118.607C141.31 118.308 141.47 118.009 141.631 117.709C141.72 117.543 141.81 117.377 141.898 117.21C141.959 117.095 142.021 116.979 142.082 116.862C142.141 116.749 142.199 116.635 142.257 116.52C142.343 116.352 142.426 116.183 142.507 116.013L143.769 113.364C145.376 110.14 146.736 106.789 148.107 103.41L148.11 103.404L148.489 102.469C148.696 101.886 148.904 101.302 149.113 100.718L149.115 100.714C150.247 97.546 151.388 94.3541 152.255 91.0803C153.346 87.5355 154.123 83.9239 154.904 80.2955L155.103 79.3679C155.275 78.4407 155.431 77.512 155.58 76.5822C155.671 76.0132 155.76 75.4439 155.849 74.8743L155.854 74.8462L155.857 74.8277C155.93 74.3607 156.003 73.8935 156.077 73.4262C156.103 73.2488 156.13 73.0712 156.158 72.8934L156.217 72.5149L156.218 72.5101C156.325 71.8214 156.433 71.1316 156.508 70.447L156.803 67.4651C157.659 59.5085 157.565 51.545 156.809 43.8135C156.585 41.8799 156.345 39.966 156.087 38.0596C155.79 36.2924 155.437 34.5558 155.085 32.826L155.083 32.8188L155.004 32.4301C154.904 31.9689 154.805 31.5092 154.707 31.0495C154.607 30.5886 154.508 30.1277 154.408 29.6654L154.127 28.6492C154.051 28.3759 153.975 28.1028 153.9 27.8299C153.819 27.538 153.739 27.2463 153.661 26.9545L153.515 26.4445C153.049 24.8212 152.587 23.2096 152.057 21.6332L151.742 20.7859C150.567 17.6224 149.416 14.52 147.919 11.6239C147.134 10.0323 146.364 8.46442 145.504 6.95825C144.615 5.46045 143.71 4.0069 142.789 2.58533C142.414 1.7204 142.032 0.858582 141.642 0Z" fill="#A3CFD5"/>
<path opacity="0.3" fill-rule="evenodd" clip-rule="evenodd" d="M375 48V346.667C374.279 346.69 373.56 346.703 372.843 346.705C370.434 346.803 368.051 346.778 365.704 346.753C365.217 346.748 364.732 346.743 364.248 346.739C363.779 346.735 363.311 346.733 362.845 346.732C361.892 346.725 360.944 346.682 360.001 346.638C359.331 346.608 358.664 346.577 358 346.56C356.401 346.506 354.82 346.483 353.263 346.351C345.618 345.659 338.048 344.317 330.62 342.58C323.198 340.825 315.882 338.699 308.808 336.042C301.729 333.415 294.827 330.441 288.133 327.138C281.468 323.782 275.017 320.138 268.714 316.296C268.32 315.985 267.924 315.673 267.527 315.361L267.309 315.19C266.885 314.857 266.459 314.523 266.032 314.188L265.774 313.987L264.98 313.364C264.739 313.175 264.497 312.987 264.255 312.799C263.925 312.544 263.594 312.289 263.262 312.033L263.077 311.892C262.768 311.633 262.459 311.371 262.15 311.109C261.843 310.848 261.535 310.588 261.228 310.33C260.433 309.662 259.635 308.992 258.834 308.319L257.469 307.171C256.254 306.06 255.021 304.943 253.787 303.815C248.475 298.436 243.311 292.729 238.603 286.502C233.367 279.214 228.338 271.502 223.796 263.263C219.248 255.03 215.187 246.283 211.882 237.073C208.572 227.869 206.023 218.22 204.463 208.317C202.897 198.42 202.327 188.287 202.885 178.239C203.442 168.19 205.128 158.227 207.96 148.76C210.787 139.288 214.743 130.318 219.681 122.251C224.638 114.203 230.587 107.092 237.163 101.256C243.75 95.4201 250.915 90.7988 258.444 87.7986C264.953 83.323 271.326 79.1522 277.874 75.4519C284.391 71.7339 290.898 68.1949 297.616 65.1741C298.975 64.4952 300.367 63.9054 301.762 63.3145C302.059 63.1884 302.357 63.0623 302.654 62.9353C303.243 62.6907 303.827 62.4354 304.411 62.1803L304.415 62.1785C305.511 61.6992 306.606 61.2208 307.729 60.8157C309.432 60.1529 311.142 59.4841 312.845 58.8212C314.579 58.2239 316.301 57.6266 318.023 57.0294L318.028 57.0279C318.681 56.835 319.335 56.6419 319.995 56.4431C320.65 56.2649 321.316 56.0867 321.983 55.9085L322.021 55.8983C323.38 55.5231 324.762 55.124 326.157 54.701C327.557 54.2959 329.005 53.9503 330.459 53.5389C331.011 53.3949 331.563 53.2364 332.118 53.0769C333.034 52.814 333.959 52.5484 334.905 52.3405C337.53 51.9912 340.185 51.6138 342.875 51.2314C351.211 50.0462 359.884 48.8133 369.06 48.2229C371.018 48.1303 373 48.0496 375 48Z" fill="#DFE7BF"/>
<path opacity="0.3" fill-rule="evenodd" clip-rule="evenodd" d="M0 608.413V279.416C1.3208 279.461 2.64551 279.517 3.97388 279.585C14.4299 280.114 25.1155 281.365 35.8159 283.599C46.5071 285.829 57.2041 289.038 67.5637 293.34C77.9236 297.641 87.9417 303.043 97.1973 309.498C106.457 315.945 114.964 323.449 122.292 331.785C129.626 340.112 135.772 349.243 140.422 358.786C145.045 368.338 148.122 378.289 149.537 388.072C150.939 397.859 150.76 407.474 148.723 416.405C148.938 425.221 148.97 433.705 148.512 442.054C148.086 450.384 147.523 458.604 146.382 466.712C146.209 468.452 145.927 470.181 145.647 471.902L145.506 472.771C145.448 473.115 145.394 473.46 145.341 473.804C145.286 474.16 145.233 474.515 145.18 474.871C144.983 476.189 144.787 477.506 144.508 478.806C144.131 480.811 143.749 482.803 143.372 484.808C142.918 486.787 142.464 488.766 142.02 490.75L141.79 491.56C141.722 491.799 141.655 492.038 141.587 492.278C141.524 492.504 141.462 492.731 141.399 492.959C141.271 493.386 141.138 493.815 141.004 494.247C140.907 494.56 140.809 494.875 140.712 495.192C140.46 496.041 140.214 496.899 139.971 497.769C139.783 498.441 139.597 499.12 139.412 499.805C139.178 500.634 138.923 501.467 138.666 502.305C138.439 503.047 138.211 503.794 137.993 504.549C137.507 506.157 137.102 507.827 136.536 509.464C134.853 513.097 133.209 516.823 131.535 520.62L131.532 520.627C128.156 528.284 124.653 536.229 120.432 544.285C117.201 550.232 113.713 556.322 109.519 562.104C105.433 567.984 100.622 573.525 95.292 578.739L94.6223 579.35L94.6208 579.351C92.092 581.659 89.5354 583.993 86.7144 586.04C85.1924 587.172 83.6799 588.33 82.0898 589.373C80.4814 590.408 78.855 591.411 77.1968 592.389C75.6836 593.328 74.0686 594.123 72.4604 594.914L72.0842 595.099C70.3298 595.93 68.603 596.796 66.7795 597.494C63.1326 598.89 59.4355 600.206 55.5391 601.06C51.7117 602.047 47.707 602.549 43.7002 602.895C41.8872 603.06 40.0125 603.049 38.166 603.038L37.6062 603.034C35.5662 603.006 33.5303 602.947 31.4509 602.678C29.3901 602.441 27.324 602.145 25.27 601.777C23.2112 601.374 21.1365 600.818 19.0884 600.232C18.0642 599.938 17.0398 599.622 16.033 599.293C15.0203 598.948 14.0066 598.538 13.0022 598.131L12.9788 598.122C12.5793 597.96 12.1807 597.795 11.7825 597.627C11.3027 597.425 10.8242 597.218 10.3472 597.007C8.40552 597.343 6.4563 597.642 4.50073 597.904C4.8645 601.426 3.84619 604.408 1.53003 606.959C1.0708 607.481 0.559814 607.962 0 608.413Z" fill="#F4CFC2"/>
<path opacity="0.3" fill-rule="evenodd" clip-rule="evenodd" d="M375 428V666.757H203.497C201.167 661.655 199.011 656.413 197.073 651.039C193.113 640.099 190.053 628.609 188.173 616.809C186.283 605.019 185.583 592.939 186.243 580.959C186.893 568.979 188.923 557.099 192.313 545.809C195.703 534.519 200.473 523.829 206.423 514.249C212.393 504.679 219.573 496.259 227.503 489.399C235.443 482.539 244.113 477.159 253.193 473.769C260.993 468.529 268.623 463.639 276.423 459.299C284.193 454.939 291.943 450.769 299.933 447.219C301.573 446.408 303.255 445.701 304.937 444.994L304.938 444.994L304.939 444.994C305.267 444.856 305.595 444.718 305.923 444.579C306.611 444.295 307.294 443.998 307.977 443.701C309.291 443.13 310.604 442.56 311.953 442.079C313.418 441.509 314.883 440.944 316.344 440.381C316.907 440.164 317.47 439.947 318.033 439.729C319.058 439.374 320.085 439.022 321.113 438.669C322.14 438.317 323.168 437.964 324.193 437.609C324.973 437.379 325.753 437.149 326.543 436.919C327.343 436.709 328.143 436.499 328.953 436.279C330.573 435.839 332.213 435.359 333.873 434.859C334.738 434.611 335.615 434.381 336.499 434.148L336.5 434.148C337.321 433.933 338.15 433.715 338.983 433.479C339.608 433.313 340.235 433.133 340.867 432.951C341.983 432.63 343.113 432.305 344.263 432.049C347.951 431.58 351.686 431.054 355.48 430.519C361.802 429.628 368.289 428.715 375 428Z" fill="#A3CFD5"/>
</g>
<defs>
<clipPath id="clip0_666_1617">
<rect width="375" height="667" fill="white"/>
</clipPath>
</defs>
</svg>
