<svg width="75" height="75" viewBox="0 0 75 75" fill="none" xmlns="http://www.w3.org/2000/svg">
<rect x="0.25" y="0.25" width="74.5" height="74.5" rx="5.75" fill="#F3F7F9" stroke="#E0E0E0" stroke-width="0.5"/>
<path d="M34.1103 33.2656C32.7469 32.5724 31.0633 33.2987 30.5057 34.7182C29.6667 36.8421 30.4064 38.8504 32.4046 38.4928C35.4572 37.9481 36.5833 34.5202 34.1158 33.2656H34.1103Z" fill="#CCE4E9"/>
<path d="M25.9658 65.2299C24.6023 64.5367 22.9187 65.263 22.3612 66.6825C21.5222 68.8064 22.2619 70.8147 24.2601 70.4571C27.3127 69.9124 28.4387 66.4845 25.9713 65.2299H25.9658Z" fill="#CCE4E9"/>
<path d="M36.3479 5.87177C36.2099 6.13587 36.0774 6.4495 36.0222 6.77963C35.8455 7.79755 36.7508 8.65591 37.7831 8.54036C38.4013 8.46883 39.1023 8.16071 39.2514 7.13179C39.3894 6.1854 39.014 5.54162 38.4896 5.21149C37.7444 4.7438 36.7563 5.09045 36.3479 5.87177Z" fill="#CCE4E9"/>
<path d="M4.03466 23.8586C3.79178 23.8586 3.54889 23.9301 3.33361 24.0346C2.64361 24.3757 1.1477 25.3717 2.6381 27.1819C4.52042 29.4763 7.37425 27.3965 6.35305 25.8228C5.48089 24.4748 4.80194 23.8696 4.03466 23.8586Z" fill="#CCE4E9"/>
<path d="M11.6635 51.4358C11.5752 51.4963 11.4979 51.5734 11.4261 51.6559C11.1115 52.0356 10.4105 53.1305 11.5586 54.3575C12.9828 55.8816 15.936 53.4716 15.4281 52.2281C14.9479 51.0617 13.0766 50.4344 11.6635 51.4413V51.4358Z" fill="#CCE4E9"/>
<path d="M54.9037 30.4981C54.8154 30.5587 54.7381 30.6357 54.6664 30.7182C54.3517 31.0979 53.6507 32.1928 54.7989 33.4198C56.223 34.944 59.1762 32.534 58.6684 31.2905C58.1881 30.124 56.3169 29.4967 54.9037 30.5037V30.4981Z" fill="#CCE4E9"/>
<path d="M43.8783 58.7868C43.79 58.8474 43.7127 58.9244 43.641 59.0069C43.3263 59.3866 42.6253 60.4815 43.7735 61.7085C45.1976 63.2327 48.1508 60.8227 47.643 59.5792C47.1627 58.4127 45.2915 57.7854 43.8783 58.7923V58.7868Z" fill="#CCE4E9"/>
<path d="M69.8881 55.7991C69.7998 55.8596 69.7225 55.9366 69.6507 56.0192C69.3361 56.3988 68.6351 57.4938 69.7832 58.7208C71.2074 60.2449 74.1606 57.8349 73.6528 56.5914C73.1725 55.4249 71.3012 54.7977 69.8881 55.8046V55.7991Z" fill="#CCE4E9"/>
<path d="M11.6635 17.3659C11.5752 17.4264 11.4979 17.5034 11.4261 17.586C11.1115 17.9656 10.4105 19.0606 11.5586 20.2876C12.9828 21.8117 15.936 19.4017 15.4281 18.1582C14.9479 16.9917 13.0766 16.3645 11.6635 17.3714V17.3659Z" fill="#CCE4E9"/>
<path d="M61.0347 9C60.7918 9 60.5489 9.07153 60.3336 9.17608C59.6436 9.51722 58.1477 10.5131 59.6381 12.3234C61.5204 14.6178 64.3743 12.538 63.3531 10.9643C62.4809 9.61626 61.8019 9.011 61.0347 9Z" fill="#CCE4E9"/>
</svg>
