<svg width="75" height="75" viewBox="0 0 75 75" fill="none" xmlns="http://www.w3.org/2000/svg">
<g clip-path="url(#clip0_560_6906)">
<rect width="75" height="75" rx="6" fill="#FFF8EF"/>
<g opacity="0.5">
<path d="M53.0741 4.83201C53.0741 7.18772 53.1043 9.54342 53.1345 11.8991C53.366 30.7045 54.0707 49.2481 52.5908 66.2313C52.5304 68.3052 52.4801 70.4092 52.4096 72.5334C52.3794 73.3488 52.3492 74.1844 52.3291 75.0199H58.1479C58.1076 73.8622 58.0674 72.6944 58.017 71.5166C57.9667 69.473 57.9365 67.4394 57.9063 65.426C57.8157 59.3857 57.7855 53.4763 57.8157 47.728C57.8358 45.332 57.8559 42.9562 57.8962 40.6005C58.1378 36.0904 58.3895 31.379 58.6311 26.4964C58.8929 17.4562 59.3056 8.63738 59.5472 0.0299988H53.0439C53.0741 1.79174 53.0841 3.43268 53.0841 4.86221L53.0741 4.83201Z" fill="#FCEACF"/>
<path d="M74.9998 69.2114V5.78859C74.9998 2.58725 72.4126 0 69.2113 0H68.6274C68.6274 1.73154 68.6274 3.46309 68.6173 5.19463C68.6173 8.36577 68.5972 11.557 68.5871 14.7584C68.577 17.9698 68.567 21.1913 68.5569 24.443C68.5468 26.4262 68.5368 28.4195 68.5166 30.4228C68.4764 36.4329 68.416 42.5235 68.3556 48.7047C68.3254 51.7953 68.2851 54.906 68.2549 58.0369C68.3052 63.9564 68.3555 69.5839 68.4059 75H69.2213C72.4227 75 75.0099 72.4127 75.0099 69.2114H74.9998Z" fill="#FCEACF"/>
<path d="M38.4059 2.54692C38.6374 27.614 39.3119 52.3087 37.9126 74.9999H43.1676C43.1676 74.9999 43.1676 74.9295 43.1676 74.8892C43.077 66.7147 43.0468 58.7416 43.077 50.9697C43.0972 47.7281 43.1173 44.5167 43.1576 41.3254C43.3992 35.2248 43.6509 28.8523 43.8925 22.2583C44.0535 14.7281 44.275 7.31873 44.4864 0.0100098H38.3958C38.3958 0.855647 38.3958 1.71135 38.416 2.55699L38.4059 2.54692Z" fill="#FCEACF"/>
<path d="M0.442953 3.57383C0.312081 8.31544 0.171141 13.1879 0 18.2215V51.6946C0.0201342 53.6577 0.0503356 55.6309 0.0805369 57.594C0.231544 62.3658 0.362416 66.9866 0.473154 71.5067C1.35906 73.5604 3.40268 75 5.78859 75H7.68121C7.45973 49.047 7.19799 26.8289 6.49329 0H5.78859C3.37248 0 1.30872 1.47987 0.442953 3.57383Z" fill="#FCEACF"/>
<path d="M18.2618 10.1174C18.2618 13.2886 18.2417 16.4799 18.2316 19.6812C18.2216 22.8926 18.2115 26.1141 18.2014 29.3658C18.1914 31.349 18.1813 33.3423 18.1612 35.3456C18.1108 41.3557 18.0605 47.4463 18.0001 53.6275C17.9699 56.7181 17.9296 59.8289 17.8994 62.9597C17.9397 67.1074 17.9699 71.104 18.0001 75H24.8055C24.6242 54.302 24.6846 33.2517 24.8256 7.23825C24.8558 4.85235 24.886 2.42617 24.9162 0H18.282C18.282 3.36242 18.2618 6.7349 18.2618 10.1174Z" fill="#FCEACF"/>
</g>
<g opacity="0.5">
<path d="M0 5.62757C1.07718 5.61751 2.1443 5.60744 3.22148 5.57724C13.5403 5.34569 23.7081 4.641 33.0302 6.12086C34.1678 6.18127 35.3255 6.2316 36.4832 6.30207C39.9765 6.50341 43.6208 6.75509 47.5268 7.07724C48.8758 7.10744 50.2349 7.11751 51.594 7.11751C53.9698 7.11751 56.3658 7.08731 58.7617 7.0269C59.9597 6.9967 61.1678 6.95643 62.3758 6.9061C66.8356 6.56382 70.9732 6.32221 75 6.13093V5.77858C75 2.57724 72.4127 -0.0100098 69.2114 -0.0100098H47.8289C44.0436 0.171198 40.1376 0.402742 35.9195 0.694688C34.802 0.745024 33.6846 0.775225 32.5772 0.805426C29.2651 0.89603 26.0235 0.926232 22.8624 0.89603C21.5436 0.875896 20.245 0.855762 18.9463 0.815494C16.4698 0.573883 13.8825 0.322205 11.2047 0.0805943C10.6711 0.0503929 10.1275 0.0201916 9.59396 -0.0100098H5.77852C2.64765 5.73478e-05 0.090604 2.50677 0 5.62757Z" fill="#FCEACF"/>
<path d="M75 69.2114V65.1342C74.0436 65.1141 73.0872 65.094 72.1107 65.0738C43.1376 65.5671 26.547 65.5671 2.04362 66.8658C1.35906 66.8859 0.684564 66.906 0 66.9161V69.2013C0 70.3893 0.352349 71.4866 0.966443 72.4027C1.57047 72.4228 2.1745 72.453 2.78859 72.4731C7.38926 72.6745 12.1711 72.9262 17.3054 73.2483C19.0872 73.2785 20.8691 73.2886 22.651 73.2886C25.7819 73.2886 28.9228 73.2584 32.0738 73.198C33.6544 73.1678 35.2349 73.1275 36.8255 73.0772C50.4966 72.2819 61.9228 71.9597 74.3356 71.8893C74.7584 71.0839 75 70.1678 75 69.2013V69.2114Z" fill="#FCEACF"/>
<path d="M67.1174 47.2852C63.9866 47.2852 60.8456 47.3154 57.6946 47.3758C56.1141 47.406 54.5336 47.4463 52.943 47.4966C33.8658 48.604 19.1376 48.7852 0 48.6745V55.208C0.966443 55.2181 1.93289 55.2282 2.9094 55.2483C6.11074 55.2986 9.36242 55.349 12.6644 55.4094C14.3154 55.4396 15.9765 55.4798 17.6376 55.51C41.3356 55.1074 56.7584 55.0268 74.9899 54.302V47.4866C74.1443 47.4362 73.3087 47.3859 72.453 47.3356C70.6711 47.3054 68.8893 47.2953 67.1074 47.2953L67.1174 47.2852Z" fill="#FCEACF"/>
<path d="M55.1879 30.6242C49.8221 30.4228 44.2349 30.1711 38.255 29.849C36.1812 29.8188 34.0973 29.8087 32.0134 29.8087C28.3591 29.8087 24.6946 29.8389 21.0101 29.8993C19.1678 29.9295 17.3255 29.9698 15.4732 30.0201C10.057 30.2919 4.95302 30.5033 0 30.6745V37.6913C19.7517 37.4295 35.5268 37.1678 56.0436 36.2416C57.7651 36.2013 59.4765 36.1611 61.1678 36.1309C65.8893 36.0403 70.4899 36.0201 75 36.0403V31.651C70.047 31.5403 65.1946 31.2986 60.4832 30.8154C58.7315 30.755 56.9698 30.7047 55.1779 30.6342L55.1879 30.6242Z" fill="#FCEACF"/>
<path d="M8.61745 16.208C5.69799 16.2584 2.83893 16.2886 0 16.2986V20.849C3.15101 20.9899 6.26174 21.2013 9.30201 21.5134C11.0537 21.5738 12.8154 21.6242 14.6074 21.6946C19.9732 21.896 25.5604 22.1476 31.5403 22.4698C33.6141 22.5 35.698 22.5101 37.7819 22.5101C41.4362 22.5101 45.0906 22.4799 48.7852 22.4195C50.6275 22.3893 52.4698 22.349 54.3221 22.2986C61.651 21.9362 68.4161 21.6745 75 21.4832V14.557C52.7215 14.8389 36.0302 15.0604 13.7416 16.0772C12.0201 16.1275 10.3087 16.1577 8.61745 16.1879V16.208Z" fill="#FCEACF"/>
</g>
</g>
<rect x="0.25" y="0.25" width="74.5" height="74.5" rx="5.75" stroke="#E0E0E0" stroke-width="0.5"/>
<defs>
<clipPath id="clip0_560_6906">
<rect width="75" height="75" rx="6" fill="white"/>
</clipPath>
</defs>
</svg>
