<svg width="75" height="75" viewBox="0 0 75 75" fill="none" xmlns="http://www.w3.org/2000/svg">
<g clip-path="url(#clip0_666_1663)">
<rect width="75" height="75" rx="6" fill="#FEFAF9"/>
<path opacity="0.3" d="M30.2212 0H0V22.8689C0.32862 22.8556 0.656049 22.8389 0.982187 22.8194C1.12548 22.8026 1.26812 22.786 1.41037 22.7695L1.45355 22.7645L1.45579 22.7643C1.64518 22.7423 1.83384 22.7204 2.02205 22.6982C2.07957 22.6891 2.13705 22.68 2.19447 22.671C2.31394 22.6523 2.43311 22.6338 2.55198 22.6153C2.65849 22.5987 2.76471 22.5822 2.87067 22.5655C2.92775 22.5565 2.98473 22.5474 3.04161 22.5383L3.54409 22.4614C3.70992 22.4296 3.87569 22.3978 4.04017 22.3649C4.14187 22.3461 4.24332 22.327 4.34452 22.3079C4.571 22.2652 4.79623 22.222 5.02038 22.1802C6.498 21.7057 7.96465 21.1819 9.41518 20.5902C10.861 19.9851 12.2826 19.3027 13.6777 18.5481C15.0757 17.7984 16.422 16.9382 17.7284 16.0106C19.0307 15.0795 20.2938 14.0721 21.4645 12.9635C21.6404 12.7949 21.8072 12.6159 21.9758 12.435L21.9761 12.4347L21.9806 12.4299L22.0407 12.3654C22.0782 12.3253 22.1158 12.2852 22.1537 12.2451C22.2491 12.1418 22.3474 12.0397 22.4462 11.937L22.4465 11.9368L22.4477 11.9356L22.4493 11.9338C22.5088 11.8721 22.5684 11.8102 22.6277 11.7477C22.7034 11.6679 22.7787 11.5871 22.8525 11.5047C22.9176 11.4304 22.9833 11.3563 23.0495 11.2821C23.1296 11.1922 23.2103 11.1023 23.2913 11.012L23.2974 11.0052C23.6125 10.6541 23.9319 10.2982 24.2368 9.92316C24.5796 9.53406 24.9017 9.12213 25.2286 8.7041L25.2377 8.69252C25.3595 8.53676 25.482 8.38015 25.6065 8.22357C25.8235 7.92228 26.043 7.62082 26.2636 7.31804C26.3004 7.26654 26.3379 7.21543 26.3755 7.16426C26.398 7.13361 26.4206 7.10295 26.443 7.07218C26.4598 7.04903 26.4766 7.02581 26.4932 7.00249C26.5084 6.98109 26.5236 6.9596 26.5386 6.938C26.5571 6.91121 26.5754 6.88423 26.5934 6.85702C26.6976 6.69916 26.8019 6.5413 26.9072 6.38211L27.0525 6.16268C27.1096 6.07643 27.1669 5.98999 27.2245 5.90317L27.3843 5.66238L27.5336 5.41478C27.6245 5.2633 27.7155 5.1113 27.8065 4.95912C27.9153 4.77712 28.0243 4.59487 28.1337 4.41297C28.2578 4.19574 28.3756 3.97486 28.4939 3.75277L28.4957 3.74935L28.4975 3.74596C28.5298 3.68542 28.5622 3.62478 28.5948 3.56411L28.6436 3.47328C28.6611 3.44091 28.6786 3.40854 28.6962 3.37617C28.7278 3.31531 28.7604 3.25452 28.7932 3.19356C28.8113 3.15985 28.8294 3.12608 28.8474 3.09222C28.8599 3.06868 28.8724 3.0451 28.8847 3.02145C28.8968 2.99834 28.9087 2.97519 28.9204 2.95196C28.9378 2.91775 28.9547 2.88338 28.9712 2.84882L29.2278 2.31022C29.5544 1.65479 29.831 0.973501 30.1098 0.286705L30.1102 0.285439L30.1874 0.095345C30.1986 0.0635674 30.2099 0.0317899 30.2212 0Z" fill="#A3CFD5"/>
<path opacity="0.3" fill-rule="evenodd" clip-rule="evenodd" d="M76.2361 49.7399V0H48.0461C46.776 1.15728 45.6254 2.54962 44.6603 4.11707C43.6564 5.75702 42.8521 7.58054 42.2774 9.50626C41.7016 11.4308 41.3589 13.4563 41.2456 15.4991C41.1322 17.5418 41.2481 19.6019 41.5664 21.6139C41.8835 23.6272 42.4017 25.5887 43.0748 27.4598C43.7467 29.3322 44.5722 31.1106 45.4968 32.7843C46.4201 34.4592 47.4426 36.027 48.5071 37.5086C49.464 38.7747 50.514 39.9349 51.594 41.0283C51.7271 41.1501 51.8603 41.2714 51.993 41.3921L51.9941 41.3931L51.9971 41.3959C52.1128 41.5011 52.228 41.606 52.3425 41.7106C52.5992 41.9267 52.8535 42.1403 53.1066 42.3528C53.1691 42.4052 53.2316 42.4582 53.2942 42.5112L53.2946 42.5116C53.3572 42.5647 53.4199 42.6178 53.4826 42.6703L53.5269 42.7045C53.642 42.793 53.7562 42.8808 53.8694 42.9696L54.0337 43.0984C54.2335 43.255 54.4317 43.4104 54.6285 43.5658C55.9098 44.3467 57.2213 45.0875 58.5762 45.7699C59.9372 46.4413 61.3403 47.0459 62.7795 47.58C64.2176 48.1202 65.7049 48.5523 67.2138 48.909C68.7239 49.2622 70.2628 49.5351 71.8169 49.6758C72.0662 49.6968 72.3183 49.7043 72.573 49.7118L72.574 49.7118C72.6425 49.7139 72.7112 49.7159 72.78 49.7182C72.9147 49.7217 73.0499 49.7279 73.1858 49.7341L73.1867 49.7342C73.3785 49.743 73.5713 49.7518 73.765 49.7532C73.9572 49.7535 74.1508 49.7555 74.3455 49.7576H74.346H74.3462C74.8234 49.7626 75.3078 49.7677 75.7976 49.7477C75.9433 49.7474 76.0895 49.7446 76.2361 49.7399Z" fill="#DFE7BF"/>
<path opacity="0.3" fill-rule="evenodd" clip-rule="evenodd" d="M75.2362 67.7462V75L54.167 75C54.59 74.7395 55.0141 74.4865 55.4408 74.2419C57.0085 73.3356 58.5723 72.4688 60.1844 71.7309C60.5153 71.5622 60.8546 71.4153 61.1942 71.2683C61.2605 71.2396 61.3268 71.2109 61.393 71.1821C61.5318 71.123 61.6697 71.0613 61.8076 70.9996C62.0726 70.8809 62.3376 70.7622 62.6097 70.6624C62.9053 70.5439 63.2009 70.4265 63.4958 70.3093L63.8364 70.1739C64.0432 70.1002 64.2504 70.0269 64.4577 69.9537L64.4579 69.9536L64.4581 69.9535C64.6654 69.8803 64.8726 69.807 65.0793 69.7333C65.2367 69.6854 65.3941 69.6376 65.5535 69.5898C65.7149 69.5462 65.8763 69.5025 66.0398 69.4568C66.3666 69.3653 66.6975 69.2655 67.0325 69.1616C67.2072 69.1099 67.3841 69.0621 67.5626 69.0138L67.5626 69.0138C67.7283 68.969 67.8955 68.9238 68.0635 68.8748C68.1896 68.8402 68.3162 68.8027 68.4436 68.7649L68.4436 68.7649C68.669 68.6982 68.8969 68.6306 69.1289 68.5775C69.8731 68.4799 70.6266 68.3705 71.3922 68.2594L71.3922 68.2594L71.3923 68.2594C72.6381 68.0786 73.9156 67.8932 75.2362 67.7462Z" fill="#A3CFD5"/>
<path opacity="0.3" fill-rule="evenodd" clip-rule="evenodd" d="M29.8944 75H0V38C0.268521 38.0091 0.537824 38.0205 0.807895 38.0342C2.93354 38.1419 5.10591 38.3961 7.28125 38.8503C9.45476 39.3037 11.6294 39.9561 13.7355 40.8305C15.8416 41.705 17.8783 42.8032 19.7599 44.1156C21.6424 45.4261 23.3717 46.9517 24.8617 48.6464C26.3525 50.3391 27.6021 52.1955 28.5473 54.1356C29.4872 56.0775 30.1128 58.1004 30.4005 60.0893C30.6855 62.0791 30.6489 64.0336 30.2348 65.8492C30.2787 67.6417 30.2852 69.3665 30.1921 71.0636C30.1242 72.3895 30.0393 73.7017 29.8944 75Z" fill="#F4CFC2"/>
</g>
<rect x="0.25" y="0.25" width="74.5" height="74.5" rx="5.75" stroke="#E0E0E0" stroke-width="0.5"/>
<defs>
<clipPath id="clip0_666_1663">
<rect width="75" height="75" rx="6" fill="white"/>
</clipPath>
</defs>
</svg>
