<svg width="375" height="667" viewBox="0 0 375 667" fill="none" xmlns="http://www.w3.org/2000/svg">
<g clip-path="url(#clip0_716_9679)">
<path d="M375 0H0V667H375V0Z" fill="#F9F9FB"/>
<g opacity="0.5">
<path d="M374.33 435C371.01 435 367.69 434.99 364.38 434.98C351.14 434.96 338.08 434.93 325.26 434.89C320.84 434.86 316.42 434.84 311.98 434.82C307.54 434.8 303.08 434.78 298.62 434.76C294.51 434.74 290.38 434.72 286.23 434.69C282.08 434.67 277.9 434.64 273.69 434.61C271.12 434.58 268.54 434.55 265.94 434.51C258.16 434.4 250.27 434.27 242.26 434.12C238.26 434.04 234.23 433.96 230.18 433.87C159.86 435.07 119.61 435.07 60.12 438.23C56.54 438.34 52.98 438.43 49.46 438.51C38.88 438.74 28.55 438.81 18.48 438.72C14.28 438.68 10.13 438.62 5.99 438.53C4.01 438.39 2.02 438.24 0 438.09V449.2C17.53 449.05 34.62 449.42 50.89 451.4C54.53 451.54 58.2 451.68 61.92 451.85C73.09 452.34 84.7 452.95 97.14 453.74C101.46 453.81 105.79 453.83 110.12 453.84C117.71 453.84 125.34 453.77 133 453.62C136.83 453.54 140.67 453.45 144.52 453.32C200.12 450.09 240.37 450.09 302.35 450.72C306.03 450.8 309.74 450.88 313.49 450.97C328.49 451.33 344.2 451.83 361.58 452.52C365.18 452.71 368.81 452.91 372.49 453.13C373.33 453.16 374.16 453.18 375 453.21V435.01C374.78 435.01 374.56 435.01 374.33 435.01V435Z" fill="#EDE5F4"/>
<path d="M365.96 517.52C361.17 517.5 356.35 517.48 351.5 517.45C346.65 517.42 341.78 517.4 336.87 517.37C333.87 517.34 330.86 517.31 327.83 517.27C318.75 517.16 309.54 517.03 300.21 516.88C295.54 516.8 290.84 516.72 286.12 516.63C204.08 517.83 157.12 517.83 87.72 520.99C83.54 521.1 79.4 521.19 75.28 521.27C62.94 521.5 50.88 521.57 39.13 521.48C34.23 521.44 29.39 521.38 24.56 521.29C16.67 520.8 8.45 520.27 0 519.76V532.19C26.61 531.71 52.56 531.62 76.94 534.16C81.18 534.3 85.47 534.44 89.81 534.61C102.84 535.1 116.39 535.71 130.9 536.5C135.94 536.57 140.99 536.59 146.05 536.6C154.91 536.6 163.8 536.53 172.75 536.38C177.22 536.3 181.7 536.21 186.19 536.08C251.05 532.85 298.01 532.85 370.33 533.48C371.89 533.51 373.45 533.54 375.02 533.57V517.57C372.01 517.56 369 517.55 365.98 517.54L365.96 517.52Z" fill="#EDE5F4"/>
<path d="M370.73 478.93C360.2 478.91 349.82 478.88 339.62 478.84C336.11 478.81 332.59 478.79 329.06 478.77C325.53 478.75 321.98 478.73 318.44 478.71C315.17 478.69 311.89 478.67 308.59 478.64C305.29 478.62 301.96 478.59 298.62 478.56C296.58 478.53 294.52 478.5 292.46 478.46C286.27 478.35 280 478.22 273.63 478.07C270.45 477.99 267.25 477.91 264.02 477.82C208.1 479.02 176.1 479.02 128.8 482.18C125.95 482.29 123.13 482.38 120.32 482.46C111.91 482.69 103.69 482.76 95.68 482.67C92.34 482.63 89.04 482.57 85.75 482.48C79.47 481.9 72.91 481.28 66.12 480.7C43.07 479.56 20.96 476.91 0 478.34V494.65C1.34 494.69 2.61 494.73 3.77 494.78C6.72 494.81 9.7 494.78 12.66 494.72C21.51 494.55 30.02 494.13 35.99 494.17C39.27 494.15 42.55 494.1 45.82 494.02C72 493.45 97.81 491.74 121.45 495.35C124.34 495.49 127.26 495.63 130.22 495.8C139.1 496.29 148.34 496.9 158.22 497.69C161.65 497.76 165.09 497.78 168.54 497.79C174.58 497.79 180.64 497.72 186.73 497.57C189.78 497.49 192.83 497.4 195.89 497.27C240.1 494.04 272.1 494.04 321.39 494.67C324.32 494.75 327.27 494.83 330.25 494.92C342.18 495.28 354.67 495.78 368.49 496.47C370.64 496.61 372.81 496.76 374.99 496.92V478.95C373.57 478.95 372.14 478.95 370.72 478.95L370.73 478.93Z" fill="#EDE5F4"/>
<path d="M371.58 396.91C338.66 397.48 306.2 399.19 276.47 395.58C272.83 395.44 269.16 395.3 265.44 395.13C254.27 394.64 242.66 394.03 230.22 393.24C225.9 393.17 221.58 393.15 217.24 393.14C209.65 393.14 202.02 393.21 194.36 393.36C190.53 393.44 186.69 393.53 182.84 393.66C127.24 396.89 86.99 396.89 25.01 396.26C21.33 396.18 17.62 396.1 13.87 396.01C9.32 395.9 4.7 395.78 0 395.64V412.07C0.7 412.07 1.4 412.07 2.1 412.07C6.52 412.1 10.94 412.12 15.38 412.14C19.82 412.16 24.28 412.18 28.74 412.2C32.85 412.22 36.98 412.24 41.13 412.27C45.28 412.29 49.46 412.32 53.67 412.35C56.24 412.38 58.82 412.41 61.42 412.45C69.2 412.56 77.09 412.69 85.1 412.84C89.1 412.92 93.13 413 97.18 413.09C167.5 411.89 207.75 411.89 267.24 408.73C270.82 408.62 274.38 408.53 277.9 408.45C288.48 408.22 298.81 408.15 308.88 408.24C313.08 408.28 317.23 408.34 321.37 408.43C329.27 409.01 337.52 409.63 346.06 410.21C355.85 410.59 365.5 411.15 375 411.67V396.85C373.86 396.87 372.72 396.87 371.58 396.89V396.91Z" fill="#EDE5F4"/>
<path d="M373.82 354.42C369.5 354.39 365.11 354.42 360.78 354.48C347.79 354.65 335.32 355.07 326.55 355.03C321.74 355.05 316.93 355.1 312.12 355.18C273.71 355.75 235.84 357.46 201.16 353.85C196.92 353.71 192.63 353.57 188.29 353.4C175.26 352.91 161.71 352.3 147.2 351.51C142.16 351.44 137.11 351.42 132.05 351.41C123.19 351.41 114.3 351.48 105.35 351.63C100.88 351.71 96.4005 351.8 91.9105 351.93C58.4905 353.6 29.8105 354.4 -0.0195312 354.71V371.26C77.1305 370.17 123.26 370.07 190.37 367.02C194.55 366.91 198.69 366.82 202.81 366.74C215.15 366.51 227.21 366.44 238.96 366.53C243.86 366.57 248.7 366.63 253.53 366.72C262.74 367.3 272.38 367.92 282.33 368.5C314.56 369.58 345.53 372.04 374.98 371.04V354.46C374.58 354.46 374.19 354.44 373.8 354.43L373.82 354.42Z" fill="#EDE5F4"/>
<path d="M0.00046875 31.14C7.69047 31.62 16.1205 31.78 21.9705 32.01C24.7905 32.04 27.6505 32.01 30.4705 31.95C38.9405 31.78 47.0705 31.36 52.7905 31.4C55.9305 31.38 59.0605 31.33 62.1905 31.25C87.2305 30.68 111.92 28.97 134.53 32.58C137.3 32.72 140.09 32.86 142.92 33.03C151.41 33.52 160.25 34.13 169.71 34.92C172.99 34.99 176.29 35.01 179.58 35.02C185.35 35.02 191.15 34.95 196.98 34.8C199.89 34.72 202.82 34.63 205.74 34.5C248.03 31.27 278.64 31.27 325.78 31.9C328.58 31.98 331.4 32.06 334.25 32.15C345.66 32.51 357.6 33.01 370.83 33.7C372.21 33.79 373.6 33.89 374.99 33.99V16.17C374.31 16.17 373.64 16.17 372.96 16.17C362.89 16.15 352.96 16.12 343.2 16.08C339.84 16.05 336.47 16.03 333.1 16.01C329.72 15.99 326.33 15.97 322.94 15.95C319.82 15.93 316.68 15.91 313.52 15.88C310.36 15.86 307.18 15.83 303.98 15.8C302.02 15.77 300.06 15.74 298.09 15.7C292.17 15.59 286.17 15.46 280.08 15.31C277.04 15.23 273.97 15.15 270.89 15.06C217.4 16.26 186.79 16.26 141.54 19.42C138.82 19.53 136.11 19.62 133.43 19.7C125.38 19.93 117.53 20 109.86 19.91C106.67 19.87 103.51 19.81 100.36 19.72C94.3505 19.14 88.0705 18.52 81.5805 17.94C52.6805 16.45 25.3205 12.35 -0.0195312 18.27V31.15L0.00046875 31.14Z" fill="#EDE5F4"/>
<path d="M363.29 556.57C362.34 556.57 361.45 556.57 360.49 556.57C357.97 556.57 355.44 556.56 352.93 556.55C342.86 556.53 332.93 556.5 323.17 556.46C319.81 556.43 316.44 556.41 313.07 556.39C309.69 556.37 306.3 556.35 302.91 556.33C299.79 556.31 296.65 556.29 293.49 556.26C290.33 556.23 287.15 556.21 283.95 556.18C281.99 556.15 280.03 556.12 278.06 556.08C272.14 555.97 266.14 555.84 260.05 555.69C257.01 555.61 253.94 555.53 250.86 555.44C197.37 556.64 166.76 556.64 121.51 559.8C118.79 559.91 116.08 560 113.4 560.08C105.35 560.31 97.5002 560.38 89.8302 560.29C86.6402 560.25 83.4802 560.19 80.3302 560.1C74.3202 559.52 68.0402 558.9 61.5502 558.32C40.1202 557.22 19.5402 554.67 -0.00976562 555.84V572.32C0.650234 572.34 1.30023 572.37 1.91023 572.39C4.73023 572.42 7.59023 572.39 10.4102 572.33C18.8802 572.16 27.0102 571.74 32.7302 571.78C35.8702 571.76 39.0002 571.71 42.1302 571.63C67.1702 571.06 91.8602 569.35 114.47 572.96C117.24 573.1 120.03 573.24 122.86 573.41C131.35 573.9 140.19 574.51 149.65 575.3C152.93 575.37 156.23 575.39 159.52 575.4C165.29 575.4 171.09 575.33 176.92 575.18C179.83 575.1 182.76 575.01 185.68 574.88C227.97 571.65 258.58 571.65 305.73 572.28C308.53 572.36 311.35 572.44 314.2 572.53C325.61 572.89 337.55 573.39 350.78 574.08C353.52 574.27 356.28 574.47 359.08 574.69C362.39 574.84 365.66 574.98 368.93 575.08C370.95 575.14 372.97 575.16 374.99 575.2V558.11C370.96 557.65 367.05 557.15 363.28 556.57H363.29Z" fill="#EDE5F4"/>
<path d="M351.5 595.07C346.65 595.05 341.78 595.02 336.87 594.99C333.87 594.96 330.86 594.93 327.83 594.89C318.75 594.78 309.54 594.65 300.21 594.5C295.54 594.42 290.84 594.34 286.12 594.25C204.08 595.45 157.12 595.45 87.72 598.61C83.54 598.72 79.4 598.81 75.28 598.89C62.94 599.12 50.88 599.19 39.13 599.1C34.23 599.06 29.39 599 24.56 598.91C16.67 598.42 8.45 597.89 0 597.38V609.81C26.61 609.33 52.56 609.24 76.94 611.78C81.18 611.92 85.47 612.06 89.81 612.23C102.84 612.72 116.39 613.33 130.9 614.12C135.94 614.19 140.99 614.21 146.05 614.22C154.91 614.22 163.8 614.15 172.75 614C177.22 613.92 181.7 613.83 186.19 613.7C251.05 610.47 298.01 610.47 370.33 611.1C371.89 611.13 373.45 611.16 375.02 611.19V595.19C372.01 595.18 369 595.17 365.98 595.16C361.19 595.14 356.37 595.12 351.52 595.09L351.5 595.07Z" fill="#EDE5F4"/>
<path d="M370.73 214.43C360.2 214.41 349.82 214.38 339.62 214.34C336.11 214.31 332.59 214.29 329.06 214.27C325.53 214.25 321.98 214.23 318.44 214.21C315.17 214.19 311.89 214.17 308.59 214.14C305.29 214.12 301.96 214.09 298.62 214.06C296.58 214.03 294.52 214 292.46 213.96C286.27 213.85 280 213.72 273.63 213.57C270.45 213.49 267.25 213.41 264.02 213.32C208.1 214.52 176.1 214.52 128.8 217.68C125.95 217.79 123.13 217.88 120.32 217.96C111.91 218.19 103.69 218.26 95.68 218.17C92.34 218.13 89.04 218.07 85.75 217.98C79.47 217.4 72.91 216.78 66.12 216.2C43.07 215.06 20.96 212.41 0 213.84V230.15C1.34 230.19 2.61 230.23 3.77 230.28C6.72 230.31 9.7 230.28 12.66 230.22C21.51 230.05 30.02 229.63 35.99 229.67C39.27 229.65 42.55 229.6 45.82 229.52C72 228.95 97.81 227.24 121.45 230.85C124.34 230.99 127.26 231.13 130.22 231.3C139.1 231.79 148.34 232.4 158.22 233.19C161.65 233.26 165.09 233.28 168.54 233.29C174.58 233.29 180.64 233.22 186.73 233.07C189.78 232.99 192.83 232.9 195.89 232.77C240.1 229.54 272.1 229.54 321.39 230.17C324.32 230.25 327.27 230.33 330.25 230.42C342.18 230.78 354.67 231.28 368.49 231.97C370.64 232.11 372.81 232.26 374.99 232.42V214.45C373.57 214.45 372.14 214.45 370.72 214.45L370.73 214.43Z" fill="#EDE5F4"/>
<path d="M373.82 93.05C369.5 93.02 365.11 93.05 360.78 93.11C347.79 93.28 335.32 93.7 326.55 93.66C321.74 93.68 316.93 93.73 312.12 93.81C273.71 94.38 235.84 96.09 201.16 92.48C196.92 92.34 192.63 92.2 188.29 92.03C175.26 91.54 161.71 90.93 147.2 90.14C142.16 90.07 137.11 90.05 132.05 90.04C123.19 90.04 114.3 90.11 105.35 90.26C100.88 90.34 96.4005 90.43 91.9105 90.56C58.4905 92.23 29.8105 93.03 -0.0195312 93.34V109.89C77.1305 108.8 123.26 108.7 190.37 105.65C194.55 105.54 198.69 105.45 202.81 105.37C215.15 105.14 227.21 105.07 238.96 105.16C243.86 105.2 248.7 105.26 253.53 105.35C262.74 105.93 272.38 106.55 282.33 107.13C314.56 108.21 345.53 110.67 374.98 109.67V93.09C374.58 93.09 374.19 93.07 373.8 93.06L373.82 93.05Z" fill="#EDE5F4"/>
<path d="M371.58 136.24C338.66 136.81 306.2 138.52 276.47 134.91C272.83 134.77 269.16 134.63 265.44 134.46C254.27 133.97 242.66 133.36 230.22 132.57C225.9 132.5 221.58 132.48 217.24 132.47C209.65 132.47 202.02 132.54 194.36 132.69C190.53 132.77 186.69 132.86 182.84 132.99C127.24 136.22 86.99 136.22 25.01 135.59C21.33 135.51 17.62 135.43 13.87 135.34C9.32 135.23 4.7 135.11 0 134.97V151.4C0.7 151.4 1.4 151.4 2.1 151.4C6.52 151.43 10.94 151.45 15.38 151.47C19.82 151.49 24.28 151.51 28.74 151.53C32.85 151.55 36.98 151.57 41.13 151.6C45.28 151.62 49.46 151.65 53.67 151.68C56.24 151.71 58.82 151.74 61.42 151.78C69.2 151.89 77.09 152.02 85.1 152.17C89.1 152.25 93.13 152.33 97.18 152.42C167.5 151.22 207.75 151.22 267.24 148.06C270.82 147.95 274.38 147.86 277.9 147.78C288.48 147.55 298.81 147.48 308.88 147.57C313.08 147.61 317.23 147.67 321.37 147.76C329.27 148.34 337.52 148.96 346.06 149.54C355.85 149.92 365.5 150.48 375 151V136.18C373.86 136.2 372.72 136.2 371.58 136.22V136.24Z" fill="#EDE5F4"/>
<path d="M365.96 318.19C361.17 318.17 356.35 318.15 351.5 318.12C346.65 318.09 341.78 318.07 336.87 318.04C333.87 318.01 330.86 317.98 327.83 317.94C318.75 317.83 309.54 317.7 300.21 317.55C295.54 317.47 290.84 317.39 286.12 317.3C204.08 318.5 157.12 318.5 87.72 321.66C83.54 321.77 79.4 321.86 75.28 321.94C62.94 322.17 50.88 322.24 39.13 322.15C34.23 322.11 29.39 322.05 24.56 321.96C16.67 321.47 8.45 320.94 0 320.43V332.86C26.61 332.38 52.56 332.29 76.94 334.83C81.18 334.97 85.47 335.11 89.81 335.28C102.84 335.77 116.39 336.38 130.9 337.17C135.94 337.24 140.99 337.26 146.05 337.27C154.91 337.27 163.8 337.2 172.75 337.05C177.22 336.97 181.7 336.88 186.19 336.75C251.05 333.52 298.01 333.52 370.33 334.15C371.89 334.18 373.45 334.21 375.02 334.24V318.24C372.01 318.23 369 318.22 365.98 318.21L365.96 318.19Z" fill="#EDE5F4"/>
<path d="M373.53 176.77C370.21 176.77 366.89 176.76 363.58 176.75C350.34 176.73 337.28 176.7 324.46 176.66C320.04 176.63 315.62 176.61 311.18 176.59C306.74 176.57 302.28 176.55 297.82 176.53C293.71 176.51 289.58 176.49 285.43 176.46C281.28 176.44 277.1 176.41 272.89 176.38C270.32 176.35 267.74 176.32 265.14 176.28C257.36 176.17 249.47 176.04 241.46 175.89C237.46 175.81 233.43 175.73 229.38 175.64C159.06 176.84 118.81 176.84 59.32 180C55.74 180.11 52.18 180.2 48.66 180.28C38.08 180.51 27.75 180.58 17.68 180.49C13.48 180.45 9.33 180.39 5.19 180.3C3.48 180.18 1.74 180.05 0 179.92V190.97C17.25 190.84 34.07 191.23 50.09 193.18C53.73 193.32 57.4 193.46 61.12 193.63C72.29 194.12 83.9 194.73 96.34 195.52C100.66 195.59 104.99 195.61 109.32 195.62C116.91 195.62 124.54 195.55 132.2 195.4C136.03 195.32 139.87 195.23 143.72 195.1C199.32 191.87 239.57 191.87 301.55 192.5C305.23 192.58 308.94 192.66 312.69 192.75C327.69 193.11 343.4 193.61 360.78 194.3C364.38 194.49 368.01 194.69 371.69 194.91C372.8 194.95 373.9 194.98 375 195.02V176.79C374.52 176.79 374.03 176.79 373.53 176.79V176.77Z" fill="#EDE5F4"/>
<path d="M365.96 53.31C361.17 53.29 356.35 53.27 351.5 53.24C346.65 53.21 341.78 53.19 336.87 53.16C333.87 53.13 330.86 53.1 327.83 53.06C318.75 52.95 309.54 52.82 300.21 52.67C295.54 52.59 290.84 52.51 286.12 52.42C204.08 53.62 157.12 53.62 87.72 56.78C83.54 56.89 79.4 56.98 75.28 57.06C62.94 57.29 50.88 57.36 39.13 57.27C34.23 57.23 29.39 57.17 24.56 57.08C16.67 56.59 8.45 56.06 0 55.55V67.98C26.61 67.5 52.56 67.41 76.94 69.95C81.18 70.09 85.47 70.23 89.81 70.4C102.84 70.89 116.39 71.5 130.9 72.29C135.94 72.36 140.99 72.38 146.05 72.39C154.91 72.39 163.8 72.32 172.75 72.17C177.22 72.09 181.7 72 186.19 71.87C251.05 68.64 298.01 68.64 370.33 69.27C371.89 69.3 373.45 69.33 375.02 69.36V53.36C372.01 53.35 369 53.34 365.98 53.33L365.96 53.31Z" fill="#EDE5F4"/>
<path d="M363.29 284.31C362.34 284.31 361.45 284.31 360.49 284.31C357.97 284.31 355.44 284.3 352.93 284.29C342.86 284.27 332.93 284.24 323.17 284.2C319.81 284.17 316.44 284.15 313.07 284.13C309.69 284.11 306.3 284.09 302.91 284.07C299.79 284.05 296.65 284.03 293.49 284C290.33 283.97 287.15 283.95 283.95 283.92C281.99 283.89 280.03 283.86 278.06 283.82C272.14 283.71 266.14 283.58 260.05 283.43C257.01 283.35 253.94 283.27 250.86 283.18C197.37 284.38 166.76 284.38 121.51 287.54C118.79 287.65 116.08 287.74 113.4 287.82C105.35 288.05 97.5002 288.12 89.8302 288.03C86.6402 287.99 83.4802 287.93 80.3302 287.84C74.3202 287.26 68.0402 286.64 61.5502 286.06C40.1202 284.96 19.5402 282.41 -0.00976562 283.58V300.06C0.650234 300.08 1.30023 300.11 1.91023 300.13C4.73023 300.16 7.59023 300.13 10.4102 300.07C18.8802 299.9 27.0102 299.48 32.7302 299.52C35.8702 299.5 39.0002 299.45 42.1302 299.37C67.1702 298.8 91.8602 297.09 114.47 300.7C117.24 300.84 120.03 300.98 122.86 301.15C131.35 301.64 140.19 302.25 149.65 303.04C152.93 303.11 156.23 303.13 159.52 303.14C165.29 303.14 171.09 303.07 176.92 302.92C179.83 302.84 182.76 302.75 185.68 302.62C227.97 299.39 258.58 299.39 305.73 300.02C308.53 300.1 311.35 300.18 314.2 300.27C325.61 300.63 337.55 301.13 350.78 301.82C353.52 302.01 356.28 302.21 359.08 302.43C362.39 302.58 365.66 302.72 368.93 302.82C370.95 302.88 372.97 302.9 374.99 302.94V285.85C370.96 285.39 367.05 284.89 363.28 284.31H363.29Z" fill="#EDE5F4"/>
<path d="M375 636.09C374.6 636.09 374.21 636.07 373.82 636.06C369.5 636.03 365.11 636.06 360.78 636.12C347.79 636.29 335.32 636.71 326.55 636.67C321.74 636.69 316.93 636.74 312.12 636.82C273.71 637.39 235.84 639.1 201.16 635.49C196.92 635.35 192.63 635.21 188.29 635.04C175.26 634.55 161.71 633.94 147.2 633.15C142.16 633.08 137.11 633.06 132.05 633.05C123.19 633.05 114.3 633.12 105.35 633.27C100.88 633.35 96.4005 633.44 91.9105 633.57C58.4905 635.24 29.8105 636.04 -0.0195312 636.35V652.9C77.1305 651.81 123.26 651.71 190.37 648.66C194.55 648.55 198.69 648.46 202.81 648.38C215.15 648.15 227.21 648.08 238.96 648.17C243.86 648.21 248.7 648.27 253.53 648.36C262.74 648.94 272.38 649.56 282.33 650.14C314.56 651.22 345.53 653.68 374.98 652.68V636.1L375 636.09Z" fill="#EDE5F4"/>
<path d="M365.96 249.14C361.17 249.12 356.35 249.1 351.5 249.07C346.65 249.04 341.78 249.02 336.87 248.99C333.87 248.96 330.86 248.93 327.83 248.89C318.75 248.78 309.54 248.65 300.21 248.5C295.54 248.42 290.84 248.34 286.12 248.25C204.08 249.45 157.12 249.45 87.72 252.61C83.54 252.72 79.4 252.81 75.28 252.89C62.94 253.12 50.88 253.19 39.13 253.1C34.23 253.06 29.39 253 24.56 252.91C16.67 252.42 8.45 251.89 0 251.38V263.81C26.61 263.33 52.56 263.24 76.94 265.78C81.18 265.92 85.47 266.06 89.81 266.23C102.84 266.72 116.39 267.33 130.9 268.12C135.94 268.19 140.99 268.21 146.05 268.22C154.91 268.22 163.8 268.15 172.75 268C177.22 267.92 181.7 267.83 186.19 267.7C251.05 264.47 298.01 264.47 370.33 265.1C371.89 265.13 373.45 265.16 375.02 265.19V249.19C372.01 249.18 369 249.17 365.98 249.16L365.96 249.14Z" fill="#EDE5F4"/>
</g>
<g opacity="0.5">
<path d="M351.7 28.25C351.67 32.95 351.7 37.72 351.76 42.43C351.93 56.55 352.35 70.12 352.31 79.65C352.33 84.88 352.38 90.11 352.46 95.34C353.03 137.11 354.74 178.28 351.13 215.99C350.99 220.6 350.85 225.26 350.68 229.98C350.19 244.15 349.58 258.88 348.79 274.66C348.72 280.14 348.7 285.63 348.69 291.13C348.69 300.76 348.76 310.44 348.91 320.16C348.99 325.02 349.08 329.9 349.21 334.77C352.44 405.3 352.44 456.36 351.8 534.99C351.72 539.66 351.64 544.37 351.55 549.12C351.19 568.15 350.7 588.07 350 610.12C349.81 614.68 349.61 619.29 349.39 623.97C349.24 629.48 349.1 634.95 349 640.4C348.93 643.98 348.92 647.54 348.88 651.11C349.48 656.62 350.1 661.95 350.72 666.99H365.08C365.33 661.59 365.54 656.67 365.77 653.17C366.27 645.49 366.83 638.08 367.49 630.96C367.49 629.37 367.49 627.89 367.49 626.29C367.49 622.08 367.5 617.87 367.51 613.67C367.53 596.88 367.56 580.31 367.6 564.04C367.63 558.44 367.65 552.82 367.67 547.19C367.69 541.55 367.71 535.9 367.73 530.24C367.75 525.03 367.77 519.79 367.8 514.52C367.82 509.25 367.85 503.95 367.88 498.61C367.91 495.35 367.94 492.07 367.98 488.78C368.09 478.91 368.22 468.9 368.37 458.74C368.45 453.67 368.53 448.56 368.62 443.42C367.42 354.21 367.42 303.15 364.27 227.69C364.16 223.15 364.07 218.64 363.99 214.16C363.76 200.74 363.7 187.63 363.78 174.85C363.82 169.53 363.88 164.25 363.97 159.01C364.55 148.99 365.17 138.52 365.75 127.69C367.14 82.66 370.8 39.87 366.46 -0.0300293H352.29C352.01 10.25 351.87 20.57 351.69 28.22L351.7 28.25Z" fill="#EDE5F4"/>
<path d="M162.87 667C162.87 666.79 162.87 666.59 162.87 666.38C162.89 658.68 162.91 650.95 162.94 643.16C162.97 635.37 162.99 627.54 163.02 619.66C163.05 614.84 163.08 610 163.12 605.14C163.23 590.55 163.36 575.77 163.51 560.77C163.59 553.27 163.67 545.73 163.76 538.13C162.56 406.35 162.56 330.92 159.41 219.44C159.3 212.73 159.21 206.07 159.13 199.46C158.9 179.63 158.84 160.27 158.92 141.4C158.96 133.53 159.02 125.75 159.11 117.99C159.69 103.19 160.31 87.72 160.89 71.72C161.4 47.35 162.21 23.42 162.83 -0.0100098H147.43C147.43 0.23999 147.43 0.47999 147.43 0.71999C147.45 8.44999 147.5 16.18 147.58 23.89C148.15 85.59 149.86 146.41 146.25 202.12C146.11 208.93 145.97 215.82 145.8 222.79C145.31 243.72 144.7 265.49 143.91 288.79C143.84 296.88 143.82 304.99 143.81 313.12C143.81 327.35 143.88 341.64 144.03 356C144.11 363.18 144.2 370.38 144.33 377.59C147.5 479.86 147.56 554.42 146.96 666.99H162.86L162.87 667Z" fill="#EDE5F4"/>
<path d="M196.65 656.17C197.15 647.78 197.71 639.68 198.37 631.9C198.37 630.16 198.37 628.54 198.37 626.8C198.37 622.2 198.38 617.6 198.39 613.01C198.41 594.66 198.44 576.56 198.48 558.77C198.51 552.65 198.53 546.51 198.55 540.36C198.57 534.2 198.59 528.02 198.61 521.84C198.63 516.15 198.65 510.42 198.68 504.66C198.7 498.9 198.73 493.11 198.76 487.28C198.79 483.72 198.82 480.14 198.86 476.54C198.97 465.75 199.1 454.81 199.25 443.72C199.33 438.18 199.41 432.59 199.5 426.97C198.3 329.48 198.3 273.68 195.15 191.22C195.04 186.25 194.95 181.33 194.87 176.44C194.64 161.77 194.58 147.45 194.66 133.49C194.7 127.67 194.76 121.91 194.85 116.18C195.43 105.23 196.05 93.7899 196.63 81.9499C197.43 53.7899 198.96 26.4299 199.32 0.00994873H182.78C182.97 11.2299 183.2 21.5799 183.17 29.4299C183.19 35.1499 183.24 40.86 183.32 46.57C183.89 92.2099 185.6 137.21 181.99 178.42C181.85 183.46 181.71 188.55 181.54 193.71C181.05 209.19 180.44 225.3 179.65 242.53C179.58 248.51 179.56 254.51 179.55 260.53C179.55 271.05 179.62 281.63 179.77 292.25C179.85 297.56 179.94 302.89 180.07 308.22C183.3 385.29 183.3 441.09 182.66 527.02C182.58 532.13 182.5 537.27 182.41 542.47C182.05 563.27 181.56 585.04 180.86 609.14C180.67 614.13 180.47 619.16 180.25 624.27C180.1 630.29 179.96 636.26 179.86 642.23C179.79 646.14 179.78 650.03 179.74 653.94C180.19 658.42 180.64 662.8 181.11 667.02H196.13C196.31 662.82 196.47 659.07 196.64 656.19L196.65 656.17Z" fill="#EDE5F4"/>
<path d="M102.43 590.64C101.85 605.44 101.23 620.91 100.65 636.91C100.44 647.02 100.17 657.05 99.89 667H113.77C113.11 611.41 112.03 556.87 115.29 506.51C115.43 499.7 115.57 492.81 115.74 485.84C116.23 464.91 116.84 443.14 117.63 419.84C117.7 411.75 117.72 403.64 117.73 395.51C117.73 381.28 117.66 366.99 117.51 352.63C117.43 345.45 117.34 338.25 117.21 331.04C113.98 226.85 113.98 151.43 114.62 35.27C114.7 28.37 114.78 21.42 114.87 14.39C114.93 9.63 115 4.84 115.06 0H98.79C98.77 5.74 98.75 11.47 98.74 17.23C98.72 25.56 98.7 33.9 98.68 42.27C98.66 49.97 98.64 57.7 98.61 65.49C98.58 73.28 98.56 81.11 98.53 88.99C98.5 93.81 98.47 98.65 98.43 103.51C98.32 118.1 98.19 132.88 98.04 147.88C97.96 155.38 97.88 162.92 97.79 170.52C98.99 302.3 98.99 377.73 102.14 489.21C102.25 495.92 102.34 502.58 102.42 509.19C102.65 529.02 102.71 548.38 102.63 567.25C102.59 575.12 102.53 582.9 102.44 590.66L102.43 590.64Z" fill="#EDE5F4"/>
<path d="M224.64 578.7C224.06 593.5 223.44 608.97 222.86 624.97C222.56 639.13 222.16 653.15 221.76 667H236.12C235.51 607.29 234.01 548.53 237.51 494.57C237.65 487.76 237.79 480.87 237.96 473.9C238.45 452.97 239.06 431.2 239.85 407.9C239.92 399.81 239.94 391.7 239.95 383.57C239.95 369.34 239.88 355.05 239.73 340.69C239.65 333.51 239.56 326.31 239.43 319.1C236.2 214.91 236.2 139.49 236.84 23.33C236.92 16.43 237 9.48 237.09 2.45C237.1 1.63 237.11 0.82 237.12 0H220.97C220.97 1.76 220.96 3.52 220.95 5.28C220.93 13.61 220.91 21.95 220.89 30.32C220.87 38.02 220.85 45.75 220.82 53.54C220.79 61.33 220.77 69.16 220.74 77.04C220.71 81.86 220.68 86.7 220.64 91.56C220.53 106.15 220.4 120.93 220.25 135.93C220.17 143.42 220.09 150.97 220 158.57C221.2 290.35 221.2 365.78 224.35 477.26C224.46 483.97 224.55 490.63 224.63 497.24C224.86 517.07 224.92 536.43 224.84 555.3C224.8 563.17 224.74 570.95 224.65 578.71L224.64 578.7Z" fill="#EDE5F4"/>
<path d="M265.92 560.95C265.56 589.07 265.07 618.49 264.37 651.07C264.22 656.33 264.07 661.65 263.9 667.01H281.88C281.88 663.45 281.88 659.89 281.88 656.33C281.9 631.52 281.93 607.05 281.97 583.01C282 574.73 282.02 566.44 282.04 558.12C282.06 549.79 282.08 541.45 282.1 533.08C282.12 525.38 282.14 517.65 282.17 509.86C282.2 502.07 282.22 494.24 282.25 486.36C282.28 481.54 282.31 476.7 282.35 471.84C282.46 457.25 282.59 442.47 282.74 427.47C282.82 419.97 282.9 412.43 282.99 404.83C281.79 273.05 281.79 197.62 278.64 86.14C278.53 79.43 278.44 72.77 278.36 66.16C278.13 46.33 278.07 26.97 278.15 8.1C278.16 5.39 278.18 2.69 278.2 0H267.65C267.49 23.57 266.91 46.61 265.47 68.83C265.33 75.64 265.19 82.53 265.02 89.5C264.53 110.43 263.92 132.2 263.13 155.5C263.06 163.59 263.04 171.7 263.03 179.83C263.03 194.06 263.1 208.35 263.25 222.71C263.33 229.89 263.42 237.09 263.55 244.3C266.78 348.49 266.78 423.91 266.14 540.07C266.06 546.97 265.98 553.92 265.89 560.95H265.92Z" fill="#EDE5F4"/>
<path d="M33.55 653.18C34.05 645.5 34.61 638.09 35.27 630.97C35.27 629.38 35.27 627.9 35.27 626.3C35.27 622.09 35.28 617.88 35.29 613.68C35.31 596.89 35.34 580.32 35.38 564.05C35.41 558.45 35.43 552.83 35.45 547.2C35.47 541.56 35.49 535.91 35.51 530.25C35.53 525.04 35.55 519.8 35.58 514.53C35.6 509.26 35.63 503.96 35.66 498.62C35.69 495.36 35.72 492.08 35.76 488.79C35.87 478.92 36 468.91 36.15 458.75C36.23 453.68 36.31 448.57 36.4 443.43C35.2 354.22 35.2 303.16 32.05 227.7C31.94 223.16 31.85 218.65 31.77 214.17C31.54 200.75 31.48 187.64 31.56 174.86C31.6 169.54 31.66 164.26 31.75 159.02C32.33 149 32.95 138.53 33.53 127.7C34.92 82.67 38.58 39.88 34.24 -0.0200195H20.07C19.79 10.26 19.65 20.58 19.47 28.23C19.44 32.93 19.47 37.7 19.53 42.41C19.7 56.53 20.12 70.1 20.08 79.63C20.1 84.86 20.15 90.09 20.23 95.32C20.8 137.09 22.51 178.26 18.9 215.97C18.76 220.58 18.62 225.24 18.45 229.96C17.96 244.13 17.35 258.86 16.56 274.64C16.49 280.12 16.47 285.61 16.46 291.11C16.46 300.74 16.53 310.42 16.68 320.14C16.76 325 16.85 329.88 16.98 334.75C20.21 405.28 20.21 456.34 19.57 534.97C19.49 539.64 19.41 544.35 19.32 549.1C18.96 568.13 18.47 588.05 17.77 610.1C17.58 614.66 17.38 619.27 17.16 623.95C17.01 629.46 16.87 634.93 16.77 640.38C16.7 643.96 16.69 647.52 16.65 651.09C17.25 656.6 17.87 661.93 18.49 666.97H32.85C33.1 661.57 33.31 656.65 33.54 653.15L33.55 653.18Z" fill="#EDE5F4"/>
<path d="M56.03 2.7C55.54 23.63 54.93 45.4 54.14 68.7C54.07 76.79 54.05 84.9 54.04 93.03C54.04 107.26 54.11 121.55 54.26 135.91C54.34 143.09 54.43 150.29 54.56 157.5C57.79 261.69 57.79 337.11 57.15 453.27C57.07 460.17 56.99 467.12 56.9 474.15C56.54 502.27 56.05 531.69 55.35 564.27C55.16 571.01 54.96 577.81 54.74 584.72C54.59 592.86 54.45 600.93 54.35 609C54.28 614.28 54.27 619.55 54.23 624.82C55.36 640.19 56.56 654.65 57.78 667.01H69.81C70.36 652.5 70.73 636.95 71.13 627.87C71.63 616.53 72.19 605.58 72.85 595.07C72.85 592.72 72.85 590.53 72.85 588.17C72.85 581.95 72.86 575.73 72.87 569.53C72.89 544.72 72.92 520.25 72.96 496.21C72.99 487.93 73.01 479.64 73.03 471.32C73.05 462.99 73.07 454.65 73.09 446.28C73.11 438.58 73.13 430.85 73.16 423.06C73.18 415.28 73.21 407.44 73.24 399.56C73.27 394.74 73.3 389.9 73.34 385.04C73.45 370.45 73.58 355.67 73.73 340.67C73.81 333.18 73.89 325.63 73.98 318.03C72.78 186.51 72.78 111.11 69.64 0H56.07C56.05 0.9 56.03 1.79 56.01 2.7H56.03Z" fill="#EDE5F4"/>
<path d="M311.44 652.14C311.38 657.05 311.31 662 311.24 667H327.52C327.54 661.11 327.56 655.22 327.57 649.31C327.59 640.98 327.61 632.64 327.63 624.27C327.65 616.57 327.67 608.84 327.7 601.05C327.73 593.26 327.75 585.43 327.78 577.55C327.81 572.73 327.84 567.89 327.88 563.03C327.99 548.44 328.12 533.66 328.27 518.66C328.35 511.16 328.43 503.62 328.52 496.02C327.32 364.24 327.32 288.81 324.17 177.33C324.06 170.62 323.97 163.96 323.89 157.35C323.66 137.52 323.6 118.16 323.68 99.29C323.72 91.42 323.78 83.64 323.87 75.88C324.45 61.08 325.07 45.61 325.65 29.61C325.86 19.66 326.12 9.78999 326.39 -0.0100098H312.53C313.19 55.42 314.26 109.79 311 160.01C310.86 166.82 310.72 173.71 310.55 180.68C310.06 201.61 309.45 223.38 308.66 246.68C308.59 254.77 308.57 262.88 308.56 271.01C308.56 285.24 308.63 299.53 308.78 313.89C308.86 321.07 308.95 328.27 309.08 335.48C312.31 439.67 312.31 515.09 311.67 631.25C311.59 638.15 311.51 645.1 311.42 652.13L311.44 652.14Z" fill="#EDE5F4"/>
</g>
</g>
<defs>
<clipPath id="clip0_716_9679">
<rect width="375" height="667" fill="white"/>
</clipPath>
</defs>
</svg>
