<svg width="76" height="75" viewBox="0 0 76 75" fill="none" xmlns="http://www.w3.org/2000/svg">
<path d="M35.5981 1.45449C39.2081 0.374492 43.108 1.29449 46.548 3.80449C49.978 6.31449 52.8781 10.3745 54.3881 15.4045C55.8981 20.4445 55.6981 25.4345 54.2081 29.4145C52.7181 33.3945 49.9581 36.3245 46.3481 37.4045C42.7381 38.4845 38.8381 37.5645 35.3981 35.0545C31.9681 32.5445 29.0681 28.4845 27.5581 23.4545C26.0481 18.4145 26.248 13.4245 27.738 9.44449C29.228 5.46449 31.9881 2.53449 35.5981 1.45449Z" fill="white"/>
<path d="M43.2679 38.8545C40.4279 38.8545 37.5079 37.8345 34.8079 35.8645C31.0279 33.1045 28.108 28.7945 26.598 23.7445C25.088 18.6945 25.1579 13.4845 26.8079 9.09446C28.4579 4.70446 31.4779 1.65446 35.3079 0.494461C39.1379 -0.665539 43.348 0.234461 47.128 2.99446C50.908 5.75446 53.8279 10.0645 55.3379 15.1145C56.8479 20.1745 56.778 25.3745 55.128 29.7645C53.478 34.1545 50.458 37.2045 46.628 38.3645C45.528 38.6945 44.4079 38.8545 43.2679 38.8545ZM38.658 2.00446C37.718 2.00446 36.788 2.13446 35.878 2.41446C32.648 3.38446 30.088 6.00446 28.668 9.79446C27.178 13.7745 27.118 18.5245 28.508 23.1645C29.898 27.8045 32.548 31.7345 35.978 34.2445C39.248 36.6245 42.8179 37.4145 46.0479 36.4445C49.2779 35.4745 51.838 32.8545 53.258 29.0645C54.748 25.0845 54.808 20.3345 53.418 15.6945C52.028 11.0545 49.378 7.11446 45.948 4.61446C43.598 2.89446 41.088 2.01446 38.658 2.01446V2.00446Z" fill="#E6C196"/>
<path d="M43.368 36.0644L43.938 34.7644C45.078 32.1444 48.658 31.7244 50.288 33.9844C50.658 34.4944 50.998 35.0444 51.288 35.6144C55.018 42.7544 51.778 51.9544 43.788 56.0844C42.798 56.5944 41.788 57.0044 40.768 57.3144C37.798 58.2144 35.108 55.1844 36.338 52.3344L43.358 36.0744L43.368 36.0644Z" fill="white"/>
<path d="M39.698 58.4744C38.398 58.4744 37.1479 57.9244 36.2379 56.9044C35.0079 55.5244 34.698 53.6244 35.418 51.9344L43.0279 34.3244C43.7179 32.7744 45.1479 31.7344 46.8579 31.5444C48.4979 31.3744 50.068 32.0344 51.038 33.3244L51.0879 33.3944C51.4879 33.9444 51.848 34.5344 52.168 35.1444C53.998 38.6444 54.3279 42.7344 53.0879 46.6644C51.7179 51.0144 48.4879 54.7744 44.2379 56.9644C43.2379 57.4844 42.188 57.9144 41.128 58.2344L41.0479 58.2644C40.5979 58.4044 40.1379 58.4644 39.6879 58.4644L39.698 58.4744ZM43.698 37.8144L37.258 52.7244C36.838 53.7044 37.008 54.7644 37.728 55.5744C38.428 56.3644 39.4379 56.6544 40.4379 56.3644H40.478C41.448 56.0644 42.4079 55.6744 43.3279 55.1944C47.1079 53.2344 49.968 49.9144 51.188 46.0644C52.268 42.6544 51.988 39.1044 50.408 36.0744C50.148 35.5644 49.8479 35.0844 49.5179 34.6244L49.478 34.5644C48.938 33.8144 48.0379 33.4244 47.0879 33.5344C46.0879 33.6444 45.2579 34.2544 44.8579 35.1644L43.7079 37.8244L43.698 37.8144Z" fill="#E6C196"/>
<path d="M56.8482 20.3446H56.8582L56.3482 19.0046C55.3282 16.3346 57.6082 13.5346 60.3482 14.0146C60.9682 14.1246 61.5883 14.2745 62.1983 14.4745C69.8583 16.9745 73.9582 25.8345 71.1282 34.3645C70.7782 35.4245 70.3382 36.4246 69.8282 37.3546C68.3282 40.0746 64.2882 39.7846 63.1782 36.8846L56.8482 20.3446Z" fill="white"/>
<path d="M66.628 40.2345C66.518 40.2345 66.408 40.2345 66.288 40.2245C64.448 40.0945 62.8881 38.9545 62.2281 37.2345L55.378 19.3345H55.3881C54.7881 17.7345 55.078 15.9845 56.178 14.6545C57.258 13.3545 58.868 12.7445 60.498 13.0245C61.168 13.1445 61.848 13.3045 62.498 13.5245C66.258 14.7545 69.3481 17.4445 71.1981 21.1245C73.2581 25.1945 73.568 30.1345 72.068 34.6745C71.708 35.7745 71.238 36.8445 70.688 37.8345C69.858 39.3345 68.328 40.2345 66.618 40.2345H66.628ZM58.298 21.3445L64.108 36.5245C64.488 37.5245 65.358 38.1545 66.438 38.2345C67.498 38.3145 68.448 37.8045 68.958 36.8745C69.448 35.9845 69.858 35.0345 70.188 34.0545C71.528 30.0145 71.258 25.6345 69.438 22.0345C67.828 18.8345 65.148 16.4945 61.898 15.4345C61.338 15.2545 60.768 15.1045 60.188 15.0045C59.278 14.8445 58.358 15.1945 57.748 15.9345C57.108 16.7045 56.938 17.7245 57.288 18.6545L58.318 21.3445H58.298Z" fill="#E6C196"/>
<path d="M35.8384 57.3045L52.8184 64.8545L53.3984 65.1245C56.0184 66.2945 56.3684 69.8545 54.0884 71.4245C53.5584 71.7845 53.0184 72.1145 52.4384 72.3945C45.1984 76.0145 35.9984 72.6345 31.9584 64.6345C31.4584 63.6445 31.0684 62.6345 30.7684 61.6145C29.9184 58.6745 32.9784 56.0245 35.8584 57.3045H35.8384Z" fill="white"/>
<path d="M46.2582 74.8445C40.1882 74.8445 34.1481 71.2245 31.0481 65.0845C30.5281 64.0545 30.1082 62.9845 29.7882 61.8945C29.2882 60.1645 29.8281 58.3445 31.2081 57.1445C32.6081 55.9245 34.5381 55.6245 36.2481 56.3845L53.8181 64.2045C55.3981 64.9145 56.4281 66.3545 56.5781 68.0745C56.7281 69.7445 56.0081 71.3045 54.6481 72.2445L54.5881 72.2845C54.0181 72.6745 53.4581 73.0045 52.8681 73.2945C50.7581 74.3445 48.5082 74.8445 46.2582 74.8445ZM34.2981 57.9645C33.6581 57.9645 33.0381 58.1945 32.5181 58.6445C31.7281 59.3345 31.4181 60.3445 31.7081 61.3245C31.9981 62.2945 32.3681 63.2545 32.8381 64.1745C36.5881 71.6045 45.1782 74.8845 51.9782 71.4945C52.5182 71.2345 53.0081 70.9345 53.5181 70.5945L53.5581 70.5645C54.2881 70.0445 54.6781 69.1845 54.5881 68.2545C54.4981 67.2645 53.8981 66.4345 52.9881 66.0245L35.4281 58.2045C35.0581 58.0345 34.6781 57.9545 34.2981 57.9545V57.9645Z" fill="#E6C196"/>
<path d="M50.7881 40.3044C56.4481 34.9744 64.0781 33.6744 69.3781 37.2244C75.7281 41.4844 76.8181 51.4844 71.2381 59.7244C69.0581 62.9444 66.2081 65.3544 63.1681 66.8044C59.4081 68.6144 54.9281 66.6344 53.7381 62.6844L49.0181 47.0844C48.2881 44.6644 48.9681 42.0244 50.7981 40.3044H50.7881Z" fill="white"/>
<path d="M60.2082 68.4844C59.1382 68.4844 58.0682 68.2644 57.0582 67.8244C54.9782 66.9044 53.4182 65.1444 52.7582 62.9844L48.0382 47.3844C47.1982 44.6044 48.0082 41.5444 50.0882 39.5844C56.1082 33.9244 64.2582 32.6044 69.9182 36.4044C72.7982 38.3344 74.7882 41.4644 75.5182 45.2144C76.4782 50.1344 75.2082 55.6344 72.0382 60.3044C69.8282 63.5644 66.8982 66.1344 63.5682 67.7244C62.4982 68.2344 61.3482 68.4944 60.1882 68.4944L60.2082 68.4844ZM62.5982 36.2344C58.8482 36.2344 54.8082 37.8944 51.4682 41.0344C49.9282 42.4744 49.3382 44.7444 49.9582 46.7944L54.6782 62.3944C55.1582 63.9944 56.3282 65.3044 57.8682 65.9844C59.4182 66.6644 61.1882 66.6344 62.7182 65.9044C65.7282 64.4644 68.3882 62.1344 70.3982 59.1644C73.2682 54.9344 74.4282 49.9844 73.5682 45.5844C72.9382 42.3644 71.2582 39.6944 68.8182 38.0544C66.9882 36.8244 64.8482 36.2344 62.5982 36.2344Z" fill="#E6C196"/>
<path d="M2.78824 24.2145C4.72824 21.4445 7.98822 19.9045 11.7982 19.7545C15.6082 19.6045 19.9182 20.8545 23.7782 23.5745C27.6382 26.2945 30.2682 29.9345 31.4182 33.5945C32.5682 37.2445 32.2482 40.8445 30.3082 43.6245C28.3682 46.3945 25.1082 47.9345 21.2982 48.0845C17.4882 48.2345 13.1782 46.9845 9.31824 44.2645C5.45824 41.5445 2.82823 37.9045 1.67823 34.2445C0.528228 30.5945 0.848244 26.9945 2.78824 24.2145Z" fill="white"/>
<path d="M20.6681 49.0944C16.6381 49.0944 12.4281 47.6844 8.73806 45.0844C4.84806 42.3344 1.99807 38.5944 0.718066 34.5544C-0.561934 30.5044 -0.121934 26.6344 1.96807 23.6544C4.05807 20.6744 7.52807 18.9344 11.7581 18.7744C15.9781 18.6044 20.4581 20.0244 24.3481 22.7744C28.2381 25.5244 31.0881 29.2644 32.3681 33.3044C33.6481 37.3544 33.2081 41.2244 31.1181 44.2044C29.0381 47.1844 25.5581 48.9144 21.3281 49.0844C21.1081 49.0844 20.8881 49.0944 20.6681 49.0944ZM3.59807 24.7944C1.87807 27.2544 1.52806 30.5044 2.61806 33.9444C3.76806 37.5744 6.34808 40.9544 9.88808 43.4444C13.4281 45.9344 17.4681 47.2444 21.2481 47.0844C24.8381 46.9444 27.7581 45.5144 29.4781 43.0544C31.1981 40.5944 31.5481 37.3444 30.4581 33.9044C29.3081 30.2744 26.7281 26.8944 23.1881 24.4044C19.6481 21.9144 15.6181 20.6244 11.8281 20.7644C8.23805 20.9044 5.31807 22.3344 3.59807 24.7944Z" fill="#E6C196"/>
<path d="M24.2984 46.8245L31.1784 56.8745L32.8784 59.3545C35.5284 63.2245 33.1184 68.5845 28.4484 69.1145C27.5684 69.2145 26.6684 69.2345 25.7584 69.1545C17.6984 68.4845 11.6584 60.8245 12.4484 51.8945C12.5484 50.8045 12.7384 49.7445 13.0284 48.7245C14.4684 43.5545 21.2884 42.4145 24.3084 46.8145L24.2984 46.8245Z" fill="white"/>
<path d="M26.8581 70.2144C26.4581 70.2144 26.0681 70.1944 25.6781 70.1644C21.7081 69.8344 18.0581 67.9044 15.3981 64.7444C12.4681 61.2644 11.0281 56.5544 11.4481 51.8244C11.5481 50.6744 11.7581 49.5544 12.0581 48.4744C12.8281 45.6944 15.0781 43.6844 17.9181 43.2144C20.7481 42.7444 23.5081 43.9144 25.1181 46.2744L33.7881 58.9344H33.7781C35.1581 61.0344 35.3481 63.6444 34.2981 65.9444C33.2281 68.2744 31.0881 69.8344 28.5581 70.1244C27.9881 70.1844 27.4181 70.2144 26.8581 70.2144ZM19.1481 45.1044C18.8581 45.1044 18.5581 45.1244 18.2581 45.1744C16.1881 45.5144 14.5581 46.9844 13.9881 49.0044C13.7181 49.9744 13.5281 50.9744 13.4381 51.9944C13.0681 56.2044 14.3381 60.3844 16.9181 63.4544C19.2281 66.2044 22.3981 67.8744 25.8281 68.1644C26.6381 68.2344 27.4781 68.2144 28.3281 68.1244C30.1481 67.9144 31.6981 66.7844 32.4681 65.1044C33.2481 63.3944 33.0881 61.4644 32.0381 59.9244L28.5581 54.8244L23.4681 47.3844C22.4681 45.9244 20.8681 45.0944 19.1381 45.0944L19.1481 45.1044Z" fill="#E6C196"/>
<path d="M49.8625 14.8294C49.6986 14.7333 49.5564 14.5803 49.4654 14.3994C46.4729 8.0767 42.4443 6.18919 42.4011 6.1639C41.8963 5.9374 41.676 5.34447 41.9025 4.83969C42.129 4.33492 42.7133 4.10956 43.2181 4.33605C43.4094 4.42504 47.9372 6.48936 51.2713 13.5342C51.5113 14.0343 51.2925 14.6247 50.7924 14.8647C50.4868 15.0101 50.1299 14.9862 49.8539 14.8243L49.8625 14.8294Z" fill="#F5ECE0"/>
<path d="M68.5769 29.1429C68.432 29.0199 68.3185 28.8447 68.2601 28.6508C66.4053 21.9061 62.7634 19.3507 62.7253 19.3183C62.2673 19.008 62.1528 18.3859 62.4631 17.9279C62.7734 17.4698 63.3879 17.3489 63.8459 17.6592C64.0189 17.7799 68.1219 20.5956 70.1884 28.1106C70.3383 28.6447 70.0207 29.1885 69.4867 29.3384C69.1606 29.4288 68.8131 29.3436 68.5692 29.1364L68.5769 29.1429Z" fill="#F5ECE0"/>
<path d="M22.3701 28.7742C22.1808 28.7581 21.9867 28.6813 21.8266 28.5573C16.4021 24.1407 11.9532 24.173 11.9034 24.1688C11.3503 24.1818 10.896 23.7417 10.883 23.1886C10.8699 22.6355 11.3001 22.1804 11.8532 22.1673C12.0641 22.1652 17.0396 22.0774 23.0835 26.9984C23.5155 27.3463 23.5725 27.9734 23.2245 28.4054C23.0114 28.6683 22.679 28.8005 22.3602 28.7734L22.3701 28.7742Z" fill="#F5ECE0"/>
<path d="M20.9465 63.0393C20.9226 62.8804 20.8454 62.721 20.7286 62.5931C16.5845 58.2729 16.3825 54.5142 16.3762 54.4724C16.359 54.0045 15.9504 53.6469 15.466 53.6685C14.9815 53.6901 14.6056 54.0802 14.6228 54.5481C14.6319 54.7263 14.8127 58.933 19.43 63.7465C19.7568 64.0908 20.3082 64.1019 20.6681 63.7826C20.887 63.5871 20.9855 63.2986 20.9452 63.031L20.9465 63.0393Z" fill="#F5ECE0"/>
<path d="M69.2396 53.3875C69.1799 53.2417 69.1724 53.0654 69.2207 52.8932C71.0475 46.9621 69.2742 43.7172 69.2585 43.6788C69.0299 43.2794 69.2458 42.7515 69.7358 42.4969C70.2259 42.2422 70.802 42.3557 71.0306 42.7551C71.1151 42.9087 73.1446 46.5148 71.1091 53.1233C70.967 53.5939 70.4279 53.9135 69.9048 53.8501C69.5859 53.8104 69.3372 53.6255 69.2365 53.3799L69.2396 53.3875Z" fill="#F5ECE0"/>
<path d="M51.0513 17.289C51.561 17.588 52.2166 17.4171 52.5156 16.9073C52.8145 16.3976 52.6437 15.742 52.1339 15.4431C51.6242 15.1441 50.9686 15.315 50.6696 15.8247C50.3707 16.3344 50.5415 16.99 51.0513 17.289Z" fill="#F5ECE0"/>
<path d="M24.5026 30.4814C25.0914 30.5316 25.6094 30.095 25.6596 29.5062C25.7098 28.9174 25.2731 28.3993 24.6843 28.3492C24.0955 28.299 23.5775 28.7356 23.5273 29.3244C23.4771 29.9132 23.9138 30.4312 24.5026 30.4814Z" fill="#F5ECE0"/>
<path d="M23.7627 65.1226C23.8506 65.707 23.4482 66.252 22.8638 66.3399C22.2795 66.4278 21.7345 66.0254 21.6465 65.441C21.5586 64.8567 21.961 64.3117 22.5454 64.2237C23.1298 64.1358 23.6748 64.5382 23.7627 65.1226Z" fill="#F5ECE0"/>
<path d="M68.0059 56.0374C68.2923 56.5544 68.9435 56.7413 69.4604 56.4549C69.9773 56.1686 70.1642 55.5174 69.8779 55.0004C69.5915 54.4835 68.9403 54.2966 68.4234 54.583C67.9065 54.8693 67.7196 55.5205 68.0059 56.0374Z" fill="#F5ECE0"/>
<path d="M50.0059 70.0374C50.2923 70.5544 50.9435 70.7413 51.4604 70.4549C51.9773 70.1686 52.1642 69.5174 51.8779 69.0004C51.5915 68.4835 50.9403 68.2966 50.4234 68.583C49.9065 68.8693 49.7196 69.5205 50.0059 70.0374Z" fill="#F5ECE0"/>
</svg>
