<svg width="77" height="70" viewBox="0 0 77 70" fill="none" xmlns="http://www.w3.org/2000/svg">
<path d="M2.28408 41.6444C2.28408 41.6444 -0.365883 64.5544 2.44412 66.7144C5.25412 68.8744 10.3441 68.6244 19.6041 67.9344C28.6841 67.2644 49.5441 64.9744 55.0841 64.2244C60.6241 63.4744 72.6841 60.4244 73.7341 58.0644C74.7841 55.7044 75.6841 30.3044 75.6841 30.3044L2.45413 38.1744L2.28408 41.6544V41.6444Z" fill="#F39D1F"/>
<path d="M10.174 69.4244C6.31405 69.4244 3.71402 68.9444 1.83402 67.5044C1.18402 67.0044 -0.335939 65.8344 0.314061 53.3144C0.614061 47.5944 1.23404 42.0444 1.29404 41.5644L1.45408 38.2544L2.35404 37.1744L76.734 29.1844L76.6941 30.3344C76.5441 34.6044 75.744 56.0544 74.654 58.4644C73.184 61.7444 58.924 64.7044 55.224 65.2144C49.764 65.9544 29.0141 68.2344 19.6841 68.9344C15.8641 69.2144 12.7441 69.4344 10.1841 69.4344L10.174 69.4244ZM3.41404 39.0744L3.28403 41.7644C1.69403 55.4944 1.92405 64.9944 3.05405 65.9244C5.59405 67.8745 10.704 67.5944 19.534 66.9344C28.494 66.2644 49.4841 63.9744 54.9541 63.2344C62.7041 62.1844 72.224 59.0144 72.834 57.6544C73.514 56.1244 74.294 41.2244 74.654 31.4244L3.41404 39.0844V39.0744Z" fill="#A46026"/>
<path d="M54.1838 2.35446C51.2138 0.894463 47.6738 1.14446 44.9338 3.00446C40.8938 5.74446 34.4337 10.5245 27.7237 17.0945C16.6837 27.8845 3.55378 33.9245 2.45378 38.1745C1.35378 42.4245 13.1837 41.1845 28.0937 39.5745C43.0037 37.9645 75.1238 33.0545 75.6938 30.3045C76.2038 27.8045 70.1138 10.2045 54.1938 2.35446H54.1838Z" fill="#FEBC12"/>
<path d="M9.45393 42.0645C5.55393 42.0645 3.0739 41.5745 1.9939 40.3245C1.5939 39.8645 1.1939 39.0745 1.4939 37.9245C2.1539 35.3745 5.99391 32.6645 11.3139 28.9045C15.9739 25.6145 21.7639 21.5245 27.0339 16.3845C33.7239 9.84451 40.1639 5.0545 44.3839 2.1845C47.4239 0.124505 51.3539 -0.155494 54.6339 1.46451C70.5139 9.29451 77.3739 27.0945 76.6739 30.5045C76.4839 31.4445 76.1539 33.0245 57.4539 36.3545C46.9639 38.2245 35.2039 39.8145 28.2039 40.5745C20.1239 41.4445 13.8839 42.0745 9.46387 42.0745L9.45393 42.0645ZM50.1339 2.4045C48.5139 2.4045 46.8939 2.8845 45.5039 3.8245C41.3439 6.6445 35.0139 11.3645 28.4239 17.7945C23.0439 23.0545 17.1739 27.1945 12.4639 30.5245C7.87387 33.7645 3.9039 36.5645 3.4239 38.4045C3.3339 38.7645 3.42391 38.8945 3.50391 39.0045C5.24391 41.0145 17.3239 39.7145 27.9839 38.5645C44.9439 36.7345 72.3339 32.1945 74.7239 29.9645C74.8339 27.7145 69.4339 10.9745 53.7439 3.23451C52.6039 2.67451 51.3639 2.39451 50.1339 2.39451V2.4045Z" fill="#A46026"/>
<path d="M27.5438 17.2644C24.8938 19.8344 22.1338 22.1344 19.4438 24.2144C19.7738 25.5344 20.6738 26.6044 22.2238 27.1644C25.0838 28.1944 29.0838 27.0944 30.1138 24.2344C30.9438 21.9244 29.5938 18.8944 27.5438 17.2744V17.2644Z" fill="#F39D1F"/>
<path d="M24.494 28.5345C23.594 28.5345 22.7039 28.3945 21.8939 28.1045C20.1239 27.4645 18.9139 26.1745 18.4739 24.4645L18.314 23.8245L18.8339 23.4245C21.8939 21.0645 24.5139 18.8145 26.8539 16.5545L27.4839 15.9445L28.174 16.4845C30.364 18.2145 32.124 21.6345 31.064 24.5645C30.124 27.1745 27.264 28.5345 24.494 28.5345ZM20.624 24.5545C20.984 25.3245 21.634 25.8745 22.564 26.2045C24.884 27.0345 28.344 26.1845 29.174 23.8745C29.724 22.3445 29.014 20.1345 27.564 18.6245C25.504 20.5845 23.214 22.5345 20.624 24.5545Z" fill="#A46026"/>
<path d="M67.0944 18.2145C66.2644 20.5245 63.8844 21.8145 61.4544 21.3945C58.8044 20.9345 57.1544 18.5045 57.9844 16.1945C58.8144 13.8845 60.7644 12.1545 63.1444 12.5845C65.5244 13.0145 67.9244 15.9045 67.0944 18.2145Z" fill="#F39D1F"/>
<path d="M62.3642 22.4745C62.0042 22.4745 61.6442 22.4445 61.2842 22.3845C59.6242 22.0945 58.2142 21.1445 57.4142 19.7845C56.7042 18.5645 56.5742 17.1745 57.0342 15.8645C58.1242 12.8345 60.6343 11.1245 63.3143 11.6145C64.9543 11.9145 66.6142 13.1345 67.5342 14.7345C68.2742 16.0245 68.4542 17.3845 68.0242 18.5745C67.1642 20.9645 64.8842 22.4945 62.3542 22.4945L62.3642 22.4745ZM62.4242 13.5145C60.7542 13.5145 59.4842 14.9645 58.9242 16.5245C58.6542 17.2645 58.7342 18.0645 59.1442 18.7645C59.6442 19.6245 60.5443 20.2145 61.6243 20.4045C63.6043 20.7445 65.5042 19.6845 66.1542 17.8745C66.4542 17.0345 66.0743 16.1545 65.8143 15.7045C65.1843 14.6145 64.0442 13.7545 62.9642 13.5545C62.7842 13.5245 62.6042 13.5045 62.4242 13.5045V13.5145Z" fill="#A46026"/>
<path d="M45.9844 42.1745C49.8544 43.5645 53.2244 41.4445 55.0144 37.7345C55.5444 36.6445 55.3544 36.7845 55.7744 35.6245L41.9644 37.3445C42.4644 40.1545 43.7044 41.3545 45.9844 42.1745Z" fill="#DF7726"/>
<path d="M48.3342 43.5946C47.4542 43.5946 46.5542 43.4346 45.6542 43.1146C42.8642 42.1146 41.5142 40.4946 40.9842 37.5246L40.8042 36.4846L57.2742 34.4346L56.7242 35.9646C56.5742 36.3846 56.5142 36.6146 56.4542 36.8046C56.3442 37.1846 56.2642 37.4546 55.9242 38.1646C54.2442 41.6446 51.4242 43.5946 48.3342 43.5946ZM43.1842 38.1946C43.7342 39.9646 44.7542 40.6646 46.3142 41.2246C50.0242 42.5546 52.7742 40.0646 54.1042 37.2946C54.2042 37.0846 54.2742 36.9346 54.3242 36.8046L43.1742 38.1946H43.1842Z" fill="#A46026"/>
<path d="M49.9641 26.0046C46.0941 24.6146 42.1542 27.0246 40.7642 30.8946C39.9142 33.2746 40.6741 35.8146 42.2841 37.7446C46.7341 37.1046 51.3941 36.3746 55.7741 35.6146C56.8641 31.8146 53.7241 27.3446 49.9641 25.9946V26.0046Z" fill="#F39D1F"/>
<path d="M41.8741 38.8245L41.5141 38.3945C39.5341 36.0345 38.9041 33.1045 39.8141 30.5645C41.4641 25.9645 46.0641 23.5445 50.2941 25.0645C54.3741 26.5345 57.9941 31.4745 56.7241 35.8945L56.5541 36.4945L55.9341 36.6045C51.7841 37.3245 47.1041 38.0645 42.4141 38.7345L41.8641 38.8145L41.8741 38.8245ZM47.7141 26.6145C46.7541 26.6145 45.7941 26.8645 44.9141 27.3545C43.4441 28.1745 42.3041 29.5545 41.7041 31.2445C41.0841 32.9645 41.4641 34.9645 42.7141 36.6845C46.9541 36.0745 51.1541 35.4145 54.9441 34.7545C55.4241 31.5545 52.6241 28.0245 49.6241 26.9545C49.0041 26.7345 48.3541 26.6245 47.7141 26.6245V26.6145Z" fill="#A46026"/>
<path d="M44.8441 49.6545C43.9741 52.0845 42.2741 53.0945 39.5141 52.6545C36.9641 52.2545 35.1741 48.9245 36.0541 46.4945C36.9341 44.0645 39.3841 43.4045 41.8141 44.2745C44.2441 45.1445 45.7241 47.2245 44.8541 49.6545H44.8441Z" fill="#DF7726"/>
<path d="M40.694 53.7546C40.274 53.7546 39.824 53.7146 39.354 53.6446C37.904 53.4146 36.5839 52.4546 35.7139 50.9946C34.7939 49.4546 34.574 47.6446 35.104 46.1646C35.614 44.7346 36.644 43.6846 38.014 43.2146C39.244 42.7846 40.7139 42.8346 42.1439 43.3446C43.5839 43.8646 44.7439 44.7546 45.4139 45.8746C46.1639 47.1046 46.2939 48.5746 45.7839 50.0046C44.8839 52.5046 43.174 53.7646 40.694 53.7646V53.7546ZM39.814 44.9146C39.414 44.9146 39.024 44.9746 38.684 45.0946C37.884 45.3746 37.314 45.9646 36.994 46.8346C36.664 47.7446 36.834 48.9546 37.444 49.9746C38.004 50.9146 38.814 51.5346 39.674 51.6746C41.934 52.0346 43.1939 51.3246 43.9139 49.3246C44.6739 47.2146 43.074 45.8046 41.484 45.2246C40.914 45.0146 40.344 44.9146 39.824 44.9146H39.814Z" fill="#A46026"/>
<path d="M17.7238 52.7845C17.3238 54.7145 14.7838 55.3145 12.7738 54.2745C11.0238 53.3645 9.95384 51.5645 10.6138 49.7045C11.2738 47.8445 13.3239 46.8845 15.1839 47.5445C17.0439 48.2045 18.2838 50.0245 17.7238 52.7745V52.7845Z" fill="#DF7726"/>
<path d="M14.8241 55.7745C13.9741 55.7745 13.1041 55.5645 12.3141 55.1545C9.97411 53.9445 8.8841 51.5645 9.6741 49.3645C10.5241 46.9945 13.1441 45.7545 15.5241 46.6045C18.0641 47.5145 19.3141 50.0245 18.7041 52.9845C18.4941 54.0245 17.8141 54.8645 16.8041 55.3545C16.2041 55.6445 15.5241 55.7845 14.8241 55.7845V55.7745ZM13.9841 48.3345C12.9341 48.3345 11.9341 48.9845 11.5641 50.0345C11.0441 51.4745 12.0341 52.7545 13.2341 53.3745C14.1241 53.8345 15.1841 53.8945 15.9441 53.5345C16.3841 53.3245 16.6541 52.9945 16.7441 52.5745C17.1541 50.5545 16.4641 49.0645 14.8441 48.4845C14.5541 48.3845 14.2641 48.3345 13.9741 48.3345H13.9841Z" fill="#A46026"/>
<path d="M35.7439 61.9845C33.5939 61.2145 30.8439 61.7145 30.0639 63.8745C29.7239 64.8345 29.7538 65.8245 30.0838 66.7145C33.0638 66.4345 36.2039 66.0545 39.2239 65.6645C39.1639 63.9945 37.5439 62.6345 35.7539 61.9945L35.7439 61.9845Z" fill="#DF7726"/>
<path d="M29.4141 67.7745L29.1441 67.0545C28.7241 65.9245 28.7141 64.6645 29.1241 63.5345C30.1141 60.7745 33.4341 60.0945 36.0841 61.0445C38.5241 61.9245 40.1541 63.7145 40.2141 65.6245L40.2441 66.5345L39.3441 66.6545C35.9341 67.1045 32.8541 67.4545 30.1741 67.7145L29.4041 67.7845L29.4141 67.7745ZM33.7741 62.6445C32.5441 62.6445 31.3941 63.1345 31.0141 64.2145C30.8541 64.6745 30.7941 65.1545 30.8541 65.6345C32.9941 65.4245 35.3741 65.1445 37.9641 64.8145C37.4841 63.9745 36.4441 63.2945 35.4141 62.9345C34.8941 62.7445 34.3241 62.6445 33.7741 62.6445Z" fill="#A46026"/>
<path d="M67.5542 54.1245C66.7642 56.3145 63.6641 57.7445 61.4741 56.9545C59.2841 56.1645 58.2941 53.2745 59.0841 51.0845C59.8741 48.8945 62.8842 47.5545 65.0142 48.7345C67.1442 49.9145 68.3442 51.9345 67.5542 54.1245Z" fill="#DF7726"/>
<path d="M62.8139 58.1845C62.2339 58.1845 61.674 58.0945 61.134 57.9045C59.844 57.4445 58.7839 56.3545 58.2239 54.9145C57.7039 53.5645 57.674 52.0445 58.134 50.7545C58.624 49.3845 59.8239 48.2245 61.3339 47.6545C62.7639 47.1145 64.2839 47.1945 65.4939 47.8645C68.1639 49.3545 69.3739 52.0045 68.4939 54.4645C67.7039 56.6545 65.1939 58.1845 62.8139 58.1845ZM63.2539 49.3045C62.8639 49.3045 62.4539 49.3845 62.0439 49.5345C61.0939 49.8945 60.3239 50.6145 60.0339 51.4345C59.7339 52.2745 59.7639 53.3045 60.1039 54.1945C60.4539 55.1045 61.064 55.7545 61.824 56.0245C63.514 56.6245 66.0239 55.4645 66.6239 53.7945C67.2939 51.9445 65.9139 50.3845 64.5339 49.6245C64.1539 49.4145 63.7239 49.3145 63.2539 49.3145V49.3045Z" fill="#A46026"/>
</svg>
