<svg width="76" height="75" viewBox="0 0 76 75" fill="none" xmlns="http://www.w3.org/2000/svg">
<path d="M35.5946 1.45449C39.2046 0.374492 43.1046 1.29449 46.5446 3.80449C49.9746 6.31449 52.8746 10.3745 54.3846 15.4045C55.8946 20.4445 55.6947 25.4345 54.2047 29.4145C52.7147 33.3945 49.9547 36.3245 46.3447 37.4045C42.7347 38.4845 38.8346 37.5645 35.3946 35.0545C31.9646 32.5445 29.0646 28.4845 27.5546 23.4545C26.0446 18.4145 26.2446 13.4245 27.7346 9.44449C29.2246 5.46449 31.9846 2.53449 35.5946 1.45449Z" fill="#FCDAD9"/>
<path d="M43.2743 38.8545C40.4343 38.8545 37.5143 37.8345 34.8143 35.8645C31.0343 33.1045 28.1143 28.7945 26.6043 23.7445C25.0943 18.6945 25.1643 13.4845 26.8143 9.09446C28.4643 4.70446 31.4843 1.65446 35.3143 0.494461C39.1443 -0.665539 43.3543 0.234461 47.1343 2.99446C50.9143 5.75446 53.8343 10.0645 55.3443 15.1145C56.8543 20.1745 56.7843 25.3745 55.1343 29.7645C53.4843 34.1545 50.4643 37.2045 46.6343 38.3645C45.5343 38.6945 44.4143 38.8545 43.2743 38.8545ZM38.6643 2.00446C37.7243 2.00446 36.7943 2.13446 35.8843 2.41446C32.6543 3.38446 30.0943 6.00446 28.6743 9.79446C27.1843 13.7745 27.1243 18.5245 28.5143 23.1645C29.9043 27.8045 32.5543 31.7345 35.9843 34.2445C39.2543 36.6245 42.8243 37.4145 46.0543 36.4445C49.2843 35.4745 51.8443 32.8545 53.2643 29.0645C54.7543 25.0845 54.8143 20.3345 53.4243 15.6945C52.0343 11.0545 49.3843 7.11446 45.9543 4.61446C43.6043 2.89446 41.0943 2.01446 38.6643 2.01446V2.00446Z" fill="#F3B5B5"/>
<path d="M43.3641 36.0644L43.9342 34.7644C45.0742 32.1444 48.6541 31.7244 50.2841 33.9844C50.6541 34.4944 50.9941 35.0444 51.2841 35.6144C55.0141 42.7544 51.7741 51.9544 43.7841 56.0844C42.7941 56.5944 41.7842 57.0044 40.7642 57.3144C37.7942 58.2144 35.1041 55.1844 36.3341 52.3344L43.3542 36.0744L43.3641 36.0644Z" fill="white"/>
<path d="M39.7043 58.4744C38.4043 58.4744 37.1543 57.9244 36.2443 56.9044C35.0143 55.5244 34.7043 53.6244 35.4243 51.9344L43.0343 34.3244C43.7243 32.7744 45.1542 31.7344 46.8642 31.5444C48.5042 31.3744 50.0743 32.0344 51.0443 33.3244L51.0943 33.3944C51.4943 33.9444 51.8543 34.5344 52.1743 35.1444C54.0043 38.6444 54.3343 42.7344 53.0943 46.6644C51.7243 51.0144 48.4942 54.7744 44.2442 56.9644C43.2442 57.4844 42.1943 57.9144 41.1343 58.2344L41.0543 58.2644C40.6043 58.4044 40.1443 58.4644 39.6943 58.4644L39.7043 58.4744ZM43.7043 37.8144L37.2643 52.7244C36.8443 53.7044 37.0143 54.7644 37.7343 55.5744C38.4343 56.3644 39.4443 56.6544 40.4443 56.3644H40.4843C41.4543 56.0644 42.4143 55.6744 43.3343 55.1944C47.1143 53.2344 49.9743 49.9144 51.1943 46.0644C52.2743 42.6544 51.9943 39.1044 50.4143 36.0744C50.1543 35.5644 49.8543 35.0844 49.5243 34.6244L49.4844 34.5644C48.9444 33.8144 48.0443 33.4244 47.0943 33.5344C46.0943 33.6444 45.2642 34.2544 44.8642 35.1644L43.7143 37.8244L43.7043 37.8144Z" fill="#E6C196"/>
<path d="M56.8443 20.3446H56.8543L56.3443 19.0046C55.3243 16.3346 57.6043 13.5346 60.3443 14.0146C60.9643 14.1246 61.5843 14.2746 62.1943 14.4746C69.8543 16.9746 73.9542 25.8345 71.1242 34.3645C70.7742 35.4245 70.3343 36.4246 69.8243 37.3546C68.3243 40.0746 64.2843 39.7845 63.1743 36.8846L56.8443 20.3446Z" fill="white"/>
<path d="M66.6344 40.2445C66.5244 40.2445 66.4144 40.2445 66.2944 40.2345C64.4544 40.1045 62.8945 38.9645 62.2345 37.2445L55.3844 19.3445H55.3944C54.7944 17.7445 55.0844 15.9945 56.1844 14.6645C57.2644 13.3645 58.8744 12.7545 60.5044 13.0345C61.1744 13.1545 61.8544 13.3145 62.5044 13.5345C66.2644 14.7645 69.3544 17.4545 71.2044 21.1345C73.2644 25.2045 73.5744 30.1445 72.0744 34.6845C71.7144 35.7845 71.2444 36.8545 70.6944 37.8445C69.8644 39.3445 68.3344 40.2445 66.6244 40.2445H66.6344ZM58.3044 21.3445L64.1144 36.5245C64.4944 37.5245 65.3644 38.1545 66.4444 38.2345C67.5044 38.3145 68.4545 37.8045 68.9645 36.8745C69.4545 35.9845 69.8644 35.0345 70.1944 34.0545C71.5344 30.0145 71.2644 25.6345 69.4444 22.0345C67.8344 18.8345 65.1544 16.4945 61.9044 15.4345C61.3444 15.2545 60.7744 15.1045 60.1944 15.0045C59.2844 14.8445 58.3644 15.1945 57.7544 15.9345C57.1144 16.7045 56.9444 17.7245 57.2944 18.6545L58.3244 21.3445H58.3044Z" fill="#E6C196"/>
<path d="M35.8442 57.3045L52.8243 64.8545L53.4042 65.1245C56.0242 66.2945 56.3743 69.8545 54.0943 71.4245C53.5643 71.7845 53.0243 72.1145 52.4443 72.3945C45.2043 76.0145 36.0042 72.6345 31.9642 64.6345C31.4642 63.6445 31.0742 62.6345 30.7742 61.6145C29.9242 58.6745 32.9843 56.0245 35.8643 57.3045H35.8442Z" fill="white"/>
<path d="M46.2645 74.8445C40.1945 74.8445 34.1545 71.2245 31.0545 65.0845C30.5345 64.0545 30.1145 62.9845 29.7945 61.8945C29.2945 60.1645 29.8345 58.3445 31.2145 57.1445C32.6145 55.9245 34.5445 55.6245 36.2545 56.3845L53.8245 64.2045C55.4045 64.9145 56.4345 66.3545 56.5845 68.0745C56.7345 69.7445 56.0145 71.3045 54.6545 72.2445L54.5945 72.2845C54.0245 72.6745 53.4645 73.0045 52.8745 73.2945C50.7645 74.3445 48.5145 74.8445 46.2645 74.8445ZM34.3045 57.9745C33.6645 57.9745 33.0445 58.2045 32.5245 58.6545C31.7345 59.3445 31.4245 60.3545 31.7145 61.3345C32.0045 62.3045 32.3745 63.2645 32.8445 64.1845C36.5945 71.6145 45.1846 74.8945 51.9846 71.5045C52.5246 71.2445 53.0145 70.9445 53.5245 70.6045L53.5645 70.5745C54.2945 70.0545 54.6845 69.1945 54.5945 68.2645C54.5045 67.2745 53.9044 66.4445 52.9944 66.0345L35.4345 58.2145C35.0645 58.0445 34.6845 57.9645 34.3045 57.9645V57.9745Z" fill="#E6C196"/>
<path d="M50.7847 40.3144C56.4447 34.9844 64.0747 33.6844 69.3747 37.2344C75.7247 41.4944 76.8148 51.4944 71.2348 59.7344C69.0548 62.9544 66.2047 65.3644 63.1647 66.8144C59.4047 68.6244 54.9248 66.6444 53.7348 62.6944L49.0147 47.0944C48.2847 44.6744 48.9647 42.0344 50.7947 40.3144H50.7847Z" fill="#DCBBD9"/>
<path d="M60.2146 68.4844C59.1446 68.4844 58.0746 68.2644 57.0646 67.8244C54.9846 66.9044 53.4245 65.1444 52.7645 62.9844L48.0446 47.3844C47.2046 44.6044 48.0146 41.5444 50.0946 39.5844C56.1146 33.9244 64.2646 32.6044 69.9246 36.4044C72.8046 38.3344 74.7945 41.4644 75.5245 45.2144C76.4845 50.1344 75.2146 55.6344 72.0446 60.3044C69.8346 63.5644 66.9046 66.1344 63.5746 67.7244C62.5046 68.2344 61.3546 68.4944 60.1946 68.4944L60.2146 68.4844ZM62.6046 36.2444C58.8546 36.2444 54.8146 37.9044 51.4746 41.0444C49.9346 42.4844 49.3446 44.7544 49.9646 46.8044L54.6846 62.4044C55.1646 64.0044 56.3345 65.3144 57.8745 65.9944C59.4245 66.6744 61.1946 66.6444 62.7246 65.9144C65.7346 64.4744 68.3946 62.1444 70.4046 59.1744C73.2746 54.9445 74.4346 49.9944 73.5746 45.5944C72.9446 42.3744 71.2646 39.7044 68.8246 38.0644C66.9946 36.8344 64.8546 36.2444 62.6046 36.2444Z" fill="#DC9FC7"/>
<path d="M2.78432 24.2245C4.72432 21.4545 7.98433 19.9145 11.7943 19.7645C15.6043 19.6145 19.9143 20.8645 23.7743 23.5845C27.6343 26.3045 30.2643 29.9445 31.4143 33.6045C32.5643 37.2545 32.2443 40.8545 30.3043 43.6345C28.3643 46.4045 25.1043 47.9445 21.2943 48.0945C17.4843 48.2445 13.1743 46.9945 9.31435 44.2745C5.45435 41.5545 2.82433 37.9145 1.67433 34.2545C0.524332 30.6045 0.844317 27.0045 2.78432 24.2245Z" fill="#F9EECD"/>
<path d="M20.6744 49.0944C16.6444 49.0944 12.4344 47.6844 8.74443 45.0844C4.85443 42.3344 2.00441 38.5944 0.724414 34.5544C-0.555586 30.5044 -0.115586 26.6344 1.97441 23.6544C4.06441 20.6744 7.53445 18.9344 11.7645 18.7744C15.9845 18.6044 20.4644 20.0244 24.3544 22.7744C28.2444 25.5244 31.0944 29.2644 32.3744 33.3044C33.6544 37.3544 33.2144 41.2244 31.1244 44.2044C29.0444 47.1844 25.5644 48.9144 21.3344 49.0844C21.1144 49.0844 20.8944 49.0944 20.6744 49.0944ZM3.60442 24.7944C1.88442 27.2544 1.53444 30.5044 2.62444 33.9444C3.77444 37.5744 6.3544 40.9544 9.8944 43.4444C13.4344 45.9344 17.4744 47.2444 21.2544 47.0844C24.8444 46.9444 27.7644 45.5144 29.4844 43.0544C31.2044 40.5944 31.5544 37.3444 30.4644 33.9044C29.3144 30.2744 26.7344 26.8944 23.1944 24.4044C19.6544 21.9144 15.6244 20.6244 11.8344 20.7644C8.2444 20.9044 5.32442 22.3344 3.60442 24.7944Z" fill="#FBDC91"/>
<path d="M24.3042 46.8345L31.1842 56.8845L32.8843 59.3645C35.5343 63.2345 33.1243 68.5945 28.4543 69.1245C27.5743 69.2245 26.6743 69.2445 25.7643 69.1645C17.7043 68.4945 11.6643 60.8345 12.4543 51.9045C12.5543 50.8145 12.7442 49.7545 13.0342 48.7345C14.4742 43.5645 21.2942 42.4245 24.3142 46.8245L24.3042 46.8345Z" fill="#D2E8C6"/>
<path d="M26.8547 70.2144C26.4547 70.2144 26.0647 70.1944 25.6747 70.1644C21.7047 69.8344 18.0547 67.9044 15.3947 64.7444C12.4647 61.2645 11.0247 56.5544 11.4447 51.8244C11.5447 50.6744 11.7547 49.5544 12.0547 48.4744C12.8247 45.6944 15.0747 43.6844 17.9147 43.2144C20.7447 42.7444 23.5047 43.9144 25.1147 46.2744L33.7847 58.9344H33.7747C35.1547 61.0344 35.3447 63.6444 34.2947 65.9444C33.2247 68.2744 31.0847 69.8344 28.5547 70.1244C27.9847 70.1844 27.4147 70.2144 26.8547 70.2144ZM19.1547 45.1044C18.8647 45.1044 18.5647 45.1244 18.2647 45.1744C16.1947 45.5144 14.5647 46.9844 13.9947 49.0044C13.7247 49.9744 13.5347 50.9744 13.4447 51.9944C13.0747 56.2044 14.3447 60.3844 16.9247 63.4544C19.2347 66.2044 22.4047 67.8744 25.8347 68.1644C26.6447 68.2344 27.4847 68.2144 28.3347 68.1244C30.1547 67.9144 31.7047 66.7845 32.4747 65.1045C33.2547 63.3945 33.0947 61.4645 32.0447 59.9244L28.5647 54.8244L23.4747 47.3844C22.4747 45.9244 20.8747 45.0944 19.1447 45.0944L19.1547 45.1044Z" fill="#BFDD96"/>
<path d="M49.2873 14.9655C49.1234 14.8694 48.9812 14.7164 48.8902 14.5355C45.8978 8.21281 41.8691 6.3253 41.8259 6.30001C41.3211 6.07351 41.1008 5.48058 41.3273 4.9758C41.5538 4.47102 42.1381 4.24566 42.6429 4.47216C42.8342 4.56115 47.362 6.62546 50.6961 13.6703C50.9361 14.1704 50.7173 14.7608 50.2172 15.0008C49.9116 15.1462 49.5547 15.1223 49.2787 14.9604L49.2873 14.9655Z" fill="#FABFBE"/>
<path d="M69.0905 29.2791C68.9457 29.1561 68.8321 28.9809 68.7738 28.787C66.919 22.0423 63.2771 19.4869 63.239 19.4546C62.781 19.1442 62.6664 18.5222 62.9768 18.0641C63.2871 17.6061 63.9016 17.4851 64.3596 17.7954C64.5326 17.9161 68.6355 20.7319 70.702 28.2469C70.8519 28.7809 70.5344 29.3247 70.0003 29.4746C69.6743 29.565 69.3268 29.4798 69.0829 29.2727L69.0905 29.2791Z" fill="#F5ECE0"/>
<path d="M22.8828 28.9104C22.6935 28.8943 22.4994 28.8175 22.3393 28.6935C16.9148 24.2769 12.4659 24.3092 12.4161 24.305C11.863 24.3181 11.4087 23.8779 11.3957 23.3248C11.3826 22.7717 11.8128 22.3166 12.3659 22.3035C12.5768 22.3014 17.5523 22.2136 23.5962 27.1346C24.0282 27.4826 24.0852 28.1097 23.7372 28.5417C23.5241 28.8045 23.1917 28.9368 22.8729 28.9096L22.8828 28.9104Z" fill="#F7E19D"/>
<path d="M21.4592 63.1756C21.4352 63.0166 21.358 62.8572 21.2413 62.7294C17.0972 58.4092 16.8952 54.6504 16.8889 54.6086C16.8717 54.1408 16.4631 53.7831 15.9786 53.8047C15.4942 53.8263 15.1183 54.2164 15.1355 54.6843C15.1446 54.8625 15.3254 59.0692 19.9427 63.8827C20.2694 64.227 20.8209 64.2381 21.1808 63.9188C21.3997 63.7233 21.4982 63.4348 21.4579 63.1672L21.4592 63.1756Z" fill="#BEDE9E"/>
<path d="M69.7533 53.5238C69.6935 53.3779 69.6861 53.2017 69.7344 53.0294C71.5612 47.0983 69.7879 43.8534 69.7722 43.815C69.5436 43.4156 69.7595 42.8878 70.2495 42.6331C70.7395 42.3784 71.3156 42.4919 71.5442 42.8913C71.6288 43.0449 73.6583 46.6511 71.6228 53.2595C71.4807 53.7302 70.9416 54.0498 70.4184 53.9863C70.0996 53.9466 69.8509 53.7617 69.7502 53.5161L69.7533 53.5238Z" fill="#CF9DBE"/>
<path d="M50.4771 17.4251C50.9868 17.7241 51.6424 17.5532 51.9414 17.0435C52.2403 16.5337 52.0694 15.8781 51.5597 15.5792C51.05 15.2802 50.3944 15.4511 50.0954 15.9608C49.7964 16.4706 49.9673 17.1261 50.4771 17.4251Z" fill="#FABFBE"/>
<path d="M25.0163 30.6177C25.6051 30.6678 26.1231 30.2312 26.1733 29.6424C26.2234 29.0536 25.7868 28.5356 25.198 28.4854C24.6092 28.4352 24.0912 28.8719 24.041 29.4607C23.9908 30.0495 24.4274 30.5675 25.0163 30.6177Z" fill="#F7E19D"/>
<path d="M24.2754 65.2587C24.3633 65.8431 23.9609 66.3881 23.3765 66.476C22.7922 66.5639 22.2472 66.1615 22.1592 65.5771C22.0713 64.9928 22.4737 64.4478 23.0581 64.3598C23.6425 64.2719 24.1875 64.6743 24.2754 65.2587Z" fill="#BEDE9E"/>
<path d="M68.5186 56.1737C68.805 56.6906 69.4562 56.8775 69.9731 56.5912C70.49 56.3048 70.6769 55.6536 70.3906 55.1367C70.1042 54.6197 69.453 54.4328 68.9361 54.7192C68.4192 55.0055 68.2323 55.6567 68.5186 56.1737Z" fill="#CF9DBE"/>
<path d="M50.5186 70.1737C50.805 70.6906 51.4562 70.8775 51.9731 70.5912C52.49 70.3048 52.6769 69.6536 52.3906 69.1367C52.1042 68.6197 51.453 68.4328 50.9361 68.7192C50.4192 69.0055 50.2323 69.6567 50.5186 70.1737Z" fill="#F5ECE0"/>
</svg>
