<svg width="72" height="78" viewBox="0 0 72 78" fill="none" xmlns="http://www.w3.org/2000/svg">
<g clip-path="url(#clip0_442_363)">
<path d="M14.1098 76.25C13.4098 76.25 12.7098 75.79 11.9498 74.85C11.4198 74.18 11.4898 73.21 12.1298 72.63L12.2598 72.52C13.9598 71.1 19.7698 65.89 24.2098 57.55C23.1998 56.4 19.0598 55.04 15.2298 54.33C12.7598 56.68 10.0898 56.87 9.29978 56.87C9.14978 56.87 9.06978 56.87 9.06978 56.87C8.57978 56.83 8.17978 56.43 8.13978 55.94C8.13978 55.88 8.07978 54.9 8.47978 53.56C7.95978 53.65 7.43978 53.7 6.91978 53.7C5.91978 53.7 5.25978 53.52 5.18978 53.5C4.70978 53.36 4.39978 52.89 4.47978 52.4C4.48978 52.3 4.59978 51.61 5.02978 50.68C2.64978 49.94 1.34978 48.63 1.28978 48.57C0.939779 48.21 0.909779 47.65 1.21978 47.26C1.30978 47.15 3.09978 44.88 6.69978 44.07C5.80978 42.98 5.48978 42.13 5.46978 42.08C5.36978 41.8 5.38978 41.5 5.53978 41.24C5.68978 40.98 5.93978 40.81 6.22978 40.75C6.28978 40.74 6.61978 40.68 7.16978 40.68C7.71978 40.68 8.61978 40.74 9.69978 41.04C9.23978 40.71 8.75978 40.39 8.27978 40.07C7.70978 40.16 7.13978 40.2 6.58978 40.2C4.91978 40.2 3.89978 39.81 3.78978 39.76C3.51978 39.65 3.30978 39.42 3.20978 39.14C3.11978 38.86 3.14978 38.55 3.30978 38.3C3.34978 38.24 4.03978 37.14 5.66978 36.04C3.19978 34.14 2.62978 31.78 2.59978 31.66C2.48978 31.17 2.74978 30.68 3.21978 30.5C3.31978 30.46 4.23978 30.13 5.64978 30.13C5.99978 30.13 6.34978 30.15 6.69978 30.19C6.43978 29.28 6.40978 28.68 6.40978 28.58C6.40978 28.29 6.52978 28 6.74978 27.81C6.92978 27.65 7.16978 27.56 7.40978 27.56C7.45978 27.56 7.50978 27.56 7.55978 27.57C7.66978 27.59 8.69978 27.76 10.0898 28.56C10.2598 28.62 10.4198 28.68 10.5798 28.74C10.3198 28.25 10.0398 27.75 9.76978 27.28C7.36978 24.31 7.71978 21.3 7.72978 21.18C7.78978 20.68 8.20978 20.31 8.70978 20.31C8.82978 20.31 9.51978 20.32 10.4898 20.59C10.8498 18.13 11.9498 16.64 11.9998 16.57C12.1998 16.31 12.4998 16.17 12.7998 16.17C12.9598 16.17 13.1298 16.21 13.2798 16.29C13.4098 16.36 16.1698 17.92 17.4698 21.74C18.5298 20.45 19.4798 19.92 19.5298 19.89C19.6798 19.81 19.8498 19.77 20.0098 19.77C20.1298 19.77 20.2498 19.79 20.3698 19.84C20.5798 19.92 20.7598 20.07 20.8798 20.27C20.5398 19.33 20.4898 18.7 20.4898 18.65C20.4698 18.36 20.5798 18.07 20.7898 17.86C20.9798 17.68 21.2298 17.57 21.4898 17.57C21.5198 17.57 21.5498 17.57 21.5898 17.57C21.7098 17.58 22.5898 17.68 23.8198 18.25C23.9698 17.41 24.1998 16.89 24.2398 16.81C24.4098 16.45 24.7698 16.23 25.1498 16.23C25.2498 16.23 25.3498 16.24 25.4398 16.27C25.5498 16.3 26.2898 16.54 27.2198 17.19C27.1498 17.11 27.0798 17.04 27.0098 16.97C23.5198 14.51 23.1998 11.14 23.1898 10.99C23.1498 10.49 23.4798 10.04 23.9698 9.92999C24.0198 9.91999 24.4798 9.81999 25.2098 9.81999C25.5298 9.81999 25.9298 9.83999 26.3698 9.89999C25.7498 8.09999 25.9098 6.71999 25.9198 6.64999C25.9798 6.14999 26.3998 5.77999 26.8998 5.76999C27.0198 5.76999 27.7098 5.77999 28.6798 6.04999C29.0398 3.58999 30.1398 2.09999 30.1898 2.02999C30.3898 1.76999 30.6898 1.62999 30.9898 1.62999C31.1498 1.62999 31.3198 1.66999 31.4698 1.74999C31.5898 1.81999 34.0998 3.23999 35.4598 6.67999C36.3998 5.62999 37.1898 5.17999 37.2398 5.15999C37.3898 5.07999 37.5598 5.03999 37.7198 5.03999C37.8398 5.03999 37.9598 5.05999 38.0798 5.10999C38.1498 5.13999 38.2098 5.16999 38.2698 5.20999C38.3298 4.98999 38.3798 4.85999 38.3898 4.83999C38.5398 4.44999 38.9198 4.20999 39.3198 4.20999C39.3998 4.20999 39.4798 4.20999 39.5598 4.23999C39.6298 4.25999 40.0598 4.36999 40.6698 4.65999C41.3998 2.44999 42.7098 1.28999 42.7798 1.22999C42.9698 1.06999 43.1998 0.98999 43.4298 0.98999C43.6598 0.98999 43.8998 1.06999 44.0898 1.23999C44.1498 1.28999 45.2598 2.28999 45.9898 4.17999C46.6698 3.51999 47.1898 3.21999 47.2798 3.17999C47.4298 3.09999 47.5998 3.05999 47.7598 3.05999C47.8798 3.05999 47.9998 3.07999 48.1198 3.12999C48.3998 3.23999 48.6098 3.45999 48.7098 3.72999C48.7298 3.79999 49.1198 4.92999 48.9998 6.73999C50.0798 3.95999 52.0698 2.75999 52.1698 2.69999C52.3298 2.60999 52.4998 2.55999 52.6798 2.55999C52.9798 2.55999 53.2698 2.68999 53.4598 2.93999C53.4898 2.97999 53.9398 3.55999 54.3398 4.56999C56.4198 2.15999 59.0198 1.79999 59.1498 1.77999C59.1898 1.77999 59.2298 1.77999 59.2798 1.77999C59.6898 1.77999 60.0598 2.02999 60.2098 2.41999C60.2598 2.54999 61.2498 5.20999 59.8898 8.34999C61.0998 8.39999 61.8898 8.69999 61.9898 8.72999C62.4198 8.89999 62.6798 9.32999 62.6198 9.78999C62.5998 9.90999 62.2998 12.15 60.3398 14.13C61.6598 14.24 62.4998 14.61 62.5998 14.66C63.0498 14.87 63.2798 15.38 63.1398 15.86C63.1198 15.93 62.7098 17.21 61.4698 18.57C62.2898 18.71 62.7598 18.99 63.0198 19.46C63.2598 19.9 63.2298 20.42 62.9498 20.89C62.2498 22.04 60.6398 22.88 58.5098 23.68C58.6498 23.73 58.7698 23.81 58.8798 23.92C59.0898 24.13 59.1898 24.42 59.1598 24.71C59.1598 24.72 59.1598 24.75 59.1598 24.79C60.7598 24.84 61.7898 25.29 61.9098 25.35C62.3598 25.56 62.5898 26.07 62.4498 26.55C62.4298 26.63 62.2798 27.1 61.8998 27.74C62.8098 27.44 63.7398 27.29 64.6798 27.29C65.7998 27.29 66.5298 27.51 66.6098 27.53C67.0898 27.68 67.3798 28.16 67.2998 28.65C67.2898 28.72 67.2098 29.16 66.9598 29.79C69.2198 30.36 70.4698 31.59 70.5298 31.65C70.8798 32 70.9198 32.57 70.6198 32.96C70.5698 33.02 69.6498 34.2 67.8198 35.06C68.5198 35.69 68.8598 36.19 68.9098 36.27C69.0698 36.52 69.1098 36.82 69.0298 37.1C68.9398 37.38 68.7398 37.61 68.4698 37.73C68.3498 37.78 67.2598 38.23 65.4498 38.23C65.1898 38.23 64.9298 38.23 64.6598 38.2C64.8298 38.4 64.9798 38.58 65.0898 38.73C65.5098 39.3 65.6998 39.7 65.7198 39.74C65.8398 40.01 65.8398 40.32 65.7198 40.58C65.5998 40.85 65.3598 41.04 65.0798 41.12C65.0198 41.14 64.4198 41.29 63.4498 41.29C62.2898 41.29 60.4598 41.07 58.3198 40C58.2898 39.98 57.9998 39.84 57.5598 39.56C58.3398 41.19 58.5198 42.61 58.5698 43.31C58.6698 43.31 58.7598 43.31 58.8498 43.31C59.2998 43.31 59.5698 43.36 59.5698 43.36C60.0598 43.45 60.4198 43.88 60.3998 44.38C60.3998 44.47 60.3698 44.94 60.1798 45.61C60.4498 45.58 60.7298 45.56 60.9998 45.56C62.9798 45.56 64.2898 46.37 64.4298 46.46C64.8198 46.71 64.9798 47.19 64.8298 47.63C64.7898 47.73 64.0398 49.82 61.6898 51.1C62.2898 51.69 62.5798 52.2 62.6298 52.29C62.8498 52.69 62.7698 53.2 62.4298 53.51C62.3598 53.58 61.8798 54 61.0698 54.38C61.3198 54.49 61.4698 54.57 61.4898 54.58C61.9198 54.83 62.1098 55.36 61.9198 55.82C61.8798 55.92 61.5798 56.64 60.8598 57.51C63.0298 59.07 63.7398 61 63.7698 61.1C63.9398 61.57 63.7298 62.09 63.2898 62.32C63.1498 62.39 61.8698 63.03 59.8998 63.03C59.3098 63.03 58.7198 62.97 58.1298 62.86C58.1598 64.13 57.9698 64.9 57.9598 64.94C57.8898 65.23 57.6898 65.46 57.4298 65.59C57.2898 65.66 57.1398 65.69 56.9898 65.69C56.8498 65.69 56.7098 65.66 56.5898 65.6C56.5298 65.57 55.9798 65.32 55.1898 64.73C55.0098 64.62 54.8198 64.47 54.6098 64.26C54.5198 64.19 54.3798 64.06 54.2298 63.93C53.2598 63.13 51.7598 62.5 50.2998 62.04C50.4498 62.17 50.5198 62.26 50.5398 62.27C50.8698 62.64 50.8798 63.2 50.5598 63.59C50.5098 63.65 50.2198 63.98 49.6898 64.39C51.3398 66.03 51.7898 67.72 51.8098 67.81C51.9298 68.29 51.6798 68.8 51.2198 68.98C51.1098 69.02 50.1198 69.41 48.5998 69.41C48.3098 69.41 48.0198 69.4 47.7398 69.37C48.0198 70.27 48.0598 70.87 48.0598 70.97C48.0698 71.26 47.9498 71.55 47.7398 71.75C47.5498 71.92 47.3098 72.01 47.0598 72.01C47.0198 72.01 46.9798 72.01 46.9298 72.01C46.8198 72 44.3698 71.66 41.8098 69.15C41.4098 71.34 40.3398 72.62 40.2798 72.7C40.0798 72.93 39.7998 73.05 39.5198 73.05C39.3398 73.05 39.1498 73 38.9798 72.89C38.9298 72.86 38.1098 72.32 37.2698 71.2C36.4298 72.91 35.3398 73.77 35.2798 73.81C35.0998 73.95 34.8798 74.02 34.6698 74.02C34.4198 74.02 34.1598 73.92 33.9698 73.73C33.8698 73.63 31.4798 71.24 31.8098 66.99C31.5698 65.42 29.9098 62.98 27.2698 60.33C25.2398 64.05 21.6798 69.35 15.6698 75.28C15.4998 75.45 15.3898 75.56 15.3398 75.61C15.0698 75.98 14.6198 76.21 14.1298 76.21L14.1098 76.25ZM37.8998 40.12C36.5098 42.51 35.1498 44.95 33.8598 47.38C31.9398 51.01 30.6098 53.64 29.6698 55.52C30.7198 55.18 32.1298 54.41 33.4598 53.03C35.6398 50.76 37.0698 44.89 37.2598 44.03C37.2598 41.88 38.1398 40.48 38.1798 40.42C38.3698 40.13 38.6898 39.96 39.0198 39.96C39.1598 39.96 39.2998 39.99 39.4398 40.05C39.5198 40.09 40.0098 40.32 40.6298 40.84C40.9998 40.31 41.3898 39.87 41.7498 39.52C41.6898 39.52 41.6298 39.52 41.5698 39.52C40.8198 39.52 40.0098 39.6 39.1798 39.77C38.6998 39.86 38.2698 39.99 37.9098 40.13L37.8998 40.12ZM31.9898 42.41C30.8998 43.86 29.1698 46.01 27.9298 46.91C27.7298 47.05 27.5498 47.18 27.3898 47.29C26.1998 48.12 26.0198 48.25 25.2398 51.49C24.7698 53.42 25.3398 54.46 25.8698 54.98C26.3198 54.26 26.8098 53.43 27.3298 52.51C27.9798 51.35 29.1898 49.07 29.6198 47.91C29.8098 47.41 30.1198 46.73 30.4798 45.94C30.9698 44.88 31.5698 43.57 31.9898 42.4V42.41ZM53.6498 44.09C53.8598 44.41 54.0198 44.74 54.1598 45.05C54.4198 44.84 54.6798 44.65 54.9498 44.49C54.5498 44.39 54.1098 44.26 53.6598 44.09H53.6498ZM45.3298 40.4C45.4898 40.87 45.6298 41.42 45.7198 42.05L46.5198 41.93C46.3098 41.56 46.0998 41.17 45.9098 40.78C45.7298 40.64 45.5298 40.52 45.3298 40.4ZM29.9598 38.87C31.3598 38.99 32.2698 39.35 32.5598 39.48C32.5598 39.04 32.4998 38.66 32.4398 38.22C32.3398 37.45 32.2098 36.48 32.2898 34.88C32.3098 34.45 32.2198 34.04 32.0498 33.66C31.9098 34.91 31.4498 36.87 29.9598 38.86V38.87ZM26.2098 30.86C26.3098 31.01 26.6598 31.57 26.9598 32.46C28.2198 31.84 29.3498 31.59 30.1298 31.5C29.8198 31.27 29.5498 31.11 29.3798 31.01C29.2498 31.01 29.1598 31.01 29.1598 31.01C28.2198 30.95 27.3098 30.79 26.4498 30.54C26.3798 30.65 26.2998 30.77 26.2098 30.88V30.86ZM53.7298 25.28C52.5898 25.7 51.5698 26.23 50.8698 26.67C52.2098 26.57 53.2598 25.84 53.2698 25.83C53.6198 25.55 53.9598 25.3 54.2898 25.09C54.0898 25.16 53.8998 25.22 53.7298 25.28ZM21.0198 20.64C21.1498 21.12 21.4298 22.45 21.1598 24.33C21.5898 23.84 22.0198 23.43 22.4098 23.1C21.7398 22.2 21.3098 21.35 21.0198 20.64Z" fill="#89AD3E"/>
<path d="M43.4599 2C43.4599 2 45.1199 3.46 45.5499 6.29C46.6799 4.68 47.7999 4.06 47.7999 4.06C47.7999 4.06 48.5399 6.18 47.4999 9.35C47.4999 9.35 47.4999 9.35 47.4999 9.36C47.2399 10.3 47.9699 11.75 48.3499 11.75C48.3999 11.75 48.4499 11.73 48.4799 11.67C48.7899 11.21 49.5499 8.43 49.5499 8.43C50.2999 4.98 52.6899 3.57 52.6899 3.57C52.6899 3.57 53.7199 4.87 53.9499 7.07C54.0699 6.78 54.1599 6.62 54.1599 6.62C56.0499 3.2 59.2999 2.79 59.2999 2.79C59.2999 2.79 60.4799 5.84 58.3599 9.13C58.3599 9.13 58.2799 9.26 58.0999 9.48C58.6099 9.38 59.0899 9.35 59.5099 9.35C60.7899 9.35 61.6399 9.68 61.6399 9.68C61.6399 9.68 61.2299 12.93 57.8099 14.82C57.8099 14.82 57.6799 14.9 57.4299 15L55.3899 15.97L57.0399 15.52C57.9899 15.21 58.8599 15.11 59.6099 15.11C61.1899 15.11 62.1999 15.58 62.1999 15.58C62.1999 15.58 61.5499 17.7 59.1499 19.25C59.4899 19.31 59.7999 19.39 60.0899 19.47C61.5199 19.49 62.5099 19.72 62.1099 20.37C60.9799 22.22 55.7299 23.48 53.3799 24.35C51.0299 25.22 47.5099 27.23 49.7299 27.62C50.0099 27.67 50.2799 27.69 50.5499 27.69C52.3999 27.69 53.8399 26.65 53.8399 26.65C56.1699 24.76 58.1699 24.61 58.1699 24.61C58.1699 24.61 58.1199 25.09 57.8499 25.85C58.2199 25.8 58.5699 25.78 58.8899 25.78C60.4699 25.78 61.4899 26.25 61.4899 26.25C61.4899 26.25 61.1499 27.38 60.0299 28.6C60.0299 28.6 60.0299 28.61 60.0099 28.62C60.0099 28.62 59.9999 28.63 59.9899 28.64C59.8099 28.83 59.1099 29.6 59.3499 29.74C59.3699 29.75 59.3999 29.76 59.4399 29.76C59.7099 29.76 60.3999 29.47 60.9099 29.23C61.0899 29.13 61.2799 29.05 61.4599 28.97C61.4899 28.95 61.5099 28.94 61.5099 28.94H61.4999C62.7199 28.43 63.8399 28.28 64.6899 28.28C65.6899 28.28 66.3199 28.48 66.3199 28.48C66.3199 28.48 66.1599 29.39 65.4699 30.54C68.2799 30.81 69.8199 32.36 69.8199 32.36C69.8199 32.36 68.4799 34.12 65.6899 34.74C67.3799 35.75 68.0699 36.82 68.0699 36.82C68.0699 36.82 67.0999 37.24 65.4499 37.24C64.4899 37.24 63.2999 37.1 61.9299 36.65C62.0899 36.98 62.3099 37.3 62.5399 37.6C63.3699 38.24 63.9399 38.87 64.2999 39.35C64.6699 39.85 64.8199 40.18 64.8199 40.18C64.8199 40.18 64.3199 40.32 63.4499 40.32C62.3699 40.32 60.7099 40.11 58.7599 39.14C58.7599 39.14 58.2899 38.92 57.6499 38.44C57.1399 38.14 56.3399 37.71 55.9299 37.71C55.7599 37.71 55.6599 37.78 55.6699 37.96C55.6799 38.17 55.7299 38.37 55.7999 38.55C56.0199 38.87 56.2199 39.19 56.3899 39.5C57.6599 41.81 57.5799 43.77 57.5799 43.77C57.5799 43.77 57.4499 43.78 57.2099 43.78C56.3499 43.78 54.1199 43.61 51.7699 42C51.9099 42.63 51.9799 43.21 52.0099 43.71C53.5399 45.05 53.6599 47.1 53.6599 47.1C54.1199 46.39 54.5499 46.02 54.5499 46.02C56.2399 44.54 57.9699 44.33 58.8299 44.33C59.1799 44.33 59.3799 44.36 59.3799 44.36C59.3799 44.36 59.3399 45.7 58.3299 47.17C58.5599 47.05 58.6999 47 58.6999 47C59.5299 46.68 60.2999 46.57 60.9799 46.57C62.7199 46.57 63.8599 47.31 63.8599 47.31C63.8599 47.31 62.9999 49.81 59.9799 50.73C59.9799 50.73 59.8599 50.77 59.6399 50.81C61.0999 51.63 61.7299 52.77 61.7299 52.77C61.7299 52.77 60.8199 53.61 59.2499 53.94C57.4999 54.6 53.8799 54.72 53.8799 54.72L53.9299 54.78C54.1199 55 54.2999 55.21 54.4499 55.41C54.5699 55.35 54.6499 55.33 54.6499 55.33C55.7999 54.89 56.8399 54.74 57.7499 54.74C59.7199 54.74 60.9799 55.46 60.9799 55.46C60.9799 55.46 60.5299 56.59 59.2699 57.72C62.0099 59.16 62.8199 61.44 62.8199 61.44C62.8199 61.44 61.6699 62.03 59.8899 62.03C59.0499 62.03 58.0699 61.9 57.0099 61.51C57.2899 63.47 56.9799 64.69 56.9799 64.69C56.9799 64.69 56.4699 64.47 55.7299 63.9C55.6199 63.84 55.4799 63.73 55.2999 63.56C55.2999 63.56 55.2999 63.56 55.2899 63.55C55.1699 63.44 55.0399 63.33 54.8999 63.2C52.2899 61.05 47.1599 60.26 47.1599 60.26C46.8899 60.52 46.5699 60.78 46.2099 61.04C48.5599 61.58 49.7899 62.94 49.7899 62.94C49.7899 62.94 49.1899 63.65 48.0099 64.28C50.2899 65.94 50.8299 68.06 50.8299 68.06C50.8299 68.06 49.9499 68.41 48.5899 68.41C47.8699 68.41 46.9999 68.31 46.0599 68C46.9999 69.73 47.0499 71 47.0499 71C47.0499 71 44.4299 70.67 41.8499 67.73C41.8499 67.73 41.3899 67.22 40.8799 66.32C41.3399 69.89 39.5099 72.04 39.5099 72.04C39.5099 72.04 37.9499 71.04 37.0299 68.79C36.4399 71.64 34.6499 73.02 34.6499 73.02C34.6499 73.02 32.4499 70.87 32.7999 66.97C32.4699 64.1 28.5399 60.15 26.9899 58.68C22.3699 67.8 14.7999 74.64 14.5599 74.97C14.4299 75.15 14.2799 75.22 14.1099 75.22C13.6499 75.22 13.0999 74.65 12.7299 74.19C12.5199 73.93 12.5599 73.56 12.7999 73.34C13.0299 73.13 20.1599 67.5 25.3499 57.51C24.4099 54.87 14.8899 53.23 14.8899 53.23C12.5699 55.68 9.95991 55.85 9.28991 55.85C9.17991 55.85 9.12991 55.85 9.12991 55.85C9.12991 55.85 9.00991 54 10.2799 51.93C8.96991 52.53 7.77991 52.68 6.90991 52.68C6.03991 52.68 5.45991 52.52 5.45991 52.52C5.45991 52.52 5.62991 51.36 6.53991 50C3.58991 49.48 1.99991 47.85 1.99991 47.85C1.99991 47.85 4.21991 44.98 8.81991 44.77C6.94991 43.22 6.39991 41.71 6.39991 41.71C6.39991 41.71 6.66991 41.66 7.14991 41.66C8.15991 41.66 10.0799 41.88 12.3499 43.24C12.3499 43.24 12.3699 43.24 12.3899 43.26C14.8199 44.7 16.6099 46.48 16.6099 46.48C16.6699 44.32 8.48991 38.98 8.48991 38.98C7.76991 39.11 7.12991 39.16 6.56991 39.16C5.03991 39.16 4.14991 38.8 4.14991 38.8C4.14991 38.8 5.11991 37.24 7.59991 36.06C4.23991 34.31 3.56991 31.41 3.56991 31.41C3.56991 31.41 4.37991 31.1 5.64991 31.1C6.40991 31.1 7.32991 31.21 8.33991 31.56C7.43991 29.81 7.41991 28.53 7.41991 28.53C7.41991 28.53 8.37991 28.68 9.68991 29.45C11.2299 29.96 12.5299 30.98 12.5299 30.98C12.7399 30.31 10.5999 26.7 10.5999 26.7C8.37991 24.01 8.71991 21.28 8.71991 21.28C8.79991 21.28 9.93991 21.29 11.3699 21.96C11.4299 18.97 12.7999 17.15 12.7999 17.15C12.7999 17.15 16.0699 18.95 16.9299 23.61C16.9299 23.61 16.9799 23.85 16.9999 24.26C18.3199 21.68 20.0099 20.74 20.0099 20.74C20.0099 20.74 20.8899 23.24 19.4099 26.85C19.4099 26.85 18.9499 28.04 17.8299 29.33C18.9599 28.97 20.6099 26.77 20.6099 26.77C21.6899 24.92 22.9299 23.84 23.8399 23.23C21.6599 20.75 21.4899 18.53 21.4899 18.53C21.4899 18.53 22.8899 18.67 24.6799 19.84C24.6799 18.24 25.1499 17.2 25.1499 17.2C25.1499 17.2 26.3499 17.57 27.6099 18.77C29.4299 19.69 29.5499 19.7 29.5499 19.7C29.8199 18.35 27.6499 16.17 27.6499 16.17C24.4299 13.95 24.1799 10.88 24.1799 10.88C24.1799 10.88 24.5699 10.79 25.1999 10.79C25.9399 10.79 27.0199 10.91 28.2299 11.41C26.6199 8.98 26.9099 6.74 26.9099 6.74C26.9899 6.74 28.1299 6.75 29.5599 7.42C29.6199 4.43 30.9899 2.61 30.9899 2.61C30.9899 2.61 34.1699 4.36 35.0799 8.88C36.3299 6.8 37.7299 6.02 37.7299 6.02C37.7299 6.02 38.5099 8.26 37.3399 11.56C37.2499 12.84 37.4599 13.11 37.4599 13.11L38.4799 11.4C39.1699 10.46 39.2099 9.21 39.2099 9.21C38.6499 6.87 39.3199 5.17 39.3199 5.17C39.3199 5.17 40.2199 5.39 41.3099 6.16C41.7699 3.38 43.4299 1.95 43.4299 1.95M24.5999 26.02C25.3499 25.83 26.0099 25.78 26.4799 25.78C26.9799 25.78 27.2799 25.84 27.2799 25.84C27.2799 25.84 27.2599 26.19 27.1199 26.74C27.4399 26.71 27.7799 26.69 28.1399 26.69C28.2599 26.69 28.3799 26.69 28.5099 26.69L28.3899 26.5C28.0399 26.28 27.7199 26.04 27.4399 25.81C26.3499 25.36 25.5199 24.8 25.0299 24.41C24.9499 24.88 24.8199 25.42 24.6199 26.01M22.5499 32.61L25.3699 31.41C25.3699 31.41 26.0399 32.37 26.3099 33.99C28.5399 32.53 30.5899 32.45 31.0099 32.45C31.0599 32.45 31.0899 32.45 31.0899 32.45C31.0899 32.45 31.4499 36.17 28.0899 39.51C28.0899 39.51 27.9199 39.68 27.5999 39.94C28.0999 39.87 28.5699 39.85 28.9999 39.85C31.0199 39.85 32.1999 40.44 32.1999 40.44C32.1999 40.44 29.1299 44.82 27.3299 46.12C25.5299 47.43 25.2199 47.24 24.2499 51.28C23.2799 55.31 26.1399 56.39 26.1499 56.39C26.6999 55.56 27.3699 54.46 28.1899 53.03C28.3099 52.81 29.9899 49.8 30.5499 48.29C31.1399 46.73 33.2299 42.83 33.4899 40.64C33.7499 38.45 33.1299 37.98 33.2799 34.95C33.4299 31.92 29.6299 30.03 29.6299 30.03C29.6299 30.03 29.6099 30.03 29.5999 30.03C29.3599 30.03 29.2199 30.02 29.2199 30.02C27.8699 29.93 26.7699 29.64 25.8999 29.31C25.6499 30.75 22.5299 32.63 22.5299 32.63M28.5599 56.73C29.7199 56.73 32.0499 55.95 34.1799 53.72C36.7499 51.04 38.2599 44.14 38.2599 44.14C38.2299 42.2 39.0199 40.96 39.0199 40.96C39.0199 40.96 39.9299 41.38 40.8299 42.45C41.9699 40.17 43.6799 39.26 43.6799 39.26C43.6799 39.26 44.7499 40.76 44.8099 43.19L48.1999 42.7C47.6799 41.99 47.1699 41.14 46.7099 40.14C45.4299 39.11 43.6899 38.52 41.5599 38.52C40.7499 38.52 39.8899 38.61 38.9799 38.78C38.2299 38.93 37.6499 39.12 37.1999 39.34C35.8899 41.57 34.4599 44.12 32.9799 46.91C30.4899 51.62 28.9799 54.64 28.0099 56.64C28.1399 56.7 28.3299 56.73 28.5699 56.73M38.9399 9.21C38.9399 9.21 39.0099 9.22 39.2199 9.26C39.1599 9.26 38.9399 9.21 38.9399 9.21ZM43.4599 0C42.9899 0 42.5299 0.16 42.1499 0.49C41.9899 0.63 40.9299 1.59 40.1299 3.37C39.9799 3.32 39.8699 3.29 39.8199 3.28C39.6599 3.24 39.4999 3.22 39.3499 3.22C38.6999 3.22 38.0899 3.53 37.7199 4.06C37.3999 4.06 37.0799 4.15 36.7899 4.31C36.7099 4.36 36.3299 4.58 35.7999 5.02C34.2599 2.19 32.0999 0.97 31.9799 0.91C31.6799 0.74 31.3399 0.66 31.0199 0.66C30.4099 0.66 29.8099 0.94 29.4199 1.46C29.2899 1.64 28.4099 2.86 27.9199 4.89C27.4099 4.81 27.0599 4.8 26.9399 4.8C25.9299 4.8 25.0799 5.55 24.9499 6.55C24.9299 6.72 24.8399 7.6 25.0699 8.85C24.3399 8.86 23.8599 8.96 23.7699 8.98C22.7999 9.2 22.1299 10.1 22.2099 11.09C22.2099 11.21 22.4199 13.34 24.0999 15.55C23.7799 15.75 23.5199 16.04 23.3499 16.41C23.3299 16.46 23.2499 16.64 23.1499 16.93C22.3399 16.66 21.7999 16.6 21.6999 16.59C21.6399 16.59 21.5699 16.59 21.5099 16.59C20.9899 16.59 20.4899 16.79 20.1099 17.16C19.6899 17.57 19.4699 18.15 19.5099 18.74C19.5099 18.76 19.5099 18.8 19.5199 18.86C19.3599 18.9 19.2099 18.96 19.0699 19.04C18.9599 19.1 18.4699 19.38 17.8299 19.97C16.2799 16.85 13.9199 15.52 13.7899 15.45C13.4899 15.28 13.1499 15.2 12.8299 15.2C12.2199 15.2 11.6199 15.48 11.2299 16C11.0999 16.17 10.2199 17.4 9.72991 19.43C9.21991 19.35 8.86991 19.34 8.74991 19.34C7.73991 19.34 6.88991 20.09 6.75991 21.09C6.71991 21.41 6.46991 23.91 8.12991 26.69C7.92991 26.64 7.79991 26.62 7.72991 26.61C7.62991 26.59 7.52991 26.59 7.42991 26.59C6.94991 26.59 6.47991 26.76 6.10991 27.08C5.66991 27.47 5.41991 28.03 5.42991 28.62C5.42991 28.67 5.42991 28.86 5.46991 29.15C4.01991 29.18 3.05991 29.52 2.86991 29.59C1.93991 29.95 1.40991 30.94 1.62991 31.91C1.65991 32.03 2.14991 34.08 4.08991 36C3.03991 36.9 2.53991 37.66 2.45991 37.79C2.14991 38.29 2.07991 38.9 2.25991 39.46C2.43991 40.02 2.85991 40.47 3.40991 40.69C3.52991 40.74 3.91991 40.88 4.54991 41.01C4.36991 41.46 4.36991 41.97 4.53991 42.43C4.56991 42.52 4.72991 42.93 5.08991 43.51C2.05991 44.6 0.519912 46.54 0.439912 46.65C-0.170088 47.44 -0.100088 48.55 0.589912 49.27C0.739912 49.43 1.81991 50.48 3.74991 51.28C3.57991 51.82 3.51991 52.19 3.50991 52.26C3.36991 53.25 3.97991 54.19 4.93991 54.47C5.07991 54.51 5.81991 54.71 6.93991 54.71C7.03991 54.71 7.12991 54.71 7.22991 54.71C7.12991 55.43 7.14991 55.91 7.15991 56.02C7.21991 57.01 8.02991 57.8 9.00991 57.88C9.00991 57.88 9.11991 57.88 9.31991 57.88C10.1699 57.88 12.9299 57.69 15.5599 55.41C18.6599 56.03 21.6799 57.02 22.9599 57.81C18.6599 65.56 13.2599 70.41 11.6399 71.76C11.5599 71.83 11.4999 71.88 11.4799 71.9C10.4599 72.83 10.3299 74.4 11.1899 75.48C12.1499 76.68 13.1099 77.26 14.1299 77.26C14.8999 77.26 15.6099 76.91 16.1099 76.3C16.1699 76.24 16.2599 76.15 16.3899 76.03C21.0399 71.44 24.7699 66.74 27.4899 62.04C29.3599 64.07 30.5899 65.92 30.8199 67.08C30.5099 71.71 33.1699 74.37 33.2799 74.49C33.6699 74.87 34.1699 75.06 34.6799 75.06C35.1099 75.06 35.5399 74.92 35.8999 74.64C36.0299 74.54 36.7199 73.98 37.4499 72.93C37.9699 73.43 38.3699 73.7 38.4599 73.76C38.7899 73.97 39.1699 74.08 39.5399 74.08C40.1099 74.08 40.6699 73.84 41.0699 73.37C41.1999 73.22 41.8799 72.38 42.3899 70.98C44.6299 72.69 46.5699 72.99 46.8399 73.03C46.9199 73.04 47.0099 73.05 47.0899 73.05C47.5899 73.05 48.0699 72.86 48.4399 72.52C48.8699 72.12 49.1099 71.55 49.0899 70.97C49.0899 70.92 49.0799 70.73 49.0299 70.44C50.4799 70.38 51.4299 70.02 51.6199 69.95C52.5499 69.57 53.0499 68.57 52.8099 67.6C52.7599 67.39 52.3699 66.02 51.1399 64.51C51.2499 64.4 51.3199 64.32 51.3599 64.28C51.5199 64.09 51.6399 63.88 51.7199 63.66C52.4499 63.97 53.1199 64.34 53.6399 64.76C53.7599 64.87 53.8799 64.98 53.9899 65.08C54.2199 65.31 54.4399 65.48 54.6599 65.62C55.4899 66.24 56.0999 66.52 56.2099 66.57C56.4699 66.68 56.7399 66.74 57.0199 66.74C57.3199 66.74 57.6199 66.67 57.8999 66.54C58.4299 66.28 58.8199 65.8 58.9599 65.23C58.9799 65.15 59.0799 64.73 59.1299 64.04C59.3999 64.06 59.6599 64.07 59.9299 64.07C62.1399 64.07 63.6199 63.33 63.7799 63.25C64.6699 62.79 65.0799 61.75 64.7399 60.81C64.6599 60.58 64.0299 58.92 62.2599 57.37C62.6599 56.76 62.8399 56.32 62.8799 56.23C63.0999 55.67 63.0599 55.07 62.7999 54.56C62.9899 54.42 63.1099 54.31 63.1399 54.28C63.8199 53.66 63.9799 52.65 63.5399 51.84C63.5099 51.79 63.4099 51.61 63.2299 51.36C64.6899 50.25 65.5199 48.86 65.8199 47.99C66.1199 47.12 65.7899 46.16 65.0199 45.66C64.8599 45.56 63.4899 44.71 61.4399 44.61C61.4399 44.53 61.4399 44.48 61.4399 44.45C61.4699 43.45 60.7599 42.59 59.7799 42.42C59.7399 42.42 59.6499 42.4 59.5199 42.39C59.4799 42.14 59.4299 41.86 59.3599 41.57C61.0499 42.19 62.5099 42.34 63.5099 42.34C64.5899 42.34 65.2699 42.17 65.3999 42.13C65.9699 41.98 66.4399 41.58 66.6899 41.05C66.9399 40.52 66.9399 39.9 66.6899 39.37C66.6799 39.34 66.6499 39.29 66.6199 39.22C67.9299 39.09 68.7399 38.77 68.9199 38.69C69.4599 38.46 69.8699 38 70.0399 37.43C70.2099 36.87 70.1299 36.26 69.8099 35.76C69.7799 35.72 69.6799 35.56 69.4999 35.34C70.7199 34.55 71.3699 33.74 71.4799 33.6C72.0899 32.8 72.0099 31.68 71.3099 30.97C71.1599 30.82 70.1299 29.83 68.2999 29.16C68.3399 29.01 68.3599 28.9 68.3699 28.85C68.5399 27.86 67.9499 26.9 66.9999 26.61C66.8499 26.56 66.0099 26.32 64.7699 26.32C64.3699 26.32 63.9699 26.34 63.5799 26.39C63.6199 25.59 63.1799 24.81 62.4199 24.46C62.3199 24.41 61.6599 24.12 60.6199 23.95C62.1299 23.25 63.2799 22.47 63.9099 21.43C64.3799 20.66 64.4199 19.75 63.9999 19C63.7999 18.63 63.5299 18.36 63.2099 18.15C63.8899 17.14 64.1599 16.34 64.1999 16.18C64.4899 15.22 64.0299 14.2 63.1299 13.78C63.0699 13.75 62.7699 13.62 62.2899 13.48C63.4799 11.69 63.7099 10.05 63.7199 9.95C63.8399 9.04 63.3099 8.16 62.4499 7.83C62.3399 7.79 61.9499 7.65 61.3599 7.53C62.1799 4.58 61.2999 2.22 61.2499 2.09C60.9499 1.31 60.1999 0.81 59.3899 0.81C59.3099 0.81 59.2199 0.81 59.1399 0.83C59.0099 0.85 56.8299 1.15 54.7399 2.93C54.5499 2.61 54.3999 2.42 54.3599 2.36C53.9699 1.87 53.3899 1.6 52.7899 1.6C52.4399 1.6 52.0899 1.69 51.7699 1.88C51.5999 1.98 50.7399 2.52 49.8299 3.61C49.8099 3.53 49.7899 3.47 49.7799 3.44C49.5899 2.88 49.1599 2.44 48.6099 2.23C48.3799 2.14 48.1399 2.1 47.8899 2.1C47.5599 2.1 47.2199 2.18 46.9199 2.35C46.8699 2.38 46.7099 2.47 46.4799 2.63C45.7799 1.36 45.0099 0.65 44.8799 0.54C44.4999 0.21 44.0299 0.04 43.5599 0.04L43.4599 0ZM32.0899 52.96C32.8199 51.53 33.6999 49.84 34.7499 47.84C35.0499 47.26 35.3599 46.68 35.6799 46.11C34.9599 48.47 33.8899 51.14 32.7499 52.34C32.5299 52.57 32.3099 52.77 32.0899 52.96ZM26.0599 52.71C26.0599 52.43 26.1099 52.11 26.1999 51.73C26.8899 48.86 26.9699 48.81 27.9499 48.12C28.1199 48 28.2999 47.87 28.5099 47.72C28.5599 47.68 28.6099 47.65 28.6599 47.61C28.2299 48.73 27.0299 50.99 26.4399 52.03C26.3099 52.26 26.1799 52.48 26.0599 52.7V52.71Z" fill="#537636"/>
<path d="M53.4598 11.38C53.4598 11.38 39.2898 25.22 35.0098 37.78C35.0098 37.78 42.8598 30.79 61.4998 33.26" stroke="#6A943E" stroke-width="2" stroke-linecap="round" stroke-linejoin="round"/>
<path d="M38.68 30.03C38.68 30.03 37.9 21.76 32.27 15.6" stroke="#6A943E" stroke-width="2" stroke-linecap="round" stroke-linejoin="round"/>
<path d="M31.6602 58.69C31.6602 58.69 41.9502 51.42 55.4502 51.26" stroke="#6A943E" stroke-width="2" stroke-linecap="round" stroke-linejoin="round"/>
<path d="M40.9302 54.0601C40.9302 54.0601 48.5902 54.3501 52.4502 58.1101" stroke="#6A943E" stroke-width="2" stroke-linecap="round" stroke-linejoin="round"/>
<path d="M34.2598 57.11C34.2598 57.11 37.6298 58.52 39.3898 63.31" stroke="#6A943E" stroke-width="2" stroke-linecap="round" stroke-linejoin="round"/>
<path d="M38.6001 54.99C38.6001 54.99 41.6001 52.19 42.8601 47.86" stroke="#6A943E" stroke-width="2" stroke-linecap="round" stroke-linejoin="round"/>
<path d="M23.0598 54.43C23.0598 54.43 21.1598 52.41 20.4398 47.88C19.7298 43.34 16.3398 30.12 13.5098 26.22" stroke="#6A943E" stroke-width="2" stroke-linecap="round" stroke-linejoin="round"/>
<path d="M21.4699 51.67C21.4699 51.67 14.0799 45.85 10.9199 47.19" stroke="#6A943E" stroke-width="2" stroke-linecap="round" stroke-linejoin="round"/>
<path d="M19.7998 44.58C19.7998 44.58 20.7998 40.09 23.0498 37.97" stroke="#6A943E" stroke-width="2" stroke-linecap="round" stroke-linejoin="round"/>
</g>
<defs>
<clipPath id="clip0_442_363">
<rect width="71.82" height="77.25" fill="white"/>
</clipPath>
</defs>
</svg>
