<svg width="76" height="75" viewBox="0 0 76 75" fill="none" xmlns="http://www.w3.org/2000/svg">
<path d="M13.8944 40.2644C9.21441 46.2444 7.82444 54.2644 10.2344 61.4644C12.5744 68.4744 18.4144 75.7544 32.7744 73.4944C58.8844 69.3944 48.3044 41.6544 38.9644 37.4144C31.8144 34.1744 21.6344 30.3644 13.8944 40.2644Z" fill="#C7DD8E"/>
<path d="M15.9944 42.2444C11.9544 47.4044 10.7543 54.3344 12.8343 60.5444C14.8543 66.5944 19.8943 72.8844 32.2943 70.9344C54.8343 67.3944 45.7043 43.4444 37.6443 39.7844C31.4743 36.9844 22.6844 33.6944 15.9944 42.2444Z" fill="#DDEBB7"/>
<path d="M17.9145 72.6844C13.1745 70.1444 10.6445 65.8244 9.29447 61.7744C6.76447 54.2044 8.19448 45.9344 13.1145 39.6444C21.8045 28.5344 33.6845 33.9144 39.3845 36.5044C45.2745 39.1744 51.3345 50.0644 50.0445 59.5944C48.9545 67.6344 42.8745 72.9144 32.9345 74.4844C26.3645 75.5144 21.5045 74.6244 17.9145 72.6944V72.6844ZM14.6845 40.8744C10.2445 46.5544 8.90448 54.3144 11.1845 61.1444C14.2945 70.4244 21.5045 74.2544 32.6245 72.5044C44.1545 70.6944 47.3845 64.3344 48.0645 59.3244C49.2145 50.8544 43.8145 40.7144 38.5645 38.3244C30.1745 34.5244 21.4845 32.1944 14.6945 40.8744H14.6845Z" fill="#4C8A3F"/>
<path d="M68.0043 46.3644C73.1843 40.8144 75.2643 32.9444 73.4843 25.5644C71.7043 18.1844 66.5743 10.6244 52.0643 11.6244C25.7043 13.4544 33.8343 42.0044 42.7743 47.0344C49.6143 50.8844 59.4243 55.5544 67.9943 46.3644H68.0043Z" fill="#C7DD8E"/>
<path d="M65.8244 43.9144C70.2044 39.2244 71.9544 32.5744 70.4544 26.3344C68.9544 20.0944 64.6143 13.7044 52.3543 14.5544C30.0743 16.1044 36.9444 40.2244 44.5044 44.4744C50.2844 47.7244 58.5744 51.6744 65.8144 43.9144H65.8244Z" fill="#DDEBB7"/>
<path d="M44.1943 48.9645C43.4943 48.5945 42.8642 48.2345 42.2842 47.9145C36.6542 44.7445 31.5543 33.3645 33.6643 23.9845C35.4443 16.0745 41.9543 11.3345 51.9943 10.6345C67.3743 9.56447 72.6943 18.0345 74.4543 25.3345C76.3243 33.0945 74.1843 41.2145 68.7343 47.0545C60.1243 56.2845 50.1143 52.1445 44.1943 48.9645ZM64.6243 14.7345C61.3543 12.9845 57.1943 12.2745 52.1343 12.6345C40.4943 13.4445 36.7243 19.4945 35.6143 24.4245C33.7343 32.7645 38.2543 43.3445 43.2643 46.1645C51.2943 50.6845 59.7543 53.7445 67.2643 45.6845C72.1843 40.4145 74.1843 32.7945 72.5043 25.7945C71.2443 20.5645 68.6043 16.8645 64.6143 14.7245L64.6243 14.7345Z" fill="#4C8A3F"/>
<path d="M37.2242 8.11439C31.9442 2.66439 24.1842 0.19439 16.7242 1.59439C9.46418 2.96439 1.45419 7.74439 1.73419 22.2844C2.23419 48.7044 31.1542 42.0144 36.6242 33.3444C40.8142 26.7044 45.9742 17.1344 37.2242 8.11439Z" fill="#C7DD8E"/>
<path d="M9.67433 39.9044C4.03433 36.8844 0.894322 30.7644 0.724322 22.3044C0.434322 6.89441 9.16432 2.00441 16.5343 0.614415C24.3743 -0.865585 32.3743 1.68441 37.9343 7.42441C47.7543 17.5544 40.8043 28.5844 37.4643 33.8744C34.0143 39.3444 22.3944 43.8644 13.1344 41.2844C11.8944 40.9344 10.7343 40.4744 9.66432 39.9044H9.67433ZM31.2343 4.84441C26.8943 2.51441 21.7943 1.66441 16.9043 2.57441C7.28431 4.38441 2.51432 11.0144 2.72432 22.2644C2.94432 33.9244 8.80433 37.9944 13.6743 39.3544C21.9043 41.6444 32.7043 37.6744 35.7743 32.8044C40.6843 25.0144 44.1744 16.7144 36.5044 8.80441C34.9544 7.20441 33.1643 5.87441 31.2343 4.83441V4.84441Z" fill="#4C8A3F"/>
<path d="M35.1044 9.81445C30.4944 5.06445 23.7344 2.90445 17.2344 4.13445C10.7344 5.36445 3.92437 9.49445 4.16437 22.1644C4.60437 45.1945 29.8144 39.3644 34.5744 31.8044C38.2244 26.0145 42.7244 17.6844 35.0944 9.81445H35.1044Z" fill="#DDEBB7"/>
<path d="M9.67433 39.9044C4.03433 36.8844 0.894322 30.7644 0.724322 22.3044C0.434322 6.89441 9.16432 2.00441 16.5343 0.614415C24.3743 -0.865585 32.3743 1.68441 37.9343 7.42441C47.7543 17.5544 40.8043 28.5844 37.4643 33.8744C34.0143 39.3444 22.3944 43.8644 13.1344 41.2844C11.8944 40.9344 10.7343 40.4744 9.66432 39.9044H9.67433ZM31.2343 4.84441C26.8943 2.51441 21.7943 1.66441 16.9043 2.57441C7.28431 4.38441 2.51432 11.0144 2.72432 22.2644C2.94432 33.9244 8.80433 37.9944 13.6743 39.3544C21.9043 41.6444 32.7043 37.6744 35.7743 32.8044C40.6843 25.0144 44.1744 16.7144 36.5044 8.80441C34.9544 7.20441 33.1643 5.87441 31.2343 4.83441V4.84441Z" fill="#4C8A3F"/>
<path d="M18.414 8.69452C18.414 8.69452 9.28399 11.8945 8.70399 17.4245C8.21399 22.0345 16.684 21.5745 19.784 19.7645C21.744 18.6145 23.644 13.7145 23.014 11.1645C22.084 7.38452 18.414 8.69452 18.414 8.69452Z" fill="#F6F9E3"/>
<path d="M10.0441 20.7445C9.93412 20.6845 9.82411 20.6245 9.72411 20.5545C8.59411 19.8245 8.06415 18.7245 8.20415 17.3745C8.81415 11.5945 17.8641 8.36446 18.2441 8.22446C18.3641 8.18446 20.1141 7.58446 21.6441 8.40446C22.5641 8.89446 23.1941 9.78446 23.5041 11.0445C24.1741 13.7745 22.2341 18.9045 20.0341 20.1945C17.8241 21.4845 12.8041 22.2245 10.0441 20.7345V20.7445ZM21.1741 9.28446C20.0141 8.66446 18.5941 9.16446 18.5841 9.16446C18.4941 9.19446 9.74415 12.3245 9.20415 17.4745C9.10415 18.4445 9.45415 19.1745 10.2641 19.7045C12.5141 21.1545 17.4941 20.5245 19.5341 19.3245C21.3241 18.2745 23.0941 13.5345 22.5341 11.2745C22.2941 10.3045 21.8341 9.62446 21.1741 9.27446V9.28446Z" fill="#CDE299"/>
<path d="M33.0543 24.9845C33.0543 24.9845 34.4842 16.1045 30.2142 13.1745C26.6542 10.7345 23.2842 17.8645 23.3942 21.2045C23.4642 23.3145 26.6343 27.0445 28.9943 27.6545C32.5043 28.5645 33.0543 24.9845 33.0543 24.9845Z" fill="#F6F9E3"/>
<path d="M27.814 27.7145C25.484 26.4645 22.964 23.2845 22.904 21.2245C22.824 18.7445 24.584 14.0345 27.194 12.6045C28.304 11.9945 29.454 12.0545 30.504 12.7745C34.964 15.8345 33.624 24.6545 33.554 25.0745C33.544 25.1645 33.254 26.8945 31.894 27.8045C31.074 28.3445 30.064 28.4645 28.884 28.1545C28.544 28.0645 28.184 27.9145 27.824 27.7245L27.814 27.7145ZM29.664 13.4345C29.014 13.0845 28.354 13.1045 27.664 13.4745C25.474 14.6745 23.814 19.0045 23.894 21.1845C23.954 23.1045 27.034 26.6345 29.124 27.1645C30.014 27.3945 30.764 27.3245 31.334 26.9445C32.324 26.2945 32.554 24.9145 32.564 24.9045C32.574 24.8145 33.894 16.2945 29.934 13.5845C29.844 13.5245 29.764 13.4745 29.674 13.4245L29.664 13.4345Z" fill="#CDE299"/>
<path d="M12.304 29.5345C12.304 29.5345 19.404 34.8745 23.924 32.4945C27.694 30.5145 23.024 24.2845 20.054 22.8445C18.174 21.9345 13.464 22.9845 11.844 24.7645C9.43397 27.4045 12.304 29.5345 12.304 29.5345Z" fill="#F6F9E3"/>
<path d="M14.7341 31.6545C13.1841 30.8245 12.1141 30.0245 11.9941 29.9445C11.9141 29.8845 10.5341 28.8345 10.3841 27.2345C10.2941 26.2645 10.6541 25.3245 11.4641 24.4345C13.2141 22.5145 18.1541 21.3745 20.2641 22.4045C22.4641 23.4945 25.7741 27.1945 25.8241 30.1345C25.8441 31.3945 25.2641 32.3645 24.1441 32.9545C21.1841 34.5145 17.3041 33.0445 14.7341 31.6645V31.6545ZM19.9841 23.3745C19.9341 23.3445 19.8841 23.3245 19.8341 23.2945C18.1341 22.4645 13.6341 23.5245 12.2041 25.0945C11.5941 25.7645 11.3141 26.4445 11.3841 27.1145C11.4941 28.2845 12.5941 29.1245 12.6041 29.1345C12.6741 29.1845 19.5041 34.2545 23.6941 32.0545C24.4741 31.6445 24.8441 31.0145 24.8341 30.1445C24.7941 27.7445 21.9341 24.4145 19.9941 23.3745H19.9841Z" fill="#CDE299"/>
<path d="M19.0643 16.5745C19.1743 16.6845 19.3543 16.6445 19.4043 16.5045C19.7743 15.4945 20.3143 11.7445 18.6643 11.7645C17.0143 11.7845 17.6743 14.0045 17.6743 14.0045C17.6743 14.0045 18.1043 15.6445 19.0543 16.5745H19.0643Z" fill="#DDEBB7"/>
<path d="M17.624 17.3245C17.774 17.3445 17.904 17.2145 17.864 17.0645C17.594 16.0245 15.874 12.6445 14.544 13.6045C13.214 14.5645 15.014 16.0045 15.014 16.0045C15.014 16.0045 16.304 17.0945 17.624 17.3145V17.3245Z" fill="#DDEBB7"/>
<path d="M16.1342 18.9245C16.2842 18.8845 16.3442 18.7145 16.2442 18.5945C15.5742 17.7545 12.6242 15.3645 11.8042 16.7945C10.9842 18.2245 13.2142 18.7945 13.2142 18.7945C13.2142 18.7945 14.8342 19.2645 16.1342 18.9345V18.9245Z" fill="#DDEBB7"/>
<path d="M26.4941 22.7144C26.3441 22.7344 26.2541 22.9044 26.3341 23.0244C26.8941 23.9444 29.4941 26.6944 30.5041 25.3944C31.5141 24.0944 29.3641 23.2244 29.3641 23.2244C29.3641 23.2244 27.8141 22.5444 26.4941 22.7044V22.7144Z" fill="#DDEBB7"/>
<path d="M26.2843 20.8344C26.1643 20.9244 26.1743 21.1144 26.3043 21.1844C27.2443 21.7044 30.8843 22.7744 31.0943 21.1444C31.3043 19.5144 29.0243 19.8444 29.0243 19.8444C29.0243 19.8444 27.3443 20.0344 26.2743 20.8344H26.2843Z" fill="#DDEBB7"/>
<path d="M25.6944 19.3844C25.6544 19.5344 25.7843 19.6744 25.9243 19.6444C26.9843 19.4644 30.5043 18.0544 29.6643 16.6444C28.8243 15.2344 27.2343 16.9044 27.2343 16.9044C27.2343 16.9044 26.0344 18.0944 25.6944 19.3844Z" fill="#DDEBB7"/>
<path d="M18.044 24.2945C18.084 24.1445 17.954 24.0045 17.804 24.0345C16.744 24.2345 13.254 25.6945 14.114 27.0945C14.974 28.4945 16.544 26.7945 16.544 26.7945C16.544 26.7945 17.734 25.5845 18.044 24.2945Z" fill="#DDEBB7"/>
<path d="M19.1443 26.1444C19.1143 25.9944 18.9444 25.9244 18.8244 26.0044C17.9444 26.6144 15.3444 29.3744 16.6944 30.3044C18.0444 31.2344 18.7943 29.0444 18.7943 29.0444C18.7943 29.0444 19.3843 27.4644 19.1443 26.1444Z" fill="#DDEBB7"/>
<path d="M20.314 25.5745C20.184 25.5045 20.014 25.5845 20.004 25.7345C19.924 26.8045 20.444 30.5645 22.014 30.0845C23.584 29.6045 22.3439 27.6645 22.3439 27.6645C22.3439 27.6645 21.484 26.2145 20.304 25.5745H20.314Z" fill="#DDEBB7"/>
<path d="M53.7947 43.3845C53.7947 43.3845 63.4647 43.2745 65.7847 38.2245C67.7247 34.0145 59.5547 31.7345 56.0347 32.4645C53.8047 32.9245 50.4346 36.9545 50.2146 39.5745C49.8846 43.4545 53.7847 43.3845 53.7847 43.3845H53.7947Z" fill="#F6F9E3"/>
<path d="M51.5645 43.3245C51.2445 43.1545 50.9245 42.9245 50.6445 42.6245C49.9245 41.8645 49.6245 40.8145 49.7345 39.5245C49.9745 36.7245 53.4545 32.4845 55.9445 31.9645C58.5445 31.4245 63.8445 32.4345 65.8345 34.9245C66.6745 35.9845 66.8245 37.1845 66.2545 38.4245C63.8345 43.6945 54.2545 43.8745 53.8145 43.8745C53.7345 43.8745 52.6245 43.8745 51.5745 43.3145L51.5645 43.3245ZM63.3645 34.2445C61.1645 33.0645 57.9045 32.5845 56.1445 32.9545C54.1145 33.3745 50.9245 37.2945 50.7245 39.6145C50.6445 40.6145 50.8545 41.3945 51.3745 41.9445C52.2745 42.8945 53.7745 42.8845 53.7945 42.8845C53.8845 42.8845 63.1745 42.7245 65.3445 38.0145C65.7545 37.1245 65.6545 36.3245 65.0545 35.5545C64.6545 35.0545 64.0645 34.6145 63.3745 34.2445H63.3645Z" fill="#CDE299"/>
<path d="M45.1442 23.2645C45.1442 23.2645 40.9543 31.2245 44.0543 35.3545C46.6443 38.8045 52.1242 33.1245 53.0842 29.9345C53.6942 27.9045 51.8842 23.3645 49.8442 22.0345C46.8142 20.0445 45.1442 23.2645 45.1442 23.2645Z" fill="#F6F9E3"/>
<path d="M44.7143 36.5945C44.3143 36.3845 43.9543 36.0645 43.6543 35.6545C40.4043 31.3245 44.5143 23.3845 44.7043 23.0345C44.7543 22.9445 45.5743 21.4045 47.1543 20.9845C48.1043 20.7345 49.1143 20.9445 50.1243 21.6145C52.3243 23.0545 54.2543 27.8045 53.5643 30.0845C52.8543 32.4645 49.6643 36.3645 46.7343 36.8845C45.9843 37.0145 45.3043 36.9245 44.7143 36.6045V36.5945ZM49.2343 22.2545C48.5843 21.9045 47.9743 21.8045 47.4043 21.9545C46.2643 22.2545 45.5943 23.4845 45.5843 23.4945C45.5443 23.5745 41.5743 31.2245 44.4543 35.0545C44.9943 35.7745 45.6843 36.0445 46.5543 35.8845C49.0143 35.4445 51.9643 31.8845 52.5943 29.7845C53.1443 27.9445 51.3643 23.6245 49.5643 22.4445C49.4543 22.3745 49.3443 22.3045 49.2243 22.2445L49.2343 22.2545Z" fill="#CDE299"/>
<path d="M66.2642 25.5944C66.2642 25.5944 61.2542 18.2644 56.2042 19.0644C51.9942 19.7344 54.4242 27.1344 56.7742 29.4444C58.2642 30.9144 63.0642 31.4244 65.1742 30.2544C68.3042 28.5244 66.2642 25.5844 66.2642 25.5844V25.5944Z" fill="#F6F9E3"/>
<path d="M57.274 30.4144C56.934 30.2344 56.654 30.0344 56.424 29.8044C54.674 28.0844 52.7341 23.5044 53.6341 20.7044C54.0141 19.5044 54.8741 18.7744 56.1241 18.5744C61.4141 17.7344 66.454 24.9944 66.674 25.3144C66.734 25.4044 67.694 26.8344 67.334 28.4044C67.114 29.3544 66.464 30.1244 65.414 30.7144C63.454 31.8044 59.414 31.5744 57.274 30.4244V30.4144ZM60.0041 20.3644C58.8141 19.7244 57.544 19.3644 56.284 19.5644C55.414 19.7044 54.854 20.1744 54.594 21.0144C53.844 23.3544 55.5941 27.5844 57.1341 29.0944C58.4841 30.4144 63.0741 30.8544 64.9341 29.8244C65.7341 29.3844 66.214 28.8244 66.364 28.1644C66.634 27.0244 65.864 25.8844 65.854 25.8744C65.814 25.8244 63.2241 22.0744 60.0041 20.3544V20.3644Z" fill="#CDE299"/>
<path d="M55.6943 35.7144C55.6243 35.5844 55.4443 35.5544 55.3443 35.6744C54.6743 36.5044 52.9643 39.8944 54.5243 40.3944C56.0843 40.8944 56.1743 38.5944 56.1743 38.5944C56.1743 38.5944 56.2943 36.9044 55.6843 35.7144H55.6943Z" fill="#DDEBB7"/>
<path d="M57.3042 35.4644C57.1742 35.3944 57.0042 35.4844 56.9942 35.6344C56.9242 36.7044 57.4642 40.4544 59.0342 39.9744C60.6042 39.4944 59.3542 37.5444 59.3542 37.5444C59.3542 37.5444 58.4842 36.0944 57.3042 35.4644Z" fill="#DDEBB7"/>
<path d="M59.2243 34.4244C59.0743 34.4144 58.9543 34.5644 59.0143 34.7044C59.3843 35.7144 61.4043 38.9144 62.6443 37.8344C63.8843 36.7544 61.9443 35.4844 61.9443 35.4844C61.9443 35.4844 60.5543 34.5144 59.2243 34.4244Z" fill="#DDEBB7"/>
<path d="M50.6245 27.5144C50.7745 27.5444 50.9045 27.4144 50.8745 27.2644C50.6445 26.2144 49.0545 22.7745 47.6845 23.6845C46.3145 24.5945 48.0645 26.1044 48.0645 26.1044C48.0645 26.1044 49.3145 27.2444 50.6245 27.5144Z" fill="#DDEBB7"/>
<path d="M50.2241 29.3645C50.3641 29.3145 50.4141 29.1345 50.3141 29.0245C49.5841 28.2345 46.4842 26.0545 45.7642 27.5245C45.0442 28.9945 47.3041 29.4245 47.3041 29.4245C47.3041 29.4245 48.9541 29.7845 50.2241 29.3645Z" fill="#DDEBB7"/>
<path d="M50.3244 30.9245C50.4044 30.7945 50.3344 30.6245 50.1844 30.6045C49.1244 30.4345 45.3344 30.6445 45.6844 32.2545C46.0344 33.8645 48.0744 32.7845 48.0744 32.7845C48.0744 32.7845 49.5944 32.0445 50.3244 30.9245Z" fill="#DDEBB7"/>
<path d="M59.1441 28.7245C59.0641 28.8545 59.1441 29.0245 59.2841 29.0445C60.3441 29.1945 64.1341 28.9345 63.7641 27.3245C63.3941 25.7145 61.3641 26.8245 61.3641 26.8245C61.3641 26.8245 59.8541 27.5845 59.1441 28.7145V28.7245Z" fill="#DDEBB7"/>
<path d="M58.6943 26.6244C58.6743 26.7744 58.8143 26.9044 58.9543 26.8544C59.9843 26.5644 63.3343 24.7744 62.3443 23.4644C61.3543 22.1544 59.9543 23.9844 59.9543 23.9844C59.9543 23.9844 58.8843 25.2944 58.6943 26.6144V26.6244Z" fill="#DDEBB7"/>
<path d="M57.3944 26.7944C57.4944 26.9044 57.6845 26.8744 57.7445 26.7344C58.1645 25.7444 58.8745 22.0244 57.2345 21.9644C55.6145 21.9144 56.1444 24.1544 56.1444 24.1544C56.1444 24.1544 56.4944 25.8044 57.4044 26.7844L57.3944 26.7944Z" fill="#DDEBB7"/>
<path d="M16.9045 59.0043C16.9045 59.0043 21.0645 67.7343 26.6245 67.7243C31.2645 67.7143 29.8946 59.3443 27.7646 56.4543C26.4146 54.6243 21.3345 53.2643 18.8645 54.1643C15.2045 55.4943 16.9045 59.0043 16.9045 59.0043Z" fill="#F6F9E3"/>
<path d="M23.4144 67.3644C19.3244 65.1744 16.5944 59.5344 16.4444 59.2244C16.3944 59.1244 15.6044 57.4343 16.2544 55.8243C16.6444 54.8543 17.4644 54.1344 18.6844 53.6944C21.3244 52.7344 26.6343 54.1144 28.1543 56.1644C29.7343 58.3044 31.0444 63.5344 29.6144 66.3844C29.0044 67.5944 27.9744 68.2344 26.6144 68.2344C25.4744 68.2344 24.4043 67.9044 23.4043 67.3744L23.4144 67.3644ZM25.9944 55.6844C24.0044 54.6144 20.7144 54.0244 19.0344 54.6344C18.0944 54.9744 17.4744 55.5044 17.1944 56.1944C16.7044 57.4044 17.3444 58.7743 17.3544 58.7843C17.3944 58.8743 21.4344 67.2344 26.6244 67.2244C27.6044 67.2244 28.2944 66.7944 28.7244 65.9244C29.9344 63.5144 28.7644 58.6543 27.3544 56.7543C27.0644 56.3643 26.5844 56.0044 25.9944 55.6844Z" fill="#CDE299"/>
<path d="M31.5246 42.7144C31.5246 42.7144 22.5446 42.2444 20.0946 46.8044C18.0446 50.6044 25.5046 53.1944 28.8046 52.7244C30.8946 52.4244 34.2646 48.8844 34.6146 46.4644C35.1446 42.8744 31.5246 42.7144 31.5246 42.7144Z" fill="#F6F9E3"/>
<path d="M22.1345 51.7644C21.1745 51.2544 20.3545 50.6144 19.8345 49.8644C19.1045 48.8244 19.0445 47.6844 19.6445 46.5544C22.2145 41.7844 31.1445 42.1844 31.5445 42.2044C31.6445 42.2044 33.3945 42.3144 34.4345 43.5644C35.0645 44.3244 35.2845 45.3144 35.1145 46.5244C34.7345 49.1244 31.2345 52.8744 28.8745 53.2044C27.1745 53.4444 24.3045 52.9144 22.1345 51.7544V51.7644ZM32.9345 43.6244C32.2445 43.2544 31.5145 43.2144 31.5045 43.2144C31.4145 43.2144 22.8045 42.8244 20.5345 47.0444C20.1045 47.8344 20.1545 48.5744 20.6645 49.3044C22.0945 51.3444 26.5745 52.5344 28.7345 52.2344C30.6345 51.9644 33.8045 48.5244 34.1245 46.3944C34.2545 45.4844 34.1045 44.7544 33.6745 44.2244C33.4645 43.9644 33.2045 43.7744 32.9345 43.6344V43.6244Z" fill="#CDE299"/>
<path d="M38.2744 62.8544C38.2744 62.8544 42.8244 55.2244 39.9744 50.9844C37.6044 47.4444 31.9044 52.7644 30.7944 55.8644C30.0844 57.8344 31.6344 62.4044 33.5844 63.8244C36.4744 65.9444 38.2844 62.8544 38.2844 62.8544H38.2744Z" fill="#F6F9E3"/>
<path d="M33.8945 64.6244C33.6945 64.5144 33.4845 64.3844 33.2845 64.2344C31.1945 62.6944 29.5345 57.9144 30.3245 55.7044C31.1545 53.3944 34.4945 49.7144 37.4145 49.3544C38.6645 49.1944 39.6945 49.6644 40.3945 50.7144C43.3745 55.1544 38.9145 62.7644 38.7145 63.1144C38.6645 63.1944 37.7745 64.6844 36.1845 65.0144C35.4345 65.1744 34.6645 65.0444 33.9045 64.6344L33.8945 64.6244ZM38.7945 50.5344C38.4345 50.3444 38.0145 50.2744 37.5345 50.3344C35.0945 50.6344 31.9945 53.9944 31.2645 56.0344C30.6245 57.8144 32.1645 62.1644 33.8745 63.4244C34.6045 63.9544 35.3045 64.1644 35.9745 64.0244C37.1245 63.7944 37.8445 62.6144 37.8445 62.5944C37.8845 62.5144 42.1945 55.1844 39.5545 51.2544C39.3345 50.9244 39.0745 50.6844 38.7845 50.5244L38.7945 50.5344Z" fill="#CDE299"/>
<path d="M24.6646 57.5144C24.7546 57.3944 24.7046 57.2144 24.5546 57.1844C23.5146 56.9244 19.7246 56.7944 19.9246 58.4244C20.1246 60.0544 22.2546 59.1644 22.2546 59.1644C22.2546 59.1644 23.8346 58.5644 24.6646 57.5144Z" fill="#DDEBB7"/>
<path d="M25.5643 58.8644C25.5643 58.7144 25.4243 58.6044 25.2843 58.6544C24.2843 59.0344 21.1043 61.1044 22.2043 62.3244C23.3043 63.5444 24.5443 61.5944 24.5443 61.5944C24.5443 61.5944 25.4943 60.1944 25.5743 58.8644H25.5643Z" fill="#DDEBB7"/>
<path d="M27.3143 60.1744C27.2643 60.0344 27.0742 59.9944 26.9742 60.0944C26.2142 60.8544 24.1542 64.0344 25.6542 64.7044C27.1542 65.3744 27.4942 63.0844 27.4942 63.0844C27.4942 63.0844 27.7943 61.4244 27.3143 60.1744Z" fill="#DDEBB7"/>
<path d="M29.9744 49.4745C30.0044 49.6245 30.1844 49.6845 30.3044 49.5945C31.1544 48.9445 33.6144 46.0545 32.2144 45.1945C30.8144 44.3345 30.1844 46.5545 30.1844 46.5545C30.1844 46.5545 29.6744 48.1645 29.9744 49.4645V49.4745Z" fill="#DDEBB7"/>
<path d="M28.1247 49.8744C28.2247 49.9844 28.4146 49.9544 28.4746 49.8144C28.8846 48.8244 29.5646 45.0944 27.9246 45.0544C26.2846 45.0144 26.8546 47.2544 26.8546 47.2544C26.8546 47.2544 27.2247 48.9044 28.1347 49.8744H28.1247Z" fill="#DDEBB7"/>
<path d="M26.7443 50.6244C26.8943 50.6444 27.0243 50.5044 26.9843 50.3644C26.6943 49.3344 24.9143 45.9844 23.6043 46.9644C22.2943 47.9444 24.1243 49.3544 24.1243 49.3544C24.1243 49.3544 25.4343 50.4244 26.7543 50.6244H26.7443Z" fill="#DDEBB7"/>
<path d="M32.4444 57.7044C32.2944 57.6844 32.1743 57.8244 32.2143 57.9644C32.5243 58.9944 34.3543 62.3144 35.6543 61.3044C36.9543 60.2944 35.0943 58.9244 35.0943 58.9244C35.0943 58.9244 33.7644 57.8744 32.4444 57.7044Z" fill="#DDEBB7"/>
<path d="M34.1745 56.4144C34.0345 56.4544 33.9746 56.6344 34.0746 56.7544C34.7746 57.5644 37.7946 59.8544 38.5746 58.4044C39.3546 56.9544 37.0945 56.4544 37.0945 56.4544C37.0945 56.4544 35.4545 56.0344 34.1745 56.4144Z" fill="#DDEBB7"/>
<path d="M33.4742 55.3144C33.4142 55.4544 33.5242 55.6144 33.6742 55.6044C34.7442 55.5744 38.4242 54.6544 37.7842 53.1344C37.1542 51.6444 35.3342 53.0644 35.3342 53.0644C35.3342 53.0644 33.9842 54.0744 33.4742 55.3144Z" fill="#DDEBB7"/>
</svg>
