<svg width="78" height="63" viewBox="0 0 78 63" fill="none" xmlns="http://www.w3.org/2000/svg">
<path d="M15.69 23.9901C15.69 23.9901 29.33 36.6501 45.6 38.8801C61.87 41.1101 73.88 34.5601 75.52 32.8101C76.75 31.4901 76.74 30.0001 74.65 28.8401C72.2 27.4801 71.87 26.3301 73.09 23.5301C74.31 20.7301 75.31 16.5701 68.89 14.8601C62.47 13.1501 64.87 7.60007 60.68 6.20007C56.49 4.80007 57.08 7.86006 53.19 5.80007C49.3 3.74007 49.84 0.990066 45.32 1.07007C40.8 1.15007 39.63 4.64007 37.74 4.53007C35.85 4.42007 33.33 1.79007 29.88 3.35007C26.43 4.91007 26.97 8.03007 24.8 8.87007C22.62 9.70007 19.71 7.58007 18.27 10.4401C16.83 13.3001 18.08 14.8901 15.01 15.8401C11.94 16.7901 10.8 19.4601 15.71 24.0001L15.69 23.9901Z" fill="#E8DECF"/>
<path d="M52.2402 40.3301C50.0802 40.3301 47.8101 40.1901 45.4701 39.8701C29.1001 37.6301 15.6202 25.2801 15.0202 24.7301C12.2002 22.1301 11.0001 19.8301 11.4401 17.8901C11.7501 16.5001 12.9102 15.4401 14.7002 14.8801C16.1202 14.4401 16.2002 14.0701 16.4502 12.8201C16.6002 12.0601 16.8002 11.1101 17.3602 9.98012C18.5702 7.57012 20.7102 7.80012 22.2602 7.97012C23.0702 8.06012 23.8402 8.15012 24.4302 7.92012C25.0202 7.69012 25.3202 7.16012 25.7902 6.24012C26.4002 5.05012 27.2402 3.43012 29.4602 2.42012C32.1902 1.18012 34.4302 2.18012 36.0702 2.92012C36.7302 3.21012 37.3502 3.49012 37.7902 3.52012C38.1202 3.54012 38.6802 3.10012 39.2902 2.59012C40.5402 1.54012 42.2402 0.110117 45.2902 0.0601167C48.4702 0.0301167 49.5901 1.24012 50.7801 2.55012C51.5001 3.35012 52.2502 4.17012 53.6502 4.91012C55.2702 5.77012 55.7901 5.57012 56.5601 5.27012C57.4901 4.91012 58.6402 4.46012 60.9902 5.25012C63.2902 6.02012 64.0001 7.84012 64.6301 9.44012C65.3601 11.3001 66.0502 13.0601 69.1402 13.8901C71.8502 14.6101 73.6402 15.8501 74.4602 17.5501C75.5502 19.8001 74.7201 22.2701 74.0001 23.9201C72.9201 26.4001 73.2701 26.9301 75.1301 27.9601C76.4202 28.6801 77.1502 29.5701 77.3202 30.6201C77.4302 31.3001 77.3201 32.3401 76.2501 33.4901C74.6601 35.2001 65.2902 40.3301 52.2402 40.3301ZM20.8202 9.87012C19.9702 9.87012 19.5302 10.1001 19.1402 10.8801C18.6902 11.7701 18.5402 12.5401 18.4002 13.2101C18.1202 14.5801 17.8401 15.9901 15.2801 16.7801C14.5201 17.0201 13.5701 17.4701 13.3801 18.3201C13.1201 19.4601 14.2101 21.2501 16.3701 23.2501C16.5001 23.3801 29.9802 35.7301 45.7302 37.8801C61.2402 40.0101 73.1401 33.8801 74.7801 32.1201C75.0701 31.8101 75.4002 31.3501 75.3302 30.9201C75.2702 30.5201 74.8502 30.0901 74.1402 29.7001C71.2502 28.0901 70.7302 26.3701 72.1502 23.1101C73.0402 21.0501 73.2002 19.5601 72.6502 18.4001C72.0902 17.2401 70.7302 16.3601 68.6102 15.8001C64.5402 14.7201 63.5501 12.1801 62.7501 10.1501C62.1101 8.52012 61.6802 7.57012 60.3302 7.12012C58.6702 6.57012 58.0102 6.82012 57.2602 7.11012C56.0502 7.58012 54.9401 7.85012 52.6901 6.66012C50.9901 5.76012 50.0401 4.72012 49.2801 3.88012C48.2101 2.71012 47.5701 2.02012 45.3101 2.04012C42.9701 2.08012 41.6901 3.16012 40.5601 4.10012C39.6601 4.85012 38.8101 5.57012 37.6601 5.50012C36.8601 5.45012 36.0802 5.10012 35.2402 4.73012C33.7302 4.06012 32.1802 3.36012 30.2702 4.23012C28.6802 4.95012 28.1401 6.01012 27.5601 7.14012C27.0201 8.18012 26.4702 9.26012 25.1402 9.77012C24.1002 10.1701 23.0002 10.0501 22.0402 9.94012C21.5602 9.89012 21.1602 9.85012 20.8302 9.85012L20.8202 9.87012Z" fill="#C99264"/>
<path d="M64.2203 28.5899C64.0203 28.5899 63.8304 28.5299 63.6504 28.4099C62.7404 27.7799 61.8404 26.7599 60.7004 25.4699C57.8104 22.1999 53.4504 17.2699 45.4304 15.8099C34.7304 13.8599 24.8904 23.0399 24.7904 23.1299C24.3904 23.5099 23.7604 23.4899 23.3804 23.0899C23.0004 22.6899 23.0204 22.0599 23.4204 21.6799C23.8504 21.2699 34.0904 11.7199 45.7904 13.8399C54.4904 15.4199 59.1304 20.6699 62.2004 24.1399C63.2104 25.2799 64.0804 26.2599 64.7904 26.7599C65.2404 27.0699 65.3604 27.6999 65.0404 28.1499C64.8504 28.4299 64.5303 28.5799 64.2203 28.5799V28.5899Z" fill="#C99264"/>
<path d="M28.1709 16.64C28.0009 16.64 27.8409 16.6 27.6809 16.51C25.0209 15.01 23.6809 13.22 23.6309 13.15C23.3009 12.7 23.4009 12.08 23.8409 11.75C24.2809 11.42 24.9109 11.52 25.2409 11.96C25.2609 11.99 26.4109 13.5 28.6709 14.77C29.1509 15.04 29.3209 15.65 29.0509 16.13C28.8709 16.46 28.5309 16.64 28.1809 16.64H28.1709Z" fill="#C99264"/>
<path d="M36.34 13.5201C35.86 13.5201 35.4401 13.1801 35.3601 12.6901C35.0601 10.9701 35.6301 8.59006 35.7001 8.33006C35.8301 7.79006 36.37 7.46006 36.91 7.60006C37.45 7.73006 37.7701 8.27006 37.6401 8.81006C37.4901 9.42006 37.1401 11.2401 37.3301 12.3501C37.4201 12.8901 37.0601 13.4101 36.5201 13.5101C36.4601 13.5101 36.4 13.5201 36.35 13.5201H36.34Z" fill="#C99264"/>
<path d="M47.9009 13.6803C47.3909 13.6803 46.9608 13.2903 46.9108 12.7803C46.6808 10.4503 47.9409 7.76033 47.9909 7.65033C48.2309 7.15033 48.8208 6.94033 49.3208 7.18033C49.8208 7.42033 50.0308 8.01033 49.8008 8.51033C49.7908 8.53033 48.7209 10.8103 48.9009 12.5903C48.9509 13.1403 48.5508 13.6303 48.0008 13.6803C47.9708 13.6803 47.9309 13.6803 47.9009 13.6803Z" fill="#C99264"/>
<path d="M57.52 17.99C57.35 17.99 57.1699 17.95 57.0099 17.85C56.5299 17.57 56.3799 16.96 56.6599 16.48C57.9999 14.21 59.3899 13.51 59.5399 13.43C60.0399 13.2 60.6299 13.41 60.8699 13.91C61.0999 14.41 60.89 14.99 60.4 15.23C60.36 15.25 59.3699 15.79 58.3699 17.49C58.1799 17.81 57.8499 17.98 57.5099 17.98L57.52 17.99Z" fill="#C99264"/>
<path d="M64.1507 24.69C63.7707 24.69 63.4106 24.48 63.2406 24.11C63.0106 23.61 63.2306 23.01 63.7306 22.78C64.1706 22.58 66.4106 21.61 67.9206 22.28C68.4206 22.5 68.6507 23.09 68.4307 23.6C68.2107 24.11 67.6206 24.33 67.1106 24.11C66.6206 23.89 65.2906 24.26 64.5706 24.6C64.4306 24.66 64.2907 24.69 64.1507 24.69Z" fill="#C99264"/>
<path d="M5.91077 53.0401C5.91077 53.0401 21.9508 62.4801 38.3108 61.1601C54.6808 59.8401 65.0108 50.8801 66.2308 48.8201C67.1508 47.2701 66.8208 45.8201 64.5208 45.1301C61.8308 44.3201 61.2708 43.2801 61.8608 40.2701C62.4508 37.2701 62.5408 33.0001 55.9008 32.7001C49.2608 32.4001 50.4108 26.4701 46.0208 26.0001C41.6308 25.5301 42.8608 28.3901 38.6208 27.2201C34.3808 26.0501 34.3108 23.2401 29.9208 24.2901C25.5208 25.3401 25.1308 29.0001 23.2608 29.3001C21.3908 29.6001 18.3708 27.5701 15.3308 29.8301C12.2908 32.0901 13.5008 35.0301 11.5508 36.3101C9.60078 37.5901 6.30078 36.1401 5.51078 39.2501C4.72078 42.3601 6.28079 43.6401 3.49079 45.2301C0.690786 46.8201 0.150789 49.6701 5.93079 53.0401H5.91077Z" fill="#EAE3D6"/>
<path d="M35.0807 62.29C19.8407 62.29 6.03071 54.27 5.40071 53.9C2.09071 51.97 0.420709 49.98 0.430709 47.99C0.430709 46.57 1.34069 45.28 2.97069 44.35C4.26069 43.62 4.2607 43.23 4.2307 41.97C4.2207 41.19 4.2007 40.23 4.5107 39C5.1807 36.38 7.31068 36.15 8.87068 35.99C9.68068 35.9 10.4507 35.82 10.9807 35.48C11.5107 35.13 11.6807 34.55 11.9507 33.55C12.2907 32.26 12.7607 30.49 14.7207 29.03C17.1307 27.24 19.5307 27.73 21.2907 28.1C22.0007 28.25 22.6607 28.38 23.1007 28.31C23.4607 28.25 23.8807 27.71 24.3607 27.08C25.3507 25.79 26.7107 24.03 29.6807 23.32C32.7607 22.58 34.1307 23.55 35.5707 24.57C36.4507 25.19 37.3607 25.83 38.8807 26.25C40.6507 26.74 41.1107 26.44 41.8007 25.97C42.6307 25.42 43.6607 24.73 46.1207 25C48.5307 25.26 49.6207 26.88 50.5807 28.31C51.7007 29.97 52.7507 31.55 55.9407 31.69C58.7407 31.81 60.7507 32.64 61.9307 34.13C63.4807 36.1 63.1907 38.68 62.8507 40.45C62.3307 43.1 62.7907 43.55 64.8207 44.16C66.2307 44.58 67.1407 45.3 67.5307 46.28C67.7807 46.92 67.9107 47.96 67.1007 49.32C65.7107 51.66 55.0107 60.82 38.4007 62.15C37.2907 62.24 36.1907 62.28 35.0907 62.28L35.0807 62.29ZM18.6107 29.75C17.7207 29.75 16.8207 29.96 15.9107 30.64C14.5107 31.68 14.2107 32.84 13.8807 34.06C13.5807 35.19 13.2707 36.36 12.0807 37.15C11.1507 37.76 10.0507 37.88 9.09068 37.98C7.38068 38.16 6.76071 38.33 6.46071 39.5C6.21071 40.47 6.23071 41.25 6.24071 41.94C6.26071 43.34 6.29071 44.78 3.96071 46.1C3.27071 46.49 2.44071 47.14 2.43071 48.01C2.43071 49.18 3.87069 50.7 6.41069 52.18C6.57069 52.27 22.3807 61.46 38.2307 60.17C53.8307 58.92 64.1407 50.38 65.3707 48.31C65.5907 47.94 65.8107 47.42 65.6607 47.02C65.5107 46.65 65.0107 46.31 64.2407 46.08C61.0807 45.13 60.2007 43.56 60.8807 40.07C61.3107 37.87 61.1507 36.37 60.3607 35.37C59.5607 34.36 58.0507 33.79 55.8607 33.7C51.6607 33.51 50.1407 31.25 48.9307 29.44C47.9507 27.98 47.3307 27.15 45.9207 27C44.1707 26.81 43.5907 27.2 42.9207 27.65C41.8407 28.37 40.8107 28.87 38.3607 28.19C36.5007 27.68 35.3507 26.86 34.4307 26.21C33.1407 25.3 32.3607 24.75 30.1507 25.27C27.8707 25.81 26.8507 27.14 25.9507 28.3C25.2407 29.23 24.5607 30.1 23.4107 30.29C22.6207 30.42 21.7807 30.24 20.8807 30.06C20.1307 29.91 19.3807 29.75 18.6107 29.75Z" fill="#C99264"/>
<path d="M13.7804 50.6899C13.5904 50.6899 13.3904 50.6299 13.2204 50.5199C12.7604 50.2099 12.6404 49.5899 12.9504 49.1299C13.2804 48.6399 21.2304 37.1099 33.1204 36.6799C41.9704 36.3299 47.6204 40.4899 51.3604 43.2199C52.5904 44.1199 53.6504 44.8899 54.4504 45.2199C54.9604 45.4299 55.2104 46.0099 55.0004 46.5199C54.7904 47.0299 54.2104 47.2699 53.7004 47.0699C52.6704 46.6499 51.5804 45.8499 50.1904 44.8299C46.6704 42.2599 41.3704 38.3599 33.2004 38.6699C22.3404 39.0699 14.6904 50.1399 14.6104 50.2499C14.4204 50.5399 14.1004 50.6899 13.7804 50.6899Z" fill="#C99264"/>
<path d="M16.3006 43.2101C16.2006 43.2101 16.1005 43.2001 16.0105 43.1701C13.0905 42.2801 11.4006 40.8201 11.3306 40.7601C10.9106 40.4001 10.8706 39.7601 11.2406 39.3501C11.6006 38.9301 12.2406 38.8901 12.6506 39.2601C12.6806 39.2901 14.1205 40.5101 16.6005 41.2701C17.1305 41.4301 17.4305 41.9901 17.2605 42.5201C17.1305 42.9501 16.7306 43.2301 16.3006 43.2301V43.2101Z" fill="#C99264"/>
<path d="M23.6109 38.42C23.2209 38.42 22.8409 38.19 22.6909 37.8C22.0309 36.18 22.0809 33.74 22.0809 33.47C22.1009 32.93 22.5409 32.5 23.0809 32.5C23.0809 32.5 23.1009 32.5 23.1109 32.5C23.6609 32.51 24.1009 32.97 24.0809 33.53C24.0609 34.16 24.1109 36.01 24.5409 37.05C24.7509 37.56 24.5109 38.15 24.0009 38.35C23.8809 38.4 23.7509 38.43 23.6209 38.43L23.6109 38.42Z" fill="#C99264"/>
<path d="M34.9305 36.0901C34.5105 36.0901 34.1205 35.8201 33.9805 35.4001C33.2605 33.1701 33.9104 30.2801 33.9404 30.1501C34.0704 29.6101 34.6105 29.2801 35.1405 29.4001C35.6805 29.5201 36.0105 30.0601 35.8905 30.6001C35.8905 30.6301 35.3305 33.0801 35.8905 34.7801C36.0605 35.3101 35.7704 35.8701 35.2504 36.0401C35.1504 36.0701 35.0404 36.0901 34.9404 36.0901H34.9305Z" fill="#C99264"/>
<path d="M45.2506 38.2402C45.1506 38.2402 45.0406 38.2202 44.9406 38.1902C44.4106 38.0202 44.1306 37.4502 44.3006 36.9302C45.1206 34.4202 46.3306 33.4402 46.4706 33.3302C46.9106 32.9902 47.5406 33.0702 47.8706 33.5102C48.2006 33.9402 48.1306 34.5602 47.7006 34.9002C47.6606 34.9302 46.8206 35.6602 46.2006 37.5402C46.0606 37.9602 45.6706 38.2302 45.2506 38.2302V38.2402Z" fill="#C99264"/>
<path d="M53.1706 43.3602C52.8706 43.3602 52.5706 43.2202 52.3706 42.9602C52.0406 42.5202 52.1206 41.8902 52.5606 41.5602C52.9406 41.2702 54.9206 39.8502 56.5506 40.1702C57.0906 40.2802 57.4406 40.8102 57.3306 41.3502C57.2206 41.8902 56.6906 42.2402 56.1506 42.1302C55.6206 42.0202 54.4006 42.6702 53.7706 43.1502C53.5906 43.2902 53.3806 43.3502 53.1706 43.3502V43.3602Z" fill="#C99264"/>
<path d="M15.69 23.9901C15.69 23.9901 29.33 36.6501 45.6 38.8801C61.87 41.1101 73.88 34.5601 75.52 32.8101C76.75 31.4901 76.74 30.0001 74.65 28.8401C72.2 27.4801 71.87 26.3301 73.09 23.5301C74.31 20.7301 75.31 16.5701 68.89 14.8601C62.47 13.1501 64.87 7.60007 60.68 6.20007C56.49 4.80007 57.08 7.86006 53.19 5.80007C49.3 3.74007 49.84 0.990066 45.32 1.07007C40.8 1.15007 39.63 4.64007 37.74 4.53007C35.85 4.42007 33.33 1.79007 29.88 3.35007C26.43 4.91007 26.97 8.03007 24.8 8.87007C22.62 9.70007 19.71 7.58007 18.27 10.4401C16.83 13.3001 18.08 14.8901 15.01 15.8401C11.94 16.7901 10.8 19.4601 15.71 24.0001L15.69 23.9901Z" fill="#F3E2C9"/>
<path d="M52.2402 40.3301C50.0802 40.3301 47.8101 40.1901 45.4701 39.8701C29.1001 37.6301 15.6202 25.2801 15.0202 24.7301C12.2002 22.1301 11.0001 19.8301 11.4401 17.8901C11.7501 16.5001 12.9102 15.4401 14.7002 14.8801C16.1202 14.4401 16.2002 14.0701 16.4502 12.8201C16.6002 12.0601 16.8002 11.1101 17.3602 9.98012C18.5702 7.57012 20.7102 7.80012 22.2602 7.97012C23.0702 8.06012 23.8402 8.15012 24.4302 7.92012C25.0202 7.69012 25.3202 7.16012 25.7902 6.24012C26.4002 5.05012 27.2402 3.43012 29.4602 2.42012C32.1902 1.18012 34.4302 2.18012 36.0702 2.92012C36.7302 3.21012 37.3502 3.49012 37.7902 3.52012C38.1202 3.54012 38.6802 3.10012 39.2902 2.59012C40.5402 1.54012 42.2402 0.110117 45.2902 0.0601167C48.4702 0.0301167 49.5901 1.24012 50.7801 2.55012C51.5001 3.35012 52.2502 4.17012 53.6502 4.91012C55.2702 5.77012 55.7901 5.57012 56.5601 5.27012C57.4901 4.91012 58.6402 4.46012 60.9902 5.25012C63.2902 6.02012 64.0001 7.84012 64.6301 9.44012C65.3601 11.3001 66.0502 13.0601 69.1402 13.8901C71.8502 14.6101 73.6402 15.8501 74.4602 17.5501C75.5502 19.8001 74.7201 22.2701 74.0001 23.9201C72.9201 26.4001 73.2701 26.9301 75.1301 27.9601C76.4202 28.6801 77.1502 29.5701 77.3202 30.6201C77.4302 31.3001 77.3201 32.3401 76.2501 33.4901C74.6601 35.2001 65.2902 40.3301 52.2402 40.3301ZM20.8202 9.87012C19.9702 9.87012 19.5302 10.1001 19.1402 10.8801C18.6902 11.7701 18.5402 12.5401 18.4002 13.2101C18.1202 14.5801 17.8401 15.9901 15.2801 16.7801C14.5201 17.0201 13.5701 17.4701 13.3801 18.3201C13.1201 19.4601 14.2101 21.2501 16.3701 23.2501C16.5001 23.3801 29.9802 35.7301 45.7302 37.8801C61.2402 40.0101 73.1401 33.8801 74.7801 32.1201C75.0701 31.8101 75.4002 31.3501 75.3302 30.9201C75.2702 30.5201 74.8502 30.0901 74.1402 29.7001C71.2502 28.0901 70.7302 26.3701 72.1502 23.1101C73.0402 21.0501 73.2002 19.5601 72.6502 18.4001C72.0902 17.2401 70.7302 16.3601 68.6102 15.8001C64.5402 14.7201 63.5501 12.1801 62.7501 10.1501C62.1101 8.52012 61.6802 7.57012 60.3302 7.12012C58.6702 6.57012 58.0102 6.82012 57.2602 7.11012C56.0502 7.58012 54.9401 7.85012 52.6901 6.66012C50.9901 5.76012 50.0401 4.72012 49.2801 3.88012C48.2101 2.71012 47.5701 2.02012 45.3101 2.04012C42.9701 2.08012 41.6901 3.16012 40.5601 4.10012C39.6601 4.85012 38.8101 5.57012 37.6601 5.50012C36.8601 5.45012 36.0802 5.10012 35.2402 4.73012C33.7302 4.06012 32.1802 3.36012 30.2702 4.23012C28.6802 4.95012 28.1401 6.01012 27.5601 7.14012C27.0201 8.18012 26.4702 9.26012 25.1402 9.77012C24.1002 10.1701 23.0002 10.0501 22.0402 9.94012C21.5602 9.89012 21.1602 9.85012 20.8302 9.85012L20.8202 9.87012Z" fill="#C99264"/>
<path d="M64.2203 28.5899C64.0203 28.5899 63.8304 28.5299 63.6504 28.4099C62.7404 27.7799 61.8404 26.7599 60.7004 25.4699C57.8104 22.1999 53.4504 17.2699 45.4304 15.8099C34.7304 13.8599 24.8904 23.0399 24.7904 23.1299C24.3904 23.5099 23.7604 23.4899 23.3804 23.0899C23.0004 22.6899 23.0204 22.0599 23.4204 21.6799C23.8504 21.2699 34.0904 11.7199 45.7904 13.8399C54.4904 15.4199 59.1304 20.6699 62.2004 24.1399C63.2104 25.2799 64.0804 26.2599 64.7904 26.7599C65.2404 27.0699 65.3604 27.6999 65.0404 28.1499C64.8504 28.4299 64.5303 28.5799 64.2203 28.5799V28.5899Z" fill="#C99264"/>
<path d="M28.1709 16.64C28.0009 16.64 27.8409 16.6 27.6809 16.51C25.0209 15.01 23.6809 13.22 23.6309 13.15C23.3009 12.7 23.4009 12.08 23.8409 11.75C24.2809 11.42 24.9109 11.52 25.2409 11.96C25.2609 11.99 26.4109 13.5 28.6709 14.77C29.1509 15.04 29.3209 15.65 29.0509 16.13C28.8709 16.46 28.5309 16.64 28.1809 16.64H28.1709Z" fill="#C99264"/>
<path d="M36.34 13.5201C35.86 13.5201 35.4401 13.1801 35.3601 12.6901C35.0601 10.9701 35.6301 8.59006 35.7001 8.33006C35.8301 7.79006 36.37 7.46006 36.91 7.60006C37.45 7.73006 37.7701 8.27006 37.6401 8.81006C37.4901 9.42006 37.1401 11.2401 37.3301 12.3501C37.4201 12.8901 37.0601 13.4101 36.5201 13.5101C36.4601 13.5101 36.4 13.5201 36.35 13.5201H36.34Z" fill="#C99264"/>
<path d="M47.9009 13.6803C47.3909 13.6803 46.9608 13.2903 46.9108 12.7803C46.6808 10.4503 47.9409 7.76033 47.9909 7.65033C48.2309 7.15033 48.8208 6.94033 49.3208 7.18033C49.8208 7.42033 50.0308 8.01033 49.8008 8.51033C49.7908 8.53033 48.7209 10.8103 48.9009 12.5903C48.9509 13.1403 48.5508 13.6303 48.0008 13.6803C47.9708 13.6803 47.9309 13.6803 47.9009 13.6803Z" fill="#C99264"/>
<path d="M57.52 17.99C57.35 17.99 57.1699 17.95 57.0099 17.85C56.5299 17.57 56.3799 16.96 56.6599 16.48C57.9999 14.21 59.3899 13.51 59.5399 13.43C60.0399 13.2 60.6299 13.41 60.8699 13.91C61.0999 14.41 60.89 14.99 60.4 15.23C60.36 15.25 59.3699 15.79 58.3699 17.49C58.1799 17.81 57.8499 17.98 57.5099 17.98L57.52 17.99Z" fill="#C99264"/>
<path d="M64.1507 24.69C63.7707 24.69 63.4106 24.48 63.2406 24.11C63.0106 23.61 63.2306 23.01 63.7306 22.78C64.1706 22.58 66.4106 21.61 67.9206 22.28C68.4206 22.5 68.6507 23.09 68.4307 23.6C68.2107 24.11 67.6206 24.33 67.1106 24.11C66.6206 23.89 65.2906 24.26 64.5706 24.6C64.4306 24.66 64.2907 24.69 64.1507 24.69Z" fill="#C99264"/>
<path d="M5.91077 53.0401C5.91077 53.0401 21.9508 62.4801 38.3108 61.1601C54.6808 59.8401 65.0108 50.8801 66.2308 48.8201C67.1508 47.2701 66.8208 45.8201 64.5208 45.1301C61.8308 44.3201 61.2708 43.2801 61.8608 40.2701C62.4508 37.2701 62.5408 33.0001 55.9008 32.7001C49.2608 32.4001 50.4108 26.4701 46.0208 26.0001C41.6308 25.5301 42.8608 28.3901 38.6208 27.2201C34.3808 26.0501 34.3108 23.2401 29.9208 24.2901C25.5208 25.3401 25.1308 29.0001 23.2608 29.3001C21.3908 29.6001 18.3708 27.5701 15.3308 29.8301C12.2908 32.0901 13.5008 35.0301 11.5508 36.3101C9.60078 37.5901 6.30078 36.1401 5.51078 39.2501C4.72078 42.3601 6.28079 43.6401 3.49079 45.2301C0.690786 46.8201 0.150789 49.6701 5.93079 53.0401H5.91077Z" fill="#FAF1E6"/>
<path d="M35.0807 62.29C19.8407 62.29 6.03071 54.27 5.40071 53.9C2.09071 51.97 0.420709 49.98 0.430709 47.99C0.430709 46.57 1.34069 45.28 2.97069 44.35C4.26069 43.62 4.2607 43.23 4.2307 41.97C4.2207 41.19 4.2007 40.23 4.5107 39C5.1807 36.38 7.31068 36.15 8.87068 35.99C9.68068 35.9 10.4507 35.82 10.9807 35.48C11.5107 35.13 11.6807 34.55 11.9507 33.55C12.2907 32.26 12.7607 30.49 14.7207 29.03C17.1307 27.24 19.5307 27.73 21.2907 28.1C22.0007 28.25 22.6607 28.38 23.1007 28.31C23.4607 28.25 23.8807 27.71 24.3607 27.08C25.3507 25.79 26.7107 24.03 29.6807 23.32C32.7607 22.58 34.1307 23.55 35.5707 24.57C36.4507 25.19 37.3607 25.83 38.8807 26.25C40.6507 26.74 41.1107 26.44 41.8007 25.97C42.6307 25.42 43.6607 24.73 46.1207 25C48.5307 25.26 49.6207 26.88 50.5807 28.31C51.7007 29.97 52.7507 31.55 55.9407 31.69C58.7407 31.81 60.7507 32.64 61.9307 34.13C63.4807 36.1 63.1907 38.68 62.8507 40.45C62.3307 43.1 62.7907 43.55 64.8207 44.16C66.2307 44.58 67.1407 45.3 67.5307 46.28C67.7807 46.92 67.9107 47.96 67.1007 49.32C65.7107 51.66 55.0107 60.82 38.4007 62.15C37.2907 62.24 36.1907 62.28 35.0907 62.28L35.0807 62.29ZM18.6107 29.75C17.7207 29.75 16.8207 29.96 15.9107 30.64C14.5107 31.68 14.2107 32.84 13.8807 34.06C13.5807 35.19 13.2707 36.36 12.0807 37.15C11.1507 37.76 10.0507 37.88 9.09068 37.98C7.38068 38.16 6.76071 38.33 6.46071 39.5C6.21071 40.47 6.23071 41.25 6.24071 41.94C6.26071 43.34 6.29071 44.78 3.96071 46.1C3.27071 46.49 2.44071 47.14 2.43071 48.01C2.43071 49.18 3.87069 50.7 6.41069 52.18C6.57069 52.27 22.3807 61.46 38.2307 60.17C53.8307 58.92 64.1407 50.38 65.3707 48.31C65.5907 47.94 65.8107 47.42 65.6607 47.02C65.5107 46.65 65.0107 46.31 64.2407 46.08C61.0807 45.13 60.2007 43.56 60.8807 40.07C61.3107 37.87 61.1507 36.37 60.3607 35.37C59.5607 34.36 58.0507 33.79 55.8607 33.7C51.6607 33.51 50.1407 31.25 48.9307 29.44C47.9507 27.98 47.3307 27.15 45.9207 27C44.1707 26.81 43.5907 27.2 42.9207 27.65C41.8407 28.37 40.8107 28.87 38.3607 28.19C36.5007 27.68 35.3507 26.86 34.4307 26.21C33.1407 25.3 32.3607 24.75 30.1507 25.27C27.8707 25.81 26.8507 27.14 25.9507 28.3C25.2407 29.23 24.5607 30.1 23.4107 30.29C22.6207 30.42 21.7807 30.24 20.8807 30.06C20.1307 29.91 19.3807 29.75 18.6107 29.75Z" fill="#C99264"/>
<path d="M13.7804 50.6899C13.5904 50.6899 13.3904 50.6299 13.2204 50.5199C12.7604 50.2099 12.6404 49.5899 12.9504 49.1299C13.2804 48.6399 21.2304 37.1099 33.1204 36.6799C41.9704 36.3299 47.6204 40.4899 51.3604 43.2199C52.5904 44.1199 53.6504 44.8899 54.4504 45.2199C54.9604 45.4299 55.2104 46.0099 55.0004 46.5199C54.7904 47.0299 54.2104 47.2699 53.7004 47.0699C52.6704 46.6499 51.5804 45.8499 50.1904 44.8299C46.6704 42.2599 41.3704 38.3599 33.2004 38.6699C22.3404 39.0699 14.6904 50.1399 14.6104 50.2499C14.4204 50.5399 14.1004 50.6899 13.7804 50.6899Z" fill="#C99264"/>
<path d="M16.3006 43.2101C16.2006 43.2101 16.1005 43.2001 16.0105 43.1701C13.0905 42.2801 11.4006 40.8201 11.3306 40.7601C10.9106 40.4001 10.8706 39.7601 11.2406 39.3501C11.6006 38.9301 12.2406 38.8901 12.6506 39.2601C12.6806 39.2901 14.1205 40.5101 16.6005 41.2701C17.1305 41.4301 17.4305 41.9901 17.2605 42.5201C17.1305 42.9501 16.7306 43.2301 16.3006 43.2301V43.2101Z" fill="#C99264"/>
<path d="M23.6109 38.42C23.2209 38.42 22.8409 38.19 22.6909 37.8C22.0309 36.18 22.0809 33.74 22.0809 33.47C22.1009 32.93 22.5409 32.5 23.0809 32.5C23.0809 32.5 23.1009 32.5 23.1109 32.5C23.6609 32.51 24.1009 32.97 24.0809 33.53C24.0609 34.16 24.1109 36.01 24.5409 37.05C24.7509 37.56 24.5109 38.15 24.0009 38.35C23.8809 38.4 23.7509 38.43 23.6209 38.43L23.6109 38.42Z" fill="#C99264"/>
<path d="M34.9305 36.0901C34.5105 36.0901 34.1205 35.8201 33.9805 35.4001C33.2605 33.1701 33.9104 30.2801 33.9404 30.1501C34.0704 29.6101 34.6105 29.2801 35.1405 29.4001C35.6805 29.5201 36.0105 30.0601 35.8905 30.6001C35.8905 30.6301 35.3305 33.0801 35.8905 34.7801C36.0605 35.3101 35.7704 35.8701 35.2504 36.0401C35.1504 36.0701 35.0404 36.0901 34.9404 36.0901H34.9305Z" fill="#C99264"/>
<path d="M45.2506 38.2402C45.1506 38.2402 45.0406 38.2202 44.9406 38.1902C44.4106 38.0202 44.1306 37.4502 44.3006 36.9302C45.1206 34.4202 46.3306 33.4402 46.4706 33.3302C46.9106 32.9902 47.5406 33.0702 47.8706 33.5102C48.2006 33.9402 48.1306 34.5602 47.7006 34.9002C47.6606 34.9302 46.8206 35.6602 46.2006 37.5402C46.0606 37.9602 45.6706 38.2302 45.2506 38.2302V38.2402Z" fill="#C99264"/>
<path d="M53.1706 43.3602C52.8706 43.3602 52.5706 43.2202 52.3706 42.9602C52.0406 42.5202 52.1206 41.8902 52.5606 41.5602C52.9406 41.2702 54.9206 39.8502 56.5506 40.1702C57.0906 40.2802 57.4406 40.8102 57.3306 41.3502C57.2206 41.8902 56.6906 42.2402 56.1506 42.1302C55.6206 42.0202 54.4006 42.6702 53.7706 43.1502C53.5906 43.2902 53.3806 43.3502 53.1706 43.3502V43.3602Z" fill="#C99264"/>
<path d="M45.7113 47.0702C45.5213 47.0702 45.3213 47.0102 45.1513 46.9002C39.3713 42.9602 34.9413 43.3702 34.8913 43.3702C34.3413 43.4302 33.8512 43.0302 33.7912 42.4802C33.7312 41.9302 34.1212 41.4402 34.6712 41.3802C34.8812 41.3602 39.8313 40.8502 46.2713 45.2402C46.7313 45.5502 46.8412 46.1702 46.5312 46.6302C46.3412 46.9102 46.0212 47.0702 45.7012 47.0702H45.7113Z" fill="white"/>
<path d="M57.8109 28.1899C57.5009 28.1899 57.2009 28.0499 57.0009 27.7799C52.8409 22.0599 47.8909 20.7899 47.8409 20.7799C47.3009 20.6499 46.9809 20.1099 47.1109 19.5699C47.2409 19.0299 47.7809 18.7099 48.3209 18.8399C48.5509 18.8999 54.0309 20.2999 58.6209 26.6099C58.9509 27.0599 58.8509 27.6799 58.4009 28.0099C58.2209 28.1399 58.0209 28.1999 57.8109 28.1999V28.1899Z" fill="#FFF9F0"/>
<path d="M47.9802 48.5902C48.5711 48.5902 49.0502 48.1111 49.0502 47.5202C49.0502 46.9293 48.5711 46.4502 47.9802 46.4502C47.3892 46.4502 46.9102 46.9293 46.9102 47.5202C46.9102 48.1111 47.3892 48.5902 47.9802 48.5902Z" fill="white"/>
<path d="M59.8102 30.4403C60.4012 30.4403 60.8802 29.9612 60.8802 29.3703C60.8802 28.7793 60.4012 28.3003 59.8102 28.3003C59.2193 28.3003 58.7402 28.7793 58.7402 29.3703C58.7402 29.9612 59.2193 30.4403 59.8102 30.4403Z" fill="#FFF9F0"/>
</svg>
