<svg width="77" height="76" viewBox="0 0 77 76" fill="none" xmlns="http://www.w3.org/2000/svg">
<path d="M23.8154 49.02C22.5154 56.5 25.0854 64.23 30.6054 69.43C35.9854 74.5 44.5654 78.16 56.1554 69.38C77.2254 53.43 54.7954 33.98 44.5654 34.66C36.7354 35.18 25.9654 36.64 23.8154 49.02Z" fill="#91BB3E"/>
<path d="M42.6752 75.71C37.3052 75.71 33.0253 73.1 29.9153 70.17C24.1053 64.7 21.4552 56.73 22.8252 48.86C25.2352 34.96 38.2453 34.09 44.4953 33.68C50.9453 33.25 61.4352 39.98 64.7952 48.99C67.6352 56.59 64.7752 64.12 56.7552 70.19C51.4552 74.21 46.7452 75.71 42.6752 75.71ZM24.8052 49.19C23.5752 56.29 26.0652 63.77 31.2952 68.7C38.4252 75.41 46.5852 75.38 55.5552 68.58C64.8552 61.54 64.6952 54.41 62.9352 49.67C59.9452 41.66 50.3953 35.27 44.6353 35.65C35.4453 36.26 26.6852 38.32 24.8052 49.18V49.19Z" fill="#4C8A3F"/>
<path d="M54.1553 46.49C50.4753 42.41 44.8153 40.58 39.4353 41.68C34.6053 42.67 29.4854 45.98 29.4854 55.55C29.4854 55.57 29.4854 55.6 29.4854 55.62C29.4954 58.73 32.2654 61.12 35.3554 60.76C35.3554 60.76 57.6353 50.35 54.1453 46.49H54.1553Z" fill="#E8F1CA" stroke="#C8DB4F" stroke-width="1.64" stroke-miterlimit="10"/>
<path d="M39.685 62.6301C37.755 63.9401 38.215 66.9201 40.445 67.5801C48.325 69.9101 56.935 61.5001 57.435 56.3401C57.445 56.2201 57.455 56.1101 57.465 55.9901C57.675 53.6601 55.075 52.1201 53.135 53.4401L39.675 62.6201L39.685 62.6301Z" fill="#E8F1CA" stroke="#C8DB4F" stroke-width="1.64" stroke-miterlimit="10"/>
<path d="M74.3852 28.84C76.3252 21.5 74.4352 13.58 69.3852 7.92005C64.3352 2.26005 56.2352 -1.97995 43.9252 5.76005C21.5552 19.83 42.2152 41.15 52.4652 41.35C60.3152 41.51 71.1652 40.99 74.3752 28.84H74.3852Z" fill="#91BB3E"/>
<path d="M54.6352 42.38C53.8452 42.38 53.1152 42.36 52.4552 42.35C45.9952 42.22 36.1252 34.6 33.5552 25.34C31.3852 17.53 34.8852 10.27 43.4052 4.91002C56.4552 -3.29998 65.1452 1.65002 70.1452 7.25002C75.4552 13.2 77.4052 21.37 75.3652 29.1C72.1352 41.31 61.3652 42.38 54.6452 42.38H54.6352ZM56.4652 2.55002C52.7552 2.55002 48.7552 3.90002 44.4652 6.60002C34.5852 12.81 34.1252 19.93 35.4852 24.8C37.7652 33.03 46.7552 40.23 52.5052 40.35C61.7152 40.54 70.6152 39.24 73.4352 28.59C75.2752 21.62 73.4452 13.96 68.6552 8.59002C65.0752 4.57002 60.9952 2.56002 56.4752 2.56002L56.4652 2.55002Z" fill="#4C8A3F"/>
<path d="M59.085 33.96C63.065 33.55 67.145 32.02 68.865 26.84C70.585 21.66 69.205 15.8 65.345 11.89C64.345 10.87 63.155 9.95002 61.765 9.31002C59.265 8.15002 56.455 10.21 56.705 12.96L58.645 33.6C58.665 33.82 58.865 33.99 59.085 33.96Z" fill="#E8F1CA" stroke="#C8DB4F" stroke-width="1.64" stroke-miterlimit="10"/>
<path d="M53.9053 12.15C53.6953 9.88999 51.3253 8.46999 49.2553 9.40999C48.4253 9.77999 47.5653 10.25 46.6753 10.81C32.2053 19.91 45.5653 33.69 52.1953 33.83C52.2053 33.83 52.2153 33.83 52.2353 33.83C54.2153 33.87 55.7853 32.16 55.6053 30.19L53.9153 12.15H53.9053Z" fill="#E8F1CA" stroke="#C8DB4F" stroke-width="1.64" stroke-miterlimit="10"/>
<path d="M29.1849 9.66999C21.9549 7.35999 13.9449 8.84999 8.03489 13.61C2.28489 18.25 -2.51511 26.25 4.59489 38.93C17.5249 61.98 39.8549 42.42 40.5749 32.18C41.1249 24.35 41.1549 13.48 29.1849 9.65999V9.66999Z" fill="#91BB3E"/>
<path d="M19.9251 50.7C13.5251 50.7 7.86514 46.8 3.72514 39.42C-3.81486 25.97 1.56514 17.54 7.40514 12.83C13.6151 7.81997 21.8751 6.28997 29.4851 8.70997C42.9251 13 42.0051 26 41.5651 32.25C41.1151 38.7 33.0051 48.17 23.6251 50.28C22.3651 50.56 21.1251 50.7 19.9151 50.7H19.9251ZM22.3551 9.61998C17.4351 9.61998 12.5351 11.27 8.65514 14.39C1.03514 20.53 -0.0448637 28.63 5.46514 38.44C11.1751 48.61 18.2551 49.43 23.1951 48.33C31.5351 46.46 39.1751 37.85 39.5751 32.12C40.2251 22.93 39.3751 13.97 28.8751 10.63C26.7551 9.94997 24.5551 9.61998 22.3551 9.61998Z" fill="#4C8A3F"/>
<path d="M25.7949 39.26C25.3149 41.58 27.9349 43.28 29.8649 41.9C32.4749 40.04 34.4149 37.69 34.9649 35.65C36.1149 31.4 37.2949 25.77 33.8449 21.49C32.4549 19.77 29.6949 20.41 29.2449 22.57L25.7849 39.26H25.7949Z" fill="#E8F1CA" stroke="#C8DB4F" stroke-width="1.64" stroke-miterlimit="10"/>
<path d="M26.9153 20.07C27.5153 17.19 25.6253 14.32 22.7153 13.85C19.2953 13.29 15.7253 13.83 12.5953 15.48C7.96527 17.92 3.53527 22.83 6.76527 32.62C9.14527 39.86 13.5753 42.4 18.1153 42.4C20.5653 42.4 22.6653 40.62 23.1653 38.22L26.9253 20.08L26.9153 20.07Z" fill="#E8F1CA" stroke="#C8DB4F" stroke-width="1.64" stroke-miterlimit="10"/>
</svg>
