<svg width="76" height="77" viewBox="0 0 76 77" fill="none" xmlns="http://www.w3.org/2000/svg">
<path d="M53.5447 53.2244C50.0947 53.2244 46.8347 50.8844 43.5647 46.0744C39.2247 39.6844 37.3447 31.6344 39.1947 27.3444C39.9947 25.4744 41.4447 24.3244 43.3947 24.0044C43.8647 23.9244 44.3347 23.8844 44.7847 23.8844C48.7947 23.8844 51.8147 26.8544 53.5047 32.4744C53.6047 32.8144 53.8947 32.9344 54.1347 32.9344C54.2747 32.9344 54.5247 32.8944 54.7147 32.6244C57.9447 27.8744 62.2347 25.0344 66.1847 25.0344C67.1047 25.0344 68.0147 25.1844 68.8747 25.4844C71.0947 26.2544 73.1347 28.3144 74.0647 30.7244C74.7547 32.5144 75.2047 35.3544 73.3847 38.7044C68.4947 47.6944 58.5247 52.1344 56.3147 52.7544C55.6147 52.9544 54.6947 53.2044 53.5547 53.2044L53.5447 53.2244Z" fill="#FED506"/>
<path d="M44.7746 24.8944C49.2746 24.8944 51.4846 29.2944 52.5346 32.7744C52.7646 33.5344 53.4347 33.9444 54.1247 33.9444C54.6547 33.9444 55.1846 33.7044 55.5246 33.1944C58.4846 28.8344 62.4246 26.0444 66.1646 26.0444C66.9646 26.0444 67.7546 26.1744 68.5246 26.4444C71.8546 27.5944 75.5946 32.5244 72.4846 38.2444C67.8046 46.8444 58.1546 51.2144 56.0246 51.8144C55.3946 51.9944 54.5546 52.2344 53.5346 52.2344C51.2846 52.2344 48.1447 51.0744 44.3847 45.5244C38.9047 37.4444 37.1646 26.0544 43.5446 25.0044C43.9746 24.9344 44.3747 24.9044 44.7647 24.9044M44.7746 22.8944C44.2746 22.8944 43.7546 22.9344 43.2246 23.0244C40.9646 23.3944 39.2046 24.7944 38.2746 26.9544C36.0146 32.2244 38.8046 40.8444 42.7346 46.6344C46.1946 51.7444 49.7346 54.2244 53.5446 54.2244C54.8246 54.2244 55.8546 53.9344 56.5346 53.7444C58.8546 53.0944 69.1947 48.4844 74.2547 39.1944C76.2547 35.5044 75.7647 32.3644 74.9947 30.3744C73.9447 27.6644 71.7247 25.4344 69.1947 24.5544C68.2247 24.2144 67.2146 24.0444 66.1747 24.0444C61.9846 24.0444 57.6647 26.7644 54.2447 31.5444C52.3947 25.9544 49.0446 22.8944 44.7746 22.8944Z" fill="#C07A2A"/>
<path d="M24.6047 75.2844C20.6147 75.2844 15.2547 73.6144 10.6047 70.9244C7.49472 69.1244 2.14471 65.3344 1.19471 60.1744C0.644713 57.1544 1.41471 54.0344 3.25471 51.8244C4.89471 49.8544 7.27473 48.7644 9.93473 48.7644C13.0247 48.7644 16.3847 50.1444 19.9247 52.8544C20.0447 52.9444 20.1747 52.9944 20.3147 52.9944C20.6047 52.9944 20.9447 52.7844 21.0047 52.3844C21.3947 49.5244 22.3847 45.5444 24.8947 42.8144C26.4947 41.0744 28.7047 40.1144 31.1147 40.1144C34.6547 40.1144 37.9947 42.1744 39.4347 45.2444C41.1247 48.8544 40.7147 55.5044 38.4047 61.8044C37.0647 65.4544 33.9547 71.9844 28.1847 74.6244C27.2347 75.0544 26.0247 75.2744 24.5947 75.2744L24.6047 75.2844Z" fill="#FED506"/>
<path d="M23.8246 36.9044C16.1146 36.9044 2.36463 26.7344 1.12463 18.2744C0.76463 15.8344 1.60463 13.0844 3.31463 11.1044C4.89463 9.27444 7.10462 8.26444 9.52462 8.26444C12.5946 8.26444 15.9046 9.79444 19.3746 12.8044C19.5446 12.9544 19.7246 12.9844 19.8346 12.9844C20.1046 12.9844 20.4046 12.8244 20.5046 12.4644C21.3546 9.17444 23.0846 4.84444 26.5246 2.87444C27.9146 2.07444 29.3546 1.67444 30.7846 1.67444C35.5446 1.67444 39.1146 6.00444 40.1846 10.2744C41.9946 17.5244 33.4746 32.3644 26.7546 36.2044C25.9546 36.6644 24.9646 36.8944 23.8146 36.8944L23.8246 36.9044Z" fill="#FED506"/>
<path d="M30.7947 2.67444C34.9547 2.67444 38.2547 6.62444 39.2247 10.5244C40.9247 17.3044 32.5947 31.7244 26.2747 35.3444C25.6047 35.7244 24.7747 35.9044 23.8347 35.9044C16.8047 35.9044 3.30476 26.1844 2.12476 18.1344C1.57476 14.3544 4.32473 9.26444 9.53473 9.26444C12.0547 9.26444 15.1547 10.4544 18.7347 13.5644C19.0647 13.8544 19.4647 13.9844 19.8547 13.9844C20.5847 13.9844 21.2847 13.5144 21.4847 12.7144C22.2247 9.82444 23.8247 5.57444 27.0347 3.74444C28.3347 3.00444 29.6047 2.67444 30.7947 2.67444ZM30.7947 0.674438C29.1847 0.674438 27.5847 1.12444 26.0447 2.00444C22.4647 4.04444 20.6147 8.32444 19.6747 11.7344C16.1447 8.76444 12.7347 7.26444 9.53473 7.26444C6.81473 7.26444 4.34476 8.39444 2.56476 10.4544C0.67476 12.6444 -0.255253 15.6944 0.144747 18.4244C0.754747 22.6144 4.18475 27.4244 9.55475 31.6144C14.5247 35.4944 19.9947 37.9044 23.8347 37.9044C25.1647 37.9044 26.3147 37.6244 27.2747 37.0844C30.6147 35.1744 34.5447 30.5744 37.5247 25.0844C39.0547 22.2744 42.4647 15.1744 41.1747 10.0444C40.0147 5.39444 36.0747 0.684439 30.8048 0.684439L30.7947 0.674438Z" fill="#C07A2A"/>
<path d="M32.4946 13.7745C32.3846 13.9745 32.4746 14.1645 32.4846 14.2745C32.4846 14.3545 32.4845 14.4345 32.4645 14.5145L32.4846 14.5345C32.5046 14.5545 32.5246 14.5745 32.5446 14.5945C32.6246 14.6745 32.7146 14.7645 32.7946 14.8445C32.8246 14.8745 32.8446 14.9045 32.8746 14.9345C32.9046 14.9645 32.9246 14.9945 32.9546 15.0245C32.9846 15.0545 33.0046 15.0745 33.0346 15.1045C33.0646 15.1345 33.0846 15.1645 33.1146 15.1845C33.1246 15.2045 33.1445 15.2245 33.1545 15.2445C33.1945 15.3045 33.2345 15.3645 33.2745 15.4245C33.2945 15.4545 33.3145 15.4845 33.3345 15.5245C33.8845 15.8645 34.1446 16.1145 34.7646 16.2345C34.7946 16.2445 34.8246 16.2645 34.8546 16.2745C34.8746 16.2845 34.8845 16.3045 34.9045 16.3145C34.9145 16.3145 34.9246 16.3145 34.9346 16.3045C34.9346 16.3045 34.9746 16.2945 34.9946 16.2845C35.0146 16.2845 35.0245 16.2745 35.0245 16.2745C35.0845 16.2445 35.1545 16.2145 35.2145 16.1745C35.2445 16.1645 35.2646 16.1445 35.2946 16.1245C35.2946 16.1245 35.2946 16.1245 35.3046 16.1245C35.3546 16.0945 35.4245 16.0345 35.4645 16.0145C35.4945 15.9945 35.5246 15.9645 35.5446 15.9445C35.6246 15.8545 35.6246 15.8745 35.5446 15.9445C35.5446 15.9445 35.5346 15.9645 35.5146 15.9745C35.5446 15.9445 35.5846 15.9045 35.6146 15.8745C35.6446 15.8445 35.6845 15.8045 35.7145 15.7645C35.7445 15.6945 35.7746 15.6345 35.8146 15.5645C35.7846 15.4845 35.7746 15.3945 35.7946 15.2645C35.7846 15.2345 35.7646 15.1945 35.7546 15.1645C35.7146 15.0545 35.6846 14.9345 35.6646 14.7945C35.6446 14.7645 35.6145 14.7345 35.5845 14.7045C35.5345 14.6545 35.4846 14.6145 35.4146 14.5845C35.3846 14.5645 35.3546 14.5545 35.3146 14.5345C34.7146 14.4445 34.4446 14.1945 34.0946 13.7545C34.0746 13.7245 34.0546 13.6945 34.0446 13.6645C33.9746 13.5445 33.9046 13.4045 33.8446 13.2445C33.8446 13.2045 33.8246 13.1645 33.8146 13.1245C33.7946 13.0845 33.7846 13.0445 33.7646 13.0145C33.7546 12.9945 33.7345 12.9745 33.7145 12.9545C33.2045 13.0945 32.6846 13.3345 32.4446 13.7645L32.4946 13.7745Z" fill="#ECAF20"/>
<path d="M44.3247 40.1244C44.2147 40.3244 44.3046 40.5144 44.3146 40.6244C44.3146 40.7044 44.3146 40.7844 44.2946 40.8644L44.3146 40.8844C44.3346 40.9044 44.3546 40.9244 44.3746 40.9444C44.4546 41.0244 44.5446 41.1144 44.6246 41.1944C44.6546 41.2244 44.6747 41.2544 44.7047 41.2844C44.7347 41.3144 44.7546 41.3444 44.7846 41.3744C44.8146 41.4044 44.8346 41.4244 44.8646 41.4544C44.8946 41.4844 44.9146 41.5144 44.9446 41.5344C44.9546 41.5544 44.9746 41.5744 44.9846 41.5944C45.0246 41.6544 45.0646 41.7144 45.1046 41.7744C45.1246 41.8044 45.1446 41.8344 45.1646 41.8744C45.7146 42.2144 45.9746 42.4644 46.5946 42.5844C46.6246 42.5944 46.6546 42.6144 46.6846 42.6244C46.7046 42.6344 46.7146 42.6544 46.7346 42.6644C46.7446 42.6644 46.7547 42.6644 46.7647 42.6544C46.7647 42.6544 46.8047 42.6444 46.8247 42.6344C46.8447 42.6344 46.8546 42.6244 46.8546 42.6244C46.9146 42.5944 46.9846 42.5644 47.0446 42.5244C47.0746 42.5144 47.0946 42.4944 47.1246 42.4744C47.1246 42.4744 47.1247 42.4744 47.1347 42.4744C47.1847 42.4444 47.2546 42.3844 47.2946 42.3644C47.3246 42.3444 47.3546 42.3144 47.3746 42.2944C47.4546 42.2044 47.4546 42.2244 47.3746 42.2944C47.3746 42.3044 47.3646 42.3144 47.3446 42.3244C47.3746 42.2944 47.4146 42.2544 47.4446 42.2244C47.4746 42.1944 47.5146 42.1544 47.5446 42.1144C47.5746 42.0444 47.6146 41.9844 47.6446 41.9144C47.6146 41.8344 47.6046 41.7444 47.6246 41.6144C47.6146 41.5844 47.5946 41.5444 47.5846 41.5144C47.5446 41.4044 47.5146 41.2844 47.4946 41.1444C47.4746 41.1144 47.4446 41.0844 47.4146 41.0544C47.3646 41.0044 47.3146 40.9644 47.2446 40.9344C47.2146 40.9144 47.1846 40.9044 47.1446 40.8844C46.5446 40.7944 46.2746 40.5444 45.9246 40.1044C45.9046 40.0744 45.8846 40.0444 45.8746 40.0144C45.8046 39.8944 45.7346 39.7544 45.6746 39.5944C45.6746 39.5544 45.6546 39.5144 45.6446 39.4744C45.6246 39.4344 45.6146 39.3944 45.5946 39.3644C45.5846 39.3444 45.5646 39.3244 45.5446 39.3044C45.0346 39.4444 44.5146 39.6844 44.2746 40.1144L44.3247 40.1244Z" fill="#ECAF20"/>
<path d="M17.6945 31.6245C17.7945 31.8345 18.0045 31.8545 18.1045 31.9245C18.1645 31.9645 18.2345 32.0145 18.2945 32.0745C18.3045 32.0745 18.3145 32.0745 18.3245 32.0745C18.3545 32.0745 18.3845 32.0645 18.4145 32.0545C18.5345 32.0345 18.6445 32.0145 18.7645 31.9945C18.8045 31.9945 18.8445 31.9845 18.8845 31.9745C18.9245 31.9645 18.9645 31.9645 19.0045 31.9545C19.0445 31.9545 19.0745 31.9445 19.1145 31.9345C19.1545 31.9345 19.1845 31.9345 19.2245 31.9245C19.2445 31.9245 19.2745 31.9245 19.2945 31.9245C19.3645 31.9245 19.4345 31.9245 19.5145 31.9245C19.5545 31.9245 19.5845 31.9245 19.6245 31.9245C20.2145 31.6645 20.5745 31.5945 21.0245 31.1545C21.0545 31.1345 21.0845 31.1245 21.1145 31.1045C21.1345 31.1045 21.1545 31.0945 21.1745 31.0845C21.1745 31.0745 21.1745 31.0645 21.1745 31.0545C21.1745 31.0545 21.1745 31.0145 21.1845 30.9945C21.1845 30.9745 21.1845 30.9645 21.1845 30.9545C21.1945 30.8845 21.2045 30.8145 21.2145 30.7445C21.2145 30.7145 21.2145 30.6845 21.2145 30.6545C21.2145 30.6545 21.2145 30.6545 21.2145 30.6345C21.2145 30.5745 21.2145 30.4845 21.2145 30.4345C21.2145 30.3945 21.2145 30.3645 21.2045 30.3245C21.1745 30.2045 21.1945 30.2145 21.2045 30.3245C21.2045 30.3345 21.2045 30.3445 21.2045 30.3645C21.1945 30.3245 21.1845 30.2645 21.1745 30.2245C21.1745 30.1745 21.1545 30.1345 21.1445 30.0845C21.1145 30.0145 21.0745 29.9545 21.0345 29.8945C20.9545 29.8745 20.8645 29.8345 20.7745 29.7445C20.7445 29.7445 20.7045 29.7245 20.6645 29.7145C20.5545 29.6845 20.4345 29.6345 20.3145 29.5745C20.2745 29.5745 20.2345 29.5745 20.1945 29.5845C20.1245 29.5945 20.0645 29.6245 19.9945 29.6545C19.9645 29.6745 19.9345 29.6845 19.8945 29.7045C19.4745 30.1445 19.1245 30.2245 18.5645 30.2645C18.5345 30.2645 18.4945 30.2645 18.4645 30.2645C18.3245 30.2545 18.1745 30.2245 18.0045 30.1845C17.9645 30.1745 17.9345 30.1545 17.8945 30.1445C17.8545 30.1445 17.8145 30.1345 17.7745 30.1245C17.7445 30.1245 17.7245 30.1245 17.6945 30.1245C17.5245 30.6245 17.4245 31.1845 17.6445 31.6245H17.6945Z" fill="#ECAF20"/>
<path d="M28.1446 70.8244C28.3746 70.8244 28.4846 70.6444 28.5846 70.5744C28.6446 70.5344 28.7246 70.4944 28.8046 70.4644C28.8046 70.4544 28.8046 70.4444 28.8046 70.4344C28.8046 70.4044 28.8146 70.3744 28.8246 70.3444C28.8546 70.2244 28.8846 70.1144 28.9146 70.0044C28.9246 69.9644 28.9346 69.9244 28.9446 69.8944C28.9546 69.8544 28.9646 69.8144 28.9746 69.7744C28.9846 69.7344 28.9946 69.7044 29.0046 69.6644C29.0146 69.6244 29.0246 69.5944 29.0346 69.5544C29.0346 69.5344 29.0546 69.5144 29.0646 69.4844C29.0946 69.4144 29.1246 69.3544 29.1546 69.2844C29.1746 69.2544 29.1847 69.2144 29.2047 69.1844C29.2147 68.5344 29.2946 68.1844 29.0746 67.5844C29.0746 67.5544 29.0746 67.5144 29.0746 67.4844C29.0746 67.4644 29.0746 67.4444 29.0746 67.4244C29.0746 67.4244 29.0546 67.4144 29.0446 67.4044C29.0446 67.4044 29.0146 67.3844 28.9946 67.3644C28.9846 67.3644 28.9646 67.3444 28.9646 67.3444C28.9046 67.3044 28.8446 67.2644 28.7846 67.2344C28.7546 67.2144 28.7347 67.2044 28.7047 67.1844C28.7047 67.1844 28.7046 67.1844 28.6946 67.1844C28.6446 67.1644 28.5546 67.1244 28.5146 67.1044C28.4846 67.0944 28.4446 67.0844 28.4146 67.0744C28.2946 67.0544 28.3146 67.0444 28.4146 67.0744C28.4246 67.0744 28.4347 67.0744 28.4547 67.0744C28.4147 67.0744 28.3646 67.0544 28.3146 67.0444C28.2646 67.0344 28.2246 67.0244 28.1746 67.0144C28.1046 67.0144 28.0247 67.0244 27.9547 67.0344C27.9047 67.1044 27.8247 67.1544 27.7047 67.2044C27.6847 67.2344 27.6646 67.2644 27.6346 67.2944C27.5646 67.3844 27.4746 67.4644 27.3646 67.5544C27.3446 67.5944 27.3346 67.6244 27.3246 67.6644C27.3046 67.7344 27.3046 67.8044 27.3046 67.8744C27.3046 67.9144 27.3046 67.9444 27.3046 67.9844C27.5346 68.5544 27.4546 68.9044 27.2646 69.4344C27.2446 69.4644 27.2346 69.4944 27.2146 69.5244C27.1446 69.6444 27.0647 69.7744 26.9547 69.9144C26.9247 69.9444 26.8946 69.9644 26.8646 69.9944C26.8446 70.0244 26.8146 70.0644 26.7946 70.0944C26.7846 70.1144 26.7746 70.1444 26.7646 70.1644C27.1446 70.5244 27.6146 70.8444 28.1146 70.8244H28.1446Z" fill="#ECAF20"/>
<path d="M7.59469 61.5045C7.69469 61.7145 7.90466 61.7345 8.00466 61.8045C8.06466 61.8445 8.13467 61.8945 8.19467 61.9545C8.20467 61.9545 8.21466 61.9545 8.22466 61.9545C8.25466 61.9545 8.28469 61.9445 8.31469 61.9345C8.43469 61.9145 8.54467 61.8945 8.66467 61.8745C8.70467 61.8745 8.74466 61.8645 8.78466 61.8545C8.82466 61.8545 8.86469 61.8445 8.90469 61.8345C8.94469 61.8345 8.97467 61.8245 9.01467 61.8145C9.05467 61.8145 9.08469 61.8145 9.12469 61.8045C9.14469 61.8045 9.17467 61.8045 9.19467 61.8045C9.26467 61.8045 9.33467 61.8045 9.41467 61.8045C9.45467 61.8045 9.48468 61.8045 9.52468 61.8045C10.1147 61.5445 10.4747 61.4745 10.9247 61.0345C10.9547 61.0145 10.9847 61.0045 11.0147 60.9845C11.0347 60.9845 11.0547 60.9745 11.0747 60.9645C11.0747 60.9545 11.0747 60.9445 11.0747 60.9345C11.0747 60.9345 11.0747 60.8945 11.0847 60.8745C11.0847 60.8545 11.0847 60.8445 11.0847 60.8345C11.0947 60.7645 11.1047 60.6945 11.1147 60.6245C11.1147 60.5945 11.1147 60.5645 11.1147 60.5345C11.1147 60.5345 11.1147 60.5345 11.1147 60.5245C11.1147 60.4645 11.1147 60.3745 11.1147 60.3245C11.1147 60.2845 11.1147 60.2545 11.1047 60.2145C11.0747 60.0945 11.0947 60.1045 11.1047 60.2145C11.1047 60.2245 11.1047 60.2345 11.1047 60.2545C11.0947 60.2145 11.0847 60.1545 11.0747 60.1145C11.0747 60.0645 11.0547 60.0245 11.0447 59.9745C11.0147 59.9045 10.9747 59.8445 10.9347 59.7845C10.8547 59.7645 10.7647 59.7245 10.6747 59.6345C10.6347 59.6345 10.6047 59.6145 10.5647 59.6045C10.4547 59.5745 10.3447 59.5245 10.2147 59.4645C10.1747 59.4645 10.1347 59.4645 10.0947 59.4745C10.0247 59.4845 9.96468 59.5145 9.89468 59.5445C9.86468 59.5645 9.83468 59.5745 9.80468 59.5945C9.38468 60.0345 9.03466 60.1145 8.47466 60.1545C8.44466 60.1545 8.40469 60.1545 8.37469 60.1545C8.23469 60.1445 8.08467 60.1145 7.91467 60.0745C7.87467 60.0645 7.84468 60.0445 7.80468 60.0345C7.76468 60.0345 7.72469 60.0245 7.68469 60.0145C7.65469 60.0145 7.63467 60.0145 7.60467 60.0145C7.43467 60.5045 7.33468 61.0745 7.55468 61.5145L7.59469 61.5045Z" fill="#ECAF20"/>
<path d="M36.2745 12.2944C36.4745 12.1844 36.5046 11.9844 36.5646 11.8844C36.6046 11.8144 36.6545 11.7544 36.7145 11.6844C36.7145 11.6744 36.7145 11.6644 36.7145 11.6544C36.7145 11.6244 36.7046 11.5944 36.6946 11.5644C36.6646 11.4444 36.6446 11.3344 36.6246 11.2144C36.6246 11.1744 36.6146 11.1344 36.6046 11.0944C36.5946 11.0544 36.5945 11.0144 36.5845 10.9744C36.5845 10.9344 36.5746 10.9044 36.5646 10.8644C36.5646 10.8244 36.5546 10.7944 36.5446 10.7544C36.5446 10.7344 36.5446 10.7044 36.5446 10.6844C36.5446 10.6144 36.5446 10.5444 36.5446 10.4644C36.5446 10.4244 36.5446 10.3944 36.5446 10.3544C36.2746 9.76443 36.1946 9.41443 35.7346 8.97443C35.7146 8.94443 35.6946 8.91443 35.6846 8.88443C35.6746 8.86443 35.6746 8.84443 35.6646 8.82443C35.6546 8.82443 35.6446 8.82443 35.6346 8.82443C35.6346 8.82443 35.5946 8.82443 35.5746 8.81443C35.5546 8.81443 35.5445 8.81443 35.5345 8.81443C35.4645 8.81443 35.3946 8.79443 35.3246 8.79443C35.2946 8.79443 35.2646 8.79443 35.2346 8.79443C35.2346 8.79443 35.2345 8.79443 35.2245 8.79443C35.1645 8.79443 35.0745 8.79443 35.0245 8.79443C34.9845 8.79443 34.9546 8.79443 34.9146 8.80443C34.7946 8.83443 34.8046 8.82443 34.9146 8.80443C34.9246 8.80443 34.9346 8.80443 34.9546 8.79443C34.9146 8.80443 34.8546 8.81443 34.8146 8.82443C34.7646 8.83443 34.7246 8.84443 34.6746 8.85443C34.6046 8.89443 34.5446 8.92443 34.4846 8.96443C34.4646 9.04443 34.4245 9.13443 34.3345 9.22443C34.3345 9.26443 34.3246 9.29443 34.3146 9.33443C34.2846 9.44443 34.2446 9.56443 34.1846 9.69443C34.1846 9.73443 34.1846 9.77443 34.2046 9.81443C34.2246 9.88443 34.2445 9.94443 34.2745 10.0044C34.2945 10.0344 34.3046 10.0644 34.3246 10.0944C34.7846 10.5044 34.8646 10.8544 34.9246 11.4144C34.9246 11.4444 34.9246 11.4844 34.9246 11.5144C34.9246 11.6544 34.8946 11.8044 34.8546 11.9744C34.8446 12.0144 34.8246 12.0444 34.8146 12.0844C34.8146 12.1244 34.8046 12.1644 34.7946 12.2044C34.7946 12.2344 34.7946 12.2544 34.7946 12.2844C35.2946 12.4444 35.8646 12.5244 36.2946 12.2844L36.2745 12.2944Z" fill="#ECAF20"/>
<path d="M59.8146 48.1344C60.0146 48.0244 60.0446 47.8244 60.1046 47.7244C60.1446 47.6544 60.1946 47.5944 60.2546 47.5244C60.2546 47.5144 60.2546 47.5044 60.2546 47.4944C60.2546 47.4644 60.2446 47.4344 60.2346 47.4044C60.2146 47.2844 60.1846 47.1744 60.1646 47.0544C60.1646 47.0144 60.1546 46.9744 60.1446 46.9344C60.1446 46.8944 60.1346 46.8544 60.1246 46.8144C60.1246 46.7744 60.1146 46.7444 60.1046 46.7044C60.1046 46.6644 60.0946 46.6344 60.0846 46.5944C60.0846 46.5744 60.0846 46.5444 60.0846 46.5244C60.0846 46.4544 60.0846 46.3844 60.0846 46.3044C60.0846 46.2644 60.0846 46.2344 60.0846 46.1944C59.8146 45.6044 59.7346 45.2544 59.2746 44.8144C59.2546 44.7844 59.2346 44.7544 59.2246 44.7244C59.2146 44.7044 59.2147 44.6844 59.2047 44.6644C59.1947 44.6644 59.1846 44.6644 59.1746 44.6644C59.1746 44.6644 59.1346 44.6644 59.1146 44.6544C59.0946 44.6544 59.0846 44.6544 59.0746 44.6544C59.0046 44.6544 58.9346 44.6344 58.8646 44.6344C58.8346 44.6344 58.8046 44.6344 58.7746 44.6344C58.7746 44.6344 58.7746 44.6344 58.7646 44.6344C58.7046 44.6344 58.6146 44.6344 58.5646 44.6344C58.5246 44.6344 58.4947 44.6344 58.4547 44.6444C58.3347 44.6744 58.3447 44.6644 58.4547 44.6444C58.4647 44.6444 58.4746 44.6444 58.4946 44.6344C58.4546 44.6444 58.3946 44.6544 58.3546 44.6644C58.3046 44.6744 58.2646 44.6844 58.2146 44.6944C58.1446 44.7344 58.0846 44.7644 58.0246 44.8044C58.0046 44.8844 57.9646 44.9744 57.8746 45.0644C57.8746 45.1044 57.8646 45.1344 57.8546 45.1744C57.8246 45.2844 57.7846 45.4044 57.7246 45.5344C57.7246 45.5744 57.7246 45.6144 57.7446 45.6544C57.7646 45.7244 57.7846 45.7844 57.8146 45.8544C57.8346 45.8844 57.8446 45.9144 57.8746 45.9444C58.3346 46.3544 58.4146 46.7044 58.4746 47.2644C58.4746 47.2944 58.4746 47.3344 58.4746 47.3644C58.4746 47.5044 58.4446 47.6544 58.4046 47.8244C58.3946 47.8644 58.3746 47.8944 58.3646 47.9344C58.3646 47.9744 58.3546 48.0144 58.3446 48.0544C58.3446 48.0844 58.3446 48.1044 58.3446 48.1344C58.8446 48.2944 59.4146 48.3744 59.8446 48.1344H59.8146Z" fill="#ECAF20"/>
<path d="M28.5448 53.9344C28.7448 53.8244 28.7748 53.6244 28.8348 53.5244C28.8748 53.4544 28.9248 53.3944 28.9848 53.3244C28.9848 53.3144 28.9848 53.3044 28.9848 53.2944C28.9848 53.2644 28.9748 53.2344 28.9648 53.2044C28.9348 53.0844 28.9148 52.9745 28.8948 52.8545C28.8948 52.8145 28.8848 52.7744 28.8748 52.7344C28.8748 52.6944 28.8648 52.6544 28.8548 52.6144C28.8548 52.5744 28.8448 52.5444 28.8348 52.5044C28.8248 52.4644 28.8248 52.4344 28.8148 52.3944C28.8148 52.3744 28.8148 52.3444 28.8148 52.3244C28.8148 52.2544 28.8148 52.1845 28.8148 52.1045C28.8148 52.0645 28.8148 52.0344 28.8148 51.9944C28.5448 51.4044 28.4648 51.0544 28.0048 50.6144C27.9848 50.5844 27.9648 50.5544 27.9548 50.5244C27.9448 50.5044 27.9448 50.4844 27.9348 50.4644C27.9248 50.4644 27.9148 50.4644 27.9048 50.4644C27.9048 50.4644 27.8648 50.4644 27.8448 50.4544C27.8248 50.4544 27.8148 50.4544 27.8048 50.4544C27.7348 50.4544 27.6648 50.4344 27.5948 50.4344C27.5648 50.4344 27.5348 50.4344 27.5048 50.4344C27.5048 50.4344 27.5048 50.4344 27.4848 50.4344C27.4248 50.4344 27.3348 50.4344 27.2848 50.4344C27.2448 50.4344 27.2148 50.4344 27.1748 50.4444C27.0548 50.4744 27.0648 50.4644 27.1748 50.4444C27.1848 50.4444 27.1948 50.4444 27.2148 50.4344C27.1748 50.4444 27.1148 50.4544 27.0748 50.4644C27.0248 50.4744 26.9848 50.4844 26.9348 50.4944C26.8748 50.5344 26.8048 50.5644 26.7448 50.6044C26.7248 50.6844 26.6848 50.7744 26.5948 50.8644C26.5948 50.9044 26.5748 50.9344 26.5748 50.9744C26.5448 51.0844 26.5048 51.2044 26.4448 51.3344C26.4448 51.3744 26.4448 51.4144 26.4648 51.4544C26.4848 51.5244 26.5048 51.5844 26.5348 51.6444C26.5548 51.6744 26.5648 51.7044 26.5948 51.7344C27.0548 52.1444 27.1348 52.4944 27.1948 53.0544C27.1948 53.0844 27.1948 53.1244 27.1948 53.1544C27.1948 53.2944 27.1648 53.4444 27.1248 53.6144C27.1148 53.6544 27.0948 53.6844 27.0848 53.7244C27.0848 53.7644 27.0748 53.8044 27.0748 53.8444C27.0748 53.8744 27.0748 53.8944 27.0748 53.9244C27.5748 54.0845 28.1448 54.1644 28.5748 53.9244L28.5448 53.9344Z" fill="#ECAF20"/>
<path d="M24.4944 33.1244C24.6044 33.0944 24.6444 33.0044 24.6844 32.9644C24.7144 32.9344 24.7444 32.9144 24.7844 32.8944C24.7844 32.8944 24.7844 32.8844 24.7844 32.8744C24.7844 32.8644 24.7844 32.8444 24.7844 32.8344C24.7844 32.7744 24.7844 32.7144 24.7944 32.6544C24.7944 32.6344 24.7944 32.6144 24.7944 32.5944C24.7944 32.5744 24.7944 32.5544 24.7944 32.5344C24.7944 32.5144 24.7944 32.4944 24.7944 32.4744C24.7944 32.4544 24.7944 32.4344 24.7944 32.4144C24.7944 32.4044 24.7944 32.3944 24.7944 32.3844C24.7944 32.3544 24.8144 32.3144 24.8244 32.2744C24.8244 32.2544 24.8344 32.2344 24.8444 32.2244C24.7944 31.9044 24.8044 31.7244 24.6444 31.4544C24.6444 31.4344 24.6444 31.4244 24.6344 31.4044C24.6344 31.3944 24.6344 31.3844 24.6344 31.3744C24.6344 31.3744 24.6344 31.3744 24.6244 31.3744C24.6244 31.3744 24.6044 31.3744 24.5944 31.3644C24.5944 31.3644 24.5844 31.3644 24.5744 31.3644C24.5444 31.3544 24.5144 31.3344 24.4744 31.3244C24.4644 31.3244 24.4444 31.3144 24.4344 31.3044C24.4044 31.3044 24.3644 31.2844 24.3344 31.2844C24.3144 31.2844 24.2944 31.2844 24.2844 31.2844C24.2244 31.2844 24.2344 31.2844 24.2844 31.2844C24.2844 31.2844 24.2944 31.2844 24.3044 31.2844C24.2844 31.2844 24.2544 31.2844 24.2344 31.2844C24.2144 31.2844 24.1844 31.2844 24.1644 31.2844C24.1244 31.2844 24.0944 31.3044 24.0544 31.3144C24.0344 31.3544 24.0044 31.3844 23.9444 31.4244C23.9444 31.4444 23.9244 31.4544 23.9144 31.4744C23.8844 31.5244 23.8544 31.5744 23.8044 31.6244C23.8044 31.6444 23.8044 31.6644 23.8044 31.6844C23.8044 31.7144 23.8044 31.7544 23.8044 31.7844C23.8044 31.8044 23.8044 31.8144 23.8144 31.8344C23.9744 32.0944 23.9744 32.2744 23.9244 32.5544C23.9244 32.5744 23.9144 32.5844 23.9044 32.6044C23.8844 32.6744 23.8544 32.7444 23.8144 32.8144C23.8044 32.8344 23.7944 32.8444 23.7744 32.8644C23.7744 32.8844 23.7544 32.9044 23.7544 32.9244C23.7544 32.9344 23.7544 32.9544 23.7544 32.9644C23.9744 33.1044 24.2344 33.2244 24.4744 33.1744L24.4944 33.1244Z" fill="#ECAF20"/>
<path d="M47.8848 29.7945C47.9948 29.7645 48.0348 29.6745 48.0748 29.6345C48.1048 29.6045 48.1348 29.5845 48.1748 29.5645C48.1748 29.5645 48.1748 29.5545 48.1748 29.5445C48.1748 29.5345 48.1748 29.5145 48.1748 29.5045C48.1748 29.4445 48.1748 29.3845 48.1848 29.3245C48.1848 29.3045 48.1848 29.2845 48.1848 29.2645C48.1848 29.2445 48.1848 29.2245 48.1848 29.2045C48.1848 29.1845 48.1848 29.1645 48.1848 29.1445C48.1848 29.1245 48.1848 29.1045 48.1848 29.0845C48.1848 29.0745 48.1848 29.0645 48.1848 29.0545C48.1848 29.0245 48.2048 28.9845 48.2148 28.9445C48.2148 28.9245 48.2248 28.9045 48.2348 28.8945C48.1848 28.5745 48.1948 28.3945 48.0348 28.1245C48.0348 28.1045 48.0348 28.0945 48.0248 28.0745C48.0248 28.0645 48.0248 28.0545 48.0248 28.0445C48.0248 28.0445 48.0248 28.0445 48.0148 28.0445C48.0148 28.0445 47.9948 28.0445 47.9848 28.0345C47.9848 28.0345 47.9748 28.0345 47.9648 28.0345C47.9348 28.0245 47.9048 28.0045 47.8648 27.9945C47.8548 27.9945 47.8348 27.9845 47.8248 27.9745C47.7948 27.9745 47.7548 27.9545 47.7248 27.9545C47.7048 27.9545 47.6848 27.9545 47.6748 27.9545C47.6148 27.9545 47.6248 27.9545 47.6748 27.9545C47.6748 27.9545 47.6848 27.9545 47.6948 27.9545C47.6748 27.9545 47.6448 27.9545 47.6248 27.9545C47.6048 27.9545 47.5748 27.9545 47.5548 27.9545C47.5148 27.9545 47.4848 27.9745 47.4448 27.9845C47.4248 28.0245 47.3948 28.0545 47.3348 28.0945C47.3348 28.1145 47.3148 28.1245 47.3048 28.1445C47.2748 28.1945 47.2448 28.2445 47.1948 28.2945C47.1948 28.3145 47.1948 28.3345 47.1948 28.3545C47.1948 28.3845 47.1948 28.4245 47.1948 28.4545C47.1948 28.4745 47.1948 28.4845 47.2048 28.5045C47.3648 28.7645 47.3648 28.9445 47.3148 29.2245C47.3148 29.2445 47.3048 29.2545 47.2948 29.2745C47.2748 29.3445 47.2448 29.4145 47.2048 29.4845C47.1948 29.5045 47.1848 29.5145 47.1748 29.5345C47.1748 29.5545 47.1548 29.5745 47.1548 29.5945C47.1548 29.6045 47.1548 29.6245 47.1548 29.6345C47.3748 29.7745 47.6348 29.8945 47.8748 29.8445L47.8848 29.7945Z" fill="#ECAF20"/>
<path d="M36.9444 61.2945C37.0544 61.2645 37.0944 61.1745 37.1344 61.1345C37.1644 61.1045 37.1944 61.0845 37.2344 61.0645C37.2344 61.0645 37.2344 61.0545 37.2344 61.0445C37.2344 61.0345 37.2344 61.0145 37.2344 61.0045C37.2344 60.9445 37.2344 60.8845 37.2444 60.8245C37.2444 60.8045 37.2444 60.7845 37.2444 60.7645C37.2444 60.7445 37.2444 60.7245 37.2444 60.7045C37.2444 60.6845 37.2444 60.6645 37.2444 60.6445C37.2444 60.6245 37.2444 60.6045 37.2444 60.5845C37.2444 60.5745 37.2444 60.5645 37.2444 60.5545C37.2444 60.5245 37.2644 60.4845 37.2744 60.4445C37.2744 60.4245 37.2844 60.4045 37.2944 60.3945C37.2444 60.0745 37.2544 59.8945 37.0944 59.6245C37.0944 59.6045 37.0944 59.5945 37.0844 59.5745C37.0844 59.5645 37.0844 59.5545 37.0844 59.5445C37.0844 59.5445 37.0844 59.5445 37.0744 59.5445C37.0744 59.5445 37.0544 59.5445 37.0444 59.5345C37.0444 59.5345 37.0344 59.5345 37.0244 59.5345C36.9944 59.5245 36.9644 59.5045 36.9244 59.4945C36.9144 59.4945 36.8944 59.4845 36.8844 59.4745C36.8544 59.4745 36.8144 59.4545 36.7844 59.4545C36.7644 59.4545 36.7444 59.4545 36.7344 59.4545C36.6744 59.4545 36.6844 59.4545 36.7344 59.4545C36.7344 59.4545 36.7444 59.4545 36.7544 59.4545C36.7344 59.4545 36.7044 59.4545 36.6844 59.4545C36.6644 59.4545 36.6344 59.4545 36.6144 59.4545C36.5744 59.4545 36.5444 59.4745 36.5044 59.4845C36.4844 59.5245 36.4543 59.5545 36.3943 59.5945C36.3943 59.6145 36.3744 59.6245 36.3644 59.6445C36.3344 59.6945 36.3044 59.7445 36.2544 59.7945C36.2544 59.8145 36.2544 59.8345 36.2544 59.8545C36.2544 59.8845 36.2544 59.9245 36.2544 59.9545C36.2544 59.9745 36.2544 59.9845 36.2644 60.0045C36.4244 60.2645 36.4244 60.4445 36.3744 60.7245C36.3744 60.7445 36.3644 60.7545 36.3544 60.7745C36.3344 60.8445 36.3044 60.9145 36.2644 60.9845C36.2544 61.0045 36.2444 61.0145 36.2344 61.0345C36.2344 61.0545 36.2144 61.0745 36.2144 61.0945C36.2144 61.1045 36.2144 61.1245 36.2144 61.1345C36.4344 61.2745 36.6944 61.3945 36.9344 61.3445L36.9444 61.2945Z" fill="#ECAF20"/>
<path d="M5.05462 16.7244C5.09462 16.8644 5.12461 16.9044 5.13461 16.9544C5.13461 16.9944 5.13461 17.0344 5.13461 17.0744V17.0344C5.13461 17.0244 5.13461 17.0144 5.13461 17.0144V17.0344L5.11462 17.0444L5.09463 17.0744H5.08462V17.0944V17.1244C5.08462 17.1244 5.06463 17.1244 5.06463 17.1444C5.17463 17.1444 5.21462 17.2444 5.45462 17.3544L5.4746 17.3844C5.4746 17.3844 5.4746 17.3944 5.4746 17.4044H5.49462C5.49462 17.4044 5.5146 17.4044 5.5346 17.4044C5.5446 17.4044 5.55462 17.4044 5.55462 17.4044C5.59462 17.4044 5.63463 17.4044 5.68463 17.4044H5.74462C5.78462 17.4044 5.83462 17.4044 5.86462 17.4044H5.93463C6.00463 17.4044 6.01463 17.4044 5.93463 17.4044C5.93463 17.4044 5.92461 17.4044 5.91461 17.4044C5.94461 17.4044 5.9746 17.4044 6.0046 17.4044H6.09463L6.2246 17.3444C6.2446 17.3044 6.27462 17.2644 6.33462 17.2144L6.35461 17.1644C6.35461 17.1644 6.40461 17.0544 6.44461 16.9744C6.44461 16.9544 6.44463 16.9344 6.43463 16.9144C6.43463 16.8744 6.40461 16.8444 6.38461 16.8144C6.37461 16.7944 6.36463 16.7844 6.34463 16.7644C6.02463 16.5944 5.96462 16.4344 5.67462 16.1644L5.62463 16.1144C5.55463 16.0444 5.46461 15.9744 5.35461 15.8944L5.2846 15.8444C5.2846 15.8444 5.22461 15.8144 5.19461 15.8044C5.16461 15.8044 5.15461 15.8044 5.13461 15.7944C4.91461 16.0844 4.92461 16.4344 5.01461 16.7344L5.05462 16.7244Z" fill="#ECAF20"/>
<path d="M65.4047 37.6545C65.4447 37.7945 65.4747 37.8345 65.4847 37.8845C65.4847 37.9245 65.4847 37.9645 65.4847 38.0045V37.9645C65.4847 37.9545 65.4847 37.9445 65.4847 37.9445V37.9645L65.4647 37.9745L65.4447 38.0045H65.4347V38.0245V38.0545C65.4347 38.0545 65.4147 38.0545 65.4147 38.0745C65.5247 38.0745 65.5647 38.1745 65.8047 38.2845L65.8247 38.3145C65.8247 38.3145 65.8247 38.3245 65.8247 38.3345H65.8447C65.8447 38.3345 65.8647 38.3345 65.8847 38.3345C65.8947 38.3345 65.9047 38.3345 65.9047 38.3345C65.9447 38.3345 65.9947 38.3345 66.0347 38.3345H66.0947C66.1347 38.3345 66.1847 38.3345 66.2147 38.3345H66.2847C66.3547 38.3345 66.3647 38.3345 66.2847 38.3345C66.2847 38.3345 66.2747 38.3345 66.2647 38.3345C66.2947 38.3345 66.3247 38.3345 66.3547 38.3345H66.4447L66.5747 38.2745C66.5947 38.2345 66.6247 38.1945 66.6847 38.1445L66.7047 38.0945C66.7047 38.0945 66.7547 37.9845 66.7947 37.9045C66.7947 37.8845 66.7947 37.8645 66.7847 37.8445C66.7847 37.8045 66.7547 37.7745 66.7347 37.7445C66.7247 37.7245 66.7147 37.7145 66.6947 37.6945C66.3747 37.5245 66.3147 37.3645 66.0247 37.0945L65.9747 37.0445C65.9047 36.9745 65.8147 36.9045 65.7047 36.8245L65.6347 36.7745C65.6347 36.7745 65.5747 36.7445 65.5447 36.7345C65.5147 36.7345 65.5047 36.7345 65.4847 36.7245C65.2647 37.0145 65.2747 37.3645 65.3647 37.6645L65.4047 37.6545Z" fill="#ECAF20"/>
<path d="M18.6147 28.1744C18.6547 28.3144 18.6847 28.3544 18.6947 28.4044C18.6947 28.4444 18.6947 28.4844 18.6947 28.5244V28.4844C18.6947 28.4744 18.6947 28.4644 18.6947 28.4644V28.4844L18.6747 28.4944L18.6547 28.5244H18.6447V28.5444V28.5744C18.6447 28.5744 18.6247 28.5744 18.6247 28.5944C18.7347 28.5944 18.7747 28.6944 19.0147 28.8044L19.0347 28.8344C19.0347 28.8344 19.0347 28.8444 19.0347 28.8544H19.0547C19.0547 28.8544 19.0747 28.8544 19.0947 28.8544C19.1047 28.8544 19.1147 28.8544 19.1147 28.8544C19.1547 28.8544 19.1947 28.8544 19.2447 28.8544H19.3047C19.3447 28.8544 19.3947 28.8544 19.4247 28.8544H19.4947C19.5647 28.8544 19.5747 28.8444 19.4947 28.8544C19.4947 28.8544 19.4847 28.8544 19.4747 28.8544C19.5047 28.8544 19.5347 28.8544 19.5647 28.8544H19.6547L19.7847 28.7944C19.8047 28.7544 19.8347 28.7144 19.8947 28.6644L19.9147 28.6144C19.9147 28.6144 19.9647 28.5044 20.0047 28.4244C20.0047 28.4044 20.0047 28.3844 19.9947 28.3644C19.9947 28.3244 19.9647 28.2944 19.9447 28.2644C19.9347 28.2444 19.9247 28.2344 19.9047 28.2144C19.5847 28.0444 19.5247 27.8844 19.2347 27.6144L19.1847 27.5644C19.1147 27.4944 19.0247 27.4244 18.9147 27.3444L18.8447 27.2944C18.8447 27.2944 18.7847 27.2644 18.7547 27.2544C18.7247 27.2544 18.7147 27.2544 18.6947 27.2444C18.4747 27.5344 18.4847 27.8844 18.5747 28.1844L18.6147 28.1744Z" fill="#ECAF20"/>
<path d="M46.9145 38.3444C46.9545 38.4844 46.9845 38.5244 46.9945 38.5744C46.9945 38.6144 46.9945 38.6544 46.9945 38.6944V38.6544C46.9945 38.6444 46.9945 38.6344 46.9945 38.6344V38.6544L46.9745 38.6644L46.9545 38.6944H46.9445V38.7144V38.7444C46.9445 38.7444 46.9245 38.7444 46.9245 38.7644C47.0345 38.7644 47.0745 38.8644 47.3145 38.9744L47.3344 39.0044C47.3344 39.0044 47.3344 39.0144 47.3344 39.0244H47.3545C47.3545 39.0244 47.3744 39.0244 47.3944 39.0244C47.4044 39.0244 47.4145 39.0244 47.4145 39.0244C47.4545 39.0244 47.4945 39.0244 47.5445 39.0244H47.6045C47.6445 39.0244 47.6945 39.0244 47.7245 39.0244H47.7945C47.8645 39.0244 47.8745 39.0144 47.7945 39.0244C47.7945 39.0244 47.7844 39.0244 47.7744 39.0244C47.8044 39.0244 47.8345 39.0244 47.8645 39.0244H47.9545L48.0844 38.9644C48.1044 38.9244 48.1345 38.8844 48.1945 38.8344L48.2144 38.7844C48.2144 38.7844 48.2645 38.6744 48.3045 38.5944C48.3045 38.5744 48.3045 38.5544 48.2945 38.5344C48.2945 38.4944 48.2645 38.4644 48.2445 38.4344C48.2345 38.4144 48.2245 38.4044 48.2045 38.3844C47.8845 38.2144 47.8244 38.0544 47.5344 37.7844L47.4845 37.7344C47.4145 37.6644 47.3244 37.5944 47.2144 37.5144L47.1444 37.4644C47.1444 37.4644 47.0845 37.4344 47.0545 37.4244C47.0245 37.4244 47.0145 37.4244 46.9945 37.4144C46.7745 37.7044 46.7845 38.0544 46.8745 38.3544L46.9145 38.3444Z" fill="#ECAF20"/>
<path d="M22.4648 69.7545C22.5048 69.8945 22.5348 69.9345 22.5448 69.9845C22.5448 70.0245 22.5448 70.0645 22.5448 70.1045V70.0645C22.5448 70.0545 22.5448 70.0445 22.5448 70.0445V70.0645L22.5248 70.0745L22.5048 70.1045H22.4948V70.1245V70.1545C22.4948 70.1545 22.4748 70.1545 22.4748 70.1745C22.5848 70.1745 22.6248 70.2745 22.8648 70.3845L22.8848 70.4145C22.8848 70.4145 22.8848 70.4245 22.8848 70.4345H22.9048C22.9048 70.4345 22.9248 70.4345 22.9448 70.4345C22.9548 70.4345 22.9648 70.4345 22.9648 70.4345C23.0048 70.4345 23.0448 70.4345 23.0948 70.4345H23.1548C23.1948 70.4345 23.2448 70.4345 23.2748 70.4345H23.3448C23.4148 70.4345 23.4248 70.4345 23.3448 70.4345C23.3448 70.4345 23.3348 70.4345 23.3248 70.4345C23.3548 70.4345 23.3848 70.4345 23.4148 70.4345H23.5048L23.6348 70.3745C23.6548 70.3345 23.6848 70.2945 23.7448 70.2445L23.7648 70.1945C23.7648 70.1945 23.8148 70.0845 23.8548 70.0045C23.8548 69.9845 23.8548 69.9645 23.8448 69.9445C23.8448 69.9045 23.8148 69.8745 23.7948 69.8445C23.7848 69.8245 23.7748 69.8145 23.7548 69.7945C23.4348 69.6245 23.3748 69.4645 23.0848 69.1945L23.0348 69.1445C22.9648 69.0745 22.8748 69.0045 22.7648 68.9245L22.6948 68.8745C22.6948 68.8745 22.6348 68.8445 22.6048 68.8345C22.5748 68.8345 22.5648 68.8345 22.5448 68.8245C22.3248 69.1145 22.3348 69.4645 22.4248 69.7645L22.4648 69.7545Z" fill="#ECAF20"/>
<path d="M33.7245 57.8144C33.7645 57.9544 33.7945 57.9944 33.8045 58.0444C33.8045 58.0844 33.8045 58.1244 33.8045 58.1644V58.1244C33.8045 58.1144 33.8045 58.1044 33.8045 58.1044V58.1244L33.7845 58.1344L33.7646 58.1644H33.7545V58.1844V58.2144C33.7545 58.2144 33.7345 58.2144 33.7345 58.2344C33.8445 58.2344 33.8845 58.3344 34.1245 58.4444L34.1445 58.4744C34.1445 58.4744 34.1445 58.4844 34.1445 58.4944H34.1645C34.1645 58.4944 34.1846 58.4944 34.2046 58.4944C34.2146 58.4944 34.2245 58.4944 34.2245 58.4944C34.2645 58.4944 34.3045 58.4944 34.3545 58.4944H34.4145C34.4545 58.4944 34.5045 58.4944 34.5345 58.4944H34.6045C34.6745 58.4944 34.6845 58.4844 34.6045 58.4944C34.6045 58.4944 34.5945 58.4944 34.5845 58.4944C34.6145 58.4944 34.6445 58.4944 34.6745 58.4944H34.7646L34.8945 58.4344C34.9145 58.3944 34.9445 58.3544 35.0045 58.3044L35.0245 58.2544C35.0245 58.2544 35.0745 58.1444 35.1145 58.0644C35.1145 58.0444 35.1145 58.0244 35.1045 58.0044C35.1045 57.9644 35.0745 57.9344 35.0545 57.9044C35.0445 57.8844 35.0346 57.8744 35.0146 57.8544C34.6946 57.6844 34.6345 57.5244 34.3445 57.2544L34.2945 57.2044C34.2245 57.1344 34.1345 57.0644 34.0245 56.9844L33.9546 56.9344C33.9546 56.9344 33.8945 56.9044 33.8645 56.8944C33.8345 56.8944 33.8245 56.8944 33.8045 56.8844C33.5845 57.1744 33.5945 57.5244 33.6845 57.8244L33.7245 57.8144Z" fill="#ECAF20"/>
<path d="M12.3645 19.4544C12.4745 19.4244 12.5145 19.3344 12.5545 19.2944C12.5845 19.2644 12.6145 19.2444 12.6545 19.2244C12.6545 19.2244 12.6545 19.2144 12.6545 19.2044V19.1644C12.6545 19.1044 12.6645 19.0444 12.6745 18.9844C12.6745 18.9644 12.6745 18.9444 12.6745 18.9244C12.6745 18.9044 12.6745 18.8844 12.6745 18.8644C12.6745 18.8444 12.6745 18.8244 12.6745 18.8044C12.6745 18.7844 12.6745 18.7644 12.6745 18.7444C12.6745 18.7344 12.6745 18.7244 12.6745 18.7144C12.6745 18.6844 12.6945 18.6444 12.7045 18.6044C12.7045 18.5844 12.7145 18.5644 12.7245 18.5544C12.6745 18.2344 12.6845 18.0544 12.5245 17.7844C12.5245 17.7644 12.5245 17.7544 12.5145 17.7344C12.5145 17.7244 12.5145 17.7144 12.5145 17.7044C12.5145 17.7044 12.5145 17.7044 12.5045 17.7044C12.5045 17.7044 12.4845 17.7044 12.4745 17.6944C12.4745 17.6944 12.4645 17.6944 12.4545 17.6944C12.4245 17.6844 12.3945 17.6644 12.3545 17.6544C12.3445 17.6544 12.3245 17.6444 12.3145 17.6344C12.2845 17.6344 12.2445 17.6144 12.2145 17.6144C12.1945 17.6144 12.1745 17.6144 12.1645 17.6144C12.1045 17.6144 12.1145 17.6144 12.1645 17.6144C12.1645 17.6144 12.1745 17.6144 12.1845 17.6144C12.1645 17.6144 12.1345 17.6144 12.1145 17.6144C12.0945 17.6144 12.0645 17.6144 12.0445 17.6144C12.0045 17.6144 11.9745 17.6344 11.9345 17.6444C11.9145 17.6844 11.8845 17.7144 11.8245 17.7544C11.8245 17.7744 11.8045 17.7844 11.7945 17.8044C11.7645 17.8544 11.7345 17.9044 11.6845 17.9544C11.6845 17.9744 11.6845 17.9944 11.6845 18.0144C11.6845 18.0444 11.6845 18.0844 11.6845 18.1144C11.6845 18.1344 11.6845 18.1444 11.6945 18.1644C11.8545 18.4244 11.8545 18.6044 11.8045 18.8844C11.8045 18.9044 11.7945 18.9144 11.7845 18.9344C11.7645 19.0044 11.7345 19.0744 11.6945 19.1444C11.6845 19.1644 11.6745 19.1744 11.6645 19.1944C11.6645 19.2144 11.6445 19.2344 11.6445 19.2544C11.6445 19.2644 11.6445 19.2844 11.6445 19.2944C11.8645 19.4344 12.1245 19.5544 12.3645 19.5044V19.4544Z" fill="#ECAF20"/>
<path d="M34.6944 47.3644C34.8044 47.3344 34.8444 47.2444 34.8844 47.2044C34.9144 47.1744 34.9444 47.1544 34.9844 47.1344C34.9844 47.1344 34.9844 47.1244 34.9844 47.1144C34.9844 47.1044 34.9844 47.0844 34.9844 47.0744C34.9844 47.0144 34.9844 46.9544 34.9944 46.8944C34.9944 46.8744 34.9944 46.8544 34.9944 46.8344C34.9944 46.8144 34.9944 46.7944 34.9944 46.7744C34.9944 46.7544 34.9944 46.7344 34.9944 46.7144C34.9944 46.6944 34.9944 46.6744 34.9944 46.6544C34.9944 46.6444 34.9944 46.6344 34.9944 46.6244C34.9944 46.5944 35.0144 46.5544 35.0244 46.5144C35.0244 46.4944 35.0344 46.4744 35.0444 46.4644C34.9944 46.1444 35.0044 45.9644 34.8444 45.6944C34.8444 45.6744 34.8444 45.6644 34.8344 45.6444C34.8344 45.6344 34.8344 45.6244 34.8344 45.6144C34.8344 45.6144 34.8344 45.6144 34.8244 45.6144C34.8244 45.6144 34.8044 45.6144 34.7944 45.6044C34.7944 45.6044 34.7844 45.6044 34.7744 45.6044C34.7444 45.5944 34.7144 45.5744 34.6744 45.5644C34.6644 45.5644 34.6444 45.5544 34.6344 45.5444C34.6044 45.5444 34.5644 45.5244 34.5344 45.5244C34.5144 45.5244 34.4944 45.5244 34.4844 45.5244C34.4244 45.5244 34.4344 45.5244 34.4844 45.5244C34.4844 45.5244 34.4944 45.5244 34.5044 45.5244C34.4844 45.5244 34.4544 45.5244 34.4344 45.5244C34.4144 45.5244 34.3844 45.5244 34.3644 45.5244C34.3244 45.5244 34.2944 45.5444 34.2544 45.5544C34.2344 45.5944 34.2043 45.6244 34.1443 45.6644C34.1443 45.6844 34.1244 45.6944 34.1144 45.7144C34.0844 45.7644 34.0544 45.8144 34.0044 45.8644C34.0044 45.8844 34.0044 45.9044 34.0044 45.9244C34.0044 45.9544 34.0044 45.9944 34.0044 46.0244C34.0044 46.0444 34.0044 46.0544 34.0144 46.0744C34.1744 46.3344 34.1744 46.5144 34.1244 46.7944C34.1244 46.8144 34.1144 46.8244 34.1044 46.8444C34.0844 46.9144 34.0544 46.9844 34.0144 47.0544C34.0044 47.0744 33.9944 47.0844 33.9844 47.1044C33.9844 47.1244 33.9644 47.1444 33.9644 47.1644C33.9644 47.1744 33.9644 47.1944 33.9644 47.2044C34.1844 47.3444 34.4444 47.4644 34.6844 47.4144L34.6944 47.3644Z" fill="#ECAF20"/>
<path d="M31.2446 23.3145C31.3546 23.2845 31.3946 23.1945 31.4346 23.1545C31.4646 23.1245 31.4946 23.1045 31.5346 23.0845C31.5346 23.0845 31.5346 23.0745 31.5346 23.0645C31.5346 23.0545 31.5346 23.0345 31.5346 23.0245C31.5346 22.9645 31.5346 22.9045 31.5446 22.8445C31.5446 22.8245 31.5446 22.8045 31.5446 22.7845C31.5446 22.7645 31.5446 22.7445 31.5446 22.7245C31.5446 22.7045 31.5446 22.6845 31.5446 22.6645C31.5446 22.6445 31.5446 22.6245 31.5446 22.6045C31.5446 22.5945 31.5446 22.5845 31.5446 22.5745C31.5446 22.5445 31.5646 22.5045 31.5746 22.4645C31.5746 22.4445 31.5846 22.4245 31.5946 22.4145C31.5446 22.0945 31.5546 21.9145 31.3946 21.6445C31.3946 21.6245 31.3946 21.6145 31.3846 21.5945C31.3846 21.5845 31.3846 21.5745 31.3846 21.5645C31.3846 21.5645 31.3846 21.5645 31.3746 21.5645H31.3446C31.3446 21.5645 31.3346 21.5445 31.3246 21.5445C31.2946 21.5345 31.2646 21.5145 31.2246 21.5045C31.2146 21.5045 31.1946 21.4945 31.1846 21.4845C31.1546 21.4845 31.1146 21.4645 31.0846 21.4645C31.0646 21.4645 31.0446 21.4645 31.0346 21.4645C30.9746 21.4645 30.9846 21.4645 31.0346 21.4645C31.0346 21.4645 31.0446 21.4645 31.0546 21.4645C31.0346 21.4645 31.0046 21.4645 30.9846 21.4645C30.9646 21.4645 30.9346 21.4645 30.9146 21.4645C30.8746 21.4645 30.8446 21.4845 30.8046 21.4945C30.7846 21.5345 30.7546 21.5645 30.6946 21.6045C30.6946 21.6245 30.6746 21.6345 30.6646 21.6545C30.6346 21.7045 30.6046 21.7545 30.5546 21.8045C30.5546 21.8245 30.5546 21.8445 30.5546 21.8645C30.5546 21.8945 30.5546 21.9345 30.5546 21.9645C30.5546 21.9845 30.5546 21.9945 30.5646 22.0145C30.7246 22.2745 30.7246 22.4545 30.6746 22.7345C30.6746 22.7545 30.6646 22.7645 30.6546 22.7845C30.6346 22.8545 30.6046 22.9245 30.5646 22.9945C30.5546 23.0145 30.5446 23.0245 30.5346 23.0445C30.5346 23.0645 30.5146 23.0845 30.5146 23.1045C30.5146 23.1145 30.5146 23.1345 30.5146 23.1445C30.7346 23.2845 30.9946 23.4045 31.2346 23.3545L31.2446 23.3145Z" fill="#ECAF20"/>
<path d="M66.9744 34.9045C67.0844 34.8745 67.1244 34.7845 67.1644 34.7445C67.1944 34.7145 67.2244 34.6945 67.2644 34.6745C67.2644 34.6745 67.2644 34.6645 67.2644 34.6545C67.2644 34.6445 67.2644 34.6245 67.2644 34.6145C67.2644 34.5545 67.2644 34.4945 67.2744 34.4345C67.2744 34.4145 67.2744 34.3945 67.2744 34.3745C67.2744 34.3545 67.2744 34.3345 67.2744 34.3145C67.2744 34.2945 67.2744 34.2745 67.2744 34.2545C67.2744 34.2345 67.2744 34.2145 67.2744 34.1945C67.2744 34.1845 67.2744 34.1745 67.2744 34.1645C67.2744 34.1345 67.2944 34.0945 67.3044 34.0545C67.3044 34.0345 67.3144 34.0145 67.3244 34.0045C67.2744 33.6845 67.2844 33.5045 67.1244 33.2345C67.1244 33.2145 67.1244 33.2045 67.1144 33.1845C67.1144 33.1745 67.1144 33.1645 67.1144 33.1545C67.1144 33.1545 67.1144 33.1545 67.1044 33.1545C67.1044 33.1545 67.0844 33.1545 67.0744 33.1445C67.0744 33.1445 67.0644 33.1445 67.0544 33.1445C67.0244 33.1345 66.9944 33.1145 66.9544 33.1045C66.9444 33.1045 66.9244 33.0945 66.9144 33.0845C66.8844 33.0845 66.8444 33.0645 66.8144 33.0645C66.7944 33.0645 66.7744 33.0645 66.7644 33.0645C66.7044 33.0645 66.7144 33.0645 66.7644 33.0645C66.7644 33.0645 66.7744 33.0645 66.7844 33.0645C66.7644 33.0645 66.7344 33.0645 66.7144 33.0645C66.6944 33.0645 66.6643 33.0645 66.6443 33.0645C66.6043 33.0645 66.5744 33.0845 66.5344 33.0945C66.5144 33.1345 66.4844 33.1645 66.4244 33.2045C66.4244 33.2245 66.4043 33.2345 66.3943 33.2545C66.3643 33.3045 66.3344 33.3545 66.2844 33.4045C66.2844 33.4245 66.2844 33.4445 66.2844 33.4645C66.2844 33.4945 66.2844 33.5345 66.2844 33.5645C66.2844 33.5845 66.2844 33.5945 66.2944 33.6145C66.4544 33.8745 66.4544 34.0545 66.4044 34.3345C66.4044 34.3545 66.3944 34.3645 66.3844 34.3845C66.3644 34.4545 66.3344 34.5245 66.2944 34.5945C66.2844 34.6145 66.2744 34.6245 66.2544 34.6445C66.2544 34.6645 66.2344 34.6845 66.2344 34.7045C66.2344 34.7145 66.2344 34.7345 66.2344 34.7445C66.4544 34.8845 66.7144 35.0045 66.9544 34.9545L66.9744 34.9045Z" fill="#ECAF20"/>
<path d="M49.8145 42.9844C49.9245 42.9544 49.9645 42.8644 50.0045 42.8244C50.0345 42.7944 50.0645 42.7744 50.1045 42.7544C50.1045 42.7544 50.1045 42.7444 50.1045 42.7344C50.1045 42.7244 50.1045 42.7044 50.1045 42.6944C50.1045 42.6344 50.1045 42.5744 50.1145 42.5144C50.1145 42.4944 50.1145 42.4744 50.1145 42.4544C50.1145 42.4344 50.1145 42.4144 50.1145 42.3944C50.1145 42.3744 50.1145 42.3544 50.1145 42.3344C50.1145 42.3144 50.1145 42.2944 50.1145 42.2744C50.1145 42.2644 50.1145 42.2544 50.1145 42.2444C50.1145 42.2144 50.1345 42.1744 50.1445 42.1344C50.1445 42.1144 50.1545 42.0944 50.1645 42.0844C50.1145 41.7644 50.1245 41.5844 49.9645 41.3144C49.9645 41.2944 49.9645 41.2844 49.9545 41.2644C49.9545 41.2544 49.9545 41.2444 49.9545 41.2344C49.9545 41.2344 49.9545 41.2344 49.9445 41.2344C49.9445 41.2344 49.9245 41.2344 49.9145 41.2244C49.9145 41.2244 49.9045 41.2244 49.8945 41.2244C49.8645 41.2144 49.8345 41.1944 49.7945 41.1844C49.7845 41.1844 49.7645 41.1744 49.7545 41.1644C49.7245 41.1644 49.6845 41.1444 49.6545 41.1444C49.6345 41.1444 49.6145 41.1444 49.6045 41.1444C49.5445 41.1444 49.5545 41.1444 49.6045 41.1444C49.6045 41.1444 49.6145 41.1444 49.6245 41.1444C49.6045 41.1444 49.5745 41.1444 49.5545 41.1444C49.5345 41.1444 49.5045 41.1444 49.4845 41.1444C49.4445 41.1444 49.4145 41.1644 49.3745 41.1744C49.3545 41.2144 49.3245 41.2444 49.2645 41.2844C49.2645 41.3044 49.2445 41.3144 49.2345 41.3344C49.2045 41.3844 49.1745 41.4344 49.1245 41.4844C49.1245 41.5044 49.1245 41.5244 49.1245 41.5444C49.1245 41.5744 49.1245 41.6144 49.1245 41.6444C49.1245 41.6644 49.1245 41.6744 49.1345 41.6944C49.2945 41.9544 49.2945 42.1344 49.2445 42.4144C49.2445 42.4344 49.2345 42.4444 49.2245 42.4644C49.2045 42.5344 49.1745 42.6044 49.1345 42.6744C49.1245 42.6944 49.1145 42.7044 49.1045 42.7244C49.1045 42.7444 49.0845 42.7644 49.0845 42.7844C49.0845 42.7944 49.0845 42.8144 49.0845 42.8244C49.3045 42.9644 49.5645 43.0844 49.8045 43.0344L49.8145 42.9844Z" fill="#ECAF20"/>
<path d="M25.1246 70.8944C25.2346 70.8644 25.2746 70.7744 25.3146 70.7344C25.3446 70.7044 25.3746 70.6844 25.4146 70.6644C25.4146 70.6644 25.4146 70.6544 25.4146 70.6444C25.4146 70.6344 25.4146 70.6144 25.4146 70.6044C25.4146 70.5444 25.4146 70.4844 25.4246 70.4244C25.4246 70.4044 25.4246 70.3844 25.4246 70.3644C25.4246 70.3444 25.4246 70.3244 25.4246 70.3044C25.4246 70.2844 25.4246 70.2644 25.4246 70.2444C25.4246 70.2244 25.4246 70.2044 25.4246 70.1844C25.4246 70.1744 25.4246 70.1644 25.4246 70.1544C25.4246 70.1244 25.4446 70.0844 25.4546 70.0444C25.4546 70.0244 25.4645 70.0044 25.4745 69.9944C25.4245 69.6744 25.4345 69.4944 25.2745 69.2244C25.2745 69.2044 25.2746 69.1944 25.2646 69.1744C25.2646 69.1644 25.2646 69.1544 25.2646 69.1444C25.2646 69.1444 25.2646 69.1444 25.2546 69.1444C25.2546 69.1444 25.2345 69.1444 25.2245 69.1344C25.2245 69.1344 25.2146 69.1344 25.2046 69.1344C25.1746 69.1244 25.1446 69.1044 25.1046 69.0944C25.0946 69.0944 25.0746 69.0844 25.0646 69.0744C25.0346 69.0744 24.9945 69.0544 24.9645 69.0544C24.9445 69.0544 24.9246 69.0544 24.9146 69.0544C24.8546 69.0544 24.8646 69.0544 24.9146 69.0544C24.9146 69.0544 24.9246 69.0544 24.9346 69.0544C24.9146 69.0544 24.8846 69.0544 24.8646 69.0544C24.8446 69.0544 24.8146 69.0544 24.7946 69.0544C24.7546 69.0544 24.7246 69.0744 24.6846 69.0844C24.6646 69.1244 24.6346 69.1544 24.5746 69.1944C24.5746 69.2144 24.5546 69.2244 24.5446 69.2444C24.5146 69.2944 24.4846 69.3444 24.4346 69.3944C24.4346 69.4144 24.4346 69.4344 24.4346 69.4544C24.4346 69.4844 24.4346 69.5244 24.4346 69.5544C24.4346 69.5744 24.4346 69.5844 24.4446 69.6044C24.6046 69.8644 24.6046 70.0444 24.5546 70.3244C24.5546 70.3444 24.5445 70.3544 24.5345 70.3744C24.5145 70.4444 24.4846 70.5144 24.4446 70.5844C24.4346 70.6044 24.4246 70.6144 24.4146 70.6344C24.4146 70.6544 24.3945 70.6744 24.3945 70.6944C24.3945 70.7044 24.3945 70.7244 24.3945 70.7344C24.6145 70.8744 24.8746 70.9944 25.1146 70.9444L25.1246 70.8944Z" fill="#ECAF20"/>
<path d="M13.6747 19.9644C13.5647 20.0644 13.5447 20.1044 13.5047 20.1344C13.4747 20.1544 13.4347 20.1744 13.3947 20.1844L13.4247 20.1744C13.4347 20.1744 13.4447 20.1744 13.4447 20.1744H13.4247H13.4147H13.3747H13.3647H13.3347C13.3347 20.1744 13.3247 20.1744 13.3147 20.1744C13.3547 20.2744 13.2847 20.3544 13.3047 20.6144V20.6444C13.3047 20.6444 13.2847 20.6444 13.2847 20.6544V20.6744C13.2847 20.6744 13.3047 20.6944 13.3047 20.7144V20.7344C13.3247 20.7744 13.3347 20.8144 13.3547 20.8544L13.3747 20.9044C13.3747 20.9044 13.4147 20.9944 13.4247 21.0244L13.4547 21.0944C13.4847 21.1544 13.4947 21.1644 13.4547 21.0944C13.4547 21.0944 13.4547 21.0844 13.4447 21.0744C13.4547 21.0944 13.4747 21.1244 13.4847 21.1544L13.5347 21.2344L13.6347 21.3244C13.6347 21.3244 13.7247 21.3344 13.7947 21.3644H13.8547C13.9147 21.3644 13.9747 21.3644 14.0647 21.3644C14.0847 21.3544 14.1047 21.3444 14.1147 21.3244C14.1447 21.3044 14.1647 21.2644 14.1847 21.2344L14.2047 21.1844C14.2147 20.8244 14.3347 20.6944 14.4447 20.3244L14.4647 20.2544C14.4947 20.1544 14.5147 20.0544 14.5447 19.9144C14.5447 19.8844 14.5547 19.8644 14.5647 19.8344C14.5647 19.8044 14.5647 19.7744 14.5647 19.7344C14.5647 19.7044 14.5647 19.6944 14.5547 19.6744C14.1947 19.6044 13.8847 19.7744 13.6647 19.9844L13.6747 19.9644Z" fill="#ECAF20"/>
<path d="M56.5347 37.4344C56.4247 37.5344 56.4047 37.5744 56.3647 37.6044C56.3347 37.6244 56.2948 37.6444 56.2548 37.6544L56.2847 37.6444C56.2947 37.6444 56.3047 37.6444 56.3047 37.6444H56.2847H56.2747H56.2347H56.2247H56.1948C56.1948 37.6444 56.1847 37.6444 56.1747 37.6444C56.2147 37.7444 56.1447 37.8244 56.1647 38.0844V38.1144C56.1647 38.1144 56.1448 38.1144 56.1348 38.1244V38.1444C56.1348 38.1444 56.1547 38.1644 56.1547 38.1844V38.2044C56.1747 38.2444 56.1848 38.2844 56.2048 38.3244L56.2247 38.3744C56.2247 38.3744 56.2647 38.4644 56.2747 38.4944L56.3047 38.5644C56.3347 38.6244 56.3447 38.6344 56.3047 38.5644C56.3047 38.5644 56.3047 38.5544 56.2947 38.5444C56.3047 38.5644 56.3247 38.5944 56.3347 38.6244L56.3848 38.7044L56.4847 38.7944C56.4847 38.7944 56.5747 38.8044 56.6447 38.8344H56.7048C56.7648 38.8344 56.8247 38.8344 56.9147 38.8344C56.9347 38.8244 56.9547 38.8144 56.9647 38.7944C56.9947 38.7744 57.0147 38.7344 57.0347 38.7044L57.0547 38.6544C57.0647 38.2944 57.1847 38.1644 57.2947 37.7944L57.3148 37.7244C57.3448 37.6244 57.3647 37.5244 57.3947 37.3844C57.3947 37.3544 57.4047 37.3344 57.4147 37.3044C57.4147 37.2744 57.4147 37.2444 57.4147 37.2044C57.4147 37.1744 57.4147 37.1644 57.4047 37.1444C57.0447 37.0744 56.7348 37.2444 56.5148 37.4544L56.5347 37.4344Z" fill="#ECAF20"/>
<path d="M63.3246 35.4644C63.2146 35.5644 63.1945 35.6044 63.1545 35.6344C63.1245 35.6544 63.0846 35.6744 63.0446 35.6844L63.0746 35.6744C63.0846 35.6744 63.0945 35.6744 63.0945 35.6744H63.0746H63.0646H63.0245H63.0146H62.9846C62.9846 35.6744 62.9745 35.6744 62.9645 35.6744C63.0045 35.7744 62.9346 35.8544 62.9546 36.1144V36.1444C62.9546 36.1444 62.9346 36.1444 62.9346 36.1544V36.1744C62.9346 36.1744 62.9546 36.1944 62.9546 36.2144V36.2344C62.9746 36.2744 62.9846 36.3144 63.0046 36.3544L63.0245 36.4044C63.0245 36.4044 63.0646 36.4944 63.0746 36.5244L63.1046 36.5944C63.1346 36.6544 63.1446 36.6644 63.1046 36.5944C63.1046 36.5944 63.1045 36.5844 63.0945 36.5744C63.1045 36.5944 63.1246 36.6244 63.1346 36.6544L63.1846 36.7344L63.2845 36.8244C63.2845 36.8244 63.3746 36.8344 63.4446 36.8644H63.5046C63.5646 36.8644 63.6245 36.8644 63.7145 36.8644C63.7345 36.8544 63.7546 36.8444 63.7646 36.8244C63.7946 36.8044 63.8145 36.7644 63.8345 36.7344L63.8546 36.6844C63.8646 36.3244 63.9845 36.1944 64.0945 35.8244L64.1146 35.7544C64.1446 35.6544 64.1646 35.5544 64.1946 35.4144C64.1946 35.3844 64.2045 35.3644 64.2145 35.3344C64.2145 35.3044 64.2145 35.2744 64.2145 35.2344C64.2145 35.2044 64.2146 35.1944 64.2046 35.1744C63.8446 35.1044 63.5346 35.2744 63.3146 35.4844L63.3246 35.4644Z" fill="#ECAF20"/>
<path d="M7.14441 57.2645C7.03441 57.3645 7.0144 57.4045 6.9744 57.4345C6.9444 57.4545 6.90441 57.4745 6.86441 57.4845L6.89441 57.4745C6.90441 57.4745 6.9144 57.4745 6.9144 57.4745H6.89441H6.8844H6.84442H6.83441H6.80441C6.80441 57.4745 6.79439 57.4745 6.78439 57.4745C6.82439 57.5745 6.75441 57.6545 6.77441 57.9145V57.9445C6.77441 57.9445 6.75439 57.9445 6.75439 57.9545V57.9745C6.75439 57.9745 6.77441 57.9945 6.77441 58.0145V58.0345C6.79441 58.0745 6.8044 58.1145 6.8244 58.1545L6.84442 58.2045C6.84442 58.2045 6.88441 58.2945 6.89441 58.3245L6.92441 58.3945C6.95441 58.4545 6.96441 58.4645 6.92441 58.3945C6.92441 58.3945 6.9244 58.3845 6.9144 58.3745C6.9244 58.3945 6.94441 58.4245 6.95441 58.4545L7.00439 58.5345L7.1044 58.6245C7.1044 58.6245 7.1944 58.6345 7.2644 58.6645H7.3244C7.3844 58.6645 7.44439 58.6645 7.53439 58.6645C7.55439 58.6545 7.57441 58.6445 7.58441 58.6245C7.61441 58.6045 7.63442 58.5645 7.65442 58.5345L7.67441 58.4845C7.68441 58.1245 7.8044 57.9945 7.9144 57.6245L7.93442 57.5545C7.96442 57.4545 7.9844 57.3545 8.0144 57.2145C8.0144 57.1845 8.02439 57.1645 8.03439 57.1345C8.03439 57.1045 8.03439 57.0745 8.03439 57.0345C8.03439 57.0045 8.03441 56.9945 8.02441 56.9745C7.66441 56.9045 7.3544 57.0745 7.1344 57.2845L7.14441 57.2645Z" fill="#ECAF20"/>
<path d="M29.2045 19.3545C29.0945 19.4545 29.0744 19.4945 29.0344 19.5245C29.0044 19.5445 28.9644 19.5645 28.9244 19.5745L28.9545 19.5645C28.9645 19.5645 28.9744 19.5645 28.9744 19.5645H28.9545H28.9445H28.9044H28.8944H28.8644C28.8644 19.5645 28.8544 19.5645 28.8444 19.5645C28.8844 19.6645 28.8144 19.7445 28.8344 20.0045V20.0345C28.8344 20.0345 28.8145 20.0345 28.8145 20.0445V20.0645C28.8145 20.0645 28.8344 20.0845 28.8344 20.1045V20.1245C28.8544 20.1645 28.8645 20.2045 28.8845 20.2445L28.9044 20.2945C28.9044 20.2945 28.9445 20.3845 28.9545 20.4145L28.9844 20.4845C29.0144 20.5445 29.0244 20.5545 28.9844 20.4845C28.9844 20.4845 28.9844 20.4745 28.9744 20.4645C28.9844 20.4845 29.0045 20.5145 29.0145 20.5445L29.0645 20.6245L29.1644 20.7145C29.1644 20.7145 29.2545 20.7245 29.3245 20.7545H29.3845C29.4445 20.7545 29.5044 20.7545 29.5944 20.7545C29.6144 20.7445 29.6344 20.7345 29.6444 20.7145C29.6744 20.6945 29.6944 20.6545 29.7144 20.6245L29.7344 20.5745C29.7444 20.2145 29.8644 20.0845 29.9744 19.7145L29.9944 19.6445C30.0244 19.5445 30.0445 19.4445 30.0745 19.3045C30.0745 19.2745 30.0844 19.2545 30.0944 19.2245C30.0944 19.1945 30.0944 19.1645 30.0944 19.1245C30.0944 19.0945 30.0944 19.0845 30.0844 19.0645C29.7244 18.9945 29.4145 19.1645 29.1945 19.3745L29.2045 19.3545Z" fill="#ECAF20"/>
<path d="M24.6344 55.1944C24.5244 55.2944 24.5044 55.3344 24.4644 55.3644C24.4344 55.3844 24.3944 55.4044 24.3544 55.4144L24.3844 55.4044C24.3944 55.4044 24.4044 55.4044 24.4044 55.4044H24.3844H24.3744H24.3344H24.3244H24.2944C24.2944 55.4044 24.2844 55.4044 24.2744 55.4044C24.3144 55.5044 24.2444 55.5844 24.2644 55.8444V55.8744C24.2644 55.8744 24.2444 55.8744 24.2344 55.8844V55.9044C24.2344 55.9044 24.2544 55.9244 24.2544 55.9444V55.9644C24.2744 56.0044 24.2844 56.0444 24.3044 56.0844L24.3244 56.1344C24.3244 56.1344 24.3644 56.2244 24.3744 56.2544L24.4044 56.3244C24.4344 56.3844 24.4444 56.3944 24.4044 56.3244C24.4044 56.3244 24.4043 56.3144 24.3943 56.3044C24.4043 56.3244 24.4244 56.3544 24.4344 56.3844L24.4844 56.4644L24.5844 56.5544C24.5844 56.5544 24.6744 56.5644 24.7444 56.5944H24.8044C24.8644 56.5944 24.9244 56.5944 25.0144 56.5944C25.0344 56.5844 25.0544 56.5744 25.0644 56.5544C25.0944 56.5344 25.1144 56.4944 25.1344 56.4644L25.1544 56.4144C25.1644 56.0544 25.2843 55.9244 25.3943 55.5544L25.4144 55.4844C25.4444 55.3844 25.4644 55.2844 25.4944 55.1444C25.4944 55.1144 25.5044 55.0944 25.5144 55.0644C25.5144 55.0344 25.5144 55.0044 25.5144 54.9644C25.5144 54.9344 25.5144 54.9244 25.5044 54.9044C25.1444 54.8344 24.8344 55.0044 24.6144 55.2144L24.6344 55.1944Z" fill="#ECAF20"/>
<path d="M31.1146 41.1144C34.1646 41.1144 37.2046 42.8444 38.5346 45.6744C41.5246 52.0444 37.2446 69.3944 27.7746 73.7344C26.9346 74.1144 25.8546 74.2944 24.6046 74.2944C17.0846 74.2944 3.60459 67.7844 2.18459 59.9944C1.28459 55.0744 4.26457 49.7644 9.94457 49.7644C12.5446 49.7644 15.7046 50.8744 19.3246 53.6444C19.6346 53.8744 19.9846 53.9844 20.3246 53.9844C21.1246 53.9844 21.8846 53.4044 22.0046 52.5144C22.3646 49.8244 23.2946 46.0344 25.6346 43.4944C27.1446 41.8544 29.1346 41.1144 31.1246 41.1144M31.1146 39.1144C28.4246 39.1144 25.9546 40.1844 24.1546 42.1344C21.6246 44.8844 20.5446 48.7644 20.0946 51.7244C16.5346 49.0944 13.1246 47.7644 9.94457 47.7644C6.97457 47.7644 4.32459 48.9744 2.49459 51.1844C0.464587 53.6244 -0.395412 57.0544 0.214588 60.3544C1.82459 69.1544 16.1246 76.2944 24.6046 76.2944C26.1846 76.2944 27.5346 76.0444 28.6146 75.5444C34.7246 72.7444 37.9646 65.9544 39.3646 62.1544C41.7546 55.6244 42.1546 48.6544 40.3546 44.8244C38.7546 41.4144 35.0446 39.1144 31.1246 39.1144H31.1146Z" fill="#C07A2A"/>
</svg>
