<svg width="75" height="70" viewBox="0 0 75 70" fill="none" xmlns="http://www.w3.org/2000/svg">
<g clip-path="url(#clip0_445_393)">
<path d="M67.39 56.39C67.33 56.44 67.29 56.46 67.22 56.52C67.4 56.36 67.72 56.27 67.92 56.15C68.16 56.01 68.38 55.86 68.61 55.7C68.63 55.64 68.64 55.57 68.66 55.51C68.89 54.65 68.85 53.75 68.56 52.91C68.33 52.25 68.15 51.56 68.03 50.85C67.96 50.47 67.87 50.11 67.71 49.76C67.55 49.41 67.4 49.05 67.24 48.69C66.59 47.19 65.96 45.6 65.32 43.89C65.22 43.62 65.1 43.36 64.95 43.12C64.67 42.66 64.38 42.22 64.08 41.78C63.41 40.8 62.7 39.85 61.94 38.92C61.61 38.52 61.26 38.12 60.91 37.73C60.81 37.62 60.7 37.51 60.58 37.41C57.36 34.5 54.79 31.85 52.36 28.95C51.13 27.47 49.88 25.96 48.63 24.3C47.36 22.65 46.02 20.9 44.55 18.98C44.22 18.51 43.88 18.03 43.54 17.55C42.87 16.57 42.19 15.57 41.48 14.54C40.76 13.5 40.03 12.41 39.27 11.25C39.01 10.81 38.76 10.37 38.49 9.93003C38.41 9.80003 38.33 9.67003 38.24 9.54003C37.88 9.04003 37.51 8.55003 37.13 8.07003C37.13 8.07003 37.13 8.07003 37.13 8.06003C36.57 7.35003 35.77 6.87003 34.89 6.63003C34.08 6.41003 33.28 6.24003 32.52 6.11003C31.34 5.92003 30.25 5.85003 29.33 5.94003C27.48 6.12003 26.27 6.95003 26.11 8.69003C26.04 9.50003 26.51 10.54 27.08 11.53C27.66 12.51 28.32 13.47 28.61 14.14C29.01 15.01 29.36 15.87 29.64 16.75C29.77 16.88 29.89 17.01 30.02 17.14C30.36 17.5 30.7 17.85 31.02 18.23C32.32 19.72 33.63 21.14 34.85 22.62C35.27 23.13 35.68 23.65 36.1 24.16L37.36 25.71C37.74 26.2 38.12 26.68 38.5 27.18C38.88 27.67 39.26 28.17 39.65 28.67C39.88 28.98 40.1 29.3 40.33 29.61C41.01 30.56 41.67 31.55 42.33 32.56C42.6 32.98 42.87 33.4 43.15 33.82C43.26 34 43.39 34.17 43.53 34.32C46.91 38.19 49.48 41.38 51.97 44.38C54.49 47.39 56.98 50.19 60.19 53.37C60.29 53.47 60.39 53.57 60.48 53.68C60.78 54.04 61.08 54.41 61.37 54.78C61.59 55.07 61.77 55.36 61.97 55.65L62.25 55.77C62.25 55.77 62.56 55.89 62.76 55.96L62.88 56C63.56 56.22 64.25 56.4 64.96 56.53L65.34 56.6C65.34 56.6 65.4 56.6 65.44 56.6C65.81 56.59 66.4 56.57 66.72 56.56H66.76C66.97 56.5 67.18 56.45 67.38 56.39" fill="#5D3415"/>
<path d="M65.42 57.6L64.79 57.51C64.05 57.38 63.31 57.19 62.58 56.95L61.32 56.45L60.97 55.92C60.85 55.74 60.74 55.56 60.6 55.39C60.32 55.03 60.03 54.67 59.74 54.32C59.67 54.23 59.59 54.15 59.51 54.08C56.59 51.18 54.11 48.47 51.23 45.02C50.59 44.25 49.95 43.48 49.29 42.68C47.33 40.31 45.31 37.85 42.8 34.98C42.63 34.79 42.47 34.58 42.33 34.36L41.25 32.7C40.68 31.85 40.12 31 39.54 30.19L36.59 26.32L34.09 23.25C33.28 22.27 32.44 21.32 31.55 20.32C31.13 19.85 30.71 19.37 30.28 18.89C30.02 18.59 29.75 18.3 29.48 18.02L28.78 17.28L28.71 17.06C28.46 16.28 28.14 15.47 27.73 14.57C27.56 14.18 27.23 13.65 26.87 13.08C26.66 12.74 26.44 12.39 26.24 12.04C25.39 10.57 25.05 9.51005 25.14 8.61005C25.25 7.38005 25.94 5.27005 29.26 4.95005C30.22 4.86005 31.39 4.92005 32.71 5.13005C33.51 5.26005 34.34 5.44005 35.18 5.67005C36.27 5.97005 37.23 6.58005 37.9 7.39005L38 7.51005C38.34 7.94005 38.72 8.44005 39.09 8.95005C39.2 9.10005 39.3 9.26005 39.4 9.42005L40.18 10.74C40.91 11.86 41.63 12.94 42.35 13.97L45.41 18.4L49.46 23.69C50.77 25.42 52.06 26.99 53.16 28.31C55.61 31.23 58.11 33.8 61.28 36.66C61.42 36.79 61.56 36.92 61.68 37.06C62.04 37.46 62.39 37.87 62.74 38.28C63.49 39.2 64.23 40.19 64.93 41.21C65.24 41.66 65.54 42.13 65.83 42.6C66 42.89 66.16 43.2 66.28 43.55C66.91 45.26 67.54 46.82 68.18 48.3L68.65 49.36C68.82 49.75 68.95 50.19 69.04 50.68C69.15 51.31 69.31 51.94 69.53 52.59C69.75 53.24 69.85 53.91 69.83 54.58L72.45 53.75L69.6 55.98L69.5 56.33L69.09 56.61C68.88 56.76 68.67 56.9 68.44 57.03C68.33 57.09 68.21 57.15 68.08 57.2C68.01 57.23 67.93 57.26 67.87 57.3L67.58 56.95L67.71 57.35C67.53 57.41 67.34 57.46 67.16 57.5L66.77 57.57L65.44 57.61L65.42 57.6ZM62.65 54.85L63.2 55.05C63.84 55.26 64.49 55.42 65.15 55.54L65.45 55.6L66.65 55.56C66.8 55.52 66.94 55.49 67.09 55.44C67.15 55.41 67.2 55.39 67.25 55.37C67.31 55.34 67.37 55.32 67.42 55.29C67.53 55.23 67.63 55.16 67.73 55.1C67.86 54.49 67.82 53.85 67.61 53.24C67.36 52.49 67.17 51.77 67.04 51.03C66.98 50.7 66.9 50.42 66.79 50.17L66.32 49.1C65.66 47.58 65.02 45.99 64.38 44.24C64.3 44.02 64.2 43.82 64.1 43.64C63.83 43.2 63.56 42.77 63.26 42.35C62.59 41.37 61.88 40.43 61.17 39.56C60.85 39.17 60.52 38.79 60.17 38.41C60.09 38.32 60 38.23 59.91 38.15C56.71 35.27 54.07 32.55 51.6 29.6C50.49 28.27 49.17 26.67 47.84 24.91L43.77 19.6L40.67 15.12C39.95 14.08 39.21 12.98 38.45 11.81L37.65 10.45C37.59 10.35 37.52 10.24 37.45 10.15C37.09 9.66005 36.73 9.18005 36.36 8.71005C35.95 8.19005 35.34 7.80005 34.64 7.61005C33.87 7.40005 33.1 7.23005 32.37 7.12005C31.22 6.93005 30.23 6.87005 29.43 6.95005C27.51 7.14005 27.18 8.04005 27.11 8.80005C27.08 9.11005 27.2 9.75005 27.95 11.05C28.14 11.38 28.35 11.72 28.55 12.04C28.94 12.67 29.31 13.26 29.53 13.76C29.94 14.64 30.27 15.46 30.53 16.25L30.92 16.66C31.21 16.97 31.5 17.27 31.78 17.6C32.19 18.07 32.61 18.55 33.03 19.02C33.89 19.99 34.79 21 35.62 22.02L40.44 28.09L41.14 29.05C41.74 29.88 42.32 30.75 42.9 31.63L43.99 33.3C44.08 33.44 44.18 33.57 44.29 33.69C46.82 36.59 48.85 39.05 50.82 41.44C51.48 42.23 52.11 43.01 52.75 43.77C55.59 47.17 58.03 49.84 60.9 52.69C61.02 52.81 61.14 52.94 61.25 53.07C61.56 53.44 61.86 53.82 62.16 54.19C62.33 54.41 62.48 54.63 62.62 54.86V54.88L62.65 54.85Z" fill="#5D3415"/>
<path d="M54.9104 44.21C54.6504 43.82 54.4004 43.43 54.1204 43.05C53.4604 42.13 52.7804 41.18 52.0504 40.24C51.8004 39.93 51.5604 39.61 51.3104 39.3C47.0704 34.1 43.9904 30.77 38.8404 24.68C38.5504 24.32 38.2704 23.97 37.9804 23.62C37.4104 22.91 36.8504 22.22 36.3004 21.53L35.7504 20.85C35.7504 20.85 35.6804 20.77 35.6504 20.72C35.6804 20.77 35.7204 20.81 35.7504 20.86C35.9804 21.18 36.2104 21.49 36.4304 21.8C40.2804 26.99 42.8904 30.28 46.5004 34.85L47.2204 35.81C47.6904 36.45 48.1704 37.09 48.6404 37.73L49.4304 38.83C50.1504 39.91 50.8304 40.92 51.4704 41.89C51.6904 42.21 51.9004 42.53 52.1204 42.84C53.7204 45.51 55.8204 48.17 57.8704 50.93L58.1004 51.25C58.7704 51.95 59.4704 52.66 60.2104 53.39C60.2404 53.42 60.2604 53.45 60.2904 53.48C59.0604 51.28 57.8104 48.96 56.3604 46.62C55.8804 45.79 55.3804 45 54.9104 44.24V44.21Z" fill="#87511D"/>
<path d="M61.1803 49.2401C60.6403 48.3001 60.0703 47.4101 59.5503 46.5501C59.2503 46.1101 58.9703 45.6701 58.6603 45.2301C57.9103 44.1901 57.1503 43.1101 56.3203 42.0401C56.0403 41.6901 55.7603 41.3301 55.4803 40.9701C50.7003 35.0801 47.2203 31.3101 41.4003 24.4201C41.0703 24.0201 40.7503 23.6101 40.4303 23.2101C39.7903 22.4101 39.1603 21.6201 38.5303 20.8501L37.9103 20.0801C37.5703 19.6601 37.2403 19.2401 36.9003 18.8301C36.5703 18.4201 36.2403 18.0001 35.9103 17.5901L34.8403 16.2501L33.7803 14.9201C32.7603 13.6301 31.7303 12.3101 30.6803 10.9801L29.9003 9.97008C29.8003 9.84008 29.7103 9.72008 29.6103 9.60008C29.2103 9.00008 28.7903 8.37008 28.3603 7.73008C28.1403 7.41008 27.8203 6.96008 27.4803 6.46008C27.1003 6.68008 26.8003 6.96008 26.5703 7.32008C27.1103 7.88008 27.7503 8.56008 28.4203 9.29008L28.9903 10.0501C29.2803 10.4401 29.5703 10.8301 29.8603 11.2201C30.1003 11.5601 30.3403 11.8901 30.5803 12.2201C31.7503 13.8001 32.8203 15.2101 33.8603 16.5501C34.1203 16.8801 34.3803 17.2101 34.6303 17.5401C39.0003 23.0101 41.9303 26.4901 46.1903 31.1201L47.0503 32.1101C47.6103 32.7701 48.1703 33.4401 48.7303 34.0901L49.6403 35.2501C50.4803 36.3901 51.2603 37.4501 51.9903 38.4901C52.2403 38.8301 52.4803 39.1701 52.7203 39.5101C54.5103 42.3801 56.7403 45.3101 58.7503 48.4601L59.5003 49.6501C59.9303 50.3901 60.5903 51.4101 61.2103 52.5201C61.4203 52.8901 61.6403 53.2601 61.8303 53.6301C62.1603 54.2701 62.6003 55.1501 63.0003 56.0301C63.6403 56.2301 64.2903 56.4001 64.9503 56.5201L65.3303 56.5901C65.3303 56.5901 65.3603 56.5901 65.3703 56.5901C64.0503 54.2201 62.7103 51.7401 61.1603 49.2301L61.1803 49.2401Z" fill="#87511D"/>
<path d="M51.4102 43.5201C51.1902 43.2301 50.9602 42.9301 50.7402 42.6301C46.8702 37.7601 44.4902 34.3101 39.9602 28.5601C39.7102 28.2201 39.4602 27.8801 39.2102 27.5501C38.7102 26.8801 38.2202 26.2201 37.7402 25.5701L37.2602 24.9201C37.0002 24.5701 36.7302 24.2201 36.4702 23.8701C36.2102 23.5201 35.9502 23.1801 35.6902 22.8301L34.8502 21.7101L34.0202 20.6001C33.2302 19.5201 32.4202 18.4201 31.6002 17.3001L30.9902 16.4501C30.9102 16.3401 30.8402 16.2401 30.7702 16.1401C30.4702 15.6301 30.1502 15.1101 29.8202 14.5601C29.3102 13.7401 28.0902 11.8101 27.9102 11.1001C27.8602 10.9401 27.8402 10.8301 27.8402 10.7501C27.6602 10.4801 27.4802 10.2101 27.2902 9.93008C27.0302 9.55008 26.6002 8.94008 26.1802 8.33008C26.1602 8.45008 26.1302 8.56008 26.1202 8.69008C26.0502 9.50008 26.5202 10.5401 27.0902 11.5301C27.6702 12.5101 28.3302 13.4701 28.6202 14.1401C29.0202 15.0101 29.3702 15.8701 29.6502 16.7501C29.7802 16.8801 29.9002 17.0101 30.0302 17.1401C30.3702 17.5001 30.7102 17.8501 31.0302 18.2301C32.3302 19.7201 33.6402 21.1401 34.8602 22.6201C35.2802 23.1301 35.6902 23.6501 36.1102 24.1601L37.3702 25.7101C37.7502 26.2001 38.1302 26.6801 38.5102 27.1801C38.8902 27.6701 39.2702 28.1701 39.6602 28.6701C39.8902 28.9801 40.1102 29.3001 40.3402 29.6101C41.0202 30.5601 41.6802 31.5501 42.3402 32.5601C42.6102 32.9801 42.8802 33.4001 43.1602 33.8201C43.2702 34.0001 43.4002 34.1701 43.5402 34.3201C46.9202 38.1901 49.4902 41.3801 51.9802 44.3801C52.1002 44.5201 52.2102 44.6601 52.3302 44.7901C52.0202 44.3701 51.7202 43.9501 51.4002 43.5201H51.4102Z" fill="#87511D"/>
<path d="M68.3504 54.5101C66.0204 51.0501 64.1004 47.0001 61.5604 42.8801C61.0804 42.0501 60.5804 41.2601 60.1104 40.5001C59.8504 40.1101 59.6004 39.7201 59.3204 39.3401C58.6604 38.4201 57.9804 37.4701 57.2504 36.5301C57.0004 36.2201 56.7604 35.9001 56.5104 35.5901C52.2704 30.3901 49.1904 27.0601 44.0404 20.9701C43.7504 20.6101 43.4704 20.2601 43.1804 19.9101C42.6104 19.2001 42.0504 18.5101 41.5004 17.8201L40.9504 17.1401C40.7604 16.9001 40.5704 16.6701 40.3804 16.4401C40.6004 16.7401 40.8104 17.0401 41.0304 17.3301C44.8804 22.5201 47.4904 25.8101 51.1004 30.3801L51.8204 31.3401C52.2904 31.9801 52.7704 32.6201 53.2404 33.2601L54.0304 34.3601C54.7504 35.4401 55.4304 36.4501 56.0704 37.4201C56.2904 37.7401 56.5104 38.0601 56.7204 38.3701C58.3204 41.0401 60.4204 43.7001 62.4704 46.4601L63.2404 47.5001C63.7104 48.1301 64.3804 49.0201 65.0704 49.9501C65.3004 50.2601 65.5304 50.5801 65.7604 50.8901C66.6604 52.1901 68.3904 54.5901 68.6904 55.3901C68.7104 55.2901 68.7304 55.2001 68.7404 55.1001C68.6304 54.9401 68.5004 54.7601 68.3504 54.5401V54.5101Z" fill="#87511D"/>
<path d="M67.9202 56.16C68.1602 56.02 68.3803 55.87 68.6103 55.71C68.6103 55.68 68.6202 55.66 68.6302 55.63C68.5302 55.61 68.3703 55.5 68.1103 55.29C67.9703 55.18 67.8103 55.04 67.6203 54.86C64.7603 52.2 62.6003 48.57 60.0803 44.89C59.6003 44.14 59.1303 43.42 58.6803 42.73C58.4303 42.38 58.1803 42.02 57.9303 41.67C57.3203 40.82 56.6803 39.95 56.0203 39.06C55.8003 38.77 55.5703 38.47 55.3503 38.17C51.4803 33.3 49.1003 29.85 44.5703 24.1C44.3203 23.76 44.0703 23.42 43.8203 23.09C43.3203 22.42 42.8303 21.76 42.3503 21.11L41.8703 20.46C41.6103 20.11 41.3403 19.76 41.0803 19.41C40.8203 19.06 40.5603 18.72 40.3003 18.37L39.4603 17.25L38.6303 16.14C37.8403 15.06 37.0303 13.96 36.2103 12.84L35.6003 11.99C35.5203 11.88 35.4503 11.78 35.3803 11.68C35.0803 11.17 34.7603 10.65 34.4303 10.1C33.9203 9.28003 32.7003 7.35003 32.5203 6.64003C32.4503 6.39003 32.4303 6.24003 32.4703 6.18003C32.4503 6.15003 32.4303 6.12003 32.4103 6.09003C31.2803 5.91003 30.2403 5.85003 29.3603 5.93003C29.1503 5.95003 28.9503 5.98003 28.7603 6.02003C29.0603 6.34003 29.3603 6.67003 29.6803 7.01003L30.3303 7.87003C30.6603 8.31003 30.9803 8.75003 31.3103 9.20003C31.5903 9.58003 31.8603 9.96003 32.1203 10.33C33.4403 12.12 34.6503 13.71 35.8303 15.23C36.1203 15.61 36.4103 15.98 36.7003 16.35C41.6403 22.54 44.9403 26.49 49.7503 31.73L50.7203 32.85C51.3503 33.6 51.9903 34.35 52.6103 35.1L53.6403 36.41C54.5803 37.7 55.4703 38.9 56.2903 40.08C56.5703 40.47 56.8403 40.85 57.1103 41.23C59.1303 44.48 61.6402 47.8 63.9202 51.37L64.7702 52.71C65.2502 53.55 66.0002 54.7 66.7002 55.95C66.8002 56.13 66.9103 56.31 67.0103 56.49C67.1403 56.46 67.2703 56.43 67.4003 56.38L67.9303 56.14L67.9202 56.16Z" fill="#87511D"/>
<path d="M35.08 7.51998C35.32 7.85998 35.56 8.18998 35.8 8.51998C36.97 10.1 38.04 11.51 39.08 12.85C39.34 13.18 39.6 13.51 39.85 13.84C43.34 18.2 45.9 21.3 48.96 24.71C48.85 24.57 48.75 24.44 48.64 24.3C47.37 22.65 46.03 20.9 44.56 18.98C44.23 18.51 43.89 18.03 43.55 17.55C42.88 16.57 42.2 15.57 41.49 14.54C40.77 13.5 40.04 12.41 39.28 11.25C39.02 10.81 38.77 10.37 38.5 9.92998C38.42 9.79998 38.34 9.66998 38.25 9.53998C37.89 9.03998 37.52 8.54998 37.14 8.06998C37.14 8.06998 37.14 8.06998 37.14 8.05998C36.58 7.34998 35.78 6.86998 34.9 6.62998C34.7 6.56998 34.5 6.52998 34.29 6.47998C34.55 6.82998 34.81 7.17998 35.07 7.52998L35.08 7.51998Z" fill="#87511D"/>
<path d="M57.2101 34.7901C57.4601 35.1301 57.7001 35.4701 57.9401 35.8101C59.7301 38.6801 61.9601 41.6101 63.9701 44.7601L64.7201 45.9501C65.1501 46.6901 65.8101 47.7101 66.4301 48.8201C66.6401 49.1901 66.8601 49.5601 67.0501 49.9301C67.5201 50.8501 68.2201 52.2601 68.7101 53.4601C68.6701 53.2701 68.6301 53.0901 68.5601 52.9001C68.3301 52.2401 68.1501 51.5501 68.0301 50.8401C67.9601 50.4601 67.8701 50.1001 67.7101 49.7501C67.5501 49.4001 67.4001 49.0401 67.2401 48.6801C66.5901 47.1801 65.9601 45.5901 65.3201 43.8801C65.2201 43.6101 65.1001 43.3501 64.9501 43.1101C64.6701 42.6501 64.3801 42.2101 64.0801 41.7701C63.4101 40.7901 62.7001 39.8401 61.9401 38.9101C61.6101 38.5101 61.2601 38.1101 60.9101 37.7201C60.8101 37.6101 60.7001 37.5001 60.5801 37.4001C58.7401 35.7401 57.1101 34.1601 55.6001 32.5701C56.1601 33.3301 56.7001 34.0701 57.2001 34.7901H57.2101Z" fill="#6A4018"/>
<path d="M55.7015 47.1876C56.0264 47.1632 56.2485 46.5943 56.1976 45.9169C56.1467 45.2395 55.842 44.7101 55.5171 44.7346C55.1921 44.759 54.97 45.3279 55.0209 46.0053C55.0719 46.6827 55.3766 47.2121 55.7015 47.1876Z" fill="#EAC88C"/>
<path d="M30.7943 14.6768C31.1192 14.6524 31.3413 14.0834 31.2904 13.406C31.2395 12.7286 30.9348 12.1993 30.6098 12.2237C30.2849 12.2481 30.0628 12.8171 30.1137 13.4945C30.1646 14.1719 30.4693 14.7012 30.7943 14.6768Z" fill="#EAC88C"/>
<path d="M57.8314 38.6884C57.9727 38.3948 57.591 37.9179 56.9789 37.6233C56.3668 37.3287 55.7561 37.3279 55.6147 37.6216C55.4734 37.9152 55.8551 38.392 56.4672 38.6866C57.0793 38.9812 57.6901 38.982 57.8314 38.6884Z" fill="#EAC88C"/>
<path d="M45.8472 32.5612C46.1659 32.4933 46.3096 31.8997 46.1681 31.2352C46.0266 30.5708 45.6536 30.0872 45.3349 30.1551C45.0162 30.2229 44.8725 30.8166 45.014 31.481C45.1554 32.1454 45.5285 32.629 45.8472 32.5612Z" fill="#EAC88C"/>
<path d="M65.7149 48.7191C66.0336 48.6513 66.1772 48.0576 66.0358 47.3932C65.8943 46.7288 65.5213 46.2452 65.2025 46.313C64.8838 46.3809 64.7402 46.9745 64.8816 47.6389C65.0231 48.3034 65.3961 48.787 65.7149 48.7191Z" fill="#EAC88C"/>
<path d="M47.192 29.2253C47.4172 28.9898 47.2018 28.4183 46.7108 27.9488C46.2199 27.4793 45.6393 27.2896 45.4141 27.5251C45.1889 27.7606 45.4043 28.3321 45.8953 28.8016C46.3863 29.2711 46.9668 29.4608 47.192 29.2253Z" fill="#EAC88C"/>
<path d="M43.2031 20.2621C43.3022 19.9516 42.8578 19.5326 42.2106 19.3262C41.5634 19.1198 40.9585 19.2041 40.8595 19.5146C40.7604 19.825 41.2048 20.244 41.852 20.4504C42.4992 20.6568 43.1041 20.5725 43.2031 20.2621Z" fill="#EAC88C"/>
<path d="M37.6299 68.2599C37.8799 68.1499 38.1199 68.0199 38.3599 67.8899C38.3799 67.8299 38.4099 67.7699 38.4299 67.6999C38.7499 66.8699 38.7999 65.9699 38.5999 65.0999C38.4499 64.4199 38.3399 63.7199 38.2899 62.9999C38.2599 62.6199 38.2099 62.2399 38.0899 61.8799C37.9699 61.5199 37.8499 61.1399 37.7299 60.7699C37.2399 59.2099 36.7799 57.5699 36.3199 55.7899C36.2499 55.5199 36.1599 55.2399 36.0399 54.9899C35.8099 54.5099 35.5699 54.0299 35.3199 53.5599C34.7599 52.5199 34.1499 51.4999 33.4899 50.4899C33.1999 50.0499 32.8999 49.6199 32.5899 49.1999C32.4999 49.0799 32.3999 48.9599 32.2999 48.8399C29.3999 45.6099 27.1199 42.7099 25.0099 39.5699C23.9399 37.9699 22.8599 36.3399 21.7899 34.5599C20.6999 32.7799 19.5499 30.8999 18.2899 28.8399C18.0099 28.3399 17.7199 27.8299 17.4399 27.3199C16.8799 26.2799 16.3099 25.2099 15.7099 24.1099C15.0999 22.9999 14.4899 21.8399 13.8599 20.5999C13.6499 20.1399 13.4399 19.6699 13.2299 19.1999C13.1699 19.0599 13.0999 18.9199 13.0199 18.7899C12.7099 18.2599 12.3899 17.7299 12.0699 17.2099C12.0699 17.2099 12.0699 17.2099 12.0699 17.1999C11.5799 16.4399 10.8399 15.8699 9.99988 15.5399C9.21988 15.2399 8.43988 14.9799 7.69988 14.7799C6.53988 14.4599 5.46988 14.2799 4.54988 14.2699C2.68988 14.2499 1.39988 14.9499 1.05988 16.6699C0.899875 17.4699 1.26988 18.5499 1.72988 19.5899C2.19988 20.6299 2.75988 21.6499 2.97988 22.3499C3.28988 23.2599 3.54988 24.1499 3.72988 25.0599C3.83988 25.2099 3.94988 25.3399 4.05988 25.4899C4.35988 25.8799 4.65988 26.2699 4.93988 26.6699C6.06988 28.2799 7.22988 29.8399 8.28988 31.4399C8.64988 31.9899 9.00987 32.5499 9.36987 33.0999L10.4699 34.7699C10.7899 35.2899 11.1199 35.8199 11.4499 36.3499C11.7799 36.8799 12.0999 37.4099 12.4299 37.9499C12.6199 38.2799 12.8199 38.6199 13.0099 38.9599C13.5899 39.9699 14.1399 41.0299 14.6899 42.0999C14.9199 42.5399 15.1399 42.9899 15.3699 43.4399C15.4599 43.6299 15.5799 43.8099 15.6999 43.9799C18.6599 48.1899 20.8699 51.6199 23.0399 54.8699C25.2299 58.1299 27.4199 61.1699 30.2699 64.6699C30.3599 64.7799 30.4499 64.8899 30.5199 65.0099C30.7799 65.3999 31.0399 65.7999 31.2899 66.1999C31.4799 66.5099 31.6299 66.8199 31.7899 67.1299L32.0499 67.2799C32.0499 67.2799 32.3499 67.4299 32.5399 67.5199L32.6599 67.5699C33.3099 67.8599 33.9899 68.1099 34.6699 68.3099L35.0399 68.4199C35.0399 68.4199 35.0999 68.4299 35.1399 68.4399C35.5099 68.4699 36.0999 68.5099 36.4099 68.5399H36.4499C36.6599 68.5099 36.8799 68.4799 37.0899 68.4399L37.6399 68.2599H37.6299Z" fill="#5D3415"/>
<path d="M36.5099 69.54H36.3199L34.8299 69.41L34.3699 69.28C33.6499 69.07 32.9299 68.8 32.2299 68.49L31.0199 67.86L30.7199 67.3C30.6199 67.11 30.5199 66.92 30.4099 66.73C30.1699 66.34 29.9199 65.96 29.6599 65.57C29.5999 65.48 29.5299 65.39 29.4599 65.3C26.8599 62.11 24.6799 59.16 22.1699 55.42C21.6199 54.6 21.0699 53.76 20.4999 52.91C18.7999 50.34 17.0399 47.69 14.8399 44.55C14.6899 44.34 14.5599 44.12 14.4399 43.89L13.5099 42.07C13.0499 41.18 12.5899 40.3 12.0999 39.46L9.56994 35.3L7.39994 31.98C6.69994 30.91 5.95994 29.88 5.16994 28.78C4.80994 28.27 4.43994 27.76 4.06994 27.24C3.82994 26.9 3.57994 26.57 3.33994 26.25L2.74994 25.47L2.69994 25.24C2.53994 24.44 2.29994 23.59 1.98994 22.66C1.85994 22.26 1.57994 21.69 1.28994 21.09C1.11994 20.74 0.939941 20.37 0.769941 19.99C0.0799412 18.44 -0.150059 17.35 0.0299412 16.46C0.269941 15.25 1.18994 13.25 4.50994 13.25C5.47994 13.25 6.62994 13.44 7.91994 13.79C8.69994 14 9.50994 14.27 10.3199 14.58C11.3899 15 12.2999 15.72 12.8699 16.63C13.2099 17.17 13.5399 17.71 13.8499 18.25C13.9399 18.41 14.0299 18.58 14.1099 18.75L14.7399 20.15C15.3499 21.34 15.9499 22.49 16.5499 23.59L19.1299 28.32L22.6099 34C23.7299 35.86 24.8499 37.56 25.8099 38.98C27.9399 42.13 30.1599 44.96 33.0199 48.14C33.1399 48.28 33.2599 48.43 33.3699 48.57C33.6899 49.01 33.9999 49.45 34.2999 49.9C34.9499 50.9 35.5799 51.95 36.1699 53.04C36.4299 53.52 36.6799 54.02 36.9199 54.51C37.0599 54.81 37.1799 55.14 37.2699 55.49C37.7199 57.27 38.1799 58.88 38.6599 60.42L39.0199 61.52C39.1499 61.93 39.2299 62.37 39.2699 62.88C39.3099 63.52 39.4099 64.16 39.5599 64.83C39.7999 65.91 39.7299 67.01 39.3399 68.01L39.1599 68.47L38.6899 68.78C38.4699 68.9 38.2399 69.02 38.0099 69.12L37.9199 69.16L37.2499 69.37C37.0599 69.41 36.8699 69.44 36.6799 69.46L36.4799 69.49L36.5099 69.54ZM35.2599 67.45L36.3899 67.54H36.4299C36.5599 67.52 36.6899 67.5 36.8299 67.47L37.2699 67.32C37.3699 67.28 37.4599 67.23 37.5599 67.18C37.7499 66.59 37.7799 65.95 37.6399 65.31C37.4699 64.54 37.3599 63.8 37.3099 63.06C37.2899 62.72 37.2399 62.43 37.1499 62.18L36.7899 61.07C36.2899 59.49 35.8299 57.85 35.3699 56.03C35.3099 55.8 35.2399 55.59 35.1499 55.41C34.9299 54.95 34.6999 54.49 34.4499 54.04C33.8799 52.99 33.2799 51.99 32.6599 51.04C32.3799 50.62 32.0899 50.2 31.7899 49.79C31.7199 49.69 31.6399 49.6 31.5599 49.51C28.6799 46.3 26.3299 43.32 24.1799 40.13C23.2099 38.69 22.0699 36.96 20.9299 35.07L17.4399 29.36L16.5699 27.8L14.8299 24.57C14.2199 23.46 13.6099 22.29 12.9699 21.04L12.3199 19.6C12.2699 19.49 12.2099 19.38 12.1499 19.27C11.8499 18.75 11.5399 18.23 11.2199 17.73C10.8599 17.17 10.2999 16.73 9.61994 16.46C8.86994 16.17 8.12994 15.92 7.41994 15.73C6.28994 15.42 5.31994 15.26 4.51994 15.26H4.46994C2.57994 15.26 2.16994 16.11 2.01994 16.85C1.92994 17.29 2.13994 18.07 2.61994 19.17C2.77994 19.52 2.94994 19.87 3.10994 20.21C3.42994 20.88 3.73994 21.51 3.90994 22.03C4.21994 22.95 4.45994 23.8 4.63994 24.61L4.95994 25.03C5.22994 25.38 5.48994 25.73 5.73994 26.09C6.09994 26.6 6.45994 27.11 6.81994 27.61C7.57994 28.67 8.36994 29.77 9.09994 30.88L13.8499 38.45C14.3499 39.32 14.8199 40.22 15.2999 41.14L16.2399 42.98C16.3099 43.12 16.3999 43.27 16.4899 43.4C18.7099 46.56 20.4699 49.22 22.1799 51.8C22.7399 52.65 23.2999 53.49 23.8399 54.31C26.3099 57.99 28.4599 60.9 31.0199 64.03C31.1299 64.16 31.2299 64.3 31.3299 64.45C31.5999 64.85 31.8599 65.26 32.1199 65.67C32.2699 65.91 32.3899 66.14 32.5099 66.38V66.4L33.0499 66.66C33.6599 66.93 34.2899 67.16 34.9299 67.35L35.2499 67.44L35.2599 67.45Z" fill="#5D3415"/>
<path d="M25.95 55.02C25.73 54.61 25.52 54.19 25.28 53.78C24.72 52.79 24.15 51.78 23.52 50.76C23.31 50.42 23.09 50.08 22.88 49.74C19.21 44.12 16.5 40.49 12.01 33.9C11.76 33.51 11.51 33.13 11.27 32.75C10.78 31.99 10.29 31.24 9.82 30.5L9.34 29.76C9.34 29.76 9.28 29.67 9.25 29.62C9.28 29.67 9.31 29.72 9.33 29.77C9.53 30.11 9.72 30.44 9.91 30.78C13.19 36.35 15.44 39.89 18.55 44.81L19.17 45.84C19.57 46.53 19.98 47.22 20.38 47.9L21.05 49.08C21.65 50.23 22.22 51.3 22.76 52.33C22.94 52.67 23.13 53.01 23.31 53.34C24.62 56.16 26.43 59.03 28.18 61.98L28.38 62.32C28.98 63.09 29.59 63.87 30.25 64.67C30.28 64.7 30.3 64.73 30.32 64.77C29.32 62.45 28.33 60.01 27.13 57.53C26.74 56.65 26.32 55.82 25.94 55.01L25.95 55.02Z" fill="#87511D"/>
<path d="M31.6601 60.68C31.2201 59.68 30.7501 58.74 30.3201 57.83C30.0701 57.36 29.8401 56.89 29.5701 56.43C28.9301 55.31 28.2901 54.16 27.5801 53.02C27.3401 52.64 27.1001 52.26 26.8601 51.87C22.7201 45.51 19.6601 41.4 14.5901 33.94C14.3101 33.5 14.0301 33.07 13.7501 32.64C13.2001 31.78 12.6501 30.93 12.1101 30.09L11.5701 29.26C11.2801 28.81 10.9901 28.36 10.7001 27.91C10.4101 27.46 10.1301 27.02 9.84014 26.58L8.92014 25.14L8.01014 23.7C7.14014 22.31 6.25014 20.89 5.34014 19.46L4.67014 18.38C4.59014 18.24 4.51014 18.12 4.42014 17.98C4.08014 17.34 3.74014 16.68 3.38014 15.99C3.20014 15.65 2.93014 15.16 2.64014 14.64C2.24014 14.81 1.91014 15.07 1.64014 15.4C2.12014 16.02 2.68014 16.76 3.28014 17.56L3.77014 18.38C4.02014 18.8 4.26014 19.22 4.51014 19.64C4.72014 20 4.92014 20.36 5.12014 20.71C6.12014 22.4 7.04014 23.92 7.93014 25.36C8.15014 25.72 8.38014 26.08 8.60014 26.43C12.3801 32.33 14.9201 36.1 18.6801 41.15L19.4301 42.22C19.9201 42.94 20.4101 43.66 20.8901 44.37L21.6801 45.62C22.3901 46.84 23.0601 47.98 23.6801 49.09C23.8901 49.46 24.1001 49.82 24.3001 50.18C25.7801 53.22 27.6901 56.37 29.3601 59.72L29.9801 60.98C30.3301 61.76 30.8801 62.84 31.3801 64.01C31.5501 64.4 31.7301 64.79 31.8801 65.18C32.1401 65.85 32.4801 66.77 32.7901 67.69C33.4001 67.96 34.0301 68.19 34.6801 68.38L35.0501 68.49C35.0501 68.49 35.0801 68.49 35.0901 68.49C34.0301 65.99 32.9501 63.38 31.6801 60.73L31.6601 60.68Z" fill="#87511D"/>
<path d="M22.5301 53.9701C22.3401 53.6501 22.1501 53.3401 21.9601 53.0201C18.6201 47.7801 16.6101 44.0901 12.7101 37.8901C12.5001 37.5301 12.2801 37.1601 12.0701 36.8001C11.6501 36.0801 11.2301 35.3701 10.8101 34.6701L10.4001 33.9701C10.1701 33.5901 9.95011 33.2201 9.73011 32.8501C9.51011 32.4801 9.29011 32.1101 9.07011 31.7401L8.36011 30.5401L7.65011 29.3501C6.97011 28.1901 6.29011 27.0101 5.59011 25.8201L5.08011 24.9101C5.01011 24.8001 4.95011 24.6901 4.89011 24.5701C4.64011 24.0301 4.38011 23.4801 4.11011 22.9001C3.69011 22.0301 2.68011 19.9801 2.57011 19.2501C2.54011 19.0901 2.53011 18.9801 2.54011 18.8901C2.39011 18.6001 2.24011 18.3201 2.08011 18.0201C1.86011 17.6101 1.50011 16.9701 1.15011 16.3101C1.12011 16.4201 1.07011 16.5301 1.05011 16.6601C0.89011 17.4601 1.26011 18.5401 1.72011 19.5801C2.19011 20.6201 2.75011 21.6401 2.97011 22.3401C3.28011 23.2501 3.54011 24.1401 3.72011 25.0501C3.83011 25.2001 3.94011 25.3301 4.05011 25.4801C4.35011 25.8701 4.65011 26.2601 4.93011 26.6601C6.06011 28.2701 7.22011 29.8301 8.28011 31.4301C8.64011 31.9801 9.00011 32.5401 9.36011 33.0901L10.4601 34.7601C10.7801 35.2801 11.1101 35.8101 11.4401 36.3401C11.7701 36.8701 12.0901 37.4001 12.4201 37.9401C12.6101 38.2701 12.8101 38.6101 13.0001 38.9501C13.5801 39.9601 14.1301 41.0201 14.6801 42.0901C14.9101 42.5301 15.1301 42.9801 15.3601 43.4301C15.4501 43.6201 15.5701 43.8001 15.6901 43.9701C18.6501 48.1801 20.8601 51.6101 23.0301 54.8601C23.1301 55.0101 23.2301 55.1601 23.3301 55.3101C23.0701 54.8601 22.8101 54.4101 22.5401 53.9501L22.5301 53.9701Z" fill="#87511D"/>
<path d="M38.2299 66.67C36.2799 62.99 34.7899 58.75 32.6899 54.4C32.2999 53.52 31.8799 52.69 31.4999 51.88C31.2799 51.47 31.0699 51.05 30.8299 50.64C30.2699 49.65 29.6999 48.64 29.0699 47.62C28.8599 47.28 28.6399 46.94 28.4299 46.6C24.7599 40.98 22.0499 37.35 17.5599 30.76C17.3099 30.37 17.0599 29.99 16.8199 29.61C16.3299 28.85 15.8399 28.1 15.3699 27.36L14.8899 26.62C14.7299 26.37 14.5599 26.11 14.3999 25.86C14.5899 26.18 14.7699 26.5 14.9499 26.81C18.2299 32.38 20.4799 35.92 23.5899 40.84L24.2099 41.87C24.6099 42.56 25.0199 43.25 25.4199 43.93L26.0899 45.11C26.6999 46.26 27.2599 47.33 27.7999 48.36C27.9799 48.7 28.1699 49.04 28.3499 49.37C29.6599 52.19 31.4699 55.06 33.2199 58.01L33.8699 59.12C34.2699 59.79 34.8399 60.75 35.4399 61.75C35.6299 62.08 35.8299 62.42 36.0299 62.76C36.7899 64.14 38.2499 66.71 38.4799 67.54C38.5099 67.45 38.5399 67.35 38.5699 67.25C38.4799 67.08 38.3699 66.88 38.2399 66.65L38.2299 66.67Z" fill="#87511D"/>
<path d="M37.6299 68.26C37.8799 68.15 38.1199 68.02 38.3599 67.89C38.3599 67.87 38.3799 67.84 38.3899 67.81C38.2999 67.78 38.1399 67.66 37.9099 67.42C37.7799 67.29 37.6399 67.14 37.4699 66.94C34.9099 63.99 33.1399 60.16 31.0199 56.23C30.6199 55.44 30.2199 54.67 29.8499 53.93C29.6399 53.55 29.4299 53.18 29.2099 52.79C28.6899 51.88 28.1499 50.95 27.5799 50C27.3899 49.68 27.1999 49.37 27.0099 49.05C23.6699 43.81 21.6599 40.12 17.7599 33.92C17.5499 33.56 17.3299 33.19 17.1199 32.83C16.6999 32.11 16.2799 31.4 15.8599 30.7L15.4499 30C15.2199 29.62 14.9999 29.25 14.7799 28.88C14.5599 28.51 14.3399 28.14 14.1199 27.77L13.4099 26.57L12.6999 25.38C12.0199 24.22 11.3399 23.04 10.6399 21.85L10.1299 20.94C10.0699 20.83 9.99994 20.72 9.93994 20.6C9.68994 20.06 9.42994 19.51 9.15994 18.93C8.73994 18.06 7.72994 16.01 7.61994 15.28C7.56994 15.02 7.57994 14.87 7.61994 14.82C7.60994 14.79 7.58994 14.76 7.56994 14.73C6.46994 14.44 5.43994 14.26 4.54994 14.26C4.33994 14.26 4.13994 14.26 3.93994 14.29C4.19994 14.64 4.46994 15 4.74994 15.37L5.29994 16.3C5.57994 16.77 5.85994 17.25 6.13994 17.73C6.36994 18.14 6.59994 18.54 6.82994 18.94C7.94994 20.86 8.98994 22.57 9.99994 24.2C10.2499 24.61 10.4999 25.01 10.7499 25.41C15.0099 32.09 17.8899 36.36 22.1199 42.07L22.9599 43.29C23.5099 44.11 24.0599 44.92 24.6099 45.72L25.4999 47.13C26.2999 48.51 27.0599 49.8 27.7499 51.06C27.9899 51.48 28.2199 51.89 28.4499 52.29C30.1199 55.73 32.2699 59.29 34.1599 63.08L34.8599 64.51C35.2499 65.39 35.8799 66.62 36.4399 67.94C36.5199 68.13 36.6099 68.32 36.6899 68.51C36.8199 68.49 36.9599 68.47 37.0899 68.45L37.6399 68.27L37.6299 68.26Z" fill="#87511D"/>
<path d="M10.0599 16.45C10.2699 16.81 10.4699 17.17 10.6699 17.52C11.6699 19.21 12.5899 20.73 13.4799 22.17C13.6999 22.53 13.9299 22.89 14.1499 23.24C17.1599 27.94 19.3899 31.29 22.0699 35.01C21.9799 34.86 21.8899 34.72 21.7999 34.56C20.7099 32.78 19.5599 30.9 18.2999 28.84C18.0199 28.34 17.7299 27.83 17.4499 27.32C16.8899 26.28 16.3199 25.21 15.7199 24.11C15.1099 23 14.4999 21.84 13.8699 20.6C13.6599 20.14 13.4499 19.67 13.2399 19.2C13.1799 19.06 13.1099 18.92 13.0299 18.79C12.7199 18.26 12.3999 17.73 12.0799 17.21C12.0799 17.21 12.0799 17.21 12.0799 17.2C11.5899 16.44 10.8499 15.87 10.0099 15.54C9.80992 15.46 9.61992 15.4 9.41992 15.33C9.63992 15.7 9.85992 16.08 10.0799 16.45H10.0599Z" fill="#87511D"/>
<path d="M29.2204 45.89C29.4304 46.26 29.6404 46.62 29.8404 46.98C31.3204 50.02 33.2304 53.17 34.9004 56.52L35.5204 57.78C35.8704 58.56 36.4203 59.64 36.9203 60.81C37.0903 61.2 37.2703 61.59 37.4203 61.98C37.7903 62.94 38.3404 64.42 38.7004 65.67C38.6804 65.48 38.6604 65.29 38.6104 65.1C38.4604 64.42 38.3504 63.72 38.3004 63C38.2704 62.62 38.2203 62.24 38.1003 61.88C37.9803 61.51 37.8604 61.14 37.7404 60.77C37.2504 59.21 36.7904 57.57 36.3304 55.79C36.2604 55.52 36.1704 55.24 36.0504 54.99C35.8204 54.51 35.5804 54.03 35.3304 53.56C34.7704 52.52 34.1604 51.5 33.5004 50.49C33.2104 50.05 32.9103 49.62 32.6003 49.2C32.5103 49.08 32.4104 48.96 32.3104 48.84C30.6504 46.99 29.2004 45.25 27.8604 43.51C28.3304 44.32 28.7904 45.12 29.2204 45.89Z" fill="#87511D"/>
<path d="M27.0438 56.8556C27.0641 56.1766 26.8165 55.6182 26.4908 55.6085C26.1651 55.5988 25.8846 56.1413 25.8643 56.8204C25.8441 57.4994 26.0917 58.0577 26.4174 58.0674C26.7431 58.0771 27.0235 57.5346 27.0438 56.8556Z" fill="#EAC88C"/>
<path d="M5.682 21.9131C5.70227 21.2341 5.45467 20.6757 5.12897 20.666C4.80326 20.6563 4.5228 21.1988 4.50252 21.8778C4.48225 22.5569 4.72985 23.1152 5.05556 23.1249C5.38126 23.1346 5.66173 22.5921 5.682 21.9131Z" fill="#EAC88C"/>
<path d="M29.4317 49.8331C29.603 49.5559 29.2733 49.0417 28.6954 48.6847C28.1175 48.3276 27.5102 48.2629 27.3389 48.5401C27.1677 48.8173 27.4973 49.3314 28.0752 49.6885C28.6531 50.0456 29.2604 50.1103 29.4317 49.8331Z" fill="#EAC88C"/>
<path d="M18.1495 42.4797C18.4736 42.4456 18.6786 41.8702 18.6075 41.1947C18.5363 40.5191 18.216 39.9991 17.8919 40.0332C17.5679 40.0673 17.3628 40.6426 17.434 41.3182C17.5051 41.9938 17.8254 42.5138 18.1495 42.4797Z" fill="#EAC88C"/>
<path d="M36.2208 60.638C36.5448 60.6039 36.7499 60.0286 36.6788 59.353C36.6076 58.6774 36.2873 58.1574 35.9632 58.1915C35.6392 58.2256 35.4341 58.801 35.5052 59.4765C35.5764 60.1521 35.8967 60.6721 36.2208 60.638Z" fill="#EAC88C"/>
<path d="M19.8381 39.3002C20.0868 39.0896 19.9324 38.4986 19.4933 37.9803C19.0542 37.462 18.4966 37.2126 18.248 37.4232C17.9994 37.6338 18.1538 38.2247 18.5929 38.7431C19.032 39.2614 19.5895 39.5108 19.8381 39.3002Z" fill="#EAC88C"/>
<path d="M16.8124 29.9763C16.9434 29.6779 16.5453 29.2147 15.9233 28.9416C15.3013 28.6686 14.6909 28.6891 14.5599 28.9875C14.4289 29.2858 14.827 29.7491 15.449 30.0221C16.071 30.2952 16.6815 30.2746 16.8124 29.9763Z" fill="#EAC88C"/>
<path d="M18.6002 5.15001C18.3102 5.25001 18.0302 5.37001 17.7402 5.49001C17.7102 5.56001 17.6702 5.62001 17.6402 5.69001C17.2002 6.58001 17.0502 7.59001 17.1702 8.58001C17.2702 9.36001 17.3202 10.15 17.3002 10.96C17.2902 11.39 17.3102 11.81 17.4102 12.23C17.5102 12.65 17.6002 13.08 17.6902 13.51C18.0702 15.3 18.4202 17.19 18.7402 19.22C18.7902 19.53 18.8702 19.85 18.9702 20.15C19.1702 20.71 19.3902 21.27 19.6302 21.82C20.1502 23.04 20.7202 24.25 21.3502 25.44C21.6302 25.96 21.9202 26.47 22.2202 26.98C22.3102 27.13 22.4102 27.27 22.5102 27.41C25.4102 31.32 27.6502 34.8 29.6802 38.53C30.7102 40.43 31.7402 42.37 32.7502 44.47C33.7802 46.57 34.8602 48.79 36.0602 51.22C36.3202 51.81 36.5902 52.41 36.8502 53.01C37.3702 54.23 37.9002 55.48 38.4502 56.78C39.0102 58.08 39.5702 59.44 40.1502 60.89C40.3402 61.43 40.5202 61.97 40.7102 62.52C40.7702 62.68 40.8302 62.85 40.9002 63C41.1902 63.63 41.4902 64.25 41.8002 64.86C41.8002 64.86 41.8002 64.86 41.8002 64.87C42.2602 65.77 43.0402 66.48 43.9402 66.94C44.7802 67.36 45.6202 67.73 46.4302 68.03C47.6902 68.5 48.8602 68.82 49.9002 68.93C51.9702 69.14 53.4902 68.5 54.0502 66.62C54.3102 65.75 54.0202 64.5 53.6102 63.29C53.1902 62.08 52.6802 60.88 52.5002 60.08C52.2502 59.04 52.0602 58.01 51.9502 56.98C51.8402 56.8 51.7402 56.64 51.6202 56.46C51.3302 55.99 51.0302 55.53 50.7602 55.05C49.6602 53.13 48.5302 51.27 47.5202 49.37C47.1802 48.71 46.8302 48.06 46.4902 47.4L45.4402 45.42C45.1302 44.8 44.8202 44.18 44.5102 43.56C44.2002 42.93 43.8902 42.3 43.5802 41.67C43.4002 41.28 43.2202 40.88 43.0402 40.49C42.5002 39.3 42.0002 38.06 41.4902 36.81C41.2802 36.29 41.0802 35.77 40.8702 35.24C40.7802 35.02 40.6802 34.81 40.5602 34.6C37.7002 29.59 35.5802 25.52 33.5002 21.67C31.4002 17.8 29.2702 14.18 26.4502 9.97001C26.3602 9.84001 26.2802 9.70001 26.2002 9.56001C25.9502 9.09001 25.7002 8.62001 25.4702 8.15001C25.2902 7.79001 25.1602 7.42001 25.0102 7.06001L24.7302 6.87001C24.7302 6.87001 24.4102 6.67001 24.2102 6.55001L24.0902 6.48001C23.3902 6.09001 22.6702 5.74001 21.9202 5.44001L21.5202 5.28001C21.5202 5.28001 21.4602 5.26001 21.4102 5.25001C21.0002 5.18001 20.3502 5.07001 20.0002 5.01001H19.9502C19.7102 5.01001 19.4702 5.03001 19.2302 5.05001L18.5902 5.20001L18.6002 5.15001Z" fill="#5D3415"/>
<path d="M50.63 69.94C50.37 69.94 50.1 69.93 49.81 69.9C48.74 69.79 47.49 69.47 46.09 68.94C45.24 68.62 44.36 68.24 43.5 67.81C42.4 67.26 41.5 66.4 40.96 65.39L40.92 65.31C40.6 64.67 40.29 64.04 40 63.4C39.92 63.22 39.84 63.02 39.77 62.83L39.21 61.2C38.65 59.81 38.1 58.45 37.54 57.16L35.15 51.61L31.86 44.89C30.8 42.68 29.72 40.67 28.81 38.99C26.77 35.25 24.58 31.86 21.71 27.99C21.59 27.83 21.47 27.65 21.37 27.48C21.06 26.96 20.76 26.43 20.48 25.9C19.86 24.72 19.27 23.48 18.72 22.2C18.48 21.63 18.25 21.06 18.04 20.48C17.91 20.14 17.82 19.76 17.76 19.37C17.44 17.35 17.1 15.5 16.72 13.72L16.44 12.45C16.34 11.99 16.29 11.49 16.31 10.93C16.33 10.21 16.29 9.47997 16.19 8.70997C16.03 7.50997 16.23 6.30997 16.75 5.24997L17.02 4.71997L17.48 4.52997C17.75 4.41997 18.02 4.29997 18.29 4.20997L18.38 4.17997L19.13 4.00997C19.34 3.98997 19.55 3.97997 19.76 3.96997H19.98H20.18L21.9 4.29997L22.3 4.45997C23.08 4.76997 23.85 5.13997 24.59 5.55997L25.83 6.35997L26.09 6.98997C26.18 7.20997 26.27 7.43997 26.38 7.65997C26.61 8.11997 26.85 8.57997 27.1 9.03997C27.16 9.14997 27.23 9.25997 27.3 9.36997C29.87 13.2 31.99 16.72 34.4 21.15C34.93 22.13 35.46 23.12 36 24.13C37.63 27.18 39.32 30.33 41.45 34.06C41.59 34.31 41.72 34.57 41.82 34.83L42.66 36.94C43.1 38.02 43.51 39.04 43.97 40.03L46.36 44.94L48.43 48.87C49.1 50.13 49.82 51.36 50.58 52.67C50.94 53.28 51.3 53.9 51.65 54.52C51.87 54.92 52.11 55.3 52.35 55.68L52.93 56.61L52.95 56.84C53.05 57.75 53.22 58.73 53.48 59.81C53.58 60.28 53.83 60.95 54.1 61.65C54.25 62.06 54.42 62.49 54.56 62.92C55.16 64.7 55.3 65.91 55.01 66.87C54.66 68.06 53.62 69.94 50.62 69.94H50.63ZM42.66 64.31L42.7 64.39C43.04 65.06 43.65 65.64 44.4 66.02C45.2 66.42 46.01 66.77 46.8 67.07C48.04 67.54 49.12 67.82 50.02 67.91C52.26 68.14 52.85 67.17 53.11 66.3C53.26 65.79 53.11 64.87 52.68 63.57C52.54 63.16 52.38 62.75 52.24 62.35C51.95 61.58 51.68 60.84 51.55 60.25C51.29 59.19 51.11 58.2 51.01 57.27L50.67 56.72C50.42 56.31 50.16 55.91 49.93 55.49C49.58 54.88 49.22 54.27 48.87 53.66C48.13 52.4 47.37 51.09 46.68 49.79L42.17 40.84C41.7 39.8 41.25 38.72 40.83 37.67L39.98 35.54C39.91 35.36 39.83 35.19 39.73 35.03C37.58 31.28 35.89 28.11 34.25 25.05C33.71 24.04 33.18 23.05 32.66 22.08C30.28 17.71 28.19 14.23 25.66 10.46C25.55 10.3 25.45 10.14 25.36 9.96997C25.1 9.48997 24.85 9.00997 24.61 8.52997C24.47 8.25997 24.36 7.97997 24.25 7.70997L24.19 7.62997L23.62 7.27997C22.96 6.90997 22.27 6.57997 21.57 6.29997L21.24 6.16997L19.93 5.93997H19.87C19.72 5.94997 19.57 5.95997 19.41 5.96997L18.88 6.08997C18.75 6.13997 18.62 6.18997 18.49 6.23997C18.19 6.90997 18.08 7.65997 18.18 8.41997C18.29 9.29997 18.34 10.12 18.32 10.95C18.31 11.34 18.34 11.68 18.4 11.98L18.68 13.26C19.07 15.09 19.42 16.97 19.74 19.03C19.78 19.3 19.84 19.55 19.93 19.77C20.13 20.31 20.34 20.85 20.57 21.39C21.09 22.62 21.66 23.81 22.26 24.93C22.53 25.43 22.81 25.93 23.11 26.42C23.18 26.54 23.26 26.65 23.34 26.76C26.22 30.65 28.53 34.22 30.59 37.99C31.51 39.69 32.6 41.73 33.68 43.97L37.79 52.54L39.39 56.32C39.95 57.62 40.52 58.99 41.1 60.45L41.68 62.12C41.72 62.25 41.78 62.38 41.84 62.51C42.11 63.11 42.4 63.69 42.69 64.27L42.66 64.31Z" fill="#5D3415"/>
<path d="M30.2599 21.1599C30.4599 21.6399 30.6499 22.1299 30.8699 22.6199C31.3999 23.7799 31.9299 24.9799 32.5199 26.1699C32.7199 26.5699 32.9199 26.9699 33.1299 27.3699C36.6399 34.0299 39.2899 38.3699 43.6099 46.1999C43.8499 46.6599 44.0799 47.1099 44.3199 47.5599C44.7899 48.4599 45.2499 49.3499 45.7099 50.2299L46.1699 51.0999C46.1999 51.1499 46.2299 51.2099 46.2499 51.2599C46.2199 51.1999 46.1999 51.1399 46.1699 51.0899C45.9899 50.6899 45.8099 50.2999 45.6299 49.9099C42.5499 43.3499 40.3999 39.1499 37.4399 33.3399L36.8499 32.1299C36.4699 31.3199 36.0899 30.5099 35.7199 29.6999L35.0899 28.3199C34.5299 26.9699 34.0199 25.7099 33.5199 24.5099C33.3499 24.1099 33.1799 23.7099 33.0199 23.3199C31.8499 20.0299 30.1299 16.6399 28.4799 13.1599L28.2899 12.7599C27.7099 11.8399 27.0999 10.9099 26.4499 9.93995C26.4299 9.89995 26.3999 9.85995 26.3799 9.81995C27.2499 12.5199 28.1099 15.3399 29.1899 18.2399C29.5299 19.2599 29.9099 20.2399 30.2599 21.1799V21.1599Z" fill="#87511D"/>
<path d="M24.4697 14.24C24.8597 15.4 25.2797 16.5 25.6697 17.56C25.8997 18.11 26.1097 18.66 26.3597 19.21C26.9497 20.52 27.5497 21.88 28.2297 23.23C28.4597 23.68 28.6897 24.13 28.9197 24.59C32.8797 32.12 35.8697 37.04 40.7397 45.9C41.0097 46.42 41.2797 46.93 41.5397 47.44C42.0697 48.46 42.5897 49.47 43.0997 50.46L43.6097 51.45C43.8897 51.99 44.1697 52.52 44.4397 53.05C44.7097 53.58 44.9897 54.11 45.2597 54.63L46.1397 56.34L47.0097 58.04C47.8397 59.69 48.6897 61.36 49.5397 63.06L50.1797 64.34C50.2597 64.5 50.3297 64.65 50.4097 64.81C50.7197 65.56 51.0397 66.34 51.3697 67.14C51.5397 67.54 51.7897 68.11 52.0497 68.73C52.5197 68.58 52.9097 68.33 53.2397 67.99C52.7697 67.25 52.2197 66.36 51.6397 65.41L51.1797 64.45C50.9497 63.96 50.7197 63.46 50.4797 62.97C50.2897 62.54 50.0997 62.13 49.9097 61.71C48.9797 59.72 48.1097 57.93 47.2597 56.23C47.0497 55.8 46.8397 55.38 46.6297 54.97C43.0297 47.99 40.5797 43.51 36.9197 37.48L36.1997 36.2C35.7297 35.34 35.2597 34.49 34.7897 33.65L34.0397 32.17C33.3697 30.73 32.7397 29.39 32.1697 28.09C31.9797 27.66 31.7797 27.23 31.5897 26.81C30.2497 23.26 28.4497 19.54 26.9297 15.63L26.3697 14.16C26.0597 13.25 25.5597 11.98 25.1197 10.63C24.9697 10.18 24.8197 9.72998 24.6897 9.26998C24.4697 8.48998 24.1797 7.42998 23.9397 6.36998C23.2797 6.00998 22.5997 5.67998 21.8997 5.39998L21.4997 5.23998C21.4997 5.23998 21.4697 5.23998 21.4497 5.22998C22.3797 8.12998 23.2997 11.16 24.4497 14.25L24.4697 14.24Z" fill="#87511D"/>
<path d="M33.96 22.69C34.14 23.06 34.32 23.44 34.5 23.81C37.68 30.01 39.54 34.34 43.25 41.67C43.45 42.1 43.65 42.53 43.85 42.95C44.25 43.8 44.64 44.63 45.03 45.46L45.42 46.28C45.63 46.72 45.84 47.17 46.05 47.6C46.26 48.04 46.47 48.48 46.67 48.91L47.34 50.32L48 51.73C48.63 53.09 49.28 54.48 49.93 55.89L50.41 56.96C50.47 57.09 50.53 57.22 50.59 57.35C50.81 57.98 51.04 58.62 51.28 59.29C51.66 60.3 52.57 62.7 52.62 63.52C52.64 63.7 52.63 63.83 52.62 63.92C52.76 64.26 52.9 64.59 53.04 64.95C53.24 65.43 53.58 66.19 53.9 66.96C53.95 66.84 54.01 66.72 54.05 66.58C54.31 65.71 54.02 64.46 53.61 63.25C53.19 62.04 52.68 60.84 52.5 60.04C52.25 59 52.06 57.97 51.95 56.94C51.84 56.76 51.74 56.6 51.62 56.42C51.33 55.95 51.03 55.49 50.76 55.01C49.66 53.09 48.53 51.23 47.52 49.33C47.18 48.67 46.83 48.02 46.49 47.36L45.44 45.38C45.13 44.76 44.82 44.14 44.51 43.52C44.2 42.89 43.89 42.26 43.58 41.63C43.4 41.24 43.22 40.84 43.04 40.45C42.5 39.26 42 38.02 41.49 36.77C41.28 36.25 41.08 35.73 40.87 35.2C40.78 34.98 40.68 34.77 40.56 34.56C37.7 29.55 35.58 25.48 33.5 21.63C33.4 21.45 33.3 21.28 33.21 21.1C33.46 21.63 33.69 22.16 33.95 22.7L33.96 22.69Z" fill="#87511D"/>
<path d="M17.7597 6.86C19.5497 11.18 20.7697 16.06 22.6597 21.15C22.9997 22.17 23.3797 23.15 23.7297 24.09C23.9297 24.57 24.1197 25.06 24.3397 25.55C24.8697 26.71 25.3997 27.91 25.9897 29.1C26.1897 29.5 26.3897 29.9 26.5997 30.3C30.1097 36.96 32.7597 41.3 37.0797 49.13C37.3197 49.59 37.5497 50.04 37.7897 50.49C38.2597 51.39 38.7197 52.28 39.1797 53.16L39.6297 54.03C39.7897 54.33 39.9397 54.63 40.0997 54.93C39.9297 54.55 39.7597 54.18 39.5897 53.81C36.5097 47.25 34.3597 43.06 31.3997 37.24L30.8097 36.03C30.4297 35.22 30.0497 34.41 29.6797 33.6L29.0497 32.22C28.4897 30.87 27.9797 29.61 27.4797 28.41C27.3097 28.01 27.1397 27.61 26.9797 27.22C25.8097 23.93 24.0897 20.54 22.4397 17.06L21.8297 15.75C21.4497 14.96 20.9097 13.83 20.3597 12.65C20.1797 12.26 19.9897 11.86 19.8097 11.46C19.1097 9.83 17.7397 6.82 17.5797 5.87C17.5297 5.97 17.4897 6.08 17.4497 6.18C17.5397 6.38 17.6397 6.61 17.7597 6.88V6.86Z" fill="#87511D"/>
<path d="M18.5997 5.14998C18.3097 5.24998 18.0297 5.36998 17.7397 5.48998C17.7297 5.51998 17.7097 5.53998 17.6997 5.56998C17.7997 5.61998 17.9597 5.76998 18.1997 6.05998C18.3297 6.20998 18.4797 6.40998 18.6497 6.63998C21.2097 10.2 22.7797 14.66 24.7397 19.28C25.1097 20.21 25.4597 21.11 25.8097 21.97C26.0097 22.41 26.1997 22.86 26.3997 23.31C26.8797 24.38 27.3897 25.48 27.9297 26.6C28.1097 26.97 28.2897 27.35 28.4697 27.72C31.6497 33.92 33.5097 38.25 37.2197 45.58C37.4197 46.01 37.6197 46.44 37.8197 46.86C38.2197 47.71 38.6097 48.54 38.9997 49.37L39.3897 50.19C39.5997 50.63 39.8097 51.08 40.0197 51.51C40.2297 51.95 40.4397 52.39 40.6397 52.82L41.3097 54.23L41.9697 55.64C42.5997 57 43.2497 58.39 43.8997 59.8L44.3797 60.87C44.4397 61 44.4997 61.13 44.5597 61.26C44.7797 61.89 45.0097 62.53 45.2497 63.2C45.6297 64.21 46.5397 66.61 46.5897 67.43C46.6097 67.73 46.5897 67.89 46.5497 67.95C46.5597 67.98 46.5797 68.02 46.5997 68.06C47.7997 68.5 48.9297 68.8 49.9197 68.91C50.1597 68.93 50.3797 68.94 50.5997 68.95C50.3397 68.54 50.0797 68.1 49.8097 67.66L49.2897 66.57C49.0297 66.01 48.7697 65.45 48.4997 64.89C48.2797 64.41 48.0697 63.93 47.8497 63.47C46.7997 61.21 45.8097 59.19 44.8597 57.26C44.6197 56.78 44.3797 56.3 44.1497 55.83C40.0897 47.93 37.3297 42.86 33.1897 36.04L32.3797 34.59C31.8497 33.62 31.3197 32.66 30.7897 31.7L29.9497 30.03C29.1997 28.4 28.4897 26.89 27.8497 25.41C27.6297 24.92 27.4097 24.44 27.1997 23.96C25.6897 19.94 23.6697 15.74 21.9497 11.31L21.3197 9.63998C20.9797 8.60998 20.3997 7.17998 19.9197 5.64998C19.8497 5.42998 19.7697 5.20998 19.6997 4.97998C19.5497 4.97998 19.3997 4.98998 19.2497 5.00998L18.6097 5.15998L18.5997 5.14998Z" fill="#87511D"/>
<path d="M43.96 65.8899C43.77 65.4599 43.58 65.0499 43.39 64.6299C42.46 62.6399 41.59 60.8499 40.74 59.1499C40.53 58.7199 40.32 58.2999 40.11 57.8899C37.24 52.3299 35.1 48.3499 32.5 43.9199C32.59 44.0999 32.67 44.2699 32.76 44.4499C33.79 46.5499 34.87 48.7699 36.07 51.1999C36.33 51.7899 36.6 52.3899 36.86 52.9899C37.38 54.2099 37.91 55.4599 38.46 56.7599C39.02 58.0599 39.58 59.4199 40.16 60.8699C40.35 61.4099 40.53 61.9499 40.72 62.4999C40.78 62.6599 40.84 62.8299 40.91 62.9799C41.2 63.6099 41.5 64.2299 41.81 64.8399C41.81 64.8399 41.81 64.8399 41.81 64.8499C42.27 65.7499 43.05 66.4599 43.95 66.9199C44.16 67.0299 44.37 67.1199 44.58 67.2199C44.37 66.7799 44.17 66.3399 43.96 65.8999V65.8899Z" fill="#87511D"/>
<path d="M25.6499 31.0099C25.4599 30.5799 25.2599 30.1499 25.0699 29.7299C23.7299 26.1799 21.9299 22.4599 20.4099 18.5499L19.8499 17.0799C19.5399 16.1699 19.0399 14.8999 18.5999 13.5499C18.4499 13.0999 18.2999 12.6499 18.1699 12.1899C17.8499 11.0799 17.3999 9.36994 17.1299 7.93994C17.1299 8.14994 17.1299 8.36994 17.1699 8.57994C17.2699 9.35994 17.3199 10.1499 17.2999 10.9599C17.2899 11.3899 17.3099 11.8099 17.4099 12.2299C17.4999 12.6499 17.5999 13.0799 17.6899 13.5099C18.0699 15.2999 18.4199 17.1899 18.7399 19.2199C18.7899 19.5299 18.8699 19.8499 18.9699 20.1499C19.1699 20.7099 19.3899 21.2699 19.6299 21.8199C20.1499 23.0399 20.7199 24.2499 21.3499 25.4399C21.6299 25.9599 21.9199 26.4699 22.2199 26.9799C22.3099 27.1299 22.4099 27.2699 22.5099 27.4099C24.1699 29.6499 25.6099 31.7399 26.9199 33.8199C26.4799 32.8599 26.0399 31.9299 25.6499 31.0199V31.0099Z" fill="#87511D"/>
<path d="M30.5431 19.1628C30.6368 18.4064 30.4194 17.757 30.0577 17.7122C29.696 17.6674 29.3268 18.2442 29.2331 19.0006C29.1394 19.757 29.3567 20.4064 29.7185 20.4512C30.0802 20.496 30.4494 19.9192 30.5431 19.1628Z" fill="#EAC88C"/>
<path d="M50.7428 60.4171C50.8365 59.6607 50.6192 59.0112 50.2574 58.9664C49.8957 58.9216 49.5265 59.4985 49.4328 60.2549C49.3391 61.0112 49.5564 61.6607 49.9182 61.7055C50.2799 61.7503 50.6491 61.1735 50.7428 60.4171Z" fill="#EAC88C"/>
<path d="M28.0319 28.2461C28.2516 27.9553 27.9366 27.3471 27.3284 26.8878C26.7202 26.4285 26.0491 26.2919 25.8294 26.5828C25.6097 26.8737 25.9247 27.4818 26.5329 27.9412C27.1411 28.4005 27.8122 28.537 28.0319 28.2461Z" fill="#EAC88C"/>
<path d="M37.6834 38.7335C38.0479 38.7293 38.3363 38.1081 38.3275 37.346C38.3187 36.5839 38.0161 35.9695 37.6517 35.9737C37.2872 35.9779 36.9988 36.5991 37.0076 37.3612C37.0164 38.1233 37.319 38.7377 37.6834 38.7335Z" fill="#EAC88C"/>
<path d="M19.4095 16.5656C19.774 16.5614 20.0624 15.9402 20.0536 15.1781C20.0448 14.416 19.7422 13.8016 19.3777 13.8058C19.0132 13.81 18.7249 14.4312 18.7337 15.1933C18.7424 15.9554 19.045 16.5698 19.4095 16.5656Z" fill="#EAC88C"/>
<path d="M37.019 41.604C37.3179 41.3954 37.2065 40.7196 36.7702 40.0947C36.334 39.4697 35.738 39.1323 35.4391 39.3409C35.1402 39.5496 35.2516 40.2254 35.6879 40.8503C36.1242 41.4752 36.7202 41.8127 37.019 41.604Z" fill="#EAC88C"/>
<path d="M40.2621 51.4304C40.4391 51.1118 40.0424 50.5535 39.3762 50.1834C38.7099 49.8133 38.0263 49.7716 37.8493 50.0903C37.6723 50.4089 38.0689 50.9672 38.7352 51.3373C39.4015 51.7074 40.0851 51.7491 40.2621 51.4304Z" fill="#EAC88C"/>
<path d="M49.21 1.02998C48.9 1.06998 48.61 1.13998 48.31 1.19998C48.27 1.24998 48.22 1.30998 48.18 1.36998C47.59 2.10998 47.26 2.98998 47.21 3.90998C47.17 4.62998 47.08 5.35998 46.91 6.07998C46.82 6.46998 46.77 6.84998 46.79 7.24998C46.81 7.64998 46.83 8.04998 46.84 8.44998C46.9 10.14 46.91 11.9 46.86 13.79C46.86 14.08 46.87 14.38 46.93 14.67C47.03 15.21 47.15 15.75 47.28 16.29C47.58 17.48 47.92 18.67 48.33 19.84C48.51 20.35 48.71 20.87 48.92 21.38C48.98 21.53 49.05 21.67 49.13 21.81C51.29 25.82 52.88 29.34 54.22 33.04C54.9 34.93 55.57 36.85 56.19 38.91C56.83 40.98 57.51 43.16 58.25 45.56C58.4 46.14 58.56 46.72 58.71 47.31C59 48.5 59.3 49.72 59.61 50.98C59.93 52.25 60.24 53.57 60.55 54.98C60.64 55.5 60.73 56.02 60.81 56.54C60.84 56.7 60.87 56.86 60.91 57.01C61.08 57.63 61.27 58.24 61.46 58.84C61.46 58.84 61.46 58.84 61.46 58.85C61.76 59.74 62.39 60.51 63.2 61.07C63.95 61.59 64.72 62.06 65.46 62.46C66.61 63.09 67.72 63.57 68.72 63.84C70.72 64.37 72.33 64.03 73.21 62.42C73.62 61.67 73.55 60.5 73.37 59.33C73.17 58.17 72.88 57 72.85 56.24C72.79 55.25 72.78 54.29 72.85 53.34C72.77 53.16 72.7 53 72.62 52.82C72.42 52.35 72.21 51.88 72.03 51.4C71.29 49.48 70.51 47.62 69.85 45.73C69.63 45.08 69.4 44.43 69.18 43.78L68.5 41.82C68.31 41.21 68.11 40.6 67.91 39.98C67.72 39.36 67.52 38.74 67.33 38.11C67.22 37.72 67.11 37.34 67 36.95C66.68 35.78 66.41 34.58 66.13 33.36C66.02 32.86 65.91 32.35 65.8 31.84C65.75 31.63 65.69 31.42 65.61 31.21C63.68 26.21 62.32 22.18 60.95 18.35C59.57 14.51 58.11 10.88 56.08 6.60998C56.02 6.47998 55.96 6.33998 55.91 6.19998C55.74 5.72998 55.59 5.26998 55.44 4.80998C55.33 4.44998 55.26 4.09998 55.18 3.74998L54.94 3.52998C54.94 3.52998 54.66 3.29998 54.48 3.14998L54.37 3.06998C53.75 2.59998 53.1 2.16998 52.42 1.77998L52.05 1.56998C52.05 1.56998 51.99 1.53998 51.95 1.51998C51.56 1.38998 50.94 1.17998 50.6 1.06998H50.56C50.32 1.02998 50.08 0.99998 49.84 0.97998L49.19 1.00998L49.21 1.02998Z" fill="#5D3415"/>
<path d="M70.39 65.09C69.83 65.09 69.21 65.01 68.5 64.82C67.47 64.55 66.3 64.05 65.02 63.35C64.24 62.92 63.45 62.44 62.67 61.9C61.65 61.2 60.9 60.23 60.55 59.17C60.34 58.53 60.16 57.91 59.98 57.28C59.93 57.09 59.88 56.9 59.85 56.71L59.59 55.15C59.29 53.8 58.98 52.49 58.66 51.23L57.32 45.9L55.25 39.2C54.6 37.05 53.9 35.04 53.29 33.37C51.94 29.65 50.39 26.23 48.26 22.27C48.17 22.1 48.08 21.92 48.01 21.74C47.8 21.22 47.6 20.69 47.41 20.16C47.01 19 46.64 17.77 46.33 16.51C46.19 15.95 46.07 15.39 45.96 14.83C45.9 14.49 45.87 14.12 45.88 13.74C45.92 11.84 45.92 10.11 45.86 8.45997L45.81 7.25997C45.79 6.80997 45.84 6.33997 45.95 5.82997C46.1 5.17997 46.18 4.52997 46.22 3.81997C46.28 2.66997 46.69 1.59997 47.41 0.709971L47.71 0.339971L48.26 0.159971C48.54 0.0999707 48.81 0.0399707 49.1 0.0099707H49.19L49.9 -0.0300293H49.95C50.16 -0.0100293 50.36 0.0099707 50.56 0.0299707L50.97 0.0999707L52.6 0.679971L52.97 0.889971C53.69 1.29997 54.38 1.75997 55.03 2.24997L56.13 3.18997L56.28 3.81997C56.33 4.03997 56.38 4.25997 56.45 4.47997C56.59 4.92997 56.75 5.38997 56.91 5.83997C56.95 5.93997 56.99 6.04997 57.04 6.15997C58.9 10.05 60.36 13.59 61.95 17.99C62.3 18.96 62.65 19.95 63 20.96C64.06 23.98 65.17 27.11 66.6 30.82C66.7 31.07 66.78 31.34 66.83 31.6L67.28 33.61C67.52 34.67 67.75 35.67 68.03 36.65L68.93 39.65L69.51 41.48L70.86 45.38C71.3 46.64 71.79 47.87 72.31 49.18C72.55 49.79 72.79 50.4 73.03 51.01C73.18 51.41 73.35 51.8 73.52 52.19L73.94 53.14L73.92 53.39C73.85 54.23 73.85 55.13 73.92 56.15C73.94 56.58 74.07 57.22 74.2 57.9C74.28 58.3 74.36 58.72 74.43 59.14C74.71 60.88 74.63 62.03 74.17 62.88C73.59 63.94 72.49 65.05 70.43 65.05L70.39 65.09ZM48.86 2.09997C48.46 2.63997 48.23 3.27997 48.2 3.94997C48.16 4.76997 48.05 5.52997 47.88 6.28997C47.8 6.62997 47.77 6.91997 47.78 7.18997L47.83 8.39997C47.89 10.1 47.9 11.86 47.86 13.8C47.86 14.04 47.87 14.27 47.91 14.47C48.01 14.99 48.12 15.51 48.25 16.03C48.55 17.24 48.9 18.4 49.28 19.5C49.45 19.99 49.64 20.49 49.85 20.98C49.9 21.1 49.95 21.21 50.01 21.32C52.16 25.31 53.8 28.92 55.16 32.69C55.77 34.39 56.49 36.43 57.15 38.62L59.24 45.39L59.68 47.06L60.59 50.75C60.91 52.02 61.23 53.36 61.54 54.77L61.81 56.38C61.83 56.5 61.86 56.63 61.89 56.75C62.06 57.35 62.24 57.95 62.43 58.54C62.65 59.19 63.13 59.8 63.79 60.26C64.51 60.75 65.24 61.21 65.96 61.6C67.1 62.22 68.12 62.66 68.99 62.89C71.22 63.48 71.98 62.64 72.35 61.96C72.58 61.55 72.59 60.72 72.39 59.51C72.32 59.12 72.24 58.72 72.17 58.34C72.02 57.59 71.88 56.88 71.86 56.31C71.8 55.31 71.79 54.4 71.85 53.54L71.63 53.03C71.45 52.61 71.27 52.2 71.11 51.77C70.88 51.17 70.64 50.56 70.4 49.96C69.9 48.69 69.38 47.38 68.92 46.07L66.39 38.42L66.06 37.23C65.77 36.2 65.53 35.13 65.29 34.1L64.84 32.07C64.8 31.91 64.75 31.74 64.69 31.59C63.24 27.84 62.14 24.71 61.07 21.67C60.71 20.66 60.37 19.68 60.02 18.71C58.46 14.38 57.01 10.89 55.19 7.05997C55.11 6.89997 55.04 6.72997 54.98 6.55997C54.81 6.07997 54.65 5.59997 54.5 5.12997C54.41 4.84997 54.35 4.57997 54.29 4.29997V4.27997L53.78 3.87997C53.2 3.43997 52.58 3.02997 51.94 2.65997L51.61 2.46997L50.3 2.04997C50.15 2.02997 50 2.00997 49.84 1.99997L49.29 2.01997C49.14 2.03997 49 2.06997 48.86 2.09997Z" fill="#5D3415"/>
<path d="M57.8598 17.42C57.9698 17.89 58.0698 18.36 58.2098 18.84C58.5198 19.98 58.8298 21.14 59.2098 22.33C59.3398 22.72 59.4698 23.12 59.5998 23.52C61.8798 30.12 63.7198 34.48 66.5798 42.28C66.7298 42.73 66.8898 43.18 67.0398 43.63C67.3398 44.52 67.6398 45.4 67.9298 46.27L68.2198 47.13C68.2398 47.18 68.2598 47.24 68.2698 47.29C68.2498 47.23 68.2398 47.18 68.2198 47.12C68.1098 46.73 67.9998 46.34 67.8898 45.96C66.0198 39.52 64.6498 35.37 62.7598 29.62L62.3998 28.42C62.1698 27.62 61.9398 26.83 61.7098 26.04L61.3398 24.68C61.0298 23.37 60.7398 22.15 60.4698 20.97C60.3698 20.58 60.2798 20.19 60.1798 19.81C59.6098 16.64 58.5198 13.29 57.5098 9.87L57.3998 9.48C56.9898 8.55 56.5498 7.61 56.0798 6.62C56.0598 6.58 56.0498 6.54 56.0298 6.5C56.4098 9.08 56.7498 11.78 57.2998 14.58C57.4598 15.56 57.6598 16.51 57.8298 17.41L57.8598 17.42Z" fill="#87511D"/>
<path d="M53.3896 10.22C53.5696 11.33 53.7896 12.4 53.9796 13.42C54.1096 13.95 54.2196 14.49 54.3696 15.02C54.7196 16.31 55.0696 17.63 55.4996 18.96C55.6396 19.4 55.7896 19.85 55.9396 20.31C58.4996 27.77 60.5796 32.71 63.8096 41.53C63.9796 42.04 64.1496 42.55 64.3296 43.05C64.6696 44.06 65.0096 45.06 65.3396 46.04L65.6696 47.02C65.8496 47.55 66.0296 48.08 66.2096 48.6C66.3896 49.12 66.5596 49.65 66.7396 50.16L67.2996 51.85L67.8596 53.53C68.3896 55.16 68.9196 56.81 69.4696 58.49L69.8696 59.75C69.9196 59.91 69.9696 60.06 70.0196 60.22C70.1896 60.95 70.3696 61.71 70.5496 62.49C70.6396 62.88 70.7896 63.44 70.9396 64.04C71.4296 63.98 71.8596 63.82 72.2496 63.56C71.9096 62.81 71.5296 61.92 71.1296 60.96L70.8496 60.01C70.7096 59.53 70.5696 59.04 70.4296 58.55C70.3196 58.13 70.1996 57.72 70.0896 57.32C69.5196 55.36 68.9796 53.6 68.4496 51.92C68.3196 51.5 68.1796 51.09 68.0496 50.67C65.7396 43.76 64.1196 39.31 61.5796 33.25L61.0996 31.98C60.7896 31.13 60.4796 30.28 60.1696 29.44L59.6896 27.98C59.2896 26.57 58.9096 25.25 58.5796 23.98C58.4596 23.56 58.3496 23.14 58.2396 22.73C57.5496 19.3 56.4396 15.64 55.6396 11.85L55.3496 10.43C55.2096 9.56004 54.9396 8.33004 54.7496 7.03004C54.6896 6.60004 54.6096 6.16004 54.5696 5.73004C54.4896 4.99004 54.3996 3.98004 54.3396 2.98004C53.7596 2.54004 53.1496 2.14004 52.5096 1.77004L52.1396 1.56004C52.1396 1.56004 52.1096 1.55004 52.0996 1.54004C52.4996 4.32004 52.8796 7.21004 53.4596 10.2L53.3896 10.22Z" fill="#87511D"/>
<path d="M61.2295 19.42C61.3395 19.79 61.4496 20.15 61.5596 20.53C63.5896 26.67 64.6596 30.88 67.0096 38.13C67.1296 38.55 67.2496 38.97 67.3696 39.39C67.6096 40.22 67.8495 41.04 68.0895 41.85L68.3296 42.66C68.4596 43.1 68.5896 43.53 68.7196 43.96C68.8496 44.39 68.9795 44.82 69.0995 45.25L69.5096 46.64L69.9096 48.02C70.2896 49.36 70.6796 50.72 71.0796 52.1L71.3596 53.14C71.3996 53.27 71.4295 53.39 71.4595 53.53C71.5695 54.13 71.6796 54.76 71.7996 55.4C71.9896 56.38 72.4696 58.7 72.3696 59.45C72.3496 59.62 72.3296 59.73 72.2996 59.81C72.3796 60.14 72.4495 60.46 72.5295 60.81C72.6395 61.27 72.8395 62.02 73.0295 62.77C73.0995 62.67 73.1795 62.57 73.2395 62.45C73.6495 61.7 73.5796 60.53 73.3996 59.36C73.1996 58.2 72.9095 57.03 72.8795 56.27C72.8195 55.28 72.8095 54.32 72.8795 53.37C72.7995 53.19 72.7296 53.03 72.6496 52.85C72.4496 52.38 72.2395 51.91 72.0595 51.43C71.3195 49.51 70.5395 47.65 69.8795 45.76C69.6595 45.11 69.4295 44.46 69.2095 43.81L68.5295 41.85C68.3395 41.24 68.1396 40.63 67.9396 40.01C67.7496 39.39 67.5496 38.77 67.3596 38.14C67.2496 37.75 67.1395 37.37 67.0295 36.98C66.7095 35.81 66.4396 34.61 66.1596 33.39C66.0496 32.89 65.9396 32.38 65.8296 31.87C65.7796 31.66 65.7195 31.45 65.6395 31.24C63.7095 26.24 62.3495 22.21 60.9795 18.38C60.9195 18.2 60.8496 18.03 60.7896 17.85C60.9396 18.37 61.0796 18.89 61.2396 19.42H61.2295Z" fill="#87511D"/>
<path d="M48.0797 2.43999C49.0797 6.63999 49.4197 11.26 50.3797 16.18C50.5397 17.16 50.7396 18.11 50.9096 19.01C51.0196 19.48 51.1196 19.95 51.2596 20.43C51.5696 21.57 51.8796 22.73 52.2596 23.92C52.3896 24.31 52.5197 24.71 52.6497 25.11C54.9297 31.71 56.7697 36.07 59.6297 43.87C59.7797 44.32 59.9396 44.77 60.0896 45.22C60.3896 46.11 60.6896 46.99 60.9796 47.86L61.2696 48.72C61.3696 49.02 61.4696 49.31 61.5696 49.61C61.4696 49.24 61.3596 48.87 61.2596 48.51C59.3896 42.07 58.0197 37.92 56.1297 32.17L55.7696 30.97C55.5396 30.17 55.3097 29.38 55.0797 28.59L54.7096 27.23C54.3996 25.92 54.1096 24.7 53.8396 23.52C53.7396 23.13 53.6496 22.74 53.5496 22.36C52.9796 19.19 51.8897 15.84 50.8797 12.42L50.5096 11.13C50.2796 10.35 49.9496 9.23999 49.6096 8.07999C49.4996 7.68999 49.3896 7.29999 49.2796 6.91999C48.8796 5.32999 48.0596 2.37999 48.0696 1.48999C48.0096 1.56999 47.9496 1.65999 47.8896 1.74999C47.9396 1.93999 47.9996 2.16999 48.0696 2.43999H48.0797Z" fill="#87511D"/>
<path d="M49.2098 1.03001C48.8998 1.07001 48.6098 1.14001 48.3098 1.20001C48.2898 1.22001 48.2698 1.24001 48.2598 1.27001C48.3498 1.33001 48.4798 1.49001 48.6698 1.79001C48.7698 1.95001 48.8798 2.15001 49.0098 2.39001C50.8998 6.03001 51.6498 10.33 52.7698 14.82C52.9698 15.72 53.1598 16.59 53.3398 17.43C53.4598 17.86 53.5698 18.3 53.6898 18.74C53.9798 19.79 54.2798 20.87 54.6098 21.97C54.7198 22.34 54.8298 22.7 54.9398 23.08C56.9698 29.22 58.0398 33.43 60.3898 40.68C60.5098 41.1 60.6298 41.52 60.7498 41.94C60.9898 42.77 61.2298 43.59 61.4698 44.4L61.7098 45.21C61.8398 45.65 61.9698 46.08 62.0998 46.51C62.2298 46.94 62.3598 47.37 62.4798 47.8L62.8898 49.19L63.2898 50.57C63.6698 51.91 64.0598 53.27 64.4598 54.65L64.7398 55.69C64.7798 55.82 64.8098 55.94 64.8398 56.08C64.9498 56.68 65.0598 57.31 65.1798 57.95C65.3698 58.93 65.8498 61.25 65.7498 62C65.7198 62.27 65.6798 62.42 65.6198 62.46C65.6198 62.49 65.6398 62.53 65.6498 62.56C66.7598 63.16 67.8098 63.61 68.7698 63.87C68.9998 63.93 69.2198 63.98 69.4298 64.01C69.2498 63.59 69.0698 63.16 68.8798 62.71L68.5598 61.64C68.3998 61.09 68.2398 60.54 68.0798 59.99C67.9498 59.52 67.8198 59.05 67.6998 58.6C67.0598 56.39 66.4498 54.39 65.8498 52.49C65.6998 52.02 65.5498 51.55 65.3998 51.08C62.7998 43.26 60.9798 38.22 58.1198 31.37L57.5698 29.93C57.2198 28.97 56.8698 28.01 56.5198 27.06L55.9798 25.41C55.5298 23.81 55.0998 22.33 54.7298 20.88C54.5998 20.4 54.4698 19.93 54.3498 19.46C53.5798 15.57 52.3298 11.44 51.4198 7.15001L51.0898 5.54001C50.9298 4.55001 50.6198 3.16001 50.4098 1.70001C50.3798 1.49001 50.3498 1.27001 50.3098 1.06001C50.1598 1.04001 50.0098 1.02001 49.8598 1.01001L49.2098 1.04001V1.03001Z" fill="#87511D"/>
<path d="M63.4298 60.16C63.3198 59.74 63.1998 59.33 63.0898 58.93C62.5198 56.97 61.9798 55.21 61.4498 53.53C61.3198 53.11 61.1798 52.7 61.0498 52.28C59.2098 46.78 57.8098 42.83 56.0298 38.39C56.0798 38.56 56.1398 38.73 56.1898 38.91C56.8298 40.98 57.5098 43.16 58.2498 45.56C58.3998 46.14 58.5598 46.72 58.7098 47.31C58.9998 48.5 59.2998 49.72 59.6098 50.98C59.9298 52.25 60.2398 53.57 60.5498 54.98C60.6398 55.5 60.7298 56.02 60.8098 56.54C60.8398 56.7 60.8698 56.86 60.9098 57.01C61.0798 57.63 61.2698 58.24 61.4598 58.84C61.4598 58.84 61.4598 58.84 61.4598 58.85C61.7598 59.74 62.3898 60.51 63.1998 61.07C63.3898 61.2 63.5798 61.32 63.7698 61.44C63.6398 61.01 63.5198 60.58 63.3898 60.14L63.4298 60.16Z" fill="#87511D"/>
<path d="M51.5798 25.5901C51.4598 25.1701 51.3498 24.7501 51.2398 24.3401C50.5498 20.9101 49.4398 17.2501 48.6398 13.4601L48.3498 12.0401C48.2098 11.1701 47.9398 9.94007 47.7498 8.64007C47.6898 8.21007 47.6098 7.77007 47.5698 7.34007C47.4498 6.28007 47.3098 4.66007 47.2998 3.32007C47.2598 3.51007 47.2298 3.71007 47.2198 3.91007C47.1798 4.63007 47.0898 5.36007 46.9198 6.08007C46.8298 6.47007 46.7798 6.85007 46.7998 7.25007C46.8198 7.65007 46.8398 8.05007 46.8498 8.45007C46.9098 10.1401 46.9198 11.9001 46.8698 13.7901C46.8698 14.0801 46.8798 14.3801 46.9398 14.6701C47.0398 15.2101 47.1598 15.7501 47.2898 16.2901C47.5898 17.4801 47.9298 18.6701 48.3398 19.8401C48.5198 20.3501 48.7198 20.8701 48.9298 21.3801C48.9898 21.5301 49.0598 21.6701 49.1398 21.8101C50.3798 24.1001 51.4198 26.2401 52.3398 28.3301C52.0698 27.3901 51.8098 26.4701 51.5798 25.5901Z" fill="#87511D"/>
<path d="M58.4813 15.6989C58.7186 15.033 58.6327 14.3939 58.2894 14.2716C57.946 14.1492 57.4753 14.5897 57.2379 15.2556C57.0005 15.9215 57.0864 16.5605 57.4298 16.6829C57.7731 16.8053 58.2439 16.3647 58.4813 15.6989Z" fill="#EAC88C"/>
<path d="M71.0652 56.3486C71.3026 55.6828 71.2167 55.0437 70.8734 54.9213C70.53 54.7989 70.0593 55.2395 69.8219 55.9054C69.5845 56.5713 69.6704 57.2103 70.0138 57.3327C70.3571 57.4551 70.8279 57.0145 71.0652 56.3486Z" fill="#EAC88C"/>
<path d="M54.4381 23.4729C54.6811 23.2162 54.4457 22.5988 53.9122 22.0938C53.3788 21.5888 52.7494 21.3875 52.5064 21.6442C52.2634 21.9009 52.4988 22.5184 53.0323 23.0233C53.5657 23.5283 54.1951 23.7296 54.4381 23.4729Z" fill="#EAC88C"/>
<path d="M62.9453 33.4212C63.0792 32.7271 62.8977 32.1084 62.5397 32.0394C62.1818 31.9703 61.7831 32.477 61.6492 33.1712C61.5153 33.8653 61.6969 34.484 62.0548 34.553C62.4127 34.6221 62.8114 34.1153 62.9453 33.4212Z" fill="#EAC88C"/>
<path d="M48.8652 10.3817C48.9992 9.68754 48.8176 9.06886 48.4597 8.99981C48.1018 8.93076 47.7031 9.43748 47.5691 10.1316C47.4352 10.8257 47.6168 11.4444 47.9747 11.5135C48.3326 11.5825 48.7313 11.0758 48.8652 10.3817Z" fill="#EAC88C"/>
<path d="M60.9173 37.0404C61.2348 36.8728 61.2224 36.2262 60.8897 35.5962C60.5569 34.9662 60.0299 34.5914 59.7125 34.7591C59.395 34.9267 59.4074 35.5733 59.7401 36.2033C60.0728 36.8333 60.5999 37.2081 60.9173 37.0404Z" fill="#EAC88C"/>
<path d="M62.3585 46.4383C62.561 46.1553 62.2373 45.5768 61.6355 45.1461C61.0337 44.7154 60.3816 44.5956 60.1791 44.8786C59.9767 45.1615 60.3004 45.74 60.9022 46.1707C61.504 46.6014 62.156 46.7212 62.3585 46.4383Z" fill="#EAC88C"/>
</g>
<defs>
<clipPath id="clip0_445_393">
<rect width="74.55" height="69.94" fill="white"/>
</clipPath>
</defs>
</svg>
