<svg width="78" height="77" viewBox="0 0 78 77" fill="none" xmlns="http://www.w3.org/2000/svg">
<path d="M22.3437 8.40498L22.8736 8.37498C25.9136 8.35498 29.3337 9.66498 32.4337 11.995C35.7037 14.455 38.5637 18.015 40.1937 22.185C41.8137 26.335 41.6637 31.295 40.3237 35.725C38.9837 40.175 36.4736 43.975 33.5336 45.865C30.5136 47.805 24.1636 50.075 17.8936 49.195C14.7736 48.755 11.6836 47.545 9.02363 45.125C6.35363 42.715 4.07361 39.065 2.63361 33.685C1.37361 28.995 1.59365 25.195 2.67365 22.095C3.75365 18.995 5.7037 16.565 7.9737 14.655C12.5437 10.835 18.3437 9.19498 20.6837 8.65498C21.2737 8.52498 21.8137 8.41498 22.3537 8.38498L22.3437 8.40498Z" fill="#926A40"/>
<path d="M20.7135 50.385C19.7235 50.385 18.7234 50.325 17.7434 50.185C14.1034 49.675 10.9335 48.225 8.34352 45.865C5.28352 43.095 3.03346 39.085 1.65346 33.945C0.443457 29.455 0.463516 25.355 1.71352 21.765C2.75352 18.785 4.6335 16.145 7.3235 13.895C12.0735 9.91499 18.0835 8.23499 20.4535 7.68499C21.0335 7.55499 21.6535 7.42499 22.2935 7.39499L22.8235 7.36499C22.8235 7.36499 22.8835 7.36499 22.9235 7.36499C26.1935 7.36499 29.7635 8.72499 33.0435 11.185C36.6435 13.895 39.5134 17.665 41.1334 21.805C42.7234 25.885 42.7835 31.055 41.2835 36.005C39.8635 40.715 37.1635 44.705 34.0735 46.695C31.0935 48.615 25.9435 50.375 20.7235 50.375L20.7135 50.385ZM22.9535 9.37499H22.8834L22.4035 9.40499C21.9635 9.42499 21.5034 9.51499 20.8934 9.65499C18.6734 10.165 13.0235 11.745 8.60353 15.445C6.20353 17.455 4.52353 19.815 3.60353 22.445C2.48353 25.645 2.48351 29.345 3.58351 33.445C4.86351 38.215 6.91349 41.895 9.68349 44.405C11.9735 46.485 14.7835 47.765 18.0235 48.225C24.5335 49.145 30.6534 46.545 32.9834 45.045C35.6834 43.305 38.0634 39.715 39.3634 35.455C40.7334 30.935 40.6934 26.235 39.2634 22.565C37.7834 18.765 35.1435 15.305 31.8335 12.815C28.8935 10.605 25.7535 9.39499 22.9535 9.39499V9.37499Z" fill="#62401D"/>
<path d="M76.5236 22.515L76.5536 23.075C76.5736 26.285 75.3137 29.895 73.0937 33.165C70.7437 36.615 67.3536 39.635 63.3936 41.355C59.4636 43.065 54.7536 42.935 50.5436 41.565C46.3236 40.185 42.7036 37.595 40.8936 34.505C39.0336 31.345 36.8637 24.675 37.7037 18.065C38.1237 14.775 39.2937 11.515 41.5937 8.70502C43.8937 5.89502 47.3736 3.48502 52.4836 1.94502C56.9336 0.605019 60.5437 0.815019 63.4737 1.92502C66.4137 3.03502 68.7336 5.05502 70.5536 7.43502C74.2036 12.215 75.7736 18.295 76.2836 20.755C76.4036 21.375 76.5136 21.945 76.5436 22.525L76.5236 22.515Z" fill="#926A40"/>
<path d="M56.9538 43.605C54.7438 43.605 52.4538 43.235 50.2138 42.505C45.7238 41.035 41.9037 38.235 40.0037 35.005C37.8237 31.305 35.8638 24.385 36.6838 17.925C37.1738 14.105 38.5537 10.785 40.7937 8.055C43.4337 4.835 47.2537 2.455 52.1637 0.975C56.4537 -0.325 60.3737 -0.325 63.7937 0.975C66.6337 2.045 69.1638 4.015 71.3138 6.815C75.1038 11.775 76.7138 18.065 77.2238 20.535C77.3438 21.145 77.4737 21.795 77.5037 22.455L77.5337 23.015C77.5637 26.455 76.2637 30.235 73.8937 33.725C71.3137 37.515 67.7137 40.555 63.7637 42.265C61.7137 43.155 59.3838 43.605 56.9438 43.605H56.9538ZM58.3238 2.005C56.5738 2.005 54.7137 2.295 52.7637 2.885C48.2437 4.245 44.7437 6.415 42.3637 9.325C40.3637 11.765 39.1338 14.745 38.6938 18.185C37.8138 25.075 40.3037 31.545 41.7537 33.995C43.4137 36.815 46.8138 39.285 50.8538 40.605C55.1138 41.995 59.5437 41.935 62.9937 40.435C66.6037 38.865 69.9037 36.085 72.2737 32.605C74.4137 29.455 75.5838 26.075 75.5638 23.085L75.5337 22.575C75.5037 22.045 75.4037 21.485 75.2937 20.955C74.8037 18.615 73.2937 12.675 69.7537 8.045C67.8437 5.545 65.6037 3.795 63.1237 2.865C61.6437 2.305 60.0438 2.025 58.3338 2.025L58.3238 2.005Z" fill="#62401D"/>
<path d="M43.9633 75.655L43.4333 75.685C40.3933 75.705 36.9733 74.395 33.8733 72.065C30.5933 69.605 27.7234 66.045 26.0934 61.875C24.4634 57.725 24.6033 52.765 25.9333 48.325C27.2633 43.875 29.7533 40.075 32.6933 38.185C35.7033 36.245 42.0433 33.965 48.3233 34.855C51.4433 35.295 54.5333 36.505 57.2033 38.925C59.8733 41.335 62.1633 44.995 63.6233 50.365C64.8933 55.055 64.6832 58.865 63.6132 61.955C62.5432 65.055 60.6033 67.485 58.3333 69.395C53.7733 73.225 47.9833 74.855 45.6433 75.395C45.0533 75.525 44.5134 75.635 43.9734 75.665L43.9633 75.655Z" fill="#926A40"/>
<path d="M43.3934 76.685C40.1234 76.685 36.5534 75.325 33.2634 72.865C29.6534 70.155 26.7734 66.385 25.1534 62.245C23.5534 58.165 23.4835 52.985 24.9635 48.045C26.3735 43.335 29.0534 39.335 32.1434 37.345C35.6834 35.055 42.2934 32.995 48.4534 33.865C52.0934 34.375 55.2634 35.825 57.8634 38.185C60.9234 40.955 63.1834 44.965 64.5734 50.105C65.7934 54.595 65.7834 58.695 64.5434 62.285C63.5134 65.265 61.6335 67.915 58.9635 70.165C54.2235 74.145 48.2135 75.835 45.8535 76.375C45.2735 76.505 44.6534 76.635 44.0134 76.665L43.4833 76.695C43.4833 76.695 43.4234 76.695 43.3934 76.695V76.685ZM45.4034 35.645C39.9834 35.645 35.2233 37.735 33.2333 39.015C30.5333 40.755 28.1634 44.345 26.8834 48.605C25.5234 53.125 25.5734 57.825 27.0134 61.505C28.5034 65.305 31.1535 68.775 34.4635 71.265C37.4035 73.475 40.5535 74.685 43.3435 74.685H43.4134L43.8934 74.655C44.3334 74.635 44.7934 74.545 45.4034 74.405C47.6234 73.895 53.2634 72.315 57.6634 68.615C60.0634 66.605 61.7334 64.245 62.6434 61.615C63.7534 58.415 63.7434 54.705 62.6434 50.615C61.3534 45.845 59.2934 42.155 56.5134 39.655C54.2134 37.575 51.4034 36.285 48.1634 35.835C47.2234 35.705 46.3034 35.645 45.3934 35.645H45.4034Z" fill="#62401D"/>
<path d="M33.4136 34.235C33.0736 33.525 31.7735 33.035 31.2535 32.695C30.9035 32.455 30.5836 32.235 30.2836 31.915L30.0736 31.845L29.4736 31.665C28.6936 31.405 27.9036 31.215 27.1736 30.885L26.4136 30.565L25.6536 30.245C25.4136 30.155 25.1836 30.045 24.9536 29.915L24.2635 29.545L23.8336 29.305C23.4036 29.065 22.9836 28.835 22.5836 28.515L21.9736 28.065C20.9836 27.635 20.2136 27.065 19.4236 26.615C18.7136 26.075 17.9936 25.625 17.3936 25.085C16.1136 24.075 14.9435 23.045 13.6235 21.635L13.2236 21.065C13.1336 20.935 13.0735 20.805 13.0135 20.675L12.9036 20.625C12.9036 20.625 12.7836 20.575 12.7036 20.535C12.6436 20.505 12.6036 20.495 12.5936 20.495L11.9436 20.245L11.6736 20.155H11.6335C11.4735 20.145 11.2336 20.105 11.1036 20.075H10.8036C10.5336 20.075 10.5336 20.235 10.8036 20.075C10.8036 20.075 10.8435 20.045 10.8835 20.025C10.7935 20.095 10.6636 20.095 10.5536 20.115C10.4436 20.155 10.3436 20.205 10.2236 20.255L9.97363 21.115C10.1636 21.825 10.3236 22.525 10.4236 23.265C10.5336 23.555 10.6636 23.845 10.7736 24.135C11.1436 25.005 11.5536 25.895 12.0236 26.845C12.2136 27.145 12.4436 27.415 12.6636 27.665C13.0536 28.115 13.4636 28.575 13.9236 28.945C14.1436 29.145 14.3735 29.325 14.6135 29.495C15.5135 30.065 16.3636 30.485 17.1436 30.965C17.9536 31.375 18.6936 31.845 19.4736 32.255C21.0136 33.095 22.5736 33.995 24.5236 34.905C24.7436 35.025 24.9836 35.145 25.2236 35.265C25.6936 35.515 26.1636 35.765 26.6636 36.025C27.1736 36.265 27.6835 36.525 28.2335 36.785C28.4535 36.915 28.6836 37.045 28.9236 37.175C29.2036 37.305 29.4735 37.435 29.7535 37.545L30.3036 37.705C32.5236 36.915 34.1936 35.755 33.4736 34.215H33.4436L33.4136 34.235Z" fill="#E8D9CD"/>
<path d="M45.9236 28.725C46.6736 28.855 47.8136 28.035 48.3836 27.795C48.7736 27.635 49.1336 27.495 49.5536 27.435L49.7335 27.295L50.2237 26.895C50.8837 26.395 51.4936 25.825 52.1736 25.395L52.8636 24.935L53.5536 24.475C53.7636 24.325 53.9837 24.195 54.2137 24.075L54.9036 23.715L55.3336 23.495C55.7636 23.275 56.2036 23.045 56.6736 22.905L57.3736 22.655C58.2936 22.075 59.1836 21.745 59.9936 21.345C60.8236 21.065 61.5936 20.715 62.3636 20.515C63.9036 20.025 65.3836 19.635 67.2436 19.335H67.9236C68.0736 19.335 68.2137 19.355 68.3537 19.375L68.4637 19.315C68.4637 19.315 68.5736 19.245 68.6536 19.195C68.7036 19.165 68.7436 19.135 68.7536 19.125L69.3336 18.715L69.5636 18.545C69.5636 18.545 69.5737 18.525 69.5937 18.505C69.6937 18.375 69.8737 18.195 69.9637 18.105V18.085L70.1436 17.845C70.1836 17.525 70.3036 17.615 70.1436 17.845C70.1436 17.845 70.1436 17.895 70.1436 17.945C70.1436 17.835 70.2236 17.715 70.2636 17.615C70.3036 17.495 70.3137 17.385 70.3437 17.255L69.8236 16.545C69.1636 16.295 68.5336 16.015 67.9036 15.665C67.6136 15.595 67.3136 15.525 67.0236 15.455C66.1336 15.255 65.2036 15.075 64.1936 14.925C63.8436 14.905 63.5136 14.945 63.1836 14.985C62.6036 15.055 62.0136 15.125 61.4536 15.305C61.1736 15.375 60.8936 15.465 60.6236 15.565C59.6536 15.995 58.8336 16.475 58.0036 16.845C57.2136 17.295 56.4136 17.645 55.6436 18.055C54.0936 18.865 52.4836 19.665 50.6336 20.785C50.4136 20.905 50.1836 21.035 49.9536 21.165C49.4836 21.415 49.0136 21.675 48.5236 21.935C48.0436 22.225 47.5336 22.505 47.0136 22.825C46.7836 22.935 46.5436 23.055 46.3036 23.175C46.0336 23.335 45.7736 23.485 45.5336 23.665L45.0937 24.035C44.4037 26.385 44.3236 28.475 45.9336 28.765L45.9536 28.735L45.9236 28.725Z" fill="#E8D9CD"/>
<path d="M31.9637 52.905C32.4537 53.515 33.8236 53.665 34.4036 53.865C34.7936 54.005 35.1636 54.145 35.5136 54.375H35.7336L36.3537 54.415C37.1637 54.475 37.9836 54.455 38.7636 54.595L39.5736 54.715L40.3836 54.835C40.6336 54.865 40.8836 54.905 41.1336 54.985L41.8836 55.175L42.3537 55.295C42.8237 55.415 43.2936 55.545 43.7436 55.755L44.4336 56.035C45.4936 56.215 46.3736 56.565 47.2436 56.805C48.0536 57.155 48.8536 57.415 49.5636 57.785C51.0336 58.455 52.4036 59.155 54.0136 60.195L54.5336 60.645C54.6536 60.755 54.7337 60.865 54.8337 60.975L54.9537 60.995C54.9537 60.995 55.0836 61.015 55.1736 61.035C55.2336 61.045 55.2836 61.045 55.2936 61.045L55.9836 61.125L56.2636 61.145C56.2636 61.145 56.2836 61.145 56.3036 61.135C56.4636 61.105 56.7037 61.085 56.8337 61.085H56.8537L57.1236 61.005C57.3536 60.785 57.3836 60.935 57.1236 61.005C57.1236 61.005 57.0836 61.045 57.0636 61.075C57.1336 60.985 57.2636 60.955 57.3636 60.905C57.4636 60.835 57.5536 60.765 57.6436 60.685L57.6936 59.795C57.3436 59.155 57.0336 58.515 56.7736 57.825C56.6036 57.575 56.4136 57.325 56.2336 57.065C55.6736 56.315 55.0836 55.545 54.4036 54.745C54.1536 54.495 53.8737 54.295 53.5937 54.115C53.1137 53.775 52.6137 53.435 52.0837 53.185C51.8237 53.045 51.5636 52.925 51.2936 52.815C50.2936 52.485 49.3636 52.295 48.5036 52.005C47.6236 51.805 46.7937 51.535 45.9537 51.325C44.2637 50.885 42.5436 50.405 40.4436 50.005C40.1936 49.945 39.9436 49.885 39.6836 49.835C39.1736 49.705 38.6536 49.585 38.1136 49.455C37.5736 49.355 37.0036 49.225 36.4136 49.105C36.1636 49.035 35.9136 48.965 35.6536 48.895C35.3536 48.835 35.0636 48.775 34.7636 48.745L34.1936 48.725C32.2136 50.045 30.8636 51.585 31.9036 52.895H31.9336L31.9637 52.905Z" fill="#E8D9CD"/>
<path d="M27.8435 16.555C27.2535 16.335 25.8735 16.985 25.3035 17.305C24.9135 17.485 24.5234 17.645 24.1134 17.795L23.9135 17.975C23.7235 18.135 23.5735 18.305 23.4135 18.485C22.8035 19.205 22.1234 19.875 21.6134 20.635L21.0435 21.395C20.8635 21.655 20.6534 21.905 20.4834 22.165L20.0134 22.915L19.5435 23.675C19.4535 23.835 19.3334 23.975 19.2434 24.135C18.9634 24.605 18.6734 25.095 18.3934 25.575C18.2534 25.825 18.0835 26.065 17.9535 26.305C16.1935 31.005 15.4135 33.765 15.2035 37.995C15.1635 38.245 15.1434 38.495 15.1234 38.745C15.0834 38.905 15.0635 39.055 15.0435 39.215L15.0935 39.345C15.0935 39.345 15.1535 39.485 15.1835 39.565C15.2035 39.615 15.2334 39.665 15.2434 39.685C15.3534 39.905 15.4535 40.115 15.5835 40.325L15.7534 40.575C15.7534 40.575 15.7634 40.605 15.7734 40.615C15.8834 40.715 16.0735 40.895 16.1635 40.985H16.1735L16.4135 41.105C16.6535 41.205 16.6935 41.115 16.4135 41.105H16.3335C16.4235 41.105 16.5434 41.155 16.6434 41.185L16.9735 41.235L17.5134 40.885C17.6934 40.375 17.9234 39.875 18.2734 39.425C18.3534 39.205 18.4434 38.975 18.5334 38.755C18.8134 38.085 19.1234 37.395 19.5234 36.695C19.6034 36.435 19.6934 36.175 19.7634 35.895C19.9034 35.435 20.0234 34.965 20.1334 34.475L20.2834 33.755C20.6834 30.105 21.7035 27.595 23.8435 24.465L24.2834 23.955C24.5834 23.615 24.8835 23.275 25.2135 22.935C25.5635 22.635 25.9335 22.335 26.3235 22.005C26.5035 21.885 26.6535 21.745 26.8435 21.665C27.0435 21.535 27.2435 21.405 27.4335 21.255L27.7834 20.965C27.9134 20.445 28.0835 19.985 28.2235 19.535C28.3535 19.085 28.4734 18.645 28.5234 18.235C28.6334 17.425 28.5135 16.755 27.8535 16.505V16.545L27.8435 16.555Z" fill="#E8D9CD"/>
<path d="M62.8733 34.365C63.3933 33.995 63.6933 32.435 63.7833 31.775C63.8733 31.335 63.9734 30.915 64.1034 30.475L64.0834 30.195C64.0734 29.945 64.0333 29.715 63.9833 29.475C63.7833 28.535 63.6633 27.565 63.3733 26.685L63.1133 25.755C63.0133 25.455 62.9434 25.125 62.8434 24.825L62.5433 23.985L62.2333 23.135C62.1633 22.965 62.1233 22.775 62.0533 22.615C61.8533 22.095 61.6433 21.575 61.4333 21.045C61.3233 20.775 61.2333 20.495 61.1233 20.245C58.5233 15.995 56.8433 13.715 53.6833 11.055C53.5133 10.875 53.3333 10.715 53.1533 10.545C53.0533 10.425 52.9434 10.315 52.8334 10.195L52.7034 10.155C52.7034 10.155 52.5534 10.125 52.4734 10.105C52.4234 10.095 52.3634 10.085 52.3434 10.085C52.1034 10.045 51.8833 10.015 51.6433 9.99505H51.3534C51.3534 9.99505 51.3234 9.98505 51.3134 9.99505C51.1734 10.025 50.9233 10.085 50.8033 10.115L50.5734 10.255C50.3534 10.395 50.3934 10.485 50.5734 10.255C50.5734 10.255 50.6033 10.215 50.6233 10.185C50.5633 10.265 50.4533 10.335 50.3833 10.395L50.1533 10.645L50.1133 11.315C50.4033 11.765 50.6533 12.255 50.7933 12.815C50.9133 13.015 51.0433 13.215 51.1633 13.425C51.5133 14.055 51.8733 14.725 52.1733 15.475C52.3233 15.695 52.4833 15.925 52.6533 16.145C52.9233 16.535 53.2233 16.915 53.5333 17.285L54.0033 17.835C56.5933 20.315 57.9333 22.645 59.1133 26.305L59.2533 26.975C59.3433 27.425 59.4233 27.885 59.4933 28.365C59.5233 28.845 59.5334 29.335 59.5634 29.855C59.5534 30.075 59.5633 30.285 59.5233 30.495C59.5033 30.745 59.4933 30.985 59.4933 31.235L59.5133 31.705C59.8433 32.125 60.1033 32.535 60.3633 32.915C60.6333 33.285 60.9134 33.645 61.1934 33.925C61.7634 34.495 62.3433 34.785 62.9333 34.365L62.9033 34.345L62.8733 34.365Z" fill="#E8D9CD"/>
<path d="M41.3737 68.705C41.9937 68.775 43.1937 67.795 43.6737 67.345C44.0137 67.065 44.3538 66.815 44.7238 66.575L44.8737 66.345C45.0237 66.145 45.1337 65.945 45.2437 65.725C45.6737 64.875 46.1837 64.055 46.5037 63.185L46.8837 62.305C46.9937 62.005 47.1437 61.715 47.2437 61.415L47.5337 60.575L47.8237 59.715C47.8837 59.535 47.9637 59.365 48.0037 59.195C48.1737 58.665 48.3337 58.125 48.5037 57.585C48.5837 57.305 48.6937 57.035 48.7637 56.765C49.4137 51.765 49.5437 48.895 48.7937 44.725C48.7737 44.475 48.7338 44.225 48.7038 43.975C48.7038 43.815 48.6937 43.655 48.6737 43.495L48.5938 43.375C48.5938 43.375 48.5038 43.245 48.4538 43.185C48.4238 43.135 48.3837 43.095 48.3737 43.085C48.2237 42.895 48.0737 42.715 47.8937 42.545L47.6737 42.345C47.6737 42.345 47.6537 42.325 47.6437 42.315C47.5137 42.235 47.2937 42.125 47.1837 42.055H47.1737L46.9137 42.005C46.6337 42.065 46.6637 41.965 46.9137 42.005C46.9137 42.005 46.9637 41.995 46.9937 41.985C46.9037 42.005 46.7737 41.985 46.6737 41.985L46.3438 42.015L45.8937 42.495C45.8337 43.035 45.7237 43.575 45.4837 44.095C45.4537 44.335 45.4237 44.565 45.3837 44.805C45.2637 45.525 45.1137 46.275 44.8837 47.055C44.8637 47.335 44.8438 47.605 44.8338 47.895C44.8038 48.375 44.7937 48.865 44.7937 49.365V50.105C45.2437 53.745 44.8238 56.435 43.4538 60.015L43.1437 60.625C42.9337 61.025 42.7138 61.435 42.4638 61.855C42.1838 62.235 41.9038 62.625 41.5938 63.035C41.4438 63.195 41.3337 63.375 41.1637 63.495C40.9937 63.675 40.8337 63.845 40.6837 64.035L40.4037 64.405C40.4037 64.945 40.3437 65.435 40.3037 65.905C40.2737 66.375 40.2637 66.835 40.3037 67.245C40.3837 68.065 40.6538 68.685 41.3538 68.765V68.725L41.3737 68.705Z" fill="#E8D9CD"/>
</svg>
