<svg width="75" height="74" viewBox="0 0 75 74" fill="none" xmlns="http://www.w3.org/2000/svg">
<g clip-path="url(#clip0_442_383)">
<path d="M48.1501 24.45C48.1501 24.45 44.0602 22.03 35.4102 30.54C26.7602 39.05 22.8801 54.24 8.47015 59.29C-1.98985 62.96 1.16015 69.67 2.53015 70.89C4.06015 72.25 15.8402 74.4 30.6802 64.97C51.5702 51.71 57.4501 33.31 55.3801 30.26C53.3101 27.21 48.1401 24.44 48.1401 24.44L48.1501 24.45Z" fill="#DB1F26"/>
<path d="M8.74992 73.14C14.2599 73.14 22.3799 71.45 31.2299 65.83C48.3099 54.99 55.1499 41.1 56.4899 34.6C56.8199 33.03 57.0299 30.91 56.2199 29.71C54.0699 26.54 49.0099 23.78 48.6399 23.58C48.0499 23.25 43.5299 21.16 34.7099 29.83C31.6299 32.86 29.2099 36.61 26.6399 40.58C22.0099 47.75 17.2199 55.17 8.13992 58.35C2.27992 60.4 0.549919 63.42 0.119919 65.58C-0.400081 68.23 0.829919 70.72 1.86992 71.64C2.76992 72.44 5.22991 73.13 8.73991 73.13L8.74992 73.14ZM48.1499 24.45L47.6799 25.33C47.6799 25.33 52.6499 28.02 54.5599 30.83C54.7499 31.11 54.9499 32.13 54.5199 34.19C53.2399 40.38 46.6599 53.65 30.1399 64.14C15.8299 73.22 4.42992 71.25 3.18992 70.15C2.76992 69.77 1.66992 68.02 2.07992 65.97C2.54992 63.6 4.86992 61.62 8.79992 60.24C18.5199 56.83 23.4999 49.12 28.3199 41.67C30.8199 37.8 33.1799 34.14 36.1099 31.26C43.9399 23.56 47.6299 25.31 47.6699 25.33L48.1499 24.45Z" fill="#AF1F24"/>
<path d="M21.8199 56.74C23.0099 56.74 24.9399 56.46 26.8599 54.35C27.4199 53.74 27.9799 53.03 27.6199 52.33C27.2599 51.62 26.4199 51.72 25.6199 51.82C25.3399 51.85 24.8099 51.91 24.5299 51.88C24.7799 51.41 26.2499 51.21 27.3499 51.06C29.4199 50.78 31.7599 50.45 33.0499 48.83C33.3399 48.47 33.9399 47.71 33.4799 47.04C33.0199 46.36 32.2199 46.6 31.0999 46.92C30.5399 47.08 29.2399 47.47 28.9099 47.3C28.9099 47.3 28.9099 47.24 28.9099 47.14C28.9499 46.16 31.6899 45.43 33.3199 45C35.2099 44.5 36.4599 44.16 36.7699 43.27C36.8499 43.05 36.9199 42.6 36.5599 42.12C35.5999 40.84 33.9999 41.5 32.9399 41.94C32.7299 42.03 32.4599 42.14 32.2399 42.21C32.6799 41.3 36.9799 39.61 41.5899 38.56C42.0299 38.46 42.2999 38.03 42.1999 37.59C42.0999 37.15 41.6699 36.87 41.2299 36.98C31.6699 39.15 30.5999 41.42 30.5899 42.29C30.5799 42.93 30.7799 43.4 31.1799 43.67C31.2699 43.73 31.3699 43.78 31.4699 43.82C29.3899 44.44 27.3699 45.3 27.2999 47.07C27.2699 47.88 27.6099 48.33 27.9099 48.56C28.4999 49.02 29.3299 49 30.1799 48.83C29.2599 49.15 28.1599 49.3 27.1299 49.44C25.0699 49.72 23.1199 49.99 22.8999 51.68C22.8099 52.36 23.0599 52.77 23.2899 53C23.8399 53.55 24.6699 53.53 25.4699 53.45C23.7199 55.23 22.0599 55.13 21.2599 55.08C21.0099 55.06 20.8199 55.06 20.6999 55.08C20.2599 55.14 19.9499 55.55 19.9999 55.99C20.0599 56.43 20.4599 56.75 20.9099 56.69C20.9599 56.69 21.0499 56.69 21.1599 56.7C21.3399 56.71 21.5699 56.73 21.8299 56.73L21.8199 56.74Z" fill="#AF1F24"/>
<path d="M55.3198 34.9C55.6798 34.9 56.0198 34.71 56.1998 34.38C56.2998 34.21 58.4998 30.06 56.1898 25.96C56.0098 25.64 55.7998 25.33 55.5798 25.04C57.0498 21.87 61.8998 16.88 64.5798 14.12C65.6598 13.01 67.0998 11.87 68.4898 10.77C71.8198 8.12 74.9798 5.62 73.3598 3.18C72.3898 1.72 71.4598 1 70.5198 1C69.8398 1 69.4498 1.38 69.3498 1.49C69.2498 1.6 69.1798 1.73 69.1398 1.87C68.3998 4.29 65.6798 7.69 61.0298 11.97C58.5498 14.26 56.5498 17.16 54.9398 19.5C54.0398 20.81 53.1798 22.06 52.5198 22.75C51.3398 22.29 50.2598 22.21 49.6698 22.21C49.3698 22.21 49.1998 22.23 49.1998 22.23C48.5598 22.31 45.3498 22.73 44.0798 23.87C43.7798 24.14 43.6698 24.56 43.7998 24.94C43.9298 25.32 44.2798 25.59 44.6898 25.61C45.0598 25.63 45.8398 25.72 46.6098 25.9C46.3098 26.23 46.0898 26.62 46.0298 27.1C45.9898 27.48 46.0998 27.84 46.3398 28.11C46.7598 28.58 47.3898 28.58 47.5998 28.58C47.9598 28.58 48.3698 28.52 48.7898 28.46C49.1798 28.4 49.5898 28.34 49.8898 28.34C50.0598 28.34 50.1198 28.36 50.1198 28.36C50.2698 28.46 50.3998 29.32 50.2498 30.1C50.1798 30.46 50.2698 30.8 50.4898 31.07C50.7098 31.34 51.0498 31.49 51.4298 31.49C51.9598 31.49 52.7198 31.16 53.3398 30.64C53.8898 31.72 54.3998 33 54.3398 33.85C54.3098 34.32 54.6098 34.75 55.0598 34.88C55.1498 34.91 55.2498 34.92 55.3398 34.92L55.3198 34.9Z" fill="#6E8D3B"/>
<path d="M70.5097 2C70.2197 2 70.0797 2.16 70.0797 2.16C69.3097 4.69 66.6797 8.11 61.6897 12.71C57.4397 16.63 54.5597 22.55 52.6797 23.93C51.4397 23.3 50.2297 23.22 49.6497 23.22C49.4197 23.22 49.2897 23.23 49.2897 23.23C49.2897 23.23 45.8297 23.63 44.7297 24.62C44.7297 24.62 47.3597 24.77 48.7597 25.67C48.7597 25.67 47.1097 26.28 47.0097 27.21C46.9797 27.49 47.2097 27.58 47.5797 27.58C48.1897 27.58 49.1497 27.34 49.8697 27.34C50.1597 27.34 50.4097 27.38 50.5897 27.49C51.4497 28.03 51.3397 29.64 51.2197 30.28C51.1897 30.42 51.2697 30.48 51.4097 30.48C51.9197 30.48 53.2397 29.68 53.4197 28.8C53.4197 28.8 55.4597 31.87 55.3197 33.9C55.3197 33.9 57.3797 30.11 55.3197 26.46C55.0497 25.98 54.7397 25.57 54.4197 25.23C55.5897 22.01 60.4397 16.96 63.8597 13.44C67.3697 9.81 74.1597 6.2 72.5297 3.73C71.5797 2.3 70.9197 2 70.5197 2M70.5097 0C72.4497 0 73.7597 1.97 74.1897 2.62C76.3197 5.83 72.6397 8.74 69.0897 11.55C67.7297 12.63 66.3197 13.75 65.2797 14.81C62.7897 17.38 58.3597 21.93 56.7297 24.94C56.8397 25.11 56.9497 25.28 57.0497 25.46C59.6397 30.03 57.1797 34.65 57.0697 34.85C56.7097 35.51 56.0297 35.89 55.3097 35.89C55.1197 35.89 54.9397 35.86 54.7497 35.81C53.8497 35.55 53.2497 34.69 53.3097 33.76C53.3397 33.36 53.1497 32.73 52.8797 32.07C52.3497 32.33 51.8197 32.48 51.3897 32.48C50.7197 32.48 50.0897 32.19 49.6797 31.7C49.2697 31.21 49.1097 30.55 49.2297 29.91C49.2597 29.75 49.2797 29.56 49.2797 29.4C49.1497 29.42 49.0197 29.44 48.8997 29.45C48.4597 29.51 47.9997 29.58 47.5597 29.58C46.7097 29.58 46.0297 29.31 45.5597 28.77C45.1297 28.28 44.9297 27.65 44.9997 26.98C45.0097 26.87 45.0297 26.76 45.0597 26.65C44.8897 26.63 44.7297 26.62 44.5897 26.61C43.7797 26.56 43.0897 26.03 42.8197 25.27C42.5597 24.51 42.7697 23.66 43.3797 23.12C44.7997 21.85 47.8097 21.38 49.0397 21.24C49.0697 21.24 49.2697 21.21 49.6397 21.21C50.1897 21.21 51.1197 21.27 52.1797 21.59C52.7397 20.9 53.4397 19.88 54.0897 18.94C55.7297 16.56 57.7697 13.6 60.3297 11.24C65.9597 6.06 67.6997 3.13 68.1697 1.58C68.2497 1.3 68.3997 1.04 68.5997 0.82C69.0597 0.31 69.7797 0 70.5097 0Z" fill="#536E32"/>
</g>
<defs>
<clipPath id="clip0_442_383">
<rect width="74.82" height="73.14" fill="white" transform="matrix(-1 0 0 1 74.8198 0)"/>
</clipPath>
</defs>
</svg>
