<svg width="77" height="77" viewBox="0 0 77 77" fill="none" xmlns="http://www.w3.org/2000/svg">
<path d="M75.8846 33.6144C75.8246 33.1244 75.7446 32.3744 75.7646 32.2044C75.8346 31.7244 75.7646 31.1544 75.6446 30.5644C75.5146 29.9844 75.3147 29.3844 75.1947 28.8144C75.1047 28.4044 74.9347 28.0044 74.8447 27.6144C74.3147 25.5144 73.5147 23.8644 72.6047 22.2844C72.5147 22.1244 72.4247 21.9644 72.3247 21.8044C71.9147 21.1344 71.6146 20.4844 71.6346 20.1844C71.6546 19.7444 71.2747 19.1044 70.7047 18.2344C69.5047 16.4344 68.1447 14.7844 66.8347 12.9844C66.6047 12.6444 66.2947 12.2844 65.9647 11.9244C65.6347 11.5644 65.3047 11.1844 64.9547 10.8644C62.9547 8.92444 60.6947 7.20444 58.4647 6.13444C58.2547 6.02444 57.9547 5.86444 57.7347 5.73444C56.0247 4.59444 54.4147 4.03444 52.8247 3.53444C52.4247 3.42444 51.9047 3.20444 51.4747 3.07444C50.8447 2.90444 50.2546 2.78444 49.6446 2.64444C49.1546 2.55444 48.6746 2.49444 48.1746 2.36444C45.9946 1.82444 43.6946 1.37444 41.5546 1.42444C41.1446 1.42444 40.5046 1.35444 39.9946 1.33444C39.3646 1.29444 38.7347 1.22444 38.1047 1.22444C37.4747 1.21444 36.8447 1.17444 36.2047 1.22444C35.5247 1.24444 34.8546 1.26444 34.1746 1.35444C33.8346 1.39444 33.4946 1.43444 33.1446 1.48444C32.7946 1.55444 32.4447 1.63444 32.0947 1.72444C30.6247 2.09444 29.2746 2.26444 28.0246 2.48444C26.9846 2.69444 25.9746 3.01445 24.8646 3.50445L24.3247 3.73444L23.7946 3.98444C23.4346 4.15444 23.0847 4.31444 22.7247 4.48444L21.6746 5.02444L21.1446 5.29445L20.6346 5.58444C20.2946 5.78444 19.8847 5.94444 19.5747 6.06444C19.0447 6.29444 18.4247 6.63444 17.8547 7.01444C17.2947 7.42444 16.7546 7.84444 16.3746 8.24444C16.0146 8.65444 15.3347 9.22444 14.8247 9.67444C13.2047 11.0044 11.6847 12.4544 10.3047 13.9944C9.63465 14.7444 9.1646 15.3144 9.0046 15.8844C8.9546 16.0744 8.59468 16.6844 8.33468 17.0444C8.12468 17.3244 7.76464 17.7344 7.66464 17.7544C7.41464 17.8144 7.0747 18.2844 6.7247 18.9944C6.5047 19.4344 6.26465 19.8644 6.05465 20.3044C5.39465 21.7144 4.7947 23.1144 4.1047 24.3744C3.9747 24.6044 3.73465 25.1744 3.67465 25.4944C3.13465 27.5744 2.37466 29.8844 2.18466 32.1144C2.13466 32.5244 2.11467 32.9644 2.07467 33.4044C2.04467 33.8544 1.99462 34.3044 2.02462 34.7344C2.04462 35.3644 1.99468 36.3744 1.95468 37.0344C1.75468 39.3644 2.04466 41.4944 2.43466 43.6444C2.57466 44.3344 2.7047 45.0444 2.8547 45.7444C3.2047 47.2944 3.63466 49.1444 4.18466 50.2544C5.04466 52.0344 5.66459 53.5244 6.36459 55.2344C6.49459 55.5844 6.65468 55.9144 6.83468 56.2144C7.00468 56.5144 7.19462 56.7844 7.39462 57.0144C7.71462 57.3944 7.98466 57.7344 8.18466 58.1044C8.39466 58.4644 8.5547 58.8245 8.7247 59.1744C8.9347 59.6245 9.15467 60.0344 9.44467 60.4444C9.74467 60.8444 10.0846 61.2644 10.5446 61.7544C10.8246 62.0444 11.1946 62.4444 11.5246 62.8244C11.8546 63.2044 12.1646 63.5344 12.2846 63.7244C12.4446 63.9744 12.6347 64.2344 12.8447 64.4744C13.0547 64.7144 13.2846 64.9544 13.5246 65.1844C13.9846 65.6644 14.5147 66.0944 14.9847 66.5444C15.1947 66.7544 15.5646 67.0044 15.7946 67.1344C16.1546 67.3444 16.4447 67.5444 16.6947 67.7644C16.9447 67.9744 17.1647 68.1744 17.3547 68.4044C17.4547 68.5144 17.5447 68.6444 17.6847 68.7544L18.0947 69.0644L18.5246 69.3544L19.3846 69.9344C19.9646 70.3144 20.5646 70.6644 21.1546 71.0244C21.4246 71.1744 21.7447 71.2544 22.0547 71.3944C22.6347 71.6744 23.4047 71.9444 23.8347 72.1844C25.5447 73.1144 27.2847 73.9444 29.4747 74.4444C29.5847 74.4644 29.6947 74.5144 29.8147 74.5444C31.6647 75.0544 33.6847 75.4644 35.4647 75.5544C37.5447 75.6644 39.2946 75.6744 41.1246 75.7244C41.5646 75.7244 41.9946 75.7144 42.3946 75.6744C42.8046 75.6344 43.1947 75.5444 43.5747 75.4444C44.3547 75.2444 45.0847 75.0844 45.8247 75.1244C45.9347 75.1244 46.1046 75.1244 46.3046 75.0944C46.4946 75.0644 46.7146 75.0244 46.8946 74.9844C47.2846 74.8944 47.6747 74.8144 48.0647 74.7244C48.4547 74.6244 48.8347 74.5044 49.2147 74.3844C49.4347 74.3144 49.6446 74.2444 49.8646 74.1744L50.4946 73.9344C50.9146 73.7644 51.3346 73.6144 51.7646 73.4344C52.3246 73.1844 53.0047 72.8944 53.4647 72.7344C54.1947 72.4744 54.8946 72.1844 55.5546 71.8044C55.8847 71.6244 56.2146 71.4444 56.5346 71.2544L57.4946 70.6744C58.1046 70.3244 58.7446 69.8444 59.1646 69.4844C59.4846 69.2144 59.7846 68.9444 60.1146 68.6944C60.4346 68.4344 60.7947 68.2144 61.1947 67.9544C61.8747 67.5044 62.3246 67.1344 62.6246 66.6644C62.7646 66.4644 63.1447 66.0544 63.4347 65.8044C63.9247 65.3744 64.3946 64.9344 64.8746 64.5044C65.3346 64.0544 65.7946 63.5944 66.2446 63.1444C66.7746 62.5744 66.9746 62.2744 67.1546 61.8744C67.2946 61.5444 67.7047 60.8545 68.0947 60.3144C68.4847 59.7244 69.0247 59.0744 69.4447 58.5044C70.7747 56.7644 71.8946 54.8444 72.6546 52.6544C72.7846 52.2844 72.9846 51.7144 73.1446 51.4344C73.4746 50.8444 73.6546 50.3044 73.8046 49.8044C73.9647 49.2944 74.0347 48.8044 74.0747 48.2944C74.1047 47.9844 74.1447 47.6544 74.2047 47.3244C74.2547 46.9844 74.3146 46.6344 74.3846 46.2744C74.5546 45.5544 74.7147 44.7844 74.9447 43.9944C75.0547 43.6544 75.1346 42.9244 75.1346 42.7044C75.1446 42.6444 75.1646 42.5844 75.1746 42.5144C75.2146 42.2044 76.0046 35.4844 76.0146 35.0444C76.0146 34.6044 76.0147 34.1244 75.9347 33.6044L75.8846 33.6144ZM49.6346 39.6544C49.6346 39.6544 49.6346 39.6944 49.6246 39.7144C49.6246 39.7844 49.6047 39.9944 49.5747 40.0944C49.5047 40.3244 49.4646 40.5544 49.4146 40.7744C49.3946 40.8844 49.3746 40.9844 49.3646 41.0844C49.3446 41.1844 49.3347 41.2844 49.3247 41.3744C49.3147 41.5244 49.2946 41.6744 49.2446 41.8244C49.2046 41.9744 49.1446 42.1344 49.0446 42.3044C49.0046 42.3844 48.9346 42.5544 48.9046 42.6644C48.6846 43.3144 48.3447 43.8844 47.9547 44.3944C47.8247 44.5644 47.6646 44.7544 47.5546 44.9344C47.4347 45.0944 47.3146 45.2944 47.2746 45.3944C47.2246 45.5144 47.1646 45.6045 47.0046 45.7744C46.8646 45.9044 46.7347 46.0444 46.5947 46.1744C46.4547 46.3044 46.3146 46.4344 46.1646 46.5644C46.0746 46.6344 45.9646 46.7644 45.9246 46.8144C45.8346 46.9544 45.7046 47.0644 45.5046 47.1944C45.3846 47.2744 45.2847 47.3344 45.1847 47.4144C45.0847 47.4844 45.0046 47.5644 44.9046 47.6444C44.7746 47.7544 44.5946 47.8944 44.4046 47.9944L44.1246 48.1644C44.0246 48.2144 43.9347 48.2744 43.8347 48.3244C43.6447 48.4344 43.4347 48.5244 43.2147 48.5944C43.0747 48.6444 42.8747 48.7244 42.7147 48.8044C42.5947 48.8544 42.4647 48.9044 42.3447 48.9544L42.1546 49.0244C42.0946 49.0444 42.0247 49.0644 41.9647 49.0844C41.8547 49.1144 41.7346 49.1544 41.6246 49.1844C41.5046 49.2144 41.3946 49.2344 41.2746 49.2644C41.2246 49.2744 41.1547 49.2844 41.1047 49.2944C41.0447 49.2944 40.9947 49.2944 40.9647 49.2944C40.7447 49.2844 40.5246 49.3344 40.2946 49.3944C40.1846 49.4244 40.0647 49.4544 39.9447 49.4644C39.8247 49.4744 39.6947 49.4844 39.5647 49.4844C39.0247 49.4644 38.5046 49.4644 37.8846 49.4344C37.3546 49.4044 36.7547 49.2844 36.2147 49.1344C36.1847 49.1344 36.1446 49.1144 36.1146 49.1044C35.4646 48.9544 34.9547 48.7144 34.4447 48.4344C34.3147 48.3644 34.0946 48.2844 33.9146 48.2044C33.8246 48.1644 33.7246 48.1344 33.6446 48.0944C33.4646 47.9844 33.2946 47.8844 33.1146 47.7744L32.8646 47.6044L32.7347 47.5144L32.6146 47.4244C32.6146 47.4244 32.5446 47.3544 32.5146 47.3244C32.4546 47.2544 32.3947 47.1944 32.3147 47.1344C32.2447 47.0744 32.1546 47.0144 32.0446 46.9444C31.9746 46.9044 31.8647 46.8344 31.8047 46.7644C31.6647 46.6344 31.5146 46.5044 31.3746 46.3644C31.3046 46.2944 31.2346 46.2244 31.1746 46.1544C31.1146 46.0844 31.0546 46.0044 31.0046 45.9344C30.9646 45.8744 30.8746 45.7744 30.7746 45.6644C30.6746 45.5544 30.5647 45.4344 30.4847 45.3444C30.3547 45.1944 30.2446 45.0744 30.1546 44.9544C30.0646 44.8344 30.0047 44.7144 29.9447 44.5844C29.8947 44.4844 29.8446 44.3744 29.7846 44.2644C29.7246 44.1544 29.6446 44.0544 29.5446 43.9444C29.4846 43.8744 29.4346 43.7944 29.3846 43.7044C29.3346 43.6144 29.2846 43.5244 29.2446 43.4144C29.0346 42.9044 28.8547 42.4644 28.6047 41.9344C28.4447 41.6044 28.3147 41.0544 28.2147 40.6044C28.1747 40.3944 28.1347 40.1844 28.0847 39.9844C27.9647 39.3444 27.8847 38.7144 27.9447 38.0244C27.9547 37.8244 27.9747 37.5244 27.9647 37.3444C27.9647 37.2144 27.9647 37.0844 27.9847 36.9544C27.9947 36.8244 28.0046 36.6944 28.0146 36.5744C28.0646 35.9144 28.2947 35.2344 28.4547 34.6144C28.4747 34.5244 28.5447 34.3544 28.5847 34.2844C28.7947 33.9144 28.9646 33.4944 29.1646 33.0744C29.2246 32.9444 29.2946 32.8144 29.3646 32.6844C29.4746 32.4744 29.5746 32.3344 29.6446 32.3144C29.6746 32.3144 29.7747 32.1844 29.8447 32.1044C29.9247 31.9944 30.0246 31.8144 30.0446 31.7644C30.0946 31.5944 30.2347 31.4244 30.4347 31.2044C30.8447 30.7444 31.2946 30.3144 31.7746 29.9244C31.9246 29.7944 32.1247 29.6244 32.2347 29.5044C32.3447 29.3844 32.5046 29.2644 32.6746 29.1344C32.8446 29.0244 33.0247 28.9244 33.1847 28.8544C33.2747 28.8144 33.3946 28.7744 33.4946 28.7144L33.6446 28.6244L33.8047 28.5444L34.1146 28.3844C34.2246 28.3344 34.3247 28.2844 34.4347 28.2344L34.5947 28.1644L34.7546 28.0944C35.0846 27.9444 35.3847 27.8544 35.6947 27.7944C36.0647 27.7244 36.4646 27.6744 36.9046 27.5644C37.0146 27.5344 37.1147 27.5144 37.2147 27.4944C37.3147 27.4744 37.4146 27.4644 37.5246 27.4544C37.7246 27.4244 37.9246 27.4244 38.1246 27.4144C38.3146 27.4044 38.5047 27.4144 38.6847 27.4144C38.8747 27.4144 39.0546 27.4344 39.2446 27.4444C39.3946 27.4444 39.5847 27.4744 39.7047 27.4744C40.3347 27.4644 41.0146 27.5944 41.6646 27.7544C41.8146 27.7944 41.9547 27.8144 42.1047 27.8344C42.2847 27.8744 42.4646 27.9144 42.6446 27.9644C42.7746 28.0044 42.9246 28.0644 43.0446 28.1044C43.5146 28.2544 43.9946 28.4244 44.5046 28.7544C44.5646 28.7944 44.6547 28.8444 44.7247 28.8744C45.3847 29.1944 46.0546 29.7044 46.6446 30.2744C46.7446 30.3644 46.8447 30.4844 46.9447 30.5844C47.0447 30.6944 47.1347 30.7944 47.2047 30.8944C47.5947 31.4244 47.9947 31.9144 48.3547 32.4544C48.5247 32.7144 48.6346 32.9044 48.6346 33.0344C48.6346 33.1244 48.7247 33.3144 48.8447 33.5144C48.8747 33.5644 48.8946 33.6044 48.9246 33.6544C49.1946 34.1244 49.4247 34.6144 49.5847 35.2344C49.6147 35.3444 49.6647 35.4644 49.6847 35.5844C49.7247 35.7544 49.7747 35.9244 49.8147 36.1044C49.8447 36.2744 49.8747 36.4444 49.8547 36.5944C49.8547 36.6444 49.8746 36.8644 49.8846 37.0144C49.9046 37.1644 49.9046 37.3144 49.9046 37.4444C49.9046 37.5744 49.6646 39.5644 49.6546 39.6544H49.6346Z" fill="#FEE706"/>
<path d="M41.1745 76.7144H41.0645C40.4545 76.6944 39.8744 76.6844 39.2844 76.6744C38.0444 76.6444 36.7745 76.6244 35.3545 76.5444C33.2445 76.4344 30.9945 75.9144 29.4845 75.4944C29.4345 75.4844 29.3544 75.4544 29.2744 75.4344C26.7944 74.8644 24.9344 73.9544 23.2844 73.0544C23.0644 72.9344 22.7645 72.8144 22.4545 72.6844C22.1445 72.5544 21.8245 72.4244 21.5445 72.2844C21.4545 72.2444 21.3345 72.1944 21.2245 72.1544C21.0145 72.0744 20.8044 71.9944 20.6144 71.8944L20.2544 71.6844C19.7544 71.3844 19.2444 71.0844 18.7544 70.7644L17.0044 69.5344C16.7944 69.3744 16.6545 69.2044 16.5645 69.0944C16.3845 68.8744 16.2145 68.7144 15.9645 68.5144C15.7445 68.3244 15.5045 68.1544 15.2045 67.9844C14.9245 67.8244 14.4745 67.5244 14.1845 67.2344C14.0145 67.0744 13.8344 66.9044 13.6444 66.7344C13.3244 66.4544 13.0145 66.1644 12.7145 65.8544C12.4845 65.6244 12.2344 65.3644 12.0144 65.1144C11.7444 64.8044 11.5244 64.4944 11.3644 64.2544C11.2744 64.1144 11.1045 63.9344 10.9145 63.7244L10.6745 63.4544C10.3545 63.0844 10.0045 62.7044 9.73452 62.4344C9.26452 61.9244 8.89447 61.4844 8.55447 61.0244C8.17447 60.4944 7.92452 60.0044 7.73452 59.5844L7.65444 59.4144C7.52444 59.1444 7.39452 58.8644 7.23452 58.5844C7.08452 58.3244 6.88446 58.0444 6.54446 57.6544C6.32446 57.3944 6.10442 57.0744 5.88442 56.7144C5.67442 56.3644 5.49451 55.9844 5.34451 55.5844C4.69451 53.9844 4.07449 52.4844 3.20449 50.6844C2.63449 49.5144 2.20447 47.7144 1.80447 45.9644C1.70447 45.4844 1.61443 45.0144 1.51443 44.5544L1.37441 43.8444C0.924413 41.3744 0.674423 39.2744 0.884423 36.9444C0.904423 36.5244 0.964481 35.4144 0.944481 34.7644C0.924481 34.3344 0.95452 33.8944 0.98452 33.4744L1.04446 32.7944C1.06446 32.5144 1.08441 32.2344 1.12441 31.9744C1.27441 30.1944 1.77442 28.3844 2.25442 26.6344C2.38442 26.1544 2.51442 25.6844 2.63442 25.2344C2.71442 24.8144 3.02445 24.1244 3.16445 23.8844C3.68445 22.9444 4.15443 21.9144 4.64443 20.8344L5.0845 19.8744C5.2245 19.5844 5.36442 19.3144 5.50442 19.0444L5.77444 18.5244C6.25444 17.5844 6.6544 17.0744 7.1144 16.8644C7.2044 16.7744 7.34451 16.6044 7.47451 16.4344C7.67451 16.1544 7.93452 15.7044 7.98452 15.5744C8.21452 14.8044 8.80441 14.1044 9.49441 13.3344C10.8544 11.8144 12.4144 10.3244 14.1244 8.90439L14.4145 8.64439C14.8345 8.27439 15.3045 7.85439 15.5545 7.57439C15.9345 7.16439 16.4345 6.74439 17.1945 6.19439C17.8545 5.75439 18.5244 5.38439 19.1144 5.13439C19.4044 5.02439 19.7845 4.87439 20.0745 4.70439L21.1544 4.12439L24.4145 2.57439C25.5745 2.06439 26.6544 1.71439 27.7744 1.49439C28.1444 1.43439 28.4945 1.37439 28.8545 1.31439C29.7945 1.16439 30.7645 1.00439 31.7945 0.74439C32.1645 0.65439 32.5344 0.56439 32.8944 0.49439C33.2944 0.43439 33.6544 0.38439 34.0044 0.34439C34.6444 0.26439 35.2844 0.23439 35.9044 0.21439H36.1144C36.6344 0.17439 37.1545 0.18439 37.6645 0.20439H38.0745C38.5145 0.21439 38.9745 0.24439 39.4245 0.28439L40.0044 0.32439C40.1944 0.32439 40.4345 0.35439 40.6645 0.36439C40.9645 0.38439 41.2645 0.42439 41.4745 0.40439C43.9045 0.33439 46.4245 0.894389 48.3545 1.37439C48.6845 1.46439 48.9945 1.51439 49.3145 1.56439L50.4044 1.78439C50.8244 1.88439 51.2345 1.97439 51.6745 2.09439C51.9245 2.17439 52.1544 2.25439 52.3844 2.33439C52.6144 2.41439 52.8445 2.50439 53.0445 2.55439C54.6745 3.06439 56.3944 3.65439 58.2444 4.88439C58.4044 4.97439 58.6744 5.13439 58.8744 5.22439C61.0344 6.26439 63.3645 7.95439 65.6045 10.1344C65.9645 10.4644 66.3245 10.8544 66.6645 11.2444C67.0545 11.6744 67.3644 12.0444 67.6144 12.4144C68.0944 13.0844 68.6044 13.7544 69.1144 14.4144C69.9144 15.4644 70.7345 16.5444 71.4845 17.6744C72.1245 18.6444 72.6145 19.4444 72.5845 20.2244C72.5945 20.2444 72.7244 20.6044 73.1344 21.2944L73.4245 21.7944C74.2345 23.2044 75.1544 24.9744 75.7644 27.3744C75.8044 27.5444 75.8545 27.7044 75.9145 27.8644C75.9945 28.1044 76.0744 28.3544 76.1244 28.6044C76.1844 28.8844 76.2645 29.1644 76.3345 29.4444C76.4145 29.7444 76.5045 30.0444 76.5645 30.3444C76.6845 30.9344 76.7945 31.6644 76.7045 32.3444C76.7045 32.4044 76.7545 32.9144 76.8245 33.4844C76.8945 33.9744 76.9144 34.4744 76.9044 35.0644C76.9044 35.6044 76.0645 42.5944 76.0545 42.6544L76.0244 42.8144C76.0144 43.1944 75.9245 43.9044 75.7945 44.3044C75.6445 44.8444 75.5144 45.3944 75.3944 45.9244L75.2544 46.5144C75.1844 46.8344 75.1345 47.1544 75.0845 47.4744C75.0245 47.8144 74.9845 48.1144 74.9645 48.3944C74.9145 49.0444 74.8144 49.5844 74.6544 50.1144C74.5044 50.6344 74.2844 51.2644 73.9044 51.9444C73.8644 52.0244 73.7444 52.2844 73.4944 53.0044C72.7644 55.1144 71.6644 57.1244 70.1344 59.1244C69.9944 59.3144 69.8245 59.5344 69.6645 59.7444C69.3745 60.1244 69.0645 60.5144 68.8245 60.8744C68.4145 61.4444 68.0645 62.0544 67.9645 62.2744C67.7345 62.8144 67.4544 63.2044 66.8744 63.8344L65.4745 65.2244C65.2345 65.4344 65.0345 65.6244 64.8445 65.8044C64.5645 66.0644 64.2844 66.3244 63.9944 66.5744C63.7344 66.7944 63.4245 67.1444 63.3545 67.2444C62.9245 67.9044 62.2744 68.3844 61.6444 68.8044L61.4445 68.9344C61.1545 69.1244 60.8844 69.2944 60.6344 69.4944C60.4344 69.6544 60.2445 69.8144 60.0545 69.9744L59.7045 70.2744C59.4245 70.5044 58.6844 71.1144 57.8844 71.5644L55.9345 72.6944C55.1845 73.1244 54.3845 73.4344 53.7045 73.6844C53.2745 73.8344 52.6345 74.1044 52.0645 74.3544C51.7845 74.4744 51.5244 74.5744 51.2644 74.6744L49.4245 75.3444C49.0245 75.4644 48.6245 75.5944 48.2245 75.6944L47.0144 75.9644C46.8044 76.0144 46.5744 76.0544 46.3644 76.0844C46.0544 76.1144 45.8245 76.1344 45.6745 76.1244C45.0845 76.0944 44.4645 76.2344 43.7145 76.4144C43.3345 76.5144 42.8744 76.6244 42.3844 76.6744C41.9744 76.7144 41.5544 76.7244 41.1144 76.7244L41.1745 76.7144ZM8.06448 18.6544C7.99448 18.7344 7.83451 18.9544 7.59451 19.4244L7.31448 19.9644C7.18448 20.2144 7.05446 20.4744 6.92446 20.7244L6.50442 21.6544C5.99442 22.7744 5.51449 23.8344 4.95449 24.8444C4.85449 25.0244 4.66441 25.5044 4.62441 25.6744C4.49441 26.1944 4.35451 26.6744 4.22451 27.1644C3.76451 28.8244 3.29444 30.5444 3.15444 32.1744C3.12444 32.4444 3.1045 32.6944 3.0845 32.9344C3.0745 33.1144 3.05445 33.2944 3.03445 33.4744V33.6144C2.99445 33.9944 2.96452 34.3444 2.98452 34.6644C3.00452 35.3944 2.95445 36.4944 2.91445 37.0844C2.72445 39.2144 2.96441 41.1744 3.37441 43.4544L3.51443 44.1544C3.60443 44.6144 3.69446 45.0644 3.79446 45.5244C4.06446 46.7244 4.52446 48.7344 5.04446 49.7944C5.93446 51.6444 6.57441 53.1744 7.24441 54.8444C7.36441 55.1544 7.49443 55.4344 7.64443 55.6844C7.80443 55.9544 7.95452 56.1744 8.10452 56.3444C8.40452 56.6944 8.74443 57.1144 9.01443 57.5944C9.19443 57.9144 9.35442 58.2344 9.50442 58.5544L9.5845 58.7244C9.8045 59.2044 9.9945 59.5344 10.2145 59.8344C10.5045 60.2244 10.8345 60.6144 11.2345 61.0544C11.5045 61.3344 11.8945 61.7444 12.2345 62.1444L12.4545 62.3944C12.7345 62.7044 12.9545 62.9544 13.0945 63.1744C13.2245 63.3644 13.3745 63.5844 13.5545 63.7944C13.7545 64.0144 13.9645 64.2344 14.1845 64.4644C14.4545 64.7544 14.7444 65.0044 15.0144 65.2544C15.2244 65.4444 15.4244 65.6244 15.6244 65.8144C15.7544 65.9444 16.0245 66.1444 16.2245 66.2544C16.6345 66.4944 16.9744 66.7344 17.2844 66.9944C17.6144 67.2644 17.8545 67.5044 18.0545 67.7444L18.1344 67.8344C18.1344 67.8344 18.2145 67.9344 18.2345 67.9444L19.8844 69.1044C20.3344 69.3944 20.8145 69.6844 21.2945 69.9644L21.6144 70.1544C21.6944 70.1944 21.8145 70.2344 21.9445 70.2844C22.0945 70.3444 22.2545 70.4044 22.4145 70.4744C22.6745 70.6044 22.9545 70.7144 23.2345 70.8244C23.6145 70.9844 23.9744 71.1344 24.2744 71.2944C25.7844 72.1244 27.4944 72.9644 29.6444 73.4544C29.7244 73.4744 29.8144 73.4944 29.9044 73.5244L30.0044 73.5544C32.0544 74.1244 33.9345 74.4644 35.4645 74.5344C36.8645 74.6044 38.1145 74.6344 39.3345 74.6644C39.9245 74.6744 40.5045 74.6944 41.1045 74.7044C41.4945 74.7244 41.8844 74.6944 42.2544 74.6544C42.6044 74.6244 42.9644 74.5344 43.2744 74.4544C44.1644 74.2344 44.9845 74.0544 45.8345 74.1044C45.9045 74.1044 46.0244 74.1044 46.1544 74.0844C46.2744 74.0644 46.4744 74.0244 46.6344 73.9944L47.8045 73.7344C48.1445 73.6444 48.5144 73.5244 48.8744 73.4144L50.6045 72.7844C50.8545 72.6944 51.0945 72.5944 51.3445 72.4944C51.9345 72.2344 52.6145 71.9344 53.1045 71.7744C53.6845 71.5644 54.3844 71.2944 55.0144 70.9344L56.9345 69.8144C57.4145 69.5444 57.9845 69.1344 58.4845 68.7144L58.8245 68.4244C59.0345 68.2444 59.2445 68.0644 59.4645 67.8944C59.7445 67.6644 60.0645 67.4544 60.4145 67.2344L60.6045 67.1144C61.2245 66.7044 61.5544 66.4244 61.7444 66.1144C61.9444 65.8144 62.4044 65.3344 62.7444 65.0344C63.0044 64.8044 63.2745 64.5544 63.5445 64.3144C63.7545 64.1244 63.9545 63.9344 64.1645 63.7544L65.5044 62.4344C65.9444 61.9544 66.0745 61.7544 66.1945 61.4744C66.3745 61.0544 66.8244 60.2944 67.2444 59.7244C67.4844 59.3544 67.8144 58.9244 68.1444 58.5044C68.3044 58.3044 68.4645 58.0944 68.6045 57.9044C70.0145 56.0644 71.0145 54.2344 71.6745 52.3244C71.9045 51.6544 72.0845 51.2144 72.2245 50.9544C72.5145 50.4344 72.6745 49.9544 72.8045 49.5144C72.9245 49.1244 72.9944 48.7244 73.0344 48.2244C73.0644 47.8744 73.1145 47.5144 73.1745 47.1444C73.2145 46.8244 73.2844 46.4444 73.3644 46.0644L73.5044 45.4644C73.6344 44.9044 73.7645 44.3144 73.9345 43.7144C74.0145 43.4744 74.0845 42.8744 74.0845 42.7144L74.1444 42.3244C74.1844 42.0244 74.9445 35.5444 74.9645 35.0244C74.9645 34.5444 74.9544 34.1344 74.8944 33.7444C74.7344 32.4244 74.7644 32.1644 74.7744 32.0744C74.8344 31.6744 74.7345 31.1344 74.6645 30.7544C74.6045 30.5144 74.5345 30.2444 74.4645 29.9744C74.3745 29.6544 74.2945 29.3344 74.2245 29.0244C74.1845 28.8444 74.1245 28.6644 74.0645 28.4844C73.9945 28.2644 73.9244 28.0544 73.8744 27.8444C73.3244 25.6944 72.4944 24.0844 71.7444 22.7844L71.4845 22.3344C70.5945 20.8644 70.6244 20.3244 70.6344 20.1244C70.6144 19.9844 70.3544 19.5244 69.8644 18.7844C69.1444 17.7144 68.3745 16.7044 67.5645 15.6244C67.0545 14.9444 66.5344 14.2644 66.0244 13.5644C65.8044 13.2444 65.5145 12.9044 65.2245 12.5844C64.9145 12.2444 64.5944 11.8844 64.2844 11.5944C62.1744 9.55439 60.0244 7.97439 58.0344 7.02439C57.7844 6.89439 57.4545 6.71439 57.2245 6.57439C55.5545 5.46439 53.9944 4.92439 52.5244 4.47439C52.3144 4.41439 52.0344 4.31439 51.7544 4.21439C51.5544 4.14439 51.3545 4.07439 51.1745 4.01439C50.8045 3.91439 50.4044 3.82439 50.0144 3.73439L49.0445 3.53439C48.6745 3.47439 48.3045 3.40439 47.9245 3.30439C46.1245 2.85439 43.7845 2.33439 41.5845 2.39439C41.3045 2.39439 40.9445 2.37439 40.5745 2.34439C40.3645 2.32439 40.1545 2.31439 39.9645 2.30439L39.3445 2.26439C38.9345 2.23439 38.5244 2.20439 38.1144 2.20439H37.6745C37.2145 2.18439 36.7444 2.16439 36.2744 2.20439H36.0344C35.4344 2.23439 34.8745 2.25439 34.3145 2.32439C33.9645 2.36439 33.6345 2.40439 33.3045 2.45439C33.0245 2.51439 32.6845 2.58439 32.3445 2.67439C31.2345 2.95439 30.2144 3.11439 29.2444 3.27439C28.8944 3.33439 28.5445 3.38439 28.2045 3.44439C27.2445 3.63439 26.3144 3.93439 25.2744 4.39439L23.1444 5.36439L21.1244 6.43439C20.7144 6.67439 20.2445 6.85439 19.9245 6.98439C19.4945 7.17439 18.9244 7.48439 18.4044 7.83439C18.0344 8.10439 17.4645 8.53439 17.1045 8.91439C16.7845 9.27439 16.2845 9.70439 15.8045 10.1344L15.4944 10.4144C13.8344 11.7844 12.3445 13.2044 11.0545 14.6544C10.5645 15.2044 10.0845 15.7644 9.9645 16.1644C9.8545 16.5844 9.29443 17.4244 9.14443 17.6244C8.61443 18.3244 8.2945 18.5644 8.0845 18.6644L8.06448 18.6544ZM7.42446 16.7644C7.37446 16.7644 7.32445 16.7844 7.28445 16.8044C7.33445 16.7844 7.38446 16.7744 7.42446 16.7644ZM39.5845 50.4844H38.9745C38.6045 50.4644 38.2345 50.4544 37.8245 50.4344C37.1245 50.3944 36.4045 50.2344 35.9345 50.0944C35.0845 49.8944 34.4545 49.5844 33.9545 49.3144C33.9045 49.2844 33.8444 49.2644 33.7844 49.2444C33.6744 49.2044 33.5645 49.1544 33.4645 49.1044C33.3445 49.0644 33.2545 49.0244 33.1645 48.9744L33.0144 48.8844C32.8644 48.7944 32.7145 48.7044 32.5645 48.6044L32.0044 48.2144C31.8844 48.1244 31.7944 48.0244 31.7644 47.9744C31.7244 47.9344 31.7045 47.9144 31.6745 47.8944C31.6345 47.8544 31.5945 47.8344 31.5545 47.8144C31.4345 47.7544 31.2545 47.6244 31.1045 47.4844L30.9745 47.3644C30.8645 47.2644 30.7544 47.1644 30.6544 47.0644C30.5844 46.9944 30.5045 46.9144 30.4345 46.8344C30.3245 46.7144 30.2445 46.6044 30.1745 46.4944L30.0244 46.3244C29.9444 46.2344 29.8544 46.1344 29.7844 46.0644C29.5944 45.8644 29.4744 45.7144 29.3644 45.5644C29.2344 45.3844 29.1345 45.2044 29.0445 45.0144C28.9945 44.9044 28.9545 44.8344 28.9245 44.7644C28.8945 44.7044 28.8445 44.6544 28.7945 44.5944C28.7045 44.4944 28.6144 44.3644 28.5344 44.2244C28.4544 44.0944 28.3845 43.9444 28.3245 43.7844C28.1345 43.3144 27.9545 42.8944 27.7145 42.3844C27.5145 41.9744 27.3744 41.3944 27.2444 40.8344L27.1144 40.1844C26.9844 39.4944 26.8845 38.7544 26.9545 37.9444C26.9545 37.8044 26.9745 37.5444 26.9745 37.3844C26.9745 37.2544 26.9744 37.0844 26.9944 36.9144V36.7344C27.0144 36.6344 27.0244 36.5444 27.0344 36.4544C27.0744 35.8944 27.2444 35.2944 27.3944 34.7744L27.5044 34.3744C27.5444 34.1744 27.6745 33.9044 27.7245 33.8144C27.8745 33.5444 28.0044 33.2544 28.1444 32.9544L28.4944 32.2444C28.6144 31.9944 28.7845 31.7144 29.0545 31.5344C29.0945 31.4844 29.1144 31.4444 29.1344 31.4144C29.2544 31.0744 29.4745 30.8144 29.7045 30.5544C30.1345 30.0744 30.6244 29.6044 31.1544 29.1644L31.2145 29.1144C31.3145 29.0244 31.4344 28.9244 31.5044 28.8444C31.6644 28.6744 31.8445 28.5144 32.1045 28.3344C32.3545 28.1644 32.5945 28.0344 32.8045 27.9444C32.8945 27.9044 32.9644 27.8844 33.0144 27.8544L34.3744 27.1844C34.7544 27.0144 35.1244 26.8944 35.5044 26.8244L35.8545 26.7644C36.1045 26.7244 36.3745 26.6844 36.6645 26.6044C36.7845 26.5744 36.9144 26.5444 37.0344 26.5244C37.1844 26.5044 37.2945 26.4844 37.4145 26.4744C37.6045 26.4444 37.8044 26.4444 38.0044 26.4344C38.2444 26.4244 38.4245 26.4344 38.5945 26.4344H38.7045C38.8445 26.4344 38.9944 26.4444 39.1544 26.4644L39.5244 26.4844C39.5844 26.4844 39.6445 26.4944 39.6845 26.4944C39.7145 26.4944 39.7645 26.4944 39.8045 26.4944C40.5645 26.4944 41.3245 26.6544 41.9145 26.8044C42.0045 26.8244 42.0744 26.8444 42.1544 26.8544L42.5144 26.9244C42.6444 26.9544 42.7745 26.9844 42.9145 27.0244C43.0245 27.0544 43.1045 27.0844 43.1845 27.1144C43.2345 27.1344 43.2845 27.1544 43.3245 27.1644C43.8545 27.3244 44.4345 27.5344 45.0645 27.9444C45.0645 27.9444 45.1345 27.9844 45.1745 28.0044C45.8745 28.3444 46.6345 28.8844 47.3445 29.5844C47.4545 29.6844 47.5745 29.8144 47.6945 29.9444C47.8245 30.0944 47.9444 30.2344 48.0344 30.3644C48.1644 30.5344 48.3045 30.7344 48.4545 30.9144C48.7045 31.2444 48.9545 31.5744 49.1845 31.9244C49.3945 32.2344 49.5744 32.5444 49.6244 32.8944C49.6444 32.9344 49.6645 32.9744 49.6945 33.0244L49.7444 33.1144C50.0344 33.6144 50.3445 34.2144 50.5445 35.0144L50.5745 35.1144C50.6045 35.2044 50.6344 35.3044 50.6544 35.3944C50.6744 35.4644 50.6945 35.5344 50.7145 35.6144C50.7445 35.7144 50.7645 35.8144 50.7945 35.9044C50.8345 36.1244 50.8745 36.3844 50.8545 36.6544C50.8545 36.7244 50.8744 36.8244 50.8844 36.9044C50.9144 37.0944 50.9145 37.2944 50.9145 37.4644C50.9145 37.6844 50.6644 39.7844 50.6544 39.7944V39.8344C50.6344 40.0044 50.6045 40.2344 50.5545 40.3844C50.5145 40.5244 50.4845 40.6744 50.4445 40.8144L50.4044 41.0044C50.3944 41.0644 50.3744 41.1444 50.3644 41.2144C50.3444 41.3244 50.3345 41.3944 50.3345 41.4544C50.3145 41.6844 50.2845 41.8944 50.2145 42.1044C50.1545 42.2944 50.0845 42.5244 49.9345 42.7844C49.9145 42.8244 49.8845 42.9244 49.8545 42.9944C49.6145 43.6844 49.2544 44.3444 48.7544 44.9944L48.6144 45.1744C48.5344 45.2744 48.4544 45.3744 48.3944 45.4744C48.3044 45.6044 48.2245 45.7244 48.1945 45.7844C48.0845 46.0444 47.9344 46.2244 47.7444 46.4344L46.8345 47.2944C46.8345 47.2944 46.7545 47.3744 46.7345 47.3944C46.5745 47.6444 46.3145 47.8444 46.0645 48.0144C45.9345 48.1044 45.8745 48.1444 45.8145 48.1844L45.5445 48.4044C45.4545 48.4844 45.1944 48.6944 44.9044 48.8544L44.3145 49.1944C44.0545 49.3444 43.7745 49.4544 43.5545 49.5344C43.4245 49.5744 43.2544 49.6544 43.1244 49.7144L42.2644 50.0344C42.1344 50.0744 42.0144 50.1144 41.8844 50.1444L41.4944 50.2344C41.4144 50.2544 41.3344 50.2644 41.2544 50.2744C41.0844 50.2944 40.9744 50.2944 40.9044 50.2944C40.8244 50.2944 40.6644 50.3344 40.5344 50.3644C40.3844 50.4044 40.2144 50.4444 40.0344 50.4544C39.9044 50.4644 39.7545 50.4744 39.6045 50.4744L39.5845 50.4844ZM33.2744 46.6644L33.6745 46.9444C33.7845 47.0144 33.9145 47.0944 34.0445 47.1744L34.1544 47.2444C34.1544 47.2444 34.2545 47.2744 34.3245 47.3044C34.4145 47.3444 34.4845 47.3744 34.5445 47.4044C34.6845 47.4644 34.8245 47.5244 34.9245 47.5744C35.3245 47.7944 35.7745 48.0144 36.3345 48.1444L36.4645 48.1844C37.0245 48.3444 37.5345 48.4344 37.9445 48.4544C38.3345 48.4744 38.6944 48.4844 39.0344 48.4944H39.5945C39.6645 48.5144 39.7545 48.5044 39.8445 48.4944C39.9145 48.4944 39.9744 48.4744 40.0344 48.4544C40.3544 48.3744 40.6544 48.3044 41.0144 48.3244L41.4044 48.2244C41.4544 48.2044 41.5645 48.1744 41.6645 48.1444L42.3245 47.8944C42.5145 47.8144 42.7444 47.7144 42.9044 47.6644C43.0444 47.6144 43.1945 47.5544 43.3445 47.4744L43.9044 47.1544C44.0544 47.0644 44.1844 46.9644 44.2744 46.8944L44.3744 46.8144C44.4444 46.7544 44.5145 46.6944 44.5945 46.6344C44.6845 46.5644 44.7945 46.4944 44.9145 46.4144C45.0844 46.2944 45.1244 46.2644 45.1244 46.2644C45.2344 46.1044 45.4145 45.9144 45.5445 45.8144L46.3145 45.0844C46.3145 45.0844 46.3544 45.0444 46.3744 45.0144C46.4544 44.8244 46.6244 44.5544 46.7544 44.3744C46.8144 44.2744 46.9244 44.1344 47.0344 43.9944L47.1544 43.8344C47.5244 43.3444 47.7945 42.8644 47.9645 42.3744C48.0245 42.2144 48.1145 41.9744 48.1745 41.8644C48.2245 41.7744 48.2545 41.6844 48.2945 41.5744C48.3145 41.5044 48.3245 41.4344 48.3345 41.3444C48.3445 41.2044 48.3644 41.0744 48.3844 40.9444C48.3844 40.8644 48.4145 40.7444 48.4445 40.6144L48.4845 40.4144C48.5245 40.2344 48.5644 40.0544 48.6244 39.8644C48.6244 39.8344 48.6344 39.7744 48.6444 39.7344L48.6645 39.5544C48.6945 39.3244 48.8944 37.6344 48.9044 37.4444C48.9044 37.3944 48.9044 37.2944 48.8944 37.1944C48.8344 36.7344 48.8444 36.6144 48.8644 36.5044C48.8644 36.5044 48.8645 36.4644 48.8345 36.3444L48.7844 36.1644C48.7544 36.0544 48.7245 35.9544 48.7045 35.8444C48.6445 35.6744 48.6245 35.5844 48.6045 35.5044C48.4645 34.9644 48.1645 34.4244 47.9745 34.0844C47.7745 33.7544 47.6644 33.4844 47.6344 33.2444C47.6044 33.1944 47.5644 33.1244 47.5144 33.0544C47.3044 32.7444 47.0845 32.4544 46.8545 32.1444C46.7045 31.9444 46.5444 31.7444 46.3944 31.5344C46.3344 31.4444 46.2645 31.3744 46.2045 31.2944C46.1345 31.2144 46.0545 31.1244 45.9745 31.0544C45.3945 30.4844 44.8145 30.0644 44.2945 29.8144C44.1945 29.7644 44.0744 29.7044 43.9944 29.6444C43.5544 29.3544 43.1544 29.2144 42.7644 29.0944C42.7044 29.0744 42.6044 29.0444 42.5044 29.0044L42.3644 28.9544C42.2844 28.9344 42.1745 28.9144 42.0645 28.8844L41.8245 28.8344C41.6945 28.8144 41.5545 28.7844 41.4145 28.7544C40.9345 28.6344 40.2745 28.4844 39.7345 28.5044C39.6345 28.5044 39.5044 28.5044 39.3644 28.4844L39.0044 28.4644C38.8944 28.4644 38.7845 28.4444 38.6845 28.4444H38.5445C38.4245 28.4444 38.3045 28.4344 38.1945 28.4444H38.0845C37.9445 28.4444 37.8045 28.4544 37.6645 28.4744L37.3844 28.5144C37.3844 28.5144 37.2545 28.5444 37.1645 28.5644C36.8245 28.6444 36.5045 28.7044 36.1945 28.7544L35.8944 28.8044C35.6744 28.8444 35.4445 28.9244 35.1845 29.0344L34.0144 29.6044C33.8644 29.6844 33.6945 29.7644 33.5645 29.8144C33.4945 29.8444 33.3644 29.9144 33.2544 29.9944C33.1744 30.0544 33.0644 30.1344 32.9944 30.2144C32.9044 30.3244 32.7145 30.4944 32.5445 30.6344L32.4645 30.7044C31.9845 31.1044 31.5645 31.4944 31.2045 31.9044C31.1245 31.9944 31.0444 32.0744 31.0044 32.1444C30.9644 32.3244 30.7545 32.6344 30.6845 32.7144C30.5745 32.8644 30.4545 33.0044 30.3045 33.1244C30.3045 33.1344 30.2944 33.1544 30.2844 33.1644L29.9745 33.7944C29.8145 34.1444 29.6644 34.4744 29.4944 34.7844C29.4944 34.7944 29.4745 34.8344 29.4645 34.8644L29.3445 35.3144C29.2145 35.7744 29.0845 36.2544 29.0545 36.6744L29.0144 37.0744C29.0144 37.1644 28.9944 37.2444 29.0044 37.3144C29.0044 37.5544 29.0045 37.8944 28.9845 38.1144C28.9345 38.6944 29.0044 39.2144 29.1144 39.8344L29.2345 40.4244C29.2945 40.7044 29.4345 41.2944 29.5445 41.5344C29.8145 42.0844 30.0045 42.5444 30.2145 43.0744C30.2445 43.1444 30.2644 43.1844 30.2844 43.2244C30.3044 43.2644 30.3245 43.2944 30.3445 43.3144C30.4945 43.4944 30.6045 43.6444 30.6945 43.8044C30.7545 43.9144 30.8044 44.0244 30.8644 44.1244C30.9244 44.2644 30.9644 44.3344 31.0144 44.3944C31.0744 44.4744 31.1544 44.5744 31.2644 44.6944C31.3344 44.7644 31.4645 44.9044 31.5745 45.0344C31.7445 45.2244 31.8444 45.3444 31.8944 45.4244C31.9044 45.4444 31.9345 45.4844 31.9645 45.5244C32.0045 45.5644 32.0644 45.6244 32.1244 45.6844C32.2044 45.7644 32.2745 45.8244 32.3445 45.8944L32.5344 46.0744C32.7544 46.2044 32.8844 46.3044 33.0044 46.4044C33.1144 46.4944 33.2145 46.5944 33.3045 46.7044L33.2744 46.6644ZM49.6045 33.0144C49.6045 33.0144 49.6045 33.0544 49.6045 33.0744C49.6045 33.0544 49.6045 33.0344 49.6045 33.0144Z" fill="#EEB61E"/>
<path d="M53.9806 36.4892C53.9598 36.2866 53.9286 35.9773 53.9286 35.9026C53.9598 35.7 53.9287 35.4654 53.8768 35.2201C53.825 34.9748 53.7419 34.7296 53.69 34.495C53.6589 34.3243 53.5863 34.1537 53.5448 33.9937C53.3269 33.1193 53.0053 32.4367 52.6422 31.7756C52.6007 31.7116 52.5696 31.6476 52.5281 31.5729C52.3621 31.2957 52.2376 31.0291 52.248 30.9011C52.248 30.7198 52.1027 30.4532 51.8745 30.0906C51.3869 29.3441 50.837 28.6616 50.3079 27.9044C50.2145 27.7658 50.0901 27.6165 49.9552 27.4672C49.8203 27.3179 49.6854 27.1579 49.5402 27.0299C48.731 26.2194 47.818 25.5049 46.9154 25.057C46.8324 25.0144 46.7078 24.9397 46.6248 24.8864C45.9297 24.4172 45.2866 24.1826 44.633 23.9693C44.467 23.9266 44.2595 23.8306 44.0831 23.7773C43.8341 23.7133 43.5852 23.66 43.3465 23.596C43.1494 23.5534 42.9522 23.532 42.7551 23.4787C41.8733 23.2548 40.9396 23.0628 40.0785 23.0841C39.9125 23.0841 39.6532 23.0521 39.4457 23.0521C39.1863 23.0415 38.9373 23.0095 38.678 23.0095C38.4186 23.0095 38.1696 22.9882 37.9102 23.0095C37.6301 23.0095 37.3603 23.0308 37.0906 23.0628C36.9557 23.0735 36.8105 23.0948 36.6756 23.1161C36.5407 23.1481 36.3954 23.1801 36.2502 23.2121C35.6588 23.3614 35.109 23.4361 34.6007 23.532C34.1753 23.6173 33.7707 23.756 33.3246 23.9586L33.1068 24.0546L32.8888 24.1612C32.7436 24.2252 32.5984 24.2999 32.4532 24.3638L32.0278 24.5878L31.8099 24.7051L31.6024 24.8224C31.4675 24.9077 31.3016 24.9717 31.1771 25.025C30.9592 25.121 30.7102 25.2597 30.482 25.4196C30.2537 25.5902 30.0359 25.7609 29.8803 25.9315C29.735 26.1021 29.4548 26.3367 29.2577 26.5287C28.6041 27.0832 27.9816 27.6805 27.4318 28.331C27.162 28.6402 26.9754 28.8855 26.9028 29.1201C26.882 29.1948 26.7368 29.4507 26.633 29.6C26.55 29.7173 26.4048 29.888 26.3633 29.8986C26.2595 29.92 26.1246 30.1226 25.9794 30.4105C25.886 30.5918 25.7926 30.7731 25.7097 30.9544C25.4399 31.5409 25.2013 32.1275 24.9212 32.65C24.8693 32.746 24.7759 32.9806 24.7448 33.1193C24.5269 33.9831 24.2157 34.9429 24.1431 35.8707C24.1223 36.0413 24.1119 36.2226 24.1015 36.4039C24.0912 36.5852 24.0704 36.7771 24.0808 36.9584C24.0808 37.225 24.0705 37.6409 24.0497 37.9182C23.9667 38.8887 24.0808 39.7738 24.2468 40.6696C24.2987 40.9575 24.3609 41.2561 24.4128 41.5441C24.5581 42.1839 24.7345 42.9624 24.9523 43.421C25.2947 44.1568 25.554 44.7754 25.8341 45.4899C25.886 45.6392 25.9482 45.7778 26.0208 45.8951C26.0934 46.0231 26.1662 46.1297 26.2492 46.2257C26.3736 46.3857 26.4877 46.5243 26.5707 46.6736C26.6537 46.8229 26.7159 46.9722 26.7885 47.1215C26.8715 47.3135 26.9649 47.4841 27.079 47.6441C27.2035 47.8147 27.3385 47.9853 27.5252 48.1879C27.6393 48.3053 27.7846 48.4759 27.9195 48.6358C28.0543 48.7958 28.1787 48.9344 28.2306 49.0091C28.2929 49.1157 28.3656 49.2224 28.459 49.3184C28.542 49.4143 28.6352 49.521 28.7286 49.617C28.9153 49.8196 29.1333 50.0009 29.32 50.1822C29.403 50.2675 29.5586 50.3741 29.6519 50.4274C29.7972 50.5128 29.9114 50.5981 30.0152 50.6834C30.1189 50.7687 30.2018 50.854 30.2848 50.95C30.3263 50.9927 30.3574 51.0566 30.4197 51.0993L30.5857 51.2273L30.7621 51.3446L31.1044 51.5899C31.343 51.7498 31.5817 51.8885 31.8203 52.0378C31.9345 52.1017 32.0589 52.1337 32.1834 52.1977C32.422 52.315 32.7229 52.4217 32.9096 52.5283C33.6047 52.9122 34.3102 53.2642 35.1921 53.4668C35.2336 53.4668 35.2855 53.4988 35.327 53.5094C36.0739 53.7227 36.8935 53.8934 37.6197 53.9253C38.4601 53.968 39.1655 53.968 39.9125 54C40.0889 54 40.2652 54 40.4312 53.9787C40.5972 53.968 40.7529 53.9253 40.9085 53.8827C41.2301 53.7974 41.5205 53.7334 41.8214 53.7441C41.8629 53.7441 41.9356 53.7441 42.0186 53.7334C42.1016 53.7227 42.1845 53.7014 42.2572 53.6907C42.4128 53.6587 42.5684 53.6161 42.7344 53.5841C42.89 53.5414 43.0457 53.4881 43.2013 53.4455C43.2947 53.4135 43.3777 53.3921 43.4607 53.3601L43.72 53.2535C43.886 53.1788 44.0624 53.1149 44.2284 53.0509C44.4566 52.9442 44.7264 52.8269 44.9131 52.7629C45.2036 52.6563 45.494 52.539 45.7534 52.379C45.8883 52.3044 46.0232 52.2297 46.1477 52.1551L46.5315 51.9098C46.7805 51.7712 47.0399 51.5685 47.2059 51.4192C47.3408 51.3126 47.4549 51.1953 47.5897 51.0886C47.7246 50.982 47.8699 50.886 48.0255 50.7794C48.2953 50.5981 48.4819 50.4381 48.6064 50.2462C48.6583 50.1608 48.814 49.9902 48.9385 49.8942C49.1356 49.7129 49.3223 49.5316 49.5194 49.3504C49.7062 49.1584 49.8929 48.9771 50.0797 48.7851C50.2976 48.5505 50.3702 48.4226 50.4428 48.2519C50.4946 48.1133 50.6606 47.8254 50.8266 47.6014C50.9822 47.3561 51.2001 47.0895 51.3765 46.8442C51.916 46.1191 52.3725 45.3192 52.6733 44.4128C52.7252 44.2528 52.8082 44.0182 52.8704 43.9116C53.0053 43.6663 53.0779 43.4423 53.1402 43.229C53.2024 43.0157 53.2335 42.8131 53.2439 42.5998C53.2543 42.4719 53.2751 42.3332 53.2958 42.1946C53.3165 42.056 53.3372 41.9067 53.3684 41.7574C53.441 41.4588 53.5033 41.1388 53.5967 40.8082C53.6382 40.6696 53.6693 40.3603 53.6693 40.275C53.6693 40.2537 53.6797 40.2217 53.6797 40.2004C53.7004 40.0724 54.0116 37.2783 54.022 37.097C54.022 36.9158 54.0221 36.7131 53.9909 36.4998L53.9806 36.4892ZM50.1419 39.7845C50.1419 39.7845 50.1419 39.8271 50.1315 39.8484C50.1315 39.9231 50.1108 40.147 50.0797 40.2537C50.0071 40.499 49.9655 40.7442 49.9137 40.9789C49.8929 41.0962 49.8721 41.2028 49.8617 41.3095C49.841 41.4161 49.8307 41.5227 49.8203 41.6187C49.8099 41.7787 49.7891 41.9387 49.7372 42.0986C49.6957 42.2586 49.6335 42.4292 49.5298 42.6105C49.4883 42.6958 49.4157 42.8771 49.3845 42.9944C49.1563 43.6876 48.8036 44.2955 48.399 44.8393C48.2641 45.0206 48.0981 45.2233 47.984 45.4152C47.8595 45.5858 47.735 45.7991 47.6935 45.9058C47.6416 46.0338 47.5793 46.1297 47.4133 46.311C47.2681 46.4497 47.1333 46.599 46.9881 46.7376C46.8428 46.8762 46.6975 47.0149 46.5419 47.1535C46.4485 47.2282 46.3344 47.3668 46.2929 47.4201C46.1995 47.5694 46.0646 47.6867 45.8571 47.8254C45.7326 47.9107 45.6289 47.9747 45.5252 48.06C45.4215 48.1346 45.3384 48.2199 45.2347 48.3053C45.0998 48.4226 44.9131 48.5719 44.7159 48.6785L44.4254 48.8598C44.3217 48.9131 44.2284 48.9771 44.1246 49.0304C43.9275 49.1477 43.7097 49.2437 43.4814 49.3184C43.3362 49.3717 43.1287 49.457 42.9627 49.5423C42.8382 49.5956 42.7033 49.649 42.5788 49.7023L42.3817 49.7769C42.3194 49.7983 42.2468 49.8196 42.1846 49.8409C42.0705 49.8729 41.9459 49.9156 41.8318 49.9476C41.7073 49.9796 41.5932 50.0009 41.4687 50.0329C41.4168 50.0435 41.3443 50.0542 41.2924 50.0649C41.2301 50.0649 41.1783 50.0649 41.1471 50.0649C40.9189 50.0542 40.6906 50.1075 40.452 50.1715C40.3379 50.2035 40.2134 50.2355 40.0889 50.2462C39.9644 50.2568 39.8295 50.2675 39.6947 50.2675C39.1344 50.2462 38.5949 50.2462 37.9517 50.2142C37.4018 50.1822 36.7794 50.0542 36.2192 49.8942C36.188 49.8942 36.1464 49.8729 36.1153 49.8622C35.441 49.7023 34.9119 49.4463 34.3828 49.1477C34.248 49.0731 34.0093 48.9878 33.833 48.9025C33.7396 48.8598 33.6358 48.8278 33.5528 48.7851C33.3661 48.6678 33.1897 48.5612 33.0029 48.4439L32.7436 48.2626L32.6088 48.1666L32.4842 48.0706C32.4842 48.0706 32.4116 47.996 32.3805 47.964C32.3182 47.8893 32.256 47.8254 32.173 47.7614C32.1004 47.6974 32.007 47.6334 31.8929 47.5587C31.8203 47.5161 31.7062 47.4414 31.6439 47.3668C31.4987 47.2282 31.343 47.0895 31.1978 46.9402C31.1251 46.8656 31.0526 46.7909 30.9903 46.7163C30.9281 46.6416 30.8658 46.5563 30.8139 46.4817C30.7724 46.4177 30.679 46.311 30.5753 46.1937C30.4716 46.0764 30.3575 45.9484 30.2745 45.8525C30.1397 45.6925 30.0254 45.5645 29.9321 45.4365C29.8387 45.3086 29.7765 45.1806 29.7142 45.042C29.6624 44.9353 29.6105 44.818 29.5482 44.7007C29.486 44.5834 29.403 44.4768 29.2992 44.3595C29.237 44.2848 29.1851 44.1995 29.1332 44.1035C29.0813 44.0075 29.0294 43.9116 28.9879 43.7942C28.7701 43.2504 28.5834 42.7811 28.3241 42.2159C28.1581 41.864 28.0232 41.2775 27.9195 40.7976C27.878 40.5736 27.8365 40.3497 27.7846 40.1364C27.6601 39.4539 27.5771 38.782 27.6393 38.0462C27.6497 37.8329 27.6705 37.513 27.6601 37.321C27.6601 37.1824 27.6601 37.0437 27.6809 36.9051C27.6912 36.7665 27.7015 36.6278 27.7119 36.4998C27.7638 35.796 28.0024 35.0708 28.1684 34.4096C28.1892 34.3137 28.2618 34.1324 28.3033 34.0577C28.5212 33.6631 28.6975 33.2152 28.905 32.7673C28.9672 32.6287 29.0398 32.4901 29.1124 32.3514C29.2266 32.1275 29.3303 31.9782 29.403 31.9568C29.4341 31.9568 29.5379 31.8182 29.6105 31.7329C29.6935 31.6156 29.7972 31.4236 29.818 31.3703C29.8698 31.189 30.0151 31.0077 30.2226 30.7731C30.648 30.2825 31.1148 29.824 31.6128 29.4081C31.7684 29.2694 31.976 29.0881 32.0901 28.9602C32.2042 28.8322 32.3701 28.7042 32.5465 28.5656C32.7229 28.4483 32.9096 28.3416 33.0756 28.267C33.169 28.2243 33.2934 28.1817 33.3972 28.1177L33.5528 28.0217L33.7188 27.9364L34.0404 27.7658C34.1545 27.7124 34.2583 27.6591 34.3725 27.6058L34.5385 27.5312L34.7044 27.4565C35.0468 27.2965 35.3581 27.2006 35.6797 27.1366C36.0635 27.0619 36.4785 27.0086 36.935 26.8913C37.0491 26.8593 37.1529 26.838 37.2566 26.8166C37.3604 26.7953 37.4641 26.7846 37.5782 26.774C37.7857 26.742 37.9931 26.742 38.2006 26.7313C38.3978 26.7207 38.5949 26.7313 38.7817 26.7313C38.9788 26.7313 39.1655 26.7527 39.3626 26.7633C39.5182 26.7633 39.7154 26.7953 39.8399 26.7953C40.4935 26.7846 41.2093 26.9233 41.8733 27.0939C42.0289 27.1366 42.1742 27.1579 42.3299 27.1792C42.5166 27.2219 42.7033 27.2645 42.89 27.3179C43.0249 27.3605 43.1805 27.4245 43.305 27.4672C43.7926 27.6271 44.2906 27.8084 44.8197 28.1603C44.8819 28.203 44.9754 28.2563 45.048 28.2883C45.7327 28.6296 46.4278 29.1735 47.0399 29.7813C47.1436 29.8773 47.2474 30.0053 47.3511 30.1119C47.4549 30.2292 47.5483 30.3359 47.6209 30.4425C48.0255 31.0077 48.4405 31.5303 48.814 32.1061C48.9904 32.3834 49.1044 32.586 49.1044 32.7247C49.1044 32.8207 49.1979 33.0233 49.3224 33.2366C49.3535 33.2899 49.3742 33.3325 49.4053 33.3859C49.6854 33.8871 49.9241 34.4096 50.0901 35.0708C50.1212 35.1881 50.173 35.3161 50.1938 35.4441C50.2353 35.6254 50.2872 35.8067 50.3287 35.9986C50.3598 36.1799 50.391 36.3612 50.3702 36.5212C50.3702 36.5745 50.3909 36.8091 50.4012 36.9691C50.422 37.129 50.422 37.289 50.422 37.4276C50.422 37.5663 50.173 39.6885 50.1626 39.7845H50.1419Z" fill="#F2CB15"/>
<path d="M43.8645 23.2544C43.9345 23.3344 44.1046 23.4144 44.3046 23.2844C44.3446 23.2544 44.3845 23.2144 44.4045 23.1744C44.4245 23.1444 44.4246 23.1444 44.4446 23.1244C44.4646 23.0944 44.4945 23.0644 44.5145 23.0344C44.5645 22.9744 44.6145 22.8944 44.6745 22.8144C44.7845 22.6444 44.9045 22.4444 45.0345 22.2444C45.2745 21.8344 45.5245 21.4044 45.6745 21.1444C45.8845 20.8144 46.0845 20.4944 46.2845 20.1944C46.3245 20.1244 46.3545 20.0544 46.3845 19.9844L46.6645 19.4144C47.0445 18.6544 47.4145 17.8944 47.7745 17.1544C47.9045 16.9044 48.0245 16.6444 48.1545 16.3944L48.5345 15.6244C48.6545 15.3844 48.7745 15.1544 48.8945 14.9144C49.0145 14.6744 49.1345 14.4344 49.2545 14.1944C49.3245 14.0444 49.4046 13.8944 49.4846 13.7544C49.7146 13.3044 49.9446 12.8544 50.1846 12.4044C50.3046 12.1744 50.4245 11.9444 50.5445 11.7144C50.8945 10.9744 51.2045 10.2944 51.5045 9.64439C51.6545 9.32439 51.8046 9.01439 51.9446 8.70439L52.0045 8.58439C52.0445 8.51439 52.0746 8.44439 52.0946 8.36439C52.1446 8.21439 52.1745 8.06439 52.1745 7.90439C52.1745 7.59439 52.0745 7.30439 51.8945 7.06439C51.8045 6.94439 51.6946 6.84439 51.5746 6.76439C51.4646 6.68439 51.2946 6.61439 51.2146 6.58439C51.0646 6.52439 50.9245 6.47439 50.7745 6.41439C50.4845 6.30439 50.1945 6.19439 49.9145 6.08439L49.4846 5.92439C49.4846 5.92439 49.2845 5.84439 49.1645 5.81439C49.0345 5.78439 48.9045 5.77439 48.7645 5.78439C48.2345 5.82439 47.7645 6.23439 47.6445 6.75439C47.5445 7.22439 47.4346 7.70439 47.3246 8.20439C47.2246 8.68439 47.1245 9.18439 47.0145 9.71439C46.9645 9.93439 46.9146 10.1644 46.8546 10.3844C46.6946 11.0444 46.5346 11.6944 46.3546 12.3144C46.2846 12.5744 46.2045 12.8344 46.1345 13.0844C45.9645 13.5644 45.7846 14.0644 45.5946 14.5844C44.7646 17.2144 44.3946 19.3444 43.9346 21.9844C43.9046 22.1644 43.8845 22.4144 43.8845 22.5244C43.8845 22.6644 43.8246 23.1644 43.8546 23.2344" fill="#FEF293"/>
<path d="M54.2844 45.0944C54.2044 45.1644 54.1145 45.3344 54.2245 45.5344C54.2545 45.5744 54.2844 45.6144 54.3244 45.6444C54.3544 45.6644 54.3544 45.6744 54.3644 45.6844C54.3944 45.7044 54.4144 45.7344 54.4444 45.7644C54.5044 45.8144 54.5744 45.8744 54.6544 45.9344C54.8144 46.0544 55.0044 46.1944 55.2044 46.3244C55.5944 46.5944 56.0044 46.8644 56.2544 47.0344C56.5744 47.2644 56.8744 47.4843 57.1644 47.7043C57.2344 47.7443 57.2944 47.7844 57.3644 47.8244L57.9144 48.1444C58.6444 48.5644 59.3745 48.9844 60.0845 49.3944C60.3245 49.5344 60.5744 49.6744 60.8144 49.8244L61.5544 50.2544C61.7844 50.3844 62.0144 50.5143 62.2444 50.6543C62.4744 50.7843 62.7044 50.9244 62.9344 51.0544C63.0744 51.1344 63.2144 51.2244 63.3644 51.3044C63.7944 51.5644 64.2244 51.8243 64.6644 52.0843C64.8844 52.2143 65.1044 52.3544 65.3244 52.4844C66.0344 52.8744 66.6944 53.2344 67.3144 53.5744C67.6244 53.7444 67.9245 53.9043 68.2145 54.0643L68.3244 54.1244C68.3944 54.1644 68.4644 54.2044 68.5344 54.2344C68.6744 54.2944 68.8245 54.3343 68.9845 54.3343C69.2845 54.3544 69.5844 54.2644 69.8244 54.0944C69.9444 54.0144 70.0544 53.9044 70.1444 53.7844C70.2244 53.6744 70.3045 53.5044 70.3345 53.4344C70.3945 53.2844 70.4644 53.1444 70.5244 53.0044C70.6444 52.7144 70.7744 52.4343 70.8944 52.1543L71.0744 51.7344C71.0744 51.7344 71.1644 51.5344 71.2044 51.4144C71.2444 51.2844 71.2644 51.1543 71.2544 51.0143C71.2544 50.4743 70.8745 49.9844 70.3545 49.8244C69.8945 49.6944 69.4244 49.5643 68.9444 49.4243C68.4744 49.2943 67.9845 49.1644 67.4745 49.0244C67.2545 48.9544 67.0344 48.8943 66.8244 48.8343C66.1744 48.6343 65.5544 48.4343 64.9444 48.2243C64.6944 48.1343 64.4444 48.0443 64.1944 47.9543C63.7244 47.7543 63.2444 47.5444 62.7444 47.3244C60.1844 46.3444 58.1044 45.8444 55.5244 45.2344C55.3544 45.1944 55.1044 45.1543 54.9944 45.1543C54.8544 45.1543 54.3644 45.0543 54.2944 45.0843" fill="#FEF293"/>
<path d="M42.0444 22.3244C42.0944 22.3744 42.2044 22.4044 42.2944 22.2344C42.3144 22.1944 42.3344 22.1444 42.3444 22.1044C42.3444 22.0744 42.3543 22.0744 42.3643 22.0544C42.3643 22.0244 42.3843 21.9844 42.3943 21.9444C42.4143 21.8644 42.4344 21.7844 42.4544 21.6844C42.4944 21.4944 42.5444 21.2644 42.5844 21.0344C42.6744 20.5744 42.7644 20.0844 42.8144 19.8044C42.8944 19.4244 42.9644 19.0644 43.0444 18.7144C43.0544 18.6344 43.0644 18.5644 43.0744 18.4844L43.1643 17.8544C43.2843 17.0144 43.4043 16.1844 43.5143 15.3744C43.5543 15.0944 43.5943 14.8144 43.6343 14.5344L43.7543 13.6844C43.7943 13.4244 43.8343 13.1644 43.8643 12.9044C43.9043 12.6444 43.9444 12.3744 43.9844 12.1144C44.0044 11.9544 44.0344 11.7844 44.0544 11.6244C44.1244 11.1344 44.2043 10.6344 44.2843 10.1244C44.3243 9.87438 44.3643 9.61438 44.4043 9.36438C44.5043 8.55438 44.6044 7.81438 44.6944 7.11438C44.7444 6.76438 44.7844 6.42438 44.8244 6.09438L44.8444 5.96438C44.8544 5.88438 44.8643 5.80438 44.8743 5.72438C44.8843 5.56438 44.8743 5.41438 44.8643 5.26438C44.8243 4.97438 44.7344 4.71438 44.5944 4.54438C44.5244 4.45438 44.4543 4.39438 44.3743 4.34438C44.3043 4.30438 44.1943 4.28438 44.1443 4.27438C44.0543 4.26438 43.9643 4.25438 43.8743 4.23438C43.6943 4.21438 43.5144 4.19438 43.3444 4.16438L43.0844 4.13438C43.0844 4.13438 42.9643 4.11438 42.8843 4.12438C42.8043 4.12438 42.7243 4.15438 42.6543 4.20438C42.3543 4.39438 42.1343 4.91438 42.1343 5.45438C42.1343 5.93438 42.1343 6.42438 42.1343 6.93438C42.1343 7.42438 42.1343 7.93438 42.1443 8.46438C42.1443 8.69438 42.1443 8.92438 42.1443 9.15438C42.1443 9.83438 42.1244 10.4944 42.1044 11.1444C42.1044 11.4144 42.0844 11.6844 42.0744 11.9444C42.0344 12.4544 41.9944 12.9844 41.9544 13.5344C41.8144 16.2944 41.8644 18.4344 41.9344 21.0944C41.9344 21.2744 41.9544 21.5144 41.9744 21.6244C41.9944 21.7644 42.0244 22.2544 42.0444 22.3144" fill="#FEF293"/>
<path d="M55.9745 36.2244C55.9345 36.2844 55.9244 36.3944 56.1244 36.4544C56.1644 36.4644 56.2144 36.4744 56.2644 36.4744C56.2944 36.4744 56.3045 36.4744 56.3245 36.4744C56.3545 36.4744 56.3945 36.4744 56.4345 36.4744C56.5145 36.4744 56.6045 36.4744 56.7045 36.4744C56.9045 36.4744 57.1244 36.4744 57.3644 36.4644C57.8344 36.4444 58.3145 36.4244 58.6045 36.4144C58.9845 36.4144 59.3545 36.4044 59.7045 36.4044C59.7845 36.4044 59.8545 36.3944 59.9345 36.3844L60.5645 36.3344C61.4045 36.2644 62.2245 36.2044 63.0345 36.1344C63.3145 36.1144 63.5944 36.0944 63.8744 36.0644L64.7145 35.9944C64.9745 35.9744 65.2344 35.9544 65.4944 35.9344C65.7544 35.9144 66.0245 35.8944 66.2845 35.8744C66.4445 35.8644 66.6145 35.8544 66.7745 35.8344C67.2645 35.8044 67.7645 35.7644 68.2745 35.7244C68.5245 35.7044 68.7845 35.6944 69.0345 35.6744C69.8345 35.5944 70.5745 35.5344 71.2745 35.4644C71.6245 35.4344 71.9645 35.4044 72.2945 35.3744H72.4245C72.5045 35.3544 72.5845 35.3444 72.6545 35.3344C72.8045 35.3144 72.9545 35.2744 73.0945 35.2244C73.3745 35.1244 73.5945 34.9744 73.7345 34.8044C73.8045 34.7244 73.8544 34.6344 73.8744 34.5444C73.9044 34.4644 73.8944 34.3544 73.8844 34.3044C73.8844 34.2144 73.8645 34.1244 73.8545 34.0344C73.8345 33.8544 73.8145 33.6744 73.8045 33.4944L73.7745 33.2244C73.7745 33.2244 73.7744 33.0944 73.7444 33.0244C73.7244 32.9444 73.6744 32.8744 73.6144 32.8144C73.3644 32.5644 72.8145 32.4644 72.2945 32.5844C71.8245 32.6944 71.3544 32.7944 70.8644 32.9144C70.3944 33.0244 69.9044 33.1444 69.3844 33.2644C69.1644 33.3144 68.9445 33.3644 68.7245 33.4144C68.0645 33.5544 67.4245 33.6944 66.7945 33.8144C66.5345 33.8644 66.2744 33.9144 66.0144 33.9644C65.5144 34.0344 64.9945 34.1144 64.4545 34.1944C61.7545 34.6644 59.7045 35.1844 57.1445 35.8444C56.9745 35.8844 56.7444 35.9544 56.6344 35.9944C56.5044 36.0444 56.0345 36.1744 55.9845 36.2144" fill="#FEF293"/>
<path d="M30.1843 52.8743C30.1843 52.8043 30.1343 52.7043 29.9443 52.7543C29.9043 52.7643 29.8643 52.7843 29.8143 52.8143C29.7843 52.8343 29.7843 52.8343 29.7643 52.8443C29.7343 52.8643 29.7043 52.8743 29.6643 52.8943C29.5943 52.9343 29.5243 52.9843 29.4343 53.0343C29.2643 53.1343 29.0743 53.2643 28.8843 53.3943C28.4943 53.6543 28.0943 53.9343 27.8543 54.0943C27.5343 54.3043 27.2243 54.5043 26.9243 54.6943C26.8643 54.7443 26.8044 54.7843 26.7344 54.8343L26.2243 55.2143C25.5543 55.7143 24.8844 56.2143 24.2344 56.7043C24.0044 56.8743 23.7843 57.0443 23.5543 57.2043L22.8742 57.7143C22.6642 57.8743 22.4542 58.0243 22.2442 58.1843C22.0342 58.3443 21.8143 58.5043 21.6043 58.6643C21.4743 58.7643 21.3443 58.8543 21.2043 58.9543C20.8043 59.2443 20.4042 59.5443 19.9942 59.8443C19.7842 59.9943 19.5842 60.1443 19.3742 60.2943C18.7342 60.7843 18.1443 61.2443 17.5843 61.6743C17.3043 61.8843 17.0343 62.0943 16.7743 62.2943L16.6743 62.3743C16.6143 62.4243 16.5442 62.4743 16.4942 62.5243C16.3742 62.6243 16.2743 62.7343 16.1843 62.8543C16.0043 63.0843 15.8942 63.3343 15.8642 63.5543C15.8442 63.6643 15.8643 63.7643 15.8843 63.8543C15.9043 63.9343 15.9642 64.0243 15.9942 64.0643C16.0542 64.1343 16.1043 64.2143 16.1643 64.2843C16.2743 64.4243 16.3842 64.5743 16.4942 64.7143L16.6543 64.9243C16.6543 64.9243 16.7243 65.0243 16.7843 65.0743C16.8443 65.1243 16.9143 65.1643 17.0043 65.1843C17.3443 65.2643 17.8643 65.0543 18.2543 64.6743C18.5943 64.3343 18.9343 63.9943 19.2943 63.6343C19.6343 63.2843 19.9942 62.9243 20.3642 62.5443C20.5242 62.3843 20.6943 62.2243 20.8543 62.0643C21.3343 61.5943 21.8143 61.1343 22.2843 60.6943C22.4843 60.5143 22.6742 60.3343 22.8742 60.1543C23.2642 59.8243 23.6643 59.4743 24.0743 59.1243C26.1143 57.2843 27.5843 55.7443 29.4143 53.8243C29.5343 53.6943 29.6943 53.5143 29.7643 53.4243C29.8443 53.3143 30.1743 52.9443 30.2043 52.8843" fill="#FEF293"/>
<path d="M38.9143 56.1143C38.8543 56.0643 38.7443 56.0443 38.6743 56.2343C38.6643 56.2743 38.6443 56.3243 38.6443 56.3743C38.6443 56.4043 38.6443 56.4143 38.6443 56.4343C38.6443 56.4643 38.6343 56.5043 38.6243 56.5443C38.6143 56.6243 38.6044 56.7143 38.5944 56.8143C38.5744 57.0143 38.5543 57.2443 38.5343 57.4743C38.5043 57.9443 38.4643 58.4343 38.4443 58.7243C38.4143 59.1043 38.3744 59.4743 38.3344 59.8343C38.3344 59.9143 38.3344 59.9943 38.3344 60.0743L38.3143 60.7143C38.2843 61.5643 38.2644 62.3943 38.2344 63.2143C38.2344 63.4943 38.2143 63.7843 38.2043 64.0643L38.1743 64.9143C38.1743 65.1743 38.1543 65.4443 38.1443 65.7043C38.1443 65.9743 38.1243 66.2343 38.1143 66.5043C38.1143 66.6643 38.1044 66.8343 38.0944 67.0043C38.0744 67.5043 38.0543 68.0043 38.0343 68.5143C38.0243 68.7743 38.0143 69.0243 38.0043 69.2843C37.9843 70.0943 37.9744 70.8543 37.9644 71.5543C37.9644 71.9043 37.9543 72.2543 37.9443 72.5843V72.7143C37.9443 72.7943 37.9443 72.8743 37.9443 72.9543C37.9443 73.1143 37.9743 73.2643 38.0043 73.4043C38.0743 73.6943 38.1944 73.9343 38.3444 74.0943C38.4144 74.1743 38.5044 74.2343 38.5844 74.2643C38.6644 74.2943 38.7643 74.3043 38.8143 74.3043C38.9043 74.3043 38.9944 74.3043 39.0844 74.3043C39.2644 74.3043 39.4443 74.3043 39.6243 74.3043H39.8843C39.8843 74.3043 40.0144 74.3143 40.0844 74.3043C40.1644 74.2843 40.2343 74.2543 40.3043 74.1943C40.5843 73.9743 40.7343 73.4343 40.6843 72.8943C40.6343 72.4143 40.5743 71.9343 40.5243 71.4243C40.4643 70.9343 40.4044 70.4343 40.3444 69.9043C40.3244 69.6743 40.2943 69.4443 40.2743 69.2243C40.2043 68.5443 40.1444 67.8843 40.0944 67.2343C40.0744 66.9643 40.0543 66.6943 40.0343 66.4343C40.0143 65.9243 39.9944 65.3943 39.9744 64.8343C39.8144 62.0743 39.5243 59.9543 39.1643 57.3143C39.1443 57.1343 39.0943 56.8943 39.0643 56.7843C39.0343 56.6543 38.9543 56.1643 38.9143 56.1043" fill="#FEF293"/>
<path d="M23.5846 33.2044C23.6446 33.1644 23.6845 33.0544 23.5145 32.9444C23.4745 32.9244 23.4345 32.9044 23.3845 32.8844C23.3545 32.8744 23.3546 32.8744 23.3346 32.8644C23.3046 32.8544 23.2746 32.8344 23.2346 32.8244C23.1646 32.7944 23.0746 32.7644 22.9846 32.7344C22.7946 32.6744 22.5846 32.6044 22.3546 32.5344C21.9046 32.4044 21.4446 32.2644 21.1646 32.1844C20.8046 32.0744 20.4545 31.9544 20.1145 31.8444C20.0345 31.8244 19.9645 31.8044 19.8845 31.7844L19.2745 31.6344C18.4545 31.4344 17.6545 31.2344 16.8645 31.0344C16.5945 30.9644 16.3246 30.8944 16.0446 30.8244L15.2246 30.6144C14.9746 30.5544 14.7146 30.4844 14.4646 30.4244C14.2046 30.3644 13.9546 30.2944 13.6946 30.2344C13.5346 30.1944 13.3746 30.1544 13.2146 30.1144C12.7346 29.9944 12.2545 29.8644 11.7645 29.7344C11.5245 29.6744 11.2745 29.6044 11.0245 29.5444C10.2345 29.3644 9.51459 29.1844 8.83459 29.0244C8.49459 28.9444 8.1646 28.8644 7.8446 28.7944L7.72461 28.7644C7.64461 28.7444 7.57451 28.7244 7.49451 28.7144C7.34451 28.6844 7.18456 28.6744 7.04456 28.6844C6.75456 28.6844 6.49457 28.7644 6.30457 28.8844C6.21457 28.9444 6.13459 29.0144 6.08459 29.0844C6.03459 29.1544 6.00451 29.2544 5.99451 29.3044C5.97451 29.3944 5.95457 29.4844 5.93457 29.5744C5.89457 29.7544 5.85458 29.9244 5.81458 30.1044L5.75452 30.3644C5.75452 30.3644 5.72461 30.4844 5.72461 30.5644C5.72461 30.6444 5.74455 30.7244 5.78455 30.8044C5.93455 31.1244 6.4346 31.3944 6.9646 31.4444C7.4346 31.4944 7.92456 31.5444 8.42456 31.5944C8.90456 31.6344 9.41457 31.6844 9.93457 31.7344C10.1646 31.7544 10.3845 31.7844 10.6145 31.8044C11.2845 31.8744 11.9346 31.9544 12.5746 32.0444C12.8446 32.0844 13.1045 32.1144 13.3645 32.1544C13.8645 32.2444 14.3846 32.3344 14.9246 32.4344C17.6246 32.8544 19.7445 33.0044 22.3745 33.2044C22.5545 33.2144 22.7945 33.2244 22.9045 33.2244C23.0445 33.2244 23.5346 33.2444 23.5946 33.2244" fill="#FEF293"/>
<path d="M49.8843 26.2244C49.9143 26.3244 50.0343 26.4744 50.2643 26.4444C50.3143 26.4444 50.3643 26.4144 50.4043 26.3944C50.4343 26.3744 50.4343 26.3744 50.4543 26.3744C50.4843 26.3544 50.5243 26.3444 50.5543 26.3244C50.6243 26.2844 50.7043 26.2444 50.7943 26.1944C50.9643 26.0944 51.1644 25.9644 51.3544 25.8344C51.7444 25.5644 52.1543 25.2844 52.3943 25.1144C52.7243 24.9044 53.0344 24.7044 53.3444 24.5144C53.4044 24.4644 53.4643 24.4144 53.5243 24.3644L54.0243 23.9644C54.6843 23.4344 55.3344 22.9144 55.9844 22.3944C56.2044 22.2144 56.4243 22.0444 56.6543 21.8644L57.3243 21.3344C57.5343 21.1744 57.7343 21.0044 57.9443 20.8444C58.1543 20.6744 58.3643 20.5144 58.5743 20.3444C58.7043 20.2444 58.8344 20.1444 58.9644 20.0344C59.3544 19.7244 59.7543 19.4244 60.1643 19.1044C60.3643 18.9444 60.5743 18.7944 60.7743 18.6344C61.3943 18.1144 61.9743 17.6344 62.5143 17.1744C62.7843 16.9444 63.0443 16.7244 63.3043 16.5144L63.4043 16.4344C63.4643 16.3844 63.5244 16.3344 63.5844 16.2744C63.6944 16.1644 63.7844 16.0344 63.8444 15.8944C63.9744 15.6144 64.0043 15.3044 63.9443 15.0144C63.9143 14.8644 63.8543 14.7344 63.7843 14.6044C63.7143 14.4844 63.5943 14.3444 63.5343 14.2944C63.4243 14.1844 63.3143 14.0644 63.2043 13.9544C62.9843 13.7344 62.7743 13.5144 62.5643 13.2944L62.2443 12.9644C62.2443 12.9644 62.1043 12.8044 61.9943 12.7244C61.8843 12.6444 61.7743 12.5744 61.6443 12.5244C61.1443 12.3244 60.5544 12.4944 60.2244 12.9244C59.9344 13.3044 59.6344 13.6944 59.3344 14.0944C59.0444 14.4944 58.7343 14.8944 58.4243 15.3244C58.2843 15.5044 58.1443 15.6844 58.0043 15.8644C57.5843 16.3944 57.1643 16.9144 56.7443 17.4044C56.5643 17.6044 56.3944 17.8144 56.2244 18.0144C55.8644 18.3744 55.4944 18.7544 55.1044 19.1444C53.2444 21.1744 52.0243 22.9344 50.4943 25.1344C50.3943 25.2844 50.2644 25.4944 50.2144 25.6044C50.1544 25.7344 49.8943 26.1544 49.8843 26.2344" fill="#FEF293"/>
<path d="M55.0245 42.4844C54.9645 42.5744 54.9146 42.7544 55.0846 42.9244C55.1246 42.9544 55.1646 42.9844 55.2146 43.0044C55.2446 43.0144 55.2445 43.0244 55.2645 43.0344C55.2945 43.0544 55.3245 43.0644 55.3645 43.0844C55.4345 43.1244 55.5245 43.1544 55.6145 43.1944C55.8045 43.2744 56.0145 43.3544 56.2445 43.4244C56.6945 43.5744 57.1646 43.7344 57.4446 43.8344C57.8046 43.9644 58.1645 44.1044 58.4945 44.2444C58.5745 44.2644 58.6446 44.2844 58.7246 44.3044L59.3346 44.4644C60.1546 44.6744 60.9545 44.8944 61.7545 45.0944C62.0245 45.1644 62.3046 45.2444 62.5746 45.3144L63.3945 45.5344C63.6445 45.6044 63.9045 45.6744 64.1545 45.7344C64.4145 45.8044 64.6645 45.8744 64.9245 45.9444C65.0845 45.9844 65.2445 46.0344 65.4045 46.0744C65.8845 46.2044 66.3645 46.3444 66.8645 46.4844C67.1145 46.5544 67.3546 46.6244 67.6046 46.6944C68.3946 46.8844 69.1246 47.0544 69.8046 47.2244C70.1446 47.3044 70.4746 47.3844 70.8046 47.4644L70.9346 47.4944C71.0146 47.5144 71.0845 47.5344 71.1645 47.5444C71.3145 47.5644 71.4745 47.5544 71.6245 47.5244C71.9245 47.4644 72.1845 47.2944 72.3745 47.0744C72.4745 46.9644 72.5446 46.8344 72.6046 46.6944C72.6546 46.5644 72.6946 46.3844 72.7046 46.3044C72.7246 46.1444 72.7545 45.9944 72.7745 45.8344C72.8245 45.5244 72.8645 45.2244 72.9145 44.9144L72.9846 44.4644C72.9846 44.4144 73.0245 44.2544 73.0245 44.1244C73.0245 43.9844 73.0146 43.8544 72.9746 43.7244C72.8346 43.2044 72.3346 42.8244 71.8046 42.8144C71.3246 42.8144 70.8446 42.8044 70.3346 42.7944C69.8446 42.7944 69.3446 42.7944 68.8146 42.7944C68.5846 42.7944 68.3545 42.7844 68.1345 42.7744C67.4545 42.7544 66.8045 42.7244 66.1545 42.6844C65.8845 42.6644 65.6246 42.6444 65.3546 42.6244C64.8546 42.5544 64.3345 42.4744 63.7845 42.4044C61.0645 42.1244 58.9245 42.1944 56.2745 42.2844C56.0945 42.2844 55.8546 42.3144 55.7346 42.3444C55.5946 42.3744 55.1045 42.4144 55.0345 42.4644" fill="#FEF293"/>
<path d="M24.3644 45.2543C24.3644 45.1543 24.3145 44.9643 24.0845 44.9043C24.0345 44.9043 23.9844 44.8943 23.9344 44.9043C23.9044 44.9043 23.8944 44.9043 23.8744 44.9043C23.8444 44.9043 23.8044 44.9043 23.7644 44.9043C23.6844 44.9043 23.5944 44.9243 23.4944 44.9443C23.2944 44.9743 23.0645 45.0243 22.8345 45.0743C22.3745 45.1743 21.8945 45.2843 21.6045 45.3543C21.2245 45.4343 20.8544 45.5043 20.4944 45.5543C20.4144 45.5743 20.3444 45.6043 20.2744 45.6243L19.6644 45.8143C18.8544 46.0643 18.0544 46.3043 17.2744 46.5443C17.0044 46.6243 16.7345 46.7043 16.4645 46.7843L15.6444 47.0343C15.3944 47.1143 15.1444 47.1843 14.8844 47.2643C14.6344 47.3443 14.3744 47.4143 14.1144 47.4943C13.9544 47.5443 13.7944 47.5843 13.6344 47.6343C13.1544 47.7743 12.6744 47.9043 12.1844 48.0443C11.9344 48.1143 11.6944 48.1843 11.4444 48.2543C10.6744 48.5043 9.96442 48.7443 9.29442 48.9543C8.96442 49.0643 8.63444 49.1743 8.31444 49.2743L8.19444 49.3143C8.11444 49.3343 8.04447 49.3643 7.97447 49.3943C7.83447 49.4543 7.70447 49.5443 7.59447 49.6443C7.37447 49.8543 7.22443 50.1343 7.18443 50.4243C7.16443 50.5743 7.16443 50.7243 7.18443 50.8643C7.20443 51.0043 7.27443 51.1743 7.30443 51.2443C7.36443 51.3943 7.42448 51.5343 7.48448 51.6843C7.60448 51.9743 7.72446 52.2543 7.83446 52.5443L8.01439 52.9643C8.01439 52.9643 8.0944 53.1643 8.1544 53.2743C8.2244 53.3943 8.3044 53.4943 8.4044 53.5843C8.7944 53.9543 9.41438 54.0143 9.87438 53.7443C10.2844 53.4943 10.7044 53.2443 11.1344 52.9843C11.5544 52.7243 11.9844 52.4643 12.4344 52.1843C12.6344 52.0643 12.8244 51.9543 13.0244 51.8443C13.6144 51.5043 14.1944 51.1843 14.7644 50.8843C15.0044 50.7643 15.2345 50.6343 15.4745 50.5143C15.9345 50.3143 16.4244 50.1043 16.9244 49.8843C19.3944 48.6943 21.1844 47.5043 23.4044 46.0443C23.5544 45.9443 23.7445 45.7943 23.8345 45.7143C23.9345 45.6143 24.3344 45.3243 24.3744 45.2443" fill="#FEF293"/>
<path d="M27.7844 27.4044C27.8744 27.3444 27.9844 27.1944 27.8944 26.9744C27.8744 26.9244 27.8444 26.8844 27.8044 26.8544C27.7844 26.8244 27.7844 26.8244 27.7644 26.8044C27.7444 26.7744 27.7144 26.7444 27.6944 26.7144C27.6444 26.6544 27.5744 26.5844 27.5044 26.5144C27.3644 26.3744 27.1944 26.2144 27.0144 26.0544C26.6544 25.7444 26.2844 25.4144 26.0644 25.2144C25.7744 24.9544 25.5043 24.6844 25.2443 24.4344C25.1843 24.3844 25.1244 24.3444 25.0544 24.2944L24.5444 23.9044C23.8744 23.3944 23.2044 22.8844 22.5544 22.3844C22.3344 22.2144 22.1044 22.0444 21.8844 21.8644L21.2044 21.3444C20.9944 21.1844 20.7844 21.0244 20.5744 20.8644C20.3644 20.7044 20.1544 20.5344 19.9344 20.3744C19.8044 20.2744 19.6744 20.1744 19.5444 20.0644C19.1544 19.7544 18.7544 19.4444 18.3544 19.1244C18.1544 18.9644 17.9543 18.8044 17.7443 18.6444C17.0843 18.1644 16.4844 17.7244 15.9144 17.3044C15.6244 17.0944 15.3544 16.8944 15.0844 16.6944L14.9845 16.6144C14.9245 16.5644 14.8544 16.5244 14.7844 16.4844C14.6544 16.4044 14.5044 16.3544 14.3544 16.3244C14.0544 16.2644 13.7445 16.3244 13.4845 16.4544C13.3545 16.5244 13.2344 16.6144 13.1344 16.7144C13.0344 16.8144 12.9344 16.9644 12.8944 17.0344C12.8144 17.1744 12.7344 17.3044 12.6544 17.4344C12.4944 17.7044 12.3344 17.9644 12.1744 18.2244L11.9444 18.6144C11.9444 18.6144 11.8244 18.7944 11.7744 18.9144C11.7244 19.0344 11.6844 19.1644 11.6744 19.3044C11.6144 19.8444 11.9244 20.3844 12.4144 20.5944C12.8544 20.7844 13.3044 20.9744 13.7644 21.1744C14.2144 21.3644 14.6844 21.5544 15.1744 21.7544C15.3844 21.8444 15.5944 21.9444 15.7944 22.0344C16.4144 22.3144 17.0044 22.5944 17.5844 22.8844C17.8244 23.0044 18.0644 23.1244 18.2944 23.2444C18.7344 23.5044 19.1844 23.7744 19.6544 24.0544C22.0644 25.3644 24.0644 26.1144 26.5544 27.0544C26.7244 27.1144 26.9544 27.1844 27.0744 27.2044C27.2144 27.2244 27.6844 27.3844 27.7644 27.3644" fill="#FEF293"/>
<path d="M45.1843 53.5444C45.0843 53.5444 44.9043 53.6344 44.8843 53.8744C44.8843 53.9244 44.8843 53.9744 44.9043 54.0244C44.9043 54.0544 44.9043 54.0644 44.9143 54.0844C44.9143 54.1144 44.9343 54.1544 44.9343 54.1944C44.9543 54.2744 44.9843 54.3644 45.0143 54.4644C45.0743 54.6544 45.1544 54.8744 45.2344 55.1044C45.4044 55.5544 45.5843 56.0144 45.6943 56.2944C45.8243 56.6644 45.9443 57.0244 46.0543 57.3744C46.0843 57.4444 46.1243 57.5144 46.1543 57.5844L46.4243 58.1644C46.7843 58.9344 47.1443 59.6944 47.4943 60.4444C47.6143 60.7044 47.7344 60.9644 47.8544 61.2144L48.2144 61.9944C48.3244 62.2344 48.4343 62.4744 48.5543 62.7144C48.6643 62.9544 48.7843 63.2044 48.8943 63.4444C48.9643 63.5944 49.0344 63.7444 49.1044 63.8944C49.3044 64.3544 49.5144 64.8144 49.7244 65.2844C49.8244 65.5244 49.9343 65.7544 50.0343 65.9944C50.3943 66.7244 50.7343 67.4044 51.0443 68.0344C51.2043 68.3544 51.3543 68.6644 51.5043 68.9644L51.5643 69.0844C51.5943 69.1544 51.6343 69.2244 51.6743 69.2944C51.7543 69.4244 51.8644 69.5444 51.9844 69.6344C52.2244 69.8244 52.5143 69.9244 52.8143 69.9244C52.9643 69.9244 53.1043 69.9044 53.2443 69.8544C53.3743 69.8144 53.5344 69.7244 53.6044 69.6744C53.7344 69.5944 53.8743 69.5144 54.0043 69.4344C54.2643 69.2744 54.5343 69.1144 54.7943 68.9544L55.1843 68.7144C55.1843 68.7144 55.3744 68.6044 55.4744 68.5244C55.5744 68.4444 55.6743 68.3444 55.7443 68.2244C56.0443 67.7844 56.0143 67.1544 55.6843 66.7344C55.3843 66.3644 55.0743 65.9844 54.7543 65.5844C54.4443 65.2044 54.1143 64.8144 53.7743 64.4044C53.6343 64.2244 53.4944 64.0444 53.3544 63.8644C52.9344 63.3244 52.5343 62.7944 52.1543 62.2744C51.9943 62.0544 51.8443 61.8344 51.6843 61.6244C51.4143 61.1944 51.1344 60.7344 50.8444 60.2644C49.3144 57.9744 47.8843 56.3744 46.1143 54.3744C45.9943 54.2444 45.8144 54.0644 45.7244 53.9944C45.6144 53.9044 45.2643 53.5544 45.1843 53.5344" fill="#FEF293"/>
<path d="M35.2044 22.6444C35.2944 22.6644 35.4644 22.6444 35.5544 22.4444C35.5744 22.4044 35.5744 22.3544 35.5744 22.3144C35.5744 22.2844 35.5744 22.2844 35.5744 22.2644C35.5744 22.2344 35.5745 22.1944 35.5845 22.1644C35.5845 22.0944 35.5845 22.0044 35.5845 21.9144C35.5845 21.7344 35.5844 21.5144 35.5744 21.2944C35.5544 20.8544 35.5244 20.4044 35.5144 20.1344C35.5144 19.7744 35.5044 19.4344 35.5144 19.1044C35.5144 19.0344 35.4945 18.9644 35.4845 18.8944L35.4144 18.3144C35.3244 17.5444 35.2244 16.7844 35.1344 16.0344C35.1044 15.7744 35.0744 15.5144 35.0444 15.2644L34.9544 14.4844C34.9244 14.2444 34.8944 14.0044 34.8644 13.7644C34.8344 13.5244 34.8044 13.2744 34.7744 13.0344C34.7544 12.8844 34.7445 12.7344 34.7245 12.5844C34.6745 12.1344 34.6244 11.6644 34.5744 11.2044C34.5544 10.9744 34.5244 10.7344 34.5044 10.4944C34.3944 9.75436 34.2944 9.07436 34.2044 8.43436C34.1544 8.11436 34.1144 7.80436 34.0744 7.50436L34.0544 7.38436C34.0544 7.31436 34.0344 7.24436 34.0144 7.17436C33.9844 7.03436 33.9245 6.90436 33.8445 6.78436C33.6945 6.55436 33.4645 6.37436 33.2145 6.29436C33.0845 6.25436 32.9544 6.22436 32.8244 6.23436C32.6944 6.23436 32.5345 6.26436 32.4645 6.28436C32.3245 6.31436 32.1844 6.34436 32.0444 6.38436C31.7744 6.44436 31.4945 6.51436 31.2245 6.57436L30.8244 6.67436C30.8244 6.67436 30.6344 6.71436 30.5244 6.75436C30.4144 6.79436 30.3044 6.85436 30.2044 6.93436C29.8144 7.23436 29.6645 7.78436 29.8345 8.24436C29.9945 8.65436 30.1544 9.07436 30.3144 9.50436C30.4844 9.92436 30.6545 10.3544 30.8345 10.8044C30.9045 11.0044 30.9744 11.1944 31.0544 11.3944C31.2644 11.9744 31.4644 12.5544 31.6444 13.1144C31.7144 13.3444 31.7944 13.5844 31.8644 13.8144C31.9744 14.2644 32.0844 14.7444 32.2044 15.2244C32.8844 17.6444 33.6644 19.4444 34.6344 21.6844C34.7044 21.8344 34.8044 22.0344 34.8644 22.1244C34.9344 22.2344 35.1344 22.6444 35.1944 22.6844" fill="#FEF293"/>
<path d="M36.8444 55.3344C36.7644 55.2844 36.5944 55.2444 36.4444 55.4044C36.4144 55.4344 36.3944 55.4844 36.3744 55.5244C36.3644 55.5544 36.3545 55.5544 36.3545 55.5744C36.3445 55.6044 36.3244 55.6344 36.3144 55.6644C36.2844 55.7344 36.2544 55.8144 36.2244 55.8944C36.1644 56.0644 36.0944 56.2744 36.0244 56.4744C35.8944 56.8944 35.7644 57.3244 35.6844 57.5844C35.5744 57.9244 35.4644 58.2444 35.3444 58.5644C35.3244 58.6344 35.3144 58.7044 35.2944 58.7744L35.1644 59.3444C34.9944 60.1044 34.8244 60.8444 34.6544 61.5844C34.5944 61.8344 34.5344 62.0944 34.4744 62.3444L34.2944 63.1044C34.2444 63.3344 34.1844 63.5744 34.1344 63.8144C34.0744 64.0544 34.0244 64.2944 33.9644 64.5344C33.9244 64.6844 33.8945 64.8244 33.8545 64.9744C33.7445 65.4144 33.6344 65.8644 33.5244 66.3244C33.4644 66.5544 33.4145 66.7844 33.3545 67.0144C33.2045 67.7444 33.0644 68.4144 32.9344 69.0544C32.8644 69.3744 32.8043 69.6744 32.7443 69.9744L32.7244 70.0944C32.7044 70.1644 32.6944 70.2344 32.6844 70.3044C32.6744 70.4444 32.6844 70.5844 32.7144 70.7244C32.7744 70.9944 32.9344 71.2344 33.1444 71.4044C33.2444 71.4944 33.3643 71.5544 33.4943 71.6044C33.6143 71.6544 33.7745 71.6744 33.8545 71.6844C33.9945 71.7044 34.1344 71.7244 34.2744 71.7344C34.5544 71.7644 34.8345 71.8044 35.1045 71.8344L35.5144 71.8844C35.5144 71.8844 35.7044 71.9144 35.8244 71.9144C35.9444 71.9144 36.0644 71.8944 36.1844 71.8544C36.6444 71.7044 36.9744 71.2444 36.9744 70.7544C36.9744 70.3144 36.9544 69.8644 36.9444 69.4044C36.9344 68.9544 36.9144 68.4944 36.9044 68.0044C36.9044 67.7944 36.9044 67.5844 36.9044 67.3744C36.9044 66.7544 36.9144 66.1444 36.9344 65.5544C36.9444 65.3044 36.9544 65.0644 36.9644 64.8244C37.0144 64.3644 37.0644 63.8744 37.1244 63.3744C37.3044 60.8644 37.1844 58.9044 37.0344 56.4644C37.0244 56.3044 36.9944 56.0744 36.9644 55.9744C36.9344 55.8444 36.8844 55.3944 36.8344 55.3344" fill="#FEF293"/>
<path d="M29.1844 25.0744C29.2444 25.0644 29.3445 25.0044 29.3445 24.8544C29.3445 24.8244 29.3445 24.7944 29.3245 24.7644C29.3245 24.7444 29.3244 24.7444 29.3144 24.7244C29.3144 24.7044 29.3044 24.6844 29.2944 24.6544C29.2744 24.6044 29.2545 24.5544 29.2345 24.4944C29.1845 24.3844 29.1244 24.2544 29.0544 24.1144C28.9244 23.8544 28.7845 23.5744 28.7045 23.4144C28.6045 23.1944 28.5044 22.9844 28.4144 22.7744C28.3844 22.7344 28.3645 22.6944 28.3445 22.6444L28.1444 22.3044C27.8744 21.8544 27.6145 21.4044 27.3545 20.9744C27.2645 20.8244 27.1745 20.6744 27.0845 20.5244L26.8144 20.0644C26.7344 19.9244 26.6444 19.7844 26.5644 19.6444C26.4844 19.5044 26.3944 19.3644 26.3144 19.2144C26.2644 19.1244 26.2144 19.0344 26.1644 18.9444C26.0144 18.6744 25.8545 18.4044 25.6945 18.1344C25.6145 17.9944 25.5345 17.8544 25.4545 17.7144C25.1845 17.2844 24.9445 16.8944 24.7145 16.5244C24.5945 16.3344 24.4844 16.1544 24.3744 15.9844L24.3345 15.9144C24.3345 15.9144 24.2844 15.8344 24.2544 15.7944C24.1944 15.7144 24.1244 15.6544 24.0444 15.6044C23.8844 15.5044 23.7044 15.4544 23.5144 15.4744C23.4244 15.4744 23.3344 15.5044 23.2544 15.5444C23.1744 15.5744 23.0844 15.6444 23.0444 15.6744C22.9644 15.7344 22.8944 15.7944 22.8144 15.8444C22.6644 15.9644 22.5144 16.0744 22.3644 16.1844L22.1444 16.3544C22.1444 16.3544 22.0345 16.4344 21.9845 16.4844C21.9245 16.5444 21.8745 16.6044 21.8345 16.6844C21.6745 16.9744 21.7345 17.3544 21.9645 17.5944C22.1745 17.8044 22.3845 18.0144 22.6045 18.2444C22.8245 18.4544 23.0444 18.6744 23.2744 18.9044C23.3744 19.0044 23.4744 19.1044 23.5644 19.2044C23.8544 19.5044 24.1344 19.8044 24.3944 20.1044C24.5044 20.2344 24.6145 20.3544 24.7245 20.4744C24.9145 20.7244 25.1144 20.9844 25.3144 21.2544C26.3944 22.5644 27.3645 23.4644 28.5745 24.5744C28.6545 24.6544 28.7745 24.7444 28.8345 24.7844C28.9045 24.8344 29.1445 25.0244 29.1945 25.0344" fill="#FEF293"/>
<path d="M23.1141 42.8044C23.1441 42.7444 23.1542 42.6244 23.0442 42.5444C23.0142 42.5244 22.9942 42.5144 22.9642 42.5044C22.9442 42.5044 22.9442 42.5044 22.9342 42.4944C22.9142 42.4944 22.8941 42.4844 22.8641 42.4744C22.8141 42.4544 22.7642 42.4444 22.7042 42.4244C22.5842 42.3944 22.4442 42.3644 22.3042 42.3344C22.0142 42.2844 21.7142 42.2244 21.5342 42.1944C21.3042 42.1444 21.0742 42.0944 20.8542 42.0344C20.8042 42.0344 20.7642 42.0244 20.7142 42.0144L20.3242 41.9744C19.8042 41.9144 19.2942 41.8644 18.7942 41.8044C18.6242 41.7844 18.4442 41.7644 18.2742 41.7444L17.7542 41.6844C17.5942 41.6644 17.4342 41.6444 17.2742 41.6244C17.1142 41.6044 16.9442 41.5844 16.7842 41.5644C16.6842 41.5544 16.5843 41.5444 16.4843 41.5244C16.1843 41.4844 15.8742 41.4444 15.5642 41.4044C15.4042 41.3844 15.2542 41.3644 15.0942 41.3444C14.5942 41.3044 14.1342 41.2544 13.7042 41.2244C13.4842 41.2044 13.2742 41.1844 13.0742 41.1644H12.9941C12.9941 41.1644 12.8942 41.1444 12.8542 41.1544C12.7542 41.1544 12.6642 41.1744 12.5742 41.2044C12.3942 41.2644 12.2542 41.3944 12.1542 41.5444C12.1042 41.6244 12.0742 41.7044 12.0542 41.7944C12.0342 41.8744 12.0342 41.9944 12.0342 42.0444C12.0342 42.1444 12.0342 42.2444 12.0342 42.3344C12.0342 42.5244 12.0342 42.7144 12.0342 42.9044V43.1844C12.0342 43.1844 12.0342 43.3144 12.0342 43.3944C12.0442 43.4744 12.0642 43.5544 12.1042 43.6344C12.2342 43.9344 12.5742 44.1244 12.9042 44.0844C13.1942 44.0444 13.4942 44.0044 13.8042 43.9644C14.1042 43.9244 14.4143 43.8744 14.7343 43.8244C14.8743 43.8044 15.0142 43.7944 15.1542 43.7744C15.5642 43.7244 15.9741 43.6844 16.3641 43.6544C16.5241 43.6444 16.6942 43.6344 16.8542 43.6144C17.1642 43.6144 17.4942 43.6144 17.8342 43.6144C19.5242 43.5344 20.8142 43.3044 22.4242 43.0044C22.5342 42.9844 22.6841 42.9444 22.7441 42.9244C22.8241 42.8944 23.1242 42.8244 23.1642 42.7844" fill="#FEF293"/>
<path d="M48.2842 52.3744C48.2142 52.3844 48.1242 52.4644 48.1642 52.6244C48.1742 52.6544 48.1942 52.6944 48.2142 52.7244C48.2242 52.7444 48.2242 52.7544 48.2342 52.7644C48.2442 52.7844 48.2641 52.8144 48.2741 52.8444C48.3041 52.8944 48.3441 52.9544 48.3841 53.0244C48.4741 53.1544 48.5742 53.3044 48.6842 53.4544C48.9042 53.7544 49.1341 54.0644 49.2741 54.2444C49.4541 54.4944 49.6141 54.7344 49.7741 54.9644C49.8141 55.0144 49.8541 55.0544 49.8941 55.1044L50.2142 55.4844C50.6342 55.9944 51.0542 56.4944 51.4642 56.9944C51.6042 57.1644 51.7441 57.3344 51.8841 57.5044L52.3142 58.0244C52.4442 58.1844 52.5742 58.3444 52.7142 58.5044C52.8442 58.6644 52.9841 58.8244 53.1141 58.9844C53.1941 59.0844 53.2742 59.1844 53.3542 59.2844C53.6042 59.5844 53.8442 59.8944 54.1042 60.2044C54.2342 60.3644 54.3542 60.5144 54.4842 60.6744C54.9042 61.1544 55.2841 61.6044 55.6441 62.0244C55.8241 62.2344 55.9942 62.4344 56.1642 62.6344L56.2342 62.7144C56.2342 62.7144 56.3142 62.8044 56.3542 62.8544C56.4442 62.9444 56.5341 63.0144 56.6441 63.0744C56.8441 63.1844 57.0741 63.2344 57.2641 63.2144C57.3641 63.2144 57.4542 63.1744 57.5342 63.1344C57.6142 63.0944 57.6942 63.0244 57.7342 62.9844C57.8042 62.9144 57.8742 62.8544 57.9442 62.7844C58.0842 62.6544 58.2142 62.5244 58.3542 62.3844L58.5542 62.1844C58.5542 62.1844 58.6542 62.0944 58.7042 62.0344C58.7542 61.9644 58.7942 61.8944 58.8142 61.8044C58.9142 61.4744 58.7442 61.0344 58.4142 60.7644C58.1242 60.5244 57.8241 60.2844 57.5241 60.0344C57.2241 59.7944 56.9142 59.5444 56.5942 59.2844C56.4542 59.1644 56.3242 59.0544 56.1842 58.9444C55.7742 58.6044 55.3841 58.2644 55.0041 57.9244C54.8441 57.7844 54.6942 57.6444 54.5342 57.5044C54.2542 57.2244 53.9542 56.9244 53.6542 56.6244C52.0842 55.1444 50.7542 54.1344 49.1042 52.8744C48.9942 52.7944 48.8341 52.6844 48.7541 52.6444C48.6541 52.5944 48.3442 52.3744 48.2842 52.3644" fill="#FEF293"/>
<path d="M53.3643 31.2945C53.3643 31.2945 53.3943 31.4345 53.5043 31.4545C53.5243 31.4545 53.5543 31.4545 53.5743 31.4545C53.5943 31.4545 53.5944 31.4545 53.6044 31.4545C53.6244 31.4545 53.6443 31.4545 53.6543 31.4545C53.6943 31.4545 53.7343 31.4445 53.7843 31.4345C53.8843 31.4145 53.9944 31.3845 54.1044 31.3545C54.3244 31.2945 54.5643 31.2345 54.7043 31.1945C54.8843 31.1545 55.0643 31.1045 55.2443 31.0745C55.2843 31.0645 55.3144 31.0545 55.3544 31.0345L55.6443 30.9345C56.0343 30.8045 56.4243 30.6645 56.8043 30.5345C56.9343 30.4945 57.0643 30.4445 57.1943 30.4045L57.5944 30.2645C57.7144 30.2245 57.8344 30.1845 57.9644 30.1445C58.0844 30.1045 58.2144 30.0645 58.3344 30.0145C58.4144 29.9845 58.4843 29.9645 58.5643 29.9345C58.7943 29.8545 59.0343 29.7845 59.2743 29.7045C59.3943 29.6645 59.5143 29.6245 59.6343 29.5845C60.0043 29.4445 60.3543 29.3245 60.6743 29.2045C60.8343 29.1445 60.9943 29.0845 61.1443 29.0345L61.2043 29.0145C61.2043 29.0145 61.2743 28.9845 61.3143 28.9745C61.3843 28.9445 61.4443 28.8945 61.4943 28.8445C61.6043 28.7445 61.6743 28.6045 61.6943 28.4645C61.7043 28.3945 61.6943 28.3245 61.6943 28.2545C61.6843 28.1945 61.6543 28.1145 61.6343 28.0745C61.6043 28.0045 61.5743 27.9345 61.5443 27.8745C61.4843 27.7445 61.4243 27.6045 61.3643 27.4745L61.2743 27.2745C61.2743 27.2745 61.2343 27.1845 61.2043 27.1245C61.1743 27.0745 61.1344 27.0245 61.0844 26.9845C60.8944 26.8245 60.5943 26.8045 60.3643 26.9445C60.1643 27.0745 59.9643 27.1945 59.7543 27.3345C59.5543 27.4645 59.3443 27.6045 59.1243 27.7445C59.0243 27.8045 58.9344 27.8645 58.8444 27.9245C58.5644 28.0945 58.2843 28.2645 58.0043 28.4145C57.8843 28.4745 57.7743 28.5445 57.6643 28.6045C57.4443 28.7145 57.2044 28.8245 56.9644 28.9345C55.7744 29.5545 54.9044 30.1545 53.8344 30.9045C53.7644 30.9545 53.6643 31.0345 53.6243 31.0745C53.5743 31.1245 53.3843 31.2745 53.3643 31.3045" fill="#FEF293"/>
<path d="M51.4943 49.9744C51.4943 49.9744 51.3743 50.0444 51.3943 50.1544C51.3943 50.1744 51.4044 50.2044 51.4244 50.2244C51.4244 50.2344 51.4244 50.2444 51.4344 50.2544C51.4344 50.2744 51.4544 50.2844 51.4544 50.3044C51.4744 50.3444 51.4943 50.3744 51.5243 50.4244C51.5743 50.5044 51.6444 50.6044 51.7044 50.6944C51.8344 50.8844 51.9744 51.0844 52.0644 51.2044C52.1744 51.3644 52.2743 51.5144 52.3643 51.6744C52.3843 51.7044 52.4144 51.7344 52.4344 51.7644L52.6343 52.0044C52.8943 52.3244 53.1544 52.6444 53.4144 52.9644C53.5044 53.0744 53.5844 53.1844 53.6744 53.2944L53.9344 53.6244C54.0144 53.7244 54.0944 53.8244 54.1744 53.9244C54.2544 54.0244 54.3344 54.1244 54.4244 54.2344C54.4744 54.2944 54.5244 54.3644 54.5744 54.4244C54.7244 54.6144 54.8744 54.8144 55.0344 55.0144C55.1144 55.1144 55.1943 55.2144 55.2643 55.3144C55.5243 55.6244 55.7644 55.9044 55.9844 56.1644C56.0944 56.2944 56.2044 56.4244 56.3144 56.5544L56.3544 56.6044C56.3544 56.6044 56.4044 56.6644 56.4344 56.6944C56.4844 56.7444 56.5543 56.7944 56.6143 56.8244C56.7443 56.8844 56.8944 56.9044 57.0344 56.8744C57.1044 56.8644 57.1644 56.8344 57.2244 56.7944C57.2844 56.7644 57.3443 56.7044 57.3643 56.6744C57.4143 56.6244 57.4643 56.5744 57.5243 56.5144C57.6243 56.4144 57.7244 56.3044 57.8344 56.2044L57.9844 56.0544C57.9844 56.0544 58.0544 55.9844 58.0944 55.9344C58.1344 55.8844 58.1644 55.8244 58.1844 55.7644C58.2744 55.5244 58.1844 55.2344 57.9744 55.0744C57.7844 54.9344 57.5943 54.7844 57.4043 54.6344C57.2143 54.4944 57.0144 54.3444 56.8044 54.1844C56.7144 54.1144 56.6244 54.0444 56.5444 53.9744C56.2844 53.7644 56.0344 53.5644 55.7944 53.3544C55.6944 53.2644 55.5943 53.1844 55.4943 53.0944C55.3143 52.9144 55.1344 52.7344 54.9444 52.5444C53.9544 51.6344 53.0943 51.0244 52.0243 50.2744C51.9543 50.2244 51.8444 50.1644 51.7944 50.1344C51.7344 50.1044 51.5244 49.9744 51.4844 49.9744" fill="#FEF293"/>
<path d="M31.5245 53.6244C31.5245 53.6244 31.4446 53.5144 31.3246 53.5544C31.3046 53.5644 31.2745 53.5844 31.2545 53.5944C31.2345 53.6044 31.2346 53.6044 31.2246 53.6144C31.2046 53.6244 31.1946 53.6344 31.1746 53.6544C31.1346 53.6844 31.0946 53.7144 31.0546 53.7544C30.9646 53.8344 30.8645 53.9244 30.7645 54.0144C30.5645 54.2044 30.3546 54.4044 30.2346 54.5144C30.0646 54.6644 29.9045 54.8144 29.7445 54.9444C29.7145 54.9744 29.6845 55.0144 29.6545 55.0444L29.4045 55.3144C29.0645 55.6744 28.7345 56.0244 28.4045 56.3744C28.2945 56.4944 28.1746 56.6144 28.0646 56.7344L27.7246 57.0944C27.6246 57.2044 27.5145 57.3144 27.4045 57.4344C27.2945 57.5444 27.1946 57.6644 27.0846 57.7744C27.0146 57.8444 26.9545 57.9144 26.8845 57.9844C26.6845 58.1944 26.4845 58.4044 26.2745 58.6144C26.1745 58.7244 26.0646 58.8244 25.9646 58.9344C25.6446 59.2844 25.3546 59.6044 25.0746 59.9144C24.9346 60.0644 24.8046 60.2144 24.6746 60.3544L24.6245 60.4144C24.6245 60.4144 24.5646 60.4844 24.5346 60.5144C24.4746 60.5844 24.4345 60.6644 24.4045 60.7444C24.3445 60.9044 24.3246 61.0744 24.3546 61.2244C24.3746 61.2944 24.4046 61.3644 24.4446 61.4244C24.4846 61.4844 24.5446 61.5344 24.5746 61.5644C24.6346 61.6144 24.6845 61.6544 24.7445 61.7044C24.8545 61.7944 24.9646 61.8944 25.0746 61.9844L25.2346 62.1244C25.2346 62.1244 25.3045 62.1944 25.3645 62.2244C25.4145 62.2544 25.4746 62.2744 25.5446 62.2844C25.8046 62.3344 26.1045 62.1744 26.2745 61.9044C26.4245 61.6644 26.5746 61.4244 26.7246 61.1744C26.8746 60.9344 27.0246 60.6744 27.1846 60.4144C27.2546 60.3044 27.3245 60.1944 27.3945 60.0744C27.6045 59.7444 27.8246 59.4244 28.0346 59.1144C28.1246 58.9844 28.2146 58.8544 28.3046 58.7344C28.4846 58.5044 28.6745 58.2544 28.8745 58.0044C29.8145 56.7044 30.4346 55.6244 31.2146 54.2844C31.2646 54.1944 31.3346 54.0644 31.3546 54.0044C31.3846 53.9244 31.5145 53.6744 31.5145 53.6244" fill="#FEF293"/>
</svg>
