<svg width="84" height="80" viewBox="0 0 84 80" fill="none" xmlns="http://www.w3.org/2000/svg">
<path d="M7.72718 38.3807C8.03914 38.6182 8.34223 39.0547 8.87749 39.0046C9.44689 38.9662 9.96283 38.9213 10.4929 38.852C11.546 38.7255 12.5617 38.5366 13.5451 38.3046C15.5217 37.838 17.3693 37.1988 19.1356 36.4882C22.6683 35.0669 25.8498 33.3774 28.9351 32.3346C29.7903 31.9713 30.6145 31.6473 31.3886 31.3677C32.4106 30.9701 33.4448 30.5796 34.4938 30.2058C35.5428 29.832 36.6041 29.4653 37.6828 29.125C38.7615 28.7846 39.855 28.461 40.9827 28.149C43.9069 27.7808 47.0625 26.8849 50.323 25.7228C51.958 25.1405 53.6162 24.4899 55.286 23.8051C56.1244 23.4566 56.9628 23.1081 57.8109 22.757C58.0807 22.6434 58.5753 22.4801 58.8876 22.293C59.2166 22.0911 59.4985 21.8294 59.7018 21.5058C60.1155 20.8465 60.158 20.0381 59.8598 19.3104C59.0092 17.2917 58.1586 15.2729 57.3158 13.2831C56.5252 11.3725 55.7784 9.47094 55.127 7.61628C54.8984 6.99421 54.6628 6.38438 54.4369 5.77196C54.1677 5.03655 53.3447 4.55279 52.5757 4.69641C52.3967 4.7236 52.2086 4.79461 52.0347 4.84112C51.1692 5.16582 50.3398 5.47052 49.5297 5.77005C47.4845 6.63806 45.344 7.45912 43.1493 8.23255C40.9547 9.00599 38.7374 9.73371 36.5124 10.4324C29.3365 12.9007 19.1392 14.9869 12.4388 18.3424C11.2816 18.7762 10.1147 19.2126 8.94785 19.6489L6.14144 20.6895C5.42602 20.9948 4.62108 21.3137 3.753 21.6287C3.45163 21.7404 3.14059 21.8546 2.82955 21.9689C2.48504 22.1128 2.18502 22.3069 1.9424 22.5996C1.44493 23.1778 1.33479 24.0043 1.61622 24.7468C2.1444 26.3342 2.69067 27.9893 3.21626 29.5671C3.72634 31.0869 4.21576 32.5294 4.70437 33.7754C5.6616 36.2315 6.52382 37.4811 7.70786 38.3859L7.72718 38.3807Z" fill="#232323" stroke="#231F20" stroke-width="2" stroke-miterlimit="10"/>
<path d="M45.9864 21.9347C46.0631 22.0281 46.2158 22.0183 46.2841 22.0414C46.3305 22.0601 46.3743 22.0691 46.4233 22.0974L46.4426 22.0922C46.4619 22.087 46.4812 22.0819 46.5102 22.0741C46.5971 22.0509 46.6718 22.0205 46.7562 21.9876C46.7852 21.9798 46.8142 21.9721 46.8431 21.9643C46.8721 21.9566 46.9011 21.9488 46.9301 21.9411C46.9591 21.9333 46.9784 21.9282 47.0074 21.9204C47.0363 21.9127 47.0557 21.9075 47.0847 21.8997C47.104 21.8946 47.1136 21.892 47.133 21.8868C47.1813 21.8739 47.2296 21.861 47.2901 21.8551C47.3191 21.8474 47.3384 21.8422 47.3674 21.8345C47.7737 21.6119 48.0293 21.5228 48.3325 21.2243C48.3518 21.2191 48.3756 21.1921 48.3949 21.1869C48.4143 21.1817 48.4239 21.1791 48.4432 21.174C48.4432 21.174 48.4407 21.1643 48.4381 21.1547C48.4381 21.1547 48.4426 21.1328 48.4496 21.1205L48.4445 21.1012C48.4535 21.0574 48.4554 21.0258 48.4547 20.9846C48.4495 20.9653 48.4566 20.953 48.4611 20.9311C48.4533 20.9021 48.4501 20.8513 48.4546 20.8293C48.4494 20.81 48.4442 20.7907 48.4391 20.7714C48.4236 20.7134 48.4236 20.7134 48.4391 20.7714C48.4391 20.7714 48.4416 20.781 48.4442 20.7907C48.4391 20.7714 48.4313 20.7424 48.4261 20.7231C48.4184 20.6941 48.4132 20.6748 48.4055 20.6458C48.3758 20.6123 48.3487 20.5885 48.3191 20.555C48.2585 20.5609 48.2025 20.5448 48.1316 20.512C48.1123 20.5172 48.0807 20.5153 48.0588 20.5108C47.9764 20.5122 47.901 20.5013 47.8037 20.4859C47.7747 20.4936 47.7457 20.5014 47.7168 20.5091C47.6685 20.5221 47.6227 20.5446 47.577 20.5672C47.5577 20.5724 47.5313 20.5898 47.5146 20.6046C47.2333 20.9076 46.9873 20.9941 46.5887 21.0904C46.5693 21.0956 46.5404 21.1033 46.521 21.1085C46.4218 21.1247 46.3201 21.1312 46.1964 21.1332C46.1771 21.1384 46.1429 21.1268 46.121 21.1224C46.092 21.1301 46.0605 21.1282 46.0289 21.1263C46.0096 21.1315 45.9903 21.1366 45.9709 21.1418C45.8617 21.4298 45.8136 21.7532 45.9941 21.9637L45.9864 21.9347Z" fill="white"/>
<path d="M31.3615 16.5618C31.3015 16.4536 31.1533 16.4415 31.0824 16.4087C31.036 16.39 30.9967 16.3592 30.9574 16.3283L30.9381 16.3334C30.9188 16.3386 30.8994 16.3438 30.8801 16.3489C30.7932 16.3722 30.7107 16.3736 30.6309 16.3846C30.6019 16.3923 30.5729 16.4001 30.5413 16.3982C30.5124 16.4059 30.4834 16.4137 30.4518 16.4118C30.4228 16.4195 30.4035 16.4247 30.3719 16.4228C30.3404 16.4209 30.3236 16.4357 30.2921 16.4338C30.2728 16.439 30.2631 16.4415 30.2412 16.4371C30.1903 16.4403 30.1394 16.4436 30.0859 16.4372C30.057 16.4449 30.0351 16.4404 30.0035 16.4385C29.5546 16.5793 29.2983 16.6272 28.9481 16.8658C28.9287 16.871 28.8998 16.8787 28.8804 16.8839C28.8611 16.8891 28.8515 16.8916 28.8321 16.8968C28.8321 16.8968 28.8321 16.8968 28.8251 16.909C28.8251 16.909 28.8206 16.931 28.8135 16.9432L28.809 16.9651C28.7974 16.9993 28.7885 17.0431 28.7769 17.0772C28.7795 17.0869 28.7653 17.1114 28.7705 17.1307C28.7686 17.1622 28.7622 17.2157 28.7577 17.2376C28.7629 17.2569 28.768 17.2763 28.7635 17.2982C28.7816 17.3658 28.7694 17.3587 28.7635 17.2982C28.7635 17.2982 28.7609 17.2885 28.7584 17.2788C28.7635 17.2982 28.7713 17.3272 28.7765 17.3465C28.7842 17.3755 28.7894 17.3948 28.7971 17.4238C28.8171 17.4598 28.8371 17.4959 28.8668 17.5293C28.9203 17.5357 28.9789 17.5615 29.0427 17.6065C29.0646 17.611 29.0962 17.6129 29.1181 17.6174C29.196 17.6379 29.274 17.6585 29.3642 17.6861C29.3932 17.6784 29.4247 17.6803 29.4441 17.6751C29.4924 17.6622 29.5407 17.6493 29.589 17.6363C29.6179 17.6286 29.6373 17.6234 29.6662 17.6157C29.9946 17.3726 30.2535 17.3344 30.658 17.2986C30.6773 17.2934 30.7089 17.2953 30.7308 17.2998C30.8351 17.303 30.9421 17.3158 31.0613 17.3356C31.0832 17.3401 31.1077 17.3543 31.1392 17.3562C31.1708 17.3581 31.1927 17.3626 31.2243 17.3645C31.2436 17.3593 31.2629 17.3542 31.2752 17.3612C31.4308 17.0919 31.5349 16.7845 31.4001 16.5514L31.3615 16.5618Z" fill="white"/>
<path d="M24.9172 28.7307C24.9751 28.7152 25.0079 28.6443 25.0317 28.6172C25.0485 28.6024 25.0652 28.5875 25.0916 28.5701C25.0916 28.5701 25.0916 28.5701 25.089 28.5605C25.0864 28.5508 25.0839 28.5411 25.0909 28.5289C25.0999 28.4851 25.0992 28.4439 25.1082 28.4001C25.1056 28.3904 25.1101 28.3685 25.1172 28.3562C25.1146 28.3466 25.1191 28.3247 25.1262 28.3124C25.1236 28.3028 25.1307 28.2905 25.1352 28.2686C25.1326 28.259 25.1397 28.2467 25.1442 28.2248C25.1442 28.2248 25.139 28.2055 25.1486 28.2029C25.1531 28.181 25.1647 28.1469 25.1692 28.125C25.1666 28.1153 25.1737 28.103 25.1808 28.0908C25.1696 27.8557 25.1869 27.7269 25.123 27.5266C25.1204 27.5169 25.1178 27.5072 25.1126 27.4879C25.1126 27.4879 25.1101 27.4783 25.1075 27.4686C25.1075 27.4686 25.1075 27.4686 25.0952 27.4615C25.083 27.4545 25.0585 27.4403 25.0463 27.4332C25.0463 27.4332 25.034 27.4262 25.0218 27.4191C25.0121 27.4217 24.9876 27.4075 24.9754 27.4004C24.9754 27.4004 24.9561 27.4056 24.9438 27.3985C24.9122 27.3966 24.9122 27.3966 24.9438 27.3985C24.9341 27.4011 24.9219 27.394 24.9122 27.3966C24.9026 27.3992 24.8929 27.4018 24.871 27.3973C24.8517 27.4025 24.8324 27.4076 24.8131 27.4128C24.7989 27.4373 24.7848 27.4618 24.7487 27.4818C24.7487 27.4818 24.7345 27.5063 24.7275 27.5185C24.7062 27.5552 24.685 27.592 24.6638 27.6287C24.6664 27.6384 24.6619 27.6603 24.6548 27.6725C24.66 27.6918 24.6484 27.726 24.6536 27.7453C24.6562 27.755 24.6613 27.7743 24.6639 27.784C24.7349 27.972 24.7202 28.1105 24.6798 28.3076C24.6824 28.3173 24.6753 28.3295 24.6682 28.3418C24.6496 28.3882 24.6309 28.4346 24.6052 28.4932C24.6052 28.4932 24.5911 28.5177 24.584 28.5299C24.5866 28.5396 24.5698 28.5544 24.5653 28.5763C24.5653 28.5763 24.5705 28.5957 24.5608 28.5982C24.6646 28.7154 24.8019 28.8029 24.9275 28.7693L24.9172 28.7307Z" fill="white"/>
<path d="M39.5565 15.0009C39.6319 15.0118 39.6654 14.9821 39.6969 14.9841C39.7163 14.9789 39.7408 14.993 39.7627 14.9975L39.782 14.9924L39.8013 14.9872C39.8013 14.9872 39.8065 15.0065 39.8161 15.0039C39.8927 14.942 39.9778 14.9503 40.1194 14.8607L40.1484 14.8529L40.1581 14.8503C40.1581 14.8503 40.1529 14.831 40.1722 14.8259L40.2076 14.7646L40.2217 14.7401C40.2217 14.7401 40.2404 14.6938 40.2475 14.6815L40.259 14.6474C40.2706 14.6132 40.268 14.6036 40.259 14.6474C40.259 14.6474 40.259 14.6474 40.2616 14.657L40.2803 14.6106L40.2989 14.5642L40.3001 14.4914C40.3001 14.4914 40.2582 14.4509 40.2453 14.4026L40.2182 14.3788C40.2182 14.3788 40.1641 14.3312 40.1222 14.2906C40.1029 14.2958 40.0906 14.2887 40.0784 14.2816C40.0591 14.2868 40.0249 14.2752 40.0056 14.2804C39.9959 14.283 39.9863 14.2856 39.9669 14.2907C39.7822 14.4126 39.6585 14.4147 39.437 14.5153L39.3887 14.5282C39.3359 14.5631 39.2734 14.6005 39.2039 14.6501L39.1608 14.6824C39.1608 14.6824 39.1273 14.712 39.1202 14.7243C39.1131 14.7365 39.1061 14.7488 39.099 14.761C39.1919 14.9535 39.3582 15.0333 39.5256 15.0402L39.5565 15.0009Z" fill="white"/>
<path d="M7.37881 26.0519C7.39949 26.1291 7.42656 26.153 7.43431 26.1819C7.43948 26.2013 7.44465 26.2206 7.44274 26.2521L7.4524 26.2496L7.45757 26.2689L7.46016 26.2785L7.46274 26.2882L7.47049 26.3172C7.47049 26.3172 7.47049 26.3172 7.46342 26.3294C7.53947 26.3815 7.5698 26.4562 7.70259 26.5656L7.70776 26.585L7.71034 26.5946C7.71034 26.5946 7.72258 26.6017 7.73483 26.6088L7.74449 26.6062L7.8102 26.6197L7.83919 26.6119L7.84435 26.6312C7.86367 26.6261 7.89782 26.6376 7.91007 26.6447L7.95129 26.644C7.98994 26.6337 7.98286 26.6459 7.95129 26.644C7.95129 26.644 7.95129 26.644 7.94163 26.6466C7.95129 26.644 7.97061 26.6389 7.99252 26.6433L8.04082 26.6304L8.10844 26.6123C8.1226 26.5878 8.13675 26.5634 8.17022 26.5337L8.18179 26.4996C8.18179 26.4996 8.21458 26.4287 8.23323 26.3823C8.22806 26.363 8.22547 26.3533 8.22289 26.3436C8.21772 26.3243 8.20997 26.2953 8.20222 26.2664C8.19963 26.2567 8.19705 26.247 8.18222 26.2303C8.01012 26.09 7.96945 25.9767 7.79667 25.7952L7.76701 25.7617C7.72252 25.7115 7.67096 25.6735 7.60457 25.6188L7.56525 25.5879C7.56525 25.5879 7.52852 25.5667 7.50661 25.5622C7.48729 25.5674 7.48471 25.5577 7.47246 25.5506C7.32442 25.6937 7.30332 25.8857 7.34466 26.0403L7.37881 26.0519Z" fill="white"/>
<path d="M51.5829 9.53748C51.5231 9.58455 51.5141 9.62836 51.4973 9.64319C51.478 9.64836 51.4613 9.66318 51.4445 9.67801L51.4497 9.69733L51.44 9.69992L51.4426 9.70958L51.4136 9.71733C51.4136 9.71733 51.4136 9.71733 51.3943 9.7225C51.3789 9.81978 51.3217 9.87651 51.2806 10.0324L51.2664 10.0569L51.2567 10.0595C51.2567 10.0595 51.2619 10.0788 51.2645 10.0885L51.2671 10.0981L51.2852 10.1658L51.2929 10.1947C51.2929 10.1947 51.3084 10.2527 51.311 10.2624L51.3214 10.301C51.3317 10.3397 51.3317 10.3397 51.3214 10.301C51.3214 10.301 51.3214 10.301 51.3188 10.2913C51.3214 10.301 51.3265 10.3203 51.3317 10.3397L51.3446 10.388L51.4084 10.433C51.4374 10.4252 51.4716 10.4368 51.5083 10.458L51.5469 10.4477C51.5469 10.4477 51.6197 10.4489 51.6828 10.4527C51.7022 10.4476 51.7118 10.445 51.7189 10.4327C51.7382 10.4276 51.762 10.4005 51.7762 10.376C51.7762 10.376 51.7903 10.3515 51.7974 10.3393C51.852 10.1177 51.9357 10.0435 52.0263 9.80187L52.045 9.75548C52.0707 9.69684 52.0841 9.63113 52.1047 9.55317L52.1111 9.4997C52.1111 9.4997 52.1104 9.45847 52.1149 9.43657C52.1097 9.41725 52.1097 9.41725 52.1046 9.39793C51.9093 9.32594 51.7284 9.3847 51.6016 9.49108L51.5829 9.53748Z" fill="white"/>
<path d="M12.3982 22.3697C12.3383 22.4168 12.3293 22.4606 12.3126 22.4754C12.2933 22.4806 12.2765 22.4954 12.2598 22.5102L12.265 22.5296L12.2553 22.5321L12.2579 22.5418L12.2289 22.5496C12.2289 22.5496 12.2289 22.5496 12.2096 22.5547C12.2039 22.6494 12.1369 22.7087 12.1081 22.8717L12.0939 22.8962L12.0843 22.8988C12.0843 22.8988 12.0894 22.9181 12.092 22.9278L12.0946 22.9374L12.1204 23.034C12.1256 23.0534 12.1334 23.0823 12.1385 23.1017L12.1489 23.1403C12.1689 23.1764 12.1592 23.179 12.1489 23.1403C12.1489 23.1403 12.1489 23.1403 12.1463 23.1306C12.1489 23.1403 12.154 23.1596 12.1592 23.179L12.1721 23.2273L12.2359 23.2723C12.2649 23.2645 12.2991 23.2761 12.3358 23.2973L12.3744 23.287C12.3744 23.287 12.4569 23.2856 12.5078 23.2824C12.5271 23.2772 12.5367 23.2746 12.5438 23.2624C12.5631 23.2572 12.5773 23.2327 12.5914 23.2082C12.5914 23.2082 12.6056 23.1838 12.6127 23.1715C12.6576 22.9525 12.7484 22.8661 12.8319 22.6367L12.8506 22.5903C12.8763 22.5317 12.8898 22.4659 12.9077 22.3783L12.9141 22.3248C12.9141 22.3248 12.9038 22.2862 12.9083 22.2643C12.9031 22.245 12.9031 22.245 12.8979 22.2257C12.7027 22.1537 12.5243 22.2221 12.3975 22.3285L12.3982 22.3697Z" fill="white"/>
<path d="M52.7787 17.6439C52.7382 17.6858 52.7466 17.756 52.7325 17.7804C52.728 17.8024 52.7235 17.8243 52.7068 17.8391L52.7145 17.8681L52.7403 17.9647L52.7481 17.9937L52.7559 18.0226L52.7636 18.0516L52.7688 18.0709L52.7617 18.0832C52.7643 18.0928 52.7598 18.1147 52.7501 18.1173L52.7405 18.1199C52.7611 18.1972 52.7232 18.2488 52.5989 18.3648L52.57 18.3726C52.57 18.3726 52.5603 18.3751 52.5506 18.3777L52.5558 18.397L52.5398 18.4531L52.5449 18.4724L52.5256 18.4776C52.5282 18.4873 52.514 18.5117 52.5192 18.5311L52.5173 18.5626C52.525 18.5916 52.5154 18.5942 52.5173 18.5626L52.5147 18.553L52.5225 18.5819L52.5135 18.6258L52.5483 18.6786C52.5483 18.6786 52.6166 18.7017 52.6533 18.7229L52.6972 18.7319C52.6972 18.7319 52.7918 18.7376 52.855 18.7414C52.8743 18.7363 52.8936 18.7311 52.9129 18.7259C52.9516 18.7156 52.978 18.6982 53.0114 18.6685C53.0211 18.6659 53.0353 18.6414 53.052 18.6266C53.2225 18.374 53.2507 18.1698 53.2299 17.9372L53.2195 17.8986C53.2195 17.8986 53.2227 17.7942 53.2213 17.7118L53.211 17.6731C53.211 17.6731 53.2226 17.639 53.2174 17.6197C53.2148 17.61 53.2122 17.6003 53.2096 17.5907C53.0608 17.5373 52.9056 17.5375 52.8174 17.6335L52.7787 17.6439Z" fill="white"/>
<path d="M14.7162 31.77C14.7605 31.665 14.7179 31.5832 14.7243 31.5298C14.7359 31.4956 14.7475 31.4615 14.7713 31.4344L14.7635 31.4054C14.7584 31.3861 14.7506 31.3571 14.748 31.3474C14.748 31.3474 14.7455 31.3378 14.7429 31.3281C14.7429 31.3281 14.7403 31.3185 14.7474 31.3062L14.7615 31.2817C14.7615 31.2817 14.7589 31.2721 14.7757 31.2572L14.795 31.2521C14.795 31.2521 14.8136 31.2057 14.84 31.1883L14.8735 31.1586C14.9809 30.9021 15.1701 30.7583 15.3348 30.4452L15.3753 30.4033C15.3753 30.4033 15.3947 30.3981 15.4114 30.3833L15.4062 30.3639C15.4062 30.3639 15.4011 30.3446 15.4081 30.3324L15.403 30.313C15.3952 30.2841 15.3945 30.2428 15.3964 30.2113L15.3835 30.163C15.3758 30.134 15.3654 30.0954 15.3577 30.0664L15.3422 30.0084C15.3293 29.9601 15.3074 29.9556 15.3422 30.0084C15.3422 30.0084 15.3448 30.0181 15.3473 30.0277C15.3422 30.0084 15.3344 29.9794 15.3196 29.9627L15.2822 29.9002L15.1939 29.841C15.1359 29.8566 15.0825 29.8502 15.0071 29.8393L14.9395 29.8574C14.8718 29.8754 14.7946 29.8961 14.6954 29.9123C14.6664 29.9201 14.6426 29.9471 14.6258 29.962C14.5827 29.9942 14.5492 30.0239 14.5087 30.0658C14.4919 30.0806 14.4778 30.1051 14.4636 30.1296C14.3074 30.513 14.0918 30.6742 13.9453 31.2102C13.9337 31.2444 13.9318 31.2759 13.9299 31.3075C13.9056 31.4486 13.9153 31.6013 13.9496 31.7681C13.9574 31.797 13.9677 31.8357 13.9755 31.8647C13.9858 31.9033 14.0058 31.9394 14.0258 31.9754C14.0335 32.0044 14.0484 32.0211 14.0658 32.0475C14.4137 32.1097 14.659 31.982 14.7426 31.7526L14.7162 31.77Z" fill="white"/>
<path d="M23.4466 55.7379C23.8275 55.8845 25.0511 56.3956 25.4747 56.0442C25.9298 55.6947 26.3322 55.3801 26.7461 55.0312C27.5572 54.3484 28.2974 53.6328 28.9886 52.8889C30.3737 51.4108 31.5732 49.8581 32.6535 48.2855C34.8166 45.1499 36.5405 41.9974 38.5431 39.4224C39.0617 38.6522 39.5616 37.9284 40.0577 37.2678C40.6979 36.3719 41.3382 35.476 42.01 34.582C42.6721 33.6906 43.3658 32.8011 44.0717 31.9187C44.7777 31.0363 45.5178 30.1655 46.2965 29.2843C48.5354 27.3604 50.6681 24.8851 52.7524 22.1123C53.7897 20.7272 54.8185 19.2719 55.837 17.7779C56.3415 17.0322 56.853 16.2743 57.3619 15.5067C57.5227 15.2566 57.8413 14.8609 58.0008 14.5283C58.1673 14.1836 58.2533 13.8086 58.2421 13.4183C58.2196 12.6376 57.8151 11.9383 57.1603 11.5028C55.3357 10.2932 53.5183 9.07138 51.7182 7.87596C49.9987 6.71075 48.3397 5.5397 46.7702 4.35505C46.2327 3.97091 45.7048 3.58419 45.1769 3.19747C44.5459 2.73482 43.5958 2.78195 43.0371 3.32477C42.9058 3.45306 42.7797 3.60067 42.6729 3.74312C42.1272 4.48948 41.6054 5.20877 41.0977 5.90358C39.8669 7.76488 38.5317 9.62304 37.1309 11.4677C35.7326 13.3221 34.2757 15.1507 32.8039 16.9626C28.1823 22.9814 20.8126 30.3357 17.0842 36.8299C16.3583 37.8315 15.6229 38.8356 14.8874 39.8398L13.1224 42.2581C12.6965 42.9103 12.201 43.6122 11.6457 44.3611C11.4559 44.619 11.2564 44.8793 11.0595 45.1494C10.844 45.4659 10.7038 45.7932 10.6687 46.1649C10.5694 46.9161 10.9359 47.6669 11.5791 48.1366C12.8914 49.1726 14.2553 50.2467 15.5677 51.2827C16.8258 52.2711 18.0369 53.1997 19.1242 53.9751C21.2692 55.4923 22.3506 55.3169 23.4466 55.7379Z" fill="#2D2D2D" stroke="#231F20" stroke-width="2" stroke-miterlimit="10"/>
<path d="M47.0223 21.3575C47.1467 21.3967 47.2542 21.2955 47.3315 21.2748C47.3798 21.2619 47.4281 21.2489 47.4764 21.236C47.4764 21.236 47.486 21.2334 47.4931 21.2212C47.5099 21.2064 47.5143 21.1844 47.5311 21.1696C47.5858 21.1032 47.6405 21.0368 47.6952 20.9704C47.7093 20.946 47.7357 20.9285 47.7499 20.9041C47.764 20.8796 47.7904 20.8622 47.8046 20.8377C47.8187 20.8132 47.8355 20.7983 47.8593 20.7713C47.8734 20.7468 47.8902 20.732 47.914 20.7049C47.9236 20.7023 47.9378 20.6778 47.9449 20.6656C47.9758 20.6262 48.0189 20.594 48.0594 20.5521C48.0762 20.5373 48.1 20.5102 48.1167 20.4954C48.338 20.0842 48.4995 19.8754 48.5823 19.4495C48.5868 19.4276 48.6009 19.4031 48.6151 19.3787C48.6221 19.3664 48.6292 19.3542 48.6363 19.3419C48.6363 19.3419 48.6337 19.3323 48.6311 19.3226C48.6311 19.3226 48.626 19.3033 48.6208 19.284L48.6156 19.2646C48.6053 19.226 48.5853 19.1899 48.5653 19.1539C48.5601 19.1346 48.5575 19.1249 48.5427 19.1082C48.5253 19.0818 48.4956 19.0483 48.4782 19.0219C48.4731 19.0026 48.4511 18.9981 48.4363 18.9813C48.3944 18.9408 48.3848 18.9434 48.4363 18.9813C48.4363 18.9813 48.4363 18.9813 48.4512 18.9981C48.4363 18.9813 48.4118 18.9672 48.397 18.9505C48.3725 18.9363 48.3577 18.9196 48.3332 18.9054C48.2894 18.8964 48.2552 18.8849 48.2114 18.8759C48.1683 18.9081 48.1033 18.9359 48.0305 18.9346C48.0111 18.9398 47.9873 18.9669 47.968 18.9721C47.8959 19.0121 47.8238 19.052 47.742 19.0946C47.7253 19.1095 47.7015 19.1365 47.6873 19.161C47.6564 19.2003 47.6255 19.2397 47.6069 19.286C47.5927 19.3105 47.5882 19.3324 47.5741 19.3569C47.5055 19.7583 47.344 19.9671 47.075 20.2772C47.0582 20.292 47.0415 20.3068 47.0151 20.3243C46.9385 20.3862 46.8548 20.4603 46.7563 20.5177C46.7273 20.5255 46.7106 20.5403 46.6842 20.5577C46.6578 20.5751 46.641 20.5899 46.6146 20.6074C46.5953 20.6125 46.5908 20.6344 46.5741 20.6493C46.6542 20.9487 46.7852 21.2449 47.0436 21.3207L47.0223 21.3575Z" fill="white"/>
<path d="M31.8725 24.9341C31.7648 24.88 31.6277 24.9478 31.5575 24.9562C31.5092 24.9691 31.4557 24.9627 31.4048 24.966C31.4048 24.966 31.3952 24.9686 31.3881 24.9808C31.3688 24.986 31.3546 25.0105 31.3379 25.0253C31.2709 25.0846 31.2137 25.1414 31.1467 25.2007C31.1203 25.2181 31.1036 25.2329 31.0798 25.26C31.056 25.2871 31.0392 25.3019 31.0128 25.3193C30.9961 25.3341 30.9697 25.3516 30.953 25.3664C30.9362 25.3812 30.9098 25.3986 30.8931 25.4135C30.8738 25.4186 30.8667 25.4309 30.8499 25.4457C30.8068 25.4779 30.7637 25.5102 30.718 25.5328C30.689 25.5405 30.6748 25.565 30.6459 25.5728C30.3511 25.9414 30.1599 26.1168 29.9966 26.5124C29.9825 26.5369 29.9658 26.5518 29.9613 26.5737C29.9516 26.5763 29.9374 26.6007 29.9278 26.6033C29.9278 26.6033 29.9304 26.613 29.933 26.6227C29.933 26.6227 29.9381 26.642 29.9433 26.6613L29.9485 26.6806C29.9588 26.7193 29.9691 26.7579 29.9795 26.7965C29.9846 26.8159 29.9872 26.8255 29.9924 26.8448C30.0001 26.8738 30.0324 26.917 30.0376 26.9363C30.0427 26.9556 30.0576 26.9723 30.0698 26.9794C30.1143 27.0296 30.102 27.0225 30.0698 26.9794C30.0698 26.9794 30.0698 26.9794 30.055 26.9627C30.0698 26.9794 30.0872 27.0058 30.102 27.0225C30.1169 27.0393 30.1343 27.0657 30.1588 27.0798C30.1955 27.1011 30.2297 27.1126 30.2664 27.1338C30.3244 27.1183 30.3823 27.1028 30.4551 27.1041C30.4744 27.0989 30.5034 27.0911 30.5298 27.0737C30.6071 27.0531 30.6818 27.0227 30.7784 26.9969C30.8074 26.9891 30.8215 26.9646 30.8479 26.9472C30.8814 26.9176 30.9219 26.8757 30.9528 26.8363C30.967 26.8119 30.9837 26.797 30.9979 26.7725C31.1418 26.3821 31.333 26.2067 31.6588 25.9539C31.6781 25.9488 31.7045 25.9314 31.7212 25.9165C31.8101 25.8617 31.9015 25.8165 32.0123 25.7662C32.0412 25.7585 32.0606 25.7533 32.0895 25.7455C32.1185 25.7378 32.1449 25.7204 32.1713 25.703C32.1906 25.6978 32.1977 25.6855 32.2145 25.6707C32.1949 25.3654 32.1193 25.044 31.8699 24.9244L31.8725 24.9341Z" fill="white"/>
<path d="M33.189 38.6395C33.2296 38.5976 33.2185 38.5177 33.2204 38.4862C33.2249 38.4643 33.2294 38.4424 33.241 38.4082C33.241 38.4082 33.241 38.4082 33.2384 38.3986C33.2358 38.3889 33.2332 38.3792 33.2307 38.3696C33.2203 38.3309 33.1907 38.2975 33.1777 38.2492C33.1752 38.2395 33.17 38.2202 33.1674 38.2105C33.1648 38.2009 33.1597 38.1815 33.1571 38.1719C33.1545 38.1622 33.1493 38.1429 33.1467 38.1332C33.1441 38.1236 33.139 38.1043 33.1364 38.0946C33.1364 38.0946 33.1312 38.0753 33.1286 38.0656C33.1209 38.0366 33.1157 38.0173 33.108 37.9883C33.1054 37.9787 33.1002 37.9594 33.0976 37.9497C32.9635 37.7578 32.9009 37.64 32.7314 37.5094C32.7288 37.4997 32.7166 37.4926 32.7043 37.4856C32.7043 37.4856 32.7017 37.4759 32.6992 37.4662C32.6992 37.4662 32.6895 37.4688 32.6798 37.4714C32.6605 37.4766 32.6386 37.4721 32.6193 37.4773C32.6193 37.4773 32.6 37.4824 32.5903 37.485C32.571 37.4902 32.5517 37.4954 32.542 37.4979C32.542 37.4979 32.5227 37.5031 32.513 37.5057C32.4841 37.5134 32.4841 37.5134 32.513 37.5057C32.5034 37.5083 32.484 37.5134 32.4744 37.516C32.4647 37.5186 32.4454 37.5238 32.4357 37.5264C32.419 37.5412 32.4119 37.5534 32.3952 37.5683C32.403 37.5972 32.401 37.6288 32.3798 37.6655C32.3824 37.6752 32.3876 37.6945 32.3902 37.7042C32.4005 37.7428 32.3915 37.7866 32.3922 37.8279C32.3948 37.8375 32.3999 37.8568 32.4025 37.8665C32.4077 37.8858 32.4251 37.9122 32.4399 37.929C32.4425 37.9386 32.4548 37.9457 32.4696 37.9624C32.6365 38.0834 32.6991 38.2012 32.7701 38.3893C32.7727 38.3989 32.7753 38.4086 32.7804 38.4279C32.7934 38.4762 32.8063 38.5245 32.8121 38.5851C32.8147 38.5947 32.8199 38.614 32.8225 38.6237C32.825 38.6334 32.8302 38.6527 32.8328 38.6623C32.8328 38.6623 32.838 38.6817 32.8406 38.6913C32.9939 38.7228 33.1517 38.7323 33.2495 38.6337L33.189 38.6395Z" fill="white"/>
<path d="M37.8408 19.1139C37.9129 19.0739 37.9245 19.0397 37.9509 19.0223C37.9702 19.0172 37.9896 19.012 38.0185 19.0042L38.0134 18.9849L38.0327 18.9797L38.0617 18.972C38.0617 18.972 38.0617 18.972 38.081 18.9668C38.1086 18.8766 38.1807 18.8366 38.2534 18.6826L38.2727 18.6774L38.2772 18.6555C38.2772 18.6555 38.272 18.6362 38.2695 18.6266L38.2669 18.6169L38.2488 18.5493L38.2603 18.5151C38.2603 18.5151 38.2448 18.4572 38.2423 18.4475L38.2319 18.4089C38.2216 18.3702 38.2216 18.3702 38.2319 18.4089C38.2319 18.4089 38.2319 18.4089 38.2345 18.4185C38.2319 18.4089 38.2268 18.3895 38.2216 18.3702L38.2087 18.3219L38.1616 18.2621C38.13 18.2601 38.1055 18.246 38.0688 18.2248L38.0302 18.2351C38.0302 18.2351 37.9522 18.2145 37.8961 18.1985C37.8768 18.2037 37.8672 18.2062 37.8575 18.2088C37.8382 18.214 37.8118 18.2314 37.7976 18.2559C37.7976 18.2559 37.7809 18.2707 37.7738 18.283C37.6825 18.4834 37.5866 18.5504 37.447 18.7638L37.4257 18.8005C37.4257 18.8005 37.3646 18.9204 37.3319 18.9912L37.3132 19.0376C37.3132 19.0376 37.3042 19.0815 37.2971 19.0937C37.3023 19.113 37.3023 19.113 37.2978 19.1349C37.4815 19.2411 37.6605 19.2139 37.8048 19.1339L37.8408 19.1139Z" fill="white"/>
<path d="M17.0828 46.0744C17.1395 46.1317 17.1808 46.131 17.2053 46.1452C17.2201 46.1619 17.2349 46.1786 17.2497 46.1954L17.2691 46.1902L17.2716 46.1999L17.2768 46.2192C17.2768 46.2192 17.2865 46.2166 17.2891 46.2263C17.3812 46.2223 17.4476 46.277 17.6176 46.2936L17.6421 46.3078L17.6447 46.3174L17.6544 46.3149C17.6544 46.3149 17.664 46.3123 17.6737 46.3097L17.6833 46.3071L17.751 46.289L17.7774 46.2716C17.7774 46.2716 17.8231 46.249 17.8424 46.2439L17.881 46.2335C17.9197 46.2232 17.9145 46.2039 17.881 46.2335C17.881 46.2335 17.881 46.2335 17.8714 46.2361C17.881 46.2335 17.8978 46.2187 17.9171 46.2135L17.9602 46.1813L18.0053 46.1175C18.0053 46.1175 17.9994 46.0569 18.0084 46.0131L17.9981 45.9745C17.9981 45.9745 17.9774 45.8972 17.9741 45.8463C17.969 45.827 17.9567 45.8199 17.9445 45.8128C17.9297 45.7961 17.9052 45.7819 17.8807 45.7678C17.8807 45.7678 17.8562 45.7536 17.8439 45.7466C17.6204 45.7235 17.5295 45.6547 17.286 45.5956L17.2422 45.5866C17.1765 45.5732 17.1133 45.5694 17.0283 45.561L16.9748 45.5546C16.9748 45.5546 16.9362 45.565 16.9169 45.5702C16.8975 45.5753 16.8879 45.5779 16.8782 45.5805C16.8307 45.7899 16.9159 45.9534 17.0487 46.0628L17.0828 46.0744Z" fill="white"/>
<path d="M44.8687 7.92791C44.8482 8.00587 44.8559 8.03485 44.854 8.06642C44.8495 8.08832 44.8328 8.10315 44.8283 8.12506L44.8335 8.14438L44.8361 8.15404L44.8386 8.1637L44.8245 8.18819C44.8245 8.18819 44.8245 8.18819 44.8148 8.19077C44.8574 8.27254 44.8394 8.36016 44.9001 8.50956L44.9053 8.52888L44.8885 8.54371C44.8885 8.54371 44.8937 8.56303 44.906 8.57011L44.9085 8.57977L44.9627 8.62739L44.9898 8.6512C44.9898 8.6512 45.0291 8.68209 45.0439 8.69883L45.071 8.72264C45.1077 8.74387 45.0981 8.74645 45.071 8.72264L45.1077 8.74387L45.1445 8.7651L45.2198 8.77599C45.2198 8.77599 45.2752 8.75082 45.3164 8.75015L45.3402 8.72307C45.3402 8.72307 45.4001 8.676 45.4432 8.64376C45.4503 8.63152 45.4574 8.61927 45.4645 8.60703C45.469 8.58512 45.4831 8.56063 45.4754 8.53165C45.4728 8.52199 45.4702 8.51233 45.4747 8.49043C45.3985 8.28307 45.4281 8.1613 45.3731 7.91721L45.3602 7.8689C45.3447 7.81094 45.3266 7.74332 45.3059 7.66604L45.293 7.61774C45.293 7.61774 45.2633 7.58426 45.2582 7.56494C45.253 7.54562 45.2433 7.54821 45.2311 7.54113C45.0282 7.5954 44.9117 7.74043 44.8706 7.89635L44.8687 7.92791Z" fill="white"/>
<path d="M19.2358 40.2294C19.2153 40.3073 19.2327 40.3337 19.2211 40.3679C19.2166 40.3898 19.1999 40.4046 19.1954 40.4265L19.2006 40.4458L19.2032 40.4555L19.2057 40.4651L19.1916 40.4896C19.1916 40.4896 19.1916 40.4896 19.1819 40.4922C19.2245 40.574 19.2065 40.6616 19.2672 40.811L19.2724 40.8303L19.2653 40.8426C19.2653 40.8426 19.2705 40.8619 19.2827 40.869L19.3369 40.9166L19.3639 40.9404C19.3639 40.9404 19.4032 40.9713 19.4181 40.988L19.4452 41.0118C19.4819 41.0331 19.4722 41.0357 19.4452 41.0118L19.4819 41.0331L19.5283 41.0517L19.6037 41.0626C19.6037 41.0626 19.6564 41.0278 19.6977 41.0271L19.7215 41C19.7215 41 19.7814 40.953 19.8245 40.9207C19.8316 40.9085 19.8386 40.8962 19.8457 40.884C19.8502 40.8621 19.8547 40.8402 19.8566 40.8086C19.854 40.7989 19.8514 40.7893 19.8463 40.77C19.7701 40.5626 19.79 40.4434 19.735 40.1993L19.7221 40.151C19.7066 40.0931 19.6885 40.0254 19.6582 39.9507L19.6453 39.9024C19.6453 39.9024 19.6156 39.869 19.6008 39.8522C19.5956 39.8329 19.5859 39.8355 19.5737 39.8284C19.3708 39.8827 19.2543 40.0277 19.2158 40.1933L19.2358 40.2294Z" fill="white"/>
<path d="M50.3319 14.0333C50.3184 14.099 50.3603 14.1396 50.3707 14.1782C50.3759 14.1975 50.381 14.2169 50.3888 14.2458L50.4062 14.2722L50.4848 14.334L50.4926 14.363L50.5293 14.3842L50.5345 14.4035L50.559 14.4177C50.559 14.4177 50.5693 14.4563 50.5719 14.466L50.5771 14.4853C50.6215 14.5355 50.6248 14.5864 50.5792 14.7642L50.5651 14.7887C50.5651 14.7887 50.5554 14.7913 50.5457 14.7939C50.5457 14.7939 50.5509 14.8132 50.5535 14.8229L50.5716 14.8905L50.5767 14.9098C50.5793 14.9195 50.5871 14.9484 50.5897 14.9581L50.5974 14.9871C50.6148 15.0135 50.6052 15.0161 50.5974 14.9871L50.6052 15.0161L50.6322 15.0399L50.6909 15.0656C50.6909 15.0656 50.7585 15.0475 50.7971 15.0372L50.8358 15.0268C50.8358 15.0268 50.915 14.9746 50.9678 14.9398C50.9871 14.9346 50.9916 14.9127 51.0057 14.8882C51.0296 14.8611 51.0411 14.827 51.0527 14.7928C51.0501 14.7832 51.0643 14.7587 51.0687 14.7368C51.0711 14.436 50.9808 14.2531 50.837 14.0638L50.8266 14.0252C50.8266 14.0252 50.7525 13.9415 50.7054 13.8816L50.6951 13.843C50.6951 13.843 50.6583 13.8218 50.6558 13.8121C50.6532 13.8024 50.6409 13.7954 50.6313 13.798C50.4767 13.8393 50.3518 13.9141 50.3248 14.0455L50.3319 14.0333Z" fill="white"/>
<path d="M26.3635 46.7902C26.3447 46.6814 26.259 46.6318 26.2365 46.5861C26.2261 46.5475 26.2184 46.5185 26.2203 46.4869L26.1958 46.4728C26.1906 46.4535 26.159 46.4515 26.1513 46.4226L26.1461 46.4032C26.1461 46.4032 26.1435 46.3936 26.141 46.3839L26.1332 46.3549C26.1332 46.3549 26.1306 46.3453 26.1255 46.326L26.1203 46.3066C26.1203 46.3066 26.1293 46.2628 26.1408 46.2287L26.1498 46.1849C26.0968 45.9092 26.1733 45.6921 26.1408 45.3385C26.1356 45.3191 26.1498 45.2947 26.1472 45.285C26.1446 45.2753 26.1613 45.2605 26.1587 45.2508L26.1536 45.2315C26.1536 45.2315 26.1387 45.2148 26.1265 45.2077L26.1213 45.1884L26.0568 45.1021L26.0272 45.0686C26.0272 45.0686 25.9705 45.0114 25.9556 44.9946L25.9163 44.9637C25.877 44.9328 25.8673 44.9354 25.9163 44.9637L25.9286 44.9708C25.9163 44.9637 25.8918 44.9496 25.8673 44.9354L25.8061 44.9001L25.6921 44.8995C25.6921 44.8995 25.6084 44.9736 25.5337 45.004L25.4861 45.0581C25.4359 45.1026 25.3812 45.169 25.3072 45.2406C25.293 45.2651 25.2814 45.2992 25.2769 45.3211C25.2583 45.3675 25.2422 45.4236 25.2455 45.4744C25.2507 45.4938 25.2391 45.5279 25.2372 45.5595C25.3168 45.973 25.2287 46.2243 25.3998 46.7478C25.4076 46.7768 25.4276 46.8129 25.445 46.8393C25.5005 46.9693 25.5946 47.0891 25.7133 47.223C25.7403 47.2468 25.7577 47.2732 25.7848 47.297C25.8216 47.3182 25.8583 47.3394 25.8854 47.3632C25.9098 47.3774 25.9343 47.3916 25.9562 47.396C26.2814 47.2573 26.4133 47.015 26.3609 46.7806L26.3635 46.7902Z" fill="white"/>
<path d="M31.4621 54.6288C31.7934 54.8611 32.7044 55.8285 33.2208 55.6697C33.7811 55.5198 34.2686 55.3687 34.7729 55.2027C35.7814 54.8708 36.7331 54.4816 37.6552 54.059C39.4994 53.2137 41.1857 52.2036 42.7695 51.1588C45.9441 49.057 48.7277 46.77 51.5388 45.1277C52.3088 44.6008 53.0382 44.1159 53.7445 43.6992C54.671 43.0994 55.6026 42.5189 56.5536 41.9332C57.5045 41.3476 58.4729 40.7884 59.4632 40.2336C60.4534 39.6788 61.4586 39.1408 62.5075 38.6118C65.2985 37.6685 68.2063 36.1556 71.1725 34.358C72.6521 33.4653 74.1522 32.4947 75.6516 31.4828C76.3952 30.9733 77.1485 30.4613 77.9114 29.9466C78.1561 29.7777 78.5958 29.5255 78.8707 29.2759C79.1526 29.0142 79.3778 28.6952 79.5102 28.3388C79.7796 27.6043 79.6694 26.8056 79.227 26.1579C77.9869 24.3469 76.7493 22.5455 75.5362 20.7583C74.3825 19.0381 73.2725 17.3268 72.2528 15.6431C71.9064 15.0836 71.5504 14.5267 71.2066 13.9768C70.7906 13.3118 69.8905 13.0039 69.1725 13.2995C69.0038 13.3653 68.8332 13.4628 68.6819 13.555C67.9015 14.0432 67.1476 14.5141 66.4104 14.9701C64.5755 16.2373 62.6453 17.4576 60.6565 18.6521C58.6676 19.8467 56.6272 21.0032 54.5913 22.1379C48.0568 25.9977 38.484 30.0699 32.5904 34.7003C31.5435 35.353 30.4895 36.018 29.433 36.6733L26.895 38.2528C26.2331 38.7197 25.4721 39.2028 24.6461 39.7136L24.2089 39.9755C24.0383 40.0729 23.8702 40.1799 23.717 40.3037C23.4177 40.5391 23.1802 40.8511 23.0504 41.217C22.9109 41.5856 22.8835 41.9863 22.9676 42.3779C23.0491 42.7598 23.2613 43.1274 23.4831 43.4925C24.5468 45.3404 25.6653 47.2771 26.6768 49.0458C28.7028 52.4789 30.262 53.7801 31.4595 54.6192" fill="#232323"/>
<path d="M31.4621 54.6288C31.7934 54.8611 32.7044 55.8285 33.2208 55.6697C33.7811 55.5198 34.2686 55.3687 34.7729 55.2027C35.7814 54.8708 36.7331 54.4816 37.6552 54.059C39.4994 53.2137 41.1857 52.2036 42.7695 51.1588C45.9441 49.057 48.7277 46.77 51.5388 45.1277C52.3088 44.6008 53.0382 44.1159 53.7445 43.6992C54.671 43.0994 55.6026 42.5189 56.5536 41.9332C57.5045 41.3476 58.4729 40.7884 59.4632 40.2336C60.4534 39.6788 61.4586 39.1408 62.5075 38.6118C65.2985 37.6685 68.2063 36.1556 71.1725 34.358C72.6521 33.4653 74.1522 32.4947 75.6516 31.4828C76.3952 30.9733 77.1485 30.4613 77.9114 29.9466C78.1561 29.7777 78.5958 29.5255 78.8707 29.2759C79.1526 29.0142 79.3778 28.6952 79.5102 28.3388C79.7796 27.6043 79.6694 26.8056 79.227 26.1579C77.9869 24.3469 76.7493 22.5455 75.5362 20.7583C74.3825 19.0381 73.2725 17.3268 72.2528 15.6431C71.9064 15.0836 71.5504 14.5267 71.2066 13.9768C70.7906 13.3118 69.8905 13.0039 69.1725 13.2995C69.0038 13.3653 68.8332 13.4628 68.6819 13.555C67.9015 14.0432 67.1476 14.5141 66.4104 14.9701C64.5755 16.2373 62.6453 17.4576 60.6565 18.6521C58.6676 19.8467 56.6272 21.0032 54.5913 22.1379C48.0568 25.9977 38.484 30.0699 32.5904 34.7003C31.5435 35.353 30.4895 36.018 29.433 36.6733L26.895 38.2528C26.2331 38.7197 25.4721 39.2028 24.6461 39.7136L24.2089 39.9755C24.0383 40.0729 23.8702 40.1799 23.717 40.3037C23.4177 40.5391 23.1802 40.8511 23.0504 41.217C22.9109 41.5856 22.8835 41.9863 22.9676 42.3779C23.0491 42.7598 23.2613 43.1274 23.4831 43.4925C24.5468 45.3404 25.6653 47.2771 26.6768 49.0458C28.7028 52.4789 30.262 53.7801 31.4595 54.6192" stroke="#231F20" stroke-width="2" stroke-miterlimit="10"/>
<path d="M66.1605 31.5271C66.254 31.6057 66.3989 31.5669 66.4717 31.5681C66.5251 31.5745 66.5689 31.5835 66.6224 31.5899L66.6417 31.5847C66.6611 31.5796 66.6778 31.5647 66.6945 31.5499C66.7666 31.5099 66.8458 31.4577 66.9179 31.4177C66.9469 31.4099 66.9733 31.3925 66.9901 31.3777C67.019 31.3699 67.0454 31.3525 67.0718 31.3351C67.1008 31.3274 67.1176 31.3125 67.1439 31.2951C67.1729 31.2874 67.1897 31.2725 67.2161 31.2551C67.2354 31.25 67.245 31.2474 67.2644 31.2422C67.3127 31.2293 67.3558 31.197 67.4138 31.1815C67.4427 31.1738 67.4621 31.1686 67.491 31.1609C67.8477 30.8688 68.0782 30.7243 68.3149 30.3711C68.3317 30.3563 68.3484 30.3415 68.3651 30.3266C68.3748 30.324 68.3915 30.3092 68.3986 30.297C68.3986 30.297 68.396 30.2873 68.3935 30.2776C68.3935 30.2776 68.3883 30.2583 68.3857 30.2487L68.3805 30.2293C68.3702 30.1907 68.3792 30.1469 68.3688 30.1083C68.3637 30.0889 68.3611 30.0793 68.3559 30.06C68.3482 30.031 68.3352 29.9827 68.3275 29.9537C68.3223 29.9344 68.3172 29.915 68.312 29.8957C68.2965 29.8378 68.2772 29.8429 68.312 29.8957C68.312 29.8957 68.3146 29.9054 68.3172 29.915C68.312 29.8957 68.2946 29.8693 68.2797 29.8526C68.2746 29.8333 68.2572 29.8069 68.2423 29.7901C68.2056 29.7689 68.1785 29.7451 68.1418 29.7239C68.0838 29.7394 68.0207 29.7356 67.9524 29.7124C67.9234 29.7202 67.9041 29.7253 67.8751 29.7331C67.7978 29.7538 67.7154 29.7551 67.6233 29.7591C67.5943 29.7668 67.5679 29.7842 67.5512 29.7991C67.5054 29.8216 67.472 29.8513 67.4288 29.8835C67.4121 29.8984 67.3857 29.9158 67.3716 29.9403C67.1541 30.2883 66.9307 30.4205 66.5649 30.6012C66.5456 30.6063 66.5166 30.6141 66.4973 30.6193C66.4007 30.6451 66.2945 30.6735 66.1785 30.7045C66.1496 30.7123 66.1302 30.7175 66.0987 30.7156C66.0697 30.7233 66.0407 30.7311 66.0117 30.7388C65.9924 30.744 65.9731 30.7492 65.9538 30.7543C65.9102 31.0558 65.9253 31.383 66.1367 31.5542L66.1605 31.5271Z" fill="white"/>
<path d="M50.7628 29.1868C50.6764 29.096 50.536 29.1129 50.458 29.0923C50.4142 29.0834 50.3678 29.0647 50.3189 29.0364L50.2995 29.0416C50.2802 29.0468 50.2609 29.0519 50.2319 29.0597C50.145 29.0829 50.0703 29.1133 49.9859 29.1462C49.9569 29.1539 49.928 29.1617 49.899 29.1694C49.87 29.1772 49.841 29.185 49.812 29.1927C49.7831 29.2005 49.7637 29.2056 49.7348 29.2134C49.7058 29.2211 49.6865 29.2263 49.6575 29.2341C49.6382 29.2392 49.6285 29.2418 49.6092 29.247C49.5609 29.2599 49.5126 29.2728 49.4546 29.2883C49.4256 29.2961 49.4063 29.3012 49.3773 29.309C48.9736 29.5412 48.7276 29.6277 48.4296 29.9455C48.4103 29.9507 48.3865 29.9778 48.3672 29.9829C48.3479 29.9881 48.3382 29.9907 48.3189 29.9959C48.3189 29.9959 48.3215 30.0055 48.324 30.0152C48.324 30.0152 48.3292 30.0345 48.3125 30.0493L48.3176 30.0687C48.3183 30.1099 48.3068 30.144 48.3074 30.1853C48.3126 30.2046 48.3055 30.2168 48.3107 30.2361C48.3184 30.2651 48.3217 30.316 48.3198 30.3476C48.325 30.3669 48.3301 30.3862 48.3353 30.4055C48.3605 30.4609 48.3508 30.4635 48.3353 30.4055C48.3353 30.4055 48.3327 30.3959 48.3301 30.3862C48.3353 30.4055 48.3431 30.4345 48.3482 30.4538C48.356 30.4828 48.3611 30.5021 48.3689 30.5311C48.3986 30.5646 48.4256 30.5884 48.4553 30.6219C48.5158 30.616 48.5719 30.6321 48.6428 30.6649C48.6621 30.6597 48.6937 30.6616 48.7156 30.6661C48.798 30.6648 48.883 30.6731 48.9681 30.6814C48.9971 30.6736 49.026 30.6659 49.055 30.6581C49.1033 30.6452 49.149 30.6226 49.1922 30.5904C49.2115 30.5852 49.2353 30.5581 49.2546 30.553C49.5262 30.2526 49.7793 30.1538 50.1631 30.0408C50.1825 30.0356 50.2114 30.0279 50.2308 30.0227C50.3299 30.0065 50.4414 29.9974 50.5554 29.998C50.5747 29.9928 50.6089 30.0044 50.6308 30.0088C50.6597 30.0011 50.6913 30.003 50.7203 29.9952C50.7396 29.9901 50.7589 29.9849 50.7783 29.9797C50.8753 29.6846 50.9233 29.3612 50.7454 29.1604L50.7628 29.1868Z" fill="white"/>
<path d="M46.8757 42.4003C46.9311 42.3752 46.942 42.2998 46.9658 42.2727C46.9799 42.2482 46.9967 42.2334 47.0108 42.2089C47.0108 42.2089 47.0108 42.2089 47.0082 42.1993L47.0005 42.1703C47.0005 42.1703 46.9991 42.0878 46.9959 42.0369C46.9933 42.0273 46.9881 42.008 46.9855 41.9983C46.9829 41.9886 46.9778 41.9693 46.9752 41.9597C46.9726 41.95 46.9674 41.9307 46.9649 41.921C46.9623 41.9114 46.9571 41.892 46.9545 41.8824L46.9493 41.8631C46.9442 41.8437 46.9557 41.8096 46.9506 41.7903C46.948 41.7806 46.9428 41.7613 46.9499 41.749C46.8905 41.5269 46.8858 41.3935 46.7833 41.2036C46.7807 41.1939 46.7781 41.1843 46.7729 41.1649L46.7678 41.1456C46.7678 41.1456 46.7678 41.1456 46.7555 41.1385C46.7336 41.134 46.7214 41.127 46.6969 41.1128C46.6969 41.1128 46.6872 41.1154 46.675 41.1083C46.6653 41.1109 46.6312 41.0993 46.6215 41.1019C46.6215 41.1019 46.6022 41.1071 46.5925 41.1097C46.5636 41.1174 46.5636 41.1174 46.5925 41.1097C46.5925 41.1097 46.5925 41.1097 46.6022 41.1071C46.5925 41.1097 46.5732 41.1148 46.5636 41.1174C46.5539 41.12 46.5346 41.1252 46.5249 41.1278C46.5056 41.1329 46.4863 41.1381 46.4695 41.1529C46.4676 41.1845 46.4535 41.209 46.42 41.2386C46.4226 41.2483 46.4155 41.2606 46.4084 41.2728C46.3969 41.3069 46.3879 41.3508 46.3667 41.3875C46.3692 41.3972 46.3744 41.4165 46.3673 41.4287C46.3725 41.448 46.3803 41.477 46.3854 41.4963C46.388 41.506 46.3932 41.5253 46.3958 41.535C46.5054 41.7127 46.5197 41.8434 46.5108 42.0425C46.5134 42.0521 46.516 42.0618 46.5089 42.074C46.5025 42.1275 46.4935 42.1713 46.4801 42.237C46.4826 42.2467 46.4659 42.2615 46.4685 42.2712C46.4711 42.2809 46.4666 42.3028 46.4595 42.315C46.4595 42.315 46.4647 42.3343 46.4673 42.344C46.5949 42.4341 46.7463 42.4971 46.8667 42.4442L46.8757 42.4003Z" fill="white"/>
<path d="M58.4755 26.0159C58.5553 26.0049 58.5817 25.9875 58.6107 25.9797C58.63 25.9746 58.6519 25.9791 58.6738 25.9835L58.6932 25.9784L58.6906 25.9687L58.7099 25.9635C58.7099 25.9635 58.7125 25.9732 58.7247 25.9803C58.7891 25.9113 58.8664 25.8906 58.9906 25.7746L59.0099 25.7694L59.0196 25.7668C59.0196 25.7668 59.0144 25.7475 59.0215 25.7353L59.0446 25.667L59.0562 25.6328C59.0562 25.6328 59.0626 25.5794 59.0697 25.5671L59.0787 25.5233C59.0902 25.4891 59.078 25.4821 59.0787 25.5233C59.0787 25.5233 59.0787 25.5233 59.0812 25.533C59.0787 25.5233 59.0831 25.5014 59.0902 25.4891L59.0966 25.4357L59.0785 25.3681C59.0785 25.3681 59.0366 25.3275 59.007 25.294L58.9728 25.2825C58.9728 25.2825 58.9116 25.2471 58.8626 25.2188C58.8433 25.224 58.8336 25.2265 58.8214 25.2195C58.8021 25.2246 58.7731 25.2324 58.7441 25.2401C58.7345 25.2427 58.7248 25.2453 58.7055 25.2505C58.5407 25.4084 58.4318 25.4272 58.2233 25.5762L58.1898 25.6058C58.137 25.6406 58.0894 25.6948 58.0321 25.7515L57.9915 25.7934C57.9915 25.7934 57.9703 25.8301 57.9632 25.8424C57.9562 25.8546 57.9491 25.8669 57.9517 25.8765C58.078 26.0394 58.2559 26.085 58.4253 26.0604L58.4755 26.0159Z" fill="white"/>
<path d="M29.1606 43.278C29.191 43.3527 29.2251 43.3643 29.2425 43.3907C29.2477 43.41 29.2529 43.4294 29.2606 43.4583L29.2799 43.4532L29.2851 43.4725L29.2877 43.4821L29.2903 43.4918L29.298 43.5208C29.298 43.5208 29.298 43.5208 29.3032 43.5401C29.396 43.5774 29.436 43.6495 29.5803 43.7248L29.5855 43.7441L29.5977 43.7512L29.6074 43.7486C29.6074 43.7486 29.6171 43.746 29.6267 43.7434L29.6364 43.7408L29.7092 43.742L29.7381 43.7343C29.7575 43.7291 29.7864 43.7214 29.8084 43.7259L29.847 43.7155C29.8856 43.7052 29.8856 43.7052 29.847 43.7155C29.847 43.7155 29.847 43.7155 29.8373 43.7181C29.847 43.7155 29.8663 43.7104 29.8856 43.7052L29.9339 43.6923L29.9964 43.6549C29.9983 43.6233 30.0124 43.5988 30.0433 43.5595L30.0356 43.5305C30.0356 43.5305 30.0658 43.45 30.0722 43.3965C30.067 43.3772 30.0644 43.3675 30.0619 43.3579C30.0567 43.3385 30.0393 43.3121 30.0244 43.2954C30.0244 43.2954 30.0096 43.2787 29.9974 43.2716C29.7944 43.1706 29.7344 43.0624 29.5307 42.9202L29.4914 42.8894C29.4398 42.8514 29.3812 42.8257 29.3077 42.7832L29.2613 42.7646C29.2613 42.7646 29.2175 42.7556 29.2053 42.7485C29.186 42.7537 29.186 42.7537 29.1641 42.7492C29.0457 42.9258 29.0632 43.1074 29.1335 43.2542L29.1606 43.278Z" fill="white"/>
<path d="M69.174 18.2576C69.129 18.3214 69.1271 18.353 69.1032 18.38C69.0865 18.3949 69.0698 18.4097 69.053 18.4245L69.0582 18.4439L69.0608 18.4535L69.0634 18.4632L69.044 18.4683C69.044 18.4683 69.0466 18.478 69.037 18.4806C69.0409 18.5727 68.9985 18.6462 68.9889 18.804L68.9748 18.8285L68.9651 18.8311C68.9651 18.8311 68.9703 18.8504 68.9729 18.86L68.9754 18.8697L68.9935 18.9373L69.0206 18.9611C69.0206 18.9611 69.0432 19.0069 69.058 19.0236L69.078 19.0597C69.1077 19.0931 69.0954 19.086 69.078 19.0597C69.078 19.0597 69.078 19.0597 69.0754 19.05C69.078 19.0597 69.0928 19.0764 69.1051 19.0835L69.1373 19.1266L69.2011 19.1716C69.2011 19.1716 69.2591 19.1561 69.3055 19.1748L69.3441 19.1644C69.3441 19.1644 69.4214 19.1438 69.4697 19.1308C69.489 19.1257 69.4961 19.1134 69.5032 19.1012C69.5199 19.0864 69.5341 19.0619 69.5482 19.0374C69.5482 19.0374 69.5527 19.0155 69.5598 19.0032C69.5635 18.7849 69.6394 18.6817 69.6766 18.4337L69.6856 18.3899C69.699 18.3242 69.7029 18.261 69.7015 18.1786L69.6886 18.1303C69.6886 18.1303 69.6976 18.0865 69.6924 18.0672C69.6872 18.0478 69.6872 18.0478 69.6821 18.0285C69.4778 18.0003 69.3143 18.0855 69.2171 18.2254L69.174 18.2576Z" fill="white"/>
<path d="M33.3394 38.6613C33.2944 38.7251 33.2924 38.7567 33.2783 38.7811C33.2616 38.796 33.2448 38.8108 33.2281 38.8256L33.2333 38.8449L33.2358 38.8546L33.2384 38.8643L33.2191 38.8694C33.2191 38.8694 33.2217 38.8791 33.2146 38.8913C33.2185 38.9835 33.1761 39.0569 33.1691 39.2244L33.1743 39.2437L33.1453 39.2515C33.1453 39.2515 33.1505 39.2708 33.1531 39.2805L33.1557 39.2901L33.1738 39.3577L33.2008 39.3816C33.2008 39.3816 33.2234 39.4273 33.2382 39.444L33.2582 39.4801C33.2879 39.5135 33.2756 39.5065 33.2582 39.4801C33.2582 39.4801 33.2582 39.4801 33.2557 39.4704C33.2582 39.4801 33.2731 39.4968 33.2853 39.5039L33.315 39.5374L33.3762 39.5727C33.3762 39.5727 33.4342 39.5572 33.4805 39.5759L33.5192 39.5655C33.5192 39.5655 33.5965 39.5449 33.6448 39.5319C33.6641 39.5268 33.6712 39.5145 33.6782 39.5023C33.695 39.4874 33.7091 39.463 33.7233 39.4385C33.7233 39.4385 33.7278 39.4166 33.7349 39.4043C33.736 39.1763 33.8048 39.0854 33.842 38.8374L33.851 38.7936C33.8644 38.7279 33.8586 38.6673 33.8669 38.5823L33.854 38.534C33.854 38.534 33.863 38.4902 33.8578 38.4708C33.8526 38.4515 33.8526 38.4515 33.8475 38.4322C33.6432 38.404 33.4823 38.4988 33.3851 38.6387L33.3394 38.6613Z" fill="white"/>
<path d="M71.9614 25.969C71.9614 25.969 71.9512 26.0856 71.9493 26.1172C71.9545 26.1365 71.9403 26.161 71.9358 26.1829L71.9436 26.2119L71.9887 26.3033L71.9965 26.3323L72.0042 26.3613L72.012 26.3903L72.0172 26.4096C72.0172 26.4096 72.0275 26.4482 72.0204 26.4605L72.0108 26.463C72.0314 26.5403 72.025 26.5938 71.9182 26.7362L71.8892 26.744C71.8892 26.744 71.8822 26.7562 71.8725 26.7588L71.8777 26.7781L71.8739 26.8413L71.879 26.8606L71.8694 26.8632C71.8719 26.8728 71.87 26.9044 71.8726 26.9141L71.8804 26.943C71.8881 26.972 71.8881 26.972 71.8804 26.943L71.8778 26.9334L71.8881 26.972L71.8985 27.0107L71.9404 27.0512C71.9404 27.0512 72.0035 27.055 72.0499 27.0737L72.0982 27.0607C72.0982 27.0607 72.1903 27.0568 72.2605 27.0484C72.2798 27.0432 72.2966 27.0284 72.3133 27.0136C72.3397 26.9961 72.3732 26.9665 72.397 26.9394C72.4066 26.9368 72.4208 26.9123 72.4349 26.8879C72.5468 26.6095 72.5338 26.4059 72.4717 26.1741L72.4614 26.1355C72.4614 26.1355 72.433 26.0292 72.4123 25.9519L72.402 25.9133C72.402 25.9133 72.3942 25.8843 72.3891 25.865C72.3865 25.8553 72.3839 25.8456 72.3813 25.836C72.2209 25.8168 72.0734 25.8459 72.0097 25.9561L71.9614 25.969Z" fill="white"/>
<path d="M37.5023 47.4128C37.5248 47.3033 37.4629 47.2267 37.4596 47.1758C37.4615 47.1442 37.4731 47.1101 37.4846 47.0759L37.4672 47.0495C37.4595 47.0206 37.4376 47.0161 37.4517 46.9916C37.4517 46.9916 37.4491 46.9819 37.4465 46.9723C37.4465 46.9723 37.444 46.9626 37.4414 46.9529L37.4362 46.9336C37.4362 46.9336 37.4433 46.9214 37.4478 46.8995L37.4619 46.875C37.4619 46.875 37.4735 46.8408 37.4973 46.8138L37.5282 46.7744C37.5795 46.5019 37.7391 46.3246 37.8355 45.9883L37.8638 45.9393C37.8638 45.9393 37.8805 45.9245 37.8876 45.9123L37.8824 45.8929C37.8824 45.8929 37.8773 45.8736 37.8747 45.864L37.8695 45.8446C37.8618 45.8157 37.8514 45.777 37.8411 45.7384L37.8282 45.6901C37.8204 45.6611 37.8004 45.625 37.7856 45.6083L37.7533 45.5652C37.7211 45.522 37.7114 45.5246 37.7533 45.5652C37.7533 45.5652 37.7559 45.5748 37.7585 45.5845C37.7533 45.5652 37.7289 45.551 37.714 45.5343L37.6695 45.4841L37.5645 45.4397C37.5065 45.4552 37.4582 45.4681 37.3784 45.4792L37.3159 45.5166C37.2483 45.5347 37.1762 45.5746 37.0848 45.6198C37.0584 45.6372 37.0442 45.6617 37.0178 45.6791C36.9869 45.7184 36.956 45.7578 36.9277 45.8067C36.9136 45.8312 36.9091 45.8531 36.8949 45.8776C36.8192 46.2912 36.6358 46.4956 36.5963 47.0444C36.5944 47.076 36.5951 47.1172 36.6028 47.1462C36.61 47.2892 36.6488 47.4341 36.7146 47.6028C36.7224 47.6318 36.7424 47.6679 36.7598 47.6943C36.7895 47.7277 36.8095 47.7638 36.8295 47.7998C36.8469 47.8262 36.8617 47.843 36.8862 47.8571C37.2353 47.8465 37.4484 47.6757 37.4978 47.4347L37.5023 47.4128Z" fill="white"/>
<path d="M34.1891 77.2425C34.5371 77.4599 34.9895 77.6805 35.4853 77.4444C36.0153 77.2198 36.4873 77.0107 36.9612 76.7701C37.9116 76.2984 38.8104 75.7888 39.6603 75.2509C41.3671 74.1629 42.9044 72.9442 44.3392 71.6908C47.1992 69.1867 49.6494 66.5437 52.2167 64.5319C52.9074 63.902 53.5724 63.3308 54.2116 62.8181C55.0465 62.1083 55.9008 61.3932 56.7601 60.6975C57.6292 59.9992 58.5079 59.2983 59.4137 58.6212C60.3195 57.9441 61.2472 57.2715 62.2091 56.6105C64.8484 55.2937 67.5318 53.4061 70.2226 51.2371C71.5681 50.1525 72.9218 48.983 74.2774 47.7818C74.954 47.1764 75.6305 46.571 76.3044 45.956C76.5194 45.7535 76.934 45.4459 77.1599 45.1681C77.4025 44.8755 77.5787 44.5281 77.6648 44.1532C77.8342 43.3936 77.6152 42.6137 77.0962 42.0279C75.6263 40.4026 74.1563 38.7772 72.7134 37.1757C71.3369 35.6289 70.0042 34.0911 68.7733 32.5467C68.3478 32.0395 67.9345 31.5393 67.5089 31.032C67.0066 30.4314 66.077 30.2453 65.4041 30.6324C65.2432 30.7272 65.0874 30.8413 64.9509 30.9503C64.2402 31.5441 63.5534 32.1109 62.8929 32.6602C61.2437 34.1573 59.4973 35.6389 57.6897 37.0852C55.882 38.5315 54.0183 39.9617 52.1539 41.3507C46.196 46.05 37.2599 51.3804 32.0459 56.7709C31.0983 57.5627 30.1411 58.3571 29.1839 59.1514L26.8793 61.0619C26.3058 61.588 25.6479 62.147 24.9372 62.7408C24.6906 62.9413 24.437 63.1541 24.1808 63.3572C23.8963 63.6093 23.6826 63.8942 23.5476 64.2409C23.2706 64.9464 23.4368 65.7612 23.9539 66.3785C24.9701 67.7008 26.0334 69.083 27.0593 70.4027C28.0381 71.6625 28.9821 72.8696 29.8525 73.8789C31.5663 75.8738 33.4048 76.7484 34.2084 77.2373L34.1891 77.2425Z" fill="#2D2D2D" stroke="#231F20" stroke-width="2" stroke-miterlimit="10"/>
<path d="M64.8749 49.0857C64.9851 49.1494 65.1152 49.0939 65.195 49.0828C65.2459 49.0796 65.2968 49.0763 65.3503 49.0827C65.3503 49.0827 65.36 49.0801 65.3696 49.0776C65.3889 49.0724 65.4031 49.0479 65.4198 49.0331C65.4893 48.9834 65.5563 48.9241 65.6258 48.8744C65.6548 48.8667 65.669 48.8422 65.6954 48.8248C65.7217 48.8074 65.7385 48.7925 65.7649 48.7751C65.7939 48.7674 65.808 48.7429 65.8344 48.7255C65.8634 48.7177 65.8775 48.6932 65.9039 48.6758C65.9233 48.6707 65.9303 48.6584 65.9471 48.6436C65.9902 48.6113 66.0359 48.5888 66.0816 48.5662C66.1106 48.5584 66.1274 48.5436 66.1538 48.5262C66.4659 48.1839 66.679 48.013 66.8668 47.6315C66.8809 47.607 66.8977 47.5922 66.9144 47.5774C66.9241 47.5748 66.9408 47.56 66.9479 47.5477C66.9479 47.5477 66.9453 47.5381 66.9427 47.5284C66.9427 47.5284 66.9375 47.5091 66.9324 47.4898L66.9272 47.4704C66.9169 47.4318 66.9065 47.3932 66.8962 47.3545C66.891 47.3352 66.8884 47.3255 66.8833 47.3062C66.8755 47.2772 66.8529 47.2315 66.8355 47.2051C66.8303 47.1858 66.8155 47.1691 66.8007 47.1523C66.7684 47.1092 66.7562 47.1021 66.8007 47.1523C66.8007 47.1523 66.8033 47.162 66.8059 47.1717C66.791 47.1549 66.7736 47.1285 66.7588 47.1118C66.744 47.095 66.7265 47.0686 66.7117 47.0519C66.675 47.0307 66.6408 47.0191 66.6041 46.9979C66.5461 47.0134 66.4882 47.0289 66.4128 47.018C66.3935 47.0232 66.3645 47.0309 66.3355 47.0387C66.2582 47.0594 66.181 47.08 66.0844 47.1059C66.0554 47.1136 66.0412 47.1381 66.0148 47.1555C65.9717 47.1878 65.9382 47.2174 65.9073 47.2567C65.8906 47.2716 65.8764 47.2961 65.8623 47.3206C65.6938 47.6969 65.4904 47.8652 65.1472 48.0915C65.1279 48.0967 65.1015 48.1141 65.0848 48.1289C64.9933 48.1741 64.9019 48.2193 64.7886 48.2599C64.7596 48.2677 64.7403 48.2729 64.7113 48.2806C64.6823 48.2884 64.6533 48.2961 64.6269 48.3135C64.6076 48.3187 64.5909 48.3335 64.5838 48.3458C64.5841 48.6563 64.6378 48.9731 64.8704 49.1076L64.8749 49.0857Z" fill="white"/>
<path d="M49.3056 48.8514C49.2121 48.7728 49.0646 48.8019 48.9918 48.8007C48.9384 48.7943 48.8946 48.7853 48.8385 48.7693L48.8192 48.7744C48.7999 48.7796 48.7806 48.7848 48.7638 48.7996C48.6917 48.8396 48.6099 48.8822 48.5378 48.9222C48.5088 48.9299 48.4824 48.9473 48.456 48.9648C48.4271 48.9725 48.4007 48.9899 48.3743 49.0073C48.3453 49.0151 48.3285 49.0299 48.3022 49.0473C48.2732 49.0551 48.2564 49.0699 48.23 49.0873C48.2107 49.0925 48.2011 49.0951 48.1817 49.1002C48.1334 49.1132 48.0877 49.1357 48.0298 49.1513C48.0008 49.159 47.9815 49.1642 47.9525 49.1719C47.5836 49.4569 47.3479 49.5821 47.0989 49.9282C47.0822 49.943 47.0654 49.9579 47.0487 49.9727C47.039 49.9753 47.0197 49.9804 47.0127 49.9927C47.0127 49.9927 47.0152 50.0023 47.0178 50.012C47.0178 50.012 47.023 50.0313 47.0159 50.0436L47.0211 50.0629C47.0314 50.1015 47.0224 50.1453 47.0231 50.1866C47.0283 50.2059 47.0309 50.2155 47.036 50.2349C47.0438 50.2638 47.0567 50.3121 47.0645 50.3411C47.0696 50.3604 47.0748 50.3798 47.08 50.3991C47.1148 50.4519 47.0955 50.4571 47.08 50.3991C47.08 50.3991 47.0774 50.3894 47.0748 50.3798C47.08 50.3991 47.0974 50.4255 47.1122 50.4422C47.12 50.4712 47.1348 50.4879 47.1496 50.5047C47.1767 50.5285 47.2134 50.5497 47.2431 50.5832C47.301 50.5677 47.3642 50.5715 47.4351 50.6043C47.464 50.5965 47.4834 50.5914 47.5123 50.5836C47.5896 50.5629 47.6747 50.5713 47.7668 50.5673C47.7958 50.5596 47.8247 50.5518 47.8415 50.537C47.8872 50.5144 47.9303 50.4822 47.9638 50.4525C47.9805 50.4377 48.0069 50.4203 48.0237 50.4054C48.2534 50.0645 48.489 49.9393 48.8599 49.778C48.8792 49.7728 48.9082 49.7651 48.9275 49.7599C49.0241 49.7341 49.1304 49.7056 49.2489 49.6843C49.2779 49.6765 49.2998 49.681 49.3314 49.6829C49.3604 49.6752 49.3893 49.6674 49.4183 49.6597C49.4376 49.6545 49.457 49.6493 49.4763 49.6442C49.5295 49.3401 49.5363 49.0174 49.332 48.8339L49.3056 48.8514Z" fill="white"/>
<path d="M47.2343 62.4693C47.2871 62.4345 47.2883 62.3617 47.2999 62.3276C47.3141 62.3031 47.3185 62.2812 47.3327 62.2567C47.3327 62.2567 47.3327 62.2567 47.3301 62.247C47.3275 62.2374 47.3249 62.2277 47.3224 62.218C47.312 62.1794 47.2991 62.1311 47.2888 62.0925C47.2862 62.0828 47.281 62.0635 47.2784 62.0538C47.2758 62.0441 47.2707 62.0248 47.2681 62.0152C47.2655 62.0055 47.2603 61.9862 47.2578 61.9765C47.2552 61.9669 47.25 61.9476 47.2474 61.9379C47.2474 61.9379 47.2422 61.9186 47.2397 61.9089C47.2319 61.8799 47.2267 61.8606 47.2287 61.829C47.2261 61.8194 47.2209 61.8001 47.2183 61.7904C47.1396 61.5734 47.106 61.4478 46.977 61.2753C46.9744 61.2656 46.9718 61.2559 46.9667 61.2366L46.9615 61.2173C46.9615 61.2173 46.9615 61.2173 46.9396 61.2128C46.9203 61.218 46.9054 61.2012 46.8835 61.1967C46.8835 61.1967 46.8642 61.2019 46.8616 61.1923C46.852 61.1948 46.8204 61.1929 46.8082 61.1859C46.8082 61.1859 46.7888 61.191 46.7792 61.1936C46.7502 61.2014 46.7502 61.2014 46.7792 61.1936C46.7792 61.1936 46.7792 61.1936 46.7888 61.191C46.7792 61.1936 46.7599 61.1988 46.7502 61.2014C46.7405 61.2039 46.7212 61.2091 46.7116 61.2117C46.6922 61.2169 46.6755 61.2317 46.6588 61.2465C46.6569 61.2781 46.6427 61.3026 46.6215 61.3393C46.6241 61.349 46.6266 61.3586 46.6221 61.3805C46.6132 61.4243 46.6016 61.4585 46.5926 61.5023C46.5952 61.512 46.6004 61.5313 46.6029 61.541C46.6081 61.5603 46.6159 61.5893 46.6236 61.6182C46.6262 61.6279 46.6314 61.6472 46.634 61.6569C46.77 61.8172 46.7939 61.9453 46.8166 62.1463C46.8192 62.1559 46.8218 62.1656 46.827 62.1849C46.8302 62.2358 46.8238 62.2893 46.82 62.3524C46.8226 62.3621 46.8155 62.3743 46.811 62.3962C46.8136 62.4059 46.8188 62.4252 46.8117 62.4375C46.8117 62.4375 46.8169 62.4568 46.8195 62.4664C46.9612 62.532 47.1101 62.5854 47.2253 62.5131L47.2343 62.4693Z" fill="white"/>
<path d="M56.5181 44.6652C56.5954 44.6446 56.6192 44.6175 56.6456 44.6001C56.6649 44.5949 56.6842 44.5897 56.7158 44.5916L56.7254 44.5891L56.7228 44.5794L56.7518 44.5716C56.7518 44.5716 56.7518 44.5716 56.7641 44.5787C56.8162 44.5027 56.8909 44.4723 57.0003 44.3396L57.0196 44.3344L57.0293 44.3318C57.0293 44.3318 57.0241 44.3125 57.0215 44.3028L57.0189 44.2932L57.0324 44.2274L57.0247 44.1985L57.044 44.1933C57.0388 44.174 57.0504 44.1398 57.0478 44.1302L57.0471 44.0889C57.049 44.0574 57.0368 44.0503 57.0471 44.0889C57.0471 44.0889 57.0471 44.0889 57.0497 44.0986C57.0471 44.0889 57.0419 44.0696 57.0464 44.0477L57.0335 43.9994L57.0154 43.9318C56.9909 43.9176 56.9665 43.9035 56.9368 43.87L56.9026 43.8584C56.9026 43.8584 56.8318 43.8256 56.7854 43.807C56.766 43.8122 56.7564 43.8148 56.7467 43.8173C56.7274 43.8225 56.6984 43.8303 56.6694 43.838C56.6598 43.8406 56.6501 43.8432 56.6334 43.858C56.4931 44.0301 56.3798 44.0708 56.1982 44.2436L56.1648 44.2732C56.1146 44.3177 56.0766 44.3693 56.0219 44.4357L55.991 44.475C55.991 44.475 55.9698 44.5117 55.9653 44.5336C55.9705 44.5529 55.9608 44.5555 55.9537 44.5678C56.0968 44.7158 56.2888 44.7369 56.4505 44.6833L56.5181 44.6652Z" fill="white"/>
<path d="M29.7935 65.7272C29.8309 65.7896 29.8747 65.7986 29.8921 65.825C29.8973 65.8443 29.9024 65.8636 29.9198 65.89L29.9392 65.8849L29.9443 65.9042L29.9469 65.9138L29.9495 65.9235L29.9572 65.9525C29.9572 65.9525 29.9572 65.9525 29.9624 65.9718C30.05 65.9898 30.0997 66.0593 30.2608 66.1197L30.2659 66.139L30.2879 66.1435L30.2975 66.141C30.2975 66.141 30.3072 66.1384 30.3168 66.1358L30.3265 66.1332L30.3941 66.1151L30.4257 66.117C30.4257 66.117 30.474 66.1041 30.4933 66.0989L30.5319 66.0886C30.5706 66.0782 30.5706 66.0782 30.5319 66.0886C30.5319 66.0886 30.5319 66.0886 30.5223 66.0912C30.5319 66.0886 30.5513 66.0834 30.5706 66.0782L30.6189 66.0653L30.6762 66.0086C30.6684 65.9796 30.6922 65.9525 30.7135 65.9158L30.7031 65.8772C30.7031 65.8772 30.7237 65.7992 30.7204 65.7483C30.7152 65.729 30.7127 65.7193 30.7101 65.7097C30.7049 65.6904 30.6778 65.6665 30.663 65.6498C30.663 65.6498 30.6482 65.6331 30.6359 65.626C30.4188 65.5495 30.3517 65.4536 30.1268 65.3481L30.0901 65.3269C30.0901 65.3269 29.9728 65.2755 29.8923 65.2453L29.8459 65.2266C29.8459 65.2266 29.8021 65.2176 29.7827 65.2228C29.7634 65.228 29.7634 65.228 29.7441 65.2331C29.6502 65.4239 29.6871 65.6003 29.7864 65.7394L29.7935 65.7272Z" fill="white"/>
<path d="M66.0641 35.5384C66.019 35.6022 66.0294 35.6409 66.0152 35.6654C65.9985 35.6802 65.994 35.7021 65.9676 35.7195L65.9728 35.7388L65.9753 35.7485L65.9779 35.7581L65.9586 35.7633C65.9586 35.7633 65.9638 35.7826 65.9541 35.7852C65.9774 35.8722 65.9375 35.9553 65.9499 36.1176L65.955 36.1369L65.9357 36.1421C65.9357 36.1421 65.9409 36.1614 65.9435 36.1711L65.9461 36.1807L65.9835 36.2432L65.9912 36.2722L66.0009 36.2696C66.006 36.2889 66.0331 36.3127 66.0454 36.3198L66.075 36.3533C66.1047 36.3867 66.1021 36.3771 66.075 36.3533C66.075 36.3533 66.075 36.3533 66.0724 36.3436L66.1021 36.3771L66.1414 36.408L66.2123 36.4408C66.2123 36.4408 66.2703 36.4253 66.3141 36.4342L66.3527 36.4239C66.3527 36.4239 66.4274 36.3936 66.4731 36.371C66.4899 36.3562 66.4873 36.3465 66.4969 36.3439C66.5111 36.3194 66.5252 36.2949 66.5297 36.273C66.5297 36.273 66.5342 36.2511 66.5413 36.2389C66.5231 36.016 66.5771 35.9084 66.5827 35.6585L66.5724 35.6198C66.5858 35.5541 66.5774 35.4839 66.5761 35.4015L66.5631 35.3532C66.5631 35.3532 66.5528 35.3145 66.5476 35.2952C66.5425 35.2759 66.5425 35.2759 66.5373 35.2566C66.3286 35.2503 66.185 35.3715 66.0975 35.5088L66.0641 35.5384Z" fill="white"/>
<path d="M33.314 60.5825C33.2715 60.656 33.2793 60.685 33.2651 60.7095C33.2484 60.7243 33.2439 60.7462 33.2271 60.761L33.2323 60.7804L33.2349 60.79L33.2375 60.7997L33.2182 60.8048C33.2182 60.8048 33.2233 60.8242 33.2137 60.8267C33.2369 60.9137 33.1971 60.9968 33.2191 61.1565L33.2243 61.1759L33.2049 61.181C33.2049 61.181 33.2101 61.2004 33.2127 61.21L33.2153 61.2197L33.2527 61.2821L33.2604 61.3111L33.2701 61.3085C33.2753 61.3279 33.3023 61.3517 33.3146 61.3587L33.3442 61.3922C33.3713 61.416 33.3713 61.416 33.3442 61.3922C33.3442 61.3922 33.3442 61.3922 33.3417 61.3826L33.3713 61.416L33.4106 61.4469L33.4815 61.4797C33.4815 61.4797 33.5395 61.4642 33.5807 61.4635L33.6193 61.4532C33.6193 61.4532 33.6915 61.4132 33.7398 61.4003C33.7565 61.3854 33.7539 61.3758 33.761 61.3635C33.7751 61.3391 33.7796 61.3171 33.7938 61.2927C33.7938 61.2927 33.7983 61.2708 33.8053 61.2585C33.7775 61.0382 33.8315 60.9306 33.8371 60.6807L33.8268 60.642C33.8402 60.5763 33.8318 60.5061 33.8208 60.4262L33.8079 60.3779C33.8079 60.3779 33.7975 60.3393 33.7924 60.32C33.7872 60.3007 33.7872 60.3007 33.782 60.2813C33.5759 60.2847 33.4298 60.3963 33.3449 60.5432L33.314 60.5825Z" fill="white"/>
<path d="M69.8803 42.7989C69.8803 42.7989 69.8894 42.9103 69.8875 42.9419C69.8926 42.9612 69.8978 42.9805 69.8836 43.005L69.8914 43.034L69.9533 43.1106L69.961 43.1396L69.9785 43.166L69.9862 43.1949L69.9914 43.2143C69.9914 43.2143 70.0017 43.2529 70.0043 43.2626C70.0443 43.3347 70.0379 43.3881 69.9459 43.5473L69.9266 43.5525C69.9266 43.5525 69.9221 43.5744 69.9124 43.577L69.9176 43.5963L69.9234 43.6568L69.9286 43.6762C69.9312 43.6858 69.939 43.7148 69.9415 43.7245L69.9493 43.7534C69.957 43.7824 69.957 43.7824 69.9493 43.7534L69.9467 43.7438L69.957 43.7824L69.9674 43.8211L70.0093 43.8616C70.0093 43.8616 70.0821 43.8629 70.1136 43.8648L70.1619 43.8518C70.1619 43.8518 70.2489 43.8286 70.3165 43.8105C70.3358 43.8053 70.35 43.7808 70.3596 43.7782C70.3834 43.7512 70.4073 43.7241 70.4311 43.697C70.4382 43.6848 70.4452 43.6725 70.4594 43.648C70.5371 43.3581 70.4925 43.1527 70.3944 42.9408L70.3841 42.9022C70.3841 42.9022 70.3389 42.8107 70.3086 42.736L70.2982 42.6974C70.2982 42.6974 70.2905 42.6684 70.2756 42.6517C70.2731 42.642 70.2705 42.6324 70.2582 42.6253C70.0933 42.628 69.9607 42.6738 69.8996 42.7937L69.8803 42.7989Z" fill="white"/>
<path d="M38.6089 68.6896C38.6191 68.573 38.5501 68.5086 38.5372 68.4603C38.5294 68.4314 38.5384 68.3875 38.55 68.3534L38.5229 68.3296C38.5151 68.3006 38.4932 68.2961 38.4881 68.2768C38.4881 68.2768 38.4855 68.2671 38.4829 68.2575C38.4829 68.2575 38.4803 68.2478 38.4777 68.2382L38.4726 68.2188C38.4726 68.2188 38.47 68.2092 38.4841 68.1847L38.479 68.1654C38.479 68.1654 38.4976 68.119 38.5214 68.0919L38.5427 68.0552C38.5624 67.7807 38.6853 67.5822 38.7378 67.2369L38.7635 67.1783C38.7635 67.1783 38.7777 67.1538 38.7874 67.1512L38.7822 67.1319C38.7822 67.1319 38.777 67.1126 38.7744 67.1029L38.7693 67.0836C38.7615 67.0546 38.7415 67.0186 38.7241 66.9922L38.7138 66.9535L38.7041 66.9561C38.6964 66.9271 38.6667 66.8936 38.6519 66.8769L38.6196 66.8338C38.5874 66.7906 38.5777 66.7932 38.6196 66.8338C38.6196 66.8338 38.6196 66.8338 38.6345 66.8505C38.6293 66.8312 38.6048 66.817 38.59 66.8003L38.5358 66.7527L38.4334 66.718C38.3806 66.7528 38.3323 66.7657 38.2524 66.7767L38.19 66.8141C38.1275 66.8516 38.0651 66.889 37.9762 66.9438C37.9621 66.9683 37.9382 66.9954 37.9215 67.0102C37.8932 67.0592 37.872 67.0959 37.8437 67.1449C37.8392 67.1668 37.825 67.1913 37.8135 67.2254C37.7912 67.6454 37.6446 67.871 37.6778 68.4211C37.6759 68.4527 37.6959 68.4887 37.7037 68.5177C37.7302 68.6555 37.7786 68.7978 37.8709 68.9491C37.8786 68.9781 37.9057 69.0019 37.9257 69.038C37.9553 69.0715 37.985 69.1049 38.0121 69.1287C38.0391 69.1526 38.0514 69.1596 38.0785 69.1834C38.4269 69.1316 38.6103 68.9273 38.6185 68.687L38.6089 68.6896Z" fill="white"/>
</svg>
