<svg width="78" height="67" viewBox="0 0 78 67" fill="none" xmlns="http://www.w3.org/2000/svg">
<g clip-path="url(#clip0_445_647)">
<path d="M25.0099 36.86C27.0199 33.54 28.0499 30.69 27.0899 26.53C25.7099 20.53 17.8699 15.65 11.6299 17.15C2.40988 19.36 -0.46012 27.21 1.67988 34.43C2.89988 38.54 6.42988 39.78 9.55988 41.33C11.0699 42.08 11.7399 44.04 10.7699 45.42C7.49988 50.08 7.36988 54.36 8.86988 58.25C11.1799 64.23 18.0099 66.83 24.0099 64.99C31.3399 62.74 36.3499 55.95 34.1799 48.74C33.0799 45.08 29.3899 42.19 26.1999 40.65C24.7699 39.96 24.1799 38.22 24.9999 36.86H25.0099Z" fill="white"/>
<path d="M20.11 66.58C14.76 66.58 9.82998 63.54 7.93998 58.62C6.13998 53.96 6.81997 49.33 9.94998 44.85C10.21 44.48 10.29 44.01 10.17 43.53C10.03 42.97 9.62998 42.49 9.11998 42.23C8.76998 42.06 8.40998 41.89 8.05998 41.72C5.18998 40.35 1.93998 38.79 0.729975 34.72C-0.530025 30.49 -0.140025 26.28 1.82998 22.87C3.75998 19.53 7.06997 17.21 11.4 16.17C14.64 15.39 18.42 16.14 21.78 18.21C25.06 20.24 27.36 23.19 28.07 26.3C29.1 30.79 27.99 33.87 25.87 37.38C25.64 37.77 25.58 38.22 25.71 38.66C25.85 39.13 26.19 39.53 26.65 39.75C28.26 40.53 33.65 43.45 35.15 48.45C37.37 55.85 32.71 63.37 24.31 65.95C22.92 66.38 21.5 66.58 20.12 66.58H20.11ZM14.02 17.87C13.28 17.87 12.55 17.95 11.86 18.12C8.06997 19.03 5.19998 21.02 3.54998 23.87C1.85998 26.8 1.53998 30.45 2.63998 34.15C3.59998 37.37 6.17998 38.61 8.91998 39.91C9.28998 40.08 9.64998 40.26 10.01 40.44C11.04 40.95 11.82 41.92 12.11 43.04C12.38 44.09 12.19 45.14 11.59 46C8.81998 49.95 8.23998 53.84 9.80998 57.9C11.82 63.12 17.93 65.82 23.72 64.04C31.04 61.8 35.12 55.34 33.23 49.03C32.22 45.68 28.72 42.98 25.78 41.56C24.82 41.1 24.09 40.25 23.79 39.24C23.5 38.25 23.63 37.23 24.16 36.35C26.08 33.19 27.01 30.6 26.12 26.76C25.53 24.21 23.52 21.65 20.73 19.93C18.56 18.59 16.22 17.88 14.03 17.88L14.02 17.87Z" fill="#E6C196"/>
<path d="M22.7502 31.01C22.6602 31.01 22.5702 31 22.4902 30.97C21.9602 30.82 21.6402 30.27 21.7902 29.74C22.2202 28.18 22.4102 26.3 20.5802 24.17C18.9902 22.31 15.7102 21.45 15.6702 21.44C15.1402 21.3 14.8102 20.76 14.9502 20.22C15.0902 19.69 15.6302 19.36 16.1702 19.5C16.3302 19.54 20.0902 20.52 22.1002 22.87C24.5702 25.76 24.2102 28.47 23.7202 30.27C23.6002 30.71 23.2002 31.01 22.7602 31.01H22.7502Z" fill="#F5ECE0"/>
<path d="M43.9801 19.69C45.5101 16.03 46.1201 12.99 44.5301 8.92C42.2301 3.06 33.5601 -0.690002 27.4801 1.77C18.4901 5.41 16.7701 13.78 20.0301 20.76C21.8901 24.73 25.6501 25.45 29.0401 26.55C30.6801 27.08 31.6501 28.96 30.8801 30.5C28.2801 35.71 28.7901 40.05 30.9001 43.77C34.1401 49.47 41.4401 51.06 47.2301 48.3C54.3001 44.92 58.3401 37.3 55.0601 30.33C53.4001 26.8 49.2301 24.43 45.7701 23.36C44.2201 22.88 43.3601 21.2 43.9801 19.71V19.69Z" fill="white"/>
<path d="M41.41 50.6099C36.75 50.6099 32.34 48.3199 30.03 44.2499C27.51 39.8199 27.49 35.0399 29.99 30.0399C30.2 29.6199 30.21 29.1299 30.01 28.6599C29.78 28.1099 29.3 27.6699 28.74 27.4899C28.36 27.3699 27.98 27.2499 27.59 27.1299C24.49 26.1799 20.97 25.0999 19.13 21.1699C17.22 17.0899 16.98 12.7799 18.45 9.03995C19.89 5.37995 22.88 2.53995 27.11 0.829946C30.26 -0.450054 34.2 -0.260054 37.9 1.32995C41.52 2.88995 44.28 5.51995 45.47 8.53995C47.19 12.9199 46.53 16.1899 44.92 20.0599C44.74 20.4899 44.75 20.9699 44.95 21.3999C45.17 21.8599 45.58 22.2199 46.08 22.3699C47.83 22.9099 53.71 25.0499 55.98 29.8699C59.34 36.9999 55.77 45.2999 47.68 49.1699C45.66 50.1399 43.52 50.5999 41.43 50.5999L41.41 50.6099ZM31.64 1.99995C30.29 1.99995 29 2.22995 27.85 2.69995C24.15 4.19995 21.54 6.64995 20.3 9.78995C19.03 13.0099 19.26 16.7599 20.93 20.3399C22.39 23.4599 25.19 24.3199 28.16 25.2299C28.55 25.3499 28.95 25.4699 29.34 25.5999C30.45 25.9599 31.39 26.8199 31.84 27.8999C32.27 28.9199 32.24 29.9999 31.77 30.9499C29.56 35.3699 29.56 39.3999 31.77 43.2699C34.6 48.2499 41.21 50.0599 46.8 47.3899C53.87 44.0099 57.03 36.8499 54.16 30.7499C52.63 27.5099 48.68 25.2999 45.48 24.3099C44.44 23.9899 43.59 23.2499 43.13 22.2699C42.69 21.3199 42.66 20.2699 43.06 19.3099C44.52 15.8199 45.08 13.0599 43.6 9.28995C42.62 6.78995 40.19 4.50995 37.1 3.17995C35.28 2.39995 33.41 1.99995 31.64 1.99995Z" fill="#E6C196"/>
<path d="M70.0497 39.5C73.3497 37.29 75.5397 35.09 76.4497 30.82C77.7597 24.67 72.5997 16.75 66.1697 15.45C56.6697 13.52 50.6097 19.56 49.4797 27.17C48.8397 31.51 51.5797 34.18 53.7997 36.97C54.8797 38.32 54.6497 40.42 53.1497 41.28C48.1097 44.19 46.1397 48.1 45.8497 52.35C45.4097 58.89 50.6197 64.25 56.9697 65.13C64.7297 66.21 72.3097 62.08 73.4197 54.46C73.9797 50.6 71.8097 46.32 69.5197 43.52C68.4897 42.26 68.6997 40.39 70.0497 39.49V39.5Z" fill="white"/>
<path d="M57.5298 66.37C57.3898 66.35 57.2598 66.34 57.1198 66.32C49.9398 65.32 44.6798 59.24 45.1398 52.48C45.4798 47.39 48.1098 43.4 52.9398 40.61C53.3498 40.37 53.6198 39.97 53.7198 39.47C53.8298 38.88 53.6798 38.26 53.2998 37.79C53.0498 37.48 52.7898 37.17 52.5398 36.86C50.4798 34.35 48.1398 31.51 48.7698 27.22C49.4298 22.76 51.6098 19.04 54.8898 16.73C58.1098 14.47 62.1698 13.76 66.6398 14.66C69.9698 15.34 73.1498 17.66 75.3598 21.03C77.5198 24.33 78.3698 28.04 77.6898 31.22C76.7098 35.82 74.3498 38.19 70.8698 40.52C70.4798 40.78 70.2298 41.18 70.1598 41.65C70.0798 42.16 70.2298 42.68 70.5598 43.09C71.7198 44.51 75.4398 49.54 74.6798 54.81C73.5598 62.49 66.2198 67.41 57.5098 66.38L57.5298 66.37ZM64.8298 16.39C61.4798 15.99 58.4698 16.67 56.0398 18.37C53.2098 20.36 51.3298 23.61 50.7498 27.51C50.2398 30.92 52.1098 33.18 54.0798 35.58C54.3398 35.9 54.6098 36.22 54.8598 36.54C55.5898 37.45 55.8998 38.69 55.6798 39.84C55.4798 40.92 54.8598 41.81 53.9398 42.34C49.6598 44.81 47.4398 48.17 47.1398 52.62C46.7498 58.34 51.2598 63.49 57.3998 64.35C65.1798 65.47 71.7498 61.21 72.7198 54.53C73.2398 50.99 71.1598 46.96 69.0398 44.37C68.3498 43.53 68.0498 42.44 68.2098 41.37C68.3598 40.34 68.9198 39.45 69.7898 38.87C72.9398 36.76 74.9198 34.77 75.7598 30.81C76.3198 28.19 75.5498 24.94 73.7098 22.13C71.7898 19.2 69.0798 17.2 66.2598 16.63C65.7798 16.53 65.3098 16.46 64.8398 16.4L64.8298 16.39Z" fill="#E6C196"/>
<path d="M21.7602 33.96C22.3456 33.96 22.8202 33.4854 22.8202 32.9C22.8202 32.3145 22.3456 31.84 21.7602 31.84C21.1748 31.84 20.7002 32.3145 20.7002 32.9C20.7002 33.4854 21.1748 33.96 21.7602 33.96Z" fill="#F5ECE0"/>
<path d="M40.5202 16.04C40.4302 16.04 40.3402 16.03 40.2602 16C39.7302 15.85 39.4102 15.3 39.5602 14.77C39.9902 13.21 40.1802 11.33 38.3502 9.20003C36.7602 7.34003 33.4702 6.48003 33.4402 6.47003C32.9102 6.33003 32.5802 5.79003 32.7202 5.25003C32.8602 4.72003 33.4002 4.39003 33.9402 4.53003C34.1002 4.57003 37.8602 5.55003 39.8702 7.90003C42.3402 10.78 41.9802 13.5 41.4902 15.3C41.3702 15.74 40.9702 16.04 40.5302 16.04H40.5202Z" fill="#F5ECE0"/>
<path d="M30.0598 54.38C29.9698 54.38 29.8798 54.37 29.7998 54.34C29.2698 54.19 28.9498 53.64 29.0998 53.11C29.5298 51.55 29.7198 49.67 27.8898 47.54C26.2898 45.68 23.0198 44.82 22.9798 44.81C22.4498 44.67 22.1198 44.13 22.2598 43.59C22.3998 43.06 22.9398 42.73 23.4798 42.87C23.6398 42.91 27.3998 43.89 29.4098 46.24C31.8798 49.13 31.5198 51.84 31.0298 53.64C30.9098 54.08 30.5098 54.38 30.0698 54.38H30.0598Z" fill="#F5ECE0"/>
<path d="M39.5302 18.99C40.1156 18.99 40.5902 18.5154 40.5902 17.93C40.5902 17.3446 40.1156 16.87 39.5302 16.87C38.9448 16.87 38.4702 17.3446 38.4702 17.93C38.4702 18.5154 38.9448 18.99 39.5302 18.99Z" fill="#F5ECE0"/>
<path d="M72.8198 31.24C72.8198 31.24 72.7698 31.24 72.7398 31.24C72.1898 31.2 71.7798 30.72 71.8198 30.16C71.9798 28.08 71.7798 26.29 70.2598 23.82C68.9598 21.71 66.5898 20.45 66.5698 20.44C66.0798 20.18 65.8898 19.58 66.1398 19.09C66.3998 18.6 66.9998 18.41 67.4898 18.66C67.6098 18.72 70.3598 20.17 71.9598 22.76C73.8698 25.85 73.9798 28.21 73.8098 30.3C73.7698 30.82 73.3298 31.22 72.8098 31.22L72.8198 31.24Z" fill="#F5ECE0"/>
<path d="M69.3999 58.07C69.2999 58.07 69.1999 58.06 69.1099 58.03C68.5799 57.87 68.2799 57.31 68.4499 56.78C69.0599 54.78 69.2499 52.99 68.2999 50.26C67.4799 47.9 65.4499 46.18 65.4299 46.16C65.0099 45.81 64.9499 45.17 65.2999 44.75C65.6499 44.33 66.2799 44.27 66.7099 44.62C66.8099 44.7 69.1899 46.71 70.1899 49.6C71.3799 53.03 70.9799 55.36 70.3599 57.37C70.2299 57.8 69.8299 58.08 69.3999 58.08V58.07Z" fill="#F5ECE0"/>
<path d="M72.2499 33.96C72.8354 33.96 73.3099 33.4854 73.3099 32.9C73.3099 32.3145 72.8354 31.84 72.2499 31.84C71.6645 31.84 71.1899 32.3145 71.1899 32.9C71.1899 33.4854 71.6645 33.96 72.2499 33.96Z" fill="#F5ECE0"/>
</g>
<defs>
<clipPath id="clip0_445_647">
<rect width="77.93" height="66.58" fill="white"/>
</clipPath>
</defs>
</svg>
