<svg width="62" height="71" viewBox="0 0 62 71" fill="none" xmlns="http://www.w3.org/2000/svg">
<path d="M17.7675 17.979C17.7675 17.979 35.2351 6.42135 44.9851 12.631C54.9318 18.9531 56.4865 25.7247 57.6105 40.0359C58.7344 54.3472 63.0802 64.2377 59.5774 67.2535C55.0255 71.1685 45.2661 72.5828 17.7675 60.8003C-9.73104 49.0179 3.00672 24.76 17.7675 17.9884V17.979Z" fill="#EE2F2A"/>
<path d="M50.1271 71C40.7518 71 28.2575 66.3076 17.3929 61.6527C3.68113 55.7802 0.71215 47.3602 0.637222 41.3378C0.506098 30.6887 9.11344 20.9481 17.3087 17.1548C18.648 16.2838 35.5349 5.50353 45.4909 11.8349C55.831 18.4192 57.4139 25.4531 58.5471 39.9517C58.9686 45.3559 59.8771 50.2355 60.6077 54.1505C61.9095 61.1282 62.7618 65.7363 60.1862 67.9466C57.6761 70.1008 54.192 70.9906 50.1271 70.9906V71ZM37.9981 11.7319C29.0442 11.7319 18.4139 18.6721 18.2827 18.7564L18.161 18.8313C7.86774 23.5518 2.41676 33.9387 2.51042 41.3191C2.61345 49.1584 8.01762 55.6023 18.1329 59.9387C32.032 65.8955 51.3822 73.0605 58.9686 66.5417C60.7294 65.0245 59.9052 60.6131 58.7719 54.5064C58.032 50.5446 57.1142 45.6087 56.6833 40.1109C55.5781 25.9589 54.1638 19.5806 44.4888 13.4272C42.5875 12.219 40.3584 11.7413 38.0075 11.7413L37.9981 11.7319Z" fill="#A11D21"/>
<path d="M5.88284 2.91849C5.60186 3.35869 5.62995 3.92065 5.92966 4.33275C7.2409 6.15912 7.24091 5.81258 9.21713 8.06979C11.5867 10.7859 13.0572 13.8299 13.7971 15.3565C14.537 16.8832 13.7035 16.9675 10.6502 20.1988C7.63431 23.4019 0.769008 26.6519 2.3144 35.8868C2.3425 36.046 2.52044 36.1209 2.65156 36.0367C3.4383 35.5122 5.7517 33.9106 7.09103 32.2153C7.39075 31.8313 8.00892 31.9812 8.10258 32.4588C8.27117 33.3767 8.66452 34.5662 9.48873 35.9336C9.54492 36.0273 9.66673 36.0648 9.76975 36.0179C10.6595 35.5777 14.6588 33.3954 15.0334 29.2557C15.0522 29.0403 15.3425 28.9841 15.4455 29.1807C15.9045 30.0799 16.8411 31.4567 18.5457 32.5338C18.6206 32.5806 18.733 32.5806 18.7985 32.5244C19.4261 32.0374 22.1047 29.724 20.9059 26.296C20.8403 26.1181 21.0183 25.9495 21.1962 26.0244C22.5262 26.5583 26.3569 27.7946 29.4477 25.8558C29.4477 25.8558 30.5903 25.3501 27.0687 21.8753C26.947 21.7535 27.0031 21.5381 27.1717 21.5006C28.4268 21.2384 32.3418 20.3486 35.3576 18.7845C35.8727 18.5129 35.9384 17.8011 35.4701 17.4451L32.5759 15.2629C32.4167 15.1411 32.4916 14.9163 32.6977 14.8695C33.728 14.6541 38.8043 12.9588 39.9563 12.3594C40.7056 11.966 40.7524 11.2823 40.0594 10.7953C37.6617 9.12814 29.8129 8.10725 23.6501 11.1793C23.2099 11.3947 20.0911 13.3147 20.0442 13.3428C19.3792 13.7268 17.9182 14.448 16.9722 13.3709C15.8389 12.0972 11.0435 6.54313 9.21713 1.66344C9.21713 1.66344 8.76756 0.502059 7.51251 1.29817C6.62275 1.86013 6.16383 2.47828 5.89222 2.91849H5.88284Z" fill="#82AE42"/>
<path d="M2.53868 37.0201C2.37946 37.0201 2.22961 36.992 2.07975 36.9265C1.71448 36.7673 1.46161 36.4394 1.39605 36.0554C0.0660813 28.1131 4.59918 24.2543 7.90538 21.4445C8.68275 20.7889 9.41331 20.1613 9.96591 19.5713C10.7246 18.7658 11.3521 18.1477 11.8485 17.6606C12.7539 16.7677 13.1191 16.1402 12.9443 15.7781C12.2418 14.3263 10.7901 11.3105 8.50481 8.69736C7.69934 7.77013 7.23103 7.30183 6.85639 6.91782C6.32253 6.37459 5.96662 6.00932 5.16114 4.89476C4.62728 4.15485 4.59923 3.19015 5.08626 2.43151C5.4047 1.93511 5.94791 1.1952 6.9969 0.530209C7.81174 0.00571352 8.46737 0.0619098 8.87948 0.193034C9.70368 0.464648 10.0221 1.20456 10.0783 1.34505C11.8016 5.96249 16.3161 11.2543 17.6554 12.7716C18.002 13.1649 18.6388 13.09 19.5661 12.5561L19.7159 12.4625C22.4883 10.7672 23.0502 10.4488 23.2282 10.3645C29.569 7.20817 37.7455 8.06984 40.5927 10.0461C41.2015 10.4675 41.52 11.067 41.4825 11.6851C41.445 12.3126 41.0423 12.8652 40.3867 13.2024C39.4501 13.6894 36.275 14.7946 34.2988 15.4034L36.0315 16.7147C36.5092 17.0706 36.762 17.6419 36.7152 18.2319C36.6684 18.8314 36.3218 19.3465 35.788 19.6275C33.3903 20.8825 30.4868 21.7067 28.623 22.1563C30.5055 24.1981 30.646 25.1628 30.5337 25.7809C30.4494 26.2399 30.1777 26.5396 29.9248 26.6894C27.2087 28.3847 24.0805 27.9351 22.1136 27.3544C22.5164 30.6606 19.9594 32.8429 19.3787 33.2925C18.9947 33.5922 18.4609 33.6203 18.0488 33.358C16.981 32.6837 16.1849 31.8969 15.6043 31.157C14.4054 34.6599 10.9681 36.5144 10.2001 36.8984C9.65683 37.1606 9.01997 36.9733 8.71089 36.4582C8.09274 35.4373 7.64317 34.407 7.36219 33.3955C5.95729 34.9409 4.01851 36.299 3.18493 36.8515C2.99761 36.9827 2.77284 37.0482 2.54805 37.0482L2.53868 37.0201ZM7.53077 31.0727C7.65253 31.0727 7.77425 31.0915 7.90538 31.1196C8.48607 31.26 8.91691 31.719 9.02931 32.2997C9.18853 33.1332 9.49761 33.9949 9.96591 34.866C11.2584 34.1073 13.8341 32.2247 14.115 29.1808C14.1619 28.6657 14.5365 28.2536 15.0423 28.1599C15.548 28.0569 16.0538 28.3004 16.288 28.7687C16.6813 29.5273 17.3931 30.5763 18.6201 31.4661C19.463 30.6794 20.8492 28.9654 20.025 26.6145C19.8751 26.1837 19.9875 25.706 20.3153 25.3969C20.6431 25.0879 21.1208 24.9942 21.5423 25.1628C22.5444 25.5655 25.9068 26.7082 28.623 25.2658C28.4731 24.9099 27.9767 24.0951 26.4126 22.5497C26.1035 22.25 25.9911 21.8098 26.1129 21.3977C26.2346 20.9855 26.5718 20.6765 26.9839 20.5922C28.0797 20.3674 31.8261 19.5245 34.7202 18.0634L32.0135 16.0216C31.6482 15.75 31.4796 15.3004 31.5826 14.8696C31.6857 14.42 32.0416 14.0641 32.5005 13.9704C33.4652 13.7644 38.3824 12.1253 39.4969 11.554C37.3146 10.0742 29.8686 9.14693 24.0711 12.0317C23.9681 12.0785 23.4342 12.3876 20.6994 14.0547L20.512 14.1671C18.1518 15.5345 16.8312 14.6541 16.2599 14.0079C14.8644 12.4344 10.1626 6.90845 8.33623 2.01004C8.33623 2.01004 8.30815 1.98194 8.28941 1.97257C8.28941 1.97257 8.1864 1.99131 8.00844 2.11306C7.2779 2.58136 6.91263 3.06839 6.66911 3.44303C6.59419 3.55543 6.60351 3.69592 6.68781 3.80831C7.40899 4.81047 7.68996 5.10082 8.20509 5.61595C8.59847 6.00932 9.07616 6.50572 9.92846 7.47978C12.373 10.2896 13.909 13.4553 14.6395 14.9726C15.4825 16.7334 14.7145 17.492 13.1691 19.0093C12.682 19.487 12.0733 20.0864 11.3334 20.8732C10.7058 21.5381 9.93784 22.1938 9.123 22.8868C6.01349 25.5281 2.51997 28.5064 3.0913 34.6224C4.07473 33.9106 5.46088 32.7961 6.36002 31.6628C6.65037 31.2975 7.0812 31.0915 7.53077 31.0915V31.0727Z" fill="#2C7B3C"/>
<path d="M43.767 26.2773C44.3852 27.8602 44.6849 29.2745 44.2447 29.4992C44.0012 29.621 42.6524 28.6657 41.7533 27.2139C40.8542 25.7622 40.3203 24.5446 41.463 23.992C42.3434 23.5612 43.1489 24.7132 43.767 26.2773Z" fill="#FCBB80"/>
<path d="M44.7028 16.9676C45.4802 18.4661 45.911 19.8242 45.5083 20.0864C45.2835 20.2363 43.8505 19.4308 42.8202 18.0915C41.79 16.7521 41.1437 15.6095 42.202 14.9539C43.0262 14.4387 43.9348 15.4877 44.7028 16.9676Z" fill="#FCBB80"/>
<path d="M32.3597 32.7022C33.1277 34.2663 33.5492 35.6805 33.1184 35.9428C32.8749 36.0926 31.4231 35.2216 30.3835 33.8261C29.3438 32.4305 28.707 31.2223 29.8215 30.5667C30.6832 30.0516 31.6011 31.1568 32.3597 32.7115V32.7022Z" fill="#FCBB80"/>
<path d="M46.0424 39.2587C46.6138 40.9071 46.8573 42.3588 46.3984 42.5743C46.1455 42.6866 44.8061 41.6564 43.9445 40.1391C43.0828 38.6218 42.5957 37.348 43.7852 36.8329C44.7031 36.4302 45.4805 37.6384 46.0424 39.2681V39.2587Z" fill="#FCBB80"/>
<path d="M47.1947 51.7904C47.7473 53.4013 47.9908 54.8249 47.5413 55.031C47.2884 55.1434 45.9771 54.1319 45.1436 52.6427C44.31 51.1535 43.823 49.9172 44.9844 49.4114C45.8835 49.018 46.6421 50.1981 47.1947 51.7904Z" fill="#FCBB80"/>
<path d="M34.3826 44.4943C35.3567 45.5152 36.031 46.5079 35.7594 46.817C35.6096 46.9856 34.2702 46.6765 33.1276 45.843C31.9849 45.0094 31.1981 44.2414 31.9006 43.4546C32.4438 42.8458 33.4179 43.4827 34.3826 44.4943Z" fill="#FCBB80"/>
<path d="M42.4088 56.5575C43.6076 57.822 44.4318 59.0489 44.104 59.4235C43.9167 59.639 42.2683 59.2456 40.8634 58.2153C39.4585 57.1851 38.4751 56.2391 39.3461 55.2744C40.0111 54.5251 41.2193 55.3025 42.4088 56.5575Z" fill="#FCBB80"/>
<path d="M51.1002 63.7039C52.2335 64.2846 53.1045 64.9215 52.9734 65.268C52.8984 65.4553 51.6715 65.5958 50.4446 65.2306C49.2176 64.8653 48.3185 64.4532 48.6838 63.5728C48.9648 62.8984 49.9856 63.1326 51.1095 63.7039H51.1002Z" fill="#FCBB80"/>
<path d="M29.7375 51.4158C31.1893 52.3149 32.2757 53.2609 32.051 53.7105C31.9292 53.954 30.2714 54.0008 28.6885 53.3733C27.1057 52.7458 25.9443 52.0902 26.525 50.9662C26.9746 50.0952 28.3045 50.526 29.7375 51.4158Z" fill="#FCBB80"/>
<path d="M18.4976 55.93C19.9774 56.8479 21.092 57.8219 20.8672 58.2715C20.7455 58.5244 19.0502 58.5619 17.4299 57.9343C15.8096 57.3068 14.6201 56.6231 15.2102 55.4711C15.6691 54.5813 17.0271 55.0215 18.4976 55.93Z" fill="#FCBB80"/>
<path d="M34.692 60.4256C36.1718 61.3435 37.2864 62.3175 37.0616 62.7671C36.9398 63.02 35.2446 63.0575 33.6243 62.4299C32.0039 61.8024 30.8145 61.1187 31.4045 59.9667C31.8635 59.0769 33.2215 59.5171 34.692 60.4256Z" fill="#FCBB80"/>
<path d="M54.3872 31.7002C54.509 33.1051 54.4247 34.2946 54.022 34.3695C53.7972 34.4069 52.9448 33.3299 52.5702 31.9718C52.1955 30.6137 52.0551 29.5179 53.0947 29.3399C53.8908 29.1995 54.2654 30.3046 54.3872 31.6908V31.7002Z" fill="#FCBB80"/>
<path d="M52.2145 43.8105C52.3269 45.103 52.2426 46.1989 51.8773 46.2644C51.6713 46.3019 50.8939 45.3091 50.5474 44.0634C50.2008 42.8177 50.0697 41.8062 51.025 41.647C51.7556 41.5252 52.1021 42.5274 52.2145 43.8105Z" fill="#FCBB80"/>
<path d="M54.7064 57.0351C54.8563 58.7679 54.7439 60.2477 54.2475 60.332C53.9759 60.3788 52.9175 59.0488 52.4585 57.3723C51.9996 55.6958 51.8217 54.3377 53.1048 54.1223C54.0976 53.9537 54.5566 55.3118 54.7064 57.0351Z" fill="#FCBB80"/>
<path d="M20.4192 39.7174C21.5525 41.0474 22.3111 42.3118 21.9645 42.6677C21.7678 42.8737 20.1475 42.3961 18.7894 41.2909C17.4314 40.1857 16.5135 39.1835 17.4314 38.2657C18.1432 37.5539 19.3046 38.3968 20.4192 39.708V39.7174Z" fill="#FCBB80"/>
<path d="M10.1903 46.1988C11.2205 47.0885 11.9605 47.9783 11.7263 48.2967C11.5952 48.4747 10.284 48.2967 9.11321 47.613C7.94246 46.9293 7.10889 46.255 7.70831 45.4401C8.16724 44.8126 9.16937 45.3184 10.1903 46.1988Z" fill="#FCBB80"/>
</svg>
