<svg width="76" height="67" viewBox="0 0 76 67" fill="none" xmlns="http://www.w3.org/2000/svg">
<g clip-path="url(#clip0_428_517)">
<path d="M2.97994 46.7001C11.6699 41.1401 20.1199 32.0001 28.0799 19.5301C33.9799 10.2901 37.3099 2.78007 37.4399 2.47007L33.9799 0.950073C33.8499 1.25007 20.6099 30.9401 0.939941 43.5201L2.97994 46.7101V46.7001Z" fill="#E3E54A"/>
<path d="M5.80984 48.2901C16.5898 41.4001 25.3598 29.7601 30.8098 21.2201C36.6998 12.0101 38.6998 6.15008 38.8398 5.83008L37.4398 2.46008C37.4098 2.54008 34.0598 10.0801 28.2998 19.1001C23.0198 27.3601 13.2598 40.1201 2.97984 46.6901L5.80984 48.2801V48.2901Z" fill="#BCBC32"/>
<path d="M32.2799 4.96009C33.3099 2.91009 33.8699 1.65009 33.8999 1.59009L37.3599 3.11009C37.3099 3.23009 36.7599 4.47009 35.7599 6.48009L32.2799 4.96009Z" fill="#8CBB3F"/>
<path d="M5.97998 44.75C5.18998 45.31 4.40998 45.86 3.60998 46.37L1.56998 43.18C2.32998 42.69 3.06998 42.18 3.80998 41.64L5.96998 44.75H5.97998Z" fill="#8CBB3F"/>
<path d="M36.9599 3.12L38.3599 6.49C38.2999 6.63 37.8899 7.8 36.9699 9.84L35.3699 6.49L35.3899 6.43C36.4099 4.39 36.9599 3.15 36.9699 3.12H36.9599Z" fill="#6D9A3F"/>
<path d="M6.35992 47.8301L3.52992 46.2401C4.26992 45.7601 5.00992 45.2501 5.74992 44.7101L5.88992 44.6201L8.41992 46.4401C7.73992 46.9201 7.04992 47.3901 6.35992 47.8401V47.8301Z" fill="#6D9A3F"/>
<path d="M2.97985 47.6401C3.14985 47.6401 3.32985 47.5901 3.48985 47.4901C12.2999 41.8601 20.8398 32.6201 28.8798 20.0401C34.8298 10.7301 38.1698 3.17006 38.3098 2.85006C38.5198 2.37006 38.3098 1.82006 37.8298 1.61006L34.3698 0.0900554C33.8998 -0.119945 33.3398 0.0900554 33.1298 0.570055C32.9998 0.870055 19.8498 30.3101 0.439846 42.7201C0.229847 42.8501 0.0798492 43.0701 0.02985 43.3101C-0.0201492 43.5501 0.0298462 43.8101 0.159847 44.0201L2.19985 47.2101C2.37985 47.4901 2.67984 47.6501 2.99984 47.6501L2.97985 47.6401ZM36.1898 2.95006C35.1498 5.19006 32.0798 11.5201 27.2798 19.0301C19.6298 31.0001 11.5598 39.8601 3.25985 45.3901L2.23985 43.7901C19.7998 32.0601 32.1298 7.12006 34.4498 2.18006L36.1898 2.94006V2.95006Z" fill="#5D7C3A"/>
<path d="M5.81001 49.5401C5.99001 49.5401 6.16 49.4901 6.32 49.3901C17.24 42.4001 26.1 30.6601 31.61 22.0301C35.13 16.5301 37.98 11.0701 39.65 6.66011L39.71 6.51011C39.8 6.29011 39.81 6.03011 39.72 5.80011L38.32 2.13011C38.19 1.77011 37.85 1.53011 37.47 1.52011C37.1 1.46011 36.74 1.73011 36.58 2.07011C36.22 2.87011 32.97 10.0401 27.5 18.5901C24.63 23.0701 14.36 38.2901 2.46001 45.9001C2.19001 46.0701 2.03001 46.3701 2.02001 46.6801C2.02001 47.0001 2.17001 47.3001 2.44001 47.4701L5.27001 49.3701C5.43001 49.4801 5.61001 49.5301 5.80001 49.5301L5.81001 49.5401ZM37.83 6.14011C36.2 10.4001 33.42 15.6801 30.01 21.0201C24.69 29.3501 16.21 40.6301 5.81001 47.4701L4.68 46.7101C16.38 38.6801 26.27 24.0401 29.1 19.6201C33.12 13.3301 35.96 7.78011 37.36 4.89011L37.84 6.14011H37.83Z" fill="#5D7C3A"/>
<path d="M26.96 15.7601C26.28 16.3101 25.79 16.8601 25.93 17.0701C26.01 17.1901 26.85 17.1001 27.62 16.6901C28.39 16.2801 28.93 15.8701 28.57 15.3301C28.29 14.9201 27.64 15.2201 26.97 15.7601H26.96Z" fill="#FFEFC6"/>
<path d="M25.8601 19.9201C25.7501 19.0501 25.5401 18.3501 25.2901 18.3501C25.1501 18.3501 24.7801 19.1201 24.7301 19.9901C24.6801 20.8601 24.7301 21.5401 25.3901 21.5101C25.8901 21.4901 25.9701 20.7701 25.8701 19.9201H25.8601Z" fill="#FFEFC6"/>
<path d="M23.8201 21.86C23.8401 20.99 23.7401 20.26 23.4901 20.23C23.3501 20.21 22.8701 20.91 22.6901 21.77C22.5101 22.63 22.4701 23.3 23.1201 23.37C23.6201 23.42 23.8101 22.73 23.8301 21.87L23.8201 21.86Z" fill="#FFEFC6"/>
<path d="M19.86 29.72C20.68 29.41 21.31 29.04 21.25 28.8C21.21 28.66 20.3799 28.48 19.5299 28.64C18.6799 28.8 18.03 29.01 18.21 29.64C18.35 30.12 19.06 30.03 19.87 29.73L19.86 29.72Z" fill="#FFEFC6"/>
<path d="M22.1702 24.8801C21.4302 24.4201 20.7502 24.1401 20.5902 24.3401C20.5102 24.4501 20.8602 25.2201 21.5102 25.8101C22.1602 26.4001 22.7202 26.7801 23.1102 26.2601C23.4102 25.8601 22.9102 25.3401 22.1702 24.8901V24.8801Z" fill="#FFEFC6"/>
<path d="M6.01 48.0799C15.36 43.7099 24.93 35.7699 34.47 24.4599C41.53 16.0799 45.82 9.06994 46 8.77994L42.77 6.80994C42.6 7.08994 25.56 34.7699 4.41 44.6499L6.01 48.0799Z" fill="#E3E54A"/>
<path d="M8.59995 50.04C20.1899 44.63 30.4199 34.25 36.9499 26.5C43.9999 18.14 46.7599 12.6 46.9399 12.31L45.9999 8.79004C45.9599 8.86004 41.6499 15.9 34.7499 24.08C28.4299 31.57 17.0699 42.93 6.00994 48.1L8.59995 50.05V50.04Z" fill="#BCBC32"/>
<path d="M40.5398 10.5601C41.8298 8.66005 42.5498 7.49005 42.5898 7.43005L45.8198 9.40005C45.7498 9.52005 45.0398 10.6701 43.7898 12.5301L40.5398 10.5601Z" fill="#8CBB3F"/>
<path d="M9.23975 46.54C8.38975 47 7.52974 47.43 6.67974 47.83L5.07974 44.4C5.89974 44.02 6.69974 43.6 7.50974 43.17L9.23975 46.54Z" fill="#8CBB3F"/>
<path d="M45.4296 9.35999L46.3696 12.88C46.2896 13.01 45.7296 14.12 44.5496 16.02L43.3996 12.49L43.4296 12.44C44.7096 10.55 45.4196 9.39999 45.4296 9.36999V9.35999Z" fill="#6D9A3F"/>
<path d="M9.20995 49.65L6.61994 47.7C7.41994 47.33 8.21994 46.91 9.01994 46.48L9.17994 46.41L11.4399 48.54C10.6999 48.93 9.95995 49.3 9.20995 49.65Z" fill="#6D9A3F"/>
<path d="M6.00962 49.03C6.13962 49.03 6.27962 49 6.40962 48.94C15.8796 44.52 25.5696 36.48 35.1896 25.07C42.3596 16.56 46.6296 9.55999 46.8096 9.26999C47.0796 8.81999 46.9396 8.23999 46.4896 7.96999L43.2596 5.99999C42.8196 5.72999 42.2296 5.86999 41.9596 6.30999C41.7896 6.58999 24.8496 34.05 4.00962 43.79C3.77962 43.9 3.60962 44.09 3.51962 44.32C3.43962 44.56 3.44962 44.82 3.54962 45.04L5.14962 48.47C5.30962 48.81 5.64962 49.01 6.00962 49.01V49.03ZM44.6896 9.08999C43.3596 11.17 39.4496 17.09 33.7496 23.85C24.5896 34.71 15.4196 42.43 6.45962 46.82L5.65962 45.1C24.5896 35.79 40.1196 12.69 43.0696 8.09999L44.6896 9.08999Z" fill="#5D7C3A"/>
<path d="M8.55977 51.28C8.69977 51.28 8.82977 51.25 8.95977 51.19C20.7098 45.7 31.0398 35.23 37.6298 27.4C41.8398 22.41 45.3898 17.37 47.6298 13.23L47.7098 13.09C47.8298 12.88 47.8698 12.62 47.8198 12.39L46.9198 8.56995C46.8298 8.19995 46.5298 7.90995 46.1498 7.84995C45.7698 7.78995 45.3998 7.96995 45.1998 8.28995C45.1598 8.35995 40.8298 15.4 34.0298 23.46C30.5998 27.52 18.4098 41.25 5.61977 47.23C5.32977 47.36 5.12976 47.64 5.07977 47.95C5.03976 48.27 5.14977 48.58 5.38977 48.79L7.93977 51.04C8.11977 51.2 8.33977 51.28 8.55977 51.28ZM45.8998 12.47C43.7198 16.48 40.2798 21.35 36.1898 26.19C29.8198 33.74 19.9298 43.81 8.71976 49.22L7.69977 48.32C20.3598 41.9 32.0898 28.69 35.4698 24.69C40.3098 18.96 43.8498 13.83 45.5898 11.18L45.8998 12.48V12.47Z" fill="#5D7C3A"/>
<path d="M33.8496 20.58C33.0996 21.03 32.5496 21.52 32.6596 21.74C32.7196 21.87 33.5696 21.89 34.3796 21.58C35.1896 21.27 35.7896 20.94 35.4996 20.36C35.2696 19.91 34.5896 20.13 33.8496 20.58Z" fill="#FFEFC6"/>
<path d="M32.2197 24.56C32.2197 23.69 32.1097 22.96 31.8597 22.93C31.7197 22.92 31.2497 23.62 31.0897 24.48C30.9297 25.34 30.8897 26.02 31.5397 26.07C32.0397 26.11 32.2197 25.42 32.2197 24.55V24.56Z" fill="#FFEFC6"/>
<path d="M29.9297 26.21C30.0697 25.35 30.0597 24.61 29.8097 24.55C29.6697 24.52 29.1097 25.14 28.8197 25.97C28.5297 26.8 28.3997 27.46 29.0297 27.61C29.5197 27.73 29.7897 27.06 29.9297 26.21Z" fill="#FFEFC6"/>
<path d="M24.98 33.48C25.83 33.28 26.51 33 26.48 32.75C26.46 32.61 25.66 32.32 24.79 32.36C23.92 32.4 23.25 32.53 23.35 33.18C23.43 33.68 24.14 33.68 24.98 33.48Z" fill="#FFEFC6"/>
<path d="M27.8997 28.98C27.2297 28.43 26.5897 28.06 26.4097 28.24C26.3097 28.34 26.5597 29.15 27.1297 29.81C27.6997 30.47 28.1997 30.93 28.6497 30.46C28.9997 30.1 28.5697 29.53 27.8997 28.98Z" fill="#FFEFC6"/>
<path d="M14.72 54.48C23.58 49.19 32.3 40.32 40.65 28.11C46.83 19.06 50.39 11.66 50.54 11.35L47.13 9.71997C46.99 10.01 32.83 39.27 12.78 51.24L14.72 54.49V54.48Z" fill="#E3E54A"/>
<path d="M17.5003 56.17C28.4903 49.61 37.6103 38.26 43.3303 29.89C49.5003 20.86 51.6903 15.07 51.8403 14.76L50.5503 11.35C50.5103 11.42 46.9403 18.86 40.9003 27.69C35.3603 35.78 25.2103 48.23 14.7303 54.48L17.5103 56.16L17.5003 56.17Z" fill="#BCBC32"/>
<path d="M45.3002 13.67C46.3902 11.65 46.9902 10.41 47.0202 10.35L50.4302 11.98C50.3702 12.1 49.7802 13.32 48.7302 15.3L45.3002 13.67Z" fill="#8CBB3F"/>
<path d="M17.7803 52.63C16.9803 53.17 16.1703 53.6899 15.3703 54.1699L13.4303 50.9199C14.2003 50.4599 14.9703 49.96 15.7203 49.45L17.7803 52.6199V52.63Z" fill="#8CBB3F"/>
<path d="M50.0401 11.98L51.3301 15.39C51.2701 15.52 50.8201 16.69 49.8301 18.7L48.3301 15.3L48.3501 15.24C49.4301 13.23 50.0201 12.01 50.0301 11.98H50.0401Z" fill="#6D9A3F"/>
<path d="M18.0702 55.72L15.2902 54.04C16.0502 53.59 16.8002 53.09 17.5602 52.58L17.7102 52.5L20.1802 54.39C19.4902 54.85 18.7802 55.3 18.0702 55.72Z" fill="#6D9A3F"/>
<path d="M14.7302 55.43C14.8902 55.43 15.0602 55.39 15.2102 55.3C24.1902 49.94 33.0102 40.98 41.4402 28.65C47.6602 19.56 51.2502 12.08 51.4002 11.76C51.5102 11.53 51.5202 11.27 51.4402 11.04C51.3602 10.8 51.1802 10.61 50.9602 10.5L47.5502 8.87C47.0702 8.64 46.5202 8.84 46.2902 9.31C46.1502 9.6 32.1102 38.61 12.3102 50.42C12.0902 50.55 11.9402 50.76 11.8802 51C11.8202 51.24 11.8602 51.5 11.9802 51.71L13.9202 54.96C14.1002 55.26 14.4102 55.42 14.7302 55.42V55.43ZM49.2802 11.79C48.1702 14 44.8902 20.25 39.8802 27.58C31.8702 39.31 23.5202 47.91 15.0502 53.18L14.0802 51.55C32.0102 40.36 45.1002 15.83 47.5602 10.97L49.2702 11.79H49.2802Z" fill="#5D7C3A"/>
<path d="M17.4902 57.41C17.6602 57.41 17.8202 57.37 17.9702 57.28C29.1102 50.64 38.3302 39.17 44.1002 30.72C47.7802 25.33 50.8102 19.96 52.6202 15.61L52.6802 15.46C52.7802 15.24 52.8002 14.98 52.7202 14.75L51.4402 11.04C51.3202 10.68 50.9802 10.43 50.6002 10.41C50.2202 10.39 49.8602 10.6 49.6902 10.94C49.5402 11.26 45.9702 18.59 40.1102 27.16C37.1102 31.55 26.3602 46.44 14.2402 53.67C13.9702 53.83 13.7902 54.12 13.7802 54.44C13.7702 54.76 13.9102 55.06 14.1702 55.25L16.9402 57.24C17.1002 57.36 17.3002 57.42 17.4902 57.42V57.41ZM50.8202 15.03C49.0502 19.24 46.1202 24.43 42.5502 29.66C36.9802 37.82 28.1502 48.83 17.5402 55.34L16.4302 54.54C28.3802 46.88 38.7202 32.55 41.6802 28.22C45.8702 22.1 48.9102 16.58 50.3902 13.75L50.8302 15.02L50.8202 15.03Z" fill="#5D7C3A"/>
<path d="M39.65 24.31C38.95 24.84 38.45 25.37 38.58 25.59C38.65 25.71 39.5 25.65 40.28 25.26C41.06 24.87 41.62 24.48 41.27 23.93C41 23.51 40.34 23.79 39.65 24.31Z" fill="#FFEFC6"/>
<path d="M38.4302 28.43C38.3502 27.56 38.1602 26.85 37.9102 26.85C37.7702 26.85 37.3702 27.6 37.3002 28.47C37.2302 29.34 37.2602 30.02 37.9102 30.01C38.4102 30.01 38.5202 29.29 38.4402 28.43H38.4302Z" fill="#FFEFC6"/>
<path d="M36.3203 30.31C36.3703 29.44 36.2903 28.7 36.0403 28.67C35.9003 28.65 35.4003 29.33 35.1903 30.18C34.9803 31.03 34.9203 31.71 35.5703 31.79C36.0703 31.86 36.2703 31.17 36.3203 30.31Z" fill="#FFEFC6"/>
<path d="M32.13 38.04C32.95 37.76 33.6 37.4 33.55 37.16C33.52 37.02 32.7 36.82 31.83 36.95C30.96 37.08 30.31 37.28 30.48 37.91C30.6 38.4 31.32 38.33 32.14 38.05L32.13 38.04Z" fill="#FFEFC6"/>
<path d="M34.5802 33.27C33.8502 32.79 33.1802 32.48 33.0202 32.68C32.9302 32.79 33.2702 33.57 33.8902 34.17C34.5102 34.77 35.0702 35.17 35.4702 34.66C35.7802 34.27 35.2902 33.74 34.5702 33.26L34.5802 33.27Z" fill="#FFEFC6"/>
<path d="M20.8903 56.74C21.0503 56.74 21.2103 56.7 21.3603 56.62C22.1103 56.19 22.8703 55.77 23.6403 55.33C32.2503 50.5 42.0103 45.02 50.0203 33.82C56.4203 24.87 60.1803 17.46 60.3403 17.15C60.4503 16.93 60.4703 16.67 60.3903 16.43C60.3103 16.19 60.1403 15.99 59.9203 15.88L56.5403 14.18C56.4003 14.11 56.2603 14.08 56.1203 14.08C55.7803 14.08 55.4403 14.27 55.2803 14.6L55.2103 14.74C54.0203 17.47 42.8603 41.7 18.6703 51.64C18.4203 51.74 18.2203 51.95 18.1403 52.21C18.0503 52.47 18.0803 52.75 18.2103 52.98L20.0803 56.27C20.2503 56.58 20.5703 56.75 20.9003 56.75L20.8903 56.74Z" fill="#FF7B1C"/>
<path d="M56.1101 15.01C55.9601 15.3 45.0401 41.81 19.0201 52.5L20.8901 55.79C29.8601 50.69 40.6401 45.3 49.2501 33.26C55.6201 24.35 59.3401 17.02 59.4901 16.71L56.1101 15.01ZM56.1101 13.12C56.4001 13.12 56.6901 13.19 56.9601 13.32L60.3401 15.02C61.2701 15.49 61.6501 16.62 61.1801 17.56C61.0201 17.87 57.2401 25.33 50.7901 34.36C42.6601 45.73 32.8001 51.26 24.1101 56.15C23.3401 56.58 22.5801 57.01 21.8301 57.43C21.5401 57.6 21.2201 57.68 20.9001 57.68C20.2401 57.68 19.6001 57.34 19.2601 56.72L17.3901 53.43C17.1201 52.96 17.0701 52.39 17.2501 51.88C17.4301 51.37 17.8201 50.96 18.3201 50.75C42.1601 40.96 53.1601 17.05 54.3401 14.35C54.3901 14.24 54.4201 14.18 54.4301 14.16C54.7601 13.5 55.4301 13.12 56.1201 13.12H56.1101Z" fill="#A34423"/>
<path d="M22.8401 57.1499C22.9801 57.1499 23.1201 57.1199 23.2501 57.0599C34.8501 51.4999 45.8101 42.7799 51.8701 34.3199C55.6701 29.0099 58.8001 23.7099 60.7101 19.3999L60.7801 19.2499C60.8701 19.0599 60.9001 18.8399 60.8601 18.6399L60.4301 16.5399C60.3501 16.1499 60.0301 15.8499 59.6301 15.7999C59.5901 15.7999 59.5501 15.7999 59.5101 15.7999C59.1601 15.7999 58.8301 15.9999 58.6701 16.3199C58.6301 16.3899 54.8801 23.7599 48.7401 32.3299C42.8801 40.5199 30.2801 49.4099 20.4401 54.9999C20.1001 55.1899 19.9101 55.5799 19.9701 55.9699C20.0301 56.3599 20.3201 56.6699 20.7101 56.7499L22.6601 57.1599C22.7201 57.1699 22.7901 57.1799 22.8501 57.1799L22.8401 57.1499Z" fill="#EA6200"/>
<path d="M59.49 16.72C59.45 16.79 55.72 24.15 49.49 32.86C43.78 40.83 31.5 49.77 20.89 55.8L22.84 56.21C34.37 50.68 45.2 42.02 51.1 33.77C57.46 24.88 59.77 19.13 59.92 18.83L59.49 16.73M59.49 14.83C59.57 14.83 59.66 14.83 59.74 14.85C60.54 14.96 61.18 15.55 61.34 16.34L61.77 18.44C61.86 18.86 61.8 19.29 61.61 19.67L61.57 19.77C59.65 24.14 56.47 29.5 52.64 34.87C46.5 43.45 35.4 52.28 23.67 57.91C23.41 58.03 23.13 58.1 22.85 58.1C22.72 58.1 22.59 58.09 22.46 58.06L20.51 57.65C19.74 57.49 19.15 56.87 19.03 56.09C18.91 55.31 19.28 54.54 19.96 54.16C29.71 48.62 42.19 39.83 47.96 31.76C54.01 23.31 57.66 16.17 57.81 15.87C58.14 15.23 58.79 14.84 59.49 14.84V14.83Z" fill="#A34423"/>
<path d="M24.5296 63.3201C24.6496 63.3201 24.7696 63.3001 24.8896 63.2501C34.5496 59.2501 44.5796 51.6601 54.7096 40.6801C62.2496 32.5101 66.8296 25.7001 67.0196 25.4101C67.3096 24.9801 67.1896 24.3901 66.7596 24.1001L63.6196 21.9901C63.4596 21.8801 63.2796 21.8301 63.0896 21.8301C62.7896 21.8301 62.4896 21.9801 62.3096 22.2501C62.1196 22.5301 57.5896 29.1801 50.4196 36.9401C43.8596 44.0401 33.7196 53.4501 22.7296 58.0001C22.4996 58.1001 22.3096 58.2801 22.2196 58.5101C22.1296 58.7401 22.1196 59.0001 22.2196 59.2301L23.6696 62.7301C23.8196 63.0901 24.1696 63.3101 24.5396 63.3101L24.5296 63.3201Z" fill="#FF7B1C"/>
<path d="M63.0899 22.78C62.9099 23.05 44.6599 49.95 23.0799 58.88L24.5299 62.38C34.0599 58.43 43.9799 50.92 54.0099 40.05C61.4399 32 66.0299 25.18 66.2299 24.9L63.0899 22.79M63.0899 20.9C63.4499 20.9 63.8199 21 64.1399 21.22L67.2799 23.33C68.1499 23.91 68.3799 25.08 67.7999 25.95C67.6099 26.24 62.9399 33.16 55.3999 41.33C45.1799 52.41 35.0399 60.08 25.2499 64.13C25.0099 64.23 24.7699 64.27 24.5299 64.27C23.7899 64.27 23.0899 63.83 22.7799 63.1L21.3299 59.6C21.1399 59.14 21.1399 58.62 21.3299 58.15C21.5199 57.69 21.8899 57.32 22.3499 57.13C43.3499 48.45 61.3499 22 61.5299 21.73C61.8899 21.19 62.4899 20.9 63.0999 20.9H63.0899Z" fill="#A34423"/>
<path d="M26.4197 63.97C26.5397 63.97 26.6697 63.95 26.7797 63.9C38.7597 58.94 49.5497 48.93 56.4797 41.41C60.9097 36.61 64.6797 31.74 67.0997 27.69L67.1797 27.5499C67.2897 27.3799 67.3497 27.1599 67.3297 26.9599L67.1597 24.82C67.1297 24.42 66.8497 24.0799 66.4597 23.9799C66.3797 23.9599 66.2997 23.95 66.2197 23.95C65.9097 23.95 65.6097 24.1 65.4397 24.37C65.3997 24.44 60.7997 31.2299 53.6097 39.0299C49.9997 42.9399 37.2097 56.1099 24.1697 61.5099C23.8097 61.66 23.5797 62.02 23.5897 62.41C23.5997 62.7999 23.8597 63.15 24.2297 63.27L26.1197 63.9199C26.2197 63.9499 26.3197 63.97 26.4297 63.97H26.4197Z" fill="#EA6200"/>
<path d="M66.2298 24.89C66.1798 24.96 61.5698 31.8 54.3098 39.66C47.6598 46.87 35.8098 57.71 24.5298 62.37L26.4198 63.02C38.2398 58.13 48.9198 48.22 55.7898 40.76C63.1998 32.72 66.2098 27.31 66.3998 27.02L66.2298 24.88M66.2298 23C66.3898 23 66.5498 23.02 66.7098 23.06C67.4898 23.26 68.0498 23.94 68.1098 24.74L68.2798 26.88C68.3098 27.3 68.1998 27.73 67.9698 28.08L67.9198 28.17C65.4698 32.27 61.6598 37.19 57.1798 42.04C50.1798 49.63 39.2798 59.74 27.1398 64.76C26.9098 64.86 26.6598 64.9 26.4198 64.9C26.2098 64.9 26.0098 64.87 25.8098 64.8L23.9198 64.15C23.1798 63.9 22.6698 63.21 22.6498 62.42C22.6298 61.64 23.0898 60.92 23.8198 60.62C34.0498 56.39 45.5598 46.35 52.9298 38.37C59.9898 30.72 64.4898 24.1 64.6798 23.82C65.0398 23.29 65.6298 22.99 66.2398 22.99L66.2298 23Z" fill="#A34423"/>
<path d="M34.0599 65.4C34.2099 65.4 34.3699 65.36 34.5099 65.29C35.2699 64.88 36.0399 64.47 36.8199 64.05C45.5299 59.39 55.3899 54.11 63.6299 43.08C70.2099 34.26 74.1199 26.93 74.2799 26.62C74.3999 26.4 74.4199 26.14 74.3499 25.9C74.2799 25.66 74.1099 25.46 73.8899 25.34L70.5499 23.57C70.4099 23.49 70.2599 23.46 70.1099 23.46C69.7699 23.46 69.4399 23.64 69.2799 23.96L69.2099 24.1C67.9599 26.81 56.3099 50.8 31.9199 60.24C31.6699 60.34 31.4699 60.54 31.3799 60.79C31.2899 61.04 31.3099 61.33 31.4399 61.57L33.2399 64.9C33.4099 65.22 33.7399 65.4 34.0699 65.4H34.0599Z" fill="#FF7B1C"/>
<path d="M70.1099 24.41C69.9599 24.7 58.4999 50.98 32.2599 61.13L34.0599 64.46C43.1299 59.55 54.0199 54.37 62.8699 42.52C69.4299 33.74 73.2899 26.49 73.4499 26.18L70.1099 24.41ZM70.1099 22.52C70.4099 22.52 70.7099 22.59 70.9899 22.74L74.3299 24.51C75.2499 25 75.5999 26.14 75.1099 27.06C74.9499 27.37 71.0299 34.73 64.3699 43.64C56.0099 54.84 46.0399 60.17 37.2499 64.88C36.4699 65.3 35.6999 65.71 34.9499 66.12C34.6599 66.27 34.3599 66.35 34.0499 66.35C33.3799 66.35 32.7299 65.99 32.3899 65.36L30.5899 62.03C30.3299 61.55 30.2899 60.99 30.4799 60.48C30.6699 59.97 31.0599 59.57 31.5699 59.37C55.6299 50.06 67.1199 26.38 68.3499 23.71C68.3999 23.6 68.4299 23.54 68.4399 23.52C68.7799 22.88 69.4299 22.52 70.1099 22.52Z" fill="#A34423"/>
<path d="M36.0101 65.85C36.1401 65.85 36.2801 65.82 36.4001 65.77C48.1101 60.44 59.2501 51.96 65.4701 43.62C69.3701 38.39 72.6201 33.16 74.6101 28.88L74.6801 28.73C74.7701 28.55 74.8101 28.32 74.7701 28.12L74.3801 26.01C74.3101 25.62 73.9901 25.31 73.6001 25.25C73.5501 25.25 73.5001 25.24 73.4501 25.24C73.1101 25.24 72.7901 25.43 72.6201 25.74C72.4501 26.05 68.5801 33.24 62.3701 41.55C56.3401 49.62 43.5601 58.25 33.6101 63.64C33.2601 63.83 33.0701 64.21 33.1201 64.6C33.1701 64.99 33.4601 65.31 33.8401 65.39L35.7901 65.84C35.8601 65.86 35.9301 65.86 36.0001 65.86L36.0101 65.85Z" fill="#EA6200"/>
<path d="M73.45 26.18C73.41 26.25 69.53 33.53 63.12 42.11C57.25 49.97 44.79 58.65 34.06 64.46L36.01 64.91C47.66 59.61 58.65 51.18 64.72 43.06C71.25 34.29 73.68 28.6 73.84 28.29L73.45 26.18ZM73.45 24.29C73.55 24.29 73.64 24.29 73.74 24.31C74.53 24.43 75.16 25.04 75.31 25.83L75.7 27.94C75.78 28.36 75.71 28.79 75.51 29.17L75.47 29.26C73.46 33.59 70.18 38.89 66.23 44.17C59.92 52.63 48.64 61.23 36.79 66.61C36.54 66.72 36.28 66.78 36.01 66.78C35.87 66.78 35.73 66.76 35.59 66.73L33.64 66.28C32.88 66.1 32.3 65.47 32.19 64.69C32.08 63.91 32.47 63.15 33.16 62.78C43.02 57.44 55.67 48.9 61.61 40.96C67.84 32.62 71.63 25.57 71.78 25.27C72.11 24.65 72.76 24.27 73.45 24.27V24.29Z" fill="#A34423"/>
</g>
<defs>
<clipPath id="clip0_428_517">
<rect width="75.73" height="66.8" fill="white" transform="matrix(-1 0 0 1 75.73 0)"/>
</clipPath>
</defs>
</svg>
