<svg width="255" height="255" viewBox="0 0 255 255" fill="none" xmlns="http://www.w3.org/2000/svg">
<ellipse cx="129.5" cy="222.5" rx="67.5" ry="11.5" fill="#D9D9D9"/>
<path d="M114.656 190.802C114.424 193.235 115.702 221.201 108.046 221.201H93.2655C93.2655 221.201 89.3213 220.968 89.3213 215.75C89.3213 210.533 98.4485 210.88 98.4485 210.88L96.625 186.882" fill="#F49631"/>
<path d="M108.046 224.422H93.2655C93.2011 224.422 93.1416 224.422 93.0772 224.417C90.2727 224.254 86.1055 221.811 86.1055 215.751C86.1055 213.804 86.8438 212.059 88.2461 210.712C90.0992 208.928 92.7948 208.175 94.9948 207.862L93.4191 187.131C93.2853 185.357 94.6133 183.811 96.3872 183.677C98.166 183.538 99.707 184.871 99.8408 186.645L101.664 210.642C101.734 211.559 101.412 212.461 100.772 213.12C100.133 213.779 99.2512 214.145 98.3295 214.106C96.5804 214.051 93.6471 214.453 92.7105 215.359C92.5867 215.483 92.547 215.548 92.547 215.756C92.547 217.664 93.2754 217.946 93.429 217.986H107.977C108.24 217.782 109.845 216.251 110.757 208.308C111.386 202.828 111.396 196.674 111.401 193.369C111.401 191.734 111.406 190.991 111.455 190.505C111.624 188.736 113.195 187.438 114.969 187.606C116.738 187.775 118.036 189.345 117.867 191.114C117.847 191.377 117.847 192.442 117.843 193.384C117.818 209.512 116.614 224.432 108.051 224.432L108.046 224.422Z" fill="black"/>
<path d="M128.242 190.801C128.009 193.234 129.288 221.2 121.632 221.2H110.156C110.156 221.2 106.212 220.968 106.212 215.75C106.212 210.532 115.339 210.879 115.339 210.879L113.516 186.882" fill="#F49631"/>
<path d="M121.632 224.42H110.156C110.092 224.42 110.032 224.42 109.968 224.415C107.163 224.251 102.996 221.808 102.996 215.748C102.996 213.801 103.734 212.057 105.137 210.709C106.99 208.925 109.685 208.172 111.885 207.86L110.31 187.128C110.176 185.354 111.504 183.808 113.278 183.674C115.057 183.536 116.598 184.869 116.731 186.643L118.555 210.64C118.624 211.556 118.302 212.458 117.663 213.117C117.029 213.776 116.142 214.143 115.22 214.103C113.471 214.049 110.538 214.45 109.601 215.357C109.477 215.481 109.438 215.545 109.438 215.753C109.438 217.661 110.166 217.944 110.32 217.983H121.568C121.83 217.78 123.436 216.249 124.347 208.306C124.977 202.826 124.987 196.672 124.992 193.367C124.992 191.731 124.996 190.988 125.046 190.503C125.215 188.734 126.785 187.435 128.559 187.604C130.328 187.772 131.626 189.343 131.458 191.112C131.438 191.375 131.438 192.44 131.433 193.381C131.408 209.51 130.204 224.43 121.642 224.43L121.632 224.42Z" fill="black"/>
<path d="M152.081 192.178C199.511 190.498 214.326 161.075 215.827 155.02C217.77 147.186 224.221 106.797 222.542 97.5662C220.862 88.335 219.276 81.829 208.365 81.4128C197.454 80.9966 201.136 103.027 202.394 109.32C203.653 115.612 201.527 133.624 194.095 151.086C186.662 168.547 152.081 172.031 152.081 172.031L152.056 160.47C152.041 153.246 151.397 146.031 150.134 138.916L148.345 128.837C148.345 128.837 159.959 123.03 163.874 101.976C169.508 71.691 143.727 52.8668 144.148 50.7708C144.569 48.6748 142.889 31.466 139.114 29.365C135.338 27.2641 126.102 47.4113 126.102 47.4113C126.102 47.4113 124.001 46.9901 113.09 46.1527C102.179 45.3153 79.9305 52.0294 79.9305 52.0294C79.9305 52.0294 68.5983 33.9831 64.4014 36.0791C60.2045 38.1751 61.4631 60.4232 61.4631 60.4232C55.5864 64.199 49.2935 72.1766 45.934 94.8409C42.5744 117.505 69.6686 137.732 69.6686 137.732C68.7073 142.028 64.5104 170.688 72.0916 190.369C76.9426 202.96 88.6762 206.017 110.424 206.319C135.838 206.671 147.319 197.896 152.081 192.183V192.178Z" fill="#F49631"/>
<path d="M111.727 209.546C111.266 209.546 110.815 209.546 110.379 209.536C88.5022 209.233 74.7322 206.191 69.0834 191.524C62.072 173.319 64.6189 147.86 66.1352 139.045C60.09 134.09 39.6059 115.563 42.7474 94.3705C45.4479 76.1409 50.3682 64.7592 58.1674 58.8082C58.0882 56.6627 57.999 52.877 58.1377 48.9279C58.4846 39.3002 59.8819 34.7416 62.959 33.2055C67.3343 31.0203 72.1407 36.0596 76.2633 41.2773C78.3097 43.8638 80.148 46.5197 81.3223 48.2787C87.4369 46.5593 103.982 42.2237 113.332 42.9471C118.906 43.3782 122.231 43.7003 124.179 43.9183C127.424 37.1349 132.627 27.6757 136.977 26.2486C138.251 25.8324 139.564 25.9414 140.669 26.5558C142.443 27.5419 144.697 29.9054 146.372 39.5232C146.982 43.0264 147.472 47.5553 147.418 50.0873C147.839 50.5977 148.542 51.3756 149.187 52.0892C155.95 59.5614 171.782 77.0675 167.035 102.576C163.849 119.691 155.752 127.525 151.882 130.384L153.299 138.366C154.593 145.645 155.252 153.083 155.271 160.476L155.291 168.374C158.596 167.864 163.858 166.873 169.388 165.119C177.42 162.567 187.717 157.845 191.126 149.837C198.172 133.292 200.392 115.761 199.233 109.964C197.632 101.962 195.744 87.6069 201.066 81.3685C202.929 79.1833 205.496 78.1031 208.484 78.2072C222.382 78.7423 224.151 88.4443 225.707 97.0066C227.531 107.021 220.921 147.85 218.949 155.813C218.017 159.579 213.533 169.003 203.256 177.719C194.491 185.147 178.803 194.165 153.592 195.359C142.438 207.544 123.217 209.565 111.722 209.565L111.727 209.546ZM65.7784 39.5281C64.6982 42.5557 64.1829 51.5094 64.6784 60.2402C64.7428 61.3997 64.1829 62.5047 63.2067 63.129C58.7868 65.9732 52.5137 72.3999 49.1195 95.307C46.0771 115.831 71.338 134.957 71.5907 135.146C72.6065 135.904 73.0821 137.192 72.8096 138.426C71.7641 143.093 67.9685 170.698 75.0939 189.2C78.9737 199.274 87.8977 202.777 110.468 203.084C110.944 203.089 111.419 203.094 111.885 203.094C135.243 203.094 145.525 194.998 149.608 190.107C150.192 189.403 151.055 188.982 151.966 188.952C171.385 188.264 187.241 182.823 199.094 172.774C208.404 164.881 212.13 156.536 212.7 154.232C214.757 145.933 220.876 106.401 219.375 98.1265C217.601 88.365 216.263 84.9213 208.241 84.6141C206.952 84.5645 206.373 85.0451 205.971 85.5159C203.489 88.4294 203.325 97.517 205.555 108.671C207.106 116.43 204.302 135.324 197.057 152.33C193.539 160.59 184.848 166.962 171.227 171.263C161.45 174.35 152.749 175.187 152.383 175.217C151.481 175.306 150.589 175.004 149.92 174.394C149.251 173.785 148.869 172.923 148.865 172.021L148.835 160.461C148.82 153.44 148.191 146.374 146.962 139.461L145.173 129.383C144.925 127.981 145.629 126.578 146.902 125.939C146.902 125.939 149.464 124.572 152.422 120.905C155.177 117.491 158.854 111.332 160.707 101.367C164.869 78.995 150.534 63.1488 144.415 56.3802C141.814 53.5063 140.609 52.1734 140.976 50.1815C141.229 47.7832 139.827 36.9664 138.092 33.156C135.932 35.5245 132.087 42.0651 129.03 48.7346C128.405 50.0923 126.934 50.8405 125.472 50.5531C125.407 50.5432 123.128 50.1369 112.846 49.3441C102.664 48.5612 81.0845 55.0275 80.8665 55.0919C79.4791 55.5131 77.9777 54.9482 77.2097 53.7194C73.1614 47.2729 68.2163 41.1782 65.7883 39.5083L65.7784 39.5281ZM140.991 50.1369C140.991 50.1369 140.991 50.1567 140.986 50.1666C140.986 50.1567 140.986 50.1468 140.991 50.1369Z" fill="black"/>
<path d="M93.9683 93.5431C93.0813 93.0277 91.9565 93.3201 91.2876 94.0931C90.7277 94.7372 90.2867 95.6688 91.0696 96.6449C92.5957 98.5427 94.984 96.4418 94.984 95.426C94.984 94.767 94.7214 93.9742 93.9683 93.5381V93.5431Z" fill="black"/>
<path d="M92.5508 98.6518C91.6193 98.6518 90.7522 98.2256 90.108 97.4279C89.0972 96.1743 89.1913 94.6233 90.3558 93.2855C91.4508 92.0269 93.2346 91.685 94.5973 92.4728C95.618 93.0675 96.2275 94.1724 96.2275 95.431C96.2275 96.6004 95.073 97.9581 93.6608 98.4536C93.2891 98.5824 92.9175 98.6468 92.5558 98.6468L92.5508 98.6518ZM93.0017 94.5242C92.7094 94.5242 92.4121 94.6927 92.2189 94.9107C91.7184 95.4855 91.8869 95.6936 92.0306 95.877C92.2932 96.204 92.4963 96.199 92.6648 96.1693C93.1653 96.0752 93.6311 95.5896 93.7351 95.3666C93.7252 95.1634 93.6558 94.8067 93.3387 94.6233C93.2297 94.5589 93.1108 94.5341 92.9919 94.5341L93.0017 94.5242Z" fill="black"/>
<path d="M112.11 93.5431C111.223 93.0277 110.098 93.3201 109.429 94.0931C108.869 94.7372 108.428 95.6688 109.211 96.6449C110.737 98.5427 113.126 96.4418 113.126 95.426C113.126 94.767 112.863 93.9742 112.11 93.5381V93.5431Z" fill="black"/>
<path d="M110.689 98.6518C109.757 98.6518 108.89 98.2256 108.246 97.4279C107.235 96.1743 107.329 94.6233 108.493 93.2855C109.589 92.0269 111.372 91.685 112.735 92.4728C113.756 93.0675 114.365 94.1724 114.365 95.431C114.365 96.6004 113.211 97.9581 111.798 98.4536C111.427 98.5824 111.055 98.6468 110.694 98.6468L110.689 98.6518ZM111.139 94.5242C110.847 94.5242 110.55 94.6927 110.362 94.9107C109.861 95.4855 110.03 95.6936 110.173 95.877C110.436 96.204 110.639 96.199 110.807 96.1693C111.308 96.0752 111.774 95.5896 111.878 95.3666C111.868 95.1634 111.798 94.8067 111.481 94.6233C111.372 94.5589 111.253 94.5341 111.135 94.5341L111.139 94.5242Z" fill="black"/>
<path d="M102.021 121.038C100.01 121.038 98.3101 119.378 96.1547 115.3C95.788 114.606 95.8128 113.779 96.2141 113.105C96.6155 112.436 97.3439 112.025 98.1218 112.025H103.86C104.464 112.025 105.039 112.268 105.46 112.704C105.881 113.14 106.104 113.724 106.09 114.324C105.956 118.585 104.474 121.033 102.016 121.033L102.021 121.038Z" fill="#EF9178"/>
<path d="M103.858 114.26C103.858 114.26 103.714 118.809 102.015 118.809C101.163 118.809 99.9238 117.674 98.1202 114.26H103.858ZM103.858 109.801H98.1202C96.5544 109.801 95.1075 110.618 94.2998 111.961C93.4922 113.299 93.4476 114.964 94.176 116.346C95.9895 119.77 98.3333 123.269 102.01 123.269C103.1 123.269 106.752 122.852 107.926 117.486C108.253 115.99 108.308 114.558 108.313 114.399C108.352 113.195 107.896 112.021 107.059 111.154C106.217 110.286 105.062 109.796 103.858 109.796V109.801Z" fill="black"/>
<path d="M92.8061 67.2667C97.5282 67.5046 96.9435 55.8701 96.012 47.9966C93.0638 48.6011 90.2245 49.27 87.7767 49.8894C87.6231 57.0197 88.2227 67.0388 92.8061 67.2717V67.2667Z" fill="#FFCE6C"/>
<path d="M92.9394 70.4933C92.8403 70.4933 92.7412 70.4933 92.6421 70.4883C84.1145 70.0622 84.4465 54.8254 84.5555 49.8208C84.5852 48.3739 85.5812 47.1203 86.9884 46.7685C89.902 46.0352 92.7214 45.3861 95.3674 44.846C96.2494 44.6676 97.171 44.8608 97.8994 45.391C98.6278 45.9212 99.1085 46.7289 99.2125 47.6257C100.981 62.5751 98.8607 66.7968 97.1115 68.6698C96.0016 69.859 94.53 70.5032 92.9444 70.5032L92.9394 70.4933ZM90.9772 52.4173C91.0317 59.83 92.1317 62.6445 92.7214 63.6206C93.1525 62.4413 93.8065 59.3345 93.1772 51.9069C92.4538 52.0704 91.7205 52.2438 90.9772 52.4222V52.4173Z" fill="black"/>
<path d="M112.354 46.1056C110.065 46.0015 107.355 46.1898 104.486 46.5565C104.114 53.3152 104.02 67.001 109.386 67.2686C114.505 67.5262 113.39 53.8454 112.354 46.1106V46.1056Z" fill="#FFCE6C"/>
<path d="M109.519 70.4909C109.42 70.4909 109.321 70.4909 109.222 70.4859C107.517 70.4017 105.976 69.6436 104.762 68.2958C101.819 65.0255 100.64 57.6524 101.264 46.3797C101.348 44.8287 102.532 43.5602 104.073 43.362C107.354 42.9458 110.188 42.7873 112.497 42.8913C114.053 42.9607 115.336 44.135 115.544 45.681C116.213 50.6856 117.992 63.98 113.721 68.6228C112.606 69.8368 111.124 70.4909 109.519 70.4909ZM107.586 49.4617C107.329 58.4551 108.523 62.4142 109.301 63.6678C109.861 62.1714 110.465 58.0389 109.509 49.3378C108.9 49.3626 108.26 49.4072 107.591 49.4617H107.586Z" fill="black"/>
<path d="M150.301 139.945C143.79 140.084 136.65 141.114 136.457 144.979C136.263 148.899 144.236 149.166 151.455 148.606C151.173 145.708 150.787 142.819 150.301 139.945Z" fill="#FFCE6C"/>
<path d="M146.332 152.041C138.895 152.041 136.293 150.476 134.97 149.187C133.771 148.023 133.157 146.467 133.241 144.812C133.628 137.072 146.124 136.805 150.232 136.72C151.822 136.705 153.21 137.83 153.477 139.406C153.973 142.344 154.369 145.332 154.662 148.29C154.746 149.153 154.478 150.01 153.923 150.674C153.368 151.338 152.566 151.749 151.704 151.813C149.677 151.967 147.898 152.036 146.332 152.036V152.041ZM140.109 144.891C141.05 145.238 143.23 145.724 147.878 145.58C147.784 144.817 147.68 144.049 147.566 143.286C142.888 143.608 140.897 144.416 140.104 144.891H140.109Z" fill="black"/>
<path d="M152.054 160.471C152.054 159.148 152.019 157.825 151.975 156.502C145.082 156.502 136.669 157.354 136.461 161.551C136.257 165.58 144.696 165.748 152.069 165.134L152.059 160.471H152.054Z" fill="#FFCE6C"/>
<path d="M146.327 168.617C138.919 168.617 136.313 167.066 134.985 165.778C133.776 164.609 133.157 163.053 133.241 161.388C133.647 153.266 147.457 153.291 151.976 153.276C153.71 153.276 155.132 154.654 155.192 156.388C155.241 157.904 155.271 159.237 155.271 160.456L155.281 165.119C155.281 166.799 154.003 168.196 152.328 168.335C150.039 168.528 148.047 168.612 146.322 168.612L146.327 168.617ZM140.109 161.467C141.115 161.834 143.528 162.359 148.839 162.116V160.476C148.839 160.253 148.839 160.02 148.839 159.787C143.255 160.04 140.976 160.952 140.119 161.467H140.109Z" fill="black"/>
<path d="M145.27 101.622C145.27 101.622 163.524 98.6838 172.131 99.5212Z" fill="#FFEEC7"/>
<path d="M145.263 104.842C143.708 104.842 142.34 103.717 142.087 102.131C141.805 100.377 142.999 98.722 144.753 98.4396C145.516 98.3157 163.518 95.4468 172.442 96.3139C174.211 96.4873 175.509 98.063 175.336 99.832C175.162 101.601 173.591 102.899 171.818 102.726C163.716 101.933 145.957 104.767 145.779 104.797C145.605 104.827 145.432 104.837 145.263 104.837V104.842Z" fill="black"/>
<path d="M147.018 109.232C147.018 109.232 163.037 107.949 172.477 112.522Z" fill="#FFEEC7"/>
<path d="M172.477 115.747C172.007 115.747 171.526 115.643 171.075 115.425C162.547 111.292 147.43 112.432 147.276 112.447C145.497 112.581 143.951 111.263 143.812 109.494C143.669 107.72 144.992 106.169 146.766 106.025C147.454 105.971 163.776 104.727 173.885 109.627C175.485 110.405 176.154 112.328 175.376 113.928C174.821 115.078 173.672 115.747 172.477 115.747Z" fill="black"/>
<path d="M60.1604 103.408C60.1604 103.408 41.8316 105.816 33.8193 109.087Z" fill="#FFEEC7"/>
<path d="M33.8228 112.307C32.5543 112.307 31.3502 111.549 30.8399 110.301C30.166 108.655 30.9588 106.773 32.6039 106.104C40.9036 102.719 58.9746 100.316 59.7377 100.217C61.5017 99.9841 63.117 101.228 63.3499 102.992C63.5828 104.756 62.3391 106.371 60.5751 106.604C60.3967 106.629 42.5635 108.997 35.0318 112.069C34.6354 112.233 34.2192 112.307 33.8178 112.307H33.8228Z" fill="black"/>
<path d="M60.6641 111.204C60.6641 111.204 44.9467 114.558 37.2119 121.644Z" fill="#FFEEC7"/>
<path d="M37.2136 124.866C36.3415 124.866 35.4743 124.514 34.8401 123.82C33.636 122.507 33.7252 120.47 35.0383 119.271C43.3231 111.68 59.318 108.202 59.9919 108.058C61.7311 107.686 63.4406 108.796 63.8122 110.536C64.1839 112.275 63.0739 113.984 61.3347 114.356C61.1365 114.4 46.3606 117.631 39.3888 124.023C38.7694 124.588 37.9915 124.87 37.2136 124.87V124.866Z" fill="black"/>
<path d="M222.325 114.423C222.22 114.423 222.121 114.423 222.017 114.408L202.093 112.525C200.324 112.357 199.021 110.786 199.189 109.017C199.358 107.248 200.934 105.94 202.698 106.114L222.622 107.996C224.391 108.165 225.694 109.736 225.526 111.505C225.367 113.175 223.965 114.423 222.325 114.423Z" fill="black"/>
<path d="M221.215 124.864C221.056 124.864 220.893 124.854 220.729 124.83L201.92 121.995C200.161 121.728 198.952 120.088 199.215 118.329C199.482 116.57 201.122 115.365 202.881 115.623L221.691 118.457C223.45 118.725 224.659 120.365 224.396 122.124C224.153 123.72 222.781 124.864 221.215 124.864Z" fill="black"/>
<path d="M220.028 133.808C219.864 133.808 219.706 133.798 219.537 133.769L200.708 130.904C198.949 130.637 197.74 128.997 198.008 127.238C198.275 125.479 199.92 124.265 201.675 124.537L220.504 127.401C222.263 127.669 223.472 129.309 223.204 131.068C222.961 132.664 221.589 133.803 220.023 133.803L220.028 133.808Z" fill="black"/>
<path d="M217.974 146.997C217.608 146.997 217.231 146.933 216.869 146.799L197.946 139.867C196.276 139.258 195.419 137.404 196.028 135.735C196.638 134.065 198.491 133.202 200.161 133.817L219.084 140.749C220.754 141.358 221.611 143.212 221.002 144.882C220.526 146.185 219.292 146.997 217.979 146.997H217.974Z" fill="black"/>
<path d="M222.326 103.353C222.231 103.353 222.142 103.353 222.048 103.338L202.124 101.554C200.424 101.401 199.166 99.8992 199.319 98.1996C199.473 96.5 200.979 95.2414 202.674 95.395L222.598 97.1788C224.298 97.3324 225.556 98.8338 225.403 100.533C225.259 102.139 223.911 103.348 222.326 103.348V103.353Z" fill="black"/>
</svg>
