<?xml version="1.0" encoding="UTF-8"?>
<!DOCTYPE svg PUBLIC "-//W3C//DTD SVG 1.1//EN" "http://www.w3.org/Graphics/SVG/1.1/DTD/svg11.dtd">
<svg xmlns="http://www.w3.org/2000/svg" version="1.1" width="765px" height="765px" style="shape-rendering:geometricPrecision; text-rendering:geometricPrecision; image-rendering:optimizeQuality; fill-rule:evenodd; clip-rule:evenodd" xmlns:xlink="http://www.w3.org/1999/xlink">
<g><path style="opacity:0.981" fill="#020100" d="M 391.5,632.5 C 389.617,641.992 386.784,651.325 383,660.5C 379.702,665.801 375.202,669.635 369.5,672C 337.833,672.667 306.167,672.667 274.5,672C 261.121,665.743 255.787,655.243 258.5,640.5C 261.348,632.819 266.682,627.652 274.5,625C 257.401,621.636 241.735,614.969 227.5,605C 213.904,592.319 205.071,576.819 201,558.5C 193.258,525.593 190.591,492.259 193,458.5C 193.943,444.402 195.277,430.402 197,416.5C 176.268,399.44 158.768,379.606 144.5,357C 140.619,357.427 136.953,358.76 133.5,361C 126.993,365.086 120.66,369.42 114.5,374C 103.109,374.597 99.276,369.43 103,358.5C 111.884,349.968 122.05,343.302 133.5,338.5C 134.614,337.277 134.781,335.944 134,334.5C 133.288,332.153 132.121,330.153 130.5,328.5C 122.023,330.536 113.69,333.036 105.5,336C 97.2307,337.885 92.2307,334.719 90.5,326.5C 91.2686,323.128 92.9352,320.295 95.5,318C 105.98,314.047 116.646,310.714 127.5,308C 126.341,270.14 134.508,234.307 152,200.5C 157.184,191.158 164.018,183.158 172.5,176.5C 173.167,159.82 174,143.153 175,126.5C 175.678,117.8 178.344,109.8 183,102.5C 189.036,97.2775 195.869,96.1109 203.5,99C 210.544,103.038 216.711,108.204 222,114.5C 229.052,123.218 235.719,132.218 242,141.5C 242.739,142.574 243.739,143.241 245,143.5C 273.258,135.015 302.091,129.682 331.5,127.5C 343.863,128.143 356.196,129.143 368.5,130.5C 369.833,130.167 371.167,129.833 372.5,129.5C 380.399,110.849 391.399,94.3492 405.5,80C 414.965,75.2453 422.798,77.0786 429,85.5C 434.837,97.5119 438.504,110.179 440,123.5C 441,132.5 442,141.5 443,150.5C 463.994,171.834 480.66,196.168 493,223.5C 501.083,244.082 504.583,265.415 503.5,287.5C 510.042,286.989 516.376,287.822 522.5,290C 526.5,295.333 526.5,300.667 522.5,306C 520.275,307.131 517.942,307.964 515.5,308.5C 510.544,307.606 505.544,307.273 500.5,307.5C 500.286,311.406 499.619,315.239 498.5,319C 498.833,319.5 499.167,320 499.5,320.5C 507.818,322.439 515.818,325.273 523.5,329C 527.883,333.466 528.383,338.299 525,343.5C 522.739,345.63 520.072,346.964 517,347.5C 508.844,344.225 500.51,341.559 492,339.5C 484.507,360.167 472.34,377.5 455.5,391.5C 463.658,428.711 467.158,466.377 466,504.5C 492.452,500.349 517.619,492.183 541.5,480C 560.633,469.52 573.133,453.687 579,432.5C 591.316,399.925 597.316,366.258 597,331.5C 592.228,310.019 590.895,288.352 593,266.5C 598.438,236.688 615.605,226.855 644.5,237C 658.825,242.461 667.991,252.628 672,267.5C 675.588,279.772 677.755,292.272 678.5,305C 675.498,353.353 669.498,401.353 660.5,449C 656.546,474.073 646.046,495.906 629,514.5C 591.795,553.353 546.295,576.187 492.5,583C 481.881,584.513 471.215,585.513 460.5,586C 441.67,604.418 419.336,616.585 393.5,622.5C 392.402,625.753 391.736,629.086 391.5,632.5 Z"/></g>
<g><path style="opacity:1" fill="#f39530" d="M 412.5,99.5 C 413.75,99.5774 414.583,100.244 415,101.5C 420.366,119.428 423.033,137.761 423,156.5C 435.385,170.283 447.052,184.616 458,199.5C 476.765,226.554 485.265,256.554 483.5,289.5C 466.426,290.592 449.426,292.426 432.5,295C 424.081,300.176 423.414,306.176 430.5,313C 432.333,313.167 434.167,313.333 436,313.5C 450.769,311.216 465.602,309.55 480.5,308.5C 480.127,311.574 479.461,314.574 478.5,317.5C 464.829,317.333 451.163,317.5 437.5,318C 431.831,320.815 429.998,325.315 432,331.5C 432.833,333.667 434.333,335.167 436.5,336C 448.181,336.167 459.848,336.667 471.5,337.5C 467.665,346.481 462.831,354.814 457,362.5C 450.572,369.601 443.572,375.935 436,381.5C 436.172,391.208 437.006,400.875 438.5,410.5C 427.323,410.377 416.989,413.21 407.5,419C 400.053,424.403 397.553,431.57 400,440.5C 403.065,447.227 408.231,451.394 415.5,453C 425.368,455.209 435.368,456.042 445.5,455.5C 445.5,456.833 445.5,458.167 445.5,459.5C 432.389,459.028 420.056,461.861 408.5,468C 398.75,475.563 396.917,484.729 403,495.5C 407.873,500.24 413.707,503.073 420.5,504C 429.13,505.145 437.797,505.645 446.5,505.5C 446.334,510.179 446.501,514.845 447,519.5C 449.139,523.152 452.306,525.152 456.5,525.5C 479.298,522.307 501.631,517.141 523.5,510C 544.026,502.496 562.193,491.329 578,476.5C 582.057,471.442 585.724,466.108 589,460.5C 594.327,448.019 599.16,435.352 603.5,422.5C 616.389,427.573 629.389,432.24 642.5,436.5C 641.024,458.775 633.19,478.441 619,495.5C 588.471,530.358 550.304,552.191 504.5,561C 486.991,564.36 469.325,566.36 451.5,567C 434.814,585.682 414.148,597.682 389.5,603C 349.182,610.285 308.849,610.285 268.5,603C 242.64,597.14 226.807,581.307 221,555.5C 216.828,541.453 214.161,527.119 213,512.5C 211.116,478.24 212.783,444.24 218,410.5C 217.333,409.167 216.667,407.833 216,406.5C 195.54,390.208 178.04,371.208 163.5,349.5C 164.09,348.201 165.09,347.368 166.5,347C 173.439,344.848 180.439,342.848 187.5,341C 191.793,335.318 191.459,329.984 186.5,325C 184.801,324.042 182.967,323.542 181,323.5C 172.168,325.2 163.501,327.533 155,330.5C 152.619,328.906 151.453,326.573 151.5,323.5C 162.542,321.899 173.542,320.066 184.5,318C 191.111,312.506 191.111,306.84 184.5,301C 171.619,300.647 158.952,302.147 146.5,305.5C 146.236,269.889 154.736,236.556 172,205.5C 177.374,198.459 183.707,192.459 191,187.5C 191.667,186.167 192.333,184.833 193,183.5C 193.333,166.167 193.667,148.833 194,131.5C 194.667,127.5 195.333,123.5 196,119.5C 196.718,118.549 197.551,118.383 198.5,119C 201.667,122.167 204.833,125.333 208,128.5C 217.218,140.051 226.052,151.884 234.5,164C 235.873,164.875 237.373,165.375 239,165.5C 243.533,164.267 248.033,162.933 252.5,161.5C 253.666,170.163 254.833,178.83 256,187.5C 257.624,195.065 261.124,201.565 266.5,207C 278.515,213.618 288.015,211.118 295,199.5C 299.428,183.435 300.595,167.102 298.5,150.5C 299.833,150.5 301.167,150.5 302.5,150.5C 302.153,160.93 302.987,171.263 305,181.5C 305.798,192.935 310.631,202.101 319.5,209C 328.993,212.63 336.826,210.463 343,202.5C 345.126,197.668 346.793,192.668 348,187.5C 348.822,174.591 348.655,161.758 347.5,149C 357.694,149.211 367.86,150.044 378,151.5C 380.321,151.091 382.487,150.257 384.5,149C 392.861,131.842 402.194,115.342 412.5,99.5 Z"/></g>
<g><path style="opacity:1" fill="#f3c567" d="M 322.5,147.5 C 324.5,147.5 326.5,147.5 328.5,147.5C 329.505,159.484 329.672,171.484 329,183.5C 328.64,185.608 327.973,187.608 327,189.5C 325.289,184.615 323.955,179.615 323,174.5C 322.5,165.506 322.334,156.506 322.5,147.5 Z"/></g>
<g><path style="opacity:1" fill="#f3c467" d="M 274.5,155.5 C 276.167,155.5 277.833,155.5 279.5,155.5C 279.666,164.839 279.5,174.173 279,183.5C 278.808,185.577 278.308,187.577 277.5,189.5C 272.516,178.342 271.516,167.009 274.5,155.5 Z"/></g>
<g><path style="opacity:1" fill="#f09330" d="M 619.5,253.5 C 628.47,252.769 636.803,254.602 644.5,259C 651.717,267.803 655.717,277.97 656.5,289.5C 641.46,288.958 626.46,287.958 611.5,286.5C 610.96,276.482 612.46,266.816 616,257.5C 617.376,256.295 618.542,254.962 619.5,253.5 Z"/></g>
<g><path style="opacity:1" fill="#0c0602" d="M 275.5,275.5 C 285.189,275.669 289.023,280.336 287,289.5C 280.071,297.837 273.738,297.504 268,288.5C 267.294,286.029 267.627,283.695 269,281.5C 271.063,279.266 273.229,277.266 275.5,275.5 Z"/></g>
<g><path style="opacity:1" fill="#090501" d="M 329.5,275.5 C 340.099,275.375 343.932,280.375 341,290.5C 334.427,297.506 328.427,297.172 323,289.5C 322.333,287.167 322.333,284.833 323,282.5C 324.694,279.642 326.861,277.309 329.5,275.5 Z"/></g>
<g><path style="opacity:1" fill="#633d14" d="M 619.5,305.5 C 617.5,305.5 615.5,305.5 613.5,305.5C 613.5,306.5 613.5,307.5 613.5,308.5C 612.566,307.432 612.232,306.099 612.5,304.5C 615.059,304.198 617.393,304.532 619.5,305.5 Z"/></g>
<g><path style="opacity:1" fill="#ed912f" d="M 619.5,305.5 C 632.472,306.831 645.472,307.831 658.5,308.5C 658.46,313.193 658.127,317.859 657.5,322.5C 643.127,321.607 628.794,320.273 614.5,318.5C 614.167,315.167 613.833,311.833 613.5,308.5C 613.5,307.5 613.5,306.5 613.5,305.5C 615.5,305.5 617.5,305.5 619.5,305.5 Z"/></g>
<g><path style="opacity:1" fill="#090502" d="M 290.5,328.5 C 298.174,328.334 305.841,328.5 313.5,329C 320.294,330.96 323.961,335.46 324.5,342.5C 324.409,351.504 321.409,359.337 315.5,366C 309.369,370.225 303.035,370.558 296.5,367C 288.477,360.498 283.144,352.332 280.5,342.5C 281.147,335.861 284.481,331.195 290.5,328.5 Z"/></g>
<g><path style="opacity:1" fill="#ec912f" d="M 617.5,338.5 C 630.178,339.39 642.845,340.39 655.5,341.5C 655.495,345.534 655.162,349.534 654.5,353.5C 642.244,351.291 629.911,349.624 617.5,348.5C 617.5,345.167 617.5,341.833 617.5,338.5 Z"/></g>
<g><path style="opacity:1" fill="#e98d75" d="M 294.5,342.5 C 299.833,342.5 305.167,342.5 310.5,342.5C 310.926,347.032 309.926,351.199 307.5,355C 304.364,356.041 301.864,355.207 300,352.5C 297.888,349.273 296.055,345.94 294.5,342.5 Z"/></g>
<g><path style="opacity:1" fill="#e88f2e" d="M 615.5,367.5 C 627.966,368.727 640.299,370.727 652.5,373.5C 651.626,375.747 651.292,378.08 651.5,380.5C 639.818,378.864 628.151,377.031 616.5,375C 615.572,374.612 614.905,373.945 614.5,373C 615.233,371.234 615.567,369.401 615.5,367.5 Z"/></g>
<g><path style="opacity:1" fill="#ec912f" d="M 610.5,393.5 C 622.871,395.241 635.204,397.241 647.5,399.5C 647.833,400 648.167,400.5 648.5,401C 647.225,406.425 646.558,411.925 646.5,417.5C 634.032,413.63 621.699,409.297 609.5,404.5C 608.889,400.838 609.223,397.171 610.5,393.5 Z"/></g>
<g><path style="opacity:1" fill="#e7bb62" d="M 433.5,429.5 C 436.5,429.5 439.5,429.5 442.5,429.5C 442.5,431.833 442.5,434.167 442.5,436.5C 435.437,436.788 428.437,436.288 421.5,435C 420.167,434.333 420.167,433.667 421.5,433C 425.543,431.509 429.543,430.342 433.5,429.5 Z"/></g>
<g><path style="opacity:1" fill="#e4b860" d="M 439.5,479.5 C 441.5,479.5 443.5,479.5 445.5,479.5C 445.5,481.5 445.5,483.5 445.5,485.5C 437.173,487.02 428.84,486.52 420.5,484C 426.345,480.663 432.678,479.163 439.5,479.5 Z"/></g>
<g><path style="opacity:1" fill="#796133" d="M 439.5,479.5 C 441.607,478.532 443.941,478.198 446.5,478.5C 446.802,481.059 446.468,483.393 445.5,485.5C 445.5,483.5 445.5,481.5 445.5,479.5C 443.5,479.5 441.5,479.5 439.5,479.5 Z"/></g>
<g><path style="opacity:1" fill="#784a18" d="M 367.5,626.5 C 368.919,625.549 370.585,625.216 372.5,625.5C 372.795,627.735 372.461,629.735 371.5,631.5C 371.5,629.833 371.5,628.167 371.5,626.5C 370.167,626.5 368.833,626.5 367.5,626.5 Z"/></g>
<g><path style="opacity:1" fill="#ee922f" d="M 367.5,626.5 C 368.833,626.5 370.167,626.5 371.5,626.5C 371.5,628.167 371.5,629.833 371.5,631.5C 370.858,639.258 368.525,646.425 364.5,653C 352.591,653.821 340.757,653.654 329,652.5C 327.369,650.045 327.203,647.545 328.5,645C 335.179,642.189 342.179,640.856 349.5,641C 354.044,637.748 356.377,633.248 356.5,627.5C 360.094,626.574 363.76,626.241 367.5,626.5 Z"/></g>
<g><path style="opacity:1" fill="#ed922f" d="M 304.5,627.5 C 309.511,627.334 314.511,627.501 319.5,628C 310.214,633.739 306.88,641.906 309.5,652.5C 299.167,653.833 288.833,653.833 278.5,652.5C 276.938,649.386 277.271,646.553 279.5,644C 286.472,642.369 293.472,641.036 300.5,640C 303.883,636.556 305.216,632.39 304.5,627.5 Z"/></g>
<g><path style="opacity:0.985" fill="#d8d8d8" d="M 391.5,632.5 C 436.054,631.904 480.387,634.737 524.5,641C 543.398,643.512 561.731,648.179 579.5,655C 594.167,663 594.167,671 579.5,679C 557.214,687.258 534.214,692.592 510.5,695C 447.309,701.613 383.976,703.279 320.5,700C 284.343,698.356 248.677,693.356 213.5,685C 204.519,682.673 196.185,679.006 188.5,674C 184.5,669.333 184.5,664.667 188.5,660C 197.12,654.456 206.453,650.456 216.5,648C 230.316,644.403 244.316,641.903 258.5,640.5C 255.787,655.243 261.121,665.743 274.5,672C 306.167,672.667 337.833,672.667 369.5,672C 375.202,669.635 379.702,665.801 383,660.5C 386.784,651.325 389.617,641.992 391.5,632.5 Z"/></g>
</svg>
