<svg width="255" height="255" viewBox="0 0 255 255" fill="none" xmlns="http://www.w3.org/2000/svg">
<ellipse cx="129.5" cy="222.5" rx="67.5" ry="11.5" fill="#D9D9D9"/>
<path d="M133.017 190.084C132.784 192.517 134.062 220.484 126.407 220.484H111.626C111.626 220.484 107.682 220.251 107.682 215.033C107.682 209.815 116.809 210.162 116.809 210.162L114.985 186.165" fill="white"/>
<path d="M126.408 223.704H111.627C111.562 223.704 111.503 223.704 111.439 223.699C108.634 223.535 104.467 221.092 104.467 215.032C104.467 213.085 105.205 211.341 106.602 209.993C108.456 208.209 111.151 207.456 113.351 207.144L111.775 186.412C111.642 184.638 112.97 183.092 114.744 182.958C116.517 182.83 118.063 184.153 118.197 185.926L120.021 209.924C120.09 210.84 119.768 211.742 119.129 212.401C118.495 213.06 117.603 213.417 116.686 213.387C114.937 213.333 112.003 213.734 111.062 214.641C110.938 214.765 110.898 214.829 110.898 215.037C110.898 215.954 111.067 217.069 111.855 217.267H126.328C126.591 217.064 128.197 215.533 129.108 207.59C129.738 202.11 129.747 195.955 129.752 192.65C129.752 191.015 129.757 190.272 129.807 189.786C129.975 188.017 131.546 186.719 133.32 186.888C135.089 187.056 136.387 188.627 136.219 190.396C136.199 190.659 136.199 191.724 136.194 192.665C136.169 208.794 134.965 223.714 126.403 223.714L126.408 223.704Z" fill="black"/>
<path d="M146.604 190.084C146.371 192.517 147.65 220.484 139.994 220.484H128.518C128.518 220.484 124.574 220.251 124.574 215.033C124.574 209.815 133.701 210.162 133.701 210.162L131.878 186.165" fill="white"/>
<path d="M139.994 223.704H128.518C128.454 223.704 128.395 223.704 128.33 223.699C125.526 223.535 121.358 221.092 121.358 215.032C121.358 213.085 122.097 211.341 123.494 209.993C125.347 208.209 128.043 207.456 130.243 207.144L128.667 186.412C128.533 184.638 129.861 183.092 131.635 182.958C133.404 182.83 134.955 184.153 135.089 185.926L136.912 209.924C136.982 210.84 136.66 211.742 136.02 212.401C135.386 213.06 134.494 213.417 133.577 213.387C131.823 213.333 128.895 213.734 127.954 214.641C127.83 214.765 127.79 214.829 127.79 215.037C127.79 215.954 127.958 217.069 128.746 217.267H139.915C140.178 217.064 141.783 215.533 142.695 207.59C143.324 202.105 143.334 195.955 143.339 192.645C143.339 191.01 143.344 190.272 143.393 189.781C143.562 188.013 145.133 186.714 146.907 186.883C148.676 187.051 149.974 188.622 149.81 190.391C149.79 190.654 149.79 191.719 149.785 192.66C149.761 208.789 148.557 223.714 139.994 223.714V223.704Z" fill="black"/>
<path d="M173.197 181.558C173.197 181.558 173.975 184.492 176.398 185.924C178.821 187.356 180.476 183.58 180.476 183.58C180.476 183.58 182.136 186.751 185.114 186.751C188.092 186.751 187.458 180.151 187.458 180.151C187.458 180.151 189.812 178.749 191.016 175.81C192.22 172.877 188.821 171.916 188.821 171.916C188.821 171.916 190.173 170.157 189.202 167.124C188.231 164.092 184.876 166.148 184.876 166.148C184.876 166.148 183.226 163.448 180.561 163.537C177.895 163.626 177.325 166.569 177.325 166.569C177.325 166.569 176.646 164.909 173.802 165.499C170.958 166.089 170.982 171.118 170.982 171.118" fill="white"/>
<path d="M185.111 189.972C183.247 189.972 181.736 189.303 180.577 188.46C180.131 188.772 179.63 189.04 179.07 189.218C177.638 189.679 176.107 189.496 174.759 188.698C171.301 186.657 170.196 182.817 170.082 182.385C169.626 180.666 170.647 178.902 172.366 178.446C174.076 177.995 175.83 179.001 176.3 180.706C176.405 181.067 176.761 181.93 177.361 182.589C177.43 182.48 177.49 182.366 177.539 182.262C178.035 181.127 179.135 180.393 180.374 180.349C181.602 180.294 182.757 180.988 183.332 182.088C183.47 182.336 183.802 182.787 184.204 183.119C184.308 182.356 184.333 181.325 184.253 180.453C184.139 179.189 184.699 178.01 185.809 177.386C185.809 177.386 187.068 176.563 187.851 174.997C186.756 174.715 185.834 174.031 185.522 172.941C185.21 171.851 185.433 170.84 186.196 170.023C186.255 169.879 186.359 169.552 186.32 169.041C185.626 169.428 184.868 169.547 184.08 169.359C183.218 169.151 182.559 168.6 182.118 167.832C181.89 167.481 181.211 166.772 180.691 166.762C180.587 166.896 180.483 167.183 180.483 167.183C180.215 168.581 179.055 169.641 177.638 169.78C176.538 169.884 175.488 169.428 174.819 168.6C174.784 168.6 174.745 168.605 174.705 168.61C174.442 169.071 174.209 170.221 174.204 171.118C174.195 172.892 172.758 174.333 170.984 174.333C169.21 174.333 167.773 172.911 167.763 171.137C167.743 167.6 169.14 163.175 173.149 162.342C174.274 162.109 175.26 162.099 176.107 162.238C177.173 161.148 178.629 160.38 180.453 160.321C182.816 160.231 184.62 161.307 185.834 162.382C186.795 162.189 187.915 162.169 189.035 162.585C190.571 163.155 191.721 164.423 192.271 166.148C192.816 167.847 192.855 169.319 192.682 170.508C193.162 170.959 193.608 171.519 193.945 172.208C194.451 173.238 194.867 174.918 194 177.029C193.123 179.165 191.8 180.691 190.749 181.652C190.744 183.649 190.417 186.548 188.802 188.327C187.841 189.382 186.533 189.967 185.12 189.967L185.111 189.972Z" fill="black"/>
<path d="M172.601 92.6554C172.601 92.6554 178.324 95.0586 176.149 103.353C173.969 111.643 169.222 108.239 169.222 108.239C169.222 108.239 175.222 114.973 171.437 119.774C167.656 124.576 163.479 121.751 163.479 121.751C163.479 121.751 166.794 126.969 162.978 130.274C162.978 130.274 176.134 155.916 172.175 183.759C171.372 189.403 168.201 194.477 163.415 197.578C156.74 201.909 145.933 205.829 128.779 205.596C107.031 205.298 95.2926 202.236 90.4466 189.645C83.6086 171.887 86.3587 146.819 87.6618 138.936C86.428 138.772 84.9911 138.346 83.346 137.513C76.3495 133.99 81.909 127.519 81.909 127.519C81.909 127.519 78.4256 129.501 72.4796 124.492C66.5385 119.482 76.4188 112.277 76.4188 112.277C76.4188 112.277 73.1832 115.345 68.5205 108.145C63.8578 100.945 72.3904 95.8316 72.3904 95.8316L81.3194 66.6117L120.34 51.8457L153.093 58.5598L170.976 69.0546L172.596 92.6455" fill="white"/>
<path d="M130.257 208.827C129.752 208.827 129.246 208.827 128.731 208.817C106.855 208.515 93.0844 205.472 87.4357 190.805C80.677 173.259 82.9217 149.797 84.0514 141.329C83.3379 141.072 82.6194 140.759 81.8959 140.393C78.2936 138.579 77.1094 136.047 76.7477 134.243C76.495 132.98 76.5742 131.756 76.827 130.646C74.9837 130.096 72.8183 128.996 70.4052 126.96C67.779 124.745 67.3034 122.228 67.3628 120.508C67.4421 118.239 68.4876 116.133 69.766 114.389C68.3984 113.348 67.0804 111.852 65.8169 109.904C64.0925 107.239 63.5177 104.36 64.1668 101.57C65.0587 97.7149 67.9921 95.0541 69.6421 93.8252L78.2441 65.6806C78.5364 64.7292 79.25 63.9612 80.1865 63.6094L119.207 48.8433C119.777 48.6303 120.397 48.5758 120.996 48.6997L153.749 55.4137C154.096 55.4831 154.428 55.6119 154.73 55.7903L172.613 66.2851C173.53 66.8252 174.124 67.7815 174.198 68.8419L175.705 90.7927C178.346 92.8491 181.101 97.1798 179.268 104.166C178.361 107.61 176.879 109.969 174.848 111.198C176.22 114.478 176.621 118.407 173.975 121.767C172.306 123.882 170.244 125.215 168.015 125.642C168.114 127.326 167.811 129.12 166.781 130.755C169.813 137.405 178.836 159.807 175.368 184.21C174.426 190.83 170.71 196.687 165.175 200.279C156.43 205.953 144.691 208.822 130.267 208.822L130.257 208.827ZM82.0991 124.081C82.9365 124.081 83.7739 124.462 84.4379 125.151C85.5875 126.35 85.4388 128.362 84.3537 129.62C83.8631 130.205 82.8424 131.895 83.0654 132.99C83.1843 133.57 83.764 134.125 84.7897 134.64C85.9789 135.239 87.0889 135.611 88.0848 135.745C88.947 135.859 89.7299 136.32 90.2452 137.023C90.7655 137.722 90.9736 138.604 90.8348 139.466C86.9699 162.78 90.6565 181.252 93.4461 188.491C97.3259 198.565 106.25 202.068 128.82 202.38C142.645 202.549 153.699 200.046 161.662 194.883C165.636 192.307 168.307 188.085 168.986 183.313C172.742 156.858 160.235 131.999 160.111 131.751C159.437 130.433 159.75 128.818 160.869 127.847C162.524 126.41 160.82 123.58 160.751 123.461C159.918 122.148 160.082 120.389 161.226 119.334C162.361 118.288 164.021 118.154 165.265 119.071C166.102 119.557 167.405 119.71 168.916 117.788C170.903 115.266 166.865 110.435 166.825 110.385C165.706 109.131 165.661 107.164 166.825 105.95C167.98 104.751 169.774 104.563 171.072 105.598C171.216 105.673 171.414 105.732 171.473 105.717C171.632 105.673 172.405 104.964 173.044 102.541C174.367 97.5118 171.939 95.9311 171.334 95.6239C170.155 95.1829 169.486 94.1473 169.402 92.8887L167.901 70.9924L151.945 61.6323L120.629 55.2106L83.9622 69.0847L75.494 96.7933C75.2612 97.5564 74.7508 98.2055 74.067 98.6167C73.2345 99.1271 70.9354 100.941 70.4548 103.061C70.212 104.127 70.4696 105.227 71.2426 106.416C73.1206 109.315 74.3048 109.676 74.508 109.721C74.5179 109.711 74.5328 109.706 74.5427 109.696C75.9152 108.695 77.8279 108.933 78.913 110.236C79.9982 111.539 79.8842 113.467 78.6554 114.636C78.477 114.805 78.2689 114.973 78.036 115.132C76.267 116.514 73.8737 119.081 73.8192 120.756C73.8143 120.964 73.7994 121.395 74.5774 122.054C77.9815 124.923 79.9734 124.76 80.4392 124.665C80.9644 124.284 81.5441 124.101 82.1189 124.101L82.0991 124.081Z" fill="black"/>
<path d="M172.603 92.6567C172.603 92.6567 178.326 95.0599 176.15 103.355C173.97 111.644 169.223 108.24 169.223 108.24C169.223 108.24 175.224 114.974 171.438 119.776C167.657 124.577 163.48 121.753 163.48 121.753C163.48 121.753 166.795 126.97 162.98 130.275C159.164 133.58 156.345 132.327 155.587 130.791" fill="white"/>
<path d="M158.449 135.587C157.923 135.587 157.448 135.533 157.026 135.443C155.119 135.057 153.503 133.848 152.701 132.208C151.918 130.612 152.577 128.68 154.177 127.897C155.694 127.154 157.507 127.709 158.359 129.136C158.647 129.165 159.514 129.022 160.877 127.837C162.532 126.4 160.827 123.571 160.758 123.452C159.925 122.139 160.089 120.38 161.233 119.325C162.368 118.279 164.028 118.145 165.272 119.062C166.109 119.548 167.412 119.701 168.923 117.779C170.91 115.256 166.872 110.425 166.832 110.376C165.713 109.122 165.668 107.155 166.832 105.941C167.987 104.742 169.781 104.554 171.079 105.589C171.223 105.664 171.421 105.723 171.48 105.708C171.639 105.664 172.412 104.955 173.051 102.532C174.404 97.3837 171.832 95.8476 171.302 95.5949L171.371 95.6246L173.869 89.6885C176.743 90.8926 181.569 95.476 179.284 104.172C178.378 107.616 176.896 109.974 174.865 111.203C176.237 114.484 176.638 118.413 173.992 121.772C172.323 123.888 170.261 125.221 168.032 125.647C168.175 128.036 167.506 130.632 165.108 132.713C162.512 134.963 160.213 135.587 158.463 135.587H158.449Z" fill="black"/>
<path d="M112.432 92.8209C111.545 92.3056 110.42 92.5979 109.751 93.3709C109.192 94.0151 108.751 94.9466 109.533 95.9228C111.06 97.8205 113.448 95.7196 113.448 94.7038C113.448 94.0448 113.185 93.252 112.432 92.8159V92.8209Z" fill="black"/>
<path d="M111.011 97.9286C110.079 97.9286 109.212 97.5025 108.568 96.7047C107.557 95.4511 107.651 93.9002 108.816 92.5623C109.911 91.3037 111.695 90.9619 113.057 91.7497C114.078 92.3443 114.687 93.4493 114.687 94.7079C114.687 95.8772 113.533 97.2349 112.116 97.7354C111.744 97.8642 111.373 97.9286 111.011 97.9286ZM111.467 93.8011C111.174 93.8011 110.877 93.9696 110.684 94.1876C110.183 94.7624 110.352 94.9705 110.495 95.1538C110.758 95.4808 110.961 95.4759 111.13 95.4462C111.63 95.357 112.096 94.8664 112.2 94.6434C112.19 94.4403 112.121 94.0835 111.804 93.9002C111.695 93.8358 111.576 93.811 111.457 93.811L111.467 93.8011Z" fill="black"/>
<path d="M130.577 92.8214C129.69 92.3061 128.565 92.5984 127.896 93.3714C127.336 94.0156 126.895 94.9471 127.678 95.9232C129.204 97.821 131.592 95.7201 131.592 94.7043C131.592 94.0453 131.33 93.2525 130.577 92.8164V92.8214Z" fill="black"/>
<path d="M129.159 97.9281C128.228 97.9281 127.361 97.502 126.716 96.7043C125.706 95.4506 125.8 93.8997 126.964 92.5618C128.059 91.3033 129.843 90.9614 131.206 91.7492C132.226 92.3438 132.836 93.4488 132.836 94.7074C132.836 95.8768 131.681 97.2344 130.264 97.7349C129.893 97.8637 129.521 97.9281 129.159 97.9281ZM129.61 93.8006C129.318 93.8006 129.016 93.9691 128.827 94.1871C128.327 94.7619 128.495 94.97 128.639 95.1533C128.902 95.4804 129.105 95.4754 129.273 95.4457C129.774 95.3565 130.239 94.8659 130.344 94.643C130.334 94.4398 130.264 94.083 129.947 93.8997C129.838 93.8353 129.719 93.8105 129.6 93.8105L129.61 93.8006Z" fill="black"/>
<path d="M120.475 120.32C118.463 120.32 116.763 118.66 114.608 114.582C114.241 113.888 114.266 113.061 114.667 112.387C115.069 111.718 115.797 111.307 116.575 111.307H122.313C122.917 111.307 123.492 111.549 123.913 111.985C124.334 112.422 124.557 113.006 124.543 113.606C124.409 117.867 122.927 120.315 120.47 120.315L120.475 120.32Z" fill="#EF9178"/>
<path d="M122.319 113.538C122.319 113.538 122.175 118.086 120.476 118.086C119.624 118.086 118.385 116.952 116.581 113.538H122.319ZM122.319 109.078H116.581C115.015 109.078 113.568 109.896 112.761 111.239C111.953 112.576 111.909 114.241 112.637 115.624C114.45 119.048 116.794 122.546 120.471 122.546C121.561 122.546 125.213 122.13 126.387 116.763C126.714 115.267 126.769 113.835 126.774 113.676C126.813 112.472 126.357 111.298 125.52 110.431C124.678 109.564 123.523 109.073 122.319 109.073V109.078Z" fill="black"/>
<path d="M155.793 68.4659C155.793 68.4659 151.625 71.5677 150.897 76.3246C150.164 81.0764 157.21 81.3143 157.21 81.3143C157.21 81.3143 153.226 85.9671 155.119 90.6942C157.012 95.4213 167.095 90.2235 167.095 90.2235C167.095 90.2235 170.821 93.0676 176.247 93.1172C181.673 93.1667 181.034 87.1563 181.034 87.1563C181.034 87.1563 184.685 88.1869 188.882 84.7234C193.079 81.2598 187.683 77.2313 187.683 77.2313C187.683 77.2313 190.924 72.8957 189.091 68.7186C187.257 64.5365 182.223 65.5077 182.223 65.5077C182.223 65.5077 184.428 63.377 181.688 59.2297C178.948 55.0823 170.97 58.3279 170.97 58.3279C170.97 58.3279 175.583 54.7553 170.133 49.0074C164.677 43.2546 159.132 50.1818 159.132 50.1818C159.132 50.1818 159.757 42.6501 155.599 39.5086C151.442 36.3671 145.134 41.1537 145.134 41.1537C146.809 37.2689 139.282 30.5648 134.729 30.3913C129.07 30.1783 124.625 35.9955 124.625 35.9955C124.625 35.9955 123.501 30.5003 116.331 29.3508C109.156 28.2062 107.253 35.9162 107.253 35.9162C107.253 35.9162 103.71 32.7202 96.9565 34.5387C90.3366 36.3225 92.1749 46.8867 92.1749 46.8867C92.1749 46.8867 89.9451 42.9375 81.1995 43.869C72.4538 44.8006 73.5043 57.431 73.5043 57.431C73.5043 57.431 69.7335 53.0904 63.1235 57.7679C56.5135 62.4455 58.3369 68.3469 58.3369 68.3469C58.3369 68.3469 50.2305 67.6879 50.2305 73.8421C50.2305 79.9962 56.5729 82.9049 56.5729 82.9049C56.5729 82.9049 48.3376 87.4883 52.6783 93.7168C57.0189 99.9452 65.165 93.7267 65.165 93.7267C65.165 93.7267 60.1257 102.482 66.3938 103.572C72.6669 104.667 78.1274 104.083 78.2661 98.6619C78.2661 98.6619 83.8604 103.577 88.8402 98.9245C93.82 94.2717 90.5496 89.946 88.5478 89.1036C88.5478 89.1036 97.1745 84.3914 94.8903 78.8169C93.1015 74.4466 87.3189 73.1434 87.3189 73.1434" fill="white"/>
<path d="M71.0518 107.24C69.491 107.24 67.7567 107.071 65.8341 106.734C63.4309 106.313 61.6025 105.005 60.6858 103.048C60.1606 101.923 59.9872 100.694 60.0367 99.48C58.8425 99.708 57.5741 99.7773 56.2907 99.5742C53.7537 99.1778 51.5933 97.7805 50.0276 95.5408C48.3874 93.1871 47.8275 90.6105 48.4122 88.0884C48.8829 86.042 50.0325 84.3523 51.2415 83.059C49.1406 81.1018 47 78.0644 47 73.8278C47 71.3998 47.877 69.3088 49.537 67.7777C51.1325 66.306 53.1839 65.6272 54.933 65.32C55.1808 62.4411 56.5137 58.482 61.2557 55.1225C64.7936 52.6202 67.9549 52.095 70.4819 52.4716C71.2648 47.244 73.9802 41.3871 80.8479 40.6538C84.1975 40.297 86.8138 40.5745 88.8305 41.1394C89.3458 36.9573 91.2683 32.7208 96.1094 31.4176C100.227 30.3077 103.433 30.7288 105.668 31.4771C107.585 28.3157 111.153 25.2585 116.826 26.1603C121.113 26.8441 123.764 28.7964 125.379 30.7239C127.668 28.8955 130.973 27.0126 134.843 27.1612C139.372 27.3297 144.689 31.4176 147.018 35.1091C147.24 35.4609 147.439 35.8078 147.607 36.1447C150.714 34.9704 154.46 34.6037 157.532 36.9276C160.034 38.8155 161.263 41.6398 161.858 44.2214C162.829 43.825 163.909 43.5475 165.079 43.498C166.952 43.4137 169.756 43.9241 172.462 46.7782C174.667 49.1021 175.851 51.5004 175.995 53.9135C180.761 53.631 183.169 55.6329 184.369 57.4415C185.617 59.3244 186.157 61.0438 186.266 62.5353C188.491 63.1249 190.775 64.5272 192.039 67.411C193.496 70.7259 192.797 74.1697 191.692 76.6621C192.688 77.8909 193.649 79.5905 193.699 81.6122C193.734 83.0888 193.283 85.2541 190.929 87.1965C188.348 89.3222 185.875 90.1448 183.947 90.4024C183.655 91.5718 183.11 92.8403 182.124 93.9304C181.128 95.0304 179.314 96.3286 176.307 96.3286C176.277 96.3286 176.242 96.3286 176.213 96.3286C172.095 96.294 168.78 94.9016 166.882 93.8709C164.212 95.0255 159.296 96.7201 155.743 95.3971C154.044 94.7629 152.79 93.5489 152.126 91.884C150.878 88.7672 151.398 85.7694 152.29 83.4703C151.14 82.9748 150 82.2563 149.118 81.1959C147.885 79.7094 147.394 77.8513 147.706 75.8296C148.613 69.943 153.33 66.2813 153.865 65.8799C155.292 64.8146 157.309 65.1119 158.374 66.5389C159.435 67.961 159.142 69.9678 157.73 71.0381C157.656 71.0976 154.589 73.4958 154.078 76.8107C154.049 76.999 154.069 77.0733 154.069 77.0733C154.311 77.4995 156.041 78.0495 157.314 78.0891C158.553 78.1288 159.658 78.877 160.153 80.0117C160.654 81.1464 160.456 82.4644 159.653 83.4059C159.638 83.4208 157.032 86.5969 158.067 89.3965C159.147 89.7731 162.789 88.8019 165.614 87.3551C166.719 86.7902 168.057 86.9041 169.043 87.6573C169.053 87.6672 172.055 89.8524 176.267 89.8871C176.812 89.8871 177.169 89.7979 177.342 89.6096C177.734 89.1835 177.868 88.0884 177.818 87.4542C177.699 86.3591 178.066 85.264 178.928 84.5753C179.78 83.8964 180.826 83.6834 181.856 84.0302C182.198 84.0897 184.275 84.3275 186.826 82.2266C187.193 81.9243 187.257 81.7509 187.257 81.7509C187.257 81.4189 186.544 80.413 185.731 79.7887C184.334 78.7135 184.042 76.7017 185.097 75.2895C185.102 75.2796 187.158 72.3363 186.133 69.9975C185.34 68.1939 182.847 68.6498 182.823 68.6547C181.425 68.9223 180.013 68.2435 179.354 66.9799C178.74 65.7957 178.923 64.3637 179.79 63.3727C179.884 63.1447 179.899 62.3668 178.992 60.9992C178.205 59.81 174.488 60.3798 172.164 61.3064C170.638 61.9159 168.825 61.3361 168.052 59.8893C167.284 58.4523 167.63 56.7279 168.953 55.7964C169.077 55.6775 169.528 55.1968 169.558 54.513C169.598 53.636 168.968 52.4617 167.779 51.208C166.53 49.89 165.644 49.9197 165.356 49.9296C163.78 49.9841 162.091 51.6243 161.62 52.1941C160.723 53.2842 159.222 53.6707 157.914 53.1405C156.61 52.6103 155.793 51.3022 155.907 49.8999C156.021 48.4035 155.852 43.7309 153.642 42.061C152.012 40.8272 148.435 42.6754 147.057 43.7061C145.888 44.5782 144.272 44.5633 143.128 43.6565C141.998 42.7646 141.597 41.2385 142.137 39.9155C142.137 39.6876 141.899 38.7659 140.68 37.3785C138.748 35.1785 135.968 33.6424 134.59 33.5879C131.365 33.4739 128.129 36.6898 127.158 37.9434C126.37 38.9542 125.067 39.4794 123.823 39.1623C122.589 38.8452 121.668 37.9037 121.454 36.6551C121.326 36.1744 120.349 33.246 115.801 32.5176C111.678 31.8536 110.484 36.1794 110.36 36.6749C110.083 37.8046 109.275 38.7461 108.16 39.0583C107.055 39.3704 105.925 39.1177 105.103 38.32C104.786 38.0821 102.353 36.4024 97.7743 37.6362C94.1968 38.5974 95.3166 46.253 95.3315 46.3273C95.604 47.9427 94.7071 49.6819 93.1314 50.1377C91.5904 50.5787 90.0445 49.994 89.3904 48.5472C89.0485 48.1855 87.1061 46.4611 81.5218 47.0557C76.0217 47.6404 76.6906 57.0649 76.6956 57.159C76.8046 58.5811 76.0316 59.9834 74.6987 60.4938C73.3807 60.9992 71.9486 60.6622 71.0766 59.5622C70.6504 59.151 68.7279 57.719 64.962 60.3848C60.6313 63.447 61.2705 66.8808 61.3993 67.4061C61.7512 68.4268 61.548 69.502 60.884 70.3593C60.2201 71.2264 59.1399 71.6327 58.0498 71.5435C57.1133 71.4791 54.8339 71.6278 53.8776 72.5197C53.6546 72.7278 53.4217 73.0449 53.4217 73.8278C53.4217 77.7918 57.8615 79.9473 57.9061 79.972C58.9962 80.4874 59.7146 81.5775 59.7543 82.7816C59.7939 83.9856 59.1646 85.1154 58.1142 85.705C57.356 86.1361 55.0668 87.7862 54.6655 89.5501C54.5614 90.006 54.5168 90.7443 55.2947 91.8592C56.0132 92.8898 56.7218 93.1227 57.2569 93.207C59.4025 93.5489 62.3408 91.7898 63.198 91.1407C64.4219 90.224 66.1265 90.2884 67.2711 91.2993C68.4157 92.3151 68.6981 93.9899 67.9301 95.3129C66.8449 97.2156 66.2454 99.5643 66.4783 100.253C66.5377 100.283 66.6765 100.337 66.9193 100.377C72.3996 101.333 74.1041 100.357 74.4955 100.04C74.6442 99.9161 74.9911 99.6337 75.0208 98.5584C75.0505 97.3097 75.8037 96.1899 76.9483 95.6894C78.0929 95.189 79.4258 95.3971 80.3623 96.2196C80.9222 96.6953 83.9547 99.0291 86.6106 96.5467C87.4183 95.7935 88.3498 94.6588 88.1962 93.5538C88.0872 92.7709 87.4777 92.1614 87.2399 92.0376C86.1002 91.5569 85.3471 90.4718 85.2827 89.238C85.2182 88.0042 85.8822 86.8447 86.9674 86.255C88.1665 85.5911 92.8391 82.3802 91.8729 80.0166C90.9413 77.7472 87.7206 76.5332 86.5561 76.2607C84.8318 75.8494 83.7515 74.1251 84.1529 72.4007C84.5543 70.6764 86.2637 69.5912 87.9931 69.9827C88.7512 70.1561 95.4801 71.826 97.8338 77.5788C99.8108 82.4099 96.8478 86.7208 93.4932 89.5452C93.9689 90.3677 94.3355 91.3092 94.5238 92.3497C94.8459 94.1484 94.8162 97.6962 91.0058 101.254C87.3142 104.708 83.2065 104.559 80.0601 103.385C79.5893 104.083 79.0591 104.618 78.5686 105.02C76.7699 106.491 74.2775 107.225 71.0221 107.225L71.0518 107.24ZM179.973 63.1844H179.969C179.969 63.1844 179.969 63.1844 179.973 63.1844Z" fill="black"/>
</svg>
