<?xml version="1.0" encoding="UTF-8"?>
<!DOCTYPE svg PUBLIC "-//W3C//DTD SVG 1.1//EN" "http://www.w3.org/Graphics/SVG/1.1/DTD/svg11.dtd">
<svg xmlns="http://www.w3.org/2000/svg" version="1.1" width="765px" height="765px" style="shape-rendering:geometricPrecision; text-rendering:geometricPrecision; image-rendering:optimizeQuality; fill-rule:evenodd; clip-rule:evenodd" xmlns:xlink="http://www.w3.org/1999/xlink">
<g><path style="opacity:0.982" fill="#020202" d="M 446.5,633.5 C 444.161,641.02 441.661,648.686 439,656.5C 435.654,663.185 430.487,667.685 423.5,670C 392.167,670.667 360.833,670.667 329.5,670C 320.304,666.138 314.804,659.305 313,649.5C 312.292,644.371 312.792,639.371 314.5,634.5C 318.283,629.057 323.283,625.057 329.5,622.5C 307.888,619.111 289.388,609.778 274,594.5C 263.117,579.205 256.117,562.205 253,543.5C 246.249,503.706 245.749,463.872 251.5,424C 235.27,418.974 227.603,408.141 228.5,391.5C 218.481,387.975 210.314,381.975 204,373.5C 199.93,362.744 201.097,352.577 207.5,343C 200.456,336.415 195.29,328.582 192,319.5C 183.222,315.281 179.055,308.281 179.5,298.5C 158.873,300.051 146.873,290.551 143.5,270C 143.787,261.797 146.787,254.797 152.5,249C 139.976,236.762 137.142,222.596 144,206.5C 149.149,200.34 155.649,196.34 163.5,194.5C 169.68,169.978 185.347,157.311 210.5,156.5C 216.723,126.295 234.889,114.962 265,122.5C 270.125,97.7484 285.292,87.5817 310.5,92C 312.433,92.2511 314.266,92.7511 316,93.5C 327.966,76.9638 343.466,72.7972 362.5,81C 367.535,83.2004 371.868,86.367 375.5,90.5C 396.062,75.9912 415.395,77.4912 433.5,95C 437.05,98.8826 440.217,103.049 443,107.5C 458.836,101.459 471.503,105.459 481,119.5C 482.862,123.419 484.529,127.419 486,131.5C 495.392,128.223 504.225,129.39 512.5,135C 521.12,141.435 526.12,149.935 527.5,160.5C 545.532,160.093 556.032,168.76 559,186.5C 571.439,191.119 577.939,200.119 578.5,213.5C 578.334,218.83 577.334,223.997 575.5,229C 583.986,240.871 582.986,251.871 572.5,262C 566.581,266.626 559.914,269.626 552.5,271C 550.146,277.851 545.813,283.018 539.5,286.5C 541.045,299.744 538.878,312.411 533,324.5C 530.274,327.717 527.774,331.05 525.5,334.5C 531.735,355.364 524.735,369.364 504.5,376.5C 504.284,381.966 502.951,387.133 500.5,392C 513.313,422.09 522.313,453.257 527.5,485.5C 533.71,480.792 540.71,479.292 548.5,481C 554.241,484.686 560.574,486.686 567.5,487C 571.667,488.5 574.5,491.333 576,495.5C 577.642,500.708 578.642,506.041 579,511.5C 582.793,516.214 584.126,521.547 583,527.5C 580.941,533.957 577.607,539.624 573,544.5C 572.676,552.473 570.176,559.639 565.5,566C 557.307,570.696 549.14,570.53 541,565.5C 535,569.5 529,569.5 523,565.5C 514.461,587.705 498.961,602.872 476.5,611C 467.405,614.865 458.072,618.032 448.5,620.5C 447.088,624.717 446.421,629.05 446.5,633.5 Z"/></g>
<g><path style="opacity:1" fill="#fefefe" d="M 340.5,96.5 C 352.685,95.9914 360.851,101.325 365,112.5C 369.049,117.977 373.882,118.81 379.5,115C 395.317,95.2053 410.483,95.7053 425,116.5C 425.333,119.833 425.667,123.167 426,126.5C 429.363,132.484 434.197,133.984 440.5,131C 445.891,125.98 452.225,123.98 459.5,125C 462.869,127.365 465.036,130.532 466,134.5C 467.092,140.782 467.758,147.116 468,153.5C 471.26,159.646 476.093,161.146 482.5,158C 493.543,145.563 502.21,147.063 508.5,162.5C 507.299,165.872 505.466,168.872 503,171.5C 501.856,178.682 504.856,182.682 512,183.5C 517.604,182.183 523.271,181.183 529,180.5C 534.622,179.633 537.789,181.966 538.5,187.5C 534.14,201.655 539.473,207.822 554.5,206C 555.416,206.374 556.25,206.874 557,207.5C 558.504,211.039 558.837,214.705 558,218.5C 556.28,222.768 554.447,226.935 552.5,231C 552.909,233.321 553.743,235.487 555,237.5C 558.029,239.029 560.195,241.362 561.5,244.5C 559.334,246.493 557.001,248.327 554.5,250C 548.451,250.89 542.451,251.89 536.5,253C 535.667,253.833 534.833,254.667 534,255.5C 532.898,259.416 532.231,263.416 532,267.5C 531.5,268 531,268.5 530.5,269C 526.428,269.658 522.428,269.325 518.5,268C 512.335,265.746 506.335,263.246 500.5,260.5C 494.628,262.932 488.628,265.099 482.5,267C 479.518,267.498 476.518,267.665 473.5,267.5C 472.518,259.8 474.685,253.133 480,247.5C 481.151,243.171 480.318,239.338 477.5,236C 473.768,234.031 469.768,233.031 465.5,233C 463.487,232.32 462.154,230.987 461.5,229C 464.087,221.416 468.587,215.249 475,210.5C 478.039,199.536 473.872,194.702 462.5,196C 450.939,204.456 444.272,215.79 442.5,230C 442.85,238.675 446.85,245.008 454.5,249C 455.059,249.725 455.392,250.558 455.5,251.5C 448.977,277.041 458.644,288.541 484.5,286C 489.649,284.963 494.649,283.463 499.5,281.5C 504.495,283.33 509.495,285.163 514.5,287C 516.378,288.543 517.878,290.376 519,292.5C 520.182,300.147 519.182,307.48 516,314.5C 514.412,316.968 512.578,317.134 510.5,315C 499.631,314.206 495.797,319.039 499,329.5C 502.432,333.364 505.099,337.698 507,342.5C 507.93,356.708 501.93,360.708 489,354.5C 483.703,355.464 480.869,358.631 480.5,364C 481.596,368.586 482.929,373.086 484.5,377.5C 483.608,382.474 480.608,385.474 475.5,386.5C 473.444,385.952 471.777,384.786 470.5,383C 458.143,382.011 454.31,387.178 459,398.5C 465.484,406.554 473.484,408.554 483,404.5C 483.772,404.645 484.439,404.978 485,405.5C 500.122,441.443 507.956,478.943 508.5,518C 508.71,529.58 507.876,541.08 506,552.5C 503.806,563.392 498.64,572.559 490.5,580C 475.156,591.009 458.156,598.343 439.5,602C 402.523,607.896 365.523,607.896 328.5,602C 307.772,598.896 292.272,588.396 282,570.5C 274.228,550.209 269.562,529.209 268,507.5C 267.333,487.167 267.333,466.833 268,446.5C 269.477,435.468 270.81,424.468 272,413.5C 268.55,407.689 263.384,404.856 256.5,405C 246.648,400.352 245.814,394.185 254,386.5C 257.006,378.314 254.172,373.314 245.5,371.5C 242.058,373.253 238.391,373.753 234.5,373C 229.9,370.785 225.734,367.952 222,364.5C 221.159,360.88 221.826,357.546 224,354.5C 227.86,349.728 232.194,345.395 237,341.5C 239.9,333.304 237.067,328.304 228.5,326.5C 226.177,327.376 223.843,327.876 221.5,328C 218.728,326.14 216.395,323.806 214.5,321C 224.888,321.21 233.388,317.376 240,309.5C 258.657,314.945 272.324,308.945 281,291.5C 284.446,283.909 284.279,276.409 280.5,269C 284.357,264.789 287.857,260.289 291,255.5C 296.726,243.564 295.393,232.564 287,222.5C 280.764,216.13 273.264,211.964 264.5,210C 252.682,209.489 249.182,214.655 254,225.5C 258.732,227.857 263.566,230.023 268.5,232C 276.286,236.556 277.453,242.39 272,249.5C 268.448,252.719 264.615,255.552 260.5,258C 253.43,265.427 254.264,271.927 263,277.5C 264.579,282.554 263.079,286.721 258.5,290C 253.987,292.754 249.32,293.087 244.5,291C 240.6,287.044 235.933,285.377 230.5,286C 225.987,289.701 223.32,294.368 222.5,300C 215.247,301.557 207.914,301.89 200.5,301C 199.422,300.326 198.755,299.326 198.5,298C 200.404,292.12 202.404,286.287 204.5,280.5C 203.021,272.533 198.354,269.7 190.5,272C 184.421,277.137 177.421,279.471 169.5,279C 163.793,275.43 162.293,270.597 165,264.5C 168.7,260.465 172.7,256.798 177,253.5C 179,249.833 179,246.167 177,242.5C 172.382,239.55 168.048,236.216 164,232.5C 160.797,228.354 159.464,223.687 160,218.5C 161.214,216.951 162.714,215.785 164.5,215C 168.833,214.667 173.167,214.333 177.5,214C 179.624,212.878 181.457,211.378 183,209.5C 183.309,203.181 183.976,196.847 185,190.5C 189.912,182.547 196.912,177.547 206,175.5C 207.888,175.796 209.722,176.296 211.5,177C 215.379,181.603 220.045,182.603 225.5,180C 227.487,178.681 228.654,176.848 229,174.5C 229.074,166.375 230.074,158.375 232,150.5C 233.833,146 237,142.833 241.5,141C 247.5,140.333 253.5,140.333 259.5,141C 264.962,142.477 269.296,145.477 272.5,150C 278.429,151.119 282.596,148.953 285,143.5C 285.333,135.833 285.667,128.167 286,120.5C 288.416,113.45 293.416,110.45 301,111.5C 306.848,110.918 312.015,112.418 316.5,116C 322.246,117.723 326.746,116.223 330,111.5C 331.414,104.938 334.914,99.9376 340.5,96.5 Z"/></g>
<g><path style="opacity:1" fill="#090909" d="M 330.5,273.5 C 339.987,272.819 344.154,277.153 343,286.5C 337.948,294.089 331.948,295.089 325,289.5C 322.011,282.483 323.844,277.15 330.5,273.5 Z"/></g>
<g><path style="opacity:1" fill="#060606" d="M 384.5,273.5 C 394.503,273.002 398.67,277.668 397,287.5C 388.266,296.454 381.766,295.12 377.5,283.5C 378.379,279.05 380.713,275.717 384.5,273.5 Z"/></g>
<g><path style="opacity:1" fill="#090807" d="M 345.5,326.5 C 353.507,326.334 361.507,326.5 369.5,327C 378.658,330.824 381.824,337.657 379,347.5C 377.441,360.4 370.274,366.9 357.5,367C 347.632,362.795 340.799,355.628 337,345.5C 334.375,336.749 337.208,330.415 345.5,326.5 Z"/></g>
<g><path style="opacity:1" fill="#e88c74" d="M 349.5,341.5 C 354.975,340.511 360.642,340.178 366.5,340.5C 366.196,343.522 365.696,346.522 365,349.5C 364.266,351.736 362.766,353.069 360.5,353.5C 355.456,350.732 351.789,346.732 349.5,341.5 Z"/></g>
<g><path style="opacity:1" fill="#f8f8f8" d="M 541.5,499.5 C 544.379,502.019 547.379,504.519 550.5,507C 553.099,507.769 555.599,507.602 558,506.5C 557.806,509.59 556.973,512.59 555.5,515.5C 556.277,519.941 558.611,523.274 562.5,525.5C 559.279,529.05 556.112,532.717 553,536.5C 552.827,540.541 552.327,544.541 551.5,548.5C 548.024,541.591 542.691,539.425 535.5,542C 531.923,548.145 529.423,547.645 528,540.5C 527.5,529.839 527.333,519.172 527.5,508.5C 535.187,509.999 539.854,506.999 541.5,499.5 Z"/></g>
<g><path style="opacity:1" fill="#929292" d="M 422.5,624.5 C 423.919,623.549 425.585,623.216 427.5,623.5C 427.784,625.415 427.451,627.081 426.5,628.5C 426.5,627.167 426.5,625.833 426.5,624.5C 425.167,624.5 423.833,624.5 422.5,624.5 Z"/></g>
<g><path style="opacity:1" fill="#f6f6f6" d="M 422.5,624.5 C 423.833,624.5 425.167,624.5 426.5,624.5C 426.5,625.833 426.5,627.167 426.5,628.5C 426.065,636.635 423.732,644.135 419.5,651C 407.819,651.833 396.152,651.666 384.5,650.5C 382.604,648.119 382.271,645.619 383.5,643C 391.43,640.646 399.43,638.646 407.5,637C 410.077,633.248 411.077,629.081 410.5,624.5C 414.5,624.5 418.5,624.5 422.5,624.5 Z"/></g>
<g><path style="opacity:1" fill="#f7f7f7" d="M 359.5,625.5 C 364.511,625.334 369.511,625.501 374.5,626C 365.321,632.015 361.654,640.515 363.5,651.5C 353.828,651.666 344.161,651.5 334.5,651C 331.833,648 331.833,645 334.5,642C 341.425,640.25 348.425,638.916 355.5,638C 358.883,634.556 360.216,630.39 359.5,625.5 Z"/></g>
<g><path style="opacity:0.985" fill="#d8d8d8" d="M 446.5,633.5 C 483.213,634.968 519.546,639.468 555.5,647C 566.945,649.589 577.612,653.922 587.5,660C 590.803,663.795 591.303,667.962 589,672.5C 583.313,677.428 576.813,680.928 569.5,683C 532.15,692.86 494.15,698.526 455.5,700C 410.5,702 365.5,702 320.5,700C 286.818,698.29 253.485,693.956 220.5,687C 209.055,684.411 198.388,680.078 188.5,674C 185.197,670.205 184.697,666.038 187,661.5C 192.687,656.572 199.187,653.072 206.5,651C 241.878,641.541 277.878,636.041 314.5,634.5C 312.792,639.371 312.292,644.371 313,649.5C 314.804,659.305 320.304,666.138 329.5,670C 360.833,670.667 392.167,670.667 423.5,670C 430.487,667.685 435.654,663.185 439,656.5C 441.661,648.686 444.161,641.02 446.5,633.5 Z"/></g>
</svg>
