<svg width="255" height="255" viewBox="0 0 255 255" fill="none" xmlns="http://www.w3.org/2000/svg">
<ellipse cx="129.5" cy="222.5" rx="67.5" ry="11.5" fill="#D9D9D9"/>
<path d="M67.3228 68.7015C66.6984 68.7015 66.0642 68.5182 65.5092 68.1416C65.4646 68.1119 61.8425 65.6344 58.2303 63.1469C56.5901 64.901 54.3455 66.7047 51.6252 66.7047C50.0792 66.7047 48.6323 66.1101 47.4332 64.9803C44.4503 62.1758 45.5008 58.0978 47.0864 54.9563C46.3828 54.2626 45.694 53.4648 45.1589 52.5778C43.5931 49.9913 43.6525 47.1471 45.3273 44.7786C46.6057 42.975 48.5679 41.979 50.8572 41.979C55.3563 41.979 60.2073 45.8439 61.3073 46.7755L73.9031 56.4081C75.2806 57.4586 75.5779 59.4108 74.5769 60.828L69.9588 67.3488C69.3296 68.2358 68.3385 68.7115 67.3277 68.7115L67.3228 68.7015Z" fill="#EF9178"/>
<path d="M50.8513 45.1964C54.4982 45.1964 59.2798 49.2794 59.2798 49.2794L71.9399 58.9615L67.3218 65.4824C67.3218 65.4824 61.8911 61.771 57.6496 58.8327C56.5694 60.1755 54.0819 63.4805 51.6193 63.4805C50.9454 63.4805 50.2715 63.2328 49.6323 62.6283C47.5116 60.6314 49.6521 56.598 51.213 54.2493C48.8692 52.4704 45.8169 49.6461 47.9476 46.6334C48.6859 45.5928 49.7116 45.1964 50.8463 45.1964M50.8513 38.7549C47.4868 38.7549 44.5881 40.2315 42.6903 42.9171C40.2772 46.3311 40.1682 50.5627 42.398 54.2443C42.6705 54.6953 42.9727 55.1263 43.2849 55.5327C43.1313 55.939 42.9926 56.3354 42.8736 56.7318C41.1047 62.6382 43.9241 66.1117 45.2223 67.3306C47.0309 69.0302 49.2458 69.932 51.6242 69.932C54.3892 69.932 56.6982 68.7378 58.5316 67.2711C61.3213 69.1887 63.6551 70.7843 63.6947 70.809C64.8047 71.5672 66.0731 71.9338 67.3268 71.9338C69.3484 71.9338 71.3354 70.9874 72.589 69.2135L77.2071 62.6927C79.209 59.8634 78.6144 55.9588 75.8643 53.8529L63.333 44.2649C61.6136 42.823 56.2919 38.7598 50.8661 38.7598L50.8513 38.7549Z" fill="black"/>
<path d="M124.4 55.9115C124.261 55.9115 124.122 55.9016 123.983 55.8867L116.06 54.861C114.341 54.638 113.107 53.097 113.266 51.3726L114.722 35.5859C114.975 29.4912 117.339 22.4253 123.191 22.4253C123.488 22.4253 123.79 22.4451 124.087 22.4848C126.961 22.8613 129.097 24.7393 129.934 27.6479C130.222 28.6439 130.346 29.6894 130.375 30.6804C133.76 31.6466 137.471 33.6386 137.511 37.7314C137.531 39.4607 136.931 40.9819 135.791 42.1365C134.3 43.6477 132.025 44.396 128.844 44.4257C128.225 48.7713 127.591 53.1119 127.581 53.1664C127.348 54.7669 125.975 55.9214 124.4 55.9214V55.9115Z" fill="#EF9178"/>
<path d="M123.184 25.6417C123.337 25.6417 123.501 25.6517 123.664 25.6715C127.326 26.1472 127.331 30.3094 127.054 33.2378C129.843 33.6838 134.258 34.8433 134.288 37.7568C134.318 40.6853 131.216 41.1956 128.644 41.1956C127.623 41.1956 126.682 41.1163 126.058 41.0717C125.344 46.1754 124.388 52.6913 124.388 52.6913L116.465 51.6656L117.926 35.7946C117.926 35.7946 118.318 25.6417 123.179 25.6417M123.184 19.2002C120.795 19.2002 114.983 20.1565 112.525 28.9963C111.742 31.8207 111.544 34.546 111.5 35.3487L110.053 51.0809C109.736 54.5296 112.203 57.6166 115.642 58.0576L123.565 59.0833C123.848 59.118 124.125 59.1378 124.403 59.1378C127.554 59.1378 130.299 56.8288 130.77 53.6278C130.775 53.5832 131.186 50.7836 131.667 47.4291C134.362 47.0228 136.473 46.0169 138.079 44.3966C139.813 42.6425 140.759 40.2591 140.729 37.6924C140.71 35.9135 140.07 31.4837 134.531 28.7832C134.164 28.6049 133.778 28.4314 133.371 28.2729C133.287 27.7675 133.173 27.2571 133.024 26.7467C131.83 22.6142 128.639 19.8245 124.497 19.2844C124.061 19.225 123.615 19.2002 123.184 19.2002Z" fill="black"/>
<path d="M204.703 206.054C204.703 206.054 207.636 201.605 207.705 195.575C207.755 191.422 204.157 185.531 199.311 182.701C187.781 175.977 177.549 184.193 177.549 184.193C177.549 184.193 186.032 179.416 188.212 171.508C189.297 167.569 187.489 161.999 184.937 157.54C179.258 147.63 162.679 150.786 162.679 150.786C162.679 150.786 173.119 150.117 178.139 144.087C180.423 141.342 180.076 135.296 179.576 130.218C177.975 113.965 158.73 118.712 158.73 118.712C158.73 118.712 177.138 115.546 174.992 99.6895C174.303 94.6007 171.994 91.7763 169.879 89.5069C163.348 82.4806 157.154 86.8906 157.154 86.8906C157.154 86.8906 172.842 80.1072 165.29 65.7375C162.496 60.4208 159.85 58.4635 154.825 57.6361C148.24 56.5559 141.902 60.2028 141.902 60.2028L150.336 129.841L166.286 179.193L193.569 200.178L204.693 206.04L204.703 206.054Z" fill="#33758E"/>
<path d="M205.789 210.267L191.836 202.913L163.543 181.151L147.191 130.55L143.068 96.5039L130.473 101.949L142.677 93.2583L138.465 58.4839L140.313 57.4185C140.611 57.2451 147.736 53.2067 155.367 54.4653C161.471 55.4662 164.94 58.1172 168.161 64.2416C170.757 69.1768 171.277 73.9238 169.712 78.3536C169.033 80.2712 168.022 81.9361 166.872 83.3582C168.646 84.1361 170.475 85.3947 172.254 87.3123C174.885 90.1416 177.427 93.5507 178.2 99.2589C179.111 105.983 176.991 111.681 172.045 115.918C173.577 116.413 175.078 117.112 176.455 118.088C180.147 120.699 182.278 124.673 182.793 129.906C183.373 135.807 183.734 142.417 180.623 146.148C179.889 147.026 179.072 147.808 178.2 148.502C181.936 149.746 185.479 151.995 187.738 155.945C189.383 158.819 193.03 166.177 191.326 172.366C190.885 173.966 190.23 175.453 189.457 176.81C192.946 176.746 196.865 177.539 200.943 179.917C206.612 183.222 211.002 190.12 210.938 195.61C210.853 202.502 207.543 207.606 207.4 207.819L205.794 210.257L205.789 210.267ZM195.324 197.473L203.272 201.66C203.872 200.099 204.461 197.958 204.491 195.535C204.526 192.681 201.627 187.781 197.693 185.487C190.667 181.389 184.17 183.98 181.227 185.635C180.984 185.809 180.761 185.967 180.553 186.106L195.324 197.468V197.473ZM169.053 177.266L176.332 182.865L175.534 181.686C175.653 181.592 176.411 180.997 177.679 180.249C179.964 178.579 183.863 175.165 185.107 170.656C185.825 168.06 184.661 163.541 182.144 159.146C178.764 153.249 169.761 153.294 165.53 153.67C164.023 153.923 163.022 153.992 162.884 154.002L162.076 147.625C162.244 147.595 163.23 147.412 164.742 147.268C167.715 146.743 172.873 145.38 175.668 142.026C176.758 140.713 177 136.848 176.376 130.535C176.049 127.2 174.855 124.847 172.729 123.345C168.592 120.417 161.977 121.368 160.049 121.73C159.598 121.834 159.326 121.879 159.281 121.889L157.963 115.586C158.038 115.566 158.365 115.487 158.9 115.388C161.937 114.674 173.309 111.24 171.803 100.121C171.243 95.9935 169.459 93.7836 167.522 91.6975C164.335 88.2686 161.531 88.5015 160.029 89.0317C159.133 89.5371 158.523 89.8047 158.434 89.8443L149.223 93.8282L153.499 129.153L169.043 177.261L169.053 177.266ZM145.392 62.1407L148.648 89.0069L155.297 84.2699C155.818 83.8983 156.477 83.5316 157.245 83.2145C159.118 82.1045 162.408 79.7311 163.642 76.1833C164.583 73.4828 164.192 70.5593 162.452 67.2444C159.935 62.4528 157.993 61.4272 154.316 60.8226C150.902 60.2627 147.449 61.3082 145.392 62.1357V62.1407Z" fill="black"/>
<path d="M115.459 189.016C115.226 191.449 116.505 219.415 108.849 219.415H94.0682C94.0682 219.415 90.124 219.182 90.124 213.965C90.124 208.747 99.2512 209.094 99.2512 209.094L97.4278 185.097" fill="#A3C8D2"/>
<path d="M108.853 222.637H93.8839C91.0793 222.468 86.9121 220.02 86.9121 213.965C86.9121 212.018 87.6504 210.274 89.0527 208.926C90.9059 207.142 93.6014 206.389 95.8015 206.077L94.2258 185.345L100.647 184.859L102.743 212.459L99.1362 212.32C97.3871 212.266 94.4537 212.667 93.5172 213.574C93.3933 213.698 93.3537 213.762 93.3537 213.97C93.3537 214.887 93.5221 216.002 94.31 216.2H108.784C109.046 215.997 110.652 214.466 111.563 206.523C112.193 201.038 112.203 194.888 112.208 191.578C112.208 189.943 112.213 189.205 112.262 188.714L118.674 189.319C118.654 189.577 118.654 190.647 118.649 191.588C118.624 207.717 117.42 222.642 108.858 222.642L108.853 222.637Z" fill="black"/>
<path d="M129.043 189.019C128.81 191.451 130.088 219.418 122.433 219.418H110.957C110.957 219.418 107.013 219.185 107.013 213.967C107.013 208.75 116.14 209.096 116.14 209.096L114.316 185.099" fill="#A3C8D2"/>
<path d="M122.433 222.639H110.769C107.964 222.47 103.797 220.022 103.797 213.967C103.797 212.02 104.535 210.276 105.937 208.928C107.791 207.144 110.486 206.391 112.686 206.079L111.111 185.347L117.532 184.861L119.628 212.461L116.021 212.322C114.272 212.268 111.338 212.669 110.397 213.576C110.273 213.7 110.233 213.764 110.233 213.972C110.233 215.88 110.962 216.162 111.115 216.202H122.358C122.621 215.999 124.227 214.468 125.138 206.525C125.768 201.04 125.777 194.89 125.782 191.58C125.782 189.945 125.787 189.207 125.837 188.716L132.249 189.326L129.043 189.019L132.249 189.316C132.229 189.574 132.229 190.644 132.224 191.585C132.199 207.714 130.995 222.639 122.433 222.639Z" fill="black"/>
<path d="M209.869 210.971C212.971 210.797 206.956 208.915 180.57 187.43C160.472 171.063 158.609 130.447 159.03 110.364C159.263 99.2496 159.343 93.2292 155.428 82.8236C150.017 68.4589 140.999 51.2154 106.418 49.9618C93.1978 49.4811 67.164 57.7759 60.9504 68.0873C55.9458 76.387 56.8873 84.107 57.7792 88.7994C58.131 90.6427 57.7792 92.5553 56.7584 94.1211C53.8696 98.536 50.7678 104.517 52.1007 112.613C52.6457 115.933 53.9291 122.33 56.0548 126.185C58.4531 130.531 61.8522 132.295 65.0928 135.065C65.3455 135.283 65.4595 135.625 65.3852 135.947C64.4239 140.243 60.227 168.903 67.8082 188.584C72.6592 201.175 84.3927 204.232 106.14 204.534C131.555 204.886 143.036 196.111 147.797 190.398C149.859 187.925 153.451 187.39 156.176 189.104C161.344 192.355 169.01 200.139 178.048 204.544C188.865 209.811 201.356 211.442 209.864 210.971H209.869Z" fill="#A3C8D2"/>
<path d="M207.055 214.265C198.641 214.265 187.026 212.496 176.641 207.437C170.526 204.459 165.056 200.054 160.656 196.516C158.242 194.574 156.161 192.899 154.462 191.828C153.089 190.966 151.291 191.234 150.27 192.458C138.858 206.139 117.7 207.917 106.091 207.754C84.2141 207.452 70.4441 204.409 64.7953 189.742C57.6154 171.106 60.4596 144.86 61.9511 136.659C61.5299 136.327 61.0988 135.995 60.6578 135.658C58.1655 133.745 55.346 131.58 53.2253 127.74C50.8518 123.439 49.504 116.745 48.9094 113.132C47.4081 103.985 50.8667 97.2219 54.0528 92.356C54.6077 91.5037 54.8059 90.4533 54.6077 89.3978C53.5523 83.8333 52.7744 75.3999 58.1853 66.4213C65.162 54.8463 92.4444 46.2345 106.532 46.7399C122.824 47.3295 135.068 51.353 143.962 59.0334C151.722 65.7375 155.636 74.2453 158.436 81.6828C162.618 92.7871 162.479 99.4219 162.246 110.422C161.884 127.547 163.148 169.085 182.596 184.926C195.831 195.703 203.918 201.525 208.269 204.657C209.889 205.821 210.954 206.59 211.702 207.189C212.5 207.828 214.373 209.325 213.694 211.644C213.437 212.531 212.614 214.042 210.042 214.181C209.101 214.235 208.1 214.26 207.05 214.26L207.055 214.265ZM152.732 184.891C154.506 184.891 156.3 185.377 157.896 186.378C159.912 187.646 162.132 189.435 164.699 191.501C169.059 195.01 174.004 198.993 179.465 201.649C186.689 205.167 194.568 206.926 201.282 207.551C196.5 204.062 189.152 198.567 178.538 189.921C169.168 182.29 162.578 169.164 158.946 150.91C155.963 135.916 155.596 120.54 155.81 110.288C156.037 99.3723 156.156 93.8921 152.41 83.9523C147.034 69.6768 138.591 54.3459 106.299 53.1765C93.1183 52.7008 68.8634 61.1888 63.7052 69.7462C59.4785 76.7575 60.0087 83.2883 60.9403 88.1987C61.4556 90.8992 60.9254 93.6294 59.4488 95.884C56.7483 100.016 54.137 105.175 55.2717 112.092C56.1537 117.458 57.4965 122.146 58.8691 124.628C60.3358 127.289 62.3029 128.8 64.5822 130.545C65.4246 131.189 66.2967 131.858 67.1787 132.616C68.3431 133.612 68.8584 135.158 68.5215 136.649C67.4809 141.317 63.6804 168.921 70.8058 187.423C74.6856 197.497 83.6096 201 106.18 201.307C130.539 201.644 141.157 193.32 145.32 188.325C147.198 186.076 149.943 184.881 152.727 184.881L152.732 184.891Z" fill="black"/>
<path d="M98.5853 180.903C74.251 176.553 72.6952 185.189 73.8695 196.452C80.3804 201.982 90.4342 204.316 106.142 204.529C111.478 204.603 116.195 204.271 120.368 203.657C121.562 196.536 123.935 196.343 118.267 189.297C114.863 185.07 107.058 182.419 98.5853 180.903Z" fill="white"/>
<path d="M107.582 207.765C107.086 207.765 106.591 207.765 106.09 207.755C89.065 207.522 78.8031 204.876 71.7818 198.91L70.7957 198.073L70.662 196.789C70.0277 190.734 70.0475 184.57 74.4327 180.492C78.8477 176.385 86.7064 175.512 99.1435 177.737C109.95 179.67 117.224 182.881 120.767 187.281C125.668 193.37 125.653 195.729 124.389 200.441C124.112 201.487 123.79 202.671 123.537 204.192L123.151 206.501L120.832 206.843C116.709 207.453 112.26 207.76 107.577 207.76L107.582 207.765ZM76.9499 194.793C82.7275 199.098 91.8398 201.115 106.185 201.313C110.218 201.368 114.073 201.185 117.665 200.768C117.839 200.015 118.017 199.361 118.176 198.776C118.969 195.818 119.073 195.437 115.758 191.319C113.29 188.252 106.992 185.68 98.0187 184.075C88.0145 182.286 81.5581 182.668 78.8229 185.209C77.0936 186.815 76.5287 189.634 76.9499 194.793Z" fill="black"/>
<path d="M89.0366 91.756C88.1497 91.2406 87.0249 91.533 86.356 92.306C85.796 92.9501 85.355 93.8817 86.1379 94.8578C87.6641 96.7556 90.0524 94.6547 90.0524 93.6389C90.0524 92.9799 89.7898 92.1871 89.0366 91.751V91.756Z" fill="black"/>
<path d="M87.6192 96.8659C86.6877 96.8659 85.8205 96.4398 85.1764 95.642C84.1655 94.3884 84.2597 92.8375 85.4241 91.4996C86.5192 90.2361 88.303 89.8991 89.6656 90.687C90.6864 91.2816 91.2959 92.3866 91.2959 93.6451C91.2959 94.8145 90.1413 96.1722 88.7291 96.6677C88.3575 96.7965 87.9859 96.861 87.6242 96.861L87.6192 96.8659ZM88.0701 92.7384C87.7778 92.7384 87.4755 92.9068 87.2872 93.1249C86.7868 93.6996 86.9552 93.9078 87.0989 94.0911C87.3616 94.4181 87.5647 94.4132 87.7332 94.3834C88.2336 94.2893 88.6994 93.8037 88.8035 93.5807C88.7936 93.3776 88.7242 93.0208 88.4071 92.8375C88.2981 92.773 88.1791 92.7483 88.0602 92.7483L88.0701 92.7384Z" fill="black"/>
<path d="M107.183 91.7584C106.296 91.2431 105.171 91.5354 104.502 92.3084C103.943 92.9526 103.502 93.8841 104.284 94.8603C105.811 96.758 108.199 94.6571 108.199 93.6413C108.199 92.9823 107.936 92.1895 107.183 91.7534V91.7584Z" fill="black"/>
<path d="M105.762 96.8671C104.83 96.8671 103.963 96.441 103.319 95.6432C102.308 94.3896 102.402 92.8387 103.567 91.5008C104.662 90.2422 106.446 89.9003 107.808 90.6882C108.829 91.2828 109.438 92.3878 109.438 93.6463C109.438 94.8157 108.284 96.1734 106.872 96.6689C106.5 96.7977 106.128 96.8622 105.767 96.8622L105.762 96.8671ZM106.218 92.7396C105.925 92.7396 105.628 92.908 105.435 93.1261C104.934 93.7008 105.103 93.909 105.246 94.0923C105.509 94.4193 105.712 94.4144 105.881 94.3846C106.381 94.2905 106.847 93.8049 106.951 93.5819C106.941 93.3788 106.872 93.022 106.555 92.8387C106.446 92.7742 106.327 92.7495 106.208 92.7495L106.218 92.7396Z" fill="black"/>
<path d="M97.0908 119.251C95.079 119.251 93.3794 117.591 91.224 113.513C90.8573 112.819 90.8821 111.992 91.2835 111.318C91.6848 110.649 92.4132 110.238 93.1911 110.238H98.9291C99.5336 110.238 100.108 110.481 100.53 110.917C100.951 111.353 101.174 111.937 101.159 112.537C101.025 116.798 99.5435 119.246 97.0858 119.246L97.0908 119.251Z" fill="#EF9178"/>
<path d="M98.9275 112.473C98.9275 112.473 98.7838 117.022 97.0842 117.022C96.2319 117.022 94.9932 115.887 93.1895 112.473H98.9275ZM98.9275 108.014H93.1895C91.6237 108.014 90.1769 108.831 89.3692 110.174C88.5615 111.512 88.5169 113.177 89.2453 114.559C91.0589 117.983 93.4026 121.482 97.0792 121.482C98.1693 121.482 101.821 121.065 102.996 115.699C103.323 114.203 103.377 112.771 103.382 112.612C103.422 111.408 102.966 110.234 102.128 109.366C101.286 108.499 100.132 108.009 98.9275 108.009V108.014Z" fill="black"/>
</svg>
