<?xml version="1.0" encoding="UTF-8"?>
<!DOCTYPE svg PUBLIC "-//W3C//DTD SVG 1.1//EN" "http://www.w3.org/Graphics/SVG/1.1/DTD/svg11.dtd">
<svg xmlns="http://www.w3.org/2000/svg" version="1.1" width="765px" height="765px" style="shape-rendering:geometricPrecision; text-rendering:geometricPrecision; image-rendering:optimizeQuality; fill-rule:evenodd; clip-rule:evenodd" xmlns:xlink="http://www.w3.org/1999/xlink">
<g><path style="opacity:0.983" fill="#010101" d="M 393.5,632.5 C 390.856,640.918 387.689,649.251 384,657.5C 380.663,661.847 376.496,665.014 371.5,667C 340.167,667.667 308.833,667.667 277.5,667C 265.396,661.987 259.396,652.82 259.5,639.5C 260.907,630.92 265.573,624.753 273.5,621C 256.667,619.126 240.667,614.459 225.5,607C 212.947,600.114 203.447,590.28 197,577.5C 186.482,552.247 180.815,525.913 180,498.5C 178.533,469.508 180.033,440.674 184.5,412C 184.333,411.167 184.167,410.333 184,409.5C 164.721,396.532 153.055,378.532 149,355.5C 142.748,336.013 143.081,316.68 150,297.5C 154.517,288.324 159.017,279.157 163.5,270C 158.059,248.241 160.059,227.241 169.5,207C 152.619,213.483 139.119,209.316 129,194.5C 127.354,190.122 126.187,185.622 125.5,181C 126.223,176.276 127.223,171.61 128.5,167C 117.784,150.245 119.45,134.911 133.5,121C 148.416,113.3 163.082,113.967 177.5,123C 193.928,135.294 210.428,147.461 227,159.5C 260.037,145.193 294.537,138.526 330.5,139.5C 331.729,124.145 333.229,108.812 335,93.5C 336.952,81.0947 342.452,70.5947 351.5,62C 364.066,54.5088 376.399,54.8421 388.5,63C 394.534,68.5644 398.367,75.3978 400,83.5C 422.688,94.5198 427.688,110.853 415,132.5C 409.413,137.544 402.913,140.877 395.5,142.5C 393.945,146.131 393.612,149.797 394.5,153.5C 404.617,158.058 414.284,163.391 423.5,169.5C 446.104,158.056 468.104,158.889 489.5,172C 509.103,190.13 515.269,211.964 508,237.5C 506.337,241.496 504.171,245.163 501.5,248.5C 515.856,257.359 526.023,269.692 532,285.5C 539.43,309.282 534.263,329.782 516.5,347C 535.151,353.652 545.651,366.819 548,386.5C 549.88,399.179 549.88,411.846 548,424.5C 546.321,432.847 542.154,439.68 535.5,445C 553.871,451.708 565.705,464.542 571,483.5C 577.813,499.167 576.98,514.334 568.5,529C 600.931,531.274 622.097,547.774 632,578.5C 633.571,590.902 631.738,602.735 626.5,614C 630.759,617.381 634.926,620.881 639,624.5C 643.382,632.352 641.549,638.185 633.5,642C 590.113,644.736 549.78,635.069 512.5,613C 496.549,601.383 480.882,589.383 465.5,577C 460.939,573.34 456.272,573.007 451.5,576C 436.576,593.14 418.243,605.307 396.5,612.5C 394.628,619.008 393.628,625.675 393.5,632.5 Z"/></g>
<g><path style="opacity:1" fill="#ea8e75" d="M 365.5,76.5 C 372.553,75.3373 377.386,78.0039 380,84.5C 380.499,89.4889 380.666,94.4889 380.5,99.5C 387.634,100.155 394.134,102.488 400,106.5C 404.177,113.245 402.677,118.411 395.5,122C 389.565,123.239 383.565,123.739 377.5,123.5C 376.127,131.448 375.127,139.448 374.5,147.5C 366.714,145.508 358.881,143.842 351,142.5C 351.363,126.114 352.696,109.781 355,93.5C 356.506,86.4669 360.006,80.8003 365.5,76.5 Z"/></g>
<g><path style="opacity:1" fill="#eb8e76" d="M 147.5,135.5 C 155.919,134.916 163.586,137.083 170.5,142C 182.5,151.333 194.5,160.667 206.5,170C 199.885,174.281 193.552,178.947 187.5,184C 186.167,184.667 184.833,184.667 183.5,184C 180.18,181.006 176.513,178.506 172.5,176.5C 168.629,181.536 163.962,185.703 158.5,189C 148.475,190.815 144.309,186.649 146,176.5C 147.893,171.713 150.06,167.047 152.5,162.5C 149.329,159.828 146.495,156.828 144,153.5C 139.81,146.284 140.976,140.284 147.5,135.5 Z"/></g>
<g><path style="opacity:1" fill="#a2c7d1" d="M 297.5,159.5 C 329.147,157.552 359.813,162.052 389.5,173C 420.667,187.507 442.167,211.007 454,243.5C 463.259,264.534 467.759,286.534 467.5,309.5C 465.151,360.258 468.651,410.592 478,460.5C 484.723,494.709 498.39,525.709 519,553.5C 524.167,558.667 529.333,563.833 534.5,569C 556.547,586.716 578.881,604.049 601.5,621C 571.674,619.391 544.341,610.391 519.5,594C 505.547,583.715 491.88,573.048 478.5,562C 465.365,552.479 452.032,552.145 438.5,561C 427.385,574.443 413.718,584.443 397.5,591C 389.685,593.717 381.852,596.217 374,598.5C 375.226,591.004 374.56,583.671 372,576.5C 363.504,559.672 350.338,548.172 332.5,542C 304.646,532.211 275.979,528.211 246.5,530C 227.668,532.638 216.168,543.138 212,561.5C 205.135,542.462 201.135,522.796 200,502.5C 199.333,484.167 199.333,465.833 200,447.5C 201.453,432.757 203.12,418.09 205,403.5C 204.333,402.167 203.667,400.833 203,399.5C 198.123,394.954 192.956,390.787 187.5,387C 179.332,379.832 173.832,370.998 171,360.5C 166.528,346.483 164.528,332.149 165,317.5C 165.539,314.471 166.206,311.471 167,308.5C 171.744,298.014 176.744,287.68 182,277.5C 181.299,262.85 180.966,248.184 181,233.5C 183.934,214.762 193.434,200.595 209.5,191C 236.938,175.022 266.271,164.522 297.5,159.5 Z"/></g>
<g><path style="opacity:1" fill="#32738c" d="M 448.5,181.5 C 468.458,178.887 481.958,186.887 489,205.5C 495.177,222.132 491.011,235.465 476.5,245.5C 471.322,234.14 465.822,222.807 460,211.5C 453.99,202.147 447.49,193.147 440.5,184.5C 443.184,183.247 445.85,182.247 448.5,181.5 Z"/></g>
<g><path style="opacity:1" fill="#32738c" d="M 481.5,265.5 C 487.306,265.268 492.639,266.768 497.5,270C 516.188,285.904 520.021,304.738 509,326.5C 502.787,333.381 495.454,338.714 487,342.5C 486.667,325.167 486.333,307.833 486,290.5C 484.742,282.093 483.242,273.76 481.5,265.5 Z"/></g>
<g><path style="opacity:1" fill="#050707" d="M 259.5,270.5 C 270.379,269.534 274.546,274.2 272,284.5C 265.771,292.422 259.771,292.422 254,284.5C 253.333,281.833 253.333,279.167 254,276.5C 255.36,273.977 257.193,271.977 259.5,270.5 Z"/></g>
<g><path style="opacity:1" fill="#030404" d="M 314.5,270.5 C 323.987,269.819 328.154,274.153 327,283.5C 323.723,289.109 318.89,290.942 312.5,289C 305.468,282.022 306.134,275.856 314.5,270.5 Z"/></g>
<g><path style="opacity:1" fill="#030303" d="M 275.5,323.5 C 283.507,323.334 291.507,323.5 299.5,324C 308.658,327.824 311.824,334.657 309,344.5C 306.414,360.032 297.581,365.865 282.5,362C 274.717,356.211 269.217,348.711 266,339.5C 265.311,331.877 268.478,326.544 275.5,323.5 Z"/></g>
<g><path style="opacity:1" fill="#8d5647" d="M 279.5,337.5 C 284.975,336.511 290.642,336.178 296.5,336.5C 296.795,338.735 296.461,340.735 295.5,342.5C 295.5,340.833 295.5,339.167 295.5,337.5C 290.167,337.5 284.833,337.5 279.5,337.5 Z"/></g>
<g><path style="opacity:1" fill="#e98d75" d="M 279.5,337.5 C 284.833,337.5 290.167,337.5 295.5,337.5C 295.5,339.167 295.5,340.833 295.5,342.5C 293.934,351.85 290.101,352.85 284,345.5C 282.235,342.968 280.735,340.301 279.5,337.5 Z"/></g>
<g><path style="opacity:1" fill="#32738c" d="M 486.5,363.5 C 497.949,362.156 508.616,364.323 518.5,370C 525.259,375.929 528.759,383.429 529,392.5C 529.667,400.833 529.667,409.167 529,417.5C 528.464,424.076 525.297,428.909 519.5,432C 511.498,436.945 502.832,439.779 493.5,440.5C 489.766,414.961 487.433,389.294 486.5,363.5 Z"/></g>
<g><path style="opacity:1" fill="#32748c" d="M 498.5,460.5 C 510.176,459.543 521.509,461.043 532.5,465C 541.325,469.779 547.492,476.945 551,486.5C 557.887,500.19 556.887,513.19 548,525.5C 543.979,531.021 539.146,535.688 533.5,539.5C 525.178,529.543 518.345,518.543 513,506.5C 506.454,491.695 501.62,476.362 498.5,460.5 Z"/></g>
<g><path style="opacity:1" fill="#fcfcfc" d="M 250.5,548.5 C 280.426,547.653 309.093,553.153 336.5,565C 344.772,569.939 350.939,576.772 355,585.5C 355.14,590.952 354.307,596.285 352.5,601.5C 323.724,604.686 295.057,603.853 266.5,599C 253.65,596.499 241.817,591.665 231,584.5C 229.833,575.631 230.5,566.965 233,558.5C 237.633,552.937 243.466,549.604 250.5,548.5 Z"/></g>
<g><path style="opacity:1" fill="#32738b" d="M 559.5,549.5 C 584.184,547.251 601.684,557.251 612,579.5C 613.194,587.426 612.361,595.093 609.5,602.5C 588.904,587.407 568.738,571.74 549,555.5C 548.312,554.668 548.479,554.002 549.5,553.5C 552.865,551.941 556.198,550.608 559.5,549.5 Z"/></g>
<g><path style="opacity:1" fill="#9cc0c9" d="M 367.5,618.5 C 369.833,618.5 372.167,618.5 374.5,618.5C 374.563,629.135 371.896,638.968 366.5,648C 355.167,648.667 343.833,648.667 332.5,648C 329.404,643.848 330.07,640.515 334.5,638C 342.438,636.803 350.438,636.136 358.5,636C 357.529,630.928 357.195,625.762 357.5,620.5C 361.011,620.101 364.344,619.434 367.5,618.5 Z"/></g>
<g><path style="opacity:1" fill="#99bcc5" d="M 306.5,622.5 C 311.511,622.334 316.511,622.501 321.5,623C 312.766,628.968 309.433,637.134 311.5,647.5C 301.517,648.666 291.517,648.832 281.5,648C 277.744,641.391 279.744,637.724 287.5,637C 294.158,636.5 300.825,636.334 307.5,636.5C 307.002,631.848 306.669,627.181 306.5,622.5 Z"/></g>
<g><path style="opacity:0.986" fill="#d8d8d8" d="M 393.5,632.5 C 437.385,631.992 481.051,634.826 524.5,641C 543.398,643.512 561.731,648.179 579.5,655C 594.167,663 594.167,671 579.5,679C 557.214,687.258 534.214,692.592 510.5,695C 447.309,701.613 383.976,703.279 320.5,700C 284.343,698.356 248.677,693.356 213.5,685C 204.519,682.673 196.185,679.006 188.5,674C 184.5,669.333 184.5,664.667 188.5,660C 197.12,654.456 206.453,650.456 216.5,648C 230.763,644.581 245.096,641.747 259.5,639.5C 259.396,652.82 265.396,661.987 277.5,667C 308.833,667.667 340.167,667.667 371.5,667C 376.496,665.014 380.663,661.847 384,657.5C 387.689,649.251 390.856,640.918 393.5,632.5 Z"/></g>
</svg>
