<svg width="255" height="255" viewBox="0 0 255 255" fill="none" xmlns="http://www.w3.org/2000/svg">
<ellipse cx="129.5" cy="222.5" rx="67.5" ry="11.5" fill="#D9D9D9"/>
<path d="M87.2352 140.924L71.3047 143.02L74.6246 124.696L57.272 120.737L63.7086 109.494L54.2197 101.749L65.9483 87.2012L54.2197 77.1276L66.7857 73.9564L63.7086 59.8692L76.2994 57.4561L74.1687 43.8297L85.0797 47.4667L89.5591 35.9958L108.572 45.227L117.258 28.697L129.849 38.9688L138.322 25.833L147.488 40.9508L166.783 34.0336L167.903 48.21L181.257 46.3469L180.365 57.9962L191.41 59.2201L185.068 71.7167L197.004 73.9564L189.73 86.6413L199.244 90.8432L189.542 102.869L195.884 114.003L184.136 118.507L191.242 128.997L178.259 134.363L190.008 141.999L181.257 149.02L193.521 154.788L183.016 164.148L195.141 171.516L183.016 178.047L192.53 187.932L180.217 191.663L179.468 205.28L168.463 201.509L161.536 211.672L150.833 201.509L115.301 197.446L87.2352 140.924Z" fill="#563C22"/>
<path d="M161.534 214.892C160.712 214.892 159.919 214.58 159.315 214.005L149.395 204.585L114.932 200.641C113.847 200.517 112.901 199.853 112.415 198.872L85.3754 144.411L71.7293 146.205C70.7085 146.339 69.6878 145.977 68.9792 145.234C68.2706 144.491 67.9584 143.45 68.1418 142.439L70.9117 127.143L56.5618 123.868C55.5659 123.64 54.7384 122.956 54.3271 122.02C53.9159 121.083 53.9753 120.013 54.4808 119.126L59.5597 110.256L52.1866 104.236C50.814 103.116 50.6059 101.099 51.7159 99.7218L61.4822 87.6018L52.1222 79.5598C51.2104 78.7769 50.8091 77.548 51.0866 76.3786C51.364 75.2092 52.2659 74.2876 53.4353 73.9953L62.9737 71.5871L60.5606 60.5473C60.3773 59.7 60.5407 58.813 61.0164 58.0846C61.4921 57.3612 62.2453 56.8607 63.0976 56.6972L72.6311 54.8688L70.9811 44.3195C70.8076 43.2096 71.2239 42.0898 72.0811 41.3614C72.9383 40.633 74.1126 40.41 75.178 40.7668L83.1853 43.4375L86.5498 34.8157C86.8768 33.9783 87.5408 33.3144 88.3733 32.9873C89.2107 32.6603 90.1471 32.695 90.9548 33.0914L107.163 40.96L114.397 27.1899C114.848 26.3327 115.656 25.7232 116.602 25.53C117.549 25.3368 118.535 25.5796 119.283 26.189L129.084 34.1865L135.605 24.0782C136.204 23.1466 137.24 22.5669 138.355 22.6016C139.465 22.6164 140.49 23.2011 141.065 24.1525L148.869 37.0207L165.687 30.9905C166.633 30.6486 167.679 30.7724 168.521 31.3175C169.363 31.8625 169.903 32.7693 169.983 33.7702L170.835 44.5375L180.8 43.1452C181.766 43.0114 182.742 43.3186 183.451 43.9875C184.159 44.6565 184.531 45.6078 184.456 46.579L183.802 55.1265L191.75 56.0035C192.801 56.1224 193.727 56.7418 194.228 57.6734C194.728 58.6049 194.743 59.7198 194.267 60.6612L189.867 69.3276L197.582 70.7745C198.608 70.9677 199.475 71.6416 199.911 72.593C200.347 73.5444 200.298 74.6394 199.782 75.5462L194.287 85.1292L200.531 87.8892C201.447 88.2955 202.121 89.1032 202.359 90.0744C202.597 91.0456 202.364 92.0762 201.735 92.8542L193.415 103.171L198.672 112.397C199.138 113.214 199.222 114.191 198.905 115.078C198.588 115.964 197.904 116.663 197.027 117L189.065 120.052L193.896 127.188C194.441 127.99 194.594 128.991 194.312 129.918C194.035 130.844 193.351 131.598 192.459 131.969L185.14 134.997L191.755 139.298C192.622 139.863 193.167 140.804 193.217 141.84C193.267 142.87 192.821 143.866 192.013 144.51L187.286 148.301L194.877 151.874C195.858 152.334 196.537 153.256 196.695 154.326C196.854 155.397 196.458 156.472 195.65 157.195L188.396 163.662L196.799 168.77C197.785 169.37 198.375 170.45 198.345 171.605C198.316 172.759 197.672 173.81 196.651 174.355L188.262 178.874L194.832 185.702C195.61 186.509 195.912 187.664 195.63 188.749C195.348 189.834 194.52 190.691 193.45 191.018L183.297 194.096L182.673 205.462C182.618 206.468 182.093 207.395 181.255 207.96C180.418 208.525 179.368 208.663 178.411 208.336L169.73 205.363L164.185 213.5C163.655 214.282 162.808 214.788 161.866 214.887C161.752 214.902 161.638 214.907 161.525 214.907L161.534 214.892ZM117.405 194.442L151.198 198.307C151.892 198.387 152.541 198.689 153.051 199.17L161.009 206.726L165.806 199.69C166.623 198.491 168.139 197.985 169.512 198.456L176.489 200.849L177.004 191.479C177.078 190.127 177.99 188.967 179.288 188.571L186.567 186.366L180.701 180.271C180.002 179.548 179.685 178.537 179.838 177.541C179.992 176.545 180.606 175.683 181.493 175.202L188.663 171.342L181.345 166.897C180.473 166.367 179.903 165.455 179.809 164.44C179.714 163.424 180.111 162.423 180.874 161.744L187.737 155.625L179.883 151.933C178.877 151.462 178.188 150.501 178.055 149.396C177.926 148.291 178.372 147.201 179.239 146.502L184.516 142.271L176.499 137.058C175.498 136.404 174.938 135.249 175.047 134.06C175.156 132.871 175.919 131.835 177.024 131.38L186.349 127.525L181.459 120.305C180.909 119.492 180.76 118.472 181.052 117.535C181.35 116.599 182.053 115.846 182.97 115.494L191.22 112.332L186.736 104.459C186.082 103.309 186.196 101.872 187.028 100.842L194.089 92.0861L188.421 89.5789C187.583 89.2072 186.949 88.5036 186.661 87.6365C186.379 86.7694 186.473 85.8229 186.929 85.0301L191.948 76.2795L184.466 74.8773C183.47 74.689 182.618 74.0448 182.172 73.138C181.726 72.2263 181.731 71.161 182.187 70.2542L186.424 61.905L180.002 61.1964C178.277 61.0031 177.014 59.4819 177.143 57.7477L177.727 50.0872L168.338 51.4003C167.461 51.5241 166.569 51.2764 165.875 50.7214C165.181 50.1665 164.75 49.3489 164.681 48.4619L163.893 38.4874L148.562 43.9826C147.12 44.5029 145.515 43.9281 144.722 42.6199L138.226 31.9022L132.542 40.7122C132.047 41.4803 131.244 42.0055 130.337 42.1492C129.431 42.2929 128.509 42.0452 127.8 41.4654L118.262 33.681L111.409 46.7227C110.602 48.2637 108.714 48.8831 107.153 48.12L91.2769 40.41L88.066 48.6304C87.4417 50.2259 85.6777 51.0584 84.0475 50.5133L78.156 48.5511L79.4691 56.9499C79.7366 58.6644 78.5969 60.2847 76.8924 60.6117L67.5472 62.4054L69.9207 73.2619C70.2923 74.9615 69.2468 76.6462 67.5621 77.0723L61.0164 78.7224L68.0328 84.7477C69.3508 85.8824 69.5342 87.8595 68.4441 89.2122L58.7272 101.273L65.7336 106.996C66.9526 107.992 67.2747 109.726 66.4918 111.094L62.2156 118.561L75.3266 121.554C77.0063 121.935 78.0866 123.575 77.7794 125.27L75.2474 139.253L86.8025 137.732C88.1651 137.554 89.498 138.257 90.1075 139.491L117.39 194.442H117.405Z" fill="black"/>
<path d="M133.906 188.268C133.674 190.701 134.952 218.667 127.296 218.667H112.515C112.515 218.667 108.571 218.434 108.571 213.217C108.571 207.999 117.698 208.346 117.698 208.346L115.875 184.349" fill="#FFECDC"/>
<path d="M127.296 221.887H112.515C112.451 221.887 112.392 221.887 112.327 221.882C109.523 221.719 105.355 219.276 105.355 213.216C105.355 211.269 106.094 209.524 107.491 208.177C109.344 206.393 112.04 205.64 114.24 205.328L112.664 184.596C112.53 182.822 113.858 181.276 115.632 181.142C117.406 181.013 118.952 182.336 119.086 184.11L120.909 208.107C120.979 209.024 120.657 209.926 120.017 210.585C119.378 211.244 118.491 211.601 117.575 211.571C115.825 211.516 112.892 211.918 111.951 212.824C111.827 212.948 111.787 213.013 111.787 213.221C111.787 214.138 111.956 215.252 112.743 215.451H127.217C127.48 215.248 129.085 213.716 129.997 205.773C130.626 200.288 130.636 194.139 130.641 190.829C130.641 189.194 130.646 188.456 130.696 187.965C130.864 186.196 132.435 184.898 134.209 185.066C135.978 185.235 137.276 186.806 137.112 188.575C137.092 188.837 137.092 189.902 137.088 190.844C137.063 206.973 135.859 221.897 127.296 221.897V221.887Z" fill="black"/>
<path d="M147.104 188.429C146.876 190.833 148.135 218.457 140.578 218.457H129.241C129.241 218.457 125.347 218.229 125.347 213.076C125.347 207.923 134.36 208.264 134.36 208.264L132.561 184.56" fill="#FFECDC"/>
<path d="M140.579 221.638H129.242C129.177 221.638 129.118 221.638 129.054 221.633C126.284 221.47 122.166 219.057 122.166 213.076C122.166 211.149 122.894 209.429 124.277 208.101C126.105 206.337 128.771 205.594 130.946 205.287L129.391 184.808C129.257 183.053 130.57 181.527 132.324 181.394C134.078 181.265 135.604 182.573 135.738 184.327L137.537 208.032C137.606 208.934 137.284 209.826 136.655 210.48C136.025 211.134 135.148 211.481 134.241 211.451C132.512 211.391 129.618 211.793 128.687 212.69C128.563 212.808 128.528 212.878 128.528 213.081C128.528 213.988 128.697 215.088 129.475 215.281H140.51C140.772 215.083 142.353 213.572 143.255 205.723C143.874 200.307 143.884 194.227 143.889 190.962C143.889 189.351 143.894 188.613 143.938 188.132C144.107 186.383 145.658 185.1 147.407 185.268C149.156 185.437 150.435 186.983 150.271 188.732C150.251 188.995 150.251 190.045 150.246 190.972C150.221 206.902 149.032 221.643 140.574 221.643L140.579 221.638Z" fill="black"/>
<path d="M90.435 132.349C90.435 132.349 70.2383 114.496 70.2383 99.6404C70.2383 84.7852 77.869 57.9685 94.1661 55.491C94.1661 55.491 93.4427 35.8938 98.3928 31.251C103.343 26.6081 114.898 49.1981 114.898 49.1981C114.898 49.1981 130.987 47.7562 140.892 47.9594C140.892 47.9594 146.254 27.5347 149.97 27.7428C153.681 27.9509 157.397 33.5204 159.87 53.7369C159.87 53.7369 180.865 73.8742 180.453 92.4408C180.042 111.007 170.112 124.678 166.604 130.659C170.092 140.455 174.844 162.654 172.372 180.051C171.579 185.625 168.442 190.64 163.72 193.702C157.125 197.978 146.452 201.853 129.506 201.62C108.025 201.323 96.4306 198.305 91.6391 185.868C85.0637 168.793 89.1071 140.787 90.4301 132.344L90.435 132.349Z" fill="#FFECDC"/>
<path d="M130.968 205.2C130.468 205.2 129.963 205.2 129.457 205.19C107.685 204.893 93.9742 201.845 88.3155 187.153C85.1146 178.844 82.2704 162.859 86.6258 133.684C81.7798 129.08 66.6719 113.606 66.6719 99.6425C66.6719 85.6792 73.7229 58.1242 90.5453 52.6984C90.5057 45.9348 91.1151 33.1954 95.9562 28.6566C97.3337 27.3633 99.1274 26.8331 101 27.1601C103.319 27.5615 106.743 29.2016 112.694 38.3536C114.453 41.059 115.965 43.7001 116.931 45.4591C121.257 45.1123 130.661 44.4235 138.188 44.3888C138.768 42.382 139.645 39.4982 140.675 36.5896C143.956 27.3534 146.522 23.9889 150.159 24.197C156.844 24.5687 160.783 32.9278 163.246 52.084C167.472 56.38 184.404 74.7236 184.007 92.5271C183.621 109.89 175.475 123.055 171.094 130.131C170.886 130.468 170.688 130.79 170.5 131.092C174.058 141.983 178.304 163.538 175.886 180.563C174.94 187.213 171.208 193.095 165.649 196.702C156.948 202.346 145.284 205.205 130.959 205.205L130.968 205.2ZM100.351 34.4688C98.4188 37.5509 97.4378 47.3321 97.7301 55.3692C97.7945 57.1778 96.4963 58.7485 94.7075 59.0211C80.7888 61.1369 73.8022 86.2044 73.8022 99.6474C73.8022 110.514 87.5128 125.017 92.7948 129.685C93.7066 130.488 94.1427 131.707 93.9544 132.906C90.4264 155.392 90.788 173.75 94.9651 184.597C98.726 194.368 107.457 197.767 129.556 198.069C143.133 198.253 153.98 195.785 161.784 190.726C165.619 188.239 168.191 184.171 168.845 179.562C171.208 162.908 166.67 141.468 163.251 131.865C162.899 130.874 163.003 129.779 163.533 128.867C163.964 128.129 164.465 127.321 165.049 126.38C169.068 119.884 176.555 107.789 176.897 92.3685C177.268 75.6056 157.607 56.5039 157.409 56.3156C156.819 55.7458 156.437 54.9926 156.338 54.18C154.341 37.8729 151.725 33.1756 150.486 31.8377C148.856 34.5035 146.215 41.7329 144.337 48.8731C143.921 50.4637 142.484 51.5736 140.819 51.529C131.231 51.3308 115.38 52.7381 115.216 52.7529C113.77 52.8818 112.387 52.1187 111.728 50.8304C107.913 43.378 102.794 36.0842 100.346 34.4688H100.351Z" fill="black"/>
<path d="M115.873 89.4444C114.986 88.9291 113.861 89.2215 113.192 89.9944C112.632 90.6386 112.191 91.5701 112.974 92.5463C114.5 94.4441 116.888 92.3431 116.888 91.3274C116.888 90.6683 116.626 89.8755 115.873 89.4395V89.4444Z" fill="black"/>
<path d="M114.455 94.5524C113.524 94.5524 112.656 94.1263 112.012 93.3285C111.001 92.0749 111.096 90.524 112.26 89.1861C113.355 87.9226 115.139 87.5856 116.502 88.3735C117.522 88.9681 118.132 90.0731 118.132 91.3317C118.132 92.5011 116.977 93.8587 115.56 94.3592C115.189 94.488 114.817 94.5524 114.455 94.5524ZM114.906 90.4249C114.614 90.4249 114.311 90.5934 114.123 90.8114C113.623 91.3862 113.791 91.5943 113.935 91.7776C114.197 92.1046 114.401 92.0997 114.569 92.07C115.07 91.9808 115.535 91.4902 115.639 91.2672C115.63 91.0641 115.56 90.7073 115.243 90.524C115.134 90.4596 115.015 90.4348 114.896 90.4348L114.906 90.4249Z" fill="black"/>
<path d="M134.015 89.4444C133.128 88.9291 132.003 89.2215 131.334 89.9944C130.775 90.6386 130.334 91.5701 131.116 92.5463C132.643 94.4441 135.031 92.3431 135.031 91.3274C135.031 90.6683 134.768 89.8755 134.015 89.4395V89.4444Z" fill="black"/>
<path d="M132.594 94.5512C131.662 94.5512 130.795 94.1251 130.151 93.3273C129.14 92.0737 129.234 90.5227 130.399 89.1849C131.494 87.9263 133.278 87.5844 134.64 88.3723C135.661 88.9669 136.271 90.0718 136.271 91.3304C136.271 92.4998 135.116 93.8575 133.699 94.358C133.327 94.4868 132.956 94.5512 132.594 94.5512ZM133.05 90.4236C132.757 90.4236 132.46 90.5921 132.267 90.8101C131.766 91.3849 131.935 91.593 132.079 91.7764C132.341 92.1034 132.544 92.0985 132.713 92.0687C133.213 91.9795 133.679 91.489 133.783 91.266C133.773 91.0628 133.704 90.7061 133.387 90.5227C133.278 90.4583 133.159 90.4336 133.04 90.4336L133.05 90.4236Z" fill="black"/>
<path d="M123.923 116.938C121.911 116.938 120.211 115.278 118.056 111.2C117.689 110.506 117.714 109.679 118.115 109.005C118.517 108.336 119.245 107.925 120.023 107.925H125.761C126.366 107.925 126.94 108.168 127.362 108.604C127.783 109.04 128.006 109.624 127.991 110.224C127.857 114.485 126.376 116.933 123.918 116.933L123.923 116.938Z" fill="#EF9178"/>
<path d="M125.768 110.16C125.768 110.16 125.625 114.709 123.925 114.709C123.073 114.709 121.834 113.574 120.03 110.16H125.768ZM125.768 105.701H120.03C118.465 105.701 117.018 106.518 116.21 107.861C115.402 109.199 115.358 110.864 116.086 112.246C117.9 115.67 120.243 119.169 123.92 119.169C125.01 119.169 128.662 118.752 129.836 113.386C130.163 111.89 130.218 110.458 130.223 110.299C130.263 109.095 129.807 107.921 128.969 107.053C128.127 106.186 126.972 105.696 125.768 105.696V105.701Z" fill="black"/>
</svg>
