<?xml version="1.0" encoding="UTF-8"?>
<!DOCTYPE svg PUBLIC "-//W3C//DTD SVG 1.1//EN" "http://www.w3.org/Graphics/SVG/1.1/DTD/svg11.dtd">
<svg xmlns="http://www.w3.org/2000/svg" version="1.1" width="765px" height="765px" style="shape-rendering:geometricPrecision; text-rendering:geometricPrecision; image-rendering:optimizeQuality; fill-rule:evenodd; clip-rule:evenodd" xmlns:xlink="http://www.w3.org/1999/xlink">
<g><path style="opacity:0.985" fill="#010101" d="M 494.5,637.5 C 492.661,638.508 491.328,640.008 490.5,642C 487.001,644.704 483.334,645.037 479.5,643C 475.957,639.951 472.291,637.118 468.5,634.5C 462.504,627.671 456.004,621.338 449,615.5C 448.305,621.533 447.471,627.533 446.5,633.5C 444.465,639.429 442.299,645.429 440,651.5C 437.108,657.392 432.608,661.559 426.5,664C 395.505,665.118 364.505,665.451 333.5,665C 319.965,659.448 313.965,649.281 315.5,634.5C 319.782,622.343 328.449,616.01 341.5,615.5C 341.5,614.5 341.5,613.5 341.5,612.5C 315.128,610.89 292.961,600.557 275,581.5C 262.418,561.75 255.418,540.083 254,516.5C 251.986,488.82 252.153,461.154 254.5,433.5C 241.175,435.166 227.841,436.832 214.5,438.5C 207.407,438.573 203.74,435.073 203.5,428C 206.28,412.488 208.78,396.988 211,381.5C 196.554,377.93 182.054,374.43 167.5,371C 161.975,368.081 160.142,363.581 162,357.5C 167.167,348.5 172.333,339.5 177.5,330.5C 169.054,323.855 160.887,316.855 153,309.5C 152.333,306.5 152.333,303.5 153,300.5C 163.024,287.976 172.858,275.31 182.5,262.5C 172.517,253.684 162.683,244.684 153,235.5C 150.78,228.563 152.947,223.73 159.5,221C 168.777,218.514 178.11,216.347 187.5,214.5C 185.654,203.781 183.488,193.114 181,182.5C 179.534,177.265 181.034,173.099 185.5,170C 195.705,167.826 205.872,165.659 216,163.5C 215.213,152.608 213.713,141.774 211.5,131C 212.333,124.833 215.833,121.333 222,120.5C 230.531,123.066 239.031,125.732 247.5,128.5C 248.167,128.167 248.833,127.833 249.5,127.5C 252.235,120.127 255.069,112.794 258,105.5C 259.584,100.577 262.918,97.9099 268,97.5C 271.551,98.3614 275.051,99.3614 278.5,100.5C 283.948,81.1072 295.614,75.9406 313.5,85C 319.321,90.6546 324.987,96.4879 330.5,102.5C 334.87,93.5886 339.87,85.0886 345.5,77C 349.997,74.8791 354.33,75.2125 358.5,78C 367.4,86.0694 376.733,93.5694 386.5,100.5C 393.526,90.7949 400.192,80.7949 406.5,70.5C 412.33,64.9964 417.83,65.3298 423,71.5C 425.336,76.1751 428.169,80.5084 431.5,84.5C 442.97,67.8438 455.47,67.1771 469,82.5C 472.447,87.7363 475.613,93.0696 478.5,98.5C 484.392,96.0548 490.392,93.8882 496.5,92C 504.289,90.4523 508.789,93.6189 510,101.5C 510.758,111.848 511.591,122.181 512.5,132.5C 522.317,131.121 532.151,129.788 542,128.5C 549.592,128.259 553.425,131.926 553.5,139.5C 552.629,147.821 551.962,156.155 551.5,164.5C 560.552,165.265 569.552,166.432 578.5,168C 583.218,171.343 584.718,175.843 583,181.5C 578.373,189.921 573.873,198.421 569.5,207C 577.857,208.559 586.19,210.226 594.5,212C 599.732,214.633 601.565,218.799 600,224.5C 594.701,234.627 589.201,244.627 583.5,254.5C 590.114,257.761 596.781,260.928 603.5,264C 607.542,267.877 608.375,272.377 606,277.5C 597.31,288.023 588.81,298.689 580.5,309.5C 587.045,319.708 592.711,330.375 597.5,341.5C 596.719,346.891 593.719,350.391 588.5,352C 581.422,354.47 574.422,357.137 567.5,360C 573.039,367.576 578.206,375.41 583,383.5C 583.743,387.772 582.576,391.439 579.5,394.5C 571.803,398.017 564.136,401.517 556.5,405C 562.665,409.25 568.998,413.25 575.5,417C 579.714,421.2 580.548,426.034 578,431.5C 573.108,436.027 567.941,440.193 562.5,444C 570.469,447.984 578.469,451.984 586.5,456C 590.883,460.466 591.383,465.299 588,470.5C 580.657,477.011 573.49,483.678 566.5,490.5C 575.248,496.291 584.082,501.958 593,507.5C 595.349,512.688 594.849,517.522 591.5,522C 582.672,526.58 574.005,531.413 565.5,536.5C 571.819,543.319 578.319,549.986 585,556.5C 588.729,562.414 587.896,567.581 582.5,572C 571.588,575.304 560.755,578.804 550,582.5C 549.223,593.493 548.556,604.493 548,615.5C 547.301,621.532 543.968,624.865 538,625.5C 528.593,622.8 519.259,619.8 510,616.5C 508.739,616.759 507.739,617.426 507,618.5C 502.823,624.862 498.656,631.195 494.5,637.5 Z M 468.5,634.5 C 461.155,634.371 453.822,634.038 446.5,633.5C 447.471,627.533 448.305,621.533 449,615.5C 456.004,621.338 462.504,627.671 468.5,634.5 Z"/></g>
<g><path style="opacity:1" fill="#feebdb" d="M 450.5,95.5 C 455.217,100.935 458.384,107.268 460,114.5C 463.755,131.762 467.089,149.095 470,166.5C 493.469,189.635 511.802,216.302 525,246.5C 530.531,261.797 531.864,277.463 529,293.5C 523.15,326.726 510.484,357.059 491,384.5C 489.743,386.513 488.909,388.679 488.5,391C 503.633,435.968 509.8,482.134 507,529.5C 506.485,546.026 499.985,559.526 487.5,570C 465.717,583.26 442.05,590.927 416.5,593C 398.167,593.667 379.833,593.667 361.5,593C 345.424,592.043 329.757,589.043 314.5,584C 298.754,577.256 288.254,565.756 283,549.5C 276.679,527.101 273.846,504.268 274.5,481C 274.667,471.5 274.833,462 275,452.5C 277.136,432.473 279.136,412.473 281,392.5C 263.476,376.314 248.143,358.314 235,338.5C 226.56,325.181 221.727,310.681 220.5,295C 222.06,259.991 232.227,227.824 251,198.5C 260.142,186.01 272.308,178.177 287.5,175C 289.378,173.457 290.878,171.624 292,169.5C 292.188,155.805 292.855,142.138 294,128.5C 294.681,120.225 296.515,112.225 299.5,104.5C 300.365,103.417 301.365,103.251 302.5,104C 315.44,118.702 326.274,134.868 335,152.5C 336.543,154.378 338.376,155.878 340.5,157C 368.457,155.406 396.457,154.406 424.5,154C 427.937,152.895 430.437,150.728 432,147.5C 436.293,129.451 442.46,112.118 450.5,95.5 Z"/></g>
<g><path style="opacity:1" fill="#543b21" d="M 413.5,95.5 C 416.909,99.3054 419.575,103.639 421.5,108.5C 418.755,116.4 416.421,124.4 414.5,132.5C 394.291,132.632 374.125,133.632 354,135.5C 352.5,135.167 351,134.833 349.5,134.5C 347.167,130.5 344.833,126.5 342.5,122.5C 346.262,115.302 350.262,108.302 354.5,101.5C 365.024,109.858 375.691,118.025 386.5,126C 391.519,126.741 395.353,124.908 398,120.5C 403.189,112.111 408.355,103.777 413.5,95.5 Z"/></g>
<g><path style="opacity:1" fill="#543b21" d="M 487.5,115.5 C 488.833,115.5 490.167,115.5 491.5,115.5C 492.122,125.845 492.956,136.178 494,146.5C 495.312,151.308 498.479,153.642 503.5,153.5C 513.146,152.217 522.813,151.217 532.5,150.5C 531.961,158.006 531.294,165.506 530.5,173C 531.094,177.513 533.427,180.846 537.5,183C 544.615,183.283 551.615,184.283 558.5,186C 554.206,194.089 550.039,202.255 546,210.5C 543.998,216.685 545.831,221.185 551.5,224C 559.149,225.364 566.815,226.53 574.5,227.5C 570.376,237.145 565.542,246.479 560,255.5C 558.849,259.829 559.682,263.662 562.5,267C 568.868,270.007 575.201,273.007 581.5,276C 574.693,285.108 567.526,293.942 560,302.5C 558.101,306.136 558.101,309.803 560,313.5C 564.42,320.671 568.586,328.004 572.5,335.5C 564.148,339.794 555.481,343.627 546.5,347C 541.784,351.692 541.284,356.859 545,362.5C 549.623,368.913 554.123,375.413 558.5,382C 548.752,385.805 539.086,389.805 529.5,394C 523.719,398.686 523.053,404.019 527.5,410C 536.176,415.003 544.51,420.503 552.5,426.5C 546.519,431.313 540.686,436.313 535,441.5C 532.601,446.44 533.435,450.773 537.5,454.5C 545.779,457.973 553.779,461.973 561.5,466.5C 554.843,472.989 548.01,479.322 541,485.5C 537.39,490.614 537.89,495.28 542.5,499.5C 550.101,503.772 557.434,508.439 564.5,513.5C 558.488,517.507 552.155,521.007 545.5,524C 538.322,527.569 536.822,532.735 541,539.5C 546.468,545.969 552.301,552.136 558.5,558C 549.939,560.965 541.439,564.132 533,567.5C 531.154,570.569 530.154,573.902 530,577.5C 529.5,585.493 529.334,593.493 529.5,601.5C 522.344,599.927 515.344,597.76 508.5,595C 503.265,593.534 499.099,595.034 496,599.5C 491.748,606.339 487.248,613.006 482.5,619.5C 477.167,614.5 471.833,609.5 466.5,604.5C 480.713,599.396 493.713,592.23 505.5,583C 522.54,565.406 530.373,544.239 529,519.5C 530.122,476.52 524.288,434.52 511.5,393.5C 521.957,376.254 531.124,358.254 539,339.5C 548.526,314.68 552.526,289.013 551,262.5C 545.568,236.972 535.235,213.639 520,192.5C 510.753,179.916 500.753,167.916 490,156.5C 487.06,143.542 485.226,130.542 484.5,117.5C 485.739,117.058 486.739,116.391 487.5,115.5 Z"/></g>
<g><path style="opacity:1" fill="#533a21" d="M 272.5,121.5 C 273.124,121.917 273.457,122.584 273.5,123.5C 272.04,134.776 271.04,146.11 270.5,157.5C 255.183,163.984 242.683,173.984 233,187.5C 219.853,207.431 210.686,229.097 205.5,252.5C 205.267,253.932 204.6,254.432 203.5,254C 196.833,248 190.167,242 183.5,236C 190.018,233.701 196.685,231.701 203.5,230C 206,228.833 207.833,227 209,224.5C 207.759,212.222 205.592,200.055 202.5,188C 202.905,187.055 203.572,186.388 204.5,186C 214.257,184.382 223.923,182.382 233.5,180C 236.956,177.395 238.289,173.895 237.5,169.5C 236.665,162.488 235.665,155.488 234.5,148.5C 234.833,147.5 235.167,146.5 235.5,145.5C 241.711,147.904 248.045,149.904 254.5,151.5C 257.028,151.237 259.361,150.404 261.5,149C 265.862,140.109 269.529,130.942 272.5,121.5 Z"/></g>
<g><path style="opacity:1" fill="#080707" d="M 340.5,263.5 C 351.436,263.254 355.269,268.254 352,278.5C 343.264,286.254 337.097,284.587 333.5,273.5C 334.288,269.052 336.621,265.718 340.5,263.5 Z"/></g>
<g><path style="opacity:1" fill="#090908" d="M 394.5,263.5 C 405.327,262.485 409.493,267.151 407,277.5C 403.212,282.153 398.378,283.653 392.5,282C 385.638,275.118 386.304,268.951 394.5,263.5 Z"/></g>
<g><path style="opacity:1" fill="#543a21" d="M 200.5,272.5 C 201.139,273.097 201.472,273.93 201.5,275C 197.417,294.118 199.25,312.618 207,330.5C 212.453,342.585 219.286,353.752 227.5,364C 213.621,361.923 199.955,358.756 186.5,354.5C 191.832,346.002 196.499,337.169 200.5,328C 200.091,325.679 199.257,323.513 198,321.5C 190.477,315.636 183.31,309.469 176.5,303C 184.383,292.73 192.383,282.563 200.5,272.5 Z"/></g>
<g><path style="opacity:1" fill="#050404" d="M 355.5,316.5 C 363.84,316.334 372.173,316.5 380.5,317C 390.142,321.803 392.975,329.303 389,339.5C 385.214,354.808 376.047,359.641 361.5,354C 353.536,347.557 348.536,339.391 346.5,329.5C 346.779,323.273 349.779,318.939 355.5,316.5 Z"/></g>
<g><path style="opacity:1" fill="#74463a" d="M 376.5,330.5 C 370.974,330.179 365.64,330.512 360.5,331.5C 359.957,331.44 359.624,331.107 359.5,330.5C 365.32,329.184 370.987,329.184 376.5,330.5 Z"/></g>
<g><path style="opacity:1" fill="#e88d74" d="M 376.5,330.5 C 376.642,334.15 375.975,337.65 374.5,341C 371.651,344.192 368.818,344.025 366,340.5C 364.156,337.472 362.322,334.472 360.5,331.5C 365.64,330.512 370.974,330.179 376.5,330.5 Z"/></g>
<g><path style="opacity:1" fill="#543a21" d="M 232.5,372.5 C 241.07,381.876 249.903,391.209 259,400.5C 258.653,404.777 258.153,409.111 257.5,413.5C 246.836,414.5 236.169,415.5 225.5,416.5C 228.093,401.87 230.426,387.203 232.5,372.5 Z"/></g>
<g><path style="opacity:1" fill="#f6e4d4" d="M 425.5,612.5 C 426.833,612.5 428.167,612.5 429.5,612.5C 429.257,623.97 426.591,634.803 421.5,645C 410.167,645.667 398.833,645.667 387.5,645C 384.833,642 384.833,639 387.5,636C 393.691,634.164 400.025,633.164 406.5,633C 407.931,632.535 409.097,631.701 410,630.5C 411.397,625.292 411.897,619.959 411.5,614.5C 416.324,614.008 420.99,613.341 425.5,612.5 Z"/></g>
<g><path style="opacity:1" fill="#f8e6d6" d="M 372.5,614.5 C 377.5,615.167 382.5,615.833 387.5,616.5C 371.596,619.736 364.596,629.402 366.5,645.5C 356.494,645.666 346.494,645.5 336.5,645C 333.091,639.364 334.757,636.03 341.5,635C 357.957,637.379 364.623,630.546 361.5,614.5C 365.167,614.5 368.833,614.5 372.5,614.5 Z"/></g>
<g><path style="opacity:1" fill="#867c74" d="M 372.5,614.5 C 378.206,614.171 383.872,614.505 389.5,615.5C 389.043,616.298 388.376,616.631 387.5,616.5C 382.5,615.833 377.5,615.167 372.5,614.5 Z"/></g>
<g><path style="opacity:0.986" fill="#d8d8d8" d="M 446.5,633.5 C 453.822,634.038 461.155,634.371 468.5,634.5C 472.291,637.118 475.957,639.951 479.5,643C 483.334,645.037 487.001,644.704 490.5,642C 491.328,640.008 492.661,638.508 494.5,637.5C 523.686,639.304 552.019,645.137 579.5,655C 594.167,663 594.167,671 579.5,679C 565.663,684.71 551.329,688.71 536.5,691C 471.516,700.783 406.183,704.116 340.5,701C 306.616,699.845 272.949,696.512 239.5,691C 221.355,688.507 204.355,682.841 188.5,674C 184.5,669.333 184.5,664.667 188.5,660C 197.12,654.456 206.453,650.456 216.5,648C 249.085,640.472 282.085,635.972 315.5,634.5C 313.965,649.281 319.965,659.448 333.5,665C 364.505,665.451 395.505,665.118 426.5,664C 432.608,661.559 437.108,657.392 440,651.5C 442.299,645.429 444.465,639.429 446.5,633.5 Z"/></g>
</svg>
