<svg width="255" height="255" viewBox="0 0 255 255" fill="none" xmlns="http://www.w3.org/2000/svg">
<ellipse cx="129.5" cy="222.5" rx="67.5" ry="11.5" fill="#D9D9D9"/>
<path d="M119.575 188.184C119.343 190.617 120.621 218.583 112.965 218.583H98.1845C98.1845 218.583 94.2402 218.35 94.2402 213.132C94.2402 207.915 103.368 208.261 103.368 208.261L101.544 184.264" fill="#AA977D"/>
<path d="M112.97 221.802H98.1894C98.125 221.802 98.0655 221.802 98.0011 221.797C95.1965 221.634 91.0293 219.191 91.0293 213.131C91.0293 211.183 91.7676 209.439 93.1699 208.091C95.0231 206.308 97.7187 205.555 99.9187 205.242L98.3429 184.51C98.2092 182.737 99.5371 181.191 101.311 181.057C103.085 180.918 104.631 182.251 104.765 184.025L106.588 208.022C106.658 208.939 106.335 209.841 105.696 210.5C105.062 211.159 104.175 211.525 103.253 211.486C101.504 211.431 98.5709 211.833 97.6294 212.739C97.5056 212.863 97.4659 212.928 97.4659 213.136C97.4659 215.043 98.1943 215.326 98.3479 215.366H112.896C113.159 215.162 114.764 213.631 115.676 205.688C116.305 200.203 116.315 194.054 116.32 190.744C116.32 189.109 116.325 188.37 116.374 187.88C116.543 186.111 118.114 184.813 119.887 184.981C121.656 185.15 122.955 186.72 122.791 188.489C122.771 188.752 122.771 189.817 122.766 190.759C122.742 206.887 121.538 221.812 112.975 221.812L112.97 221.802Z" fill="black"/>
<path d="M133.164 188.184C132.931 190.617 134.209 218.583 126.554 218.583H115.078C115.078 218.583 111.134 218.35 111.134 213.132C111.134 207.915 120.261 208.261 120.261 208.261L118.438 184.264" fill="#AA977D"/>
<path d="M126.56 221.802H115.084C115.019 221.802 114.96 221.802 114.896 221.797C112.091 221.634 107.924 219.191 107.924 213.131C107.924 211.183 108.662 209.439 110.064 208.091C111.918 206.308 114.613 205.555 116.813 205.242L115.237 184.51C115.104 182.737 116.432 181.191 118.206 181.057C119.984 180.918 121.525 182.251 121.659 184.025L123.483 208.022C123.552 208.939 123.23 209.841 122.591 210.5C121.957 211.159 121.07 211.525 120.148 211.486C118.399 211.431 115.465 211.833 114.529 212.739C114.405 212.863 114.365 212.928 114.365 213.136C114.365 215.043 115.094 215.326 115.247 215.366H126.495C126.758 215.162 128.363 213.631 129.275 205.688C129.904 200.203 129.914 194.054 129.919 190.744C129.919 189.109 129.924 188.37 129.974 187.88C130.142 186.111 131.713 184.813 133.487 184.981C135.256 185.15 136.554 186.72 136.391 188.489C136.371 188.752 136.371 189.817 136.366 190.759C136.341 206.887 135.137 221.812 126.575 221.812L126.56 221.802Z" fill="black"/>
<path d="M149.579 38.0473C149.579 38.0473 149.282 30.367 154.574 29.0341C159.861 27.7012 163.245 28.0481 164.261 32.0022C165.277 35.9563 160.109 42.8091 150.491 44.2114L149.584 38.0473H149.579Z" fill="#AA977D"/>
<path d="M150.482 46.1514C149.535 46.1514 148.708 45.4577 148.564 44.4965L147.658 38.3324C147.648 38.263 147.643 38.1936 147.638 38.1243C147.638 38.0351 147.559 35.8697 148.222 33.5161C149.189 30.0773 151.22 27.8773 154.094 27.1538C156.899 26.4502 164.351 24.5722 166.135 31.5192C166.65 33.531 166.095 35.9044 164.569 38.1986C161.839 42.3014 156.676 45.2645 150.764 46.1267C150.67 46.1415 150.576 46.1465 150.482 46.1465V46.1514ZM151.513 37.8914L152.107 41.9248C156.121 40.9486 159.49 38.8279 161.338 36.0531C162.22 34.7251 162.612 33.3922 162.379 32.4854C162.032 31.1327 161.557 29.2795 155.046 30.9196C151.622 31.7818 151.513 37.1531 151.518 37.8914H151.513Z" fill="black"/>
<path d="M69.4355 43.1949C69.4355 43.1949 70.1341 35.5393 64.9214 33.9339C59.7087 32.3285 56.3144 32.492 55.0906 36.3866C53.8716 40.2813 59.4214 47.5355 68.9549 49.4432L69.4355 43.1899V43.1949Z" fill="#AA977D"/>
<path d="M68.9625 51.3865C68.8337 51.3865 68.7099 51.3716 68.5811 51.3468C61.2873 49.89 56.4858 45.6535 54.4245 42.18C53.0866 39.9205 52.6654 37.656 53.2451 35.8078C55.3907 28.9649 62.734 31.2294 65.494 32.0816C68.3283 32.9537 70.241 35.2578 71.0239 38.7412C71.5392 41.0354 71.3856 43.1165 71.3657 43.3543L70.8901 49.5977C70.8455 50.1527 70.568 50.6581 70.127 50.995C69.7851 51.2527 69.3739 51.3865 68.9577 51.3865H68.9625ZM59.8354 34.9159C57.5907 34.9159 57.2339 36.0556 56.9465 36.9673C56.7087 37.7304 57.011 38.9394 57.7592 40.2029C59.1268 42.512 62.3476 45.485 67.1986 47.0012L67.5008 43.0471C67.5008 43.0471 67.5008 43.0323 67.5008 43.0224C67.5057 42.9629 67.9815 36.9078 64.3495 35.788C62.3179 35.1637 60.871 34.9159 59.8304 34.9159H59.8354Z" fill="black"/>
<path d="M157.005 184.266C157.005 184.266 176.483 191.332 187.394 193.428C198.305 195.529 212.997 199.305 211.317 201.426C209.638 203.546 195.818 206.822 184.456 206.861C149.756 206.975 115.343 205.32 115.343 205.32C93.6599 204.201 81.862 200.341 77.011 187.745C69.4298 168.063 73.6266 139.403 74.5879 135.107C74.5879 135.107 57.9935 126.54 56.9876 113.464C55.9817 100.387 60.0053 87.3111 60.0053 87.3111C60.0053 87.3111 47.9347 47.5766 89.681 33.4944C131.427 19.4122 157.6 39.9558 164.116 64.176C168.664 81.0876 183.767 117.859 153.819 127.526L155.058 136.292C156.321 143.407 156.961 150.622 156.98 157.846L157.005 167.494V184.261V184.266Z" fill="#AA977D"/>
<path d="M180.975 209.76C147.786 209.76 115.538 208.229 115.206 208.214C94.1573 207.129 79.976 203.501 74.3124 188.79C67.3555 170.734 69.8479 145.488 71.3592 136.598C66.6767 133.754 55.0125 125.524 54.1057 113.691C53.2039 101.968 56.1175 90.4472 57.0044 87.2908C56.2959 84.516 54.3981 75.5276 56.3503 65.1517C58.5008 53.7204 65.869 38.4787 88.7613 30.7538C114.389 22.1073 132.044 26.8591 142.34 32.3692C154.386 38.8107 163.34 50.133 166.917 63.4224C167.413 65.2607 168.047 67.3864 168.721 69.636C171.471 78.8326 175.242 91.4283 174.83 102.79C174.355 116.015 168.364 124.974 157.017 129.453L157.919 135.835C159.202 143.08 159.861 150.482 159.876 157.836L159.901 167.483V182.215C165.044 184.023 179.354 188.924 187.946 190.579C193.59 191.664 199.318 193.007 203.669 194.27C211.532 196.55 213.46 198.041 214.134 199.855C214.56 200.999 214.357 202.253 213.594 203.214C210.631 206.955 194.14 209.715 184.473 209.745C183.308 209.745 182.144 209.75 180.98 209.75L180.975 209.76ZM115.598 31.7993C107.789 31.7993 99.3948 33.2809 90.6046 36.244C74.4413 41.6995 64.8383 51.7136 62.0734 66.0188C59.9675 76.91 62.7473 86.3841 62.777 86.4782C62.9405 87.0282 62.9405 87.6179 62.777 88.1679C62.7374 88.2918 58.927 100.902 59.8784 113.25C60.7505 124.587 75.7691 132.466 75.9228 132.54C77.0921 133.145 77.7066 134.458 77.4192 135.741C76.3737 140.424 72.5633 168.127 79.7184 186.704C83.7468 197.154 93.1069 201.272 115.499 202.426C115.831 202.441 150.229 204.066 184.453 203.962C192.406 203.937 200.805 202.322 205.542 200.92C201.632 199.577 194.943 197.823 186.851 196.267C175.841 194.151 156.824 187.274 156.021 186.981C154.876 186.565 154.113 185.48 154.113 184.261V167.493L154.089 157.851C154.074 150.81 153.439 143.729 152.211 136.797C152.206 136.762 152.201 136.727 152.196 136.698L150.957 127.932C150.759 126.54 151.596 125.207 152.934 124.771C163.359 121.406 168.632 114.147 169.048 102.582C169.424 92.1765 165.812 80.106 163.176 71.296C162.492 69.0018 161.843 66.8364 161.328 64.9238C158.167 53.1704 150.248 43.1612 139.61 37.4679C132.539 33.6822 124.443 31.7894 115.603 31.7894L115.598 31.7993Z" fill="black"/>
<path d="M142.054 171.602C142.183 158.169 139.309 136.228 139.309 136.228C139.309 136.228 136.46 102.767 110.704 100.785C81.0332 98.5005 74.5915 135.108 74.5915 135.108C74.5915 135.108 73.8781 139.365 73.3974 144.548C72.3024 155.677 71.8167 173.926 77.1433 187.746C81.9745 200.292 93.7081 204.172 115.243 205.306C115.431 205.306 115.624 205.306 115.808 205.321C115.808 205.321 115.817 205.331 115.817 205.336C117.681 205.425 127.12 205.851 140.29 206.233C140.791 199.737 141.945 183.544 142.059 171.607L142.054 171.602Z" fill="white"/>
<path d="M140.292 209.125C140.262 209.125 140.238 209.125 140.208 209.125C126.884 208.739 117.444 208.313 115.685 208.229C115.601 208.229 115.517 208.219 115.433 208.204C115.413 208.204 115.393 208.204 115.373 208.204H115.185C115.155 208.204 115.125 208.204 115.091 208.199C94.1904 207.099 80.0983 203.467 74.4446 188.79C68.6918 173.855 69.5143 154.486 70.5202 144.269C71.0058 139.056 71.7094 134.815 71.7391 134.636C71.8134 134.215 73.5081 124.825 79.0429 115.609C86.6042 103.003 97.6293 96.8839 110.929 97.9046C122.573 98.8015 131.69 105.768 137.299 118.052C141.244 126.693 142.101 134.998 142.19 135.915C142.388 137.441 145.084 158.371 144.955 171.631C144.841 183.666 143.676 199.993 143.181 206.455C143.067 207.966 141.803 209.125 140.297 209.125H140.292ZM116.235 202.456C118.386 202.555 126.378 202.912 137.606 203.254C138.156 195.722 139.058 181.987 139.162 171.571C139.286 158.5 136.467 136.817 136.437 136.599C136.432 136.554 136.427 136.514 136.422 136.47C136.417 136.39 135.679 128.378 131.968 120.316C127.216 110.005 119.986 104.401 110.478 103.672C99.4031 102.82 90.5238 107.79 84.0772 118.448C79.0578 126.753 77.4523 135.528 77.4374 135.612C77.4374 135.627 76.7388 139.804 76.2731 144.814C75.3167 154.536 74.514 172.884 79.8357 186.704C83.8493 197.124 93.1399 201.237 115.334 202.411H115.443C115.611 202.411 115.784 202.416 115.948 202.426C116.042 202.431 116.136 202.441 116.226 202.456H116.235Z" fill="black"/>
<path d="M103.22 90.9249C102.333 90.4096 101.209 90.7019 100.54 91.4749C99.9797 92.1191 99.5386 93.0506 100.321 94.0268C101.848 95.9245 104.236 93.8236 104.236 92.8078C104.236 92.1488 103.973 91.356 103.22 90.92V90.9249Z" fill="black"/>
<path d="M101.803 96.0317C100.871 96.0317 100.004 95.6055 99.36 94.8078C98.3491 93.5541 98.4433 92.0032 99.6077 90.6654C100.703 89.4068 102.487 89.0649 103.849 89.8527C104.87 90.4473 105.479 91.5523 105.479 92.8109C105.479 93.9803 104.325 95.338 102.913 95.8335C102.541 95.9623 102.169 96.0267 101.808 96.0267L101.803 96.0317ZM102.254 91.9041C101.961 91.9041 101.664 92.0726 101.471 92.2906C100.97 92.8654 101.139 93.0735 101.283 93.2568C101.545 93.5839 101.748 93.5789 101.917 93.5492C102.417 93.455 102.883 92.9695 102.987 92.7465C102.977 92.5433 102.908 92.1866 102.591 92.0032C102.482 91.9388 102.363 91.914 102.244 91.914L102.254 91.9041Z" fill="black"/>
<path d="M121.365 90.9249C120.478 90.4096 119.353 90.7019 118.684 91.4749C118.124 92.1191 117.683 93.0506 118.466 94.0268C119.992 95.9245 122.38 93.8236 122.38 92.8078C122.38 92.1488 122.118 91.356 121.365 90.92V90.9249Z" fill="black"/>
<path d="M119.945 96.0336C119.014 96.0336 118.147 95.6075 117.503 94.8097C116.492 93.5561 116.586 92.0052 117.75 90.6673C118.845 89.4087 120.629 89.0668 121.992 89.8547C123.012 90.4493 123.622 91.5543 123.622 92.8128C123.622 93.9822 122.467 95.3399 121.055 95.8354C120.684 95.9643 120.312 96.0287 119.95 96.0287L119.945 96.0336ZM120.396 91.9061C120.104 91.9061 119.807 92.0745 119.618 92.2926C119.118 92.8674 119.286 93.0755 119.43 93.2588C119.693 93.5858 119.896 93.5809 120.064 93.5511C120.565 93.457 121.03 92.9714 121.135 92.7484C121.125 92.5453 121.055 92.1885 120.738 92.0052C120.629 91.9408 120.51 91.916 120.391 91.916L120.396 91.9061Z" fill="black"/>
<path d="M111.272 118.42C109.261 118.42 107.561 116.761 105.406 112.683C105.039 111.989 105.064 111.161 105.465 110.487C105.866 109.818 106.595 109.407 107.373 109.407H113.111C113.715 109.407 114.29 109.65 114.711 110.086C115.132 110.522 115.355 111.107 115.34 111.706C115.207 115.968 113.725 118.415 111.267 118.415L111.272 118.42Z" fill="#EF9178"/>
<path d="M113.111 111.64C113.111 111.64 112.967 116.189 111.268 116.189C110.416 116.189 109.177 115.054 107.373 111.64H113.111ZM113.111 107.181H107.373C105.807 107.181 104.36 107.998 103.553 109.341C102.745 110.679 102.701 112.344 103.429 113.726C105.242 117.15 107.586 120.649 111.263 120.649C112.353 120.649 116.01 120.232 117.179 114.866C117.506 113.37 117.561 111.938 117.566 111.779C117.605 110.575 117.149 109.401 116.312 108.533C115.47 107.666 114.315 107.176 113.111 107.176V107.181Z" fill="black"/>
<path d="M152.07 99.0006C152.07 99.0006 170.325 96.0623 178.932 96.8997Z" fill="#FFEEC7"/>
<path d="M152.064 102.221C150.508 102.221 149.141 101.096 148.888 99.5105C148.606 97.7564 149.8 96.1014 151.554 95.819C152.317 95.6951 170.319 92.8261 179.243 93.6933C181.012 93.8667 182.31 95.4424 182.136 97.2114C181.963 98.9803 180.387 100.279 178.618 100.105C170.517 99.3123 152.758 102.147 152.58 102.176C152.406 102.206 152.233 102.216 152.064 102.216V102.221Z" fill="black"/>
<path d="M153.823 106.612C153.823 106.612 169.843 105.329 179.282 109.902Z" fill="#FFEEC7"/>
<path d="M179.278 113.127C178.807 113.127 178.327 113.023 177.876 112.805C169.348 108.673 154.23 109.812 154.077 109.827C152.298 109.961 150.752 108.643 150.613 106.874C150.47 105.1 151.793 103.549 153.567 103.405C154.255 103.351 170.577 102.107 180.685 107.008C182.286 107.786 182.955 109.708 182.177 111.309C181.622 112.458 180.472 113.127 179.278 113.127Z" fill="black"/>
<path d="M66.9583 100.791C66.9583 100.791 48.6295 103.199 40.6172 106.469Z" fill="#FFEEC7"/>
<path d="M40.6226 109.689C39.3541 109.689 38.15 108.931 37.6397 107.682C36.9658 106.037 37.7586 104.154 39.4037 103.485C47.7034 100.101 65.7744 97.6974 66.5375 97.5983C68.3015 97.3655 69.9169 98.6092 70.1498 100.373C70.3826 102.137 69.1389 103.753 67.3749 103.985C67.1965 104.01 49.3634 106.379 41.8317 109.451C41.4353 109.614 41.019 109.689 40.6177 109.689H40.6226Z" fill="black"/>
<path d="M67.462 108.585C67.462 108.585 51.7446 111.94 44.0098 119.025Z" fill="#FFEEC7"/>
<path d="M44.0173 122.247C43.1452 122.247 42.2781 121.895 41.6438 121.201C40.4398 119.888 40.5289 117.852 41.842 116.653C50.1268 109.061 66.1217 105.583 66.7956 105.439C68.5348 105.068 70.2443 106.178 70.6159 107.917C70.9876 109.656 69.8776 111.366 68.1384 111.737C67.9402 111.782 53.1643 115.013 46.1925 121.405C45.5731 121.969 44.7953 122.252 44.0173 122.252V122.247Z" fill="black"/>
</svg>
