<?xml version="1.0" encoding="UTF-8"?>
<!DOCTYPE svg PUBLIC "-//W3C//DTD SVG 1.1//EN" "http://www.w3.org/Graphics/SVG/1.1/DTD/svg11.dtd">
<svg xmlns="http://www.w3.org/2000/svg" version="1.1" width="765px" height="765px" style="shape-rendering:geometricPrecision; text-rendering:geometricPrecision; image-rendering:optimizeQuality; fill-rule:evenodd; clip-rule:evenodd" xmlns:xlink="http://www.w3.org/1999/xlink">
<g><path style="opacity:0.98" fill="#010101" d="M 404.5,632.5 C 402.802,644.064 397.802,653.897 389.5,662C 387.913,662.862 386.246,663.529 384.5,664C 352.5,664.667 320.5,664.667 288.5,664C 277.688,659.006 272.354,650.506 272.5,638.5C 272.927,628.886 277.594,622.052 286.5,618C 248.315,609.149 224.815,585.649 216,547.5C 208.874,514.195 206.541,480.529 209,446.5C 209.764,435.126 210.93,423.792 212.5,412.5C 212.167,411.167 211.833,409.833 211.5,408.5C 193.857,398.024 179.691,384.024 169,366.5C 166.402,361.143 164.236,355.643 162.5,350C 152.53,353.493 143.53,358.826 135.5,366C 122.678,366.838 118.844,361.338 124,349.5C 134.618,340.436 146.452,333.269 159.5,328C 160.167,325 160.833,322 161.5,319C 147.741,321.315 134.241,324.815 121,329.5C 111.128,326.133 108.962,319.966 114.5,311C 129.673,304.956 145.339,300.623 161.5,298C 164.466,286.015 167.132,273.849 169.5,261.5C 162.728,230.615 164.561,200.281 175,170.5C 178.053,162.725 181.887,155.392 186.5,148.5C 175.169,142.002 166.336,133.002 160,121.5C 155.813,99.3514 164.979,89.8514 187.5,93C 202.546,95.0461 211.379,103.546 214,118.5C 234.612,103.28 257.445,92.4468 282.5,86C 317.869,76.3497 353.536,75.0163 389.5,82C 408.565,86.4512 426.065,94.2845 442,105.5C 444.217,89.95 453.05,81.1166 468.5,79C 490.05,75.1525 499.883,83.9859 498,105.5C 492.92,118.247 484.087,127.414 471.5,133C 482.682,146.185 491.182,161.019 497,177.5C 506.427,206.782 514.427,236.449 521,266.5C 521.923,270.79 522.423,275.123 522.5,279.5C 528.565,279.261 534.565,279.761 540.5,281C 547.977,286.549 548.31,292.549 541.5,299C 539.419,299.869 537.253,300.369 535,300.5C 531.527,299.837 528.027,299.504 524.5,299.5C 524.5,304.5 524.5,309.5 524.5,314.5C 531.191,315.564 537.524,317.731 543.5,321C 550.198,329.967 548.198,336.134 537.5,339.5C 531.843,337.921 526.343,335.921 521,333.5C 513.326,359.671 496.826,377.671 471.5,387.5C 474.701,409.077 477.201,430.744 479,452.5C 479.333,483.5 479.667,514.5 480,545.5C 519.113,560.313 559.28,571.48 600.5,579C 609.288,581.262 617.954,583.929 626.5,587C 632.659,589.154 637.826,592.654 642,597.5C 643.472,603.076 642.305,607.909 638.5,612C 632.512,615.494 626.179,618.161 619.5,620C 590.789,627.264 561.623,630.431 532,629.5C 489.804,629.02 447.638,628.02 405.5,626.5C 405.675,628.621 405.341,630.621 404.5,632.5 Z"/></g>
<g><path style="opacity:1" fill="#a6937a" d="M 468.5,90.5 C 473.628,90.1115 478.628,90.6115 483.5,92C 486.394,94.9087 487.227,98.4087 486,102.5C 484.318,106.852 481.818,110.686 478.5,114C 473.662,117.922 468.329,121.089 462.5,123.5C 454.823,118.922 452.323,112.255 455,103.5C 456.793,96.2046 461.293,91.8713 468.5,90.5 Z"/></g>
<g><path style="opacity:1" fill="#a9967c" d="M 452.5,610.5 C 445.352,609.508 438.019,609.175 430.5,609.5C 430.5,606.833 430.5,604.167 430.5,601.5C 432.665,571.044 433.999,540.544 434.5,510C 433.6,467.498 429.433,425.332 422,383.5C 416.269,359.369 405.269,338.036 389,319.5C 358.904,292.508 324.737,286.008 286.5,300C 263.797,311.368 246.297,328.202 234,350.5C 227.456,363.673 221.622,377.006 216.5,390.5C 202.042,381.542 190.875,369.542 183,354.5C 181.732,350.864 180.566,347.197 179.5,343.5C 179.818,342.353 180.484,341.519 181.5,341C 190.178,338.329 198.844,335.663 207.5,333C 212.366,328.281 212.699,323.281 208.5,318C 206.487,316.743 204.321,315.909 202,315.5C 193.995,316.96 186.161,318.96 178.5,321.5C 178.5,319.167 178.5,316.833 178.5,314.5C 186.824,313.335 195.157,312.168 203.5,311C 209.169,308.185 211.002,303.685 209,297.5C 207.833,295.667 206.333,294.167 204.5,293C 196.765,292.45 189.098,292.95 181.5,294.5C 182.801,283.127 185.135,271.96 188.5,261C 176.802,220.194 183.302,182.694 208,148.5C 223.874,130.809 243.041,117.975 265.5,110C 304.166,95.0363 343.833,91.3697 384.5,99C 430.458,110.722 462.292,138.555 480,182.5C 490.854,214.918 499.354,247.918 505.5,281.5C 488.034,282.016 470.7,283.85 453.5,287C 446.518,290.213 444.685,295.38 448,302.5C 450.261,304.63 452.928,305.964 456,306.5C 472.673,303.147 489.506,301.147 506.5,300.5C 506.5,303.833 506.5,307.167 506.5,310.5C 490.179,309.484 473.846,309.317 457.5,310C 449.908,315.508 449.575,321.508 456.5,328C 471.526,328.191 486.526,328.858 501.5,330C 502.022,330.561 502.355,331.228 502.5,332C 494.537,354.625 478.87,368.959 455.5,375C 454.789,376.255 453.956,377.421 453,378.5C 455.55,401.476 458.216,424.476 461,447.5C 461.019,483.893 461.686,520.227 463,556.5C 465.12,559.43 467.953,561.263 471.5,562C 487.5,567.333 503.5,572.667 519.5,578C 551.599,585.573 583.599,593.573 615.5,602C 598.566,607.118 581.232,610.118 563.5,611C 526.494,611.704 489.494,611.538 452.5,610.5 Z"/></g>
<g><path style="opacity:1" fill="#a6937a" d="M 174.5,104.5 C 194.642,101.813 203.809,110.479 202,130.5C 199.833,132.667 197.667,134.833 195.5,137C 185.855,134.724 178.355,129.224 173,120.5C 169.249,114.54 169.749,109.206 174.5,104.5 Z"/></g>
<g><path style="opacity:1" fill="#060504" d="M 303.5,267.5 C 313.024,267.522 316.858,272.189 315,281.5C 309.557,288.412 303.557,289.079 297,283.5C 294.203,276.136 296.37,270.802 303.5,267.5 Z"/></g>
<g><path style="opacity:1" fill="#060504" d="M 357.5,267.5 C 368.632,268.098 372.132,273.432 368,283.5C 360.815,289.525 354.815,288.525 350,280.5C 349.448,277.581 350.115,274.914 352,272.5C 353.812,270.7 355.645,269.033 357.5,267.5 Z"/></g>
<g><path style="opacity:1" fill="#fefefe" d="M 310.5,310.5 C 345.36,306.848 371.86,319.848 390,349.5C 398.787,365.862 404.787,383.195 408,401.5C 417.718,470.637 419.218,539.971 412.5,609.5C 384.825,608.551 357.159,607.385 329.5,606C 309.914,604.681 290.914,600.681 272.5,594C 255.513,587.013 244.013,574.846 238,557.5C 229.14,529.03 225.306,499.863 226.5,470C 226.309,452.077 227.476,434.244 230,416.5C 234.694,382.614 248.861,353.447 272.5,329C 283.792,319.853 296.459,313.687 310.5,310.5 Z"/></g>
<g><path style="opacity:1" fill="#060505" d="M 316.5,321.5 C 325.506,321.334 334.506,321.5 343.5,322C 348.827,324.485 351.827,328.652 352.5,334.5C 352.337,343.498 349.337,351.332 343.5,358C 333.102,363.927 324.269,362.093 317,352.5C 312.786,347.075 309.952,341.075 308.5,334.5C 308.697,328.638 311.364,324.305 316.5,321.5 Z"/></g>
<g><path style="opacity:1" fill="#e98d75" d="M 322.5,334.5 C 327.833,334.5 333.167,334.5 338.5,334.5C 338.926,339.032 337.926,343.199 335.5,347C 331.74,348.176 328.907,347.01 327,343.5C 324.94,340.714 323.44,337.714 322.5,334.5 Z"/></g>
<g><path style="opacity:1" fill="#574d40" d="M 430.5,601.5 C 430.5,604.167 430.5,606.833 430.5,609.5C 438.019,609.175 445.352,609.508 452.5,610.5C 444.833,610.5 437.167,610.5 429.5,610.5C 429.19,607.287 429.523,604.287 430.5,601.5 Z"/></g>
<g><path style="opacity:1" fill="#a59279" d="M 319.5,622.5 C 322.941,622.301 326.274,622.801 329.5,624C 324.002,630.093 322.002,637.259 323.5,645.5C 313.494,645.666 303.494,645.5 293.5,645C 290.206,639.902 291.539,636.568 297.5,635C 303.58,634.261 309.58,633.261 315.5,632C 318.288,629.477 319.621,626.31 319.5,622.5 Z"/></g>
<g><path style="opacity:1" fill="#a6937a" d="M 369.5,625.5 C 374.833,625.5 380.167,625.5 385.5,625.5C 385.122,632.516 383.122,639.016 379.5,645C 367.833,645.667 356.167,645.667 344.5,645C 341.53,641.556 341.863,638.556 345.5,636C 352.472,634.369 359.472,633.036 366.5,632C 368.451,630.266 369.451,628.099 369.5,625.5 Z"/></g>
<g><path style="opacity:0.986" fill="#d8d8d8" d="M 404.5,632.5 C 448.792,632.358 492.792,635.858 536.5,643C 554.645,645.493 571.645,651.159 587.5,660C 591.5,664.667 591.5,669.333 587.5,674C 577.601,680.081 566.934,684.414 555.5,687C 515.921,695.176 475.921,699.842 435.5,701C 369.818,704.116 304.484,700.783 239.5,691C 221.355,688.507 204.355,682.841 188.5,674C 185.197,670.205 184.697,666.038 187,661.5C 197.08,654.355 208.247,649.522 220.5,647C 237.647,642.975 254.981,640.142 272.5,638.5C 272.354,650.506 277.688,659.006 288.5,664C 320.5,664.667 352.5,664.667 384.5,664C 386.246,663.529 387.913,662.862 389.5,662C 397.802,653.897 402.802,644.064 404.5,632.5 Z"/></g>
</svg>
