<?xml version="1.0" encoding="UTF-8"?>
<!DOCTYPE svg PUBLIC "-//W3C//DTD SVG 1.1//EN" "http://www.w3.org/Graphics/SVG/1.1/DTD/svg11.dtd">
<svg xmlns="http://www.w3.org/2000/svg" version="1.1" width="765px" height="765px" style="shape-rendering:geometricPrecision; text-rendering:geometricPrecision; image-rendering:optimizeQuality; fill-rule:evenodd; clip-rule:evenodd" xmlns:xlink="http://www.w3.org/1999/xlink">
<g><path style="opacity:0.989" fill="#000000" d="M 436.5,633.5 C 434.596,641.704 431.763,649.704 428,657.5C 425.359,662.144 421.525,665.311 416.5,667C 384.5,667.667 352.5,667.667 320.5,667C 312.261,664.427 307.095,658.927 305,650.5C 304.501,645.511 304.334,640.511 304.5,635.5C 307.417,627.42 313.084,622.253 321.5,620C 275.956,612.789 250.456,586.289 245,540.5C 240.808,502.828 242.974,465.495 251.5,428.5C 240.568,423.865 229.901,418.365 219.5,412C 197.326,392.161 184.159,367.328 180,337.5C 174.372,306.5 175.705,275.833 184,245.5C 193.369,225.79 206.202,208.624 222.5,194C 197.256,176.274 189.089,152.441 198,122.5C 210.209,94.6258 231.709,81.2925 262.5,82.5C 285.455,81.6457 304.622,89.6457 320,106.5C 329.601,122.019 332.101,138.686 327.5,156.5C 340.451,155.017 353.451,154.351 366.5,154.5C 361.433,129.871 367.767,108.704 385.5,91C 399.271,80.8459 414.771,76.3459 432,77.5C 467.785,76.6273 489.451,93.6273 497,128.5C 499.249,139.588 498.916,150.588 496,161.5C 494.266,165.57 492.1,169.403 489.5,173C 508.547,184.046 522.713,199.546 532,219.5C 549.054,259.103 556.721,300.436 555,343.5C 553.617,362.662 546.95,379.662 535,394.5C 525.964,405.213 515.464,414.047 503.5,421C 509.953,438.646 514.286,456.813 516.5,475.5C 530.323,472.565 542.989,475.065 554.5,483C 565.833,492.32 574,503.82 579,517.5C 580.291,525.498 579.291,533.164 576,540.5C 566.824,554.861 553.991,563.861 537.5,567.5C 529.51,566.615 522.176,563.948 515.5,559.5C 507.156,582.679 491.489,598.846 468.5,608C 458.841,612.276 448.841,615.442 438.5,617.5C 438.483,622.93 437.817,628.263 436.5,633.5 Z"/></g>
<g><path style="opacity:1" fill="#fefefe" d="M 339.5,174.5 C 355.524,174.275 371.524,174.775 387.5,176C 413.635,183.423 440.301,186.756 467.5,186C 488.969,193.135 504.469,206.969 514,227.5C 530.294,265.189 537.294,304.523 535,345.5C 531.613,367.565 520.779,385.065 502.5,398C 495.337,403.582 487.337,407.582 478.5,410C 468.887,411.991 459.22,413.658 449.5,415C 385.265,418.732 321.265,416.398 257.5,408C 231.633,401.134 214.466,384.967 206,359.5C 196.629,330.465 193.962,300.799 198,270.5C 199.152,260.044 202.485,250.377 208,241.5C 218.305,226.184 230.472,212.351 244.5,200C 270.137,197.926 294.137,190.592 316.5,178C 324.288,176.714 331.955,175.548 339.5,174.5 Z"/></g>
<g><path style="opacity:1" fill="#030303" d="M 320.5,246.5 C 343.193,245.357 353.359,256.024 351,278.5C 339.707,302.395 320.873,313.895 294.5,313C 279.025,308.883 273.192,299.05 277,283.5C 285.858,264.471 300.358,252.138 320.5,246.5 Z"/></g>
<g><path style="opacity:1" fill="#030303" d="M 375.5,247.5 C 402.118,246.218 421.618,257.218 434,280.5C 438.758,297.156 432.925,307.989 416.5,313C 397.043,314.023 380.876,307.19 368,292.5C 361.288,283.616 358.621,273.616 360,262.5C 362.969,255.122 368.135,250.122 375.5,247.5 Z"/></g>
<g><path style="opacity:1" fill="#f7f7f7" d="M 322.5,264.5 C 332.876,263.706 337.043,268.373 335,278.5C 326.242,287.449 319.742,286.116 315.5,274.5C 316.288,270.052 318.621,266.718 322.5,264.5 Z"/></g>
<g><path style="opacity:1" fill="#f6f6f6" d="M 376.5,264.5 C 385.998,263.173 390.498,267.173 390,276.5C 384.853,285.531 378.52,286.531 371,279.5C 369.087,272.97 370.92,267.97 376.5,264.5 Z"/></g>
<g><path style="opacity:1" fill="#050404" d="M 337.5,317.5 C 345.507,317.334 353.507,317.5 361.5,318C 368.294,319.96 371.961,324.46 372.5,331.5C 372.667,342.426 368.334,350.926 359.5,357C 353.903,358.091 348.57,357.424 343.5,355C 337.057,349.273 332.224,342.44 329,334.5C 327.684,326.676 330.517,321.009 337.5,317.5 Z"/></g>
<g><path style="opacity:1" fill="#683f34" d="M 358.5,334.5 C 358.5,333.5 358.5,332.5 358.5,331.5C 352.974,331.179 347.64,331.512 342.5,332.5C 341.957,332.44 341.624,332.107 341.5,331.5C 347.463,330.504 353.463,330.171 359.5,330.5C 359.768,332.099 359.434,333.432 358.5,334.5 Z"/></g>
<g><path style="opacity:1" fill="#e78c74" d="M 358.5,334.5 C 358.162,336.854 357.662,339.187 357,341.5C 354.269,345.274 351.269,345.274 348,341.5C 346.156,338.472 344.322,335.472 342.5,332.5C 347.64,331.512 352.974,331.179 358.5,331.5C 358.5,332.5 358.5,333.5 358.5,334.5 Z"/></g>
<g><path style="opacity:1" fill="#fdfdfd" d="M 497.5,490.5 C 498.831,497.803 499.498,505.47 499.5,513.5C 500.358,528.428 498.858,543.095 495,557.5C 489.614,570.219 480.781,579.719 468.5,586C 439.597,599.846 409.097,605.68 377,603.5C 354.534,604.339 332.367,602.172 310.5,597C 286.685,590.186 272.185,574.686 267,550.5C 262.598,531.042 261.431,511.375 263.5,491.5C 326.751,507.604 390.751,511.437 455.5,503C 464.162,501.001 472.828,499.001 481.5,497C 487.054,495.1 492.387,492.934 497.5,490.5 Z"/></g>
<g><path style="opacity:0.985" fill="#d8d8d8" d="M 436.5,633.5 C 473.49,634.232 510.157,638.066 546.5,645C 557.807,647.324 568.807,650.658 579.5,655C 582.927,656.796 586.094,658.963 589,661.5C 591,665.167 591,668.833 589,672.5C 583.313,677.428 576.813,680.928 569.5,683C 544.297,690.145 518.63,694.812 492.5,697C 426.196,702.596 359.863,702.929 293.5,698C 268.909,696.011 244.576,692.344 220.5,687C 208.235,684.475 197.068,679.642 187,672.5C 185,668.833 185,665.167 187,661.5C 195.841,654.999 205.674,650.499 216.5,648C 245.458,641.173 274.791,637.006 304.5,635.5C 304.334,640.511 304.501,645.511 305,650.5C 307.095,658.927 312.261,664.427 320.5,667C 352.5,667.667 384.5,667.667 416.5,667C 421.525,665.311 425.359,662.144 428,657.5C 431.763,649.704 434.596,641.704 436.5,633.5 Z"/></g>
</svg>
