<svg width="255" height="255" viewBox="0 0 255 255" fill="none" xmlns="http://www.w3.org/2000/svg">
<ellipse cx="129.5" cy="222.5" rx="67.5" ry="11.5" fill="#D9D9D9"/>
<path d="M130.077 189.203C129.844 191.636 131.123 219.602 123.467 219.602H108.686C108.686 219.602 104.742 219.369 104.742 214.151C104.742 208.934 113.869 209.28 113.869 209.28L112.046 185.283" fill="black"/>
<path d="M123.467 222.822H108.686C108.622 222.822 108.562 222.822 108.498 222.817C105.693 222.653 101.526 220.211 101.526 214.151C101.526 212.203 102.265 210.459 103.662 209.111C105.515 207.327 108.211 206.574 110.411 206.262L108.835 185.53C108.701 183.756 110.029 182.21 111.803 182.077C113.577 181.948 115.123 183.271 115.257 185.045L117.08 209.042C117.15 209.959 116.827 210.86 116.188 211.519C115.549 212.178 114.662 212.535 113.745 212.505C111.991 212.451 109.063 212.852 108.121 213.759C107.998 213.883 107.958 213.947 107.958 214.155C107.958 215.072 108.126 216.187 108.914 216.385H123.388C123.651 216.182 125.256 214.651 126.168 206.708C126.797 201.223 126.807 195.074 126.812 191.764C126.812 190.128 126.817 189.39 126.866 188.9C127.035 187.131 128.606 185.832 130.38 186.001C132.149 186.169 133.447 187.74 133.283 189.509C133.263 189.772 133.263 190.837 133.258 191.778C133.234 207.907 132.03 222.832 123.467 222.832V222.822Z" fill="black"/>
<path d="M143.658 189.203C143.425 191.636 144.704 219.602 137.048 219.602H125.572C125.572 219.602 121.628 219.369 121.628 214.151C121.628 208.934 130.755 209.28 130.755 209.28L128.932 185.283" fill="black"/>
<path d="M137.053 222.822H125.577C125.513 222.822 125.453 222.822 125.389 222.817C122.584 222.653 118.417 220.211 118.417 214.151C118.417 212.203 119.155 210.459 120.553 209.111C122.406 207.327 125.101 206.574 127.301 206.262L125.726 185.53C125.592 183.756 126.92 182.21 128.694 182.077C130.468 181.948 132.014 183.271 132.148 185.045L133.971 209.042C134.04 209.959 133.718 210.86 133.079 211.519C132.44 212.178 131.553 212.535 130.636 212.505C128.882 212.451 125.954 212.852 125.012 213.759C124.888 213.883 124.849 213.947 124.849 214.155C124.849 215.072 125.017 216.187 125.805 216.385H136.974C137.236 216.182 138.842 214.651 139.753 206.708C140.383 201.223 140.393 195.074 140.398 191.764C140.398 190.128 140.402 189.39 140.452 188.9C140.621 187.131 142.191 185.832 143.965 186.001C145.734 186.169 147.032 187.74 146.869 189.509C146.849 189.772 146.849 190.837 146.844 191.778C146.819 207.907 145.615 222.832 137.053 222.832V222.822Z" fill="black"/>
<path d="M166.283 165.16C166.283 165.16 176.862 158.02 183.373 164.317C189.884 170.615 192.362 175.689 187.664 180.585C182.972 185.48 178.279 190.376 167.874 178.023L166.278 165.16H166.283Z" fill="black"/>
<path d="M179.316 189.023C179.207 189.023 179.098 189.023 178.984 189.018C174.732 188.88 170.421 186.05 165.412 180.104C165.01 179.629 164.758 179.044 164.678 178.424L163.083 165.561C162.934 164.357 163.474 163.173 164.475 162.494C164.599 162.41 167.587 160.413 171.487 159.288C177.185 157.643 182.066 158.584 185.604 162.008C189.057 165.348 198.224 174.223 189.984 182.82C187.189 185.733 184.033 189.028 179.311 189.028L179.316 189.023ZM170.951 176.665C175.129 181.447 177.73 182.532 179.192 182.577C181.08 182.661 182.779 181.021 185.336 178.355C186.941 176.68 189.141 174.386 181.129 166.631C177.819 163.431 172.443 165.502 169.738 166.884L170.947 176.66L170.951 176.665Z" fill="black"/>
<path d="M160.013 140.177C160.013 140.177 170.969 137.486 178.183 126.184C186.315 113.454 179.957 86.8557 173.982 73.9478C168.006 61.0399 155.623 58.7111 155.623 58.7111C155.623 58.7111 164.299 57.5912 162.803 45.6545C160.796 29.62 149.187 29.0898 143.216 29.2385C139.088 29.3425 129.872 30.0362 126.284 40.7986C122.697 51.556 129.946 55.5547 129.946 55.5547L123.49 55.079C117.033 54.6033 104.854 56.2732 104.854 56.2732C104.864 53.4042 106.578 52.6956 106.578 45.4712C106.578 33.7723 92.9469 29.0353 81.471 31.6665C69.9951 34.2976 67.8545 44.723 68.4144 49.7623C69.7572 61.8327 80.6335 63.6017 80.6335 63.6017C80.6335 63.6017 67.4235 74.5325 64.2522 84.4723C60.9076 94.9522 58.9503 136.124 87.9769 139.632C86.6391 148.179 80.8466 171.483 87.5062 188.766C92.3572 201.357 104.091 204.414 125.838 204.716C142.799 204.949 153.557 201.119 160.246 196.848C165.127 193.731 168.417 188.612 169.235 182.879C171.737 165.264 167.912 150.037 164.384 140.122" fill="white"/>
<path d="M127.316 207.948C126.811 207.948 126.305 207.948 125.795 207.938C103.918 207.635 90.1483 204.593 84.4995 189.926C78.3999 174.09 82.0964 153.992 84.0784 143.19C84.1379 142.868 84.1973 142.556 84.2518 142.254C76.7895 140.559 70.8385 136.322 66.5425 129.628C57.1824 115.045 58.4657 92.0194 61.186 83.4918C63.4653 76.3417 70.1993 68.9785 74.5944 64.732C70.4322 62.3585 66.0718 57.8247 65.2145 50.1146C64.4316 43.0487 67.9199 31.4638 80.7535 28.5255C89.0631 26.6228 98.0467 28.2678 103.631 32.7175C107.669 35.9333 109.8 40.3433 109.8 45.4668C109.8 48.8214 109.453 50.9669 109.057 52.5228C113.085 52.0917 118.897 51.611 123.045 51.8192C121.895 48.7718 121.573 44.7533 123.228 39.7784C126.186 30.9089 132.881 26.2809 143.133 26.0183C146.799 25.9241 151.581 26.1273 156.031 28.5453C161.64 31.5927 164.989 37.2117 165.995 45.2537C166.788 51.616 165.123 55.5751 162.943 58.0278C167.467 60.3517 173.244 64.7023 176.901 72.5956C182.292 84.24 190.364 113.088 180.895 127.919C176.906 134.167 171.882 138.012 167.848 140.296C172.858 154.919 174.394 169.392 172.417 183.331C171.465 190.015 167.66 195.932 161.977 199.559C153.256 205.123 141.597 207.943 127.311 207.943L127.316 207.948ZM87.7203 34.1891C85.882 34.1891 84.014 34.3923 82.1955 34.8085C70.4372 37.504 71.6065 49.2871 71.6214 49.4061C72.6818 58.9346 81.0706 60.4062 81.1549 60.4211C82.4035 60.6243 83.4144 61.536 83.7463 62.7549C84.0783 63.9739 83.6671 65.277 82.691 66.0798C82.5671 66.1838 70.1646 76.5349 67.3204 85.449C65.2195 92.0293 63.5743 113.088 71.9583 126.145C75.7935 132.116 81.3134 135.579 88.3595 136.431C89.2267 136.536 90.0145 136.991 90.5397 137.685C91.0649 138.384 91.2879 139.266 91.1541 140.128C90.9708 141.307 90.7082 142.719 90.4109 144.355C88.5428 154.527 85.0595 173.465 90.5051 187.607C94.3849 197.681 103.309 201.184 125.879 201.496C139.59 201.679 150.56 199.207 158.513 194.133C162.616 191.517 165.356 187.25 166.045 182.429C167.853 169.685 166.481 156.415 161.957 142.957C161.283 143.18 160.867 143.284 160.782 143.309C159.053 143.735 157.309 142.68 156.888 140.95C156.467 139.226 157.517 137.487 159.236 137.056C159.41 137.011 169.117 134.41 175.474 124.455C182.411 113.589 177.372 88.9275 171.064 75.3061C165.896 64.1473 155.461 61.9671 155.02 61.8779C153.474 61.5707 152.364 60.1882 152.418 58.6076C152.473 57.0467 153.627 55.7485 155.173 55.5255C156.115 55.367 160.634 54.1778 159.618 46.0564C158.082 33.7531 150.506 32.2864 143.306 32.4598C138.217 32.5886 132.033 33.7679 129.348 41.8149C126.791 49.4903 130.923 52.3692 131.528 52.7408C132.881 53.4395 133.515 54.9706 133.104 56.4422C132.692 57.9188 131.245 58.8751 129.714 58.7612L123.258 58.2855C117.213 57.8395 105.415 59.445 105.301 59.4598C104.374 59.5887 103.443 59.3062 102.739 58.6918C102.035 58.0774 101.634 57.1904 101.639 56.2539C101.644 54.6435 102.016 53.5088 102.372 52.4138C102.838 50.9966 103.363 49.3912 103.363 45.4618C103.363 42.3253 102.105 39.7289 99.6223 37.7468C96.7286 35.4427 92.3235 34.1792 87.7203 34.1792V34.1891Z" fill="black"/>
<path d="M129.654 55.5567C129.654 55.5567 122.404 51.558 125.992 40.8006C129.579 30.0432 138.796 29.3495 142.923 29.2405C148.894 29.0918 160.504 29.6171 162.511 45.6565C164.002 57.5932 155.331 58.7131 155.331 58.7131H149.261C144.137 58.7131 139.034 58.0491 134.084 56.7311L129.654 55.5518V55.5567Z" fill="black"/>
<path d="M155.33 61.9374H149.26C143.859 61.9374 138.473 61.2337 133.255 59.8463L128.825 58.667C128.573 58.5977 128.325 58.5035 128.097 58.3747C124.777 56.5413 119.431 50.3029 122.939 39.7784C125.897 30.9089 132.591 26.2809 142.843 26.0183C146.51 25.9241 151.292 26.1273 155.741 28.5453C161.35 31.5927 164.7 37.2117 165.706 45.2537C167.574 60.2031 155.86 61.8928 155.741 61.9076C155.602 61.9274 155.469 61.9324 155.33 61.9324V61.9374ZM130.976 52.5773L134.91 53.6228C139.588 54.8665 144.419 55.4958 149.26 55.4958H155.043C156.257 55.2332 160.28 53.7714 159.319 46.0564C157.783 33.7531 150.206 32.2864 143.007 32.4598C137.918 32.5886 131.734 33.7679 129.048 41.8149C126.729 48.7768 129.911 51.7944 130.976 52.5723V52.5773Z" fill="black"/>
<path d="M80.6397 63.6022C80.6397 63.6022 69.7635 61.8333 68.4207 49.7628C67.8607 44.7285 70.0014 34.2981 81.4772 31.667C92.9531 29.0358 106.584 33.7729 106.584 45.4717C106.584 52.6962 104.87 53.4047 104.86 56.2737L101.733 57.9039C95.7527 61.0256 89.207 62.9085 82.483 63.4536L80.6397 63.6022Z" fill="black"/>
<path d="M80.6373 66.8219C80.4639 66.8219 80.2904 66.807 80.122 66.7823C75.5237 66.034 66.4957 61.5894 65.2173 50.1185C64.4344 43.0526 67.9227 31.4677 80.7562 28.5293C89.0658 26.6266 98.0494 28.2717 103.634 32.7213C107.672 35.9371 109.803 40.3471 109.803 45.4706C109.803 50.5941 109.045 52.7397 108.495 54.4244C108.202 55.3213 108.083 55.7077 108.078 56.2875C108.073 57.4816 107.409 58.5767 106.349 59.1317L103.222 60.7619C96.8255 64.1016 89.933 66.0836 82.7383 66.6633L80.895 66.812C80.8108 66.8169 80.7216 66.8219 80.6373 66.8219ZM87.7231 34.188C85.8847 34.188 84.0167 34.3912 82.1982 34.8074C70.4399 37.5029 71.6093 49.286 71.6241 49.4049C72.0602 53.3392 73.7499 56.3717 76.6486 58.4082C78.4176 59.652 80.1568 60.1772 80.8604 60.3556L82.2328 60.2466C88.5604 59.7362 94.6254 57.992 100.254 55.0537L101.875 54.2064C102.013 53.5622 102.202 52.9874 102.385 52.4226C102.851 51.0054 103.376 49.4 103.376 45.4706C103.376 42.3341 102.117 39.7376 99.635 37.7556C96.7412 35.4515 92.3362 34.188 87.733 34.188H87.7231Z" fill="black"/>
<path d="M117.952 117.272C115.94 117.272 114.241 115.613 112.085 111.535C111.719 110.841 111.743 110.013 112.145 109.339C112.546 108.671 113.275 108.259 114.053 108.259H119.79C120.395 108.259 120.97 108.502 121.391 108.938C121.812 109.374 122.035 109.959 122.02 110.558C121.886 114.82 120.405 117.268 117.947 117.268L117.952 117.272Z" fill="#EF9178"/>
<path d="M119.797 110.495C119.797 110.495 119.653 115.043 117.953 115.043C117.101 115.043 115.862 113.909 114.059 110.495H119.797ZM119.797 106.035H114.059C112.493 106.035 111.046 106.853 110.238 108.196C109.431 109.533 109.386 111.198 110.114 112.581C111.928 116.005 114.272 119.503 117.948 119.503C119.039 119.503 122.69 119.087 123.865 113.72C124.192 112.224 124.246 110.792 124.251 110.634C124.291 109.429 123.835 108.255 122.998 107.388C122.155 106.521 121.001 106.03 119.797 106.03V106.035Z" fill="black"/>
<path d="M106.47 85.4131C102.268 86.5181 98.4428 89.4366 96.3865 92.8507C94.558 95.8831 93.4382 99.6192 97.4072 101.319C104.666 104.426 112.609 96.7949 114.438 92.9151C115.666 90.3087 114.824 83.2131 106.47 85.4131Z" fill="black"/>
<path d="M100.995 104.699C99.4643 104.699 97.9083 104.412 96.3673 103.753C93.8155 102.658 92.7947 100.928 92.3884 99.665C91.6501 97.3708 92.2298 94.6158 94.1227 91.4842C96.5804 87.4111 101.055 84.1012 105.802 82.8525C111.525 81.3462 114.433 83.5958 115.662 85.0724C117.902 87.7679 117.942 91.7072 116.837 94.0459C114.756 98.4609 108.121 104.699 100.995 104.699ZM107.145 87.9711C103.731 88.8679 100.396 91.3207 98.6516 94.2144C97.4674 96.1766 97.2444 97.4748 97.4228 98.0397C97.5219 98.3519 97.8688 98.6343 98.4485 98.8821C104.043 101.275 110.742 94.5464 112.045 91.7815C112.342 91.1572 112.392 89.4179 111.584 88.4517C110.653 87.3319 108.651 87.5697 107.14 87.9661L107.145 87.9711Z" fill="black"/>
<path d="M140.793 91.9631C138.162 88.5045 134.004 86.0864 130.065 85.4918C126.562 84.9616 122.682 85.358 122.632 89.6788C122.538 97.5772 132.627 101.997 136.913 102.2C139.787 102.339 146.02 98.8456 140.798 91.968L140.793 91.9631Z" fill="black"/>
<path d="M137.075 104.851C136.976 104.851 136.877 104.851 136.783 104.846C130.862 104.564 119.871 99.0937 119.985 89.6494C120.02 86.8696 121.229 85.2691 122.24 84.4119C124.078 82.8511 126.843 82.3357 130.46 82.8808C135.167 83.5894 139.934 86.4583 142.902 90.3679C146.48 95.0801 145.519 98.6279 144.622 100.327C143.051 103.315 139.632 104.851 137.075 104.851ZM127.829 87.9548C126.684 87.9548 125.976 88.1728 125.669 88.4354C125.421 88.6485 125.287 89.0746 125.282 89.7039C125.208 95.7936 133.988 99.4059 137.04 99.5495C137.729 99.5892 139.359 98.9649 139.944 97.85C140.623 96.5617 139.637 94.8026 138.691 93.5589C136.555 90.7494 133.017 88.6088 129.672 88.1034C128.964 87.9944 128.349 87.9498 127.829 87.9498V87.9548Z" fill="black"/>
<path d="M109.907 89.7784C109.02 89.2631 107.895 89.5554 107.226 90.3284C106.666 90.9726 106.225 91.9041 107.008 92.8803C108.534 94.7781 110.923 92.6771 110.923 91.6613C110.923 91.0023 110.66 90.2095 109.907 89.7735V89.7784Z" fill="white"/>
<path d="M108.489 94.8871C107.558 94.8871 106.691 94.461 106.046 93.6632C105.036 92.4096 105.13 90.8587 106.294 89.5208C107.389 88.2622 109.173 87.9203 110.536 88.7082C111.557 89.3028 112.166 90.4078 112.166 91.6664C112.166 92.8357 111.012 94.1934 109.594 94.6939C109.223 94.8227 108.851 94.8871 108.489 94.8871ZM108.94 90.7596C108.648 90.7596 108.346 90.9281 108.157 91.1461C107.657 91.7209 107.825 91.929 107.969 92.1123C108.232 92.4393 108.435 92.4344 108.603 92.4047C109.104 92.3155 109.57 91.8249 109.674 91.6019C109.664 91.3988 109.594 91.042 109.277 90.8587C109.168 90.7943 109.049 90.7695 108.93 90.7695L108.94 90.7596Z" fill="white"/>
<path d="M128.048 89.7784C127.161 89.2631 126.037 89.5554 125.368 90.3284C124.808 90.9726 124.367 91.9041 125.15 92.8803C126.676 94.7781 129.064 92.6771 129.064 91.6613C129.064 91.0023 128.802 90.2095 128.048 89.7735V89.7784Z" fill="white"/>
<path d="M126.627 94.8871C125.695 94.8871 124.828 94.461 124.184 93.6632C123.173 92.4096 123.268 90.8587 124.432 89.5208C125.527 88.2622 127.311 87.9203 128.673 88.7082C129.694 89.3028 130.304 90.4078 130.304 91.6664C130.304 92.8357 129.149 94.1934 127.732 94.6939C127.36 94.8227 126.989 94.8871 126.627 94.8871ZM127.083 90.7596C126.79 90.7596 126.488 90.9281 126.3 91.1461C125.8 91.7209 125.968 91.929 126.112 92.1123C126.374 92.4393 126.577 92.4344 126.746 92.4047C127.246 92.3155 127.712 91.8249 127.816 91.6019C127.806 91.3988 127.737 91.042 127.42 90.8587C127.311 90.7943 127.192 90.7695 127.073 90.7695L127.083 90.7596Z" fill="white"/>
<path d="M88.2424 136.436C88.2424 136.436 137.892 142.337 160.279 136.753L163.321 142.298L168.078 162.965C168.078 162.965 143.085 177.048 85.8838 163.639L88.2424 136.436Z" fill="black"/>
</svg>
