<?xml version="1.0" encoding="UTF-8"?>
<!DOCTYPE svg PUBLIC "-//W3C//DTD SVG 1.1//EN" "http://www.w3.org/Graphics/SVG/1.1/DTD/svg11.dtd">
<svg xmlns="http://www.w3.org/2000/svg" version="1.1" width="765px" height="765px" style="shape-rendering:geometricPrecision; text-rendering:geometricPrecision; image-rendering:optimizeQuality; fill-rule:evenodd; clip-rule:evenodd" xmlns:xlink="http://www.w3.org/1999/xlink">
<g><path style="opacity:0.979" fill="#020101" d="M 439.5,633.5 C 437.045,639.952 434.879,646.619 433,653.5C 429.833,660.667 424.667,665.833 417.5,669C 386.167,669.667 354.833,669.667 323.5,669C 311.738,664.661 306.071,656.161 306.5,643.5C 306.598,640.449 306.931,637.449 307.5,634.5C 311.1,628.076 316.433,623.576 323.5,621C 299.954,618.181 280.454,608.014 265,590.5C 254.587,573.601 247.921,555.267 245,535.5C 239.167,498.509 239,461.509 244.5,424.5C 199.434,399.721 178.934,361.388 183,309.5C 184.821,281.356 196.987,258.856 219.5,242C 208.552,201.514 210.718,161.681 226,122.5C 239.134,97.8487 259.634,87.3487 287.5,91C 301.814,95.3129 311.648,104.48 317,118.5C 318.535,122.773 319.869,127.106 321,131.5C 322.291,159.46 322.958,187.46 323,215.5C 340.405,212.857 357.905,212.024 375.5,213C 370.937,191.763 369.437,170.263 371,148.5C 374.178,124.982 383.678,104.482 399.5,87C 412.97,76.1751 427.636,74.5084 443.5,82C 456.79,87.9574 465.956,97.7908 471,111.5C 476.695,129.031 479.695,147.031 480,165.5C 480.882,184.555 480.382,203.555 478.5,222.5C 507.17,226.995 526.337,242.995 536,270.5C 550.222,305.601 553.222,341.601 545,378.5C 541.288,390.756 534.455,400.922 524.5,409C 518.129,413.512 511.796,418.012 505.5,422.5C 511.566,440.429 515.899,458.762 518.5,477.5C 533.28,473.678 546.614,476.512 558.5,486C 568.89,495.296 576.39,506.463 581,519.5C 583.076,529.453 581.076,538.453 575,546.5C 569.469,552.366 563.635,557.866 557.5,563C 549.069,568.342 540.069,569.675 530.5,567C 525.66,565.406 520.993,563.572 516.5,561.5C 511.609,578.556 501.609,591.723 486.5,601C 472.525,609.485 457.525,615.485 441.5,619C 440.232,623.713 439.565,628.546 439.5,633.5 Z"/></g>
<g><path style="opacity:1" fill="#feddd1" d="M 420.5,96.5 C 439.142,97.6401 450.642,107.307 455,125.5C 457.647,136.008 459.314,146.675 460,157.5C 460.943,182.922 460.276,208.255 458,233.5C 458.883,236.102 460.383,238.269 462.5,240C 484.663,239.66 501.497,248.827 513,267.5C 528.3,298.963 533.3,331.963 528,366.5C 525.432,377.476 519.932,386.643 511.5,394C 495.791,406.907 477.791,414.574 457.5,417C 452.331,420.81 451.165,425.643 454,431.5C 455.214,433.049 456.714,434.215 458.5,435C 468.397,435.156 477.897,433.323 487,429.5C 501.11,469.162 505.11,509.829 499,551.5C 494.976,568.392 485.142,580.559 469.5,588C 448.329,598.167 425.995,603.833 402.5,605C 377.741,606.184 353.074,605.184 328.5,602C 293.376,597.876 272.876,578.376 267,543.5C 260.91,513.455 258.91,483.121 261,452.5C 262.784,439.207 263.784,425.874 264,412.5C 258.077,407.785 251.577,403.951 244.5,401C 219.93,385.725 206.097,363.558 203,334.5C 197.156,299.536 208.823,272.203 238,252.5C 238.667,251.167 239.333,249.833 240,248.5C 237.552,234.582 235.218,220.582 233,206.5C 231.527,182.809 234.361,159.643 241.5,137C 248.362,117.732 262.029,108.732 282.5,110C 289.909,112.408 295.076,117.242 298,124.5C 299.732,128.363 301.066,132.363 302,136.5C 302.333,167.167 302.667,197.833 303,228.5C 304.73,233.452 308.23,236.119 313.5,236.5C 322.424,234.76 331.424,233.593 340.5,233C 357.509,232.612 374.509,232.612 391.5,233C 395.264,231.404 397.264,228.571 397.5,224.5C 394.901,211.573 392.734,198.573 391,185.5C 385.454,155.019 392.121,127.686 411,103.5C 414.068,100.917 417.235,98.5841 420.5,96.5 Z"/></g>
<g><path style="opacity:1" fill="#040303" d="M 423.5,117.5 C 431.008,115.843 436.841,118.176 441,124.5C 445.698,133.621 448.698,143.288 450,153.5C 452.476,179.027 451.143,204.36 446,229.5C 444.749,232.381 442.583,234.214 439.5,235C 430.398,235.942 421.398,235.609 412.5,234C 409.537,231.125 407.704,227.625 407,223.5C 403.18,202.661 401.513,181.661 402,160.5C 404.319,147.537 408.985,135.537 416,124.5C 418.396,121.933 420.896,119.6 423.5,117.5 Z"/></g>
<g><path style="opacity:1" fill="#030202" d="M 269.5,121.5 C 279.904,122.053 286.738,127.386 290,137.5C 291.313,141.42 292.313,145.42 293,149.5C 292.616,177.163 291.949,204.83 291,232.5C 290.208,234.587 289.041,236.421 287.5,238C 277.853,240.993 268.02,243.159 258,244.5C 255.186,244.592 252.853,243.592 251,241.5C 247.52,231.148 245.52,220.482 245,209.5C 243.766,191.714 244.599,174.048 247.5,156.5C 249.69,146.753 253.523,137.753 259,129.5C 261.94,125.963 265.44,123.297 269.5,121.5 Z"/></g>
<g><path style="opacity:1" fill="#e79985" d="M 426.5,143.5 C 427.931,143.881 428.764,144.881 429,146.5C 433.456,169.46 433.622,192.46 429.5,215.5C 427.833,215.5 426.167,215.5 424.5,215.5C 421.696,196.613 420.863,177.613 422,158.5C 423.516,153.479 425.016,148.479 426.5,143.5 Z"/></g>
<g><path style="opacity:1" fill="#e99b86" d="M 271.5,145.5 C 272.29,146.609 272.79,147.942 273,149.5C 273.564,173.839 273.397,198.172 272.5,222.5C 270.139,222.674 267.806,223.007 265.5,223.5C 262.406,201.407 262.906,179.407 267,157.5C 268.238,153.365 269.738,149.365 271.5,145.5 Z"/></g>
<g><path style="opacity:1" fill="#060505" d="M 324.5,272.5 C 333.986,271.818 338.153,276.152 337,285.5C 333.723,291.109 328.89,292.942 322.5,291C 315.468,284.022 316.134,277.856 324.5,272.5 Z"/></g>
<g><path style="opacity:1" fill="#060505" d="M 378.5,272.5 C 389.379,271.534 393.546,276.2 391,286.5C 387.562,291.081 383.062,292.581 377.5,291C 372.845,288.103 371.345,283.937 373,278.5C 374.36,275.977 376.193,273.977 378.5,272.5 Z"/></g>
<g><path style="opacity:1" fill="#050403" d="M 339.5,325.5 C 347.84,325.334 356.173,325.5 364.5,326C 373.41,329.653 376.576,336.153 374,345.5C 372.811,354.404 368.311,360.904 360.5,365C 355.232,366.068 350.232,365.401 345.5,363C 337.544,356.579 332.544,348.412 330.5,338.5C 330.802,332.213 333.802,327.88 339.5,325.5 Z"/></g>
<g><path style="opacity:1" fill="#df8770" d="M 343.5,339.5 C 348.975,338.511 354.642,338.178 360.5,338.5C 360.608,342.247 360.108,345.914 359,349.5C 356.763,353.02 354.096,353.353 351,350.5C 348.477,346.767 345.977,343.101 343.5,339.5 Z"/></g>
<g><path style="opacity:1" fill="#f9d9cd" d="M 525.5,495.5 C 532.473,494.536 538.807,496.036 544.5,500C 553.016,507.378 559.016,516.378 562.5,527C 558.321,535.85 551.988,542.85 543.5,548C 540.833,548.667 538.167,548.667 535.5,548C 530.314,545.576 525.647,542.409 521.5,538.5C 520.334,524.846 520.167,511.179 521,497.5C 522.622,496.901 524.122,496.234 525.5,495.5 Z"/></g>
<g><path style="opacity:1" fill="#f4d4c9" d="M 413.5,622.5 C 415.833,622.5 418.167,622.5 420.5,622.5C 419.763,632.291 417.096,641.458 412.5,650C 401.167,650.667 389.833,650.667 378.5,650C 376.35,647.445 376.017,644.612 377.5,641.5C 383.207,639.02 389.207,637.854 395.5,638C 399.527,637.573 402.027,635.406 403,631.5C 403.497,628.854 403.664,626.187 403.5,623.5C 407.042,623.813 410.375,623.479 413.5,622.5 Z"/></g>
<g><path style="opacity:1" fill="#fbdace" d="M 357.5,638.5 C 356.518,641.962 356.185,645.629 356.5,649.5C 346.833,649.5 337.167,649.5 327.5,649.5C 323.885,643.216 325.885,639.716 333.5,639C 338.614,638.891 343.614,638.224 348.5,637C 352.039,633.613 353.372,629.447 352.5,624.5C 357.511,624.334 362.511,624.501 367.5,625C 362.087,628.004 358.754,632.504 357.5,638.5 Z"/></g>
<g><path style="opacity:0.985" fill="#d8d8d8" d="M 439.5,633.5 C 478.583,634.454 517.25,638.954 555.5,647C 566.945,649.589 577.612,653.922 587.5,660C 590.803,663.795 591.303,667.962 589,672.5C 583.313,677.428 576.813,680.928 569.5,683C 532.15,692.86 494.15,698.526 455.5,700C 410.5,702 365.5,702 320.5,700C 286.818,698.29 253.485,693.956 220.5,687C 209.055,684.411 198.388,680.078 188.5,674C 185.197,670.205 184.697,666.038 187,661.5C 192.687,656.572 199.187,653.072 206.5,651C 239.631,642.196 273.298,636.696 307.5,634.5C 306.931,637.449 306.598,640.449 306.5,643.5C 306.071,656.161 311.738,664.661 323.5,669C 354.833,669.667 386.167,669.667 417.5,669C 424.667,665.833 429.833,660.667 433,653.5C 434.879,646.619 437.045,639.952 439.5,633.5 Z"/></g>
<g><path style="opacity:1" fill="#796963" d="M 357.5,638.5 C 357.5,642.5 357.5,646.5 357.5,650.5C 347.319,650.827 337.319,650.494 327.5,649.5C 337.167,649.5 346.833,649.5 356.5,649.5C 356.185,645.629 356.518,641.962 357.5,638.5 Z"/></g>
</svg>
