<svg width="255" height="255" viewBox="0 0 255 255" fill="none" xmlns="http://www.w3.org/2000/svg">
<ellipse cx="129.5" cy="222.5" rx="67.5" ry="11.5" fill="#D9D9D9"/>
<path d="M166.95 165.628C166.95 165.628 177.529 158.488 184.04 164.786C190.551 171.084 193.029 176.158 188.331 181.054C183.639 185.949 178.946 190.845 168.541 178.492L166.945 165.628H166.95Z" fill="#FFDED2"/>
<path d="M179.987 189.492C179.878 189.492 179.769 189.492 179.655 189.487C175.403 189.348 171.092 186.519 166.083 180.573C165.681 180.097 165.429 179.513 165.349 178.893L163.754 166.03C163.605 164.826 164.145 163.642 165.146 162.963C165.27 162.879 168.258 160.882 172.158 159.757C177.856 158.112 182.737 159.053 186.274 162.477C189.728 165.817 198.895 174.691 190.655 183.288C187.86 186.202 184.704 189.497 179.982 189.497L179.987 189.492ZM171.622 177.134C175.8 181.916 178.401 183.001 179.863 183.046C181.77 183.125 183.45 181.49 186.007 178.824C187.612 177.149 189.812 174.855 181.8 167.1C178.49 163.899 173.114 165.97 170.408 167.353L171.617 177.129L171.622 177.134Z" fill="black"/>
<path d="M130.744 189.672C130.511 192.105 131.79 220.071 124.134 220.071H109.353C109.353 220.071 105.409 219.838 105.409 214.621C105.409 209.403 114.536 209.75 114.536 209.75L112.713 185.752" fill="#FFDED2"/>
<path d="M124.138 223.291H109.357C109.293 223.291 109.233 223.291 109.169 223.286C106.364 223.123 102.197 220.68 102.197 214.62C102.197 212.672 102.936 210.928 104.333 209.58C106.186 207.797 108.882 207.043 111.082 206.731L109.506 185.999C109.372 184.226 110.7 182.68 112.474 182.546C114.253 182.417 115.794 183.74 115.928 185.514L117.751 209.511C117.821 210.428 117.498 211.33 116.859 211.989C116.22 212.648 115.333 213.004 114.416 212.975C112.662 212.92 109.734 213.322 108.792 214.228C108.669 214.352 108.629 214.417 108.629 214.625C108.629 215.541 108.797 216.656 109.585 216.854H124.059C124.322 216.651 125.927 215.12 126.839 207.177C127.468 201.692 127.478 195.543 127.483 192.233C127.483 190.598 127.488 189.859 127.537 189.369C127.706 187.6 129.277 186.302 131.05 186.47C132.819 186.639 134.118 188.209 133.954 189.978C133.934 190.241 133.934 191.306 133.929 192.248C133.905 208.376 132.7 223.301 124.138 223.301V223.291Z" fill="black"/>
<path d="M144.328 189.672C144.095 192.105 145.373 220.071 137.718 220.071H126.242C126.242 220.071 122.298 219.838 122.298 214.621C122.298 209.403 131.425 209.75 131.425 209.75L129.602 185.752" fill="#FFDED2"/>
<path d="M137.722 223.291H126.246C126.182 223.291 126.122 223.291 126.058 223.286C123.253 223.123 119.086 220.68 119.086 214.62C119.086 212.672 119.824 210.928 121.222 209.58C123.075 207.797 125.77 207.043 127.97 206.731L126.395 185.999C126.261 184.226 127.589 182.68 129.363 182.546C131.142 182.417 132.683 183.74 132.816 185.514L134.64 209.511C134.709 210.428 134.387 211.33 133.748 211.989C133.109 212.648 132.222 213.004 131.305 212.975C129.556 212.92 126.623 213.322 125.681 214.228C125.557 214.352 125.518 214.417 125.518 214.625C125.518 216.532 126.246 216.815 126.4 216.854H137.643C137.905 216.651 139.511 215.12 140.422 207.177C141.052 201.692 141.062 195.543 141.066 192.233C141.066 190.598 141.071 189.859 141.121 189.369C141.289 187.6 142.86 186.302 144.634 186.47C146.403 186.639 147.701 188.209 147.538 189.978C147.518 190.241 147.518 191.306 147.513 192.248C147.488 208.376 146.284 223.301 137.722 223.301V223.291Z" fill="black"/>
<path d="M164.536 139.085C168.064 149 172.409 165.733 169.907 183.348C169.104 188.992 165.933 194.066 161.146 197.168C154.472 201.499 143.665 205.418 126.511 205.185C104.763 204.888 93.0244 201.826 88.1784 189.235C81.5188 171.947 83.9468 147.736 85.2896 139.189L83.7337 138.5C63.6609 129.165 63.5568 110.053 64.9293 99.8014C66.3019 89.5494 77.1237 82.1119 77.1237 82.1119C77.1237 82.1119 72.8227 68.9612 74.9732 57.0096C77.1237 45.0581 78.3179 36.4512 89.7937 33.82C101.27 31.1889 104.614 44.3396 104.376 49.5969C104.139 54.8542 104.401 72.7865 104.386 75.6555C104.386 75.6555 116.566 73.9807 123.022 74.4613L129.479 74.937C129.479 74.937 124.697 55.3348 128.284 44.5774C131.872 33.82 137.61 28.5578 141.673 29.2763C145.736 29.9947 153.867 30.7083 156.018 46.7279C158.168 62.7476 156.018 77.3303 156.018 77.3303C156.018 77.3303 168.688 76.3739 174.664 89.2818C180.639 102.19 183.746 124.666 173.47 133.273C163.188 141.88 154.105 142.117 154.105 142.117" fill="#FFDED2"/>
<path d="M127.992 208.416C127.486 208.416 126.981 208.416 126.466 208.406C104.589 208.104 90.819 205.061 85.1703 190.394C78.4364 172.918 80.6215 149.669 81.7513 141.131C66.2271 133.615 59.1216 118.819 61.728 99.3803C62.9221 90.476 69.9583 83.7223 73.407 80.893C72.2326 76.4681 70.0376 66.1914 71.7917 56.4448L71.9849 55.3646C74.066 43.745 75.8647 33.7111 89.0649 30.6885C93.5938 29.6529 97.7016 30.5299 100.942 33.2404C106.17 37.6008 107.78 45.5041 107.587 49.7555C107.413 53.5313 107.513 64.2688 107.567 70.6856C107.567 71.1563 107.577 71.6072 107.577 72.0284C111.799 71.5577 118.736 70.9234 123.25 71.2554L125.435 71.419C124.191 64.7842 122.417 51.9655 125.217 43.5667C129.067 32.0115 135.905 25.0051 142.218 26.115L142.708 26.1992C149.685 27.3835 157.098 30.6984 159.194 46.3118C160.774 58.0651 160.115 68.9513 159.595 74.3226C164.481 75.0064 172.835 77.7069 177.572 87.944C183.776 101.342 187.413 125.801 175.52 135.755C173.083 137.792 170.704 139.397 168.465 140.666C172.077 151.646 175.426 167.309 173.083 183.814C172.141 190.434 168.425 196.291 162.89 199.883C154.144 205.557 142.406 208.426 127.982 208.426L127.992 208.416ZM85.0612 135.572L86.5874 136.246C87.9253 136.835 88.6933 138.248 88.4703 139.69C83.9909 168.25 90.4325 186.133 91.1857 188.08C95.0654 198.154 103.989 201.657 126.56 201.969C140.384 202.138 151.439 199.636 159.402 194.472C163.376 191.896 166.046 187.674 166.725 182.902C168.846 167.968 165.898 153.663 162.603 143.411C157.747 145.219 154.427 145.343 154.189 145.348C152.425 145.388 150.934 143.99 150.884 142.212C150.834 140.433 152.242 138.956 154.021 138.907C154.08 138.907 162.221 138.5 171.403 130.81C180.188 123.452 177.18 102.393 171.745 90.6445C166.765 79.8871 156.369 80.5412 156.26 80.5511C155.284 80.6304 154.328 80.2488 153.659 79.5353C152.99 78.8218 152.688 77.8407 152.831 76.8695C152.851 76.7308 154.888 62.5147 152.826 47.169C151.077 34.1521 145.627 33.2255 141.648 32.5516L141.113 32.4575C139.398 32.1552 134.607 35.7972 131.341 45.6032C128.091 55.3498 132.565 73.9956 132.61 74.1839C132.853 75.1848 132.605 76.2402 131.936 77.0281C131.272 77.8159 130.266 78.2321 129.24 78.1578L122.784 77.6821C116.739 77.2362 104.941 78.8416 104.827 78.8565C103.9 78.9853 102.969 78.7029 102.265 78.0884C101.562 77.474 101.16 76.5871 101.165 75.6506C101.165 74.8974 101.15 73.0888 101.13 70.7401C101.071 63.8377 100.977 53.4074 101.155 49.4582C101.289 46.4852 100.006 40.8414 96.8195 38.1805C95.1348 36.7783 93.0735 36.3769 90.5118 36.9665C81.8256 38.9585 80.5026 44.3942 78.3323 56.4993L78.139 57.5845C76.1521 68.6094 80.1409 80.9921 80.1805 81.116C80.6265 82.4786 80.1161 83.975 78.9318 84.7827C78.8427 84.8471 69.2943 91.4869 68.12 100.237C66.5393 112.021 68.1943 127.713 85.0612 135.572Z" fill="black"/>
<path d="M110.581 92.4078C109.694 91.8925 108.569 92.1848 107.9 92.9578C107.34 93.602 106.899 94.5335 107.682 95.5097C109.208 97.4075 111.596 95.3065 111.596 94.2907C111.596 93.6317 111.334 92.8389 110.581 92.4029V92.4078Z" fill="black"/>
<path d="M109.162 97.5153C108.231 97.5153 107.363 97.0892 106.719 96.2914C105.709 95.0378 105.803 93.4869 106.967 92.149C108.062 90.8855 109.846 90.5485 111.209 91.3364C112.229 91.931 112.839 93.036 112.839 94.2945C112.839 95.4639 111.684 96.8216 110.267 97.3221C109.895 97.4509 109.524 97.5153 109.162 97.5153ZM109.613 93.3878C109.321 93.3878 109.018 93.5562 108.83 93.7743C108.33 94.3491 108.498 94.5572 108.642 94.7405C108.905 95.0675 109.108 95.0626 109.276 95.0328C109.777 94.9437 110.242 94.4531 110.346 94.2301C110.336 94.027 110.267 93.6702 109.95 93.4869C109.841 93.4225 109.722 93.3977 109.603 93.3977L109.613 93.3878Z" fill="black"/>
<path d="M128.722 92.4088C127.835 91.8935 126.71 92.1858 126.042 92.9588C125.482 93.603 125.041 94.5345 125.823 95.5107C127.35 97.4084 129.738 95.3075 129.738 94.2917C129.738 93.6327 129.475 92.8399 128.722 92.4038V92.4088Z" fill="black"/>
<path d="M127.301 97.518C126.369 97.518 125.502 97.0919 124.858 96.2941C123.847 95.0405 123.941 93.4895 125.106 92.1517C126.201 90.8931 127.985 90.5512 129.347 91.3391C130.368 91.9337 130.977 93.0386 130.977 94.2972C130.977 95.4666 129.823 96.8243 128.406 97.3247C128.034 97.4536 127.663 97.518 127.301 97.518ZM127.757 93.3904C127.464 93.3904 127.167 93.5589 126.974 93.7769C126.473 94.3517 126.642 94.5598 126.786 94.7432C127.048 95.0702 127.251 95.0652 127.42 95.0355C127.92 94.9463 128.386 94.4558 128.49 94.2328C128.48 94.0296 128.411 93.6729 128.094 93.4895C127.985 93.4251 127.866 93.4003 127.747 93.4003L127.757 93.3904Z" fill="black"/>
<path d="M118.634 119.91C116.622 119.91 114.922 118.25 112.767 114.172C112.4 113.478 112.425 112.651 112.826 111.977C113.228 111.308 113.956 110.896 114.734 110.896H120.472C121.077 110.896 121.651 111.139 122.073 111.575C122.494 112.011 122.717 112.596 122.702 113.196C122.568 117.457 121.086 119.905 118.629 119.905L118.634 119.91Z" fill="#EF9178"/>
<path d="M120.47 113.127C120.47 113.127 120.327 117.676 118.627 117.676C117.775 117.676 116.536 116.541 114.732 113.127H120.47ZM120.47 108.668H114.732C113.167 108.668 111.72 109.485 110.912 110.828C110.104 112.166 110.06 113.831 110.788 115.213C112.602 118.637 114.946 122.135 118.622 122.135C119.712 122.135 123.364 121.719 124.539 116.353C124.866 114.856 124.92 113.424 124.925 113.266C124.965 112.062 124.509 110.887 123.671 110.02C122.829 109.153 121.675 108.663 120.47 108.663V108.668Z" fill="black"/>
<path d="M139.383 75.3563H145.914C145.914 75.3563 148.713 62.2998 146.845 51.478C145.814 45.4923 144.194 41.0327 142.257 42.7125C140.319 44.3923 137.346 50.9081 137.331 56.1456C137.302 69.0188 139.383 75.3613 139.383 75.3613V75.3563Z" fill="#F4A28C"/>
<path d="M145.913 78.5782H139.382C137.989 78.5782 136.756 77.6863 136.32 76.3633C136.23 76.0858 134.08 69.3767 134.105 56.1368C134.12 50.1363 137.36 42.6839 140.14 40.2757C141.413 39.1757 142.994 38.8487 144.481 39.3789C147.796 40.5631 149.099 45.6321 150.01 50.9291C151.958 62.2315 149.173 75.4714 149.054 76.0313C148.737 77.5178 147.424 78.5782 145.903 78.5782H145.913ZM141.909 72.1366H143.222C143.891 67.9496 144.936 59.3477 143.673 52.0291C143.351 50.161 143.024 48.7687 142.731 47.738C141.651 50.0074 140.556 53.3025 140.551 56.1517C140.531 64.0401 141.339 69.3717 141.909 72.1366Z" fill="black"/>
<path d="M86.2875 78.5313L94.062 76.8515L94.7259 53.7561C94.7903 51.5461 94.498 49.3312 93.7795 47.2848C92.843 44.624 91.2178 42.2753 88.7204 45.7933C84.3451 51.9475 83.6167 67.3379 86.2924 78.5313H86.2875Z" fill="#F4A28C"/>
<path d="M86.2843 81.7513C84.8275 81.7513 83.5094 80.7554 83.1526 79.2788C80.467 68.0407 80.8287 51.3323 86.091 43.9295C88.1622 41.011 90.3028 40.6394 91.7348 40.8425C93.9596 41.1547 95.6691 42.9633 96.8137 46.2187C97.6412 48.5674 98.0177 51.1391 97.9434 53.8495L97.2795 76.9449C97.2349 78.4265 96.1893 79.69 94.7375 80.0022L86.9631 81.682C86.7352 81.7315 86.5072 81.7563 86.2793 81.7563L86.2843 81.7513ZM90.7983 48.5278C87.9888 53.6315 87.1514 65.0429 88.7915 74.6954L90.9122 74.2395L91.5019 53.6662C91.5564 51.813 91.3186 50.0886 90.7983 48.5327V48.5278Z" fill="black"/>
</svg>
