<svg width="255" height="255" viewBox="0 0 255 255" fill="none" xmlns="http://www.w3.org/2000/svg">
<ellipse cx="129.5" cy="222.5" rx="67.5" ry="11.5" fill="#D9D9D9"/>
<path d="M116.435 190.809C116.202 193.242 117.48 221.208 109.825 221.208H95.0438C95.0438 221.208 91.0996 220.975 91.0996 215.757C91.0996 210.54 100.227 210.886 100.227 210.886L98.4033 186.889" fill="#B25900"/>
<path d="M109.83 224.427H95.0488C94.9844 224.427 94.9249 224.427 94.8605 224.422C92.0559 224.259 87.8887 221.816 87.8887 215.756C87.8887 213.808 88.627 212.064 90.0293 210.716C91.8825 208.933 94.5781 208.18 96.7781 207.867L95.2023 187.135C95.0685 185.362 96.3965 183.816 98.1704 183.682C99.9492 183.543 101.49 184.876 101.624 186.65L103.448 210.647C103.517 211.564 103.195 212.466 102.556 213.125C101.921 213.784 101.034 214.15 100.113 214.111C98.3637 214.056 95.4303 214.458 94.4938 215.364C94.3699 215.488 94.3302 215.553 94.3302 215.761C94.3302 217.668 95.0586 217.951 95.2122 217.991H109.76C110.023 217.787 111.628 216.256 112.54 208.313C113.169 202.828 113.179 196.679 113.184 193.369C113.184 191.734 113.189 190.995 113.239 190.505C113.407 188.736 114.978 187.438 116.752 187.606C118.521 187.775 119.819 189.345 119.656 191.114C119.636 191.377 119.636 192.442 119.631 193.384C119.606 209.512 118.402 224.437 109.84 224.437L109.83 224.427Z" fill="black"/>
<path d="M130.023 190.803C129.79 193.236 131.069 221.202 123.413 221.202H111.937C111.937 221.202 107.993 220.97 107.993 215.752C107.993 210.534 117.12 210.881 117.12 210.881L115.297 186.884" fill="#B25900"/>
<path d="M123.415 224.425H111.939C111.875 224.425 111.815 224.425 111.751 224.42C108.947 224.257 104.779 221.814 104.779 215.754C104.779 213.806 105.518 212.062 106.92 210.715C108.773 208.931 111.469 208.178 113.669 207.865L112.093 187.134C111.959 185.36 113.287 183.814 115.061 183.68C116.84 183.541 118.381 184.874 118.515 186.648L120.338 210.645C120.408 211.562 120.085 212.464 119.446 213.123C118.812 213.782 117.925 214.148 117.003 214.109C115.254 214.054 112.321 214.456 111.384 215.362C111.261 215.486 111.221 215.551 111.221 215.759C111.221 217.666 111.949 217.949 112.103 217.989H123.351C123.613 217.785 125.219 216.254 126.131 208.311C126.76 202.831 126.77 196.677 126.775 193.372C126.775 191.737 126.78 190.993 126.829 190.508C126.998 188.739 128.568 187.441 130.342 187.609C132.111 187.778 133.409 189.348 133.241 191.117C133.221 191.38 133.221 192.445 133.216 193.387C133.192 209.515 131.987 224.435 123.425 224.435L123.415 224.425Z" fill="black"/>
<path d="M153.838 160.476C153.838 160.476 168.267 144.427 187.993 148.683C207.719 152.94 209.656 182.373 192.611 194.795C167.845 212.841 112.205 206.32 112.205 206.32C90.4576 206.023 78.7191 202.961 73.8731 190.37C66.2919 170.689 70.4887 142.029 71.45 137.733C71.45 137.733 44.3609 117.506 47.7154 94.8419C51.07 72.1775 57.3678 64.1999 63.2444 60.4242C63.2444 60.4242 61.986 38.181 66.1829 36.0801C70.3798 33.9791 81.7119 52.0304 81.7119 52.0304C81.7119 52.0304 103.955 45.3163 114.871 46.1537C125.787 46.9911 127.883 47.4123 127.883 47.4123C127.883 47.4123 137.119 27.2651 140.895 29.366C144.671 31.4669 146.35 48.6708 145.929 50.7718C145.508 52.8727 171.289 71.6969 165.655 101.977C161.736 123.031 150.126 128.838 150.126 128.838L151.915 138.917C153.179 146.032 153.818 153.247 153.838 160.471L153.862 170.119V172.032" fill="#B25900"/>
<path d="M135.267 210.72C122.974 210.72 113.599 209.719 111.994 209.536C90.2112 209.223 76.4957 206.156 70.8618 191.524C63.8504 173.319 66.3973 147.86 67.9136 139.045C61.8684 134.09 41.3842 115.563 44.5257 94.3705C47.2262 76.1409 52.1466 64.7592 59.9458 58.8082C59.8665 56.6627 59.7773 52.877 59.9161 48.9279C60.2629 39.3002 61.6602 34.7416 64.7373 33.2055C69.1126 31.0203 73.9191 36.0596 78.0417 41.2773C80.0881 43.8638 81.9264 46.5197 83.1007 48.2787C89.2153 46.5593 105.755 42.2286 115.11 42.9471C120.685 43.3782 124.01 43.7003 125.957 43.9183C129.202 37.1349 134.405 27.6757 138.756 26.2486C140.029 25.8324 141.342 25.9414 142.447 26.5558C144.221 27.5419 146.476 29.9054 148.151 39.5232C148.76 43.0264 149.251 47.5553 149.196 50.0873C149.617 50.5977 150.321 51.3756 150.965 52.0892C157.729 59.5614 173.56 77.0675 168.813 102.576C165.627 119.691 157.53 127.525 153.66 130.384L155.078 138.366C155.965 143.366 156.554 148.435 156.842 153.519C163.179 148.727 174.61 142.514 188.663 145.541C197.864 147.528 204.623 154.663 206.734 164.638C209.35 176.996 204.435 190.166 194.5 197.406C179.392 208.416 153.958 210.73 135.267 210.73V210.72ZM67.5618 39.5331C66.4766 42.5606 65.9662 51.5144 66.4617 60.2452C66.5261 61.4046 65.9662 62.5096 64.99 63.134C60.5701 65.9782 54.2971 72.4048 50.9029 95.312C47.8704 115.786 73.1213 134.962 73.379 135.151C74.3948 135.909 74.8704 137.197 74.593 138.431C73.5474 143.098 69.7518 170.703 76.8772 189.205C80.757 199.279 89.6811 202.782 112.251 203.089C112.36 203.089 112.474 203.099 112.583 203.109C113.128 203.173 167.262 209.268 190.714 192.178C199.861 185.514 202.19 174.201 200.441 165.951C198.846 158.424 194.064 153.276 187.315 151.819C172.217 148.564 160.246 158.732 157.065 161.784L157.089 172.016C157.089 173.795 155.657 175.242 153.879 175.247H153.869C152.095 175.247 150.653 173.81 150.648 172.036L150.618 160.476C150.603 153.454 149.974 146.389 148.745 139.476L146.956 129.398C146.709 127.995 147.412 126.593 148.686 125.954C148.686 125.954 151.247 124.586 154.206 120.92C156.961 117.506 160.637 111.347 162.49 101.382C166.653 79.0099 152.318 63.1637 146.198 56.3951C143.597 53.5212 142.393 52.1883 142.759 50.1963C143.012 47.8031 141.61 36.9812 139.876 33.1708C137.715 35.5393 133.87 42.08 130.813 48.7495C130.189 50.1072 128.717 50.8554 127.255 50.568C127.191 50.5581 124.911 50.1517 114.63 49.3589C104.447 48.576 82.8679 55.0424 82.6499 55.1068C81.2625 55.528 79.761 54.9631 78.993 53.7342C74.9447 47.2877 69.9996 41.193 67.5716 39.5232L67.5618 39.5331ZM142.769 50.1418C142.769 50.1418 142.769 50.1617 142.764 50.1716C142.764 50.1617 142.764 50.1517 142.769 50.1418Z" fill="black"/>
<path d="M95.7427 93.5499C94.8557 93.0346 93.731 93.3269 93.0621 94.0999C92.5021 94.7441 92.0611 95.6756 92.844 96.6518C94.3701 98.5495 96.7585 96.4486 96.7585 95.4328C96.7585 94.7738 96.4959 93.981 95.7427 93.545V93.5499Z" fill="black"/>
<path d="M94.3252 98.6567C93.3937 98.6567 92.5266 98.2305 91.8824 97.4328C90.8716 96.1791 90.9657 94.6282 92.1302 93.2904C93.2252 92.0318 95.0091 91.6899 96.3717 92.4777C97.3925 93.0723 98.002 94.1773 98.002 95.4359C98.002 96.6053 96.8475 97.963 95.4353 98.4585C95.0636 98.5873 94.6919 98.6517 94.3302 98.6517L94.3252 98.6567ZM94.7762 94.5291C94.4839 94.5291 94.1865 94.6976 93.9933 94.9156C93.4928 95.4904 93.6614 95.6985 93.805 95.8818C94.0677 96.2089 94.2708 96.2039 94.4393 96.1742C94.9398 96.08 95.4055 95.5945 95.5096 95.3715C95.4996 95.1683 95.4302 94.8116 95.1131 94.6282C95.0041 94.5638 94.8852 94.539 94.7663 94.539L94.7762 94.5291Z" fill="black"/>
<path d="M113.888 93.5499C113.001 93.0346 111.876 93.3269 111.207 94.0999C110.648 94.7441 110.207 95.6756 110.99 96.6518C112.516 98.5495 114.904 96.4486 114.904 95.4328C114.904 94.7738 114.641 93.981 113.888 93.545V93.5499Z" fill="black"/>
<path d="M112.468 98.6567C111.536 98.6567 110.669 98.2305 110.025 97.4328C109.014 96.1791 109.108 94.6282 110.273 93.2904C111.368 92.0318 113.152 91.6899 114.514 92.4777C115.535 93.0723 116.144 94.1773 116.144 95.4359C116.144 96.6053 114.99 97.963 113.578 98.4585C113.206 98.5873 112.834 98.6517 112.473 98.6517L112.468 98.6567ZM112.924 94.5291C112.631 94.5291 112.334 94.6976 112.141 94.9156C111.64 95.4904 111.809 95.6985 111.952 95.8818C112.215 96.2089 112.418 96.2039 112.587 96.1742C113.087 96.08 113.553 95.5945 113.657 95.3715C113.647 95.1683 113.578 94.8116 113.261 94.6282C113.152 94.5638 113.033 94.539 112.914 94.539L112.924 94.5291Z" fill="black"/>
<path d="M103.797 121.044C101.785 121.044 100.085 119.385 97.93 115.307C97.5633 114.613 97.5882 113.785 97.9895 113.111C98.3909 112.443 99.1193 112.031 99.8973 112.031H105.635C106.24 112.031 106.814 112.274 107.236 112.71C107.657 113.146 107.88 113.731 107.865 114.33C107.731 118.592 106.25 121.04 103.792 121.04L103.797 121.044Z" fill="#EF9178"/>
<path d="M105.637 114.264C105.637 114.264 105.494 118.813 103.794 118.813C102.942 118.813 101.703 117.678 99.8995 114.264H105.637ZM105.637 109.805H99.8995C98.3337 109.805 96.8868 110.622 96.0791 111.965C95.2715 113.303 95.2269 114.968 95.9553 116.35C97.7688 119.774 100.113 123.273 103.789 123.273C104.879 123.273 108.531 122.856 109.706 117.49C110.033 115.994 110.087 114.562 110.092 114.403C110.132 113.199 109.676 112.025 108.838 111.157C107.996 110.29 106.842 109.8 105.637 109.8V109.805Z" fill="black"/>
<path d="M89.0736 67.2704C93.5629 67.4934 93.2557 56.9936 92.4133 49.1895C88.9498 50.012 85.957 50.8197 84.0245 51.3598C83.9898 58.3216 84.7974 67.0524 89.0736 67.2654V67.2704Z" fill="#FFB531"/>
<path d="M89.2067 70.4986C89.1076 70.4986 89.0085 70.4986 88.9094 70.4936C80.7038 70.0824 80.7782 55.9853 80.803 51.3523C80.8129 49.9154 81.7692 48.6568 83.1517 48.2703C85.0842 47.7302 88.1315 46.9077 91.6694 46.0653C92.5712 45.8522 93.5176 46.0356 94.2708 46.5707C95.0239 47.1059 95.5145 47.9383 95.6136 48.855C97.1298 62.8877 95.0487 66.8963 93.3491 68.695C92.2441 69.8693 90.7775 70.5036 89.2018 70.5036L89.2067 70.4986ZM87.2692 53.8199C87.4427 60.202 88.4387 62.7192 88.9887 63.6309C89.3951 62.5259 89.9896 59.7164 89.5436 53.2253C88.731 53.4334 87.9679 53.6316 87.2692 53.8199Z" fill="black"/>
<path d="M105.64 67.2735C110.719 67.5262 109.663 54.0634 108.633 46.2988C106.111 46.5317 103.395 46.943 100.695 47.4385C100.368 54.435 100.496 67.0159 105.64 67.2735Z" fill="#FFB531"/>
<path d="M105.776 70.4989C105.676 70.4989 105.577 70.4989 105.478 70.494C99.3785 70.1868 96.7623 62.6006 97.4758 47.2895C97.5452 45.7931 98.6403 44.5444 100.112 44.2719C103.144 43.7169 105.914 43.3205 108.332 43.0975C110.052 42.934 111.598 44.1678 111.821 45.8823C112.48 50.8423 114.219 64.0227 109.967 68.6358C108.853 69.8449 107.371 70.4989 105.766 70.4989H105.776ZM103.828 50.1684C103.655 58.6762 104.804 62.4569 105.558 63.6709C106.103 62.2042 106.692 58.2104 105.82 49.8711C105.176 49.9603 104.512 50.0594 103.828 50.1684Z" fill="black"/>
<path d="M122.434 67.2724C127.34 67.5152 126.522 54.9641 125.531 47.1054C124.109 46.9468 121.889 46.7238 118.5 46.4414C118.178 46.4761 117.861 46.5157 117.534 46.5554C117.162 53.314 117.068 66.9999 122.434 67.2674V67.2724Z" fill="#FFB531"/>
<path d="M122.567 70.4968C122.468 70.4968 122.369 70.4968 122.27 70.4919C120.565 70.4076 119.024 69.6495 117.81 68.3018C114.867 65.0314 113.687 57.6583 114.312 46.3856C114.396 44.8347 115.58 43.5662 117.121 43.368C117.458 43.3234 117.795 43.2837 118.127 43.2491C118.335 43.2243 118.548 43.2243 118.756 43.2391C121.665 43.4819 124.058 43.7049 125.882 43.9081C127.363 44.0716 128.533 45.2311 128.721 46.7077C130.688 62.3458 128.538 66.7211 126.749 68.6486C125.634 69.8477 124.157 70.4968 122.562 70.4968H122.567ZM120.624 49.864C120.411 58.5403 121.571 62.4102 122.339 63.6589C122.805 62.4102 123.553 58.902 122.631 50.0523C122.007 49.9929 121.338 49.9285 120.624 49.869V49.864Z" fill="black"/>
<path d="M152.089 139.951C145.579 140.09 133.766 141.121 133.573 144.985C133.379 148.905 146.024 149.173 153.244 148.613C152.962 145.714 152.575 142.825 152.089 139.951Z" fill="#FFB531"/>
<path d="M147.186 152.067C141.715 152.067 134.763 151.472 131.939 148.727C130.844 147.657 130.279 146.274 130.348 144.822C130.601 139.758 137.543 138.366 139.822 137.91C144.485 136.978 149.901 136.775 152.012 136.726C153.607 136.711 154.99 137.836 155.257 139.411C155.753 142.345 156.149 145.333 156.442 148.296C156.526 149.158 156.258 150.015 155.703 150.679C155.148 151.343 154.346 151.754 153.484 151.819C152.175 151.918 149.856 152.062 147.186 152.062V152.067ZM138.49 144.867C140.918 145.402 145.045 145.714 149.658 145.575C149.559 144.807 149.455 144.034 149.346 143.271C144.262 143.539 140.595 144.198 138.49 144.867Z" fill="black"/>
<path d="M153.835 160.476C153.835 159.153 153.8 157.83 153.755 156.507C146.863 156.507 133.563 155.898 133.563 161.557C133.563 165.59 146.471 165.754 153.844 165.139L153.835 160.476Z" fill="#FFB531"/>
<path d="M147.135 168.643C141.67 168.643 134.966 168.048 132.097 165.412C130.645 164.079 130.343 162.578 130.343 161.557C130.343 159.808 131.012 158.222 132.275 156.969C135.818 153.451 143.285 153.213 151.952 153.277C152.586 153.277 153.19 153.287 153.755 153.287C155.49 153.287 156.912 154.665 156.971 156.399C157.021 157.915 157.05 159.248 157.05 160.467L157.06 165.13C157.06 166.809 155.782 168.207 154.107 168.345C152.685 168.464 150.089 168.638 147.13 168.638L147.135 168.643ZM137.409 161.151C139.594 161.909 144.648 162.385 150.619 162.117V160.482C150.619 160.229 150.619 159.971 150.614 159.709C147.829 159.694 144.623 159.724 141.863 160.056C139.391 160.353 138.083 160.814 137.414 161.151H137.409Z" fill="black"/>
<path d="M153.863 172.037C153.863 172.037 172.509 150.934 187.245 158.981C201.982 167.028 194.886 185.792 182.776 188.963C174.863 191.035 161.132 186.887 166.167 174.97C171.662 161.968 186.963 168.663 184.456 176.09C182.726 181.219 178.247 180.426 175.824 180.01" fill="#B25900"/>
<path d="M178.495 192.699C173.476 192.699 167.931 191.044 164.616 187.218C162.828 185.152 160.266 180.653 163.194 173.721C166.98 164.762 174.953 163.058 180.76 165.258C186.28 167.354 189.114 172.343 187.499 177.12C184.892 184.845 177.663 183.596 175.29 183.185C173.535 182.883 172.351 181.213 172.653 179.459C172.956 177.705 174.611 176.53 176.365 176.833C179.734 177.417 180.72 177.065 181.399 175.059C181.919 173.523 180.279 171.962 178.476 171.278C177.43 170.882 172.074 169.256 169.13 176.223C167.322 180.494 168.952 182.377 169.487 182.997C172.069 185.975 178.015 186.876 181.954 185.846C187.107 184.498 191.512 179.221 192.206 173.572C192.558 170.698 192.181 165.342 185.695 161.804C180.73 159.094 174.408 160.208 166.891 165.109C160.801 169.083 156.312 174.112 156.267 174.162C155.088 175.49 153.051 175.619 151.723 174.439C150.39 173.26 150.267 171.228 151.441 169.896C152.273 168.954 171.98 146.969 188.777 156.145C195.952 160.065 199.53 166.7 198.593 174.35C197.582 182.605 191.27 190.058 183.579 192.069C182.033 192.476 180.294 192.689 178.491 192.689L178.495 192.699Z" fill="black"/>
<path d="M152.087 139.951C145.576 140.09 133.57 138.856 133.57 144.986C133.57 148.91 146.022 149.173 153.242 148.613L152.087 139.951Z" fill="#FFB531"/>
<path d="M147.239 152.061C141.843 152.061 134.976 151.481 132.077 148.8C130.645 147.472 130.343 145.991 130.343 144.98C130.343 143.062 131.046 141.348 132.379 140.03C135.848 136.596 142.72 136.666 148.785 136.725C149.955 136.735 151.065 136.75 152.016 136.725C153.651 136.68 155.058 137.894 155.276 139.52L156.431 148.181C156.55 149.058 156.297 149.945 155.742 150.634C155.187 151.323 154.37 151.749 153.488 151.818C152.194 151.917 149.895 152.056 147.244 152.056L147.239 152.061ZM137.106 144.445C138.994 145.223 143.81 145.758 149.583 145.585L149.261 143.176C149.083 143.176 148.904 143.176 148.721 143.171C145.272 143.137 138.96 143.072 137.106 144.45V144.445Z" fill="black"/>
</svg>
