<?xml version="1.0" encoding="UTF-8"?>
<!DOCTYPE svg PUBLIC "-//W3C//DTD SVG 1.1//EN" "http://www.w3.org/Graphics/SVG/1.1/DTD/svg11.dtd">
<svg xmlns="http://www.w3.org/2000/svg" version="1.1" width="765px" height="765px" style="shape-rendering:geometricPrecision; text-rendering:geometricPrecision; image-rendering:optimizeQuality; fill-rule:evenodd; clip-rule:evenodd" xmlns:xlink="http://www.w3.org/1999/xlink">
<g><path style="opacity:0.984" fill="#010000" d="M 418.5,632.5 C 410.833,632.5 403.167,632.5 395.5,632.5C 395.134,646.386 390.467,658.552 381.5,669C 379.283,670.275 376.949,671.275 374.5,672C 342.833,672.667 311.167,672.667 279.5,672C 266.008,665.178 261.008,654.345 264.5,639.5C 266.956,632.213 271.956,627.38 279.5,625C 261.874,621.682 245.874,614.682 231.5,604C 219.324,591.819 211.157,577.319 207,560.5C 199.098,528.974 196.098,496.974 198,464.5C 198.977,448.427 200.31,432.427 202,416.5C 176.494,395.776 156.494,370.776 142,341.5C 134.037,324.352 130.704,306.352 132,287.5C 135.154,258.548 142.821,230.881 155,204.5C 160.837,193.663 168.504,184.33 178,176.5C 178.049,158.107 179.049,139.774 181,121.5C 182.098,112.469 185.931,104.969 192.5,99C 201.461,95.9679 209.461,97.6345 216.5,104C 220.667,108.167 224.833,112.333 229,116.5C 236.076,125.559 243.076,134.559 250,143.5C 278.573,134.885 307.74,129.552 337.5,127.5C 349.528,128.169 361.528,129.169 373.5,130.5C 374.833,130.167 376.167,129.833 377.5,129.5C 384.337,115.516 392.17,102.183 401,89.5C 404.534,85.6311 408.367,82.1311 412.5,79C 424.237,75.1178 432.404,78.9511 437,90.5C 443.682,109.921 447.348,129.921 448,150.5C 473.632,174.817 491.966,203.817 503,237.5C 515.013,285.087 507.68,329.42 481,370.5C 475.707,378.127 469.374,384.794 462,390.5C 465.425,413.062 468.425,435.729 471,458.5C 503.977,433.546 540.144,427.38 579.5,440C 608.306,455.747 622.639,480.247 622.5,513.5C 621.081,551.703 604.081,580.537 571.5,600C 538.788,616.513 504.121,626.179 467.5,629C 451.035,630.527 434.701,631.694 418.5,632.5 Z"/></g>
<g><path style="opacity:1" fill="#b15800" d="M 418.5,99.5 C 420.311,101.385 421.478,103.719 422,106.5C 426.153,122.569 428.153,138.902 428,155.5C 435.957,165.792 444.29,175.792 453,185.5C 472.909,209.659 484.909,237.326 489,268.5C 490.754,302.492 482.087,333.492 463,361.5C 458.075,368.427 451.908,373.927 444.5,378C 442.951,379.214 441.785,380.714 441,382.5C 441.608,391.493 442.441,400.493 443.5,409.5C 433.792,409.256 424.126,409.756 414.5,411C 403.426,412.608 395.592,418.441 391,428.5C 389.259,440.845 394.426,448.678 406.5,452C 420.999,455.075 435.666,456.241 450.5,455.5C 450.5,456.833 450.5,458.167 450.5,459.5C 434.743,458.239 419.409,460.073 404.5,465C 391.943,470.606 388.109,479.773 393,492.5C 396.755,497.295 401.588,500.462 407.5,502C 422.033,504.711 436.7,505.878 451.5,505.5C 451.334,509.846 451.501,514.179 452,518.5C 455.479,525.651 460.646,527.151 467.5,523C 482.329,506.174 499.996,493.174 520.5,484C 539.587,476.922 556.087,480.755 570,495.5C 577.023,506.101 578.356,517.434 574,529.5C 565.426,550.368 549.926,559.868 527.5,558C 504.154,553.286 498.654,540.786 511,520.5C 516.743,512.942 524.243,510.442 533.5,513C 541.426,514.247 544.593,518.747 543,526.5C 542.5,528.333 541.333,529.5 539.5,530C 535.304,530.664 531.138,530.497 527,529.5C 517.06,532.306 514.894,538.14 520.5,547C 521.833,547.667 523.167,548.333 524.5,549C 549.809,553.337 562.642,542.837 563,517.5C 556.567,500.762 544.233,492.428 526,492.5C 508.262,494.558 495.929,503.891 489,520.5C 480.275,552.509 492.441,571.342 525.5,577C 563.695,578.808 586.862,560.974 595,523.5C 596.703,490.181 581.203,469.681 548.5,462C 534.575,460.119 521.241,462.119 508.5,468C 495.094,474.786 482.594,482.953 471,492.5C 470.333,489.833 470.333,487.167 471,484.5C 496.621,459.627 527.121,449.793 562.5,455C 585.785,462.295 598.952,478.129 602,502.5C 605.131,536.398 592.631,562.564 564.5,581C 540.454,594.126 514.787,602.459 487.5,606C 451.707,611.674 415.707,613.674 379.5,612C 355.864,610.124 332.197,608.791 308.5,608C 292.392,607.26 276.726,604.26 261.5,599C 247.791,593.956 237.957,584.79 232,571.5C 223.916,550.587 219.249,528.92 218,506.5C 217.333,490.5 217.333,474.5 218,458.5C 219.262,442.082 220.928,425.749 223,409.5C 211.416,398.918 200.082,387.918 189,376.5C 171.932,358.079 159.932,336.746 153,312.5C 150.889,281.378 155.889,251.378 168,222.5C 171.816,214.869 176.149,207.536 181,200.5C 186.75,195.148 192.417,189.815 198,184.5C 198.333,167.833 198.667,151.167 199,134.5C 199.421,128.963 200.587,123.63 202.5,118.5C 216.058,131.22 227.558,145.554 237,161.5C 238.242,162.872 239.742,163.872 241.5,164.5C 242.322,177.781 245.488,190.448 251,202.5C 256.403,209.947 263.57,212.447 272.5,210C 282.036,204.781 286.869,196.615 287,185.5C 287.333,175.167 287.667,164.833 288,154.5C 289.011,153.663 290.178,153.33 291.5,153.5C 291.071,169.33 293.571,184.663 299,199.5C 304.207,208.853 312.04,212.353 322.5,210C 329.227,206.935 333.394,201.769 335,194.5C 337.702,178.912 338.202,163.245 336.5,147.5C 338.5,147.5 340.5,147.5 342.5,147.5C 342.258,159.533 342.758,171.533 344,183.5C 345.362,192.609 349.195,200.442 355.5,207C 371.281,214.194 381.448,209.361 386,192.5C 387.058,178.193 387.892,163.86 388.5,149.5C 389.478,149.023 390.311,148.357 391,147.5C 398.409,130.331 407.575,114.331 418.5,99.5 Z"/></g>
<g><path style="opacity:1" fill="#eca72d" d="M 312.5,149.5 C 314.167,149.5 315.833,149.5 317.5,149.5C 318.925,162.534 318.758,175.534 317,188.5C 316.667,189.167 316.333,189.833 316,190.5C 312.782,183.193 311.282,175.527 311.5,167.5C 311.211,161.409 311.545,155.409 312.5,149.5 Z"/></g>
<g><path style="opacity:1" fill="#f4ad2e" d="M 361.5,149.5 C 363.5,149.5 365.5,149.5 367.5,149.5C 368.574,160.473 368.74,171.473 368,182.5C 367.86,185.043 367.194,187.377 366,189.5C 363.728,184.41 362.394,179.077 362,173.5C 361.5,165.507 361.334,157.507 361.5,149.5 Z"/></g>
<g><path style="opacity:1" fill="#785516" d="M 312.5,149.5 C 311.545,155.409 311.211,161.409 311.5,167.5C 310.835,164.686 310.502,161.686 310.5,158.5C 310.517,155.087 311.184,152.087 312.5,149.5 Z"/></g>
<g><path style="opacity:1" fill="#f3ac2e" d="M 265.5,159.5 C 266.5,159.5 267.5,159.5 268.5,159.5C 268.666,168.173 268.5,176.84 268,185.5C 267.71,187.044 267.044,188.377 266,189.5C 262.625,180.124 261.125,170.457 261.5,160.5C 263.099,160.768 264.432,160.434 265.5,159.5 Z"/></g>
<g><path style="opacity:1" fill="#050200" d="M 280.5,275.5 C 291.055,275.54 294.889,280.54 292,290.5C 286.505,296.414 280.839,296.748 275,291.5C 272.011,284.483 273.844,279.15 280.5,275.5 Z"/></g>
<g><path style="opacity:1" fill="#050200" d="M 335.5,275.5 C 344.991,275.493 348.824,280.159 347,289.5C 338.311,298.561 331.811,297.394 327.5,286C 328.155,280.858 330.822,277.358 335.5,275.5 Z"/></g>
<g><path style="opacity:1" fill="#070301" d="M 296.5,328.5 C 303.841,328.334 311.174,328.5 318.5,329C 325.58,331.071 329.246,335.737 329.5,343C 329.828,352.064 326.828,359.73 320.5,366C 313.803,370.579 307.136,370.579 300.5,366C 292.085,358.97 287.252,350.136 286,339.5C 287.658,334.01 291.158,330.343 296.5,328.5 Z"/></g>
<g><path style="opacity:1" fill="#ea8e75" d="M 299.5,343.5 C 304.975,342.511 310.642,342.178 316.5,342.5C 316.139,346.67 315.139,350.67 313.5,354.5C 311.926,355.631 310.259,355.798 308.5,355C 304.877,351.551 301.877,347.717 299.5,343.5 Z"/></g>
<g><path style="opacity:1" fill="#e5a22c" d="M 425.5,428.5 C 432.833,428.5 440.167,428.5 447.5,428.5C 448.092,431.127 448.425,433.794 448.5,436.5C 436.743,436.885 425.076,436.051 413.5,434C 410.833,433 410.833,432 413.5,431C 417.665,430.295 421.665,429.461 425.5,428.5 Z"/></g>
<g><path style="opacity:1" fill="#e8a52c" d="M 428.5,478.5 C 436.167,478.5 443.833,478.5 451.5,478.5C 451.5,481.167 451.5,483.833 451.5,486.5C 439.086,486.763 426.752,485.929 414.5,484C 412.699,483.683 412.366,483.016 413.5,482C 418.545,480.425 423.545,479.259 428.5,478.5 Z"/></g>
<g><path style="opacity:1" fill="#ac5600" d="M 309.5,627.5 C 314.511,627.334 319.511,627.501 324.5,628C 315.555,634.206 312.222,642.539 314.5,653C 304.5,653.667 294.5,653.667 284.5,653C 282.32,650.582 281.987,647.916 283.5,645C 290.647,642.443 297.981,640.777 305.5,640C 309.165,636.702 310.498,632.535 309.5,627.5 Z"/></g>
<g><path style="opacity:1" fill="#ae5700" d="M 360.5,630.5 C 365.833,630.5 371.167,630.5 376.5,630.5C 376.061,638.256 374.061,645.589 370.5,652.5C 358.5,653.833 346.5,653.833 334.5,652.5C 332.256,647.673 333.589,644.506 338.5,643C 344.565,642.179 350.565,641.179 356.5,640C 359.288,637.477 360.621,634.31 360.5,630.5 Z"/></g>
<g><path style="opacity:0.985" fill="#d8d8d8" d="M 418.5,632.5 C 458.089,633.132 497.423,636.632 536.5,643C 554.645,645.493 571.645,651.159 587.5,660C 591.5,664.667 591.5,669.333 587.5,674C 577.601,680.081 566.934,684.414 555.5,687C 515.921,695.176 475.921,699.842 435.5,701C 369.818,704.116 304.484,700.783 239.5,691C 221.355,688.507 204.355,682.841 188.5,674C 185.197,670.205 184.697,666.038 187,661.5C 197.08,654.355 208.247,649.522 220.5,647C 235.01,643.526 249.677,641.026 264.5,639.5C 261.008,654.345 266.008,665.178 279.5,672C 311.167,672.667 342.833,672.667 374.5,672C 376.949,671.275 379.283,670.275 381.5,669C 390.467,658.552 395.134,646.386 395.5,632.5C 403.167,632.5 410.833,632.5 418.5,632.5 Z"/></g>
</svg>
