<svg width="1920" height="1080" viewBox="0 0 1920 1080" fill="none" xmlns="http://www.w3.org/2000/svg">
<g clip-path="url(#clip0_1615_9710)">
<rect width="1920" height="1080" fill="#D9EEF2"/>
<g opacity="0.7" filter="url(#filter0_f_1615_9710)">
<path d="M375 325.244C375.001 309.852 369.857 294.904 360.391 282.794C350.926 270.685 337.686 262.115 322.794 258.456C322.178 233.998 312.07 210.748 294.626 193.664C277.181 176.58 253.78 167.012 229.41 167C215.282 166.994 201.337 170.21 188.629 176.405C175.92 182.601 164.78 191.614 156.049 202.765C148.946 193.606 139.03 187.057 127.841 184.134C116.651 181.212 104.813 182.078 94.1643 186.6C83.5154 191.122 74.6509 199.046 68.9464 209.142C63.242 219.239 61.0164 230.944 62.6153 242.44C51.6554 240.449 40.3939 240.899 29.6263 243.758C18.8586 246.616 8.84752 251.813 0.300117 258.982C-8.24728 266.151 -15.1224 275.117 -19.8397 285.246C-24.557 295.375 -27.0013 306.42 -27 317.602C-27.0033 327.631 -25.0389 337.563 -21.2188 346.83C-17.3988 356.098 -11.798 364.519 -4.73628 371.613C2.32549 378.707 10.7099 384.336 19.9384 388.177C29.1668 392.018 39.0585 393.997 49.0486 394H306.664C324.8 393.96 342.178 386.698 354.985 373.807C367.792 360.916 375.007 343.451 375 325.244Z" fill="url(#paint0_linear_1615_9710)"/>
</g>
<g opacity="0.7" filter="url(#filter1_f_1615_9710)">
<path d="M1919 284.375C1919 279.086 1917.22 273.949 1913.95 269.788C1910.68 265.627 1906.1 262.683 1900.95 261.425C1900.74 253.021 1897.24 245.033 1891.21 239.162C1885.18 233.292 1877.09 230.004 1868.66 230C1863.77 229.998 1858.95 231.103 1854.56 233.232C1850.16 235.361 1846.31 238.458 1843.29 242.289C1840.84 239.142 1837.41 236.892 1833.54 235.888C1829.67 234.883 1825.58 235.181 1821.9 236.735C1818.21 238.289 1815.15 241.011 1813.18 244.481C1811.2 247.95 1810.43 251.972 1810.99 255.922C1807.2 255.238 1803.3 255.393 1799.58 256.375C1795.86 257.357 1792.4 259.143 1789.44 261.606C1786.48 264.07 1784.11 267.15 1782.48 270.631C1780.84 274.111 1780 277.907 1780 281.749C1780 285.195 1780.68 288.608 1782 291.792C1783.32 294.976 1785.26 297.87 1787.7 300.308C1790.14 302.745 1793.04 304.679 1796.23 305.999C1799.42 307.319 1802.84 307.999 1806.3 308H1895.37C1901.64 307.986 1907.65 305.491 1912.08 301.061C1916.51 296.632 1919 290.631 1919 284.375Z" fill="url(#paint1_linear_1615_9710)"/>
</g>
<g opacity="0.7" filter="url(#filter2_f_1615_9710)">
<path d="M1801 232.168C1801 224.37 1798.38 216.797 1793.55 210.662C1788.72 204.528 1781.97 200.186 1774.38 198.332C1774.06 185.942 1768.91 174.163 1760.01 165.508C1751.12 156.853 1739.18 152.006 1726.76 152C1719.55 151.997 1712.44 153.626 1705.96 156.765C1699.48 159.904 1693.8 164.47 1689.35 170.119C1685.72 165.479 1680.67 162.161 1674.96 160.68C1669.25 159.2 1663.22 159.639 1657.79 161.93C1652.36 164.22 1647.84 168.235 1644.93 173.35C1642.02 178.465 1640.88 184.394 1641.7 190.218C1636.11 189.21 1630.37 189.438 1624.88 190.886C1619.39 192.334 1614.28 194.967 1609.92 198.599C1605.56 202.231 1602.06 206.773 1599.65 211.904C1597.25 217.036 1596 222.631 1596 228.296C1596 233.377 1597 238.409 1598.95 243.104C1600.9 247.798 1603.75 252.065 1607.35 255.659C1610.95 259.253 1615.23 262.104 1619.94 264.05C1624.64 265.996 1629.69 266.998 1634.78 267H1766.15C1775.4 266.98 1784.26 263.301 1790.79 256.77C1797.32 250.24 1801 241.391 1801 232.168Z" fill="url(#paint2_linear_1615_9710)"/>
</g>
<g opacity="0.7" filter="url(#filter3_f_1615_9710)">
<path d="M723 494.123C723.001 483.816 719.558 473.807 713.224 465.698C706.891 457.59 698.031 451.851 688.066 449.401C687.654 433.024 680.89 417.456 669.217 406.017C657.544 394.577 641.885 388.17 625.578 388.162C616.124 388.158 606.793 390.311 598.289 394.46C589.785 398.609 582.331 404.644 576.488 412.111C571.735 405.978 565.1 401.593 557.612 399.635C550.125 397.678 542.203 398.259 535.078 401.286C527.952 404.314 522.02 409.62 518.203 416.381C514.386 423.142 512.897 430.979 513.966 438.677C506.633 437.344 499.097 437.645 491.892 439.559C484.686 441.473 477.988 444.953 472.268 449.754C466.548 454.554 461.948 460.557 458.791 467.34C455.635 474.122 453.999 481.518 454 489.006C453.998 495.721 455.312 502.372 457.868 508.577C460.425 514.783 464.172 520.421 468.898 525.172C473.623 529.922 479.234 533.691 485.409 536.263C491.584 538.835 498.203 540.16 504.888 540.162H677.273C689.408 540.135 701.037 535.272 709.607 526.641C718.177 518.009 723.004 506.314 723 494.123Z" fill="url(#paint3_linear_1615_9710)"/>
</g>
<g opacity="0.7" filter="url(#filter4_f_1615_9710)">
<path d="M320 914.537C320 909.248 318.222 904.111 314.949 899.951C311.676 895.79 307.098 892.845 301.949 891.587C301.736 883.183 298.241 875.195 292.209 869.324C286.177 863.454 278.086 860.166 269.659 860.162C264.774 860.16 259.953 861.265 255.558 863.394C251.164 865.523 247.312 868.62 244.293 872.451C241.837 869.304 238.408 867.054 234.539 866.05C230.67 865.045 226.577 865.343 222.895 866.897C219.213 868.451 216.148 871.173 214.176 874.643C212.203 878.112 211.434 882.134 211.986 886.084C208.197 885.4 204.303 885.555 200.58 886.537C196.857 887.519 193.395 889.305 190.44 891.768C187.484 894.232 185.107 897.312 183.476 900.793C181.845 904.273 181 908.069 181 911.911C180.999 915.357 181.678 918.77 182.999 921.954C184.32 925.138 186.256 928.032 188.698 930.47C191.14 932.907 194.039 934.841 197.23 936.161C200.421 937.481 203.841 938.161 207.295 938.162H296.371C302.642 938.148 308.651 935.653 313.079 931.224C317.508 926.794 320.002 920.793 320 914.537Z" fill="url(#paint4_linear_1615_9710)"/>
</g>
<g opacity="0.7" filter="url(#filter5_f_1615_9710)">
<path d="M242 851.123C242.001 840.816 238.558 830.807 232.224 822.698C225.891 814.59 217.031 808.851 207.066 806.401C206.654 790.024 199.89 774.456 188.217 763.017C176.544 751.577 160.885 745.17 144.578 745.162C135.124 745.158 125.793 747.311 117.289 751.46C108.785 755.609 101.331 761.644 95.4882 769.111C90.735 762.978 84.0998 758.593 76.6122 756.635C69.1246 754.678 61.2033 755.259 54.0776 758.286C46.9519 761.314 41.0202 766.62 37.203 773.381C33.3858 780.142 31.8966 787.979 32.9664 795.677C25.6326 794.344 18.0969 794.645 10.8917 796.559C3.68649 798.473 -3.01249 801.953 -8.73201 806.754C-14.4515 811.554 -19.0521 817.557 -22.2087 824.34C-25.3653 831.122 -27.0009 838.518 -27 846.006C-27.0022 852.721 -25.6877 859.372 -23.1315 865.577C-20.5753 871.783 -16.8275 877.421 -12.1021 882.172C-7.37673 886.922 -1.76623 890.691 4.40901 893.263C10.5843 895.835 17.2033 897.16 23.8883 897.162H196.273C208.408 897.135 220.037 892.272 228.607 883.641C237.177 875.009 242.004 863.314 242 851.123Z" fill="url(#paint5_linear_1615_9710)"/>
</g>
<g opacity="0.7" filter="url(#filter6_f_1615_9710)">
<path d="M1699 644.286C1699 628.419 1693.7 613.01 1683.96 600.527C1674.21 588.045 1660.57 579.21 1645.24 575.438C1644.6 550.226 1634.19 526.26 1616.23 508.648C1598.26 491.037 1574.16 481.174 1549.06 481.162C1534.51 481.155 1520.15 484.471 1507.07 490.857C1493.98 497.244 1482.5 506.536 1473.51 518.03C1466.2 508.589 1455.99 501.838 1444.46 498.825C1432.94 495.812 1420.75 496.705 1409.78 501.367C1398.81 506.028 1389.69 514.196 1383.81 524.604C1377.94 535.012 1375.64 547.077 1377.29 558.928C1366 556.876 1354.41 557.34 1343.32 560.287C1332.23 563.233 1321.92 568.591 1313.12 575.981C1304.31 583.371 1297.23 592.613 1292.37 603.054C1287.52 613.496 1285 624.882 1285 636.408C1285 646.747 1287.02 656.985 1290.95 666.538C1294.89 676.091 1300.66 684.772 1307.93 692.085C1315.2 699.398 1323.84 705.2 1333.34 709.159C1342.84 713.119 1353.03 715.159 1363.32 715.162H1628.62C1647.3 715.121 1665.2 707.634 1678.39 694.346C1691.58 681.058 1699.01 663.054 1699 644.286Z" fill="url(#paint6_linear_1615_9710)"/>
</g>
<g opacity="0.7" filter="url(#filter7_f_1615_9710)">
<path d="M1968 875.123C1968 864.816 1964.56 854.807 1958.22 846.698C1951.89 838.59 1943.03 832.851 1933.07 830.401C1932.65 814.024 1925.89 798.456 1914.22 787.017C1902.54 775.577 1886.88 769.17 1870.58 769.162C1861.12 769.158 1851.79 771.311 1843.29 775.46C1834.79 779.609 1827.33 785.644 1821.49 793.111C1816.74 786.978 1810.1 782.593 1802.61 780.635C1795.12 778.678 1787.2 779.259 1780.08 782.286C1772.95 785.314 1767.02 790.62 1763.2 797.381C1759.39 804.142 1757.9 811.979 1758.97 819.677C1751.63 818.344 1744.1 818.645 1736.89 820.559C1729.69 822.473 1722.99 825.953 1717.27 830.754C1711.55 835.554 1706.95 841.557 1703.79 848.34C1700.63 855.122 1699 862.518 1699 870.006C1699 876.721 1700.31 883.372 1702.87 889.577C1705.42 895.783 1709.17 901.421 1713.9 906.172C1718.62 910.922 1724.23 914.691 1730.41 917.263C1736.58 919.835 1743.2 921.16 1749.89 921.162H1922.27C1934.41 921.135 1946.04 916.272 1954.61 907.641C1963.18 899.009 1968 887.314 1968 875.123Z" fill="url(#paint7_linear_1615_9710)"/>
</g>
</g>
<defs>
<filter id="filter0_f_1615_9710" x="-42" y="152" width="432" height="257" filterUnits="userSpaceOnUse" color-interpolation-filters="sRGB">
<feFlood flood-opacity="0" result="BackgroundImageFix"/>
<feBlend mode="normal" in="SourceGraphic" in2="BackgroundImageFix" result="shape"/>
<feGaussianBlur stdDeviation="7.5" result="effect1_foregroundBlur_1615_9710"/>
</filter>
<filter id="filter1_f_1615_9710" x="1765" y="215" width="169" height="108" filterUnits="userSpaceOnUse" color-interpolation-filters="sRGB">
<feFlood flood-opacity="0" result="BackgroundImageFix"/>
<feBlend mode="normal" in="SourceGraphic" in2="BackgroundImageFix" result="shape"/>
<feGaussianBlur stdDeviation="7.5" result="effect1_foregroundBlur_1615_9710"/>
</filter>
<filter id="filter2_f_1615_9710" x="1581" y="137" width="235" height="145" filterUnits="userSpaceOnUse" color-interpolation-filters="sRGB">
<feFlood flood-opacity="0" result="BackgroundImageFix"/>
<feBlend mode="normal" in="SourceGraphic" in2="BackgroundImageFix" result="shape"/>
<feGaussianBlur stdDeviation="7.5" result="effect1_foregroundBlur_1615_9710"/>
</filter>
<filter id="filter3_f_1615_9710" x="439" y="373.162" width="299" height="182" filterUnits="userSpaceOnUse" color-interpolation-filters="sRGB">
<feFlood flood-opacity="0" result="BackgroundImageFix"/>
<feBlend mode="normal" in="SourceGraphic" in2="BackgroundImageFix" result="shape"/>
<feGaussianBlur stdDeviation="7.5" result="effect1_foregroundBlur_1615_9710"/>
</filter>
<filter id="filter4_f_1615_9710" x="166" y="845.162" width="169" height="108" filterUnits="userSpaceOnUse" color-interpolation-filters="sRGB">
<feFlood flood-opacity="0" result="BackgroundImageFix"/>
<feBlend mode="normal" in="SourceGraphic" in2="BackgroundImageFix" result="shape"/>
<feGaussianBlur stdDeviation="7.5" result="effect1_foregroundBlur_1615_9710"/>
</filter>
<filter id="filter5_f_1615_9710" x="-42" y="730.162" width="299" height="182" filterUnits="userSpaceOnUse" color-interpolation-filters="sRGB">
<feFlood flood-opacity="0" result="BackgroundImageFix"/>
<feBlend mode="normal" in="SourceGraphic" in2="BackgroundImageFix" result="shape"/>
<feGaussianBlur stdDeviation="7.5" result="effect1_foregroundBlur_1615_9710"/>
</filter>
<filter id="filter6_f_1615_9710" x="1270" y="466.162" width="444" height="264" filterUnits="userSpaceOnUse" color-interpolation-filters="sRGB">
<feFlood flood-opacity="0" result="BackgroundImageFix"/>
<feBlend mode="normal" in="SourceGraphic" in2="BackgroundImageFix" result="shape"/>
<feGaussianBlur stdDeviation="7.5" result="effect1_foregroundBlur_1615_9710"/>
</filter>
<filter id="filter7_f_1615_9710" x="1684" y="754.162" width="299" height="182" filterUnits="userSpaceOnUse" color-interpolation-filters="sRGB">
<feFlood flood-opacity="0" result="BackgroundImageFix"/>
<feBlend mode="normal" in="SourceGraphic" in2="BackgroundImageFix" result="shape"/>
<feGaussianBlur stdDeviation="7.5" result="effect1_foregroundBlur_1615_9710"/>
</filter>
<linearGradient id="paint0_linear_1615_9710" x1="174" y1="167" x2="174" y2="394" gradientUnits="userSpaceOnUse">
<stop stop-color="#FBFDFD"/>
<stop offset="1" stop-color="#FBFDFD" stop-opacity="0"/>
</linearGradient>
<linearGradient id="paint1_linear_1615_9710" x1="1849.5" y1="230" x2="1849.5" y2="308" gradientUnits="userSpaceOnUse">
<stop stop-color="#FBFDFD"/>
<stop offset="1" stop-color="#FBFDFD" stop-opacity="0"/>
</linearGradient>
<linearGradient id="paint2_linear_1615_9710" x1="1698.5" y1="152" x2="1698.5" y2="267" gradientUnits="userSpaceOnUse">
<stop stop-color="#FBFDFD"/>
<stop offset="1" stop-color="#FBFDFD" stop-opacity="0"/>
</linearGradient>
<linearGradient id="paint3_linear_1615_9710" x1="588.5" y1="388.162" x2="588.5" y2="540.162" gradientUnits="userSpaceOnUse">
<stop stop-color="#FBFDFD"/>
<stop offset="1" stop-color="#FBFDFD" stop-opacity="0"/>
</linearGradient>
<linearGradient id="paint4_linear_1615_9710" x1="250.5" y1="860.162" x2="250.5" y2="938.162" gradientUnits="userSpaceOnUse">
<stop stop-color="#FBFDFD"/>
<stop offset="1" stop-color="#FBFDFD" stop-opacity="0"/>
</linearGradient>
<linearGradient id="paint5_linear_1615_9710" x1="107.5" y1="745.162" x2="107.5" y2="897.162" gradientUnits="userSpaceOnUse">
<stop stop-color="#FBFDFD"/>
<stop offset="1" stop-color="#FBFDFD" stop-opacity="0"/>
</linearGradient>
<linearGradient id="paint6_linear_1615_9710" x1="1492" y1="481.162" x2="1492" y2="715.162" gradientUnits="userSpaceOnUse">
<stop stop-color="#FBFDFD"/>
<stop offset="1" stop-color="#FBFDFD" stop-opacity="0"/>
</linearGradient>
<linearGradient id="paint7_linear_1615_9710" x1="1833.5" y1="769.162" x2="1833.5" y2="921.162" gradientUnits="userSpaceOnUse">
<stop stop-color="#FBFDFD"/>
<stop offset="1" stop-color="#FBFDFD" stop-opacity="0"/>
</linearGradient>
<clipPath id="clip0_1615_9710">
<rect width="1920" height="1080" fill="white"/>
</clipPath>
</defs>
</svg>
