<svg width="1920" height="1080" viewBox="0 0 1920 1080" fill="none" xmlns="http://www.w3.org/2000/svg">
<g clip-path="url(#clip0_1077_19190)">
<rect width="1920" height="1080" fill="#DEECEF"/>
<path opacity="0.5" d="M317.231 344.769C317.231 339.344 315.411 334.076 312.062 329.809C308.713 325.541 304.029 322.521 298.76 321.231C298.542 312.612 294.966 304.418 288.794 298.397C282.622 292.376 274.342 289.004 265.72 289C260.721 288.998 255.788 290.131 251.291 292.315C246.795 294.498 242.854 297.675 239.764 301.604C237.251 298.377 233.743 296.069 229.784 295.039C225.825 294.008 221.637 294.314 217.869 295.908C214.101 297.501 210.965 300.294 208.947 303.852C206.928 307.41 206.141 311.535 206.707 315.587C202.829 314.885 198.845 315.044 195.035 316.051C191.225 317.059 187.683 318.89 184.659 321.417C181.635 323.943 179.202 327.103 177.533 330.673C175.864 334.242 175 338.135 175 342.076C174.999 345.61 175.694 349.11 177.045 352.376C178.397 355.642 180.379 358.61 182.877 361.11C185.376 363.611 188.342 365.594 191.607 366.948C194.872 368.301 198.372 368.999 201.907 369H293.053C299.47 368.986 305.618 366.426 310.15 361.884C314.681 357.341 317.233 351.185 317.231 344.769Z" fill="url(#paint0_linear_1077_19190)"/>
<path opacity="0.5" d="M1630.23 344.769C1630.23 339.344 1628.41 334.076 1625.06 329.809C1621.71 325.541 1617.03 322.521 1611.76 321.231C1611.54 312.612 1607.97 304.418 1601.79 298.397C1595.62 292.376 1587.34 289.004 1578.72 289C1573.72 288.998 1568.79 290.131 1564.29 292.315C1559.8 294.498 1555.85 297.675 1552.76 301.604C1550.25 298.377 1546.74 296.069 1542.78 295.039C1538.82 294.008 1534.64 294.314 1530.87 295.908C1527.1 297.501 1523.96 300.294 1521.95 303.852C1519.93 307.41 1519.14 311.535 1519.71 315.587C1515.83 314.885 1511.84 315.044 1508.03 316.051C1504.23 317.059 1500.68 318.89 1497.66 321.417C1494.63 323.943 1492.2 327.103 1490.53 330.673C1488.86 334.242 1488 338.135 1488 342.076C1488 345.61 1488.69 349.11 1490.05 352.376C1491.4 355.642 1493.38 358.61 1495.88 361.11C1498.38 363.611 1501.34 365.594 1504.61 366.948C1507.87 368.301 1511.37 368.999 1514.91 369H1606.05C1612.47 368.986 1618.62 366.426 1623.15 361.884C1627.68 357.341 1630.23 351.185 1630.23 344.769Z" fill="url(#paint1_linear_1077_19190)"/>
<path opacity="0.5" d="M448 281.827C448 277.758 446.644 273.807 444.148 270.606C441.652 267.406 438.161 265.14 434.234 264.173C434.072 257.709 431.407 251.563 426.807 247.048C422.207 242.532 416.036 240.003 409.611 240C405.885 239.998 402.208 240.848 398.857 242.486C395.506 244.124 392.569 246.506 390.267 249.453C388.394 247.032 385.779 245.301 382.829 244.529C379.878 243.756 376.757 243.985 373.949 245.181C371.141 246.376 368.803 248.47 367.299 251.139C365.795 253.808 365.208 256.901 365.63 259.94C362.74 259.414 359.771 259.533 356.931 260.288C354.092 261.044 351.452 262.418 349.199 264.312C346.945 266.207 345.132 268.577 343.888 271.254C342.644 273.932 342 276.851 342 279.807C341.999 282.458 342.517 285.083 343.524 287.532C344.532 289.982 346.008 292.208 347.871 294.083C349.733 295.958 351.943 297.446 354.377 298.461C356.81 299.476 359.418 299.999 362.053 300H429.981C434.763 299.989 439.345 298.07 442.722 294.663C446.099 291.255 448.002 286.639 448 281.827Z" fill="url(#paint2_linear_1077_19190)"/>
<path opacity="0.5" d="M158 286.682C158 279.223 155.505 271.98 150.914 266.112C146.322 260.244 139.9 256.091 132.676 254.318C132.377 242.466 127.474 231.2 119.013 222.921C110.551 214.642 99.1992 210.006 87.3779 210C80.5249 209.997 73.7607 211.555 67.5961 214.558C61.4316 217.56 56.0277 221.928 51.7926 227.331C48.347 222.893 43.537 219.719 38.1092 218.303C32.6814 216.887 26.9392 217.307 21.7737 219.498C16.6082 221.689 12.3083 225.529 9.54119 230.421C6.77409 235.314 5.69455 240.986 6.4701 246.557C1.15375 245.592 -4.30892 245.81 -9.53203 247.195C-14.7551 248.58 -19.6113 251.099 -23.7574 254.573C-27.9035 258.047 -31.2385 262.391 -33.5267 267.3C-35.815 272.208 -37.0006 277.561 -37 282.979C-37.0016 287.839 -36.0487 292.652 -34.1957 297.143C-32.3427 301.633 -29.6259 305.714 -26.2004 309.152C-22.7749 312.589 -18.7079 315.317 -14.2314 317.178C-9.75491 319.04 -4.95671 319.998 -0.110739 320H124.852C133.649 319.981 142.079 316.461 148.291 310.215C154.504 303.968 158.003 295.505 158 286.682Z" fill="url(#paint3_linear_1077_19190)"/>
<path opacity="0.5" d="M1761 281.827C1761 277.758 1759.64 273.807 1757.15 270.606C1754.65 267.406 1751.16 265.14 1747.23 264.173C1747.07 257.709 1744.41 251.563 1739.81 247.048C1735.21 242.532 1729.04 240.003 1722.61 240C1718.89 239.998 1715.21 240.848 1711.86 242.486C1708.51 244.124 1705.57 246.506 1703.27 249.453C1701.39 247.032 1698.78 245.301 1695.83 244.529C1692.88 243.756 1689.76 243.985 1686.95 245.181C1684.14 246.376 1681.8 248.47 1680.3 251.139C1678.8 253.808 1678.21 256.901 1678.63 259.94C1675.74 259.414 1672.77 259.533 1669.93 260.288C1667.09 261.044 1664.45 262.418 1662.2 264.312C1659.94 266.207 1658.13 268.577 1656.89 271.254C1655.64 273.932 1655 276.851 1655 279.807C1655 282.458 1655.52 285.083 1656.52 287.532C1657.53 289.982 1659.01 292.208 1660.87 294.083C1662.73 295.958 1664.94 297.446 1667.38 298.461C1669.81 299.476 1672.42 299.999 1675.05 300H1742.98C1747.76 299.989 1752.35 298.07 1755.72 294.663C1759.1 291.255 1761 286.639 1761 281.827Z" fill="url(#paint4_linear_1077_19190)"/>
<path opacity="0.5" d="M619 328.408C619 321.559 616.71 314.909 612.495 309.521C608.28 304.133 602.385 300.32 595.754 298.692C595.48 287.81 590.979 277.465 583.211 269.864C575.444 262.262 565.024 258.005 554.172 258C547.882 257.997 541.673 259.428 536.014 262.185C530.355 264.941 525.395 268.952 521.507 273.913C518.344 269.838 513.929 266.924 508.946 265.624C503.964 264.323 498.693 264.709 493.951 266.721C489.21 268.733 485.262 272.258 482.722 276.751C480.182 281.243 479.191 286.451 479.903 291.566C475.023 290.68 470.009 290.88 465.214 292.152C460.42 293.424 455.962 295.736 452.156 298.926C448.35 302.116 445.289 306.105 443.188 310.612C441.088 315.118 439.999 320.033 440 325.008C439.999 329.47 440.873 333.889 442.574 338.013C444.275 342.136 446.769 345.883 449.913 349.039C453.058 352.196 456.791 354.7 460.9 356.409C465.01 358.118 469.414 358.999 473.862 359H588.572C596.647 358.982 604.385 355.751 610.088 350.015C615.791 344.28 619.003 336.509 619 328.408Z" fill="url(#paint5_linear_1077_19190)"/>
<path opacity="0.5" d="M906 348.827C906 344.758 904.644 340.807 902.148 337.606C899.652 334.406 896.161 332.14 892.234 331.173C892.072 324.709 889.407 318.563 884.807 314.048C880.207 309.532 874.036 307.003 867.611 307C863.885 306.998 860.208 307.848 856.857 309.486C853.506 311.124 850.569 313.506 848.267 316.453C846.394 314.032 843.779 312.301 840.829 311.529C837.878 310.756 834.757 310.985 831.949 312.181C829.141 313.376 826.803 315.47 825.299 318.139C823.795 320.808 823.208 323.901 823.63 326.94C820.74 326.414 817.771 326.533 814.931 327.288C812.092 328.044 809.452 329.418 807.199 331.312C804.945 333.207 803.132 335.577 801.888 338.254C800.644 340.932 800 343.851 800 346.807C799.999 349.458 800.517 352.083 801.524 354.532C802.532 356.982 804.008 359.208 805.871 361.083C807.733 362.958 809.943 364.446 812.377 365.461C814.81 366.476 817.418 366.999 820.053 367H887.981C892.763 366.989 897.345 365.07 900.722 361.663C904.099 358.255 906.002 353.639 906 348.827Z" fill="url(#paint6_linear_1077_19190)"/>
<path opacity="0.5" d="M838 310.408C838 303.559 835.71 296.909 831.495 291.521C827.28 286.133 821.385 282.32 814.754 280.692C814.48 269.81 809.979 259.465 802.211 251.864C794.444 244.262 784.024 240.005 773.172 240C766.882 239.997 760.673 241.428 755.014 244.185C749.355 246.941 744.395 250.952 740.507 255.913C737.344 251.838 732.929 248.924 727.946 247.624C722.964 246.323 717.693 246.709 712.951 248.721C708.21 250.733 704.262 254.258 701.722 258.751C699.182 263.243 698.191 268.451 698.903 273.566C694.023 272.68 689.009 272.88 684.214 274.152C679.42 275.424 674.962 277.736 671.156 280.926C667.35 284.116 664.289 288.105 662.188 292.612C660.088 297.118 658.999 302.033 659 307.008C658.999 311.47 659.873 315.889 661.574 320.013C663.275 324.136 665.769 327.883 668.913 331.039C672.058 334.196 675.791 336.7 679.9 338.409C684.01 340.118 688.414 340.999 692.862 341H807.572C815.647 340.982 823.385 337.751 829.088 332.015C834.791 326.28 838.003 318.509 838 310.408Z" fill="url(#paint7_linear_1077_19190)"/>
<path opacity="0.5" d="M1932 328.408C1932 321.559 1929.71 314.909 1925.5 309.521C1921.28 304.133 1915.39 300.32 1908.75 298.692C1908.48 287.81 1903.98 277.465 1896.21 269.864C1888.44 262.262 1878.02 258.005 1867.17 258C1860.88 257.997 1854.67 259.428 1849.01 262.185C1843.36 264.941 1838.39 268.952 1834.51 273.913C1831.34 269.838 1826.93 266.924 1821.95 265.624C1816.96 264.323 1811.69 264.709 1806.95 266.721C1802.21 268.733 1798.26 272.258 1795.72 276.751C1793.18 281.243 1792.19 286.451 1792.9 291.566C1788.02 290.68 1783.01 290.88 1778.21 292.152C1773.42 293.424 1768.96 295.736 1765.16 298.926C1761.35 302.116 1758.29 306.105 1756.19 310.612C1754.09 315.118 1753 320.033 1753 325.008C1753 329.47 1753.87 333.889 1755.57 338.013C1757.28 342.136 1759.77 345.883 1762.91 349.039C1766.06 352.196 1769.79 354.7 1773.9 356.409C1778.01 358.118 1782.41 358.999 1786.86 359H1901.57C1909.65 358.982 1917.39 355.751 1923.09 350.015C1928.79 344.28 1932 336.509 1932 328.408Z" fill="url(#paint8_linear_1077_19190)"/>
<path opacity="0.5" d="M1151 308.831C1151 302.525 1148.89 296.401 1145 291.44C1141.12 286.479 1135.68 282.968 1129.57 281.469C1129.32 271.448 1125.17 261.923 1118.01 254.924C1110.85 247.925 1101.25 244.005 1091.24 244C1085.44 243.997 1079.72 245.315 1074.5 247.853C1069.29 250.392 1064.72 254.084 1061.13 258.653C1058.22 254.9 1054.15 252.217 1049.55 251.02C1044.96 249.822 1040.1 250.177 1035.73 252.03C1031.36 253.883 1027.72 257.129 1025.38 261.265C1023.04 265.402 1022.13 270.197 1022.78 274.907C1018.28 274.092 1013.66 274.276 1009.24 275.447C1004.82 276.618 1000.71 278.747 997.205 281.684C993.697 284.621 990.875 288.295 988.939 292.444C987.003 296.594 985.999 301.119 986 305.7C985.999 309.809 986.805 313.878 988.373 317.675C989.941 321.472 992.24 324.922 995.138 327.828C998.037 330.735 1001.48 333.041 1005.27 334.614C1009.05 336.188 1013.11 336.999 1017.21 337H1122.95C1130.4 336.984 1137.53 334.008 1142.78 328.727C1148.04 323.446 1151 316.29 1151 308.831Z" fill="url(#paint9_linear_1077_19190)"/>
<path opacity="0.5" d="M1269.89 357.856C1269.89 354.465 1268.76 351.173 1266.66 348.505C1264.57 345.838 1261.64 343.95 1258.35 343.144C1258.21 337.757 1255.98 332.636 1252.12 328.873C1248.26 325.11 1243.09 323.003 1237.7 323C1234.58 322.999 1231.49 323.707 1228.68 325.072C1225.87 326.436 1223.41 328.422 1221.48 330.878C1219.91 328.86 1217.71 327.418 1215.24 326.774C1212.77 326.13 1210.15 326.321 1207.79 327.317C1205.44 328.313 1203.48 330.059 1202.22 332.282C1200.96 334.506 1200.46 337.084 1200.82 339.617C1198.39 339.178 1195.9 339.277 1193.52 339.907C1191.14 340.537 1188.93 341.681 1187.04 343.26C1185.15 344.839 1183.63 346.814 1182.58 349.045C1181.54 351.276 1181 353.709 1181 356.172C1181 358.381 1181.43 360.569 1182.28 362.61C1183.12 364.651 1184.36 366.506 1185.92 368.069C1187.48 369.632 1189.34 370.871 1191.38 371.717C1193.42 372.563 1195.61 372.999 1197.82 373H1254.78C1258.79 372.991 1262.64 371.392 1265.47 368.552C1268.3 365.713 1269.9 361.866 1269.89 357.856Z" fill="url(#paint10_linear_1077_19190)"/>
<path opacity="0.5" d="M1463 287.62C1463 281.042 1460.8 274.655 1456.75 269.48C1452.7 264.306 1447.04 260.644 1440.66 259.08C1440.4 248.629 1436.07 238.694 1428.61 231.394C1421.15 224.094 1411.13 220.005 1400.71 220C1394.66 219.997 1388.7 221.371 1383.26 224.019C1377.82 226.667 1373.06 230.518 1369.32 235.283C1366.28 231.369 1362.04 228.571 1357.25 227.322C1352.46 226.073 1347.4 226.443 1342.84 228.375C1338.29 230.308 1334.49 233.694 1332.05 238.008C1329.61 242.322 1328.66 247.324 1329.34 252.236C1324.65 251.386 1319.84 251.578 1315.23 252.8C1310.62 254.021 1306.34 256.242 1302.68 259.305C1299.02 262.369 1296.08 266.2 1294.06 270.528C1292.05 274.856 1291 279.576 1291 284.354C1291 288.64 1291.84 292.884 1293.47 296.844C1295.11 300.804 1297.5 304.402 1300.53 307.434C1303.55 310.465 1307.13 312.87 1311.08 314.512C1315.03 316.153 1319.26 316.999 1323.54 317H1433.76C1441.52 316.983 1448.96 313.88 1454.44 308.371C1459.92 302.863 1463 295.4 1463 287.62Z" fill="url(#paint11_linear_1077_19190)"/>
</g>
<defs>
<linearGradient id="paint0_linear_1077_19190" x1="246.116" y1="298" x2="246.116" y2="369" gradientUnits="userSpaceOnUse">
<stop stop-color="#FBFDFD"/>
<stop offset="1" stop-color="#FBFDFD" stop-opacity="0"/>
</linearGradient>
<linearGradient id="paint1_linear_1077_19190" x1="1559.12" y1="298" x2="1559.12" y2="369" gradientUnits="userSpaceOnUse">
<stop stop-color="#FBFDFD"/>
<stop offset="1" stop-color="#FBFDFD" stop-opacity="0"/>
</linearGradient>
<linearGradient id="paint2_linear_1077_19190" x1="395" y1="240" x2="395" y2="300" gradientUnits="userSpaceOnUse">
<stop stop-color="#FBFDFD"/>
<stop offset="1" stop-color="#FBFDFD" stop-opacity="0"/>
</linearGradient>
<linearGradient id="paint3_linear_1077_19190" x1="60.5" y1="210" x2="60.5" y2="320" gradientUnits="userSpaceOnUse">
<stop stop-color="#FBFDFD"/>
<stop offset="1" stop-color="#FBFDFD" stop-opacity="0"/>
</linearGradient>
<linearGradient id="paint4_linear_1077_19190" x1="1708" y1="240" x2="1708" y2="300" gradientUnits="userSpaceOnUse">
<stop stop-color="#FBFDFD"/>
<stop offset="1" stop-color="#FBFDFD" stop-opacity="0"/>
</linearGradient>
<linearGradient id="paint5_linear_1077_19190" x1="529.5" y1="258" x2="529.5" y2="359" gradientUnits="userSpaceOnUse">
<stop stop-color="#FBFDFD"/>
<stop offset="1" stop-color="#FBFDFD" stop-opacity="0"/>
</linearGradient>
<linearGradient id="paint6_linear_1077_19190" x1="853" y1="307" x2="853" y2="367" gradientUnits="userSpaceOnUse">
<stop stop-color="#FBFDFD"/>
<stop offset="1" stop-color="#FBFDFD" stop-opacity="0"/>
</linearGradient>
<linearGradient id="paint7_linear_1077_19190" x1="748.5" y1="240" x2="748.5" y2="341" gradientUnits="userSpaceOnUse">
<stop stop-color="#FBFDFD"/>
<stop offset="1" stop-color="#FBFDFD" stop-opacity="0"/>
</linearGradient>
<linearGradient id="paint8_linear_1077_19190" x1="1842.5" y1="258" x2="1842.5" y2="359" gradientUnits="userSpaceOnUse">
<stop stop-color="#FBFDFD"/>
<stop offset="1" stop-color="#FBFDFD" stop-opacity="0"/>
</linearGradient>
<linearGradient id="paint9_linear_1077_19190" x1="1068.5" y1="244" x2="1068.37" y2="345.719" gradientUnits="userSpaceOnUse">
<stop stop-color="#FBFDFD"/>
<stop offset="1" stop-color="#FBFDFD" stop-opacity="0"/>
</linearGradient>
<linearGradient id="paint10_linear_1077_19190" x1="1225.45" y1="323" x2="1225.45" y2="373" gradientUnits="userSpaceOnUse">
<stop stop-color="#FBFDFD"/>
<stop offset="1" stop-color="#FBFDFD" stop-opacity="0"/>
</linearGradient>
<linearGradient id="paint11_linear_1077_19190" x1="1377" y1="220" x2="1377" y2="317" gradientUnits="userSpaceOnUse">
<stop stop-color="#FBFDFD"/>
<stop offset="1" stop-color="#FBFDFD" stop-opacity="0"/>
</linearGradient>
<clipPath id="clip0_1077_19190">
<rect width="1920" height="1080" fill="white"/>
</clipPath>
</defs>
</svg>
