<svg width="209" height="243" viewBox="0 0 209 243" fill="none" xmlns="http://www.w3.org/2000/svg">
<path d="M20.721 122.624C20.2332 122.624 19.7377 122.481 19.3041 122.187C19.2693 122.164 16.4393 120.228 13.6171 118.284C12.3357 119.655 10.582 121.064 8.45667 121.064C7.24881 121.064 6.11838 120.6 5.18152 119.717C2.85098 117.526 3.6717 114.34 4.91053 111.885C4.3608 111.343 3.82268 110.72 3.40458 110.027C2.18124 108.006 2.2277 105.784 3.53621 103.933C4.53501 102.524 6.06806 101.746 7.85661 101.746C11.3718 101.746 15.1618 104.766 16.0212 105.494L25.8622 113.019C26.9384 113.84 27.1707 115.365 26.3887 116.473L22.7806 121.567C22.2889 122.26 21.5147 122.632 20.7249 122.632L20.721 122.624Z" fill="#EF9178"/>
<path d="M7.85311 104.259C10.7024 104.259 14.4382 107.449 14.4382 107.449L24.3295 115.013L20.7214 120.108C20.7214 120.108 16.4784 117.208 13.1646 114.913C12.3206 115.962 10.3772 118.544 8.45317 118.544C7.92667 118.544 7.40017 118.35 6.90077 117.878C5.24384 116.318 6.91625 113.167 8.13572 111.332C6.30458 109.942 3.91984 107.735 5.58451 105.381C6.16134 104.568 6.96271 104.259 7.84924 104.259M7.85311 99.2259C5.22448 99.2259 2.95975 100.38 1.47703 102.478C-0.408304 105.145 -0.493473 108.451 1.24863 111.328C1.46155 111.68 1.6977 112.017 1.94159 112.334C1.82158 112.652 1.71318 112.961 1.62027 113.271C0.238208 117.886 2.44099 120.599 3.45528 121.552C4.86832 122.88 6.5988 123.584 8.45704 123.584C10.6172 123.584 12.4213 122.651 13.8537 121.505C16.0332 123.004 17.8566 124.25 17.8876 124.27C18.7548 124.862 19.7458 125.148 20.7253 125.148C22.3048 125.148 23.8572 124.409 24.8366 123.023L28.4447 117.928C30.0087 115.718 29.5442 112.667 27.3956 111.022L17.605 103.531C16.2616 102.404 12.1038 99.2298 7.86473 99.2298L7.85311 99.2259Z" fill="black"/>
<path d="M65.3151 112.628C65.2067 112.628 65.0983 112.621 64.9899 112.609L58.7996 111.808C57.4563 111.633 56.4923 110.429 56.6162 109.082L57.7543 96.7481C57.9518 91.9864 59.7984 86.4659 64.3705 86.4659C64.6027 86.4659 64.8389 86.4814 65.0712 86.5123C67.3165 86.8066 68.9851 88.2738 69.6393 90.5463C69.8639 91.3244 69.9607 92.1412 69.9839 92.9155C72.628 93.6704 75.5276 95.2267 75.5586 98.4244C75.5741 99.7755 75.1056 100.964 74.2152 101.866C73.05 103.047 71.273 103.631 68.7876 103.655C68.3037 107.05 67.8082 110.441 67.8005 110.484C67.6185 111.734 66.5461 112.636 65.3151 112.636V112.628Z" fill="#EF9178"/>
<path d="M64.3666 88.9784C64.4866 88.9784 64.6144 88.9861 64.7422 89.0016C67.6031 89.3733 67.6069 92.6252 67.3901 94.9132C69.5697 95.2616 73.0191 96.1675 73.0423 98.4438C73.0655 100.732 70.6421 101.131 68.6328 101.131C67.8353 101.131 67.0998 101.069 66.612 101.034C66.0545 105.021 65.3074 110.112 65.3074 110.112L59.1171 109.311L60.2592 96.9108C60.2592 96.9108 60.565 88.9784 64.3628 88.9784M64.3666 83.9457C62.5007 83.9457 57.9596 84.6928 56.0394 91.5993C55.4277 93.806 55.2729 95.9352 55.238 96.5623L54.1076 108.854C53.8598 111.548 55.7878 113.96 58.4745 114.305L64.6647 115.106C64.8854 115.133 65.1022 115.149 65.319 115.149C67.7811 115.149 69.9259 113.345 70.2936 110.844C70.2975 110.809 70.6188 108.622 70.9944 106.001C73.1004 105.683 74.7495 104.897 76.0039 103.631C77.3588 102.261 78.0982 100.399 78.075 98.3935C78.0595 97.0037 77.5601 93.5427 73.232 91.4328C72.9455 91.2935 72.6435 91.158 72.3261 91.0341C72.2603 90.6392 72.1712 90.2405 72.0551 89.8417C71.1221 86.613 68.629 84.4335 65.3925 84.0115C65.0519 83.965 64.7034 83.9457 64.3666 83.9457Z" fill="black"/>
<path d="M128.058 229.934C128.058 229.934 130.35 226.457 130.404 221.746C130.443 218.502 127.632 213.899 123.846 211.688C114.837 206.435 106.843 212.853 106.843 212.853C106.843 212.853 113.471 209.121 115.174 202.943C116.022 199.865 114.609 195.514 112.615 192.029C108.179 184.287 95.2252 186.753 95.2252 186.753C95.2252 186.753 103.382 186.23 107.304 181.519C109.088 179.374 108.817 174.651 108.426 170.683C107.176 157.985 92.1397 161.694 92.1397 161.694C92.1397 161.694 106.522 159.22 104.845 146.832C104.307 142.856 102.503 140.649 100.85 138.876C95.7478 133.386 90.9086 136.832 90.9086 136.832C90.9086 136.832 103.165 131.532 97.2654 120.305C95.0819 116.151 93.0146 114.622 89.0891 113.976C83.9441 113.132 78.9927 115.981 78.9927 115.981L85.5817 170.389L98.0435 208.947L119.359 225.342L128.05 229.922L128.058 229.934Z" fill="#33758E"/>
<path d="M128.906 233.224L118.004 227.479L95.8988 210.476L83.1234 170.942L79.9024 144.342L70.0615 148.597L79.5966 141.807L76.306 114.638L77.75 113.805C77.9823 113.67 83.5492 110.515 89.5111 111.498C94.2806 112.28 96.9905 114.351 99.5068 119.136C101.535 122.992 101.942 126.701 100.719 130.162C100.188 131.66 99.3985 132.961 98.5003 134.072C99.8862 134.679 101.315 135.663 102.705 137.161C104.76 139.372 106.746 142.035 107.35 146.495C108.062 151.748 106.406 156.2 102.542 159.51C103.738 159.897 104.911 160.443 105.987 161.206C108.872 163.246 110.536 166.351 110.939 170.439C111.392 175.05 111.674 180.214 109.243 183.129C108.67 183.814 108.032 184.426 107.35 184.968C110.269 185.94 113.037 187.697 114.802 190.783C116.088 193.028 118.937 198.777 117.605 203.612C117.261 204.863 116.75 206.024 116.146 207.085C118.871 207.035 121.933 207.654 125.12 209.512C129.548 212.094 132.978 217.483 132.928 221.773C132.862 227.158 130.276 231.145 130.164 231.312L128.91 233.216L128.906 233.224ZM120.729 223.228L126.939 226.5C127.408 225.28 127.868 223.608 127.891 221.715C127.919 219.485 125.654 215.656 122.58 213.864C117.09 210.662 112.015 212.687 109.716 213.98C109.526 214.115 109.352 214.239 109.189 214.348L120.729 223.225V223.228ZM100.204 207.441L105.891 211.816L105.267 210.894C105.36 210.821 105.953 210.356 106.944 209.772C108.728 208.467 111.775 205.8 112.747 202.277C113.308 200.248 112.398 196.718 110.432 193.284C107.791 188.677 100.757 188.712 97.4512 189.006C96.2743 189.203 95.4923 189.257 95.3839 189.265L94.7529 184.283C94.8845 184.26 95.6549 184.116 96.8356 184.004C99.1584 183.594 103.188 182.529 105.372 179.908C106.224 178.882 106.413 175.863 105.926 170.931C105.67 168.325 104.737 166.486 103.076 165.313C99.8437 163.025 94.6754 163.769 93.1695 164.051C92.8172 164.133 92.6043 164.167 92.5694 164.175L91.5397 159.251C91.5977 159.235 91.8532 159.173 92.2713 159.096C94.6445 158.538 103.529 155.856 102.352 147.168C101.915 143.944 100.521 142.217 99.0075 140.587C96.5182 137.908 94.327 138.09 93.154 138.504C92.4533 138.899 91.9771 139.108 91.9074 139.139L84.7106 142.252L88.0516 169.85L100.196 207.437L100.204 207.441ZM81.7181 117.495L84.2616 138.485L89.4569 134.784C89.8634 134.494 90.3783 134.207 90.9783 133.959C92.4417 133.092 95.0122 131.238 95.9762 128.466C96.7118 126.356 96.4059 124.072 95.0471 121.482C93.0804 117.739 91.5629 116.937 88.6904 116.465C86.023 116.027 83.3247 116.844 81.7181 117.491V117.495Z" fill="black"/>
<path d="M58.331 216.624C58.149 218.525 59.1478 240.375 53.1666 240.375H41.6184C41.6184 240.375 38.5369 240.193 38.5369 236.116C38.5369 232.04 45.6679 232.311 45.6679 232.311L44.2432 213.562" fill="#A3C8D2"/>
<path d="M53.1708 242.891H41.4755C39.2844 242.759 36.0286 240.847 36.0286 236.116C36.0286 234.595 36.6054 233.232 37.701 232.179C39.1489 230.785 41.2549 230.197 42.9737 229.953L41.7426 213.755L46.7599 213.376L48.3975 234.939L45.5791 234.831C44.2126 234.788 41.9207 235.102 41.189 235.81C41.0923 235.907 41.0613 235.957 41.0613 236.12C41.0613 236.836 41.1929 237.707 41.8085 237.862H53.1166C53.3218 237.703 54.5761 236.507 55.2884 230.301C55.7801 226.016 55.7878 221.211 55.7917 218.625C55.7917 217.348 55.7956 216.771 55.8343 216.388L60.8438 216.86C60.8283 217.061 60.8283 217.898 60.8244 218.633C60.8051 231.234 59.8643 242.895 53.1747 242.895L53.1708 242.891Z" fill="black"/>
<path d="M68.9461 216.624C68.7641 218.525 69.7629 240.375 63.7817 240.375H54.8157C54.8157 240.375 51.7341 240.193 51.7341 236.116C51.7341 232.04 58.8651 232.311 58.8651 232.311L57.4405 213.562" fill="#A3C8D2"/>
<path d="M63.7817 242.891H54.6686C52.4775 242.759 49.2217 240.847 49.2217 236.116C49.2217 234.595 49.7985 233.232 50.8941 232.179C52.342 230.785 54.448 230.197 56.1668 229.953L54.9358 213.755L59.953 213.376L61.5906 234.939L58.7722 234.831C57.4057 234.788 55.1138 235.102 54.3783 235.81C54.2815 235.907 54.2505 235.957 54.2505 236.12C54.2505 237.61 54.8196 237.831 54.9396 237.862H63.7237C63.9289 237.703 65.1832 236.507 65.8955 230.301C66.3872 226.016 66.3949 221.211 66.3988 218.625C66.3988 217.348 66.4026 216.771 66.4414 216.388L71.4509 216.864L68.9461 216.624L71.4509 216.856C71.4354 217.058 71.4354 217.894 71.4315 218.629C71.4121 231.23 70.4714 242.891 63.7817 242.891Z" fill="black"/>
<path d="M132.092 233.774C134.515 233.638 129.815 232.167 109.201 215.381C93.4985 202.594 92.0429 170.861 92.3719 155.17C92.5539 146.487 92.6158 141.783 89.5575 133.654C85.33 122.431 78.2842 108.958 51.2662 107.979C40.9375 107.603 20.5975 114.084 15.7428 122.14C11.8328 128.625 12.5683 134.656 13.2652 138.322C13.5401 139.762 13.2652 141.257 12.4677 142.48C10.2107 145.929 7.78726 150.602 8.82864 156.928C9.25449 159.522 10.2572 164.52 11.918 167.532C13.7917 170.927 16.4474 172.305 18.9793 174.469C19.1767 174.639 19.2657 174.906 19.2077 175.158C18.4566 178.514 15.1776 200.906 21.1008 216.283C24.8908 226.12 34.0581 228.509 51.0494 228.745C70.9054 229.02 79.8753 222.164 83.5956 217.7C85.2061 215.768 88.0128 215.35 90.142 216.69C94.1798 219.229 100.169 225.311 107.23 228.753C115.681 232.868 125.441 234.142 132.088 233.774H132.092Z" fill="#A3C8D2"/>
<path d="M129.893 236.348C123.319 236.348 114.245 234.966 106.13 231.014C101.353 228.687 97.0792 225.245 93.6414 222.481C91.7561 220.964 90.1301 219.655 88.8023 218.819C87.7299 218.145 86.3246 218.354 85.5271 219.311C76.6115 229.999 60.0809 231.389 51.0104 231.261C33.9185 231.025 23.16 228.648 18.7467 217.189C13.1372 202.629 15.3593 182.123 16.5246 175.716C16.1955 175.456 15.8587 175.197 15.5142 174.934C13.5669 173.439 11.3641 171.747 9.70717 168.747C7.8528 165.387 6.7998 160.157 6.33524 157.335C5.16223 150.188 7.86441 144.904 10.3537 141.102C10.7873 140.436 10.9421 139.615 10.7873 138.791C9.96267 134.443 9.35488 127.854 13.5824 120.84C19.0332 111.796 40.3487 105.068 51.3549 105.463C64.0838 105.923 73.6499 109.067 80.5989 115.067C86.6614 120.305 89.7198 126.952 91.9071 132.763C95.1745 141.439 95.0661 146.623 94.8841 155.217C94.6015 168.596 95.5887 201.05 110.784 213.426C121.124 221.846 127.442 226.395 130.841 228.842C132.107 229.752 132.939 230.352 133.524 230.82C134.147 231.319 135.611 232.489 135.08 234.3C134.879 234.993 134.236 236.174 132.227 236.283C131.491 236.325 130.709 236.344 129.889 236.344L129.893 236.348ZM87.4512 213.399C88.8371 213.399 90.2385 213.779 91.4851 214.561C93.0607 215.552 94.7951 216.949 96.8004 218.563C100.207 221.304 104.071 224.417 108.337 226.492C113.981 229.241 120.137 230.615 125.382 231.103C121.647 228.377 115.905 224.084 107.613 217.329C100.292 211.367 95.1435 201.112 92.3058 186.85C89.9753 175.135 89.6888 163.122 89.8553 155.112C90.0334 146.584 90.1263 142.302 87.1995 134.536C82.9992 123.383 76.4024 111.405 51.173 110.491C40.8752 110.12 21.9251 116.751 17.895 123.437C14.5928 128.915 15.007 134.018 15.7348 137.854C16.1374 139.964 15.7232 142.097 14.5696 143.858C12.4597 147.087 10.4195 151.117 11.306 156.522C11.9951 160.714 13.0443 164.376 14.1166 166.316C15.2625 168.395 16.7994 169.576 18.5803 170.938C19.2384 171.442 19.9197 171.964 20.6088 172.557C21.5186 173.335 21.9212 174.543 21.658 175.708C20.845 179.355 17.8757 200.922 23.4426 215.377C26.4739 223.248 33.4462 225.985 51.0801 226.225C70.1115 226.488 78.4078 219.984 81.6597 216.082C83.1269 214.324 85.2716 213.391 87.4473 213.391L87.4512 213.399Z" fill="black"/>
<path d="M45.1453 210.283C26.1332 206.884 24.9176 213.631 25.8351 222.431C30.9221 226.751 38.777 228.575 51.0491 228.741C55.2185 228.799 58.904 228.54 62.1637 228.06C63.0967 222.497 64.951 222.346 60.5222 216.841C57.8626 213.538 51.7653 211.467 45.1453 210.283Z" fill="white"/>
<path d="M52.1758 231.269C51.7886 231.269 51.4015 231.269 51.0105 231.261C37.7086 231.079 29.6911 229.012 24.2054 224.351L23.435 223.697L23.3305 222.694C22.835 217.963 22.8504 213.147 26.2766 209.961C29.7259 206.752 35.8658 206.071 45.5829 207.809C54.0263 209.319 59.7094 211.827 62.4774 215.265C66.3061 220.023 66.2945 221.866 65.3073 225.547C65.0905 226.364 64.8389 227.289 64.6414 228.478L64.3395 230.282L62.5277 230.549C59.3067 231.025 55.8303 231.265 52.1719 231.265L52.1758 231.269ZM28.2432 221.134C32.7572 224.498 39.8765 226.074 51.084 226.229C54.2353 226.271 57.2472 226.128 60.0539 225.803C60.1894 225.214 60.3288 224.703 60.4527 224.246C61.0721 221.935 61.1534 221.637 58.5634 218.42C56.6355 216.024 51.7151 214.015 44.7041 212.76C36.8879 211.363 31.8435 211.661 29.7066 213.647C28.3555 214.901 27.9141 217.104 28.2432 221.134Z" fill="black"/>
<path d="M37.689 140.633C36.9961 140.231 36.1173 140.459 35.5946 141.063C35.1572 141.566 34.8126 142.294 35.4243 143.057C36.6167 144.54 38.4827 142.898 38.4827 142.104C38.4827 141.59 38.2775 140.97 37.689 140.629V140.633Z" fill="black"/>
<path d="M36.5817 144.625C35.8539 144.625 35.1764 144.292 34.6731 143.669C33.8834 142.689 33.9569 141.478 34.8667 140.432C35.7223 139.445 37.1159 139.182 38.1806 139.797C38.9781 140.262 39.4542 141.125 39.4542 142.109C39.4542 143.022 38.5522 144.083 37.4489 144.47C37.1585 144.571 36.8682 144.621 36.5856 144.621L36.5817 144.625ZM36.934 141.4C36.7056 141.4 36.4694 141.532 36.3223 141.702C35.9313 142.151 36.0629 142.314 36.1752 142.457C36.3804 142.713 36.5391 142.709 36.6707 142.685C37.0617 142.612 37.4256 142.233 37.5069 142.058C37.4992 141.9 37.445 141.621 37.1972 141.478C37.1121 141.427 37.0192 141.408 36.9262 141.408L36.934 141.4Z" fill="black"/>
<path d="M51.8663 140.634C51.1733 140.231 50.2945 140.459 49.7719 141.063C49.3344 141.567 48.9899 142.294 49.6015 143.057C50.7939 144.54 52.6599 142.898 52.6599 142.105C52.6599 141.59 52.4547 140.97 51.8663 140.63V140.634Z" fill="black"/>
<path d="M50.755 144.625C50.0272 144.625 49.3497 144.292 48.8465 143.669C48.0567 142.689 48.1303 141.478 49.04 140.432C49.8956 139.449 51.2893 139.182 52.3539 139.797C53.1514 140.262 53.6276 141.125 53.6276 142.109C53.6276 143.022 52.7255 144.083 51.6222 144.47C51.3319 144.571 51.0415 144.621 50.7589 144.621L50.755 144.625ZM51.1112 141.4C50.8828 141.4 50.6505 141.532 50.4995 141.702C50.1085 142.151 50.2401 142.314 50.3524 142.457C50.5576 142.713 50.7163 142.709 50.8479 142.685C51.239 142.612 51.6029 142.232 51.6842 142.058C51.6764 141.9 51.6222 141.621 51.3744 141.478C51.2893 141.427 51.1964 141.408 51.1035 141.408L51.1112 141.4Z" fill="black"/>
<path d="M43.9919 162.116C42.4202 162.116 41.0923 160.819 39.4083 157.633C39.1218 157.091 39.1412 156.444 39.4547 155.918C39.7683 155.395 40.3374 155.074 40.9452 155.074H45.4282C45.9005 155.074 46.3496 155.263 46.6786 155.604C47.0077 155.945 47.1819 156.401 47.1703 156.87C47.0658 160.199 45.9082 162.112 43.9881 162.112L43.9919 162.116Z" fill="#EF9178"/>
<path d="M45.4283 156.82C45.4283 156.82 45.316 160.373 43.9881 160.373C43.3223 160.373 42.3544 159.487 40.9453 156.82H45.4283ZM45.4283 153.335H40.9453C39.7219 153.335 38.5915 153.974 37.9605 155.023C37.3295 156.069 37.2946 157.369 37.8637 158.449C39.2806 161.125 41.1117 163.858 43.9843 163.858C44.836 163.858 47.6891 163.532 48.6066 159.34C48.8621 158.171 48.9047 157.052 48.9086 156.928C48.9396 155.987 48.5834 155.07 47.9292 154.392C47.271 153.715 46.369 153.332 45.4283 153.332V153.335Z" fill="black"/>
<ellipse cx="65.5" cy="151" rx="6.5" ry="3" fill="#EF9178"/>
<ellipse cx="23.5" cy="151" rx="5.5" ry="3" fill="#EF9178"/>
<path d="M37.7522 33.5213C48.576 43.9954 66.1922 62.6085 68.4197 70C71.4822 61.075 83.8103 48.6321 95.4793 37.4943C110.993 22.6861 103.056 5.3497 89.7066 3.18267C78.31 1.33264 70.7047 14.0179 68.4197 19.4355C66.4955 14.4995 59.9771 4.33842 49.2976 3.18267C31.2578 1.23037 24.9238 21.1074 37.7522 33.5213Z" fill="#FFC0B8" stroke="black" stroke-width="5" stroke-linejoin="round"/>
<path d="M109.266 72.9326C112.522 59.1008 135.031 52.3601 145.879 50.7187C168.45 48.5005 190.111 49.8082 204.596 78.5274C219.081 107.246 164.504 120.138 137.265 114.832C110.027 109.527 105.196 90.2222 109.266 72.9326Z" fill="white" stroke="black" stroke-width="4"/>
<path d="M137.13 76.2731C136.896 76.2731 136.694 76.1936 136.526 76.0345C136.358 75.8661 136.273 75.6649 136.273 75.4309C136.273 75.2063 136.381 74.977 136.596 74.7431C137.036 74.2658 137.387 73.7698 137.649 73.2551C137.911 72.7404 138.122 72.1649 138.281 71.5285C138.393 71.1074 138.468 70.6956 138.505 70.2932C138.552 69.8815 138.575 69.4276 138.575 68.9316V67.8648C138.575 67.5934 138.669 67.3828 138.856 67.2331C139.053 67.0834 139.268 67.0085 139.502 67.0085C139.745 67.0085 139.96 67.0834 140.148 67.2331C140.335 67.3735 140.428 67.584 140.428 67.8648V68.9316C140.428 69.9517 140.517 70.8126 140.695 71.5145C140.864 72.1883 141.074 72.7732 141.327 73.2691C141.589 73.7558 141.926 74.2424 142.337 74.729C142.45 74.86 142.539 74.9864 142.604 75.108C142.67 75.2203 142.702 75.3514 142.702 75.5011C142.702 75.707 142.623 75.8895 142.464 76.0485C142.305 76.1983 142.108 76.2731 141.874 76.2731C141.668 76.2731 141.486 76.2217 141.327 76.1187C141.168 76.0158 141.009 75.8661 140.849 75.6695C140.522 75.2484 140.222 74.7711 139.951 74.2377C139.689 73.6949 139.535 73.2177 139.488 72.8059C139.432 73.2177 139.273 73.6903 139.011 74.2237C138.749 74.7477 138.454 75.225 138.126 75.6555C137.948 75.8801 137.794 76.0392 137.663 76.1328C137.532 76.2263 137.354 76.2731 137.13 76.2731ZM143.194 67.2752C143.194 67.0038 143.292 66.7933 143.489 66.6435C143.685 66.4938 143.896 66.4189 144.12 66.4189C144.354 66.4189 144.565 66.4938 144.752 66.6435C144.948 66.7839 145.047 66.9945 145.047 67.2752V70.7284H146.24V67.1208C146.24 66.8494 146.338 66.6388 146.535 66.4891C146.731 66.3394 146.942 66.2645 147.166 66.2645C147.4 66.2645 147.611 66.3394 147.798 66.4891C147.994 66.6295 148.093 66.84 148.093 67.1208V79.3473C148.093 79.6281 147.994 79.8386 147.798 79.979C147.611 80.1287 147.4 80.2036 147.166 80.2036C146.942 80.2036 146.731 80.1287 146.535 79.979C146.338 79.8293 146.24 79.6187 146.24 79.3473V72.3567H145.047V79.0946C145.047 79.3754 144.948 79.5859 144.752 79.7263C144.565 79.8761 144.354 79.9509 144.12 79.9509C143.896 79.9509 143.685 79.8761 143.489 79.7263C143.292 79.5766 143.194 79.366 143.194 79.0946V67.2752ZM159.715 67.1208C159.715 66.8494 159.813 66.6388 160.01 66.4891C160.206 66.3394 160.417 66.2645 160.642 66.2645C160.876 66.2645 161.086 66.3394 161.273 66.4891C161.47 66.6295 161.568 66.84 161.568 67.1208V79.3473C161.568 79.6281 161.47 79.8386 161.273 79.979C161.086 80.1287 160.876 80.2036 160.642 80.2036C160.417 80.2036 160.206 80.1287 160.01 79.979C159.813 79.8293 159.715 79.6187 159.715 79.3473V73.0586H158.522V79.0946C158.522 79.3754 158.424 79.5859 158.227 79.7263C158.04 79.8761 157.829 79.9509 157.595 79.9509C157.371 79.9509 157.16 79.8761 156.964 79.7263C156.767 79.5766 156.669 79.366 156.669 79.0946V67.2752C156.669 67.0038 156.767 66.7933 156.964 66.6435C157.16 66.4938 157.371 66.4189 157.595 66.4189C157.829 66.4189 158.04 66.4938 158.227 66.6435C158.424 66.7839 158.522 66.9945 158.522 67.2752V71.4303H159.715V67.1208ZM149.44 69.0299C149.44 68.7866 149.515 68.5947 149.664 68.4543C149.823 68.3046 150.011 68.2297 150.226 68.2297C150.301 68.2297 150.357 68.2344 150.394 68.2438C150.872 68.328 151.4 68.3842 151.981 68.4122V67.1348C151.981 66.8728 152.069 66.6763 152.247 66.5453C152.425 66.4049 152.636 66.3347 152.879 66.3347C153.113 66.3347 153.319 66.4002 153.497 66.5312C153.684 66.6622 153.777 66.8634 153.777 67.1348V68.4122C154.18 68.3935 154.68 68.3374 155.279 68.2438C155.317 68.2344 155.373 68.2297 155.448 68.2297C155.663 68.2297 155.845 68.3046 155.995 68.4543C156.154 68.5947 156.234 68.7866 156.234 69.0299C156.234 69.2358 156.173 69.4089 156.051 69.5493C155.93 69.6803 155.761 69.7692 155.546 69.816C154.779 69.9657 153.936 70.0406 153.019 70.0406C151.85 70.0406 150.886 69.9657 150.128 69.816C149.912 69.7692 149.744 69.6803 149.622 69.5493C149.501 69.4089 149.44 69.2358 149.44 69.0299ZM150.001 73.7324C150.001 73.1615 150.118 72.6468 150.352 72.1883C150.596 71.7297 150.932 71.3741 151.363 71.1214C151.803 70.8594 152.308 70.7284 152.879 70.7284C153.45 70.7284 153.95 70.8594 154.381 71.1214C154.821 71.3741 155.158 71.7297 155.392 72.1883C155.635 72.6468 155.757 73.1615 155.757 73.7324C155.757 74.3032 155.635 74.8133 155.392 75.2624C155.158 75.7116 154.821 76.0673 154.381 76.3293C153.95 76.582 153.45 76.7083 152.879 76.7083C152.308 76.7083 151.803 76.582 151.363 76.3293C150.932 76.0673 150.596 75.7116 150.352 75.2624C150.118 74.8133 150.001 74.3032 150.001 73.7324ZM151.77 73.7324C151.77 74.1441 151.868 74.481 152.065 74.7431C152.271 75.0051 152.542 75.1361 152.879 75.1361C153.216 75.1361 153.483 75.0051 153.679 74.7431C153.885 74.481 153.988 74.1441 153.988 73.7324C153.988 73.3019 153.885 72.951 153.679 72.6796C153.483 72.4082 153.216 72.2725 152.879 72.2725C152.542 72.2725 152.271 72.4082 152.065 72.6796C151.868 72.951 151.77 73.3019 151.77 73.7324ZM168.703 76.961C168.441 76.961 168.23 76.8861 168.071 76.7364C167.912 76.5866 167.832 76.3948 167.832 76.1608C167.832 75.9175 167.912 75.7257 168.071 75.5853C168.23 75.4356 168.441 75.3607 168.703 75.3607H176.255C176.564 75.3607 176.816 75.4403 177.013 75.5993C177.209 75.7584 177.308 75.9737 177.308 76.2451V79.3333C177.308 79.6047 177.209 79.8152 177.013 79.965C176.816 80.1147 176.601 80.1896 176.367 80.1896C176.133 80.1896 175.918 80.1147 175.721 79.965C175.525 79.8152 175.427 79.6047 175.427 79.3333V76.961H168.703ZM166.387 73.7605C166.387 73.5452 166.452 73.3581 166.583 73.199C166.714 73.0399 166.901 72.9603 167.145 72.9603H171.735V72.2304C171.061 72.2023 170.457 72.1462 169.924 72.0619C169.4 71.9777 169.026 71.8841 168.801 71.7812C168.539 71.6595 168.356 71.5098 168.254 71.332C168.151 71.1542 168.099 70.9015 168.099 70.574V67.4858C168.099 67.2331 168.188 67.0366 168.366 66.8962C168.553 66.7558 168.773 66.6856 169.026 66.6856C169.278 66.6856 169.494 66.7558 169.671 66.8962C169.858 67.0366 169.952 67.2331 169.952 67.4858V68.0613H175.399V67.4858C175.399 67.2331 175.487 67.0366 175.665 66.8962C175.852 66.7558 176.072 66.6856 176.325 66.6856C176.578 66.6856 176.793 66.7558 176.971 66.8962C177.158 67.0366 177.251 67.2331 177.251 67.4858V70.574C177.251 70.9015 177.2 71.1542 177.097 71.332C177.003 71.5004 176.83 71.6455 176.578 71.7672C176.353 71.8795 175.969 71.9777 175.427 72.0619C174.893 72.1462 174.29 72.2023 173.616 72.2304V72.9603H178.206C178.449 72.9603 178.636 73.0399 178.768 73.199C178.899 73.3581 178.964 73.5452 178.964 73.7605C178.964 73.9757 178.894 74.1629 178.753 74.3219C178.622 74.481 178.44 74.5606 178.206 74.5606H167.145C166.911 74.5606 166.723 74.481 166.583 74.3219C166.452 74.1629 166.387 73.9757 166.387 73.7605ZM169.952 70.3073C169.952 70.3728 169.99 70.4196 170.064 70.4476C170.242 70.5038 170.584 70.5599 171.089 70.6161C171.594 70.6629 172.123 70.6863 172.675 70.6863C173.227 70.6863 173.756 70.6629 174.262 70.6161C174.767 70.5599 175.108 70.5038 175.286 70.4476C175.361 70.4196 175.399 70.3728 175.399 70.3073V69.5773H169.952V70.3073ZM131.67 87.1208C131.67 86.8494 131.768 86.6388 131.964 86.4891C132.161 86.3394 132.376 86.2645 132.61 86.2645C132.844 86.2645 133.059 86.3394 133.256 86.4891C133.452 86.6388 133.551 86.8494 133.551 87.1208V88.9035H134.716C134.959 88.9035 135.151 88.9784 135.291 89.1281C135.432 89.2779 135.502 89.4744 135.502 89.7177C135.502 89.961 135.432 90.1575 135.291 90.3073C135.151 90.457 134.959 90.5319 134.716 90.5319H133.551V92.3567C133.551 92.6281 133.452 92.8387 133.256 92.9884C133.059 93.1381 132.844 93.213 132.61 93.213C132.376 93.213 132.161 93.1381 131.964 92.9884C131.768 92.8387 131.67 92.6281 131.67 92.3567V87.1208ZM123.163 87.8227C123.163 87.5513 123.261 87.336 123.458 87.1769C123.654 87.0179 123.907 86.9383 124.216 86.9383H128.876C129.185 86.9383 129.438 87.0179 129.634 87.1769C129.831 87.336 129.929 87.5513 129.929 87.8227V91.5285C129.929 91.8561 129.878 92.1087 129.775 92.2865C129.681 92.455 129.508 92.6 129.255 92.7217C128.984 92.8527 128.614 92.9556 128.146 93.0305C127.678 93.1054 127.145 93.1428 126.546 93.1428C125.947 93.1428 125.414 93.1054 124.946 93.0305C124.487 92.9556 124.127 92.8574 123.865 92.7357C123.603 92.6141 123.42 92.4643 123.317 92.2865C123.214 92.1087 123.163 91.8561 123.163 91.5285V87.8227ZM124.132 94.9396C124.132 94.6682 124.23 94.4576 124.426 94.3079C124.623 94.1582 124.833 94.0833 125.058 94.0833C125.292 94.0833 125.503 94.1582 125.69 94.3079C125.886 94.4483 125.985 94.6588 125.985 94.9396V98.1401C125.985 98.2805 126.055 98.3507 126.195 98.3507H127.809C128.062 98.3507 128.254 98.4209 128.385 98.5612C128.525 98.711 128.595 98.9075 128.595 99.1508C128.595 99.3941 128.525 99.5859 128.385 99.7263C128.254 99.8761 128.062 99.9509 127.809 99.9509H125.339C124.993 99.9509 124.702 99.8433 124.468 99.6281C124.244 99.4128 124.132 99.1414 124.132 98.8139V94.9396ZM125.016 91.2618C125.016 91.3367 125.053 91.3835 125.128 91.4022C125.446 91.4958 125.919 91.5426 126.546 91.5426C127.173 91.5426 127.646 91.4958 127.964 91.4022C128.039 91.3835 128.076 91.3367 128.076 91.2618V88.5386H125.016V91.2618ZM128.806 95.7116C128.553 95.7116 128.357 95.6415 128.216 95.5011C128.076 95.3514 128.006 95.1735 128.006 94.9677C128.006 94.7711 128.076 94.6027 128.216 94.4623C128.357 94.3126 128.553 94.2377 128.806 94.2377H130.519V93.957C130.519 93.7137 130.612 93.5312 130.799 93.4095C130.996 93.2879 131.211 93.227 131.445 93.227C131.688 93.227 131.904 93.2879 132.091 93.4095C132.278 93.5218 132.371 93.7043 132.371 93.957V94.2377H133.845C134.098 94.2377 134.295 94.3126 134.435 94.4623C134.575 94.6027 134.646 94.7711 134.646 94.9677C134.646 95.1735 134.575 95.3514 134.435 95.5011C134.295 95.6415 134.098 95.7116 133.845 95.7116H128.806ZM128.904 98.098C128.904 97.7143 129.012 97.3681 129.227 97.0592C129.442 96.741 129.742 96.4931 130.126 96.3153C130.509 96.1281 130.944 96.0345 131.431 96.0345C131.918 96.0345 132.353 96.1281 132.736 96.3153C133.13 96.4931 133.434 96.741 133.649 97.0592C133.864 97.3681 133.972 97.7143 133.972 98.098C133.972 98.4817 133.864 98.8279 133.649 99.1368C133.434 99.4456 133.13 99.6889 132.736 99.8667C132.353 100.045 131.918 100.133 131.431 100.133C130.645 100.133 130.027 99.9416 129.578 99.5579C129.129 99.1742 128.904 98.6876 128.904 98.098ZM130.631 98.098C130.631 98.2571 130.706 98.3834 130.855 98.477C131.005 98.5799 131.202 98.6314 131.445 98.6314C131.688 98.6314 131.88 98.5799 132.021 98.477C132.17 98.3834 132.245 98.2571 132.245 98.098C132.245 97.9108 132.17 97.7658 132.021 97.6628C131.88 97.5599 131.688 97.5084 131.445 97.5084C131.202 97.5084 131.005 97.5599 130.855 97.6628C130.706 97.7751 130.631 97.9202 130.631 98.098ZM145.791 87.1208C145.791 86.8494 145.889 86.6388 146.085 86.4891C146.282 86.3394 146.497 86.2645 146.731 86.2645C146.965 86.2645 147.18 86.3394 147.377 86.4891C147.573 86.6388 147.672 86.8494 147.672 87.1208V99.3754C147.672 99.6468 147.573 99.8573 147.377 100.007C147.18 100.157 146.965 100.232 146.731 100.232C146.497 100.232 146.282 100.157 146.085 100.007C145.889 99.8573 145.791 99.6468 145.791 99.3754V87.1208ZM136.568 91.8093C136.568 90.8173 136.727 89.9657 137.045 89.2545C137.364 88.5339 137.808 87.9864 138.379 87.6121C138.95 87.2378 139.61 87.0506 140.358 87.0506C141.107 87.0506 141.767 87.2378 142.337 87.6121C142.908 87.9864 143.353 88.5339 143.671 89.2545C143.989 89.9657 144.148 90.8173 144.148 91.8093C144.148 92.8012 143.989 93.6575 143.671 94.3781C143.353 95.0987 142.908 95.6508 142.337 96.0345C141.767 96.4088 141.107 96.596 140.358 96.596C139.61 96.596 138.95 96.4088 138.379 96.0345C137.808 95.6508 137.364 95.0987 137.045 94.3781C136.727 93.6575 136.568 92.8012 136.568 91.8093ZM138.449 91.8093C138.449 92.5018 138.533 93.0867 138.702 93.5639C138.88 94.0412 139.114 94.4015 139.404 94.6448C139.694 94.8788 140.012 94.9957 140.358 94.9957C140.704 94.9957 141.023 94.8788 141.313 94.6448C141.603 94.4015 141.832 94.0412 142.001 93.5639C142.178 93.0867 142.267 92.5018 142.267 91.8093C142.267 91.1261 142.178 90.5459 142.001 90.0686C141.832 89.5914 141.603 89.2358 141.313 89.0018C141.023 88.7585 140.704 88.6368 140.358 88.6368C140.012 88.6368 139.694 88.7585 139.404 89.0018C139.114 89.2358 138.88 89.5914 138.702 90.0686C138.533 90.5459 138.449 91.1261 138.449 91.8093ZM153.445 87.57C153.445 87.308 153.538 87.0974 153.725 86.9383C153.913 86.7792 154.128 86.6997 154.371 86.6997C154.614 86.6997 154.83 86.7792 155.017 86.9383C155.204 87.0974 155.298 87.308 155.298 87.57V88.4824H158.358V87.57C158.358 87.308 158.447 87.0974 158.624 86.9383C158.812 86.7792 159.032 86.6997 159.284 86.6997C159.528 86.6997 159.743 86.7792 159.93 86.9383C160.117 87.0974 160.211 87.308 160.211 87.57V91.5285C160.211 91.8561 160.159 92.1087 160.056 92.2865C159.963 92.455 159.79 92.6 159.537 92.7217C159.266 92.8527 158.896 92.9556 158.428 93.0305C157.96 93.1054 157.427 93.1428 156.828 93.1428C156.229 93.1428 155.695 93.1054 155.227 93.0305C154.769 92.9556 154.409 92.8574 154.147 92.7357C153.885 92.6141 153.702 92.4643 153.599 92.2865C153.496 92.1087 153.445 91.8561 153.445 91.5285V87.57ZM155.045 95.5432C155.045 95.2718 155.143 95.0566 155.34 94.8975C155.536 94.7384 155.789 94.6588 156.098 94.6588H163.102C163.355 94.6588 163.547 94.7337 163.678 94.8834C163.818 95.0238 163.888 95.2157 163.888 95.459C163.888 95.7023 163.818 95.8988 163.678 96.0485C163.547 96.1889 163.355 96.2591 163.102 96.2591H156.926V98.5051H163.257C163.509 98.5051 163.701 98.5753 163.832 98.7156C163.973 98.8654 164.043 99.0619 164.043 99.3052C164.043 99.5485 163.973 99.7404 163.832 99.8807C163.701 100.03 163.509 100.105 163.257 100.105H156.098C155.789 100.105 155.536 100.026 155.34 99.8667C155.143 99.7076 155.045 99.4924 155.045 99.221V95.5432ZM155.298 91.2618C155.298 91.3367 155.335 91.3835 155.41 91.4022C155.728 91.4958 156.201 91.5426 156.828 91.5426C157.455 91.5426 157.927 91.4958 158.245 91.4022C158.32 91.3835 158.358 91.3367 158.358 91.2618V90.0827H155.298V91.2618ZM161.951 87.1208C161.951 86.8494 162.05 86.6388 162.246 86.4891C162.443 86.3394 162.658 86.2645 162.892 86.2645C163.126 86.2645 163.341 86.3394 163.538 86.4891C163.734 86.6388 163.832 86.8494 163.832 87.1208V89.1141H164.997C165.241 89.1141 165.433 89.189 165.573 89.3387C165.713 89.4884 165.784 89.6849 165.784 89.9283C165.784 90.1716 165.713 90.3681 165.573 90.5178C165.433 90.6676 165.241 90.7424 164.997 90.7424H163.832V93.1428C163.832 93.4142 163.734 93.6248 163.538 93.7745C163.341 93.9242 163.126 93.9991 162.892 93.9991C162.658 93.9991 162.443 93.9242 162.246 93.7745C162.05 93.6248 161.951 93.4142 161.951 93.1428V87.1208ZM173.981 91.8093C173.981 92.8387 173.822 93.7137 173.504 94.4342C173.195 95.1455 172.764 95.6836 172.212 96.0485C171.66 96.4135 171.028 96.596 170.317 96.596C169.606 96.596 168.974 96.4135 168.422 96.0485C167.87 95.6836 167.435 95.1455 167.117 94.4342C166.808 93.7137 166.653 92.8387 166.653 91.8093C166.653 90.7799 166.808 89.9095 167.117 89.1983C167.435 88.4871 167.87 87.9537 168.422 87.5981C168.974 87.2331 169.606 87.0506 170.317 87.0506C171.028 87.0506 171.66 87.2331 172.212 87.5981C172.764 87.9537 173.195 88.4871 173.504 89.1983C173.822 89.9095 173.981 90.7799 173.981 91.8093ZM168.534 91.8093C168.534 92.848 168.698 93.6388 169.026 94.1816C169.353 94.7244 169.784 94.9957 170.317 94.9957C170.85 94.9957 171.281 94.7244 171.608 94.1816C171.936 93.6388 172.1 92.848 172.1 91.8093C172.1 90.7799 171.936 89.9938 171.608 89.451C171.281 88.9082 170.85 88.6368 170.317 88.6368C169.784 88.6368 169.353 88.9082 169.026 89.451C168.698 89.9938 168.534 90.7799 168.534 91.8093ZM175.427 87.1208C175.427 86.8494 175.525 86.6388 175.721 86.4891C175.918 86.3394 176.133 86.2645 176.367 86.2645C176.601 86.2645 176.816 86.3394 177.013 86.4891C177.209 86.6388 177.308 86.8494 177.308 87.1208V90.7284H178.473C178.716 90.7284 178.908 90.8033 179.048 90.953C179.189 91.1027 179.259 91.2992 179.259 91.5426C179.259 91.7859 179.189 91.9824 179.048 92.1321C178.908 92.2819 178.716 92.3567 178.473 92.3567H177.308V99.3754C177.308 99.6468 177.209 99.8573 177.013 100.007C176.816 100.157 176.601 100.232 176.367 100.232C176.133 100.232 175.918 100.157 175.721 100.007C175.525 99.8573 175.427 99.6468 175.427 99.3754V87.1208ZM191.681 92.8621C191.925 92.8621 192.112 92.9416 192.243 93.1007C192.374 93.2504 192.439 93.4329 192.439 93.6482C192.439 93.8634 192.374 94.0506 192.243 94.2096C192.112 94.3594 191.925 94.4342 191.681 94.4342H180.62C180.386 94.4342 180.199 94.3594 180.058 94.2096C179.927 94.0506 179.862 93.8634 179.862 93.6482C179.862 93.4329 179.927 93.2504 180.058 93.1007C180.189 92.9416 180.377 92.8621 180.62 92.8621H182.936V91.2337C182.215 90.7377 181.855 90.078 181.855 89.2545C181.855 88.6836 182.033 88.1876 182.389 87.7665C182.754 87.3454 183.259 87.0272 183.905 86.812C184.55 86.5874 185.299 86.4751 186.151 86.4751C187.002 86.4751 187.751 86.5874 188.397 86.812C189.042 87.0272 189.543 87.3454 189.899 87.7665C190.264 88.1876 190.446 88.6836 190.446 89.2545C190.446 90.078 190.086 90.7377 189.365 91.2337V92.8621H191.681ZM182.094 97.6909C182.094 97.1575 182.258 96.6943 182.585 96.3012C182.922 95.9082 183.395 95.6087 184.003 95.4028C184.611 95.1876 185.327 95.08 186.151 95.08C186.974 95.08 187.69 95.1876 188.298 95.4028C188.907 95.6087 189.375 95.9082 189.702 96.3012C190.039 96.6943 190.207 97.1575 190.207 97.6909C190.207 98.4957 189.842 99.1227 189.112 99.5719C188.392 100.03 187.405 100.26 186.151 100.26C184.897 100.26 183.905 100.03 183.175 99.5719C182.454 99.1227 182.094 98.4957 182.094 97.6909ZM183.708 89.2545C183.708 89.6475 183.919 89.947 184.34 90.1529C184.77 90.3587 185.374 90.4617 186.151 90.4617C186.927 90.4617 187.526 90.3587 187.947 90.1529C188.378 89.947 188.593 89.6475 188.593 89.2545C188.593 88.8614 188.378 88.562 187.947 88.3561C187.526 88.1502 186.927 88.0473 186.151 88.0473C185.374 88.0473 184.77 88.1502 184.34 88.3561C183.919 88.562 183.708 88.8614 183.708 89.2545ZM183.947 97.6909C183.947 98.0184 184.139 98.2664 184.522 98.4349C184.915 98.6033 185.463 98.6876 186.165 98.6876C186.848 98.6876 187.381 98.6033 187.765 98.4349C188.158 98.2664 188.354 98.0184 188.354 97.6909C188.354 97.3634 188.158 97.1107 187.765 96.9329C187.372 96.7457 186.838 96.6521 186.165 96.6521C185.481 96.6521 184.939 96.7457 184.536 96.9329C184.143 97.1107 183.947 97.3634 183.947 97.6909ZM187.512 91.9216C187.063 91.9964 186.609 92.0339 186.151 92.0339C185.692 92.0339 185.238 91.9964 184.789 91.9216V92.8621H187.512V91.9216Z" fill="#141414"/>
<path d="M135.782 107.28C134.565 114.103 128.305 128.654 113 132.276" stroke="black" stroke-width="4" stroke-linecap="round"/>
</svg>
