<svg width="75" height="75" viewBox="0 0 75 75" fill="none" xmlns="http://www.w3.org/2000/svg">
<path d="M33.722 58.4711C33.6535 59.1867 34.0295 67.4121 31.7779 67.4121H27.4306C27.4306 67.4121 26.2705 67.3436 26.2705 65.809C26.2705 64.2744 28.955 64.3764 28.955 64.3764L28.4187 57.3184" fill="#F49631"/>
<path d="M31.7784 68.3594H27.4311C27.4121 68.3594 27.3947 68.3594 27.3757 68.3579C26.5508 68.3098 25.3252 67.5914 25.3252 65.809C25.3252 65.2363 25.5423 64.7233 25.9548 64.3269C26.4998 63.8022 27.2926 63.5807 27.9397 63.4889L27.4763 57.3913C27.4369 56.8695 27.8275 56.4148 28.3492 56.3755C28.8724 56.3347 29.3257 56.7267 29.365 57.2484L29.9013 64.3065C29.9217 64.5761 29.827 64.8413 29.639 65.0351C29.451 65.229 29.1916 65.3368 28.9205 65.3252C28.4061 65.3091 27.5433 65.4272 27.2679 65.6939C27.2314 65.7303 27.2198 65.7493 27.2198 65.8105C27.2198 66.3715 27.434 66.4546 27.4792 66.4663H31.758C31.8352 66.4065 32.3074 65.9562 32.5756 63.62C32.7607 62.0082 32.7636 60.1981 32.765 59.2261C32.765 58.7452 32.7665 58.5265 32.7811 58.3837C32.8306 57.8634 33.2926 57.4816 33.8143 57.5312C34.3346 57.5807 34.7165 58.0427 34.6669 58.563C34.6611 58.6402 34.6611 58.9536 34.6596 59.2305C34.6523 63.9742 34.2982 68.3623 31.7799 68.3623L31.7784 68.3594Z" fill="black"/>
<path d="M37.7177 58.4711C37.6492 59.1867 38.0252 67.4121 35.7736 67.4121H32.3983C32.3983 67.4121 31.2383 67.3436 31.2383 65.809C31.2383 64.2744 33.9227 64.3764 33.9227 64.3764L33.3864 57.3184" fill="#F49631"/>
<path d="M35.7741 68.3589H32.3989C32.3799 68.3589 32.3624 68.3589 32.3435 68.3574C31.5186 68.3094 30.293 67.5909 30.293 65.8085C30.293 65.2358 30.5101 64.7228 30.9226 64.3264C31.4676 63.8017 32.2604 63.5802 32.9075 63.4884L32.444 57.3908C32.4047 56.869 32.7953 56.4143 33.317 56.375C33.8402 56.3342 34.2934 56.7262 34.3328 57.248L34.8691 64.306C34.8895 64.5756 34.7948 64.8408 34.6068 65.0347C34.4202 65.2285 34.1594 65.3363 33.8883 65.3247C33.3738 65.3086 32.5111 65.4267 32.2356 65.6934C32.1992 65.7298 32.1875 65.7488 32.1875 65.81C32.1875 66.3711 32.4018 66.4541 32.447 66.4658H35.7552C35.8324 66.406 36.3046 65.9557 36.5728 63.6196C36.7578 62.0077 36.7608 60.1977 36.7622 59.2256C36.7622 58.7447 36.7637 58.5261 36.7782 58.3832C36.8278 57.863 37.2898 57.4811 37.8115 57.5307C38.3318 57.5802 38.7136 58.0422 38.6641 58.5625C38.6582 58.6397 38.6582 58.9531 38.6568 59.23C38.6495 63.9737 38.2954 68.3618 35.777 68.3618L35.7741 68.3589Z" fill="black"/>
<path d="M44.7303 58.8761C58.6802 58.3821 63.0377 49.7282 63.4793 47.9473C64.0506 45.6432 65.9481 33.7642 65.454 31.0492C64.96 28.3341 64.4936 26.4206 61.2845 26.2982C58.0754 26.1757 59.1582 32.6552 59.5284 34.506C59.8986 36.3569 59.2733 41.6544 57.0873 46.7902C54.9013 51.9259 44.7303 52.9505 44.7303 52.9505L44.723 49.5504C44.7186 47.4256 44.5292 45.3037 44.1576 43.2109L43.6314 40.2466C43.6314 40.2466 47.0475 38.5386 48.1988 32.3462C49.8559 23.4388 42.2732 17.9023 42.3971 17.2858C42.5209 16.6694 42.0269 11.6079 40.9164 10.99C39.8059 10.3721 37.0893 16.2977 37.0893 16.2977C37.0893 16.2977 36.4714 16.1738 33.2623 15.9276C30.0532 15.6813 23.5096 17.656 23.5096 17.656C23.5096 17.656 20.1766 12.3483 18.9422 12.9647C17.7078 13.5812 18.078 20.1248 18.078 20.1248C16.3496 21.2353 14.4987 23.5816 13.5106 30.2476C12.5225 36.9136 20.4914 42.8626 20.4914 42.8626C20.2087 44.1261 18.9743 52.5555 21.204 58.3442C22.6308 62.0473 26.0819 62.9465 32.4782 63.0354C39.9531 63.1389 43.3298 60.5579 44.7303 58.8776V58.8761Z" fill="#F49631"/>
<path d="M32.8613 63.984C32.7257 63.984 32.5931 63.984 32.4648 63.9811C26.0306 63.8922 21.9806 62.9973 20.3192 58.6835C18.257 53.3292 19.0061 45.8412 19.452 43.2486C17.6741 41.7912 11.6493 36.3421 12.5733 30.109C13.3675 24.7473 14.8147 21.3998 17.1086 19.6495C17.0853 19.0184 17.059 17.905 17.0998 16.7435C17.2019 13.9118 17.6128 12.571 18.5179 12.1193C19.8047 11.4766 21.2184 12.9587 22.4309 14.4933C23.0328 15.2541 23.5735 16.0352 23.9189 16.5526C25.7172 16.0469 30.5834 14.7717 33.3334 14.9844C34.973 15.1112 35.9509 15.206 36.5236 15.2701C37.4782 13.275 39.0084 10.4928 40.288 10.0731C40.6625 9.95071 41.0487 9.98277 41.3737 10.1635C41.8955 10.4535 42.5586 11.1487 43.0512 13.9774C43.2304 15.0078 43.3747 16.3398 43.3587 17.0845C43.4825 17.2346 43.6895 17.4634 43.8789 17.6733C45.8682 19.871 50.5245 25.0199 49.1284 32.5224C48.1913 37.5561 45.8099 39.8602 44.6717 40.7011L45.0885 43.0489C45.4689 45.1898 45.6627 47.3773 45.6686 49.5517L45.6744 51.8747C46.6465 51.7246 48.1942 51.4332 49.8206 50.9172C52.183 50.1667 55.2114 48.7778 56.2141 46.4227C58.2864 41.5566 58.9393 36.4004 58.5983 34.6953C58.1276 32.3417 57.5723 28.1197 59.1375 26.2849C59.6855 25.6422 60.4404 25.3245 61.3192 25.3551C65.4071 25.5125 65.9274 28.366 66.385 30.8843C66.9213 33.8296 64.9772 45.8383 64.3972 48.1803C64.1232 49.2879 62.8043 52.0598 59.7817 54.6233C57.2036 56.8079 52.5896 59.4603 45.1745 59.8115C41.894 63.3952 36.2409 63.9898 32.8598 63.9898L32.8613 63.984ZM19.3471 13.9789C19.0294 14.8693 18.8778 17.5028 19.0236 20.0706C19.0425 20.4117 18.8778 20.7367 18.5907 20.9203C17.2908 21.7568 15.4457 23.647 14.4474 30.3844C13.5526 36.4208 20.9823 42.0463 21.0566 42.1016C21.3554 42.3246 21.4953 42.7035 21.4151 43.0664C21.1076 44.4393 19.9913 52.5582 22.0869 58C23.2281 60.9629 25.8528 61.9932 32.4911 62.0836C32.631 62.085 32.7709 62.0865 32.9079 62.0865C39.7779 62.0865 42.8019 59.7052 44.0028 58.2667C44.1748 58.0598 44.4284 57.9359 44.6965 57.9272C50.4079 57.7246 55.0715 56.1244 58.5575 53.1689C61.2959 50.8473 62.3918 48.3931 62.5594 47.7154C63.1642 45.2743 64.9641 33.6475 64.5225 31.2137C64.0008 28.3427 63.6073 27.3298 61.2478 27.2394C60.8689 27.2249 60.6984 27.3662 60.5803 27.5047C59.8502 28.3616 59.8021 31.0344 60.4579 34.3149C60.9141 36.5972 60.0892 42.1541 57.9585 47.1558C56.9238 49.5852 54.3676 51.4594 50.3613 52.7244C47.4859 53.6323 44.9268 53.8786 44.8189 53.8874C44.5537 53.9136 44.2914 53.8247 44.0946 53.6454C43.8979 53.4662 43.7857 53.2126 43.7842 52.9474L43.7755 49.5473C43.7711 47.4822 43.586 45.404 43.2246 43.371L42.6985 40.4067C42.6256 39.9943 42.8325 39.5819 43.2071 39.3939C43.2071 39.3939 43.9605 38.9916 44.8306 37.9132C45.6409 36.909 46.7223 35.0975 47.2673 32.1668C48.4915 25.5868 44.2753 20.9261 42.4755 18.9354C41.7104 18.0901 41.3562 17.6981 41.4641 17.1122C41.5384 16.4068 41.126 13.2254 40.6159 12.1047C39.9805 12.8013 38.8496 14.725 37.9504 16.6866C37.7667 17.086 37.3339 17.306 36.904 17.2215C36.885 17.2186 36.2146 17.0991 33.1906 16.8659C30.1957 16.6356 23.8489 18.5375 23.7848 18.5564C23.3767 18.6803 22.9351 18.5142 22.7092 18.1528C21.5186 16.2567 20.0641 14.4642 19.35 13.973L19.3471 13.9789ZM41.4685 17.0991C41.4685 17.0991 41.4685 17.1049 41.467 17.1078C41.467 17.1049 41.467 17.102 41.4685 17.0991Z" fill="black"/>
<path d="M27.6381 29.8656C27.3773 29.714 27.0464 29.8 26.8497 30.0273C26.685 30.2168 26.5553 30.4908 26.7856 30.7779C27.2344 31.336 27.9369 30.7181 27.9369 30.4194C27.9369 30.2255 27.8596 29.9923 27.6381 29.8641V29.8656Z" fill="black"/>
<path d="M27.2213 31.3681C26.9473 31.3681 26.6923 31.2428 26.5028 31.0081C26.2055 30.6394 26.2332 30.1832 26.5757 29.7898C26.8978 29.4196 27.4224 29.319 27.8232 29.5508C28.1234 29.7256 28.3027 30.0506 28.3027 30.4208C28.3027 30.7647 27.9631 31.1641 27.5477 31.3098C27.4384 31.3477 27.3291 31.3666 27.2228 31.3666L27.2213 31.3681ZM27.3539 30.1541C27.2679 30.1541 27.1805 30.2037 27.1237 30.2678C26.9765 30.4368 27.026 30.498 27.0683 30.552C27.1455 30.6481 27.2053 30.6467 27.2548 30.6379C27.402 30.6103 27.539 30.4674 27.5696 30.4019C27.5667 30.3421 27.5463 30.2372 27.453 30.1832C27.421 30.1643 27.386 30.157 27.351 30.157L27.3539 30.1541Z" fill="black"/>
<path d="M32.9731 29.8656C32.7122 29.714 32.3814 29.8 32.1847 30.0273C32.02 30.2168 31.8903 30.4908 32.1205 30.7779C32.5694 31.336 33.2718 30.7181 33.2718 30.4194C33.2718 30.2255 33.1946 29.9923 32.9731 29.8641V29.8656Z" fill="black"/>
<path d="M32.5553 31.3681C32.2813 31.3681 32.0263 31.2428 31.8368 31.0081C31.5395 30.6394 31.5672 30.1832 31.9097 29.7898C32.2317 29.4196 32.7564 29.319 33.1572 29.5508C33.4574 29.7256 33.6366 30.0506 33.6366 30.4208C33.6366 30.7647 33.2971 31.1641 32.8817 31.3098C32.7724 31.3477 32.6631 31.3666 32.5567 31.3666L32.5553 31.3681ZM32.6879 30.1541C32.6019 30.1541 32.5145 30.2037 32.4591 30.2678C32.3119 30.4368 32.3615 30.498 32.4037 30.552C32.481 30.6481 32.5407 30.6467 32.5903 30.6379C32.7375 30.6103 32.8744 30.4674 32.9051 30.4019C32.9021 30.3421 32.8817 30.2372 32.7885 30.1832C32.7564 30.1643 32.7214 30.157 32.6864 30.157L32.6879 30.1541Z" fill="black"/>
<path d="M30.0058 37.9527C29.4141 37.9527 28.9143 37.4645 28.2803 36.2651C28.1725 36.061 28.1798 35.8177 28.2978 35.6195C28.4159 35.4227 28.6301 35.3018 28.8589 35.3018H30.5465C30.7243 35.3018 30.8934 35.3732 31.0172 35.5014C31.1411 35.6297 31.2067 35.8016 31.2023 35.978C31.163 37.2313 30.7272 37.9512 30.0044 37.9512L30.0058 37.9527Z" fill="#EF9178"/>
<path d="M30.5463 35.9591C30.5463 35.9591 30.504 37.2969 30.0041 37.2969C29.7535 37.2969 29.3891 36.9632 28.8587 35.9591H30.5463ZM30.5463 34.6475H28.8587C28.3981 34.6475 27.9726 34.8879 27.735 35.2829C27.4975 35.6764 27.4844 36.166 27.6986 36.5726C28.232 37.5797 28.9213 38.6086 30.0027 38.6086C30.3233 38.6086 31.3974 38.4862 31.7428 36.9078C31.839 36.4677 31.855 36.0465 31.8565 35.9999C31.8681 35.6457 31.734 35.3004 31.4877 35.0453C31.24 34.7903 30.9004 34.646 30.5463 34.646V34.6475Z" fill="black"/>
<path d="M27.2959 22.1374C28.6848 22.2074 28.5128 18.7855 28.2388 16.4697C27.3717 16.6475 26.5366 16.8443 25.8167 17.0264C25.7715 19.1236 25.9478 22.0704 27.2959 22.1389V22.1374Z" fill="#FFCE6C"/>
<path d="M27.3352 23.0863C27.3061 23.0863 27.2769 23.0863 27.2478 23.0848C24.7397 22.9595 24.8373 18.4781 24.8694 17.0062C24.8781 16.5806 25.171 16.2119 25.5849 16.1084C26.4419 15.8927 27.2711 15.7018 28.0493 15.543C28.3088 15.4905 28.5798 15.5473 28.7941 15.7033C29.0083 15.8592 29.1497 16.0968 29.1803 16.3605C29.7005 20.7574 29.0768 21.9991 28.5623 22.55C28.2359 22.8997 27.8031 23.0892 27.3367 23.0892L27.3352 23.0863ZM26.7581 17.7698C26.7741 19.95 27.0977 20.7778 27.2711 21.0649C27.3979 20.7181 27.5903 19.8043 27.4052 17.6197C27.1924 17.6678 26.9767 17.7188 26.7581 17.7713V17.7698Z" fill="black"/>
<path d="M33.0459 15.9136C32.3726 15.883 31.5754 15.9384 30.7316 16.0463C30.6223 18.0341 30.5946 22.0594 32.1729 22.138C33.6784 22.2138 33.3504 18.19 33.0459 15.9151V15.9136Z" fill="#FFCE6C"/>
<path d="M32.212 23.0856C32.1829 23.0856 32.1537 23.0856 32.1246 23.0842C31.6233 23.0594 31.17 22.8364 30.813 22.44C29.9473 21.4781 29.6004 19.3096 29.7841 15.9941C29.8088 15.5379 30.1572 15.1648 30.6104 15.1065C31.5752 14.9841 32.4088 14.9375 33.0879 14.9681C33.5455 14.9885 33.923 15.3339 33.9842 15.7886C34.1809 17.2605 34.7041 21.1706 33.4479 22.5362C33.12 22.8932 32.6842 23.0856 32.212 23.0856ZM31.6437 16.9006C31.5679 19.5457 31.9191 20.7101 32.1479 21.0788C32.3126 20.6387 32.4904 19.4233 32.2091 16.8641C32.0299 16.8714 31.8419 16.8845 31.6451 16.9006H31.6437Z" fill="black"/>
<path d="M44.2067 43.5132C42.2917 43.554 40.1916 43.8571 40.1348 44.9939C40.078 46.1466 42.4229 46.2253 44.5462 46.0607C44.4632 45.2081 44.3495 44.3585 44.2067 43.5132Z" fill="#FFCE6C"/>
<path d="M43.0391 47.0712C40.8516 47.0712 40.0865 46.6106 39.6974 46.2317C39.3447 45.8892 39.164 45.4316 39.1888 44.9449C39.3024 42.6685 42.9779 42.5898 44.1861 42.565C44.6539 42.5606 45.0619 42.8914 45.1406 43.3549C45.2864 44.2191 45.403 45.0979 45.489 45.9679C45.5137 46.2215 45.435 46.4736 45.2718 46.6689C45.1086 46.8642 44.8725 46.9852 44.6189 47.0041C44.0229 47.0493 43.4997 47.0697 43.0391 47.0697V47.0712ZM41.2087 44.9682C41.4856 45.0702 42.1268 45.213 43.4938 45.1708C43.4661 44.9463 43.4355 44.7204 43.402 44.496C42.0263 44.5907 41.4404 44.8283 41.2072 44.9682H41.2087Z" fill="black"/>
<path d="M44.7221 49.5502C44.7221 49.161 44.712 48.7719 44.6988 48.3828C42.6716 48.3828 40.197 48.6335 40.1358 49.8679C40.0761 51.0527 42.558 51.1023 44.7265 50.9215L44.7236 49.5502H44.7221Z" fill="#FFCE6C"/>
<path d="M43.0377 51.9461C40.8589 51.9461 40.0923 51.4899 39.7018 51.111C39.3462 50.7671 39.164 50.3095 39.1888 49.8198C39.3083 47.4312 43.3699 47.4385 44.6991 47.4341C45.2091 47.4341 45.6274 47.8392 45.6449 48.3493C45.6595 48.7953 45.6682 49.1873 45.6682 49.5458L45.6711 50.9172C45.6711 51.4112 45.2951 51.8222 44.8025 51.863C44.1292 51.9199 43.5434 51.9446 43.0362 51.9446L43.0377 51.9461ZM41.2087 49.8431C41.5045 49.951 42.2142 50.1054 43.7765 50.034V49.5516C43.7765 49.4861 43.7765 49.4176 43.7765 49.3491C42.1341 49.4234 41.4637 49.6915 41.2116 49.8431H41.2087Z" fill="black"/>
<path d="M42.7266 32.2417C42.7266 32.2417 48.0955 31.3775 50.6269 31.6238Z" fill="#FFEEC7"/>
<path d="M42.7247 33.1884C42.267 33.1884 41.8648 32.8576 41.7905 32.3912C41.7074 31.8753 42.0586 31.3885 42.5745 31.3055C42.799 31.269 48.0936 30.4252 50.7183 30.6803C51.2386 30.7313 51.6204 31.1947 51.5694 31.715C51.5184 32.2353 51.0564 32.6171 50.5347 32.5661C48.1519 32.3329 42.9287 33.1665 42.8762 33.1753C42.8252 33.184 42.7742 33.1869 42.7247 33.1869V33.1884Z" fill="black"/>
<path d="M43.2412 34.4799C43.2412 34.4799 47.9529 34.1025 50.7292 35.4476Z" fill="#FFEEC7"/>
<path d="M50.7289 36.3962C50.5905 36.3962 50.4491 36.3655 50.3165 36.3014C47.8084 35.086 43.3619 35.4212 43.3168 35.4255C42.7936 35.4649 42.3389 35.0772 42.2981 34.557C42.2558 34.0352 42.6449 33.5791 43.1666 33.5368C43.3692 33.5208 48.1698 33.155 51.1428 34.5963C51.6135 34.8251 51.8103 35.3906 51.5815 35.8613C51.4182 36.1994 51.0801 36.3962 50.7289 36.3962Z" fill="black"/>
<path d="M17.6946 32.7671C17.6946 32.7671 12.3038 33.4754 9.94727 34.4372Z" fill="#FFEEC7"/>
<path d="M9.948 35.3845C9.57491 35.3845 9.22077 35.1616 9.07067 34.7943C8.87246 34.3105 9.10564 33.7567 9.58949 33.5599C12.0306 32.5645 17.3456 31.8577 17.57 31.8286C18.0888 31.7601 18.5639 32.1259 18.6324 32.6447C18.7009 33.1635 18.3351 33.6386 17.8163 33.7071C17.7638 33.7144 12.5188 34.411 10.3036 35.3146C10.187 35.3627 10.0646 35.3845 9.94654 35.3845H9.948Z" fill="black"/>
<path d="M17.843 35.0601C17.843 35.0601 13.2203 36.0467 10.9453 38.1307Z" fill="#FFEEC7"/>
<path d="M10.9455 39.0782C10.689 39.0782 10.434 38.9748 10.2474 38.7707C9.89329 38.3845 9.91952 37.7856 10.3057 37.4329C12.7424 35.2002 17.4468 34.1771 17.645 34.1349C18.1566 34.0256 18.6593 34.352 18.7686 34.8635C18.8779 35.3751 18.5515 35.8779 18.04 35.9872C17.9817 36.0003 13.6358 36.9505 11.5853 38.8305C11.4031 38.9966 11.1743 39.0797 10.9455 39.0797V39.0782Z" fill="black"/>
<path d="M65.3898 36.0066C65.3592 36.0066 65.3301 36.0066 65.2994 36.0023L59.4394 35.4485C58.9191 35.3989 58.5358 34.9369 58.5854 34.4167C58.6349 33.8964 59.0984 33.5116 59.6172 33.5626L65.4773 34.1164C65.9975 34.166 66.3808 34.628 66.3313 35.1483C66.2846 35.6394 65.8722 36.0066 65.3898 36.0066Z" fill="black"/>
<path d="M65.0633 39.0778C65.0166 39.0778 64.9685 39.0749 64.9204 39.0676L59.3883 38.234C58.8709 38.1553 58.5153 37.6729 58.5926 37.1555C58.6713 36.6382 59.1537 36.284 59.671 36.3598L65.2032 37.1934C65.7205 37.2721 66.0761 37.7545 65.9989 38.2719C65.9275 38.7412 65.5238 39.0778 65.0633 39.0778Z" fill="black"/>
<path d="M64.714 41.7082C64.6659 41.7082 64.6193 41.7053 64.5697 41.6965L59.0317 40.8542C58.5144 40.7755 58.1588 40.2931 58.2375 39.7757C58.3162 39.2584 58.8 38.9013 59.3159 38.9815L64.8539 39.8238C65.3713 39.9025 65.7269 40.3849 65.6482 40.9023C65.5768 41.3715 65.1731 41.7067 64.7125 41.7067L64.714 41.7082Z" fill="black"/>
<path d="M64.1101 45.5872C64.0022 45.5872 63.8915 45.5683 63.7851 45.5289L58.2194 43.4901C57.7283 43.3108 57.4761 42.7658 57.6554 42.2747C57.8346 41.7835 58.3797 41.5299 58.8708 41.7107L64.4365 43.7495C64.9276 43.9288 65.1798 44.4738 65.0005 44.9649C64.8606 45.3482 64.4977 45.5872 64.1115 45.5872H64.1101Z" fill="black"/>
<path d="M65.3894 32.751C65.3617 32.751 65.3355 32.751 65.3078 32.7466L59.4477 32.222C58.9479 32.1768 58.5777 31.7352 58.6229 31.2353C58.6681 30.7355 59.1111 30.3653 59.6095 30.4105L65.4696 30.9351C65.9695 30.9803 66.3396 31.4219 66.2944 31.9218C66.2522 32.3939 65.8558 32.7495 65.3894 32.7495V32.751Z" fill="black"/>
</svg>
