<svg width="75" height="75" viewBox="0 0 75 75" fill="none" xmlns="http://www.w3.org/2000/svg">
<path d="M41.2992 58.2602C41.2307 58.9758 41.6067 67.2011 39.355 67.2011H35.0077C35.0077 67.2011 33.8477 67.1326 33.8477 65.598C33.8477 64.0634 36.5321 64.1654 36.5321 64.1654L35.9958 57.1074" fill="white"/>
<path d="M39.3556 68.1481H35.0082C34.9893 68.1481 34.9718 68.1481 34.9529 68.1466C34.128 68.0985 32.9023 67.3801 32.9023 65.5977C32.9023 65.025 33.1195 64.512 33.5305 64.1156C34.0755 63.5909 34.8683 63.3694 35.5154 63.2776L35.052 57.18C35.0126 56.6582 35.4032 56.2035 35.9249 56.1642C36.4467 56.1263 36.9014 56.5154 36.9407 57.0371L37.477 64.0952C37.4974 64.3648 37.4027 64.63 37.2147 64.8238C37.0282 65.0177 36.7658 65.1226 36.4962 65.1138C35.9818 65.0978 35.119 65.2159 34.8421 65.4826C34.8057 65.519 34.794 65.5379 34.794 65.5991C34.794 65.8688 34.8436 66.1967 35.0753 66.255H39.3322C39.4095 66.1952 39.8817 65.7449 40.1498 63.4087C40.3349 61.7969 40.3378 59.9868 40.3393 59.0148C40.3393 58.5338 40.3407 58.3152 40.3553 58.1724C40.4049 57.6521 40.8669 57.2703 41.3886 57.3199C41.9089 57.3694 42.2907 57.8314 42.2412 58.3517C42.2353 58.4289 42.2353 58.7422 42.2339 59.0191C42.2266 63.7629 41.8724 68.151 39.3541 68.151L39.3556 68.1481Z" fill="black"/>
<path d="M45.2958 58.2602C45.2273 58.9758 45.6034 67.2011 43.3517 67.2011H39.9765C39.9765 67.2011 38.8164 67.1326 38.8164 65.598C38.8164 64.0634 41.5009 64.1654 41.5009 64.1654L40.9646 57.1074" fill="white"/>
<path d="M43.3513 68.1481H39.976C39.9571 68.1481 39.9396 68.1481 39.9206 68.1466C39.0958 68.0985 37.8701 67.3801 37.8701 65.5977C37.8701 65.025 38.0873 64.512 38.4982 64.1156C39.0433 63.5909 39.8361 63.3694 40.4832 63.2776L40.0197 57.18C39.9804 56.6582 40.371 56.2035 40.8927 56.1642C41.413 56.1263 41.8691 56.5154 41.9085 57.0371L42.4448 64.0952C42.4652 64.3648 42.3705 64.63 42.1825 64.8238C41.9959 65.0177 41.7336 65.1226 41.464 65.1138C40.9481 65.0978 40.0868 65.2159 39.8099 65.4826C39.7734 65.519 39.7618 65.5379 39.7618 65.5991C39.7618 65.8688 39.8113 66.1967 40.043 66.255H43.3279C43.4052 66.1952 43.8774 65.7449 44.1455 63.4087C44.3306 61.7954 44.3335 59.9868 44.335 59.0133C44.335 58.5324 44.3364 58.3152 44.351 58.171C44.4006 57.6507 44.8625 57.2689 45.3843 57.3184C45.9046 57.368 46.2864 57.8299 46.2383 58.3502C46.2325 58.4275 46.2325 58.7408 46.231 59.0177C46.2237 63.7614 45.8696 68.151 43.3513 68.151V68.1481Z" fill="black"/>
<path d="M53.1173 55.7522C53.1173 55.7522 53.3461 56.615 54.0587 57.0362C54.7714 57.4574 55.2581 56.3469 55.2581 56.3469C55.2581 56.3469 55.7464 57.2796 56.6222 57.2796C57.4981 57.2796 57.3116 55.3384 57.3116 55.3384C57.3116 55.3384 58.0038 54.9259 58.358 54.0617C58.7121 53.1989 57.7123 52.9162 57.7123 52.9162C57.7123 52.9162 58.1102 52.3988 57.8246 51.5069C57.5389 50.615 56.5523 51.2198 56.5523 51.2198C56.5523 51.2198 56.067 50.4256 55.2829 50.4518C54.4989 50.478 54.3313 51.3437 54.3313 51.3437C54.3313 51.3437 54.1316 50.8555 53.2951 51.0289C52.4585 51.2023 52.4658 52.6816 52.4658 52.6816" fill="white"/>
<path d="M56.6209 58.2268C56.0729 58.2268 55.6284 58.0301 55.2874 57.7823C55.1562 57.8741 55.009 57.9528 54.8443 58.0053C54.4232 58.1408 53.9728 58.0869 53.5764 57.8523C52.5592 57.2518 52.2342 56.1224 52.2007 55.9956C52.0666 55.4899 52.3668 54.971 52.8725 54.837C53.3753 54.7043 53.8912 55.0002 54.0297 55.5015C54.0603 55.6079 54.1652 55.8615 54.3415 56.0553C54.3619 56.0233 54.3794 55.9897 54.394 55.9591C54.5397 55.6254 54.8633 55.4097 55.2276 55.3966C55.589 55.3806 55.9286 55.5846 56.0977 55.9081C56.1385 55.981 56.2361 56.1136 56.3542 56.2113C56.3848 55.9868 56.392 55.6837 56.3687 55.4272C56.3352 55.0556 56.4999 54.7087 56.8263 54.5251C56.8263 54.5251 57.1965 54.2832 57.4268 53.8226C57.1047 53.7396 56.8336 53.5385 56.7418 53.2178C56.65 52.8972 56.7156 52.5999 56.94 52.3594C56.9575 52.3172 56.9881 52.221 56.9765 52.0709C56.7724 52.1846 56.5494 52.2195 56.3177 52.1642C56.0641 52.1029 55.8703 51.9412 55.7406 51.7153C55.6736 51.6118 55.4739 51.4034 55.3209 51.4005C55.2903 51.4398 55.2597 51.5244 55.2597 51.5244C55.181 51.9354 54.84 52.2472 54.4232 52.288C54.0996 52.3186 53.7906 52.1846 53.5939 51.9412C53.5837 51.9412 53.572 51.9426 53.5604 51.9441C53.4831 52.0796 53.4146 52.4177 53.4132 52.6815C53.4103 53.2033 52.9876 53.6274 52.4659 53.6274C51.9442 53.6274 51.5215 53.2091 51.5186 52.6873C51.5128 51.6468 51.9238 50.3454 53.1028 50.1005C53.4336 50.032 53.7236 50.0291 53.9728 50.0699C54.2862 49.7493 54.7146 49.5234 55.2509 49.5059C55.9461 49.4797 56.4766 49.7959 56.8336 50.1122C57.1164 50.0553 57.4457 50.0495 57.7751 50.1719C58.2269 50.3395 58.565 50.7126 58.7268 51.2198C58.8871 51.7197 58.8987 52.1525 58.8477 52.5023C58.9891 52.6349 59.1202 52.7996 59.2193 53.0021C59.368 53.3053 59.4904 53.7993 59.2354 54.4202C58.9774 55.0483 58.5883 55.4971 58.2793 55.7799C58.2779 56.3672 58.1817 57.2198 57.7066 57.7429C57.4239 58.0534 57.0391 58.2253 56.6238 58.2253L56.6209 58.2268Z" fill="black"/>
<path d="M52.9417 29.6049C52.9417 29.6049 54.625 30.3117 53.9852 32.7514C53.344 35.1895 51.9478 34.1883 51.9478 34.1883C51.9478 34.1883 53.7127 36.1689 52.5993 37.5811C51.4873 38.9933 50.2587 38.1626 50.2587 38.1626C50.2587 38.1626 51.2337 39.6972 50.1115 40.6692C50.1115 40.6692 53.9808 48.2111 52.8164 56.4C52.5803 58.06 51.6476 59.5523 50.2398 60.4646C48.2767 61.7384 45.0982 62.8911 40.0528 62.8226C33.6564 62.7352 30.2039 61.8345 28.7786 58.1314C26.7675 52.9082 27.5763 45.5354 27.9596 43.2167C27.5967 43.1686 27.1741 43.0433 26.6902 42.7984C24.6324 41.7622 26.2676 39.8589 26.2676 39.8589C26.2676 39.8589 25.2431 40.4419 23.4942 38.9685C21.7468 37.4951 24.6528 35.3761 24.6528 35.3761C24.6528 35.3761 23.7012 36.2782 22.3298 34.1606C20.9584 32.0431 23.468 30.5391 23.468 30.5391L26.0942 21.945L37.5709 17.6021L47.2041 19.5768L52.4637 22.6635L52.9403 29.602" fill="white"/>
<path d="M40.4873 63.7727C40.3387 63.7727 40.1901 63.7727 40.0385 63.7698C33.6042 63.6809 29.5542 62.786 27.8928 58.4722C25.9049 53.3117 26.5651 46.4111 26.8974 43.9204C26.6876 43.8447 26.4762 43.7528 26.2635 43.645C25.204 43.1116 24.8556 42.3669 24.7493 41.8364C24.6749 41.4648 24.6982 41.1048 24.7726 40.7784C24.2304 40.6166 23.5936 40.2931 22.8838 39.6941C22.1114 39.0426 21.9715 38.3023 21.989 37.7966C22.0123 37.1291 22.3198 36.5097 22.6958 35.9967C22.2936 35.6907 21.9059 35.2506 21.5343 34.6778C21.0272 33.8938 20.8581 33.047 21.049 32.2265C21.3113 31.0927 22.1741 30.3101 22.6594 29.9487L25.1894 21.6708C25.2754 21.391 25.4852 21.1651 25.7607 21.0617L37.2374 16.7187C37.405 16.6561 37.5872 16.64 37.7635 16.6765L47.3967 18.6512C47.4987 18.6716 47.5964 18.7095 47.6853 18.7619L52.9449 21.8486C53.2145 22.0075 53.3894 22.2888 53.4113 22.6006L53.8543 29.0568C54.6311 29.6616 55.4414 30.9353 54.9022 32.9902C54.6355 34.0031 54.1997 34.6968 53.6022 35.0582C54.0059 36.023 54.1239 37.1787 53.3457 38.1668C52.8545 38.7891 52.2483 39.1811 51.5925 39.3064C51.6216 39.8019 51.5327 40.3295 51.2296 40.8104C52.1215 42.7662 54.7754 49.355 53.7552 56.5325C53.4783 58.4795 52.3853 60.2021 50.7574 61.2587C48.1851 62.9274 44.7327 63.7712 40.4903 63.7712L40.4873 63.7727ZM26.3232 38.8474C26.5695 38.8474 26.8158 38.9596 27.0111 39.1621C27.3492 39.5148 27.3055 40.1065 26.9863 40.4767C26.842 40.6487 26.5418 41.1456 26.6074 41.4677C26.6424 41.6382 26.8129 41.8014 27.1146 41.953C27.4643 42.1293 27.7908 42.2386 28.0837 42.278C28.3373 42.3115 28.5676 42.447 28.7191 42.654C28.8721 42.8595 28.9333 43.1189 28.8925 43.3725C27.7558 50.2294 28.8401 55.6624 29.6606 57.7916C30.8017 60.7545 33.4264 61.7848 40.0647 61.8766C44.1308 61.9262 47.3821 61.1902 49.7241 59.6716C50.8929 58.9138 51.6785 57.6721 51.8781 56.2687C52.9828 48.4878 49.3044 41.1762 49.268 41.1034C49.0698 40.7157 49.1616 40.2406 49.491 39.9549C49.9777 39.5323 49.4764 38.7002 49.456 38.6652C49.2111 38.279 49.2592 37.7616 49.5959 37.4512C49.9296 37.1437 50.4178 37.1043 50.7836 37.374C51.0299 37.5168 51.4132 37.562 51.8577 36.9965C52.4421 36.2547 51.2544 34.8338 51.2427 34.8192C50.9133 34.4505 50.9002 33.8719 51.2427 33.5149C51.5823 33.1622 52.1098 33.1068 52.4917 33.4114C52.5339 33.4332 52.5922 33.4507 52.6097 33.4464C52.6563 33.4332 52.8837 33.2248 53.0717 32.5122C53.4608 31.033 52.7467 30.5681 52.5689 30.4777C52.2221 30.348 52.0253 30.0434 52.0005 29.6732L51.5589 23.2331L46.8662 20.4802L37.6557 18.5914L26.8712 22.6721L24.3805 30.8216C24.312 31.0461 24.1619 31.237 23.9608 31.358C23.716 31.5081 23.0398 32.0415 22.8984 32.6652C22.827 32.9785 22.9028 33.3021 23.1301 33.6518C23.6825 34.5044 24.0308 34.6108 24.0905 34.6239C24.0934 34.621 24.0978 34.6195 24.1007 34.6166C24.5044 34.3222 25.067 34.3922 25.3861 34.7755C25.7053 35.1588 25.6718 35.7257 25.3103 36.0696C25.2579 36.1192 25.1967 36.1687 25.1282 36.2153C24.6079 36.622 23.904 37.3769 23.888 37.8695C23.8865 37.9307 23.8821 38.0575 24.1109 38.2513C25.1121 39.0951 25.698 39.047 25.835 39.0193C25.9895 38.9071 26.16 38.8532 26.329 38.8532L26.3232 38.8474Z" fill="black"/>
<path d="M52.9411 29.605C52.9411 29.605 54.6244 30.3118 53.9846 32.7514C53.3433 35.1896 51.9472 34.1884 51.9472 34.1884C51.9472 34.1884 53.7121 36.169 52.5986 37.5811C51.4867 38.9933 50.2581 38.1626 50.2581 38.1626C50.2581 38.1626 51.2331 39.6972 50.1109 40.6693C48.9887 41.6414 48.1595 41.2726 47.9365 40.8209" fill="white"/>
<path d="M48.7787 42.2315C48.6242 42.2315 48.4843 42.2155 48.3604 42.1892C47.7993 42.0756 47.3242 41.72 47.0882 41.2376C46.8579 40.7683 47.0517 40.1999 47.5224 39.9697C47.9684 39.7511 48.5018 39.9143 48.7525 40.334C48.837 40.3428 49.092 40.3005 49.4928 39.9522C49.9796 39.5296 49.4782 38.6974 49.4578 38.6624C49.213 38.2762 49.2611 37.7589 49.5977 37.4484C49.9315 37.1409 50.4197 37.1016 50.7855 37.3712C51.0318 37.514 51.4151 37.5592 51.8596 36.9937C52.444 36.2519 51.2562 34.831 51.2446 34.8164C50.9152 34.4477 50.9021 33.8691 51.2446 33.5121C51.5841 33.1594 52.1117 33.104 52.4935 33.4086C52.5358 33.4305 52.5941 33.448 52.6116 33.4436C52.6582 33.4305 52.8855 33.2221 53.0735 32.5094C53.4714 30.9952 52.715 30.5434 52.5591 30.4691L52.5795 30.4779L53.314 28.7319C54.1593 29.0861 55.5787 30.4341 54.9069 32.9918C54.6402 34.0047 54.2045 34.6984 53.6069 35.0598C54.0106 36.0246 54.1287 37.1803 53.3504 38.1684C52.8593 38.7907 52.253 39.1827 51.5972 39.308C51.6395 40.0105 51.4427 40.7741 50.7374 41.3862C49.9737 42.0479 49.2975 42.2315 48.7831 42.2315H48.7787Z" fill="black"/>
<path d="M35.2446 29.6536C34.9837 29.5021 34.6529 29.5881 34.4561 29.8154C34.2915 30.0049 34.1618 30.2788 34.392 30.5659C34.8409 31.1241 35.5433 30.5062 35.5433 30.2074C35.5433 30.0136 35.4661 29.7804 35.2446 29.6522V29.6536Z" fill="black"/>
<path d="M34.8268 31.1557C34.5528 31.1557 34.2977 31.0303 34.1083 30.7957C33.811 30.427 33.8387 29.9708 34.1812 29.5774C34.5032 29.2072 35.0279 29.1066 35.4287 29.3383C35.7289 29.5132 35.9081 29.8382 35.9081 30.2084C35.9081 30.5523 35.5686 30.9517 35.1518 31.0988C35.0425 31.1367 34.9332 31.1557 34.8268 31.1557ZM34.9608 29.9417C34.8749 29.9417 34.7874 29.9912 34.7306 30.0554C34.5834 30.2244 34.6329 30.2856 34.6752 30.3396C34.7524 30.4357 34.8122 30.4343 34.8618 30.4255C35.0089 30.3993 35.1459 30.255 35.1765 30.1894C35.1736 30.1297 35.1532 30.0248 35.0599 29.9708C35.0279 29.9519 34.9929 29.9446 34.9579 29.9446L34.9608 29.9417Z" fill="black"/>
<path d="M40.5815 29.6531C40.3206 29.5016 39.9898 29.5876 39.793 29.8149C39.6284 30.0044 39.4987 30.2784 39.7289 30.5655C40.1778 31.1236 40.8802 30.5057 40.8802 30.2069C40.8802 30.0131 40.803 29.7799 40.5815 29.6517V29.6531Z" fill="black"/>
<path d="M40.1647 31.1552C39.8907 31.1552 39.6356 31.0299 39.4462 30.7952C39.1489 30.4265 39.1766 29.9704 39.519 29.5769C39.8411 29.2067 40.3658 29.1061 40.7666 29.3379C41.0668 29.5127 41.246 29.8377 41.246 30.2079C41.246 30.5518 40.9065 30.9512 40.4897 31.0984C40.3804 31.1362 40.2711 31.1552 40.1647 31.1552ZM40.2973 29.9412C40.2113 29.9412 40.1224 29.9908 40.067 30.0549C39.9198 30.2239 39.9694 30.2851 40.0116 30.3391C40.0889 30.4353 40.1486 30.4338 40.1982 30.4251C40.3454 30.3988 40.4824 30.2545 40.513 30.189C40.5101 30.1292 40.4897 30.0243 40.3964 29.9704C40.3643 29.9514 40.3293 29.9441 40.2944 29.9441L40.2973 29.9412Z" fill="black"/>
<path d="M37.6103 37.7408C37.0186 37.7408 36.5188 37.2526 35.8848 36.0532C35.777 35.8491 35.7843 35.6058 35.9023 35.4076C36.0203 35.2108 36.2346 35.0898 36.4634 35.0898H38.151C38.3288 35.0898 38.4979 35.1613 38.6217 35.2895C38.7456 35.4178 38.8112 35.5897 38.8068 35.7661C38.7675 37.0194 38.3317 37.7393 37.6089 37.7393L37.6103 37.7408Z" fill="#EF9178"/>
<path d="M38.1527 35.7462C38.1527 35.7462 38.1105 37.0841 37.6106 37.0841C37.3599 37.0841 36.9956 36.7503 36.4651 35.7462H38.1527ZM38.1527 34.4346H36.4651C36.0046 34.4346 35.579 34.675 35.3415 35.07C35.1039 35.4635 35.0908 35.9531 35.305 36.3597C35.8384 37.3668 36.5278 38.3957 37.6091 38.3957C37.9298 38.3957 39.0038 38.2733 39.3492 36.6949C39.4454 36.2548 39.4614 35.8336 39.4629 35.787C39.4746 35.4329 39.3405 35.0875 39.0942 34.8324C38.8464 34.5774 38.5069 34.4331 38.1527 34.4331V34.4346Z" fill="black"/>
<path d="M47.9979 22.4897C47.9979 22.4897 46.7723 23.402 46.558 24.8011C46.3423 26.1987 48.4147 26.2687 48.4147 26.2687C48.4147 26.2687 47.243 27.6371 47.7997 29.0274C48.3564 30.4178 51.3221 28.889 51.3221 28.889C51.3221 28.889 52.4181 29.7255 54.0139 29.7401C55.6097 29.7547 55.4217 27.9869 55.4217 27.9869C55.4217 27.9869 56.4958 28.29 57.7302 27.2713C58.9646 26.2526 57.3775 25.0678 57.3775 25.0678C57.3775 25.0678 58.3306 23.7926 57.7914 22.564C57.2522 21.334 55.7715 21.6197 55.7715 21.6197C55.7715 21.6197 56.42 20.993 55.6141 19.7732C54.8082 18.5534 52.4618 19.5079 52.4618 19.5079C52.4618 19.5079 53.8186 18.4572 52.2155 16.7666C50.611 15.0746 48.9802 17.112 48.9802 17.112C48.9802 17.112 49.1638 14.8968 47.9411 13.9729C46.7183 13.0489 44.8631 14.4567 44.8631 14.4567C45.3557 13.3141 43.142 11.3423 41.8026 11.2913C40.1383 11.2286 38.8311 12.9396 38.8311 12.9396C38.8311 12.9396 38.5003 11.3234 36.3915 10.9853C34.2812 10.6486 33.7215 12.9163 33.7215 12.9163C33.7215 12.9163 32.6795 11.9763 30.6932 12.5111C28.7461 13.0358 29.2868 16.1429 29.2868 16.1429C29.2868 16.1429 28.631 14.9814 26.0587 15.2553C23.4865 15.5293 23.7954 19.2441 23.7954 19.2441C23.7954 19.2441 22.6864 17.9675 20.7423 19.3433C18.7981 20.719 19.3344 22.4547 19.3344 22.4547C19.3344 22.4547 16.9502 22.2609 16.9502 24.0709C16.9502 25.881 18.8156 26.7365 18.8156 26.7365C18.8156 26.7365 16.3935 28.0845 17.6701 29.9164C18.9468 31.7483 21.3427 29.9193 21.3427 29.9193C21.3427 29.9193 19.8606 32.4945 21.7041 32.8151C23.5491 33.1372 25.1552 32.9652 25.196 31.3709C25.196 31.3709 26.8413 32.8166 28.306 31.4481C29.7706 30.0797 28.8088 28.8074 28.22 28.5596C28.22 28.5596 30.7573 27.1737 30.0854 25.5341C29.5593 24.2487 27.8586 23.8655 27.8586 23.8655" fill="white"/>
<path d="M23.0741 33.894C22.615 33.894 22.1049 33.8445 21.5394 33.7454C20.8326 33.6215 20.2949 33.2367 20.0252 32.6611C19.8708 32.3303 19.8198 31.9688 19.8343 31.6118C19.4831 31.6788 19.11 31.6992 18.7326 31.6395C17.9864 31.5229 17.351 31.1119 16.8905 30.4532C16.4081 29.7609 16.2434 29.0031 16.4154 28.2613C16.5538 27.6594 16.8919 27.1624 17.2475 26.7821C16.6296 26.2064 16 25.313 16 24.067C16 23.3529 16.258 22.7379 16.7462 22.2876C17.2154 21.8547 17.8188 21.6551 18.3332 21.5647C18.4061 20.718 18.7981 19.5535 20.1928 18.5654C21.2334 17.8295 22.1632 17.675 22.9065 17.7858C23.1367 16.2482 23.9354 14.5256 25.9553 14.3099C26.9404 14.205 27.7099 14.2866 28.3031 14.4528C28.4546 13.2227 29.0201 11.9767 30.4439 11.5934C31.655 11.267 32.5979 11.3908 33.2552 11.6109C33.8192 10.6811 34.8685 9.78191 36.5372 10.0471C37.7978 10.2483 38.5775 10.8225 39.0526 11.3894C39.7259 10.8516 40.698 10.2978 41.8362 10.3415C43.1682 10.3911 44.732 11.5934 45.4169 12.6791C45.4825 12.7826 45.5408 12.8846 45.5903 12.9837C46.5041 12.6383 47.6059 12.5305 48.5095 13.214C49.2454 13.7693 49.6068 14.6 49.7817 15.3592C50.0674 15.2427 50.3851 15.161 50.729 15.1465C51.2799 15.1217 52.1048 15.2718 52.9005 16.1112C53.549 16.7947 53.8973 17.5001 53.9396 18.2098C55.3416 18.1268 56.0498 18.7156 56.4025 19.2475C56.7698 19.8013 56.9287 20.307 56.9607 20.7457C57.6151 20.9191 58.2869 21.3315 58.6585 22.1797C59.087 23.1547 58.8815 24.1676 58.5565 24.9006C58.8495 25.262 59.1322 25.7619 59.1468 26.3565C59.157 26.7908 59.0243 27.4277 58.3321 27.999C57.5728 28.6242 56.8456 28.8661 56.2787 28.9419C56.1927 29.2858 56.0324 29.6589 55.7424 29.9795C55.4494 30.3031 54.916 30.6849 54.0314 30.6849C54.0227 30.6849 54.0125 30.6849 54.0037 30.6849C52.7926 30.6747 51.8177 30.2652 51.2595 29.962C50.474 30.3016 49.0283 30.8 47.9833 30.4109C47.4835 30.2244 47.1148 29.8673 46.9195 29.3776C46.5522 28.461 46.7052 27.5792 46.9676 26.903C46.6294 26.7573 46.2942 26.546 46.0348 26.2341C45.6719 25.7969 45.5277 25.2504 45.6195 24.6558C45.8862 22.9244 47.2736 21.8474 47.431 21.7294C47.8507 21.416 48.4439 21.5035 48.7572 21.9232C49.0691 22.3415 48.9831 22.9317 48.5677 23.2465C48.5459 23.264 47.6438 23.9694 47.4937 24.9443C47.4849 24.9997 47.4908 25.0216 47.4908 25.0216C47.5622 25.1469 48.0708 25.3087 48.4453 25.3203C48.8097 25.332 49.1347 25.5521 49.2804 25.8858C49.4276 26.2195 49.3693 26.6072 49.1332 26.8841C49.1288 26.8885 48.3623 27.8226 48.6668 28.646C48.9845 28.7568 50.0557 28.4712 50.8864 28.0456C51.2114 27.8795 51.6049 27.913 51.8949 28.1345C51.8978 28.1374 52.781 28.7801 54.0197 28.7903C54.1801 28.7903 54.285 28.7641 54.336 28.7087C54.4511 28.5834 54.4905 28.2613 54.4759 28.0747C54.4409 27.7527 54.5488 27.4306 54.8023 27.228C55.053 27.0284 55.3605 26.9657 55.6637 27.0677C55.7642 27.0852 56.3749 27.1552 57.1254 26.5372C57.2332 26.4483 57.2522 26.3973 57.2522 26.3973C57.2522 26.2997 57.0423 26.0038 56.8033 25.8202C56.3923 25.504 56.3064 24.9123 56.6168 24.4969C56.6182 24.494 57.223 23.6283 56.9214 22.9405C56.6882 22.41 55.9551 22.5441 55.9478 22.5455C55.5369 22.6242 55.1215 22.4245 54.9277 22.0529C54.747 21.7046 54.8009 21.2834 55.0559 20.992C55.0836 20.9249 55.088 20.6961 54.8213 20.2939C54.5896 19.9441 53.4965 20.1117 52.813 20.3842C52.3642 20.5635 51.8308 20.393 51.6034 19.9674C51.3775 19.5448 51.4796 19.0376 51.8687 18.7636C51.9051 18.7287 52.0377 18.5873 52.0465 18.3862C52.0581 18.1282 51.873 17.7828 51.5233 17.4141C51.156 17.0265 50.8951 17.0352 50.8106 17.0381C50.3472 17.0542 49.8502 17.5365 49.7118 17.7041C49.448 18.0248 49.0064 18.1384 48.6217 17.9825C48.2384 17.8266 47.9979 17.4418 48.0314 17.0294C48.065 16.5893 48.0154 15.215 47.3654 14.7238C46.8859 14.3609 45.8337 14.9045 45.4286 15.2077C45.0846 15.4642 44.6095 15.4598 44.2729 15.1931C43.9406 14.9308 43.8226 14.4819 43.9814 14.0928C43.9814 14.0258 43.9115 13.7547 43.553 13.3466C42.9846 12.6995 42.167 12.2478 41.7618 12.2317C40.8131 12.1982 39.8614 13.144 39.5758 13.5128C39.3441 13.8101 38.9608 13.9645 38.595 13.8713C38.2321 13.778 37.961 13.5011 37.8984 13.1338C37.8605 12.9925 37.5734 12.1312 36.2355 11.9169C35.023 11.7217 34.6718 12.9939 34.6353 13.1397C34.5537 13.472 34.3162 13.7489 33.9883 13.8407C33.6633 13.9325 33.331 13.8582 33.0891 13.6235C32.9958 13.5536 32.2802 13.0595 30.9336 13.4224C29.8814 13.7051 30.2108 15.9568 30.2151 15.9786C30.2953 16.4537 30.0315 16.9653 29.5681 17.0993C29.1148 17.229 28.6601 17.0571 28.4678 16.6315C28.3672 16.5251 27.7959 16.018 26.1535 16.1929C24.5358 16.3648 24.7325 19.1367 24.734 19.1644C24.7661 19.5827 24.5387 19.9951 24.1467 20.1452C23.759 20.2939 23.3378 20.1948 23.0813 19.8712C22.956 19.7503 22.3905 19.3291 21.2829 20.1132C20.0092 21.0138 20.1972 22.0238 20.2351 22.1783C20.3386 22.4785 20.2788 22.7947 20.0835 23.0468C19.8883 23.3019 19.5706 23.4214 19.2499 23.3952C18.9745 23.3762 18.3041 23.4199 18.0228 23.6823C17.9572 23.7435 17.8887 23.8367 17.8887 24.067C17.8887 25.2329 19.1945 25.8668 19.2077 25.8741C19.5283 26.0257 19.7396 26.3463 19.7513 26.7005C19.7629 27.0546 19.5778 27.3869 19.2689 27.5603C19.0459 27.6871 18.3726 28.1724 18.2545 28.6912C18.2239 28.8253 18.2108 29.0424 18.4396 29.3703C18.6509 29.6735 18.8594 29.742 19.0167 29.7668C19.6478 29.8673 20.512 29.3499 20.7641 29.159C21.1241 28.8894 21.6254 28.9084 21.9621 29.2057C22.2987 29.5044 22.3818 29.997 22.1559 30.3861C21.8367 30.9458 21.6604 31.6366 21.7289 31.8391C21.7464 31.8479 21.7872 31.8639 21.8586 31.8756C23.4705 32.1568 23.9718 31.8697 24.0869 31.7765C24.1306 31.74 24.2327 31.657 24.2414 31.3407C24.2502 30.9735 24.4717 30.6441 24.8083 30.4969C25.145 30.3497 25.537 30.4109 25.8124 30.6528C25.9771 30.7927 26.869 31.4792 27.6502 30.749C27.8877 30.5275 28.1617 30.1938 28.1165 29.8688C28.0845 29.6385 27.9052 29.4592 27.8353 29.4228C27.5001 29.2814 27.2786 28.9623 27.2596 28.5994C27.2407 28.2365 27.4359 27.8955 27.7551 27.7221C28.1078 27.5268 29.4821 26.5824 29.1979 25.8872C28.9239 25.2198 27.9766 24.8627 27.6342 24.7826C27.127 24.6616 26.8093 24.1544 26.9273 23.6473C27.0454 23.1401 27.5482 22.8209 28.0568 22.9361C28.2798 22.9871 30.2589 23.4782 30.9511 25.1702C31.5326 26.5912 30.6611 27.8591 29.6745 28.6898C29.8144 28.9317 29.9222 29.2086 29.9776 29.5146C30.0723 30.0437 30.0636 31.0871 28.9429 32.1335C27.8571 33.1493 26.649 33.1056 25.7235 32.7602C25.5851 32.9657 25.4292 33.1231 25.2849 33.2411C24.7559 33.6739 24.0228 33.8896 23.0653 33.8896L23.0741 33.894ZM55.1098 20.9366H55.1084C55.1084 20.9366 55.1084 20.9366 55.1098 20.9366Z" fill="black"/>
</svg>
