<svg width="75" height="75" viewBox="0 0 75 75" fill="none" xmlns="http://www.w3.org/2000/svg">
<path d="M19.8011 22.5593C19.6175 22.5593 19.4309 22.5054 19.2677 22.3946C19.2546 22.3859 18.1893 21.6572 17.1268 20.9256C16.6444 21.4415 15.9843 21.972 15.1842 21.972C14.7295 21.972 14.3039 21.7971 13.9512 21.4648C13.0739 20.6399 13.3829 19.4405 13.8492 18.5165C13.6423 18.3125 13.4397 18.0779 13.2823 17.817C12.8218 17.0563 12.8393 16.2197 13.3319 15.5231C13.7079 14.9926 14.285 14.6997 14.9583 14.6997C16.2816 14.6997 17.7083 15.8365 18.0319 16.1104L21.7365 18.9436C22.1416 19.2525 22.2291 19.8267 21.9347 20.2435L20.5764 22.1614C20.3913 22.4223 20.0999 22.5622 19.8026 22.5622L19.8011 22.5593Z" fill="#EF9178"/>
<path d="M14.9563 15.646C16.0289 15.646 17.4353 16.8469 17.4353 16.8469L21.1589 19.6946L19.8006 21.6125C19.8006 21.6125 18.2033 20.5209 16.9558 19.6567C16.6381 20.0517 15.9065 21.0237 15.1822 21.0237C14.984 21.0237 14.7858 20.9508 14.5978 20.773C13.974 20.1857 14.6036 18.9994 15.0627 18.3086C14.3734 17.7855 13.4756 16.9548 14.1023 16.0687C14.3194 15.7626 14.6211 15.646 14.9549 15.646M14.9563 13.7515C13.9668 13.7515 13.1142 14.1858 12.556 14.9757C11.8463 15.9798 11.8142 17.2244 12.47 18.3072C12.5502 18.4398 12.6391 18.5666 12.7309 18.6861C12.6857 18.8056 12.6449 18.9222 12.61 19.0388C12.0897 20.776 12.9189 21.7976 13.3007 22.1561C13.8327 22.656 14.4841 22.9212 15.1837 22.9212C15.9969 22.9212 16.676 22.57 17.2152 22.1386C18.0357 22.7026 18.7221 23.1719 18.7338 23.1792C19.0603 23.4021 19.4333 23.51 19.8021 23.51C20.3967 23.51 20.9811 23.2316 21.3498 22.7099L22.708 20.792C23.2968 19.9598 23.1219 18.8114 22.3131 18.1921L18.6274 15.3721C18.1217 14.948 16.5565 13.7529 14.9607 13.7529L14.9563 13.7515Z" fill="black"/>
<path d="M36.5883 18.7976C36.5475 18.7976 36.5067 18.7947 36.4659 18.7903L34.1356 18.4886C33.6299 18.4231 33.267 17.9698 33.3136 17.4627L33.7421 12.8195C33.8164 11.0269 34.5116 8.94873 36.2327 8.94873C36.3201 8.94873 36.409 8.95456 36.4965 8.96622C37.3418 9.07698 37.9699 9.62932 38.2162 10.4848C38.3007 10.7777 38.3371 11.0852 38.3459 11.3767C39.3413 11.6609 40.4328 12.2467 40.4445 13.4505C40.4503 13.9592 40.274 14.4066 39.9388 14.7461C39.5001 15.1906 38.8312 15.4107 37.8956 15.4194C37.7134 16.6975 37.5268 17.9742 37.5239 17.9902C37.4554 18.461 37.0517 18.8005 36.5883 18.8005V18.7976Z" fill="#EF9178"/>
<path d="M36.2304 9.89457C36.2756 9.89457 36.3237 9.89749 36.3718 9.90332C37.4488 10.0432 37.4503 11.2674 37.3686 12.1287C38.1891 12.2599 39.4876 12.6009 39.4964 13.4578C39.5051 14.3191 38.5928 14.4692 37.8365 14.4692C37.5362 14.4692 37.2593 14.4459 37.0757 14.4328C36.8658 15.9339 36.5846 17.8503 36.5846 17.8503L34.2542 17.5487L34.6842 12.8807C34.6842 12.8807 34.7993 9.89457 36.229 9.89457M36.2304 8C35.528 8 33.8185 8.28127 33.0956 10.8812C32.8654 11.7119 32.8071 12.5135 32.794 12.7496L32.3684 17.3767C32.2751 18.391 33.0009 19.299 34.0123 19.4287L36.3427 19.7303C36.4257 19.7405 36.5073 19.7464 36.5889 19.7464C37.5158 19.7464 38.3232 19.0672 38.4617 18.1258C38.4631 18.1127 38.5841 17.2892 38.7254 16.3026C39.5183 16.1831 40.1391 15.8873 40.6113 15.4107C41.1214 14.8948 41.3997 14.1938 41.391 13.4389C41.3851 12.9157 41.1971 11.6128 39.5678 10.8185C39.46 10.7661 39.3463 10.7151 39.2268 10.6684C39.202 10.5198 39.1685 10.3697 39.1248 10.2196C38.7735 9.00412 37.835 8.18363 36.6166 8.02478C36.4884 8.00729 36.3572 8 36.2304 8Z" fill="black"/>
<path d="M60.206 62.9574C60.206 62.9574 61.0688 61.6487 61.0892 59.8751C61.1037 58.6538 60.0457 56.921 58.6204 56.0888C55.2291 54.1112 52.2196 56.5275 52.2196 56.5275C52.2196 56.5275 54.7146 55.1226 55.3559 52.7966C55.6751 51.638 55.1431 49.9999 54.3926 48.6883C52.7224 45.7736 47.8461 46.7019 47.8461 46.7019C47.8461 46.7019 50.9168 46.5052 52.3931 44.7316C53.0649 43.9242 52.9629 42.1462 52.8157 40.6524C52.345 35.8723 46.6846 37.2684 46.6846 37.2684C46.6846 37.2684 52.0987 36.3372 51.4676 31.6736C51.2651 30.1769 50.5859 29.3462 49.9636 28.6787C48.0428 26.6122 46.2211 27.9092 46.2211 27.9092C46.2211 27.9092 50.8351 25.9141 48.6141 21.6877C47.7922 20.124 47.0139 19.5483 45.5362 19.3049C43.5993 18.9872 41.7354 20.0598 41.7354 20.0598L44.2158 40.5416L48.907 55.057L56.9313 61.2289L60.2031 62.953L60.206 62.9574Z" fill="#33758E"/>
<path d="M60.526 64.1961L56.422 62.0334L48.1005 55.6326L43.2912 40.75L42.0786 30.7364L38.374 32.3381L41.9635 29.7819L40.7248 19.5541L41.2684 19.2407C41.3558 19.1897 43.4515 18.002 45.6958 18.3722C47.4913 18.6665 48.5115 19.4462 49.4587 21.2475C50.2224 22.6991 50.3754 24.0952 49.9149 25.3981C49.7152 25.9621 49.4179 26.4518 49.0798 26.87C49.6016 27.0989 50.1393 27.469 50.6625 28.033C51.4364 28.8652 52.184 29.8679 52.4114 31.5467C52.6795 33.5244 52.0558 35.2003 50.6013 36.4464C51.0516 36.5921 51.4932 36.7976 51.8984 37.0847C52.9841 37.8528 53.6108 39.0216 53.7623 40.5605C53.9329 42.2963 54.0392 44.2404 53.124 45.3378C52.9083 45.5957 52.6679 45.826 52.4114 46.03C53.5102 46.3958 54.5522 47.0575 55.2168 48.219C55.7006 49.0643 56.7733 51.2285 56.2719 53.0487C56.1422 53.5194 55.9498 53.9566 55.7225 54.356C56.7485 54.337 57.9013 54.5702 59.1007 55.2697C60.7679 56.2418 62.0591 58.2704 62.0402 59.8852C62.0154 61.9124 61.0419 63.4135 60.9996 63.4762L60.5274 64.1932L60.526 64.1961ZM57.448 60.4332L59.7856 61.6646C59.962 61.2056 60.1354 60.576 60.1441 59.8633C60.1543 59.0239 59.3018 57.5826 58.1446 56.9078C56.0781 55.7026 54.1675 56.4648 53.3018 56.9515C53.2304 57.0025 53.1648 57.0492 53.1036 57.09L57.448 60.4317V60.4332ZM49.7211 54.49L51.8619 56.1369L51.6273 55.79C51.6623 55.7623 51.8853 55.5874 52.2583 55.3674C52.9302 54.8762 54.0771 53.8721 54.4429 52.5459C54.6543 51.7823 54.3118 50.4531 53.5714 49.1605C52.5775 47.4262 49.9295 47.4393 48.6849 47.5501C48.2418 47.6244 47.9475 47.6448 47.9066 47.6477L47.6691 45.7721C47.7186 45.7633 48.0087 45.7094 48.4532 45.6671C49.3276 45.5127 50.8447 45.1119 51.6666 44.1253C51.9873 43.7391 52.0587 42.6023 51.8751 40.7456C51.7789 39.7648 51.4276 39.0726 50.8024 38.631C49.5855 37.7697 47.64 38.0495 47.073 38.1559C46.9404 38.1865 46.8603 38.1996 46.8471 38.2025L46.4595 36.3488C46.4813 36.3429 46.5775 36.3196 46.7349 36.2905C47.6283 36.0806 50.9729 35.0706 50.5299 31.8003C50.3652 30.5863 49.8406 29.9363 49.2707 29.3228C48.3337 28.3143 47.5088 28.3828 47.0672 28.5387C46.8034 28.6874 46.6242 28.7661 46.5979 28.7777L43.8887 29.9495L45.1464 40.339L49.7182 54.4886L49.7211 54.49ZM42.7622 20.6296L43.7196 28.5314L45.6754 27.1382C45.8284 27.0289 46.0223 26.9211 46.2482 26.8278C46.7991 26.5013 47.7667 25.8033 48.1296 24.7598C48.4065 23.9655 48.2914 23.1057 47.7799 22.1307C47.0395 20.7214 46.4682 20.4198 45.3869 20.242C44.3827 20.0773 43.367 20.3848 42.7622 20.6282V20.6296Z" fill="black"/>
<path d="M33.9583 57.9457C33.8898 58.6613 34.2658 66.8867 32.0142 66.8867H27.6669C27.6669 66.8867 26.5068 66.8182 26.5068 65.2836C26.5068 63.749 29.1913 63.851 29.1913 63.851L28.655 56.793" fill="#A3C8D2"/>
<path d="M32.0157 67.8341H27.613C26.7881 67.7845 25.5625 67.0646 25.5625 65.2837C25.5625 64.711 25.7796 64.198 26.1921 63.8016C26.7371 63.2769 27.5299 63.0554 28.177 62.9636L27.7136 56.866L29.6023 56.7231L30.2188 64.8407L29.1578 64.7999C28.6434 64.7838 27.7806 64.9019 27.5052 65.1686C27.4687 65.205 27.4571 65.224 27.4571 65.2852C27.4571 65.5548 27.5066 65.8827 27.7383 65.941H31.9953C32.0725 65.8812 32.5447 65.4309 32.8129 63.0947C32.998 61.4814 33.0009 59.6729 33.0023 58.6993C33.0023 58.2184 33.0038 58.0013 33.0184 57.857L34.9042 58.0348C34.8984 58.1106 34.8984 58.4253 34.8969 58.7022C34.8896 63.446 34.5355 67.8356 32.0172 67.8356L32.0157 67.8341Z" fill="black"/>
<path d="M37.9541 57.9462C37.8856 58.6618 38.2616 66.8872 36.0099 66.8872H32.6347C32.6347 66.8872 31.4746 66.8187 31.4746 65.2841C31.4746 63.7495 34.1591 63.8515 34.1591 63.8515L33.6228 56.7935" fill="#A3C8D2"/>
<path d="M36.0095 67.8346H32.5788C31.754 67.785 30.5283 67.0651 30.5283 65.2842C30.5283 64.7115 30.7455 64.1985 31.1579 63.8021C31.703 63.2774 32.4958 63.0559 33.1428 62.9641L32.6794 56.8665L34.5681 56.7236L35.1846 64.8412L34.1236 64.8004C33.6092 64.7843 32.7464 64.9024 32.4695 65.1691C32.4331 65.2055 32.4214 65.2244 32.4214 65.2857C32.4214 65.8467 32.6357 65.9298 32.6808 65.9415H35.9876C36.0649 65.8817 36.537 65.4314 36.8052 63.0952C36.9903 61.4819 36.9932 59.6733 36.9946 58.6998C36.9946 58.2189 36.9961 58.0017 37.0107 57.8575L38.8965 58.0367L37.9536 57.9464L38.8965 58.0338C38.8907 58.1096 38.8907 58.4244 38.8892 58.7013C38.8819 63.445 38.5278 67.8346 36.0095 67.8346Z" fill="black"/>
<path d="M61.7266 64.403C62.639 64.352 60.8697 63.7982 53.1092 57.479C47.1982 52.6654 46.6502 40.7193 46.7741 34.8126C46.8426 31.5438 46.8659 29.7731 45.7146 26.7126C44.1231 22.4877 41.4707 17.4161 31.2998 17.0474C27.4115 16.906 19.7545 19.3456 17.927 22.3784C16.455 24.8195 16.7319 27.0901 16.9943 28.4702C17.0977 29.0123 16.9943 29.5749 16.6941 30.0354C15.8444 31.3339 14.9321 33.0929 15.3241 35.4743C15.4844 36.4507 15.8619 38.3322 16.4871 39.466C17.1925 40.7441 18.1922 41.2629 19.1453 42.0776C19.2197 42.1417 19.2532 42.2423 19.2313 42.337C18.9486 43.6005 17.7142 52.0299 19.944 57.8186C21.3707 61.5218 24.8218 62.421 31.2182 62.5099C38.693 62.6133 42.0697 60.0323 43.4702 58.352C44.0765 57.6248 45.1331 57.4674 45.9346 57.9716C47.4547 58.9277 49.7092 61.2172 52.3674 62.5128C55.5489 64.062 59.2229 64.5414 61.7252 64.403H61.7266Z" fill="#A3C8D2"/>
<path d="M60.8989 65.372C58.4243 65.372 55.0082 64.8518 51.9536 63.3638C50.1552 62.4879 48.5463 61.1923 47.2521 60.1517C46.5424 59.5805 45.9303 59.0879 45.4304 58.7731C45.0267 58.5195 44.4977 58.5982 44.1975 58.9582C40.8412 62.9819 34.6182 63.5051 31.2036 63.4571C24.7694 63.3682 20.7194 62.4733 19.058 58.1595C16.9462 52.6784 17.7828 44.9587 18.2214 42.5468C18.0976 42.4491 17.9708 42.3515 17.8411 42.2524C17.108 41.6898 16.2788 41.053 15.655 39.9235C14.9569 38.6585 14.5605 36.6896 14.3856 35.6272C13.9441 32.9369 14.9613 30.9476 15.8984 29.5165C16.0616 29.2658 16.1199 28.9568 16.0616 28.6464C15.7512 27.0098 15.5224 24.5294 17.1138 21.8886C19.1658 18.4842 27.1901 15.9513 31.3333 16.1C36.1252 16.2734 39.7263 17.4568 42.3423 19.7157C44.6245 21.6875 45.7758 24.1898 46.5992 26.3773C47.8293 29.6433 47.7885 31.5947 47.72 34.83C47.6136 39.8667 47.9852 52.0838 53.7054 56.743C57.598 59.9127 59.9764 61.6251 61.256 62.5462C61.7325 62.8887 62.0459 63.1146 62.2659 63.2909C62.5006 63.4789 63.0514 63.919 62.8518 64.6011C62.776 64.862 62.5341 65.3064 61.7777 65.3473C61.5008 65.3633 61.2064 65.3706 60.8975 65.3706L60.8989 65.372ZM44.9218 56.7328C45.4436 56.7328 45.9711 56.8756 46.4404 57.17C47.0335 57.5431 47.6864 58.0692 48.4414 58.6769C49.7238 59.7087 51.1783 60.8804 52.7843 61.6616C54.9091 62.6963 57.2264 63.2137 59.2011 63.3973C57.7947 62.3713 55.6335 60.7551 52.5118 58.212C49.7559 55.9677 47.8176 52.1071 46.7494 46.7382C45.872 42.3282 45.7642 37.806 45.8268 34.7907C45.8939 31.5801 45.9289 29.9683 44.8271 27.0448C43.2458 22.8461 40.7625 18.337 31.2648 17.9931C27.3883 17.8532 20.2545 20.3496 18.7373 22.8665C17.4942 24.9287 17.6501 26.8495 17.9241 28.2937C18.0757 29.088 17.9198 29.891 17.4855 30.5541C16.6912 31.7696 15.9232 33.2867 16.2569 35.3212C16.5163 36.8995 16.9113 38.2782 17.315 39.0083C17.7463 39.7909 18.3249 40.2354 18.9953 40.7484C19.243 40.9378 19.4995 41.1346 19.759 41.3576C20.1014 41.6505 20.253 42.1052 20.1539 42.5439C19.8479 43.9167 18.7301 52.0357 20.8257 57.4775C21.9669 60.4403 24.5916 61.4707 31.2299 61.561C38.3943 61.6601 41.5174 59.2117 42.7416 57.7427C43.2939 57.0811 44.1013 56.7299 44.9204 56.7299L44.9218 56.7328Z" fill="black"/>
<path d="M28.9955 55.5596C21.8384 54.2801 21.3808 56.8203 21.7262 60.1328C23.6412 61.7593 26.5982 62.4457 31.218 62.5083C32.7876 62.5302 34.175 62.4326 35.4021 62.2519C35.7534 60.1576 36.4514 60.1008 34.7842 58.0284C33.783 56.7853 31.4876 56.0056 28.9955 55.5596Z" fill="white"/>
<path d="M31.6417 63.4602C31.496 63.4602 31.3502 63.4602 31.203 63.4572C26.1955 63.3888 23.1773 62.6105 21.1122 60.8558L20.8222 60.6096L20.7829 60.2321C20.5963 58.4512 20.6022 56.6382 21.8919 55.4388C23.1904 54.2307 25.5018 53.9742 29.1598 54.6285C32.3383 55.1969 34.4777 56.1413 35.5197 57.4354C36.9611 59.2265 36.9567 59.9202 36.5851 61.3062C36.5035 61.6137 36.4087 61.962 36.3344 62.4094L36.2207 63.0885L35.5387 63.1891C34.3262 63.3683 33.0174 63.4587 31.6402 63.4587L31.6417 63.4602ZM22.6323 59.6448C24.3316 60.9112 27.0116 61.5044 31.2307 61.5627C32.417 61.5787 33.5508 61.5248 34.6074 61.4024C34.6584 61.1808 34.7109 60.9885 34.7575 60.8165C34.9907 59.9465 35.0213 59.8342 34.0464 58.6232C33.3206 57.7211 31.4683 56.9647 28.829 56.4925C25.8866 55.9664 23.9876 56.0786 23.1832 56.8262C22.6745 57.2984 22.5084 58.1277 22.6323 59.6448Z" fill="black"/>
<path d="M26.187 29.3402C25.9261 29.1886 25.5953 29.2746 25.3985 29.5019C25.2338 29.6914 25.1041 29.9654 25.3344 30.2525C25.7833 30.8106 26.4857 30.1927 26.4857 29.894C26.4857 29.7001 26.4085 29.467 26.187 29.3387V29.3402Z" fill="black"/>
<path d="M25.7701 30.8431C25.4961 30.8431 25.2411 30.7177 25.0516 30.4831C24.7543 30.1144 24.782 29.6582 25.1245 29.2647C25.4466 28.8931 25.9712 28.794 26.372 29.0257C26.6722 29.2006 26.8515 29.5256 26.8515 29.8958C26.8515 30.2397 26.5119 30.639 26.0966 30.7848C25.9873 30.8227 25.878 30.8416 25.7716 30.8416L25.7701 30.8431ZM25.9027 29.6291C25.8168 29.6291 25.7279 29.6786 25.6725 29.7427C25.5253 29.9118 25.5748 29.973 25.6171 30.0269C25.6943 30.1231 25.7541 30.1217 25.8036 30.1129C25.9508 30.0852 26.0878 29.9424 26.1184 29.8768C26.1155 29.8171 26.0951 29.7121 26.0018 29.6582C25.9698 29.6393 25.9348 29.632 25.8998 29.632L25.9027 29.6291Z" fill="black"/>
<path d="M31.5239 29.3406C31.263 29.1891 30.9322 29.2751 30.7354 29.5024C30.5708 29.6919 30.441 29.9659 30.6713 30.253C31.1202 30.8111 31.8226 30.1932 31.8226 29.8944C31.8226 29.7006 31.7454 29.4674 31.5239 29.3392V29.3406Z" fill="black"/>
<path d="M31.1061 30.8432C30.8321 30.8432 30.577 30.7178 30.3876 30.4832C30.0903 30.1145 30.118 29.6583 30.4605 29.2649C30.7825 28.8947 31.3072 28.7941 31.708 29.0258C32.0082 29.2007 32.1874 29.5257 32.1874 29.8959C32.1874 30.2398 31.8479 30.6392 31.4325 30.7849C31.3232 30.8228 31.2139 30.8417 31.1075 30.8417L31.1061 30.8432ZM31.2401 29.6292C31.1542 29.6292 31.0667 29.6787 31.0099 29.7429C30.8627 29.9119 30.9122 29.9731 30.9545 30.0271C31.0317 30.1232 31.0915 30.1218 31.141 30.113C31.2882 30.0854 31.4252 29.9425 31.4558 29.8769C31.4529 29.8172 31.4325 29.7123 31.3392 29.6583C31.3072 29.6394 31.2722 29.6321 31.2372 29.6321L31.2401 29.6292Z" fill="black"/>
<path d="M28.5556 37.4268C27.964 37.4268 27.4641 36.9386 26.8301 35.7392C26.7223 35.5352 26.7296 35.2918 26.8476 35.0936C26.9657 34.8968 27.1799 34.7759 27.4087 34.7759H29.0963C29.2741 34.7759 29.4432 34.8473 29.5671 34.9755C29.6909 35.1038 29.7565 35.2758 29.7521 35.4521C29.7128 36.7054 29.277 37.4254 28.5542 37.4254L28.5556 37.4268Z" fill="#EF9178"/>
<path d="M29.0961 35.4332C29.0961 35.4332 29.0538 36.7711 28.5539 36.7711C28.3033 36.7711 27.9389 36.4373 27.4085 35.4332H29.0961ZM29.0961 34.1216H27.4085C26.9479 34.1216 26.5224 34.362 26.2848 34.757C26.0473 35.1505 26.0342 35.6401 26.2484 36.0468C26.7818 37.0538 27.4711 38.0827 28.5525 38.0827C28.8731 38.0827 29.9472 37.9603 30.2926 36.3819C30.3888 35.9418 30.4048 35.5206 30.4063 35.474C30.4179 35.1199 30.2838 34.7745 30.0375 34.5194C29.7898 34.2644 29.4502 34.1201 29.0961 34.1201V34.1216Z" fill="black"/>
</svg>
