<svg width="92" height="111" viewBox="0 0 92 111" fill="none" xmlns="http://www.w3.org/2000/svg">
<path d="M14.0795 26.2796C13.7481 26.2796 13.4114 26.1823 13.1168 25.9824C13.0931 25.9666 11.1702 24.6514 9.25266 23.3309C8.38199 24.2621 7.1904 25.2196 5.7463 25.2196C4.92561 25.2196 4.15752 24.9039 3.52096 24.3042C1.93744 22.8154 2.49509 20.6505 3.33683 18.9828C2.96331 18.6146 2.59768 18.1911 2.31359 17.7202C1.48238 16.3471 1.51395 14.8373 2.40303 13.5799C3.08168 12.6225 4.12333 12.0938 5.33858 12.0938C7.72701 12.0938 10.3022 14.1455 10.8862 14.64L17.5727 19.7535C18.304 20.3112 18.4618 21.3476 17.9304 22.0999L15.4789 25.5615C15.1448 26.0324 14.6187 26.2849 14.0821 26.2849L14.0795 26.2796Z" fill="#EF9178"/>
<path d="M5.3359 13.8014C7.27189 13.8014 9.81025 15.9689 9.81025 15.9689L16.531 21.1087L14.0794 24.5703C14.0794 24.5703 11.1965 22.6002 8.94484 21.0403C8.37141 21.7532 7.05094 23.5077 5.74362 23.5077C5.38588 23.5077 5.02814 23.3761 4.68882 23.0552C3.56299 21.9952 4.69934 19.854 5.52792 18.6072C4.28373 17.6629 2.66339 16.1635 3.79447 14.5642C4.1864 14.0118 4.7309 13.8014 5.33327 13.8014M5.3359 10.3818C3.54984 10.3818 2.01104 11.1657 1.00359 12.5914C-0.277427 14.4038 -0.335297 16.6501 0.848395 18.6045C0.993068 18.8439 1.15352 19.0728 1.31924 19.2885C1.2377 19.5041 1.16405 19.7146 1.10092 19.925C0.161854 23.0605 1.65857 24.9044 2.34774 25.5515C3.30784 26.4537 4.48364 26.9325 5.74625 26.9325C7.21402 26.9325 8.4398 26.2985 9.41306 25.5199C10.894 26.5379 12.1329 27.3849 12.154 27.3981C12.7432 27.8005 13.4166 27.9952 14.0821 27.9952C15.1553 27.9952 16.2101 27.4928 16.8756 26.5511L19.3271 23.0894C20.3898 21.5874 20.0742 19.5147 18.6143 18.3967L11.9619 13.3069C11.0492 12.5414 8.22411 10.3845 5.34379 10.3845L5.3359 10.3818Z" fill="black"/>
<path d="M44.3793 19.4893C44.3056 19.4893 44.232 19.484 44.1583 19.4762L39.9523 18.9317C39.0395 18.8133 38.3845 17.9952 38.4687 17.0798L39.242 8.6993C39.3762 5.46388 40.6309 1.71289 43.7374 1.71289C43.8953 1.71289 44.0557 1.72341 44.2136 1.74446C45.7392 1.94437 46.8729 2.9413 47.3175 4.48536C47.47 5.01407 47.5358 5.56909 47.5516 6.09518C49.3481 6.60811 51.3183 7.66554 51.3394 9.83827C51.3499 10.7563 51.0316 11.5638 50.4266 12.1767C49.6349 12.979 48.4275 13.3762 46.7388 13.392C46.41 15.6989 46.0733 18.0031 46.068 18.032C45.9444 18.8817 45.2157 19.4946 44.3793 19.4946V19.4893Z" fill="#EF9178"/>
<path d="M43.7347 3.41955C43.8162 3.41955 43.903 3.42481 43.9899 3.43534C45.9337 3.68786 45.9364 5.89741 45.7891 7.45199C47.27 7.68873 49.6137 8.30425 49.6295 9.85094C49.6453 11.4055 47.9986 11.6765 46.6334 11.6765C46.0916 11.6765 45.5918 11.6344 45.2603 11.6107C44.8816 14.32 44.3739 17.779 44.3739 17.779L40.1678 17.2345L40.9438 8.80929C40.9438 8.80929 41.1516 3.41955 43.7321 3.41955M43.7347 0C42.4668 0 39.3813 0.507672 38.0767 5.20035C37.661 6.69969 37.5558 8.14643 37.5322 8.57256L36.7641 16.9242C36.5957 18.7549 37.9057 20.3937 39.7312 20.6278L43.9372 21.1723C44.0872 21.1907 44.2345 21.2012 44.3818 21.2012C46.0547 21.2012 47.512 19.9755 47.7619 18.2762C47.7645 18.2525 47.9828 16.7663 48.238 14.9855C49.6689 14.7698 50.7895 14.2359 51.6418 13.3757C52.5624 12.4445 53.0648 11.1793 53.049 9.81675C53.0385 8.87243 52.6992 6.52082 49.7584 5.08724C49.5637 4.99255 49.3586 4.90048 49.1429 4.81631C49.0981 4.54801 49.0376 4.27707 48.9587 4.00614C48.3248 1.81236 46.6308 0.331434 44.4318 0.0447172C44.2003 0.0131521 43.9635 0 43.7347 0Z" fill="black"/>
<path d="M87.0104 99.1932C87.0104 99.1932 88.5676 96.831 88.6044 93.6298C88.6307 91.4255 86.721 88.2979 84.1485 86.796C78.0275 83.2265 72.5956 87.5877 72.5956 87.5877C72.5956 87.5877 77.0989 85.052 78.2563 80.8538C78.8324 78.7627 77.8723 75.8061 76.5176 73.4387C73.5031 68.1778 64.7017 69.8534 64.7017 69.8534C64.7017 69.8534 70.244 69.4983 72.9087 66.2971C74.1213 64.8398 73.9372 61.6307 73.6715 58.9345C72.8219 50.3067 62.6053 52.8267 62.6053 52.8267C62.6053 52.8267 72.3773 51.1458 71.2383 42.7285C70.8727 40.027 69.6469 38.5277 68.5237 37.3229C65.0568 33.593 61.7688 35.9341 61.7688 35.9341C61.7688 35.9341 70.0967 32.333 66.088 24.7048C64.6044 21.8823 63.1998 20.8433 60.5325 20.404C57.0367 19.8306 53.6724 21.7666 53.6724 21.7666L58.1493 58.7346L66.6167 84.9336L81.0998 96.0735L87.0051 99.1853L87.0104 99.1932Z" fill="#33758E"/>
<path d="M87.5865 101.429L80.1792 97.5255L65.1595 85.9727L56.4791 59.1108L54.2905 41.0371L47.604 43.928L54.0827 39.3142L51.8469 20.8539L52.828 20.2883C52.9859 20.1963 56.7684 18.0525 60.8193 18.7206C64.0599 19.252 65.9012 20.6592 67.611 23.9104C68.9894 26.5303 69.2656 29.0503 68.4343 31.4019C68.074 32.4199 67.5374 33.3037 66.9271 34.0586C67.8688 34.4716 68.8394 35.1397 69.7838 36.1577C71.1805 37.6597 72.5299 39.4694 72.9403 42.4997C73.4243 46.0692 72.2984 49.0941 69.6733 51.3432C70.4861 51.6062 71.2831 51.9771 72.0143 52.4953C73.974 53.8815 75.1051 55.9911 75.3787 58.7688C75.6864 61.9017 75.8784 65.4107 74.2265 67.3914C73.8372 67.857 73.4032 68.2726 72.9403 68.6408C74.9236 69.3011 76.8044 70.4953 78.0038 72.5917C78.8771 74.1174 80.8131 78.0236 79.9083 81.309C79.6741 82.1586 79.3269 82.9477 78.9166 83.6684C80.7684 83.6343 82.8491 84.0551 85.0139 85.3177C88.0231 87.0722 90.3537 90.7338 90.3195 93.6483C90.2748 97.3072 88.5176 100.017 88.4414 100.13L87.5891 101.424L87.5865 101.429ZM82.031 94.6373L86.2502 96.86C86.5685 96.0315 86.8815 94.8951 86.8973 93.6088C86.9157 92.0937 85.3769 89.4922 83.2884 88.2743C79.5584 86.099 76.1099 87.4747 74.5474 88.3532C74.4186 88.4453 74.3002 88.5295 74.1897 88.6031L82.031 94.6347V94.6373ZM68.0845 83.9104L71.9486 86.8828L71.5251 86.2568C71.5882 86.2068 71.9907 85.8912 72.6641 85.494C73.8767 84.6075 75.9468 82.7952 76.6071 80.4015C76.9885 79.0231 76.3703 76.6242 75.0341 74.291C73.2401 71.1608 68.4606 71.1845 66.2143 71.3844C65.4146 71.5185 64.8833 71.5553 64.8096 71.5606L64.3809 68.1752C64.4703 68.1595 64.9937 68.0621 65.796 67.9859C67.3743 67.707 70.1126 66.9837 71.5961 65.2029C72.1748 64.5058 72.3037 62.4541 71.9723 59.1029C71.7987 57.3326 71.1647 56.0832 70.0363 55.2862C67.8399 53.7316 64.3282 54.2366 63.305 54.4286C63.0656 54.4839 62.921 54.5076 62.8973 54.5128L62.1976 51.1669C62.2371 51.1564 62.4107 51.1143 62.6948 51.0617C64.3072 50.6829 70.344 48.86 69.5444 42.9574C69.2471 40.7662 68.3002 39.593 67.2717 38.4856C65.5803 36.6654 64.0915 36.789 63.2945 37.0705C62.8184 37.3388 62.4948 37.4808 62.4475 37.5019L57.5575 39.6167L59.8276 58.369L68.0792 83.9078L68.0845 83.9104ZM55.5242 22.7951L57.2524 37.0573L60.7824 34.5426C61.0586 34.3453 61.4085 34.1507 61.8162 33.9823C62.8105 33.3931 64.5571 32.1332 65.2121 30.2498C65.7119 28.8162 65.504 27.2642 64.5808 25.5045C63.2445 22.9609 62.2134 22.4164 60.2616 22.0955C58.4492 21.7982 56.6158 22.3532 55.5242 22.7925V22.7951Z" fill="black"/>
<path d="M38.3161 93.2741C37.697 94.4143 32.5137 108.343 28.7736 106.753L23.1671 104.37C23.1671 104.37 21.2885 103.437 22.372 100.888C23.4556 98.3386 27.8427 100.404 27.8427 100.404L31.9354 88.301" fill="#A3C8D2"/>
<path d="M28.1045 108.326L22.4059 105.904C21.0708 105.239 19.5432 103.178 20.8007 100.22C21.2051 99.2684 21.928 98.5696 22.893 98.2023C24.1688 97.7157 25.6421 97.9075 26.7818 98.2119L30.3175 87.7561L33.5556 88.8525L28.8479 102.772L27.1144 101.955C26.2712 101.565 24.7547 101.152 24.1065 101.399C24.0202 101.434 23.9875 101.457 23.9443 101.559C23.5481 102.491 23.8453 102.78 23.9121 102.831L29.4049 105.166C29.5754 105.122 30.6777 104.707 32.7726 101.016C34.2192 98.4666 35.5011 95.4645 36.1909 93.8484C36.5305 93.0496 36.6862 92.6899 36.8123 92.4605L39.8182 94.0898L38.3158 93.274L39.8203 94.085C39.7571 94.2068 39.5348 94.7296 39.3369 95.1886C35.9753 103.063 32.2876 110.104 28.1045 108.326Z" fill="black"/>
<path d="M42.4884 89.7751C43.0783 90.9308 51.6293 103.086 48.2021 105.27L43.0646 108.544C43.0646 108.544 41.2324 109.565 39.7438 107.229C38.2552 104.893 42.4402 102.445 42.4402 102.445L34.7775 92.2219" fill="#A3C8D2"/>
<path d="M49.3782 105.494L44.1564 108.821C42.8528 109.546 40.2889 109.639 38.5614 106.929C38.0059 106.057 37.8388 105.065 38.082 104.062C38.4027 102.735 39.3946 101.628 40.2904 100.861L33.6702 92.0293L36.4066 89.9798L45.219 101.737L43.5645 102.705C42.7659 103.179 41.5672 104.196 41.4045 104.87C41.3844 104.961 41.385 105.001 41.4444 105.094C41.9886 105.948 42.3953 105.867 42.4754 105.841L47.5086 102.633C47.5682 102.467 47.8501 101.324 45.9921 97.508C44.7089 94.8729 42.959 92.1172 42.0169 90.634C41.5504 89.9019 41.342 89.57 41.2242 89.3363L44.2685 87.7798L42.7456 88.5569L44.2657 87.7754C44.3303 87.8964 44.6357 88.3755 44.902 88.7984C49.4924 96.0259 53.2114 103.051 49.3782 105.494Z" fill="black"/>
<path d="M89.7514 101.803C91.398 101.711 88.2047 100.711 74.1977 89.3058C63.5287 80.6175 62.5396 59.0559 62.7632 48.3948C62.8869 42.4947 62.9289 39.2988 60.8509 33.7749C57.9785 26.1493 53.1911 16.9954 34.8334 16.3299C27.8154 16.0747 13.9951 20.4781 10.6966 25.952C8.03986 30.358 8.53964 34.4562 9.01311 36.9472C9.19988 37.9257 9.01312 38.941 8.47125 39.7722C6.93771 42.116 5.29106 45.2909 5.99865 49.589C6.28799 51.3514 6.96927 54.7473 8.09773 56.7937C9.37085 59.1006 11.1753 60.037 12.8956 61.5074C13.0298 61.6232 13.0903 61.8047 13.0508 61.9757C12.5405 64.2562 10.3125 79.4706 14.3371 89.9187C16.9123 96.6026 23.1411 98.2256 34.6861 98.386C48.1775 98.5728 54.2722 93.9143 56.8001 90.8814C57.8943 89.5688 59.8014 89.2847 61.2481 90.1949C63.9916 91.9204 68.0609 96.0528 72.8588 98.3913C78.601 101.187 85.2323 102.053 89.7488 101.803H89.7514Z" fill="#A3C8D2"/>
<path d="M88.2574 103.552C83.7909 103.552 77.6252 102.613 72.1119 99.927C68.8659 98.3461 65.9619 96.0076 63.6261 94.1295C62.3451 93.0984 61.2403 92.2093 60.3381 91.6411C59.6094 91.1834 58.6546 91.3255 58.1127 91.9752C52.0549 99.2378 40.8229 100.182 34.6599 100.095C23.0465 99.9348 15.7366 98.3198 12.7379 90.5337C8.9264 80.6407 10.4363 66.7073 11.228 62.354C11.0044 62.1777 10.7756 62.0015 10.5415 61.8226C9.21838 60.8073 7.72167 59.6578 6.59585 57.6192C5.33587 55.336 4.6204 51.7823 4.30475 49.8647C3.50773 45.0089 5.34376 41.4184 7.03513 38.8353C7.32973 38.3829 7.43495 37.8252 7.32973 37.265C6.76945 34.311 6.35648 29.834 9.2289 25.0677C12.9325 18.923 27.4157 14.3513 34.894 14.6196C43.5428 14.9326 50.0426 17.0685 54.7642 21.1457C58.8834 24.7047 60.9615 29.2211 62.4477 33.1694C64.6677 39.0642 64.5941 42.5863 64.4705 48.4259C64.2784 57.5166 64.9492 79.5675 75.2736 87.9769C82.2995 93.6981 86.5923 96.7888 88.9019 98.4513C89.762 99.0694 90.3275 99.4772 90.7247 99.7954C91.1482 100.135 92.1425 100.929 91.7822 102.16C91.6454 102.631 91.2087 103.433 89.8435 103.507C89.3438 103.536 88.8124 103.549 88.2548 103.549L88.2574 103.552ZM59.42 87.9585C60.3617 87.9585 61.3139 88.2163 62.1609 88.7476C63.2315 89.421 64.41 90.3706 65.7725 91.4675C68.0873 93.3298 70.7125 95.4447 73.6112 96.8546C77.4464 98.7222 81.6287 99.656 85.193 99.9874C82.6546 98.1356 78.7537 95.2185 73.1193 90.6284C68.1452 86.5775 64.6467 79.6095 62.7186 69.9191C61.1351 61.9594 60.9404 53.7972 61.0535 48.3548C61.1745 42.56 61.2377 39.6508 59.2491 34.3741C56.3951 26.7959 51.9128 18.6573 34.7703 18.0365C27.7734 17.784 14.8975 22.2899 12.1592 26.8327C9.91544 30.5547 10.1969 34.0216 10.6914 36.6284C10.965 38.062 10.6835 39.5113 9.89966 40.7082C8.46608 42.902 7.07984 45.6402 7.68221 49.3123C8.15043 52.1611 8.86327 54.6494 9.5919 55.9673C10.3705 57.3798 11.4148 58.1821 12.6248 59.108C13.072 59.45 13.5349 59.8051 14.0031 60.2075C14.6213 60.7362 14.8948 61.5569 14.716 62.3487C14.1636 64.8266 12.146 79.4807 15.9286 89.3027C17.9882 94.6503 22.7256 96.51 34.7072 96.6731C47.6384 96.852 53.2754 92.4329 55.4849 89.7814C56.4819 88.5872 57.9391 87.9533 59.4174 87.9533L59.42 87.9585Z" fill="black"/>
<path d="M30.6747 85.8415C17.7567 83.532 16.9308 88.1168 17.5542 94.0958C21.0105 97.0313 26.3477 98.2703 34.6861 98.3834C37.5191 98.4228 40.0233 98.2466 42.2381 97.9204C42.872 94.1405 44.132 94.0379 41.1228 90.2975C39.3157 88.0537 35.1728 86.6464 30.6747 85.8415Z" fill="white"/>
<path d="M35.4517 100.101C35.1886 100.101 34.9256 100.101 34.6599 100.095C25.6218 99.9718 20.1742 98.5672 16.4468 95.4001L15.9234 94.9556L15.8524 94.2743C15.5157 91.0599 15.5262 87.7877 17.8541 85.6228C20.1978 83.4422 24.3697 82.9793 30.9721 84.1603C36.709 85.1862 40.5705 86.8907 42.4512 89.2265C45.0527 92.4593 45.0448 93.7114 44.3741 96.2129C44.2268 96.768 44.0558 97.3966 43.9216 98.2042L43.7165 99.4299L42.4854 99.6114C40.2969 99.935 37.9348 100.098 35.449 100.098L35.4517 100.101ZM19.1904 93.2142C22.2575 95.5001 27.0948 96.5707 34.7099 96.6759C36.8511 96.7048 38.8975 96.6075 40.8046 96.3865C40.8966 95.9867 40.9913 95.6395 41.0755 95.3291C41.4964 93.7587 41.5516 93.5562 39.7919 91.3703C38.4819 89.7421 35.1386 88.3769 30.3749 87.5246C25.0641 86.5751 21.6367 86.7776 20.1847 88.127C19.2667 88.9793 18.9668 90.476 19.1904 93.2142Z" fill="black"/>
<path d="M25.6086 38.5171C25.1378 38.2435 24.5407 38.3987 24.1856 38.809C23.8883 39.151 23.6542 39.6455 24.0698 40.1637C24.88 41.1712 26.1478 40.0559 26.1478 39.5166C26.1478 39.1668 26.0084 38.7459 25.6086 38.5144V38.5171Z" fill="black"/>
<path d="M24.8562 41.2292C24.3617 41.2292 23.9014 41.003 23.5594 40.5795C23.0228 39.914 23.0728 39.0907 23.6909 38.3805C24.2722 37.7097 25.2192 37.5308 25.9426 37.9491C26.4844 38.2647 26.808 38.8513 26.808 39.5194C26.808 40.1402 26.1951 40.8609 25.4454 41.124C25.2481 41.1924 25.0509 41.2266 24.8588 41.2266L24.8562 41.2292ZM25.0956 39.0381C24.9404 39.0381 24.7799 39.1275 24.68 39.2432C24.4143 39.5484 24.5037 39.6588 24.58 39.7562C24.7194 39.9298 24.8273 39.9271 24.9167 39.9114C25.1824 39.8614 25.4296 39.6036 25.4849 39.4852C25.4796 39.3774 25.4428 39.188 25.2744 39.0907C25.2166 39.0565 25.1534 39.0433 25.0903 39.0433L25.0956 39.0381Z" fill="black"/>
<path d="M35.2409 38.518C34.7701 38.2445 34.173 38.3997 33.8179 38.81C33.5206 39.152 33.2865 39.6465 33.7021 40.1647C34.5123 41.1721 35.7802 40.0568 35.7802 39.5176C35.7802 39.1677 35.6408 38.7469 35.2409 38.5154V38.518Z" fill="black"/>
<path d="M34.4861 41.2295C33.9916 41.2295 33.5312 41.0033 33.1893 40.5798C32.6527 39.9143 32.7027 39.091 33.3208 38.3808C33.9021 37.7126 34.8491 37.5311 35.5724 37.9494C36.1143 38.265 36.4379 38.8516 36.4379 39.5197C36.4379 40.1405 35.825 40.8613 35.0753 41.1243C34.878 41.1927 34.6807 41.2269 34.4887 41.2269L34.4861 41.2295ZM34.7281 39.0384C34.5729 39.0384 34.4151 39.1278 34.3125 39.2436C34.0468 39.5487 34.1362 39.6592 34.2125 39.7565C34.3519 39.9301 34.4598 39.9275 34.5492 39.9117C34.8149 39.8617 35.0621 39.6039 35.1174 39.4856C35.1121 39.3777 35.0753 39.1883 34.9069 39.091C34.8491 39.0568 34.786 39.0436 34.7228 39.0436L34.7281 39.0384Z" fill="black"/>
<path d="M29.8829 53.1138C28.8149 53.1138 27.9127 52.2327 26.7684 50.0678C26.5738 49.6996 26.5869 49.2603 26.8 48.9025C27.0131 48.5474 27.3997 48.3291 27.8127 48.3291H30.8587C31.1797 48.3291 31.4848 48.458 31.7084 48.6895C31.932 48.9209 32.0503 49.2313 32.0424 49.5496C31.9714 51.8118 31.1849 53.1112 29.8802 53.1112L29.8829 53.1138Z" fill="#EF9178"/>
<path d="M30.859 49.5155C30.859 49.5155 30.7827 51.9303 29.8805 51.9303C29.428 51.9303 28.7704 51.3279 27.813 49.5155H30.859ZM30.859 47.1481H27.813C26.9817 47.1481 26.2137 47.5822 25.7849 48.295C25.3561 49.0052 25.3325 49.889 25.7191 50.6229C26.6819 52.4406 27.9261 54.2976 29.8778 54.2976C30.4565 54.2976 32.3952 54.0767 33.0186 51.2279C33.1922 50.4335 33.2211 49.6733 33.2237 49.5892C33.2448 48.95 33.0028 48.3266 32.5582 47.8662C32.1111 47.4059 31.4982 47.1455 30.859 47.1455V47.1481Z" fill="black"/>
</svg>
