<svg width="75" height="75" viewBox="0 0 75 75" fill="none" xmlns="http://www.w3.org/2000/svg">
<path d="M25.6577 43.8009L20.9723 44.4174L21.9487 39.028L16.845 37.8636L18.7381 34.5568L15.9473 32.279L19.3969 28.0002L15.9473 25.0373L19.6431 24.1046L18.7381 19.9613L22.4413 19.2516L21.8146 15.2438L25.0237 16.3135L26.3412 12.9397L31.9331 15.6548L34.4879 10.793L38.191 13.8142L40.6831 9.95068L43.3792 14.3971L49.0542 12.3626L49.3836 16.5321L53.3112 15.9842L53.0489 19.4104L56.2973 19.7704L54.4319 23.4459L57.9427 24.1046L55.8033 27.8355L58.6014 29.0713L55.7479 32.6083L57.6133 35.883L54.1579 37.2078L56.2478 40.293L52.4295 41.8714L55.8849 44.1172L53.3112 46.1822L56.9182 47.8786L53.8286 50.6316L57.3947 52.7987L53.8286 54.7195L56.6267 57.6269L53.0052 58.7243L52.7851 62.7292L49.5483 61.6201L47.5109 64.6092L44.363 61.6201L33.9122 60.4251L25.6577 43.8009Z" fill="#563C22"/>
<path d="M47.5101 65.5564C47.2682 65.5564 47.035 65.4646 46.8572 65.2955L43.9396 62.5251L33.8036 61.365C33.4844 61.3286 33.2061 61.1333 33.0633 60.8447L25.1104 44.8268L21.0968 45.3544C20.7966 45.3938 20.4964 45.2874 20.288 45.0688C20.0796 44.8502 19.9878 44.5441 20.0417 44.2468L20.8564 39.7479L16.6358 38.7846C16.3429 38.7176 16.0995 38.5165 15.9786 38.241C15.8576 37.9656 15.8751 37.6508 16.0238 37.3899L17.5176 34.7812L15.349 33.0105C14.9453 32.6812 14.8841 32.088 15.2105 31.6829L18.083 28.1182L15.33 25.7528C15.0619 25.5226 14.9438 25.1612 15.0255 24.8172C15.1071 24.4733 15.3723 24.2022 15.7163 24.1162L18.5217 23.4079L17.8119 20.1609C17.758 19.9117 17.8061 19.6509 17.946 19.4366C18.0859 19.2239 18.3074 19.0767 18.5581 19.0286L21.3621 18.4908L20.8768 15.3881C20.8258 15.0616 20.9482 14.7323 21.2003 14.518C21.4524 14.3038 21.7978 14.2382 22.1112 14.3431L24.4663 15.1287L25.4558 12.5928C25.552 12.3465 25.7473 12.1513 25.9921 12.0551C26.2384 11.9589 26.5139 11.9691 26.7514 12.0857L31.5184 14.4L33.6462 10.35C33.7788 10.0978 34.0164 9.91857 34.2947 9.86174C34.5731 9.8049 34.8631 9.87631 35.0832 10.0556L37.9658 12.4078L39.8837 9.43473C40.0601 9.16074 40.3647 8.99023 40.6926 9.00043C41.019 9.00481 41.3207 9.17677 41.4897 9.45659L43.7851 13.2414L48.7314 11.4678C49.0098 11.3672 49.3173 11.4036 49.565 11.5639C49.8128 11.7242 49.9716 11.9909 49.9949 12.2853L50.2456 15.4522L53.1764 15.0427C53.4606 15.0033 53.7477 15.0937 53.9561 15.2904C54.1645 15.4872 54.2738 15.767 54.2519 16.0526L54.0595 18.5666L56.3971 18.8245C56.7061 18.8595 56.9786 19.0417 57.1258 19.3157C57.273 19.5896 57.2774 19.9176 57.1375 20.1945L55.8433 22.7434L58.1125 23.1689C58.4141 23.2258 58.6692 23.424 58.7974 23.7038C58.9257 23.9836 58.9111 24.3057 58.7595 24.5724L57.1433 27.3909L58.9796 28.2027C59.2492 28.3222 59.4474 28.5597 59.5173 28.8454C59.5873 29.131 59.5188 29.4342 59.3337 29.663L56.8868 32.6972L58.4331 35.4108C58.5701 35.6513 58.5948 35.9384 58.5016 36.1992C58.4083 36.4601 58.2072 36.6656 57.9492 36.7647L55.6072 37.6624L57.0282 39.761C57.1885 39.9971 57.2337 40.2915 57.1506 40.564C57.069 40.8366 56.8679 41.0581 56.6055 41.1674L54.453 42.0578L56.3986 43.3228C56.6536 43.489 56.8139 43.7659 56.8285 44.0705C56.8431 44.3736 56.7119 44.6665 56.4744 44.856L55.0841 45.9709L57.3167 47.0216C57.6053 47.1572 57.805 47.4282 57.8516 47.743C57.8982 48.0578 57.7816 48.3741 57.5441 48.5868L55.4105 50.4887L57.8822 51.9912C58.1722 52.1676 58.3456 52.4853 58.3369 52.8249C58.3281 53.1644 58.1387 53.4734 57.8385 53.6337L55.3711 54.9628L57.3036 56.9711C57.5324 57.2086 57.6213 57.5482 57.5383 57.8673C57.4552 58.1865 57.2118 58.4386 56.897 58.5348L53.9109 59.4398L53.7272 62.783C53.7112 63.0789 53.5567 63.3514 53.3104 63.5175C53.0641 63.6837 52.7552 63.7245 52.4739 63.6283L49.9206 62.7539L48.2898 65.1469C48.1339 65.3771 47.8847 65.5258 47.6078 65.5549C47.5742 65.5593 47.5407 65.5608 47.5072 65.5608L47.5101 65.5564ZM34.5308 59.5419L44.4701 60.6786C44.6741 60.7019 44.865 60.7908 45.0151 60.9322L47.3556 63.1547L48.7664 61.0852C49.0068 60.7325 49.4528 60.5839 49.8565 60.7223L51.9084 61.4262L52.06 58.6704C52.0819 58.2725 52.35 57.9315 52.7319 57.8149L54.8727 57.1664L53.1472 55.3738C52.9417 55.161 52.8485 54.8637 52.8936 54.5708C52.9388 54.2779 53.1195 54.0243 53.3804 53.8829L55.4892 52.7476L53.3367 51.4404C53.0802 51.2844 52.9126 51.0163 52.8849 50.7175C52.8572 50.4188 52.9738 50.1244 53.1982 49.9247L55.2167 48.1249L52.9067 47.0391C52.6109 46.9007 52.4083 46.6179 52.369 46.293C52.3311 45.968 52.4623 45.6473 52.7173 45.4418L54.2694 44.1973L51.9114 42.6641C51.617 42.4717 51.4523 42.1322 51.4843 41.7824C51.5164 41.4326 51.7409 41.1281 52.0659 40.994L54.8086 39.8601L53.3702 37.7368C53.2084 37.4978 53.1647 37.1975 53.2507 36.9221C53.3381 36.6467 53.5451 36.4251 53.8147 36.3217L56.2412 35.3919L54.9223 33.0761C54.7299 32.738 54.7634 32.3154 55.0083 32.0122L57.085 29.4371L55.4178 28.6996C55.1715 28.5903 54.985 28.3834 54.9004 28.1284C54.8174 27.8733 54.845 27.595 54.9791 27.3618L56.4554 24.7881L54.2548 24.3756C53.9619 24.3203 53.7112 24.1308 53.58 23.8641C53.4489 23.5959 53.4503 23.2826 53.5844 23.0159L54.8305 20.5603L52.9417 20.3519C52.4346 20.295 52.0629 19.8476 52.1008 19.3375L52.2728 17.0844L49.5111 17.4706C49.2531 17.5071 48.9908 17.4342 48.7868 17.271C48.5828 17.1078 48.456 16.8673 48.4356 16.6064L48.2038 13.6727L43.6947 15.289C43.2706 15.442 42.7985 15.2729 42.5653 14.8882L40.6547 11.7359L38.9831 14.3271C38.8373 14.553 38.6012 14.7075 38.3345 14.7497C38.0678 14.792 37.7968 14.7191 37.5884 14.5486L34.7829 12.2591L32.7674 16.0949C32.5299 16.5481 31.9746 16.7303 31.5155 16.5059L26.8461 14.2382L25.9018 16.656C25.7181 17.1252 25.1993 17.3701 24.7199 17.2098L22.987 16.6327L23.3733 19.1029C23.4519 19.6071 23.1167 20.0837 22.6154 20.1799L19.8668 20.7074L20.5649 23.9005C20.6742 24.4004 20.3667 24.8959 19.8712 25.0212L17.946 25.5066L20.0096 27.2787C20.3973 27.6124 20.4512 28.1939 20.1306 28.5918L17.2727 32.139L19.3334 33.8223C19.6919 34.1152 19.7867 34.6253 19.5564 35.0275L18.2987 37.2238L22.1549 38.104C22.6489 38.2162 22.9666 38.6986 22.8763 39.197L22.1316 43.3097L25.5301 42.8623C25.9309 42.8098 26.323 43.0168 26.5022 43.3797L34.5265 59.5419H34.5308Z" fill="black"/>
<path d="M39.3841 57.726C39.3156 58.4416 39.6916 66.667 37.44 66.667H33.0927C33.0927 66.667 31.9326 66.5985 31.9326 65.0639C31.9326 63.5292 34.6171 63.6313 34.6171 63.6313L34.0808 56.5732" fill="#FFECDC"/>
<path d="M37.4405 67.6139H33.0932C33.0742 67.6139 33.0568 67.6139 33.0378 67.6124C32.2129 67.5644 30.9873 66.8459 30.9873 65.0635C30.9873 64.4908 31.2044 63.9778 31.6154 63.5814C32.1605 63.0567 32.9533 62.8352 33.6004 62.7434L33.1369 56.6458C33.0976 56.124 33.4881 55.6693 34.0099 55.63C34.5316 55.5921 34.9863 55.9812 35.0257 56.5029L35.562 63.561C35.5824 63.8306 35.4876 64.0958 35.2996 64.2897C35.1116 64.4835 34.8508 64.5884 34.5812 64.5797C34.0667 64.5636 33.2039 64.6817 32.927 64.9484C32.8906 64.9848 32.879 65.0038 32.879 65.065C32.879 65.3346 32.9285 65.6625 33.1602 65.7208H37.4172C37.4944 65.661 37.9666 65.2107 38.2348 62.8745C38.4199 61.2612 38.4228 59.4527 38.4242 58.4791C38.4242 57.9982 38.4257 57.7811 38.4403 57.6368C38.4898 57.1165 38.9518 56.7347 39.4735 56.7842C39.9938 56.8338 40.3756 57.2958 40.3276 57.816C40.3217 57.8933 40.3217 58.2066 40.3203 58.4835C40.313 63.2272 39.9588 67.6168 37.4405 67.6168V67.6139Z" fill="black"/>
<path d="M43.2665 57.773C43.1994 58.4798 43.5696 66.6046 41.3471 66.6046H38.0127C38.0127 66.6046 36.8672 66.5376 36.8672 65.0219C36.8672 63.5062 39.5181 63.6068 39.5181 63.6068L38.9891 56.6348" fill="#FFECDC"/>
<path d="M41.3472 67.5405H38.0128C37.9938 67.5405 37.9763 67.5405 37.9574 67.539C37.1427 67.4909 35.9316 66.7812 35.9316 65.0221C35.9316 64.4552 36.1459 63.9495 36.5525 63.5589C37.0902 63.0401 37.8743 62.8215 38.5141 62.7312L38.0565 56.7079C38.0171 56.192 38.4033 55.7431 38.9192 55.7037C39.4351 55.6659 39.884 56.0506 39.9234 56.5665L40.4524 63.5385C40.4728 63.8038 40.3781 64.0661 40.193 64.2585C40.0079 64.4508 39.7499 64.5529 39.4832 64.5441C38.9746 64.5266 38.1235 64.6447 37.8495 64.9085C37.8131 64.9434 37.8029 64.9638 37.8029 65.0236C37.8029 65.2903 37.8524 65.6138 38.0813 65.6707H41.3268C41.404 65.6124 41.869 65.1679 42.1342 62.8594C42.3164 61.2665 42.3193 59.4783 42.3207 58.5179C42.3207 58.0443 42.3222 57.8271 42.3353 57.6858C42.3849 57.1713 42.841 56.7939 43.3555 56.8434C43.8699 56.893 44.2459 57.3477 44.1978 57.8621C44.192 57.9393 44.192 58.2483 44.1905 58.5208C44.1832 63.2063 43.8335 67.5419 41.3458 67.5419L41.3472 67.5405Z" fill="black"/>
<path d="M26.5984 41.2791C26.5984 41.2791 20.6582 36.0282 20.6582 31.659C20.6582 27.2899 22.9025 19.4026 27.6958 18.6739C27.6958 18.6739 27.483 12.91 28.9389 11.5445C30.3949 10.1789 33.7934 16.8231 33.7934 16.8231C33.7934 16.8231 38.5255 16.399 41.4388 16.4587C41.4388 16.4587 43.0156 10.4515 44.1087 10.5127C45.2002 10.5739 46.2932 12.212 47.0205 18.158C47.0205 18.158 53.1953 24.0807 53.0744 29.5415C52.9534 35.0022 50.0329 39.0231 49.001 40.7821C50.027 43.6634 51.4246 50.1924 50.6974 55.3092C50.4642 56.9487 49.5417 58.4236 48.1528 59.3242C46.2131 60.5819 43.0739 61.7216 38.0897 61.6531C31.7721 61.5656 28.3618 60.6781 26.9526 57.0201C25.0186 51.998 26.2078 43.761 26.597 41.2777L26.5984 41.2791Z" fill="#FFECDC"/>
<path d="M38.5201 62.706C38.373 62.706 38.2243 62.706 38.0757 62.7031C31.672 62.6157 27.6395 61.7194 25.9752 57.3983C25.0337 54.9543 24.1972 50.2529 25.4782 41.6719C24.0529 40.318 19.6094 35.7666 19.6094 31.6598C19.6094 27.5529 21.6832 19.4485 26.631 17.8527C26.6193 15.8634 26.7986 12.1165 28.2224 10.7816C28.6275 10.4012 29.1551 10.2453 29.706 10.3414C30.3881 10.4595 31.3951 10.9419 33.1454 13.6336C33.6627 14.4294 34.1073 15.2061 34.3914 15.7235C35.6637 15.6215 38.4298 15.4189 40.6435 15.4087C40.814 14.8185 41.072 13.9703 41.3751 13.1148C42.3399 10.3983 43.0948 9.40873 44.1645 9.46994C46.1305 9.57925 47.2891 12.0378 48.0134 17.672C49.2566 18.9355 54.2364 24.3307 54.1198 29.567C54.0061 34.6736 51.6102 38.5458 50.3219 40.627C50.2607 40.7261 50.2024 40.8208 50.147 40.9097C51.1934 44.113 52.4424 50.4525 51.7312 55.46C51.4528 57.4158 50.3554 59.1457 48.7202 60.2067C46.1611 61.8666 42.7305 62.7075 38.5172 62.7075L38.5201 62.706ZM29.5151 12.4911C28.9467 13.3975 28.6582 16.2744 28.7441 18.6382C28.7631 19.1702 28.3813 19.6321 27.8552 19.7123C23.7614 20.3346 21.7065 27.7074 21.7065 31.6612C21.7065 34.8572 25.739 39.123 27.2926 40.4958C27.5608 40.7319 27.689 41.0904 27.6336 41.4431C26.596 48.0566 26.7024 53.4561 27.9309 56.6463C29.0371 59.5202 31.605 60.52 38.1048 60.6089C42.098 60.6628 45.2882 59.937 47.5835 58.4491C48.7115 57.7175 49.4679 56.521 49.6603 55.1656C50.3554 50.2674 49.0205 43.9614 48.0149 41.137C47.9114 40.8456 47.942 40.5235 48.0979 40.2553C48.2247 40.0382 48.3719 39.8006 48.5439 39.5237C49.7258 37.6131 51.9279 34.0557 52.0285 29.5204C52.1378 24.5901 46.3549 18.972 46.2966 18.9166C46.1232 18.749 46.011 18.5275 45.9819 18.2885C45.3945 13.4923 44.6251 12.1107 44.2607 11.7172C43.7812 12.5013 43.0045 14.6276 42.4521 16.7276C42.3297 17.1954 41.9071 17.5219 41.4174 17.5088C38.5974 17.4505 33.9353 17.8644 33.8872 17.8687C33.4616 17.9066 33.055 17.6822 32.8612 17.3033C31.739 15.1114 30.2336 12.9662 29.5136 12.4911H29.5151Z" fill="black"/>
<path d="M34.0805 28.66C33.8196 28.5084 33.4888 28.5944 33.2921 28.8218C33.1274 29.0112 32.9977 29.2852 33.228 29.5723C33.6768 30.1305 34.3793 29.5125 34.3793 29.2138C34.3793 29.02 34.302 28.7868 34.0805 28.6585V28.66Z" fill="black"/>
<path d="M33.6637 30.1624C33.3897 30.1624 33.1347 30.0371 32.9452 29.8024C32.6479 29.4337 32.6756 28.9776 33.0181 28.5841C33.3401 28.2124 33.8648 28.1133 34.2656 28.3451C34.5658 28.5199 34.745 28.8449 34.745 29.2151C34.745 29.559 34.4055 29.9584 33.9887 30.1056C33.8794 30.1435 33.7701 30.1624 33.6637 30.1624ZM33.7963 28.9484C33.7103 28.9484 33.6214 28.998 33.566 29.0621C33.4188 29.2311 33.4684 29.2923 33.5107 29.3463C33.5879 29.4425 33.6477 29.441 33.6972 29.4323C33.8444 29.406 33.9814 29.2617 34.012 29.1962C34.0091 29.1364 33.9887 29.0315 33.8954 28.9776C33.8633 28.9586 33.8284 28.9513 33.7934 28.9513L33.7963 28.9484Z" fill="black"/>
<path d="M39.4155 28.66C39.1546 28.5084 38.8238 28.5944 38.627 28.8218C38.4623 29.0112 38.3327 29.2852 38.5629 29.5723C39.0118 30.1305 39.7142 29.5125 39.7142 29.2138C39.7142 29.02 39.637 28.7868 39.4155 28.6585V28.66Z" fill="black"/>
<path d="M38.9977 30.162C38.7237 30.162 38.4686 30.0367 38.2792 29.8021C37.9819 29.4333 38.0096 28.9772 38.3521 28.5837C38.6741 28.2135 39.1988 28.113 39.5996 28.3447C39.8998 28.5196 40.079 28.8446 40.079 29.2147C40.079 29.5587 39.7395 29.958 39.3227 30.1052C39.2134 30.1431 39.1041 30.162 38.9977 30.162ZM39.1318 28.948C39.0458 28.948 38.9583 28.9976 38.9015 29.0617C38.7543 29.2308 38.8038 29.292 38.8461 29.3459C38.9233 29.4421 38.9831 29.4406 39.0326 29.4319C39.1798 29.4057 39.3168 29.2614 39.3474 29.1958C39.3445 29.136 39.3241 29.0311 39.2308 28.9772C39.1988 28.9582 39.1638 28.951 39.1288 28.951L39.1318 28.948Z" fill="black"/>
<path d="M36.4482 36.7467C35.8565 36.7467 35.3567 36.2584 34.7227 35.059C34.6149 34.855 34.6221 34.6116 34.7402 34.4134C34.8582 34.2167 35.0725 34.0957 35.3013 34.0957H36.9889C37.1667 34.0957 37.3357 34.1671 37.4596 34.2954C37.5835 34.4236 37.6491 34.5956 37.6447 34.7719C37.6054 36.0253 37.1696 36.7452 36.4468 36.7452L36.4482 36.7467Z" fill="#EF9178"/>
<path d="M36.9906 34.753C36.9906 34.753 36.9484 36.0909 36.4485 36.0909C36.1978 36.0909 35.8335 35.7572 35.303 34.753H36.9906ZM36.9906 33.4414H35.303C34.8425 33.4414 34.4169 33.6819 34.1794 34.0768C33.9418 34.4703 33.9287 34.96 34.1429 35.3666C34.6763 36.3736 35.3657 37.4025 36.447 37.4025C36.7676 37.4025 37.8417 37.2801 38.1871 35.7018C38.2833 35.2616 38.2993 34.8405 38.3008 34.7938C38.3124 34.4397 38.1784 34.0943 37.9321 33.8393C37.6843 33.5842 37.3448 33.4399 36.9906 33.4399V33.4414Z" fill="black"/>
</svg>
