<svg width="75" height="75" viewBox="0 0 75 75" fill="none" xmlns="http://www.w3.org/2000/svg">
<path d="M35.1693 57.7011C35.1008 58.4167 35.4768 66.6421 33.2252 66.6421H28.8779C28.8779 66.6421 27.7178 66.5736 27.7178 65.039C27.7178 63.5043 30.4023 63.6064 30.4023 63.6064L29.8659 56.5483" fill="#AA977D"/>
<path d="M33.2267 67.5889H28.8794C28.8604 67.5889 28.8429 67.5889 28.824 67.5874C27.9991 67.5393 26.7734 66.8209 26.7734 65.0385C26.7734 64.4657 26.9906 63.9528 27.403 63.5564C27.9481 63.0317 28.7409 62.8102 29.388 62.7184L28.9245 56.6208C28.8852 56.099 29.2757 55.6443 29.7975 55.605C30.3192 55.5642 30.7739 55.9562 30.8132 56.4779L31.3496 63.536C31.37 63.8056 31.2753 64.0708 31.0873 64.2646C30.9007 64.4585 30.6399 64.5663 30.3688 64.5546C29.8543 64.5386 28.9916 64.6567 28.7147 64.9234C28.6782 64.9598 28.6666 64.9787 28.6666 65.04C28.6666 65.601 28.8808 65.6841 28.926 65.6958H33.2048C33.282 65.636 33.7542 65.1857 34.0224 62.8495C34.2075 61.2362 34.2104 59.4276 34.2118 58.4541C34.2118 57.9732 34.2133 57.756 34.2279 57.6118C34.2774 57.0915 34.7394 56.7097 35.2611 56.7592C35.7814 56.8088 36.1633 57.2707 36.1152 57.791C36.1093 57.8683 36.1093 58.1816 36.1079 58.4585C36.1006 63.2022 35.7464 67.5918 33.2281 67.5918L33.2267 67.5889Z" fill="black"/>
<path d="M39.166 57.7011C39.0975 58.4167 39.4735 66.6421 37.2219 66.6421H33.8466C33.8466 66.6421 32.6865 66.5736 32.6865 65.039C32.6865 63.5043 35.371 63.6064 35.371 63.6064L34.8347 56.5483" fill="#AA977D"/>
<path d="M37.2234 67.5889H33.8481C33.8291 67.5889 33.8117 67.5889 33.7927 67.5874C32.9678 67.5393 31.7422 66.8209 31.7422 65.0385C31.7422 64.4657 31.9593 63.9528 32.3718 63.5564C32.9168 63.0317 33.7096 62.8102 34.3567 62.7184L33.8933 56.6208C33.8539 56.099 34.2445 55.6443 34.7662 55.605C35.2894 55.5642 35.7427 55.9562 35.782 56.4779L36.3183 63.536C36.3387 63.8056 36.244 64.0708 36.056 64.2646C35.8695 64.4585 35.6086 64.5663 35.3375 64.5546C34.823 64.5386 33.9603 64.6567 33.6849 64.9234C33.6484 64.9598 33.6368 64.9787 33.6368 65.04C33.6368 65.601 33.851 65.6841 33.8962 65.6958H37.2044C37.2816 65.636 37.7538 65.1857 38.022 62.8495C38.2071 61.2362 38.21 59.4276 38.2114 58.4541C38.2114 57.9732 38.2129 57.756 38.2275 57.6118C38.277 57.0915 38.739 56.7097 39.2607 56.7592C39.781 56.8088 40.1628 57.2707 40.1147 57.791C40.1089 57.8683 40.1089 58.1816 40.1075 58.4585C40.1002 63.2022 39.746 67.5918 37.2277 67.5918L37.2234 67.5889Z" fill="black"/>
<path d="M43.9941 13.5433C43.9941 13.5433 43.9066 11.2844 45.4631 10.8924C47.0181 10.5004 48.0135 10.6024 48.3122 11.7653C48.611 12.9283 47.0909 14.9439 44.2622 15.3563L43.9955 13.5433H43.9941Z" fill="#AA977D"/>
<path d="M44.2593 15.9269C43.9809 15.9269 43.7375 15.7228 43.6953 15.4401L43.4286 13.6271C43.4257 13.6067 43.4242 13.5863 43.4227 13.5659C43.4227 13.5397 43.3994 12.9028 43.5947 12.2106C43.8789 11.1992 44.4764 10.5521 45.3217 10.3393C46.1466 10.1324 48.3384 9.58004 48.8631 11.6233C49.0147 12.215 48.8514 12.913 48.4026 13.5878C47.5996 14.7945 46.081 15.666 44.3423 15.9196C44.3147 15.924 44.287 15.9254 44.2593 15.9254V15.9269ZM44.5624 13.4974L44.7373 14.6837C45.9178 14.3966 46.9088 13.7729 47.4524 12.9568C47.7118 12.5662 47.8269 12.1742 47.7584 11.9075C47.6564 11.5096 47.5165 10.9645 45.6015 11.4469C44.5945 11.7005 44.5624 13.2803 44.5639 13.4974H44.5624Z" fill="black"/>
<path d="M20.4224 15.0573C20.4224 15.0573 20.6279 12.8057 19.0948 12.3335C17.5616 11.8613 16.5633 11.9094 16.2033 13.0549C15.8448 14.2004 17.4771 16.334 20.2811 16.8951L20.4224 15.0559V15.0573Z" fill="#AA977D"/>
<path d="M20.2834 17.4667C20.2455 17.4667 20.2091 17.4623 20.1712 17.455C18.026 17.0265 16.6138 15.7805 16.0075 14.7589C15.614 14.0943 15.4901 13.4283 15.6606 12.8847C16.2917 10.8721 18.4515 11.5381 19.2632 11.7888C20.0968 12.0453 20.6594 12.7229 20.8897 13.7475C21.0412 14.4222 20.996 15.0343 20.9902 15.1043L20.8503 16.9406C20.8372 17.1038 20.7556 17.2524 20.6259 17.3515C20.5253 17.4273 20.4044 17.4667 20.282 17.4667H20.2834ZM17.5989 12.6224C16.9387 12.6224 16.8338 12.9576 16.7493 13.2257C16.6793 13.4502 16.7682 13.8058 16.9883 14.1774C17.3905 14.8565 18.3378 15.7309 19.7646 16.1769L19.8535 15.0139C19.8535 15.0139 19.8535 15.0095 19.8535 15.0066C19.8549 14.9891 19.9948 13.2082 18.9266 12.8789C18.3291 12.6953 17.9035 12.6224 17.5975 12.6224H17.5989Z" fill="black"/>
<path d="M46.1783 56.549C46.1783 56.549 51.9072 58.6272 55.1163 59.2437C58.3254 59.8616 62.6465 60.9721 62.1524 61.5959C61.6584 62.2196 57.5938 63.183 54.2521 63.1946C44.0461 63.2281 33.9247 62.7414 33.9247 62.7414C27.5473 62.412 24.0773 61.2767 22.6506 57.5721C20.4208 51.7834 21.6552 43.354 21.9379 42.0905C21.9379 42.0905 17.0572 39.5707 16.7613 35.7247C16.4655 31.8787 17.6489 28.0328 17.6489 28.0328C17.6489 28.0328 14.0987 16.3461 26.377 12.2043C38.6553 8.06248 46.3531 14.1047 48.2696 21.2283C49.6074 26.2023 54.0495 37.0174 45.2412 39.8607L45.6055 42.4388C45.9771 44.5316 46.1652 46.6535 46.171 48.7784L46.1783 51.6158V56.5476V56.549Z" fill="#AA977D"/>
<path d="M53.228 64.047C43.4666 64.047 33.982 63.5966 33.8844 63.5923C27.6935 63.2731 23.5225 62.2063 21.8567 57.8794C19.8106 52.5687 20.5437 45.1435 20.9882 42.529C19.611 41.6924 16.1803 39.2717 15.9136 35.7916C15.6484 32.3434 16.5053 28.9551 16.7662 28.0267C16.5578 27.2106 15.9996 24.5669 16.5738 21.5152C17.2063 18.1531 19.3734 13.6702 26.1064 11.3982C33.6439 8.85508 38.8365 10.2527 41.8649 11.8733C45.4078 13.7679 48.0412 17.0979 49.0935 21.0066C49.2392 21.5473 49.4257 22.1725 49.6239 22.8341C50.4328 25.539 51.5418 29.2436 51.4209 32.5854C51.281 36.4751 49.519 39.11 46.1817 40.4274L46.4469 42.3045C46.8243 44.4352 47.0182 46.6125 47.0226 48.7752L47.0298 51.6127V55.9455C48.5426 56.4774 52.7514 57.9187 55.2785 58.4055C56.9385 58.7247 58.6232 59.1196 59.9027 59.4912C62.2156 60.1616 62.7825 60.6003 62.9807 61.1337C63.106 61.4703 63.0463 61.839 62.8218 62.1218C61.9503 63.2221 57.1002 64.0338 54.2569 64.0426C53.9144 64.0426 53.5719 64.044 53.2295 64.044L53.228 64.047ZM33.9995 11.7057C31.7027 11.7057 29.234 12.1414 26.6486 13.0129C21.8947 14.6175 19.0703 17.5628 18.2571 21.7702C17.6377 24.9735 18.4553 27.76 18.464 27.7877C18.5121 27.9495 18.5121 28.1229 18.464 28.2847C18.4523 28.3211 17.3316 32.0301 17.6115 35.6619C17.868 38.9963 22.2852 41.3135 22.3304 41.3354C22.6743 41.5132 22.855 41.8994 22.7705 42.2768C22.463 43.654 21.3423 51.8022 23.4468 57.2658C24.6316 60.3394 27.3846 61.5505 33.9704 61.8901C34.068 61.8944 44.185 62.3724 54.2511 62.3418C56.5901 62.3346 59.0604 61.8594 60.4536 61.447C59.3038 61.0521 57.3363 60.5362 54.9564 60.0786C51.7182 59.4563 46.1248 57.4334 45.8887 57.3474C45.5521 57.225 45.3276 56.9059 45.3276 56.5474V51.6156L45.3203 48.7796C45.316 46.7087 45.1294 44.6261 44.768 42.5873C44.7665 42.577 44.7651 42.5668 44.7636 42.5581L44.3993 39.98C44.341 39.5705 44.5873 39.1785 44.9808 39.0502C48.0471 38.0607 49.5977 35.9256 49.7201 32.5241C49.8309 29.4637 48.7685 25.9135 47.9931 23.3223C47.792 22.6476 47.6011 22.0107 47.4496 21.4482C46.5198 17.9913 44.1909 15.0474 41.0619 13.3729C38.9823 12.2595 36.6009 11.7028 34.001 11.7028L33.9995 11.7057Z" fill="black"/>
<path d="M41.7809 52.8242C41.8188 48.8733 40.9735 42.42 40.9735 42.42C40.9735 42.42 40.1355 32.5785 32.5602 31.9955C23.8335 31.3237 21.9389 42.0907 21.9389 42.0907C21.9389 42.0907 21.729 43.3426 21.5877 44.867C21.2656 48.1402 21.1227 53.5077 22.6894 57.5723C24.1103 61.2623 27.5614 62.4034 33.8951 62.7372C33.9505 62.7372 34.0073 62.7372 34.0612 62.7415C34.0612 62.7415 34.0641 62.7445 34.0641 62.7459C34.6121 62.7722 37.3884 62.8975 41.2621 63.0097C41.4093 61.0991 41.7488 56.3364 41.7823 52.8256L41.7809 52.8242Z" fill="white"/>
<path d="M41.2625 63.8605C41.2537 63.8605 41.2464 63.8605 41.2377 63.8605C37.3188 63.7468 34.5425 63.6215 34.0252 63.5967C34.0004 63.5967 33.9756 63.5938 33.9508 63.5894C33.945 63.5894 33.9392 63.5894 33.9334 63.5894H33.878C33.8692 63.5894 33.8605 63.5894 33.8503 63.588C27.7031 63.2644 23.5584 62.1962 21.8955 57.8795C20.2035 53.487 20.4454 47.7901 20.7413 44.785C20.8841 43.2519 21.0911 42.0044 21.0998 41.9519C21.1217 41.828 21.6201 39.0663 23.248 36.3556C25.4719 32.6481 28.7145 30.8483 32.6261 31.1485C36.0509 31.4123 38.7325 33.4613 40.3822 37.0741C41.5423 39.6158 41.7944 42.0583 41.8206 42.3279C41.8789 42.7768 42.6717 48.9327 42.6338 52.8326C42.6003 56.3725 42.2578 61.1746 42.1121 63.075C42.0786 63.5195 41.707 63.8605 41.2639 63.8605H41.2625ZM34.1869 61.8989C34.8194 61.928 37.1702 62.033 40.4725 62.1335C40.6343 59.9183 40.8996 55.8785 40.9302 52.8151C40.9666 48.9706 40.1374 42.5932 40.1286 42.529C40.1272 42.5159 40.1257 42.5043 40.1242 42.4911C40.1228 42.4678 39.9056 40.1113 38.8141 37.7401C37.4165 34.7074 35.2902 33.0591 32.4935 32.8448C29.2363 32.5942 26.6247 34.0559 24.7287 37.1907C23.2523 39.6333 22.7801 42.2142 22.7758 42.239C22.7758 42.2434 22.5703 43.472 22.4333 44.9453C22.152 47.8047 21.9159 53.2013 23.4811 57.2659C24.6616 60.3307 27.3942 61.5404 33.9217 61.8858H33.9538C34.0033 61.8858 34.0543 61.8872 34.1024 61.8901C34.1301 61.8916 34.1578 61.8945 34.184 61.8989H34.1869Z" fill="black"/>
<path d="M30.3588 29.0955C30.098 28.944 29.7672 29.03 29.5704 29.2573C29.4057 29.4468 29.276 29.7207 29.5063 30.0078C29.9551 30.566 30.6576 29.9481 30.6576 29.6493C30.6576 29.4555 30.5804 29.2223 30.3588 29.0941V29.0955Z" fill="black"/>
<path d="M29.942 30.5976C29.668 30.5976 29.413 30.4722 29.2235 30.2376C28.9262 29.8689 28.9539 29.4127 29.2964 29.0193C29.6185 28.6491 30.1431 28.5485 30.5439 28.7802C30.8441 28.9551 31.0234 29.2801 31.0234 29.6503C31.0234 29.9942 30.6838 30.3935 30.2684 30.5393C30.1591 30.5772 30.0498 30.5961 29.9435 30.5961L29.942 30.5976ZM30.0746 29.3836C29.9887 29.3836 29.9012 29.4331 29.8444 29.4973C29.6972 29.6663 29.7467 29.7275 29.789 29.7815C29.8662 29.8776 29.926 29.8762 29.9755 29.8674C30.1227 29.8397 30.2597 29.6969 30.2903 29.6313C30.2874 29.5716 30.267 29.4667 30.1737 29.4127C30.1417 29.3938 30.1067 29.3865 30.0717 29.3865L30.0746 29.3836Z" fill="black"/>
<path d="M35.6957 29.0955C35.4349 28.944 35.104 29.03 34.9073 29.2573C34.7426 29.4468 34.6129 29.7207 34.8432 30.0078C35.2921 30.566 35.9945 29.9481 35.9945 29.6493C35.9945 29.4555 35.9172 29.2223 35.6957 29.0941V29.0955Z" fill="black"/>
<path d="M35.2779 30.5981C35.0039 30.5981 34.7489 30.4727 34.5595 30.2381C34.2622 29.8694 34.2898 29.4132 34.6323 29.0197C34.9544 28.6496 35.479 28.549 35.8798 28.7807C36.18 28.9556 36.3593 29.2806 36.3593 29.6508C36.3593 29.9947 36.0197 30.394 35.6044 30.5398C35.4951 30.5777 35.3858 30.5966 35.2794 30.5966L35.2779 30.5981ZM35.4105 29.3841C35.3246 29.3841 35.2371 29.4336 35.1818 29.4978C35.0346 29.6668 35.0841 29.728 35.1264 29.7819C35.2036 29.8781 35.2634 29.8767 35.3129 29.8679C35.4601 29.8402 35.5971 29.6974 35.6277 29.6318C35.6248 29.5721 35.6044 29.4672 35.5111 29.4132C35.4791 29.3943 35.4441 29.387 35.4091 29.387L35.4105 29.3841Z" fill="black"/>
<path d="M32.7275 37.1827C32.1358 37.1827 31.6359 36.6945 31.002 35.4951C30.8941 35.291 30.9015 35.0476 31.0195 34.8494C31.1375 34.6527 31.3518 34.5317 31.5806 34.5317H33.2682C33.446 34.5317 33.6151 34.6031 33.7389 34.7314C33.8628 34.8596 33.9284 35.0316 33.924 35.208C33.8847 36.4613 33.4489 37.1812 32.7261 37.1812L32.7275 37.1827Z" fill="#EF9178"/>
<path d="M33.268 35.1886C33.268 35.1886 33.2257 36.5264 32.7258 36.5264C32.4752 36.5264 32.1108 36.1927 31.5803 35.1886H33.268ZM33.268 33.8769H31.5803C31.1198 33.8769 30.6943 34.1174 30.4567 34.5124C30.2191 34.9058 30.206 35.3955 30.4203 35.8021C30.9537 36.8092 31.643 37.8381 32.7244 37.8381C33.045 37.8381 34.1205 37.7156 34.4645 36.1373C34.5606 35.6972 34.5767 35.276 34.5781 35.2294C34.5898 34.8752 34.4557 34.5298 34.2094 34.2748C33.9617 34.0198 33.6221 33.8755 33.268 33.8755V33.8769Z" fill="black"/>
<path d="M44.7266 31.4707C44.7266 31.4707 50.0955 30.6065 52.6269 30.8528Z" fill="#FFEEC7"/>
<path d="M44.7247 32.4179C44.2671 32.4179 43.8648 32.0871 43.7905 31.6207C43.7074 31.1048 44.0587 30.618 44.5746 30.535C44.799 30.4985 50.0936 29.6547 52.7183 29.9098C53.2386 29.9608 53.6204 30.4242 53.5694 30.9445C53.5184 31.4648 53.055 31.8466 52.5347 31.7956C50.1519 31.5624 44.9287 32.396 44.8762 32.4048C44.8252 32.4135 44.7742 32.4164 44.7247 32.4164V32.4179Z" fill="black"/>
<path d="M45.2422 33.7094C45.2422 33.7094 49.9539 33.332 52.7301 34.6771Z" fill="#FFEEC7"/>
<path d="M52.7289 35.6256C52.5905 35.6256 52.4491 35.595 52.3165 35.5309C49.8084 34.3155 45.3619 34.6507 45.3168 34.655C44.7936 34.6944 44.3389 34.3067 44.2981 33.7865C44.2558 33.2647 44.6449 32.8086 45.1667 32.7663C45.3693 32.7503 50.1698 32.3845 53.1428 33.8258C53.6136 34.0546 53.8103 34.6201 53.5815 35.0908C53.4183 35.4289 53.0802 35.6256 52.7289 35.6256Z" fill="black"/>
<path d="M19.6937 31.9971C19.6937 31.9971 14.3028 32.7053 11.9463 33.6672Z" fill="#FFEEC7"/>
<path d="M11.948 34.614C11.5749 34.614 11.2208 34.391 11.0707 34.0238C10.8725 33.5399 11.1056 32.9861 11.5895 32.7894C14.0306 31.794 19.3456 31.0872 19.57 31.0581C20.0889 30.9896 20.564 31.3554 20.6325 31.8742C20.7009 32.393 20.3351 32.8681 19.8163 32.9366C19.7638 32.9439 14.5188 33.6405 12.3036 34.5441C12.187 34.5922 12.0646 34.614 11.9465 34.614H11.948Z" fill="black"/>
<path d="M19.8421 34.2896C19.8421 34.2896 15.2193 35.2762 12.9443 37.3602Z" fill="#FFEEC7"/>
<path d="M12.9465 38.3077C12.69 38.3077 12.435 38.2043 12.2484 38.0002C11.8943 37.614 11.9205 37.015 12.3067 36.6624C14.7434 34.4297 19.4478 33.4066 19.646 33.3643C20.1575 33.255 20.6603 33.5815 20.7696 34.093C20.8789 34.6046 20.5525 35.1074 20.0409 35.2167C19.9826 35.2298 15.6368 36.18 13.5863 38.06C13.4041 38.2261 13.1753 38.3092 12.9465 38.3092V38.3077Z" fill="black"/>
</svg>
