<svg width="75" height="75" viewBox="0 0 75 75" fill="none" xmlns="http://www.w3.org/2000/svg">
<path d="M38.846 58.0009C38.7775 58.7165 39.1535 66.9419 36.9019 66.9419H32.5546C32.5546 66.9419 31.3945 66.8734 31.3945 65.3388C31.3945 63.8041 34.079 63.9062 34.079 63.9062L33.5427 56.8481" fill="black"/>
<path d="M36.9024 67.8888H32.5551C32.5362 67.8888 32.5187 67.8888 32.4997 67.8873C31.6748 67.8393 30.4492 67.1208 30.4492 65.3384C30.4492 64.7657 30.6663 64.2527 31.0773 63.8563C31.6224 63.3316 32.4152 63.1101 33.0623 63.0183L32.5988 56.9207C32.5595 56.3989 32.9501 55.9442 33.4718 55.9049C33.9935 55.867 34.4482 56.2561 34.4876 56.7779L35.0239 63.8359C35.0443 64.1055 34.9495 64.3707 34.7615 64.5646C34.5735 64.7584 34.3127 64.8633 34.0431 64.8546C33.5272 64.8385 32.6658 64.9566 32.3889 65.2233C32.3525 65.2597 32.3409 65.2787 32.3409 65.3399C32.3409 65.6095 32.3904 65.9374 32.6221 65.9957H36.8791C36.9563 65.9359 37.4285 65.4856 37.6967 63.1495C37.8818 61.5361 37.8847 59.7276 37.8862 58.754C37.8862 58.2731 37.8876 58.056 37.9022 57.9117C37.9517 57.3914 38.4137 57.0096 38.9355 57.0591C39.4557 57.1087 39.8375 57.5707 39.7895 58.0909C39.7836 58.1682 39.7836 58.4815 39.7822 58.7584C39.7749 63.5021 39.4208 67.8917 36.9024 67.8917V67.8888Z" fill="black"/>
<path d="M42.8408 58.0009C42.7723 58.7165 43.1483 66.9419 40.8967 66.9419H37.5214C37.5214 66.9419 36.3613 66.8734 36.3613 65.3388C36.3613 63.8041 39.0458 63.9062 39.0458 63.9062L38.5095 56.8481" fill="black"/>
<path d="M40.8982 67.8888H37.5229C37.504 67.8888 37.4865 67.8888 37.4675 67.8873C36.6426 67.8393 35.417 67.1208 35.417 65.3384C35.417 64.7657 35.6341 64.2527 36.0451 63.8563C36.5902 63.3316 37.383 63.1101 38.0301 63.0183L37.5666 56.9207C37.5273 56.3989 37.9178 55.9442 38.4396 55.9049C38.9613 55.867 39.416 56.2561 39.4554 56.7779L39.9917 63.8359C40.0121 64.1055 39.9173 64.3707 39.7293 64.5646C39.5413 64.7584 39.2805 64.8633 39.0109 64.8546C38.495 64.8385 37.6337 64.9566 37.3568 65.2233C37.3203 65.2597 37.3086 65.2787 37.3086 65.3399C37.3086 65.6095 37.3582 65.9374 37.5899 65.9957H40.8749C40.9521 65.9359 41.4243 65.4856 41.6924 63.1495C41.8775 61.5361 41.8804 59.7276 41.8819 58.754C41.8819 58.2731 41.8833 58.056 41.8979 57.9117C41.9474 57.3914 42.4094 57.0096 42.9312 57.0591C43.4515 57.1087 43.8333 57.5707 43.7852 58.0909C43.7794 58.1682 43.7794 58.4815 43.7779 58.7584C43.7706 63.5021 43.4165 67.8917 40.8982 67.8917V67.8888Z" fill="black"/>
<path d="M49.4956 50.9293C49.4956 50.9293 52.6071 48.8292 54.5221 50.6816C56.437 52.5339 57.1657 54.0262 55.7841 55.4661C54.404 56.906 53.0239 58.3458 49.9634 54.7126L49.4941 50.9293H49.4956Z" fill="black"/>
<path d="M53.3284 57.9481C53.2963 57.9481 53.2642 57.9481 53.2307 57.9467C51.9803 57.9059 50.7124 57.0737 49.239 55.3249C49.1209 55.185 49.0466 55.013 49.0233 54.8308L48.554 51.0475C48.5103 50.6934 48.6692 50.3451 48.9636 50.1454C49 50.1206 49.8788 49.5333 51.0257 49.2025C52.7017 48.7187 54.1372 48.9955 55.1778 50.0026C56.1935 50.9849 58.8897 53.595 56.4661 56.1235C55.6441 56.9805 54.7158 57.9496 53.3269 57.9496L53.3284 57.9481ZM50.8683 54.3135C52.0969 55.7198 52.862 56.039 53.2919 56.0521C53.8472 56.0769 54.3471 55.5945 55.0991 54.8104C55.5712 54.3178 56.2183 53.6431 53.8618 51.3623C52.8882 50.4209 51.307 51.03 50.5113 51.4366L50.8669 54.312L50.8683 54.3135Z" fill="black"/>
<path d="M47.651 43.5815C47.651 43.5815 50.8732 42.7902 52.9951 39.4659C55.3867 35.7219 53.5169 27.8988 51.7593 24.1024C50.0017 20.3059 46.3598 19.621 46.3598 19.621C46.3598 19.621 48.9116 19.2916 48.4715 15.7808C47.8812 11.0648 44.4666 10.9088 42.7105 10.9526C41.4965 10.9832 38.7858 11.1872 37.7307 14.3526C36.6756 17.5165 38.8077 18.6926 38.8077 18.6926L36.9087 18.5527C35.0098 18.4128 31.4276 18.9039 31.4276 18.9039C31.4305 18.0601 31.9348 17.8517 31.9348 15.7269C31.9348 12.286 27.9256 10.8928 24.5503 11.6667C21.175 12.4405 20.5454 15.5068 20.7101 16.989C21.1051 20.5391 24.304 21.0594 24.304 21.0594C24.304 21.0594 20.4187 24.2743 19.486 27.1978C18.5022 30.2801 17.9266 42.3894 26.4638 43.4212C26.0703 45.9351 24.3667 52.7891 26.3254 57.8724C27.7521 61.5756 31.2031 62.4748 37.5995 62.5637C42.5881 62.6322 45.752 61.5056 47.7195 60.2494C49.155 59.3327 50.1227 57.8272 50.3631 56.1411C51.0991 50.9601 49.974 46.4817 48.9364 43.5655" fill="white"/>
<path d="M38.0343 63.5138C37.8857 63.5138 37.7371 63.5138 37.587 63.5109C31.1527 63.422 27.1027 62.5272 25.4413 58.2134C23.6472 53.5557 24.7345 47.6446 25.3174 44.4675C25.3349 44.3728 25.3524 44.281 25.3684 44.1921C23.1736 43.6937 21.4233 42.4476 20.1598 40.4787C17.4068 36.1897 17.7843 29.4173 18.5844 26.9092C19.2547 24.8062 21.2353 22.6406 22.528 21.3916C21.3038 20.6935 20.0213 19.3601 19.7692 17.0924C19.5389 15.0142 20.5649 11.6069 24.3395 10.7427C26.7835 10.183 29.4257 10.6669 31.0682 11.9756C32.2559 12.9214 32.8826 14.2185 32.8826 15.7254C32.8826 16.712 32.7806 17.3431 32.664 17.8007C33.8488 17.6739 35.5583 17.5325 36.7781 17.5937C36.44 16.6974 36.3453 15.5155 36.832 14.0523C37.7021 11.4436 39.671 10.0825 42.6863 10.0052C43.7647 9.97754 45.1711 10.0373 46.4798 10.7485C48.1295 11.6448 49.1147 13.2974 49.4105 15.6627C49.6437 17.534 49.1541 18.6984 48.5128 19.4198C49.8434 20.1033 51.5427 21.3829 52.6182 23.7045C54.2038 27.1293 56.5779 35.614 53.7929 39.9759C52.6197 41.8137 51.1419 42.9446 49.9556 43.6164C51.429 47.9171 51.8808 52.1741 51.2993 56.2737C51.0195 58.2396 49.9002 59.9797 48.2286 61.0465C45.6637 62.6831 42.2345 63.5124 38.0329 63.5124L38.0343 63.5138ZM26.3886 12.4084C25.8479 12.4084 25.2985 12.4682 24.7636 12.5906C21.3053 13.3834 21.6492 16.849 21.6536 16.884C21.9655 19.6865 24.4328 20.1193 24.4575 20.1237C24.8248 20.1835 25.1221 20.4516 25.2197 20.8101C25.3174 21.1686 25.1964 21.5519 24.9093 21.788C24.8729 21.8186 21.2251 24.8631 20.3886 27.4849C19.7707 29.4202 19.2868 35.614 21.7527 39.4542C22.8807 41.2103 24.5042 42.229 26.5766 42.4797C26.8316 42.5103 27.0633 42.6444 27.2178 42.8484C27.3723 43.0539 27.4378 43.3133 27.3985 43.5669C27.3446 43.9137 27.2673 44.3291 27.1799 44.81C26.6305 47.802 25.606 53.372 27.2076 57.5314C28.3487 60.4942 30.9734 61.5245 37.6117 61.6164C41.6443 61.6703 44.8709 60.9431 47.2099 59.4507C48.4166 58.6812 49.2226 57.4264 49.4251 56.0084C49.9571 52.2601 49.5534 48.3572 48.2228 44.399C48.0246 44.4646 47.9022 44.4952 47.8774 44.5025C47.3688 44.6278 46.8558 44.3174 46.7319 43.8088C46.6081 43.3016 46.917 42.7901 47.4227 42.6633C47.4737 42.6502 50.3287 41.8851 52.1985 38.9572C54.2388 35.7612 52.7567 28.5079 50.9014 24.5016C49.3814 21.2197 46.3122 20.5784 46.1825 20.5522C45.7278 20.4618 45.4013 20.0552 45.4174 19.5903C45.4334 19.1312 45.773 18.7494 46.2277 18.6838C46.5046 18.6372 47.8337 18.2874 47.5349 15.8988C47.0832 12.2802 44.8548 11.8488 42.7373 11.8998C41.2406 11.9377 39.4218 12.2845 38.6319 14.6513C37.8799 16.9088 39.0953 17.7555 39.2731 17.8648C39.671 18.0703 39.8575 18.5206 39.7366 18.9534C39.6156 19.3877 39.19 19.669 38.7397 19.6355L36.8408 19.4956C35.0628 19.3644 31.5928 19.8366 31.5593 19.841C31.2868 19.8789 31.0128 19.7958 30.8058 19.6151C30.5989 19.4344 30.4808 19.1735 30.4823 18.8981C30.4838 18.4244 30.5931 18.0907 30.698 17.7686C30.835 17.3518 30.9895 16.8796 30.9895 15.7239C30.9895 14.8014 30.6193 14.0378 29.8891 13.4548C29.038 12.7771 27.7424 12.4055 26.3886 12.4055V12.4084Z" fill="black"/>
<path d="M38.7218 18.6931C38.7218 18.6931 36.5896 17.517 37.6447 14.3531C38.6999 11.1892 41.4106 10.9851 42.6246 10.9531C44.3807 10.9093 47.7953 11.0638 48.3855 15.7813C48.8242 19.2921 46.2738 19.6215 46.2738 19.6215H44.4885C42.9816 19.6215 41.4805 19.4262 40.0246 19.0385L38.7218 18.6917V18.6931Z" fill="black"/>
<path d="M46.2736 20.5697H44.4883C42.8997 20.5697 41.3156 20.3627 39.781 19.9547L38.4781 19.6078C38.4038 19.5874 38.3309 19.5597 38.2639 19.5218C37.2874 18.9826 35.715 17.1478 36.7468 14.0523C37.6168 11.4436 39.5857 10.0825 42.601 10.0052C43.6794 9.97754 45.0858 10.0373 46.3945 10.7485C48.0443 11.6448 49.0295 13.2974 49.3253 15.6627C49.8747 20.0596 46.4295 20.5565 46.3945 20.5609C46.3537 20.5668 46.3144 20.5682 46.2736 20.5682V20.5697ZM39.1106 17.8167L40.2678 18.1242C41.6435 18.49 43.0644 18.6751 44.4883 18.6751H46.189C46.5461 18.5979 47.7295 18.1679 47.4467 15.8988C46.995 12.2802 44.7667 11.8488 42.6491 11.8998C41.1524 11.9377 39.3336 12.2845 38.5437 14.6513C37.8617 16.6989 38.7973 17.5864 39.1106 17.8152V17.8167Z" fill="black"/>
<path d="M24.3061 21.0596C24.3061 21.0596 21.1072 20.5394 20.7122 16.9892C20.5476 15.5085 21.1772 12.4408 24.5524 11.6669C27.9277 10.8931 31.9369 12.2863 31.9369 15.7271C31.9369 17.852 31.4326 18.0604 31.4297 18.9042L30.5101 19.3837C28.7511 20.3018 26.8259 20.8556 24.8482 21.0159L24.3061 21.0596Z" fill="black"/>
<path d="M24.3052 22.0067C24.2541 22.0067 24.2031 22.0023 24.1536 21.995C22.8011 21.775 20.1458 20.4677 19.7698 17.0939C19.5396 15.0157 20.5656 11.6084 24.3401 10.7442C26.7841 10.1845 29.4264 10.6684 31.0688 11.9771C32.2566 12.9229 32.8832 14.22 32.8832 15.7269C32.8832 17.2338 32.6602 17.8648 32.4985 18.3603C32.4125 18.6241 32.3775 18.7378 32.3761 18.9083C32.3746 19.2595 32.1793 19.5816 31.8674 19.7448L30.9478 20.2243C29.0664 21.2066 27.0392 21.7895 24.9231 21.96L24.3809 22.0038C24.3562 22.0052 24.3299 22.0067 24.3052 22.0067ZM26.3892 12.4085C25.8485 12.4085 25.2991 12.4682 24.7642 12.5906C21.3059 13.3834 21.6498 16.8491 21.6542 16.884C21.7825 18.0412 22.2794 18.9331 23.132 19.5321C23.6523 19.8979 24.1638 20.0523 24.3708 20.1048L24.7744 20.0727C26.6355 19.9226 28.4193 19.4096 30.0749 18.5454L30.5514 18.2962C30.5922 18.1068 30.6476 17.9377 30.7015 17.7716C30.8385 17.3548 30.993 16.8826 30.993 15.7269C30.993 14.8044 30.6228 14.0407 29.8927 13.4578C29.0416 12.7801 27.746 12.4085 26.3921 12.4085H26.3892Z" fill="black"/>
<path d="M35.2803 36.8448C34.6886 36.8448 34.1887 36.3566 33.5547 35.1572C33.4469 34.9531 33.4542 34.7098 33.5722 34.5116C33.6903 34.3148 33.9045 34.1938 34.1333 34.1938H35.8209C35.9987 34.1938 36.1678 34.2653 36.2917 34.3935C36.4155 34.5218 36.4811 34.6937 36.4768 34.8701C36.4374 36.1234 36.0017 36.8433 35.2788 36.8433L35.2803 36.8448Z" fill="#EF9178"/>
<path d="M35.8227 34.8512C35.8227 34.8512 35.7804 36.189 35.2805 36.189C35.0298 36.189 34.6655 35.8553 34.135 34.8512H35.8227ZM35.8227 33.5395H34.135C33.6745 33.5395 33.2489 33.78 33.0114 34.175C32.7738 34.5684 32.7607 35.0581 32.975 35.4647C33.5083 36.4718 34.1977 37.5007 35.2791 37.5007C35.5997 37.5007 36.6737 37.3782 37.0191 35.7999C37.1153 35.3598 37.1314 34.9386 37.1328 34.892C37.1445 34.5378 37.0104 34.1924 36.7641 33.9374C36.5164 33.6824 36.1768 33.5381 35.8227 33.5381V33.5395Z" fill="black"/>
<path d="M31.9024 27.4747C30.6665 27.7997 29.5414 28.6581 28.9366 29.6622C28.3989 30.5541 28.0695 31.653 29.2368 32.1529C31.3719 33.0666 33.708 30.8223 34.2458 29.6812C34.6072 28.9146 34.3595 26.8276 31.9024 27.4747Z" fill="black"/>
<path d="M30.2926 33.1468C29.8423 33.1468 29.3847 33.0623 28.9314 32.8685C28.1809 32.5464 27.8807 32.0378 27.7612 31.6662C27.544 30.9914 27.7145 30.1811 28.2713 29.2601C28.9941 28.0621 30.3101 27.0886 31.7063 26.7213C33.3895 26.2783 34.245 26.9399 34.6065 27.3742C35.2652 28.167 35.2768 29.3256 34.9518 30.0135C34.3397 31.312 32.3883 33.1468 30.2926 33.1468ZM32.1012 28.2268C31.0971 28.4906 30.1163 29.212 29.6033 30.0631C29.255 30.6402 29.1894 31.022 29.2419 31.1881C29.271 31.28 29.3731 31.363 29.5436 31.4359C31.1889 32.1398 33.1593 30.1607 33.5426 29.3475C33.63 29.1639 33.6446 28.6523 33.407 28.3681C33.133 28.0388 32.5443 28.1087 32.0998 28.2253L32.1012 28.2268Z" fill="black"/>
<path d="M41.9977 29.4012C41.2238 28.384 40.0011 27.6728 38.8425 27.4979C37.8121 27.3419 36.671 27.4585 36.6564 28.7294C36.6288 31.0524 39.596 32.3524 40.8566 32.4121C41.7019 32.4529 43.5352 31.4255 41.9992 29.4027L41.9977 29.4012Z" fill="black"/>
<path d="M40.9046 33.1918C40.8755 33.1918 40.8463 33.1918 40.8186 33.1903C39.0771 33.1073 35.8447 31.4983 35.8782 28.7206C35.8884 27.903 36.244 27.4323 36.5413 27.1802C37.0819 26.7211 37.8952 26.5695 38.959 26.7298C40.3435 26.9382 41.7455 27.7821 42.6185 28.9319C43.6707 30.3179 43.388 31.3614 43.1242 31.8612C42.6622 32.74 41.6566 33.1918 40.9046 33.1918ZM38.1852 28.2222C37.8485 28.2222 37.6401 28.2863 37.5498 28.3636C37.4769 28.4262 37.4376 28.5516 37.4361 28.7366C37.4142 30.5277 39.9967 31.5902 40.8944 31.6324C41.097 31.6441 41.5765 31.4605 41.7485 31.1325C41.9481 30.7536 41.6581 30.2363 41.3797 29.8705C40.7516 29.0441 39.711 28.4146 38.7273 28.2659C38.5189 28.2338 38.3382 28.2207 38.1852 28.2207V28.2222Z" fill="black"/>
<path d="M32.9135 28.7581C32.6527 28.6066 32.3218 28.6925 32.1251 28.9199C31.9604 29.1094 31.8307 29.3833 32.061 29.6704C32.5098 30.2286 33.2123 29.6107 33.2123 29.3119C33.2123 29.1181 33.135 28.8849 32.9135 28.7567V28.7581Z" fill="white"/>
<path d="M32.4967 30.2607C32.2227 30.2607 31.9677 30.1353 31.7782 29.9007C31.4809 29.532 31.5086 29.0758 31.8511 28.6823C32.1732 28.3122 32.6978 28.2116 33.0986 28.4433C33.3988 28.6182 33.5781 28.9432 33.5781 29.3134C33.5781 29.6573 33.2385 30.0566 32.8217 30.2038C32.7124 30.2417 32.6031 30.2607 32.4967 30.2607ZM32.6293 29.0467C32.5433 29.0467 32.4544 29.0962 32.399 29.1604C32.2519 29.3294 32.3014 29.3906 32.3437 29.4445C32.4209 29.5407 32.4807 29.5393 32.5302 29.5305C32.6774 29.5043 32.8144 29.36 32.845 29.2944C32.8421 29.2347 32.8217 29.1297 32.7284 29.0758C32.6964 29.0569 32.6614 29.0496 32.6264 29.0496L32.6293 29.0467Z" fill="white"/>
<path d="M38.2495 28.7581C37.9886 28.6066 37.6578 28.6925 37.461 28.9199C37.2963 29.1094 37.1666 29.3833 37.3969 29.6704C37.8458 30.2286 38.5482 29.6107 38.5482 29.3119C38.5482 29.1181 38.471 28.8849 38.2495 28.7567V28.7581Z" fill="white"/>
<path d="M37.8316 30.2607C37.5577 30.2607 37.3026 30.1353 37.1132 29.9007C36.8159 29.532 36.8436 29.0758 37.186 28.6823C37.5081 28.3122 38.0328 28.2116 38.4336 28.4433C38.7338 28.6182 38.913 28.9432 38.913 29.3134C38.913 29.6573 38.5734 30.0566 38.1566 30.2038C38.0473 30.2417 37.938 30.2607 37.8316 30.2607ZM37.9657 29.0467C37.8797 29.0467 37.7908 29.0962 37.7355 29.1604C37.5883 29.3294 37.6378 29.3906 37.6801 29.4445C37.7573 29.5407 37.8171 29.5393 37.8666 29.5305C38.0138 29.5043 38.1508 29.36 38.1814 29.2944C38.1785 29.2347 38.1581 29.1297 38.0648 29.0758C38.0328 29.0569 37.9978 29.0496 37.9628 29.0496L37.9657 29.0467Z" fill="white"/>
<path d="M26.5423 42.481C26.5423 42.481 41.1451 44.2167 47.7295 42.5742L48.6243 44.205L50.0234 50.2837C50.0234 50.2837 42.6725 54.4255 25.8486 50.4819L26.5423 42.481Z" fill="black"/>
</svg>
