<svg width="75" height="75" viewBox="0 0 75 75" fill="none" xmlns="http://www.w3.org/2000/svg">
<path d="M49.102 51.067C49.102 51.067 52.2135 48.9669 54.1285 50.8192C56.0435 52.6716 56.7722 54.1639 55.3906 55.6038C54.0105 57.0437 52.6303 58.4835 49.5699 54.8503L49.1006 51.067H49.102Z" fill="#FFDED2"/>
<path d="M52.9368 58.0858C52.9047 58.0858 52.8726 58.0858 52.8391 58.0844C51.5887 58.0436 50.3208 57.2114 48.8474 55.4626C48.7293 55.3227 48.655 55.1507 48.6317 54.9685L48.1624 51.1852C48.1187 50.8311 48.2776 50.4828 48.5719 50.2831C48.6084 50.2583 49.4872 49.671 50.6341 49.3402C52.3101 48.8563 53.7456 49.1332 54.7862 50.1403C55.8019 51.1225 58.4981 53.7327 56.0745 56.2612C55.2525 57.1181 54.3242 58.0873 52.9353 58.0873L52.9368 58.0858ZM50.4767 54.4512C51.7053 55.8575 52.4704 56.1767 52.9003 56.1898C53.4614 56.2131 53.9555 55.7322 54.7075 54.9481C55.1796 54.4555 55.8267 53.7808 53.4701 51.5C52.4966 50.5585 50.9154 51.1677 50.1197 51.5743L50.4753 54.4497L50.4767 54.4512Z" fill="black"/>
<path d="M38.4535 58.1391C38.385 58.8547 38.761 67.08 36.5093 67.08H32.162C32.162 67.08 31.002 67.0115 31.002 65.4769C31.002 63.9423 33.6864 64.0443 33.6864 64.0443L33.1501 56.9863" fill="#FFDED2"/>
<path d="M36.5108 68.027H32.1635C32.1446 68.027 32.1271 68.027 32.1081 68.0255C31.2833 67.9774 30.0576 67.259 30.0576 65.4766C30.0576 64.9039 30.2748 64.3909 30.6857 63.9945C31.2308 63.4698 32.0236 63.2483 32.6707 63.1565L32.2072 57.0589C32.1679 56.5371 32.5585 56.0824 33.0802 56.0431C33.6034 56.0052 34.0566 56.3943 34.096 56.916L34.6323 63.9741C34.6527 64.2437 34.558 64.5089 34.37 64.7027C34.182 64.8966 33.9211 65.0015 33.6515 64.9928C33.1356 64.9767 32.2743 65.0948 31.9974 65.3615C31.9609 65.3979 31.9493 65.4168 31.9493 65.4781C31.9493 65.7477 31.9988 66.0756 32.2305 66.1339H36.4875C36.5648 66.0741 37.0369 65.6238 37.3051 63.2876C37.4902 61.6743 37.4931 59.8657 37.4945 58.8922C37.4945 58.4113 37.496 58.1941 37.5106 58.0499C37.5601 57.5296 38.0221 57.1478 38.5439 57.1973C39.0641 57.2469 39.446 57.7088 39.3979 58.2291C39.392 58.3064 39.392 58.6197 39.3906 58.8966C39.3833 63.6403 39.0291 68.0299 36.5108 68.0299V68.027Z" fill="black"/>
<path d="M42.4492 58.1386C42.3807 58.8542 42.7567 67.0796 40.505 67.0796H37.1298C37.1298 67.0796 35.9697 67.0111 35.9697 65.4765C35.9697 63.9418 38.6542 64.0439 38.6542 64.0439L38.1179 56.9858" fill="#FFDED2"/>
<path d="M40.5065 68.0265H37.1313C37.1123 68.0265 37.0948 68.0265 37.0759 68.025C36.251 67.9769 35.0254 67.2585 35.0254 65.4761C35.0254 64.9034 35.2425 64.3904 35.6535 63.994C36.1986 63.4693 36.9914 63.2478 37.6384 63.156L37.175 57.0584C37.1357 56.5366 37.5262 56.0819 38.048 56.0426C38.5712 56.0047 39.0244 56.3938 39.0637 56.9155L39.6001 63.9736C39.6205 64.2432 39.5257 64.5084 39.3377 64.7023C39.1497 64.8961 38.8889 65.001 38.6193 64.9923C38.1048 64.9762 37.242 65.0943 36.9651 65.361C36.9287 65.3974 36.917 65.4164 36.917 65.4776C36.917 66.0387 37.1313 66.1217 37.1765 66.1334H40.4832C40.5605 66.0736 41.0326 65.6233 41.3008 63.2871C41.4859 61.6738 41.4888 59.8653 41.4903 58.8917C41.4903 58.4108 41.4917 58.1937 41.5063 58.0494C41.5558 57.5291 42.0178 57.1473 42.5396 57.1968C43.0598 57.2464 43.4417 57.7084 43.3936 58.2286C43.3878 58.3059 43.3878 58.6192 43.3863 58.8961C43.379 63.6398 43.0249 68.0294 40.5065 68.0294V68.0265Z" fill="black"/>
<path d="M48.3928 43.2606C49.4305 46.1768 50.7086 51.0983 49.9726 56.2792C49.7365 57.9391 48.8038 59.4315 47.396 60.3438C45.4329 61.6175 42.2544 62.7703 37.209 62.7018C30.8126 62.6144 27.3601 61.7137 25.9348 58.0106C23.9761 52.9258 24.6902 45.8051 25.0852 43.2912L24.6276 43.0886C18.7238 40.3429 18.6932 34.7219 19.0969 31.7066C19.5005 28.6913 22.6834 26.5038 22.6834 26.5038C22.6834 26.5038 21.4184 22.6359 22.0509 19.1208C22.6834 15.6056 23.0347 13.0742 26.4099 12.3003C29.7852 11.5264 30.7689 15.3943 30.6989 16.9405C30.629 18.4868 30.7062 23.761 30.7019 24.6048C30.7019 24.6048 34.2841 24.1122 36.183 24.2536L38.082 24.3935C38.082 24.3935 36.6756 18.6282 37.7307 15.4642C38.7859 12.3003 40.4735 10.7526 41.6685 10.9639C42.8636 11.1752 45.2551 11.3851 45.8876 16.0967C46.5201 20.8084 45.8876 25.0974 45.8876 25.0974C45.8876 25.0974 49.6141 24.8162 51.3717 28.6126C53.1293 32.409 54.043 39.0196 51.0204 41.5511C47.9964 44.0825 45.3251 44.1525 45.3251 44.1525" fill="#FFDED2"/>
<path d="M37.6446 63.6517C37.4959 63.6517 37.3473 63.6517 37.1957 63.6488C30.7614 63.5599 26.7114 62.6651 25.05 58.3513C23.0695 53.2112 23.7122 46.3732 24.0444 43.8622C19.4785 41.6514 17.3886 37.2997 18.1552 31.5824C18.5064 28.9635 20.5759 26.9772 21.5902 26.145C21.2448 24.8436 20.5992 21.821 21.1151 18.9544L21.172 18.6367C21.7841 15.2191 22.3131 12.268 26.1955 11.379C27.5275 11.0744 28.7357 11.3323 29.6888 12.1295C31.2263 13.412 31.7 15.7365 31.6431 16.9869C31.5921 18.0974 31.6213 21.2555 31.6373 23.1428C31.6373 23.2813 31.6402 23.4139 31.6402 23.5378C32.8819 23.3993 34.9222 23.2128 36.2499 23.3104L36.8926 23.3585C36.5268 21.4071 36.005 17.6369 36.8284 15.1667C37.9608 11.7681 39.972 9.70738 41.8287 10.0338L41.9729 10.0586C44.0249 10.4069 46.2051 11.3819 46.8216 15.974C47.2865 19.4309 47.0927 22.6327 46.9396 24.2125C48.3766 24.4136 50.8337 25.2079 52.227 28.2188C54.0516 32.1595 55.1213 39.3531 51.6236 42.2809C50.9066 42.8799 50.2071 43.3521 49.5483 43.7252C50.6108 46.9547 51.5959 51.5614 50.9066 56.4159C50.6297 58.363 49.5367 60.0856 47.9088 61.1422C45.3365 62.8108 41.884 63.6547 37.6416 63.6547L37.6446 63.6517ZM25.018 42.227L25.4668 42.4252C25.8603 42.5986 26.0862 43.014 26.0206 43.4381C24.7032 51.8383 26.5977 57.098 26.8193 57.6707C27.9604 60.6335 30.5851 61.6639 37.2234 61.7557C41.2894 61.8053 44.5408 61.0693 46.8828 59.5507C48.0516 58.7929 48.8371 57.5512 49.0368 56.1478C49.6605 51.7553 48.7934 47.5479 47.8243 44.5326C46.396 45.0645 45.4196 45.1009 45.3497 45.1024C44.8308 45.1141 44.3922 44.7031 44.3776 44.1799C44.363 43.6567 44.7769 43.2224 45.3001 43.2078C45.3176 43.2078 47.712 43.0883 50.4125 40.8265C52.9964 38.6623 52.1118 32.4685 50.5131 29.0131C49.0485 25.8492 45.9909 26.0415 45.9588 26.0444C45.6717 26.0678 45.3905 25.9555 45.1937 25.7457C44.997 25.5358 44.9081 25.2473 44.9503 24.9616C44.9562 24.9208 45.5551 20.7396 44.9489 16.2262C44.4344 12.3977 42.8313 12.1251 41.6611 11.9269L41.5037 11.8993C40.9994 11.8104 39.5901 12.8815 38.6297 15.7656C37.6737 18.6323 38.9897 24.1163 39.0028 24.1717C39.0742 24.4661 39.0014 24.7765 38.8046 25.0083C38.6093 25.24 38.3135 25.3624 38.0118 25.3405L36.1129 25.2006C34.3349 25.0695 30.8649 25.5416 30.8314 25.546C30.5589 25.5839 30.2849 25.5008 30.0779 25.3201C29.871 25.1394 29.7529 24.8785 29.7544 24.6031C29.7544 24.3816 29.75 23.8496 29.7442 23.1589C29.7267 21.1287 29.699 18.061 29.7515 16.8995C29.7908 16.0251 29.4134 14.3651 28.4763 13.5825C27.9808 13.1701 27.3745 13.052 26.6211 13.2255C24.0663 13.8113 23.6772 15.41 23.0389 18.9704L22.982 19.2896C22.3976 22.5322 23.5708 26.1741 23.5825 26.2106C23.7136 26.6114 23.5635 27.0515 23.2152 27.289C23.189 27.308 20.3806 29.2608 20.0352 31.8346C19.5703 35.3002 20.0571 39.9156 25.018 42.227Z" fill="black"/>
<path d="M32.5229 29.5321C32.262 29.3805 31.9312 29.4665 31.7345 29.6938C31.5698 29.8833 31.4401 30.1573 31.6703 30.4444C32.1192 31.0025 32.8217 30.3846 32.8217 30.0859C32.8217 29.892 32.7444 29.6588 32.5229 29.5306V29.5321Z" fill="black"/>
<path d="M32.1061 31.034C31.8321 31.034 31.577 30.9086 31.3876 30.674C31.0903 30.3053 31.118 29.8491 31.4605 29.4557C31.7825 29.084 32.3072 28.9849 32.7079 29.2166C33.0082 29.3915 33.1874 29.7165 33.1874 30.0867C33.1874 30.4306 32.8478 30.8299 32.431 30.9771C32.3217 31.015 32.2124 31.034 32.1061 31.034ZM32.2387 29.82C32.1527 29.82 32.0638 29.8695 32.0084 29.9337C31.8612 30.1027 31.9108 30.1639 31.953 30.2179C32.0303 30.314 32.09 30.3126 32.1396 30.3038C32.2868 30.2776 32.4238 30.1333 32.4544 30.0677C32.4515 30.008 32.431 29.9031 32.3378 29.8491C32.3057 29.8302 32.2707 29.8229 32.2358 29.8229L32.2387 29.82Z" fill="black"/>
<path d="M37.8588 29.5321C37.598 29.3805 37.2671 29.4665 37.0704 29.6938C36.9057 29.8833 36.776 30.1573 37.0063 30.4444C37.4551 31.0025 38.1576 30.3846 38.1576 30.0859C38.1576 29.892 38.0803 29.6588 37.8588 29.5306V29.5321Z" fill="black"/>
<path d="M37.441 31.0346C37.167 31.0346 36.912 30.9093 36.7225 30.6746C36.4252 30.3059 36.4529 29.8498 36.7954 29.4563C37.1175 29.0861 37.6421 28.9855 38.0429 29.2173C38.3431 29.3921 38.5224 29.7171 38.5224 30.0873C38.5224 30.4312 38.1828 30.8306 37.766 30.9778C37.6567 31.0156 37.5474 31.0346 37.441 31.0346ZM37.5751 29.8206C37.4891 29.8206 37.4017 29.8702 37.3448 29.9343C37.1976 30.1033 37.2472 30.1645 37.2895 30.2185C37.3667 30.3147 37.4264 30.3132 37.476 30.3044C37.6232 30.2782 37.7602 30.1339 37.7908 30.0684C37.7879 30.0086 37.7675 29.9037 37.6742 29.8498C37.6421 29.8308 37.6072 29.8235 37.5722 29.8235L37.5751 29.8206Z" fill="black"/>
<path d="M34.8916 37.6207C34.2999 37.6207 33.8 37.1325 33.1661 35.933C33.0582 35.729 33.0655 35.4856 33.1836 35.2874C33.3016 35.0907 33.5158 34.9697 33.7446 34.9697H35.4323C35.6101 34.9697 35.7791 35.0411 35.903 35.1694C36.0269 35.2976 36.0925 35.4696 36.0881 35.6459C36.0487 36.8993 35.613 37.6192 34.8901 37.6192L34.8916 37.6207Z" fill="#EF9178"/>
<path d="M35.432 35.6256C35.432 35.6256 35.3897 36.9634 34.8899 36.9634C34.6392 36.9634 34.2749 36.6297 33.7444 35.6256H35.432ZM35.432 34.314H33.7444C33.2839 34.314 32.8583 34.5544 32.6208 34.9494C32.3832 35.3429 32.3701 35.8325 32.5843 36.2391C33.1177 37.2462 33.807 38.2751 34.8884 38.2751C35.209 38.2751 36.2831 38.1527 36.6285 36.5743C36.7247 36.1342 36.7407 35.713 36.7422 35.6664C36.7539 35.3123 36.6198 34.9669 36.3735 34.7118C36.1257 34.4568 35.7862 34.3125 35.432 34.3125V34.314Z" fill="black"/>
<path d="M40.995 24.5163H42.9159C42.9159 24.5163 43.7393 20.6762 43.1898 17.4933C42.8867 15.7328 42.4102 14.4212 41.8403 14.9152C41.2705 15.4093 40.3961 17.3257 40.3917 18.8661C40.383 22.6524 40.995 24.5178 40.995 24.5178V24.5163Z" fill="#F4A28C"/>
<path d="M42.9154 25.4641H40.9945C40.585 25.4641 40.2221 25.2018 40.0939 24.8127C40.0677 24.7311 39.4352 22.7578 39.4424 18.8637C39.4468 17.0988 40.3999 14.907 41.2175 14.1987C41.5921 13.8751 42.057 13.779 42.4942 13.9349C43.4692 14.2832 43.8524 15.7741 44.1206 17.332C44.6933 20.6563 43.8743 24.5504 43.8393 24.715C43.7461 25.1522 43.3599 25.4641 42.9124 25.4641H42.9154ZM41.7378 23.5695H42.124C42.3207 22.3381 42.6283 19.8081 42.2566 17.6556C42.1619 17.1061 42.0657 16.6966 41.9797 16.3935C41.662 17.061 41.3399 18.0301 41.3385 18.8681C41.3326 21.1882 41.5702 22.7563 41.7378 23.5695Z" fill="black"/>
<path d="M25.3782 25.4505L27.6648 24.9565L27.8601 18.1637C27.879 17.5137 27.793 16.8622 27.5817 16.2604C27.3062 15.4777 26.8282 14.787 26.0937 15.8217C24.8069 17.6317 24.5926 22.1583 25.3796 25.4505H25.3782Z" fill="#F4A28C"/>
<path d="M25.3776 26.3976C24.9491 26.3976 24.5615 26.1047 24.4565 25.6704C23.6666 22.3651 23.773 17.4509 25.3208 15.2736C25.9299 14.4152 26.5595 14.3059 26.9807 14.3656C27.6351 14.4574 28.1379 14.9894 28.4745 15.9469C28.7179 16.6377 28.8286 17.394 28.8068 18.1912L28.6115 24.984C28.5984 25.4197 28.2909 25.7914 27.8639 25.8832L25.5773 26.3772C25.5102 26.3918 25.4432 26.3991 25.3761 26.3991L25.3776 26.3976ZM26.7053 16.626C25.8789 18.1271 25.6326 21.4834 26.115 24.3223L26.7388 24.1883L26.9122 18.1373C26.9282 17.5922 26.8583 17.0851 26.7053 16.6274V16.626Z" fill="black"/>
</svg>
