<svg width="75" height="75" viewBox="0 0 75 75" fill="none" xmlns="http://www.w3.org/2000/svg">
<path d="M34.2454 58.4731C34.1769 59.1887 34.5529 67.414 32.3013 67.414H27.954C27.954 67.414 26.7939 67.3455 26.7939 65.8109C26.7939 64.2763 29.4784 64.3783 29.4784 64.3783L28.9421 57.3203" fill="#B25900"/>
<path d="M32.3028 68.3609H27.9555C27.9366 68.3609 27.9191 68.3609 27.9001 68.3594C27.0753 68.3113 25.8496 67.5928 25.8496 65.8105C25.8496 65.2377 26.0668 64.7247 26.4792 64.3283C27.0243 63.8037 27.8171 63.5822 28.4641 63.4903L28.0007 57.3927C27.9613 56.871 28.3519 56.4163 28.8736 56.3769C29.3968 56.3361 29.8501 56.7282 29.8895 57.2499L30.4258 64.3079C30.4462 64.5775 30.3514 64.8428 30.1634 65.0366C29.9769 65.2304 29.716 65.3383 29.445 65.3266C28.9305 65.3106 28.0677 65.4286 27.7923 65.6953C27.7559 65.7318 27.7442 65.7507 27.7442 65.8119C27.7442 66.373 27.9584 66.4561 28.0036 66.4677H32.2824C32.3597 66.408 32.8318 65.9577 33.1 63.6215C33.2851 62.0082 33.288 60.1996 33.2895 59.2261C33.2895 58.7452 33.2909 58.528 33.3055 58.3837C33.3551 57.8635 33.817 57.4816 34.3388 57.5312C34.859 57.5807 35.2409 58.0427 35.1928 58.563C35.187 58.6402 35.187 58.9536 35.1855 59.2305C35.1782 63.9742 34.8241 68.3638 32.3057 68.3638L32.3028 68.3609Z" fill="black"/>
<path d="M38.2421 58.4716C38.1736 59.1872 38.5497 67.4126 36.298 67.4126H32.9228C32.9228 67.4126 31.7627 67.3441 31.7627 65.8095C31.7627 64.2749 34.4472 64.3769 34.4472 64.3769L33.9108 57.3188" fill="#B25900"/>
<path d="M36.2985 68.3604H32.9233C32.9043 68.3604 32.8869 68.3604 32.8679 68.3589C32.043 68.3108 30.8174 67.5923 30.8174 65.81C30.8174 65.2372 31.0345 64.7242 31.447 64.3278C31.992 63.8032 32.7848 63.5817 33.4319 63.4899L32.9685 57.3922C32.9291 56.8705 33.3197 56.4158 33.8414 56.3765C34.3646 56.3356 34.8178 56.7277 34.8572 57.2494L35.3935 64.3074C35.4139 64.577 35.3192 64.8423 35.1312 65.0361C34.9447 65.2299 34.6838 65.3378 34.4127 65.3261C33.8982 65.3101 33.0355 65.4281 32.7601 65.6948C32.7236 65.7313 32.712 65.7502 32.712 65.8114C32.712 66.3725 32.9262 66.4556 32.9714 66.4673H36.2796C36.3568 66.4075 36.829 65.9572 37.0972 63.621C37.2823 62.0092 37.2852 60.1991 37.2866 59.2271C37.2866 58.7461 37.2881 58.5275 37.3027 58.3847C37.3522 57.8644 37.8142 57.4826 38.3359 57.5321C38.8562 57.5817 39.238 58.0437 39.1885 58.564C39.1827 58.6412 39.1827 58.9545 39.1812 59.2314C39.1739 63.9752 38.8198 68.3633 36.3015 68.3633L36.2985 68.3604Z" fill="black"/>
<path d="M45.2462 49.5519C45.2462 49.5519 49.49 44.8315 55.2918 46.0833C61.0936 47.3352 61.6634 55.992 56.6501 59.6456C49.3662 64.9533 33.0014 63.0354 33.0014 63.0354C26.6051 62.948 23.1526 62.0473 21.7273 58.3442C19.4975 52.5555 20.7319 44.1261 21.0146 42.8626C21.0146 42.8626 13.0472 36.9136 14.0338 30.2476C15.0205 23.5816 16.8728 21.2353 18.6012 20.1248C18.6012 20.1248 18.231 13.5827 19.4654 12.9647C20.6998 12.3468 24.0328 17.656 24.0328 17.656C24.0328 17.656 30.5749 15.6813 33.7855 15.9276C36.9961 16.1738 37.6125 16.2977 37.6125 16.2977C37.6125 16.2977 40.3291 10.3721 41.4396 10.99C42.5501 11.6079 43.0441 16.6679 42.9203 17.2858C42.7964 17.9037 50.3791 23.4403 48.722 32.3462C47.5693 38.5386 44.1546 40.2466 44.1546 40.2466L44.6808 43.2109C45.0524 45.3037 45.2404 47.4256 45.2462 49.5504L45.2535 52.3879V52.9505" fill="#B25900"/>
<path d="M39.7845 64.3294C36.1688 64.3294 33.4114 64.035 32.9392 63.9811C26.5327 63.8893 22.4987 62.9871 20.8416 58.6835C18.7795 53.3292 19.5286 45.8412 19.9745 43.2486C18.1965 41.7912 12.1718 36.3421 13.0957 30.109C13.89 24.7473 15.3372 21.3998 17.6311 19.6495C17.6078 19.0184 17.5815 17.905 17.6223 16.7435C17.7243 13.9118 18.1353 12.571 19.0403 12.1193C20.3272 11.4766 21.7408 12.9587 22.9534 14.4933C23.5553 15.2541 24.0959 16.0352 24.4413 16.5526C26.2397 16.0469 31.1044 14.7731 33.8559 14.9844C35.4955 15.1112 36.4733 15.206 37.0461 15.2701C38.0007 13.275 39.5309 10.4928 40.8105 10.0731C41.185 9.95071 41.5712 9.98277 41.8962 10.1635C42.4179 10.4535 43.081 11.1487 43.5736 13.9774C43.7529 15.0078 43.8972 16.3398 43.8811 17.0845C44.005 17.2346 44.2119 17.4634 44.4014 17.6733C46.3907 19.871 51.047 25.0199 49.6508 32.5224C48.7137 37.5561 46.3324 39.8602 45.1942 40.7011L45.611 43.0489C45.8719 44.5194 46.0453 46.0103 46.1299 47.5056C47.9938 46.0963 51.356 44.2687 55.489 45.1592C58.1954 45.7436 60.1832 47.8422 60.8041 50.7759C61.5735 54.4105 60.1278 58.2842 57.2058 60.4134C52.7623 63.6517 45.2817 64.3323 39.7845 64.3323V64.3294ZM19.8711 13.9803C19.5519 14.8708 19.4018 17.5042 19.5475 20.0721C19.5664 20.4131 19.4018 20.7381 19.1147 20.9218C17.8147 21.7583 15.9697 23.6485 14.9714 30.3859C14.0795 36.4077 21.5062 42.0477 21.582 42.1031C21.8808 42.3261 22.0207 42.705 21.939 43.0679C21.6315 44.4407 20.5152 52.5597 22.6109 58.0015C23.752 60.9643 26.3767 61.9947 33.015 62.085C33.0471 62.085 33.0806 62.088 33.1127 62.0909C33.273 62.1098 49.1947 63.9024 56.0924 58.8759C58.7827 56.9158 59.4677 53.5886 58.9532 51.1621C58.4839 48.9483 57.0776 47.4341 55.0926 47.0057C50.6521 46.0482 47.1311 49.0387 46.1954 49.9364L46.2027 52.9459C46.2027 53.4691 45.7815 53.8946 45.2583 53.8961H45.2554C44.7337 53.8961 44.3096 53.4735 44.3081 52.9517L44.2994 49.5517C44.295 47.4866 44.1099 45.4084 43.7485 43.3754L43.2224 40.4111C43.1495 39.9987 43.3565 39.5862 43.731 39.3982C43.731 39.3982 44.4845 38.996 45.3545 37.9175C46.1648 36.9134 47.2462 35.1019 47.7912 32.1712C49.0154 25.5912 44.7993 20.9305 42.9994 18.9397C42.2343 18.0945 41.8801 17.7024 41.988 17.1166C42.0623 16.4127 41.6499 13.2298 41.1398 12.1091C40.5044 12.8057 39.3735 14.7294 38.4743 16.691C38.2907 17.0903 37.8579 17.3104 37.4279 17.2259C37.409 17.223 36.7386 17.1035 33.7146 16.8703C30.7197 16.64 24.3729 18.5419 24.3087 18.5608C23.9007 18.6847 23.4591 18.5186 23.2332 18.1571C22.0425 16.2611 20.588 14.4685 19.8739 13.9774L19.8711 13.9803ZM41.9909 17.1005C41.9909 17.1005 41.9909 17.1064 41.9895 17.1093C41.9895 17.1064 41.9895 17.1035 41.9909 17.1005Z" fill="black"/>
<path d="M28.1596 29.8675C27.8987 29.7159 27.5679 29.8019 27.3712 30.0293C27.2065 30.2187 27.0768 30.4927 27.307 30.7798C27.7559 31.338 28.4584 30.7201 28.4584 30.4213C28.4584 30.2275 28.3811 29.9943 28.1596 29.866V29.8675Z" fill="black"/>
<path d="M27.7428 31.3696C27.4688 31.3696 27.2138 31.2442 27.0243 31.0096C26.727 30.6409 26.7547 30.1847 27.0972 29.7912C27.4192 29.4211 27.9439 29.3205 28.3447 29.5522C28.6449 29.7271 28.8242 30.0521 28.8242 30.4223C28.8242 30.7662 28.4846 31.1655 28.0693 31.3113C27.96 31.3491 27.8506 31.3681 27.7442 31.3681L27.7428 31.3696ZM27.8754 30.1556C27.7894 30.1556 27.702 30.2051 27.6451 30.2692C27.4979 30.4383 27.5475 30.4995 27.5898 30.5534C27.667 30.6496 27.7268 30.6482 27.7763 30.6394C27.9235 30.6117 28.0605 30.4689 28.0911 30.4033C28.0882 30.3436 28.0678 30.2386 27.9745 30.1847C27.9424 30.1658 27.9075 30.1585 27.8725 30.1585L27.8754 30.1556Z" fill="black"/>
<path d="M33.4965 29.8675C33.2357 29.7159 32.9048 29.8019 32.7081 30.0293C32.5434 30.2187 32.4137 30.4927 32.644 30.7798C33.0928 31.338 33.7953 30.7201 33.7953 30.4213C33.7953 30.2275 33.7181 29.9943 33.4965 29.866V29.8675Z" fill="black"/>
<path d="M33.0787 31.3696C32.8047 31.3696 32.5497 31.2442 32.3602 31.0096C32.0629 30.6409 32.0906 30.1847 32.4331 29.7912C32.7552 29.4211 33.2798 29.3205 33.6806 29.5522C33.9808 29.7271 34.1601 30.0521 34.1601 30.4223C34.1601 30.7662 33.8205 31.1655 33.4052 31.3113C33.2959 31.3491 33.1866 31.3681 33.0802 31.3681L33.0787 31.3696ZM33.2128 30.1556C33.1268 30.1556 33.0394 30.2051 32.9825 30.2692C32.8353 30.4383 32.8849 30.4995 32.9271 30.5534C33.0044 30.6496 33.0641 30.6482 33.1137 30.6394C33.2609 30.6117 33.3979 30.4689 33.4285 30.4033C33.4255 30.3436 33.4052 30.2386 33.3119 30.1847C33.2798 30.1658 33.2448 30.1585 33.2099 30.1585L33.2128 30.1556Z" fill="black"/>
<path d="M30.5283 37.9542C29.9366 37.9542 29.4367 37.466 28.8028 36.2665C28.6949 36.0625 28.7022 35.8191 28.8203 35.6209C28.9383 35.4242 29.1526 35.3032 29.3814 35.3032H31.069C31.2468 35.3032 31.4158 35.3746 31.5397 35.5029C31.6636 35.6311 31.7292 35.8031 31.7248 35.9794C31.6854 37.2328 31.2497 37.9527 30.5268 37.9527L30.5283 37.9542Z" fill="#EF9178"/>
<path d="M31.0697 35.9601C31.0697 35.9601 31.0275 37.2979 30.5276 37.2979C30.2769 37.2979 29.9126 36.9642 29.3821 35.9601H31.0697ZM31.0697 34.6484H29.3821C28.9216 34.6484 28.496 34.8889 28.2585 35.2838C28.0209 35.6773 28.0078 36.167 28.222 36.5736C28.7554 37.5806 29.4448 38.6095 30.5261 38.6095C30.8467 38.6095 31.9208 38.4871 32.2662 36.9088C32.3624 36.4687 32.3784 36.0475 32.3799 36.0009C32.3915 35.6467 32.2575 35.3013 32.0112 35.0463C31.7634 34.7913 31.4239 34.647 31.0697 34.647V34.6484Z" fill="black"/>
<path d="M26.1982 22.1382C27.5186 22.2038 27.4283 19.1157 27.1805 16.8203C26.1618 17.0622 25.2816 17.2998 24.7132 17.4586C24.703 19.5062 24.9405 22.0741 26.1982 22.1368V22.1382Z" fill="#FFB531"/>
<path d="M26.2373 23.0878C26.2081 23.0878 26.179 23.0878 26.1498 23.0863C23.7364 22.9653 23.7583 18.8191 23.7656 17.4565C23.7685 17.0339 24.0498 16.6637 24.4564 16.55C25.0248 16.3912 25.921 16.1493 26.9616 15.9015C27.2268 15.8388 27.5052 15.8928 27.7267 16.0502C27.9482 16.2075 28.0925 16.4524 28.1216 16.722C28.5676 20.8493 27.9555 22.0283 27.4556 22.5573C27.1306 22.9027 26.6993 23.0892 26.2358 23.0892L26.2373 23.0878ZM25.6674 18.1823C25.7184 20.0594 26.0114 20.7997 26.1732 21.0679C26.2927 20.7429 26.4675 19.9165 26.3364 18.0074C26.0974 18.0686 25.8729 18.1269 25.6674 18.1823Z" fill="black"/>
<path d="M31.0705 22.1392C32.5643 22.2136 32.2539 18.2539 31.9508 15.9702C31.209 16.0387 30.4104 16.1597 29.6161 16.3054C29.5199 18.3632 29.5578 22.0635 31.0705 22.1392Z" fill="#FFB531"/>
<path d="M31.1105 23.0879C31.0814 23.0879 31.0522 23.0879 31.023 23.0865C29.229 22.9961 28.4596 20.7649 28.6694 16.2616C28.6898 15.8215 29.0119 15.4542 29.4447 15.3741C30.3367 15.2109 31.1513 15.0943 31.8625 15.0287C32.3682 14.9806 32.8229 15.3435 32.8885 15.8477C33.0823 17.3066 33.5938 21.1831 32.3434 22.5399C32.0155 22.8955 31.5798 23.0879 31.1076 23.0879H31.1105ZM30.5378 17.1084C30.4868 19.6106 30.8249 20.7226 31.0464 21.0797C31.2067 20.6483 31.3801 19.4737 31.1236 17.0209C30.9342 17.0471 30.7389 17.0763 30.5378 17.1084Z" fill="black"/>
<path d="M36.0098 22.139C37.4526 22.2104 37.2121 18.5189 36.9207 16.2075C36.5024 16.1609 35.8495 16.0953 34.8526 16.0122C34.7579 16.0224 34.6647 16.0341 34.5685 16.0457C34.4592 18.0336 34.4315 22.0588 36.0098 22.1375V22.139Z" fill="#FFB531"/>
<path d="M36.0489 23.0873C36.0198 23.0873 35.9907 23.0873 35.9615 23.0859C35.4602 23.0611 35.0069 22.8381 34.6499 22.4417C33.7842 21.4799 33.4373 19.3113 33.621 15.9958C33.6457 15.5396 33.994 15.1666 34.4473 15.1083C34.5464 15.0951 34.6455 15.0835 34.7431 15.0733C34.8043 15.066 34.867 15.066 34.9282 15.0704C35.7837 15.1418 36.4876 15.2074 37.0239 15.2671C37.4597 15.3152 37.8036 15.6562 37.859 16.0905C38.4376 20.69 37.8051 21.9768 37.279 22.5437C36.9511 22.8964 36.5168 23.0873 36.0475 23.0873H36.0489ZM35.4777 17.0189C35.415 19.5707 35.756 20.7089 35.9819 21.0762C36.1189 20.7089 36.339 19.6771 36.0679 17.0742C35.8843 17.0568 35.6875 17.0378 35.4777 17.0203V17.0189Z" fill="black"/>
<path d="M44.732 43.5151C42.817 43.5559 39.3426 43.8591 39.2858 44.9958C39.229 46.1486 42.9482 46.2273 45.0715 46.0626C44.9885 45.2101 44.8748 44.3604 44.732 43.5151Z" fill="#FFB531"/>
<path d="M43.2897 47.0785C41.6808 47.0785 39.6361 46.9036 38.8054 46.0962C38.4833 45.7814 38.3172 45.3748 38.3376 44.9478C38.4119 43.4584 40.4537 43.0488 41.1241 42.9148C42.4955 42.6408 44.0884 42.581 44.7092 42.5664C45.1785 42.5621 45.5851 42.8929 45.6638 43.3563C45.8095 44.2191 45.9261 45.0979 46.0121 45.9694C46.0369 46.223 45.9582 46.4751 45.7949 46.6704C45.6317 46.8657 45.3956 46.9866 45.142 47.0056C44.7573 47.0347 44.0753 47.077 43.2897 47.077V47.0785ZM40.7321 44.9609C41.4462 45.1183 42.6602 45.2101 44.017 45.1693C43.9878 44.9434 43.9572 44.7161 43.9251 44.4916C42.4299 44.5703 41.3514 44.7642 40.7321 44.9609Z" fill="black"/>
<path d="M45.2453 49.5519C45.2453 49.1628 45.2351 48.7737 45.222 48.3845C43.1948 48.3845 39.2832 48.2053 39.2832 49.8696C39.2832 51.0559 43.0796 51.104 45.2482 50.9233L45.2453 49.5519Z" fill="#FFB531"/>
<path d="M43.2749 51.9538C41.6675 51.9538 39.6957 51.7789 38.8519 51.0036C38.4248 50.6116 38.3359 50.17 38.3359 49.8698C38.3359 49.3553 38.5327 48.889 38.9043 48.5203C39.9463 47.4855 42.1426 47.4156 44.6915 47.4345C44.878 47.4345 45.0558 47.4374 45.222 47.4374C45.7321 47.4374 46.1503 47.8426 46.1678 48.3527C46.1824 48.7986 46.1911 49.1906 46.1911 49.5492L46.194 50.9205C46.194 51.4146 45.818 51.8256 45.3255 51.8664C44.9072 51.9013 44.1435 51.9524 43.2735 51.9524L43.2749 51.9538ZM40.4141 49.7503C41.0568 49.9733 42.5433 50.1132 44.2995 50.0345V49.5535C44.2995 49.4792 44.2995 49.4034 44.298 49.3262C43.479 49.3218 42.5361 49.3306 41.7243 49.4282C40.9971 49.5156 40.6123 49.6512 40.4156 49.7503H40.4141Z" fill="black"/>
<path d="M45.2539 52.952C45.2539 52.952 50.738 46.7451 55.0722 49.1119C59.4064 51.4786 57.3194 56.9977 53.7576 57.9304C51.4302 58.5396 47.3919 57.3197 48.8726 53.8148C50.4888 49.9907 54.9891 51.9596 54.2517 54.1441C53.7431 55.6525 52.4256 55.4193 51.713 55.2969" fill="#B25900"/>
<path d="M52.4987 59.029C51.0224 59.029 49.3916 58.5422 48.4166 57.4171C47.8905 56.8094 47.1371 55.4861 47.9984 53.4473C49.1118 50.8124 51.4567 50.311 53.1648 50.9581C54.7883 51.5746 55.6218 53.0421 55.1467 54.447C54.3802 56.7191 52.2539 56.3518 51.5558 56.2308C51.0399 56.1419 50.6916 55.6508 50.7805 55.1349C50.8694 54.619 51.3561 54.2736 51.8721 54.3625C52.8631 54.5345 53.1531 54.431 53.3528 53.8408C53.5058 53.389 53.0234 52.9299 52.4929 52.7288C52.1854 52.6122 50.61 52.1342 49.7443 54.1832C49.2124 55.4395 49.6918 55.9933 49.8492 56.1755C50.6085 57.0513 52.3574 57.3166 53.516 57.0134C55.0316 56.617 56.3272 55.0649 56.5312 53.4035C56.6347 52.5583 56.524 50.9829 54.6163 49.9423C53.156 49.1451 51.2964 49.473 49.0856 50.9144C47.2945 52.0832 45.9741 53.5624 45.961 53.577C45.6141 53.9675 45.0152 54.0054 44.6246 53.6586C44.2325 53.3117 44.1961 52.7142 44.5415 52.3222C44.7863 52.0453 50.5823 45.579 55.5228 48.278C57.633 49.4308 58.6852 51.3822 58.4098 53.6324C58.1125 56.0603 56.2558 58.2522 53.994 58.8439C53.5393 58.9634 53.0277 59.0261 52.4973 59.0261L52.4987 59.029Z" fill="black"/>
<path d="M44.7313 43.5152C42.8163 43.556 39.2852 43.1931 39.2852 44.9959C39.2852 46.1501 42.9475 46.2274 45.0709 46.0627L44.7313 43.5152Z" fill="#FFB531"/>
<path d="M43.3055 47.0768C41.7185 47.0768 39.6986 46.9063 38.846 46.1178C38.4248 45.7273 38.3359 45.2915 38.3359 44.9942C38.3359 44.4302 38.5429 43.9259 38.9349 43.5383C39.9551 42.5283 41.9764 42.5487 43.7602 42.5662C44.1042 42.5691 44.4306 42.5735 44.7105 42.5662C45.1914 42.5531 45.6052 42.9102 45.6694 43.3882L46.009 45.9357C46.0439 46.1936 45.9696 46.4545 45.8064 46.657C45.6432 46.8596 45.4027 46.985 45.1433 47.0054C44.7629 47.0345 44.0867 47.0753 43.307 47.0753L43.3055 47.0768ZM40.3252 44.8368C40.8805 45.0656 42.297 45.223 43.9949 45.172L43.9001 44.4637C43.8477 44.4637 43.7952 44.4637 43.7413 44.4623C42.727 44.4521 40.8703 44.4331 40.3252 44.8383V44.8368Z" fill="black"/>
</svg>
