<svg width="99" height="45" viewBox="0 0 99 45" fill="none" xmlns="http://www.w3.org/2000/svg">
<path d="M16.2242 36.7705C16.1735 37.3008 16.4522 43.3975 14.7833 43.3975H11.561C11.561 43.3975 10.7012 43.3467 10.7012 42.2093C10.7012 41.0718 12.6909 41.1474 12.6909 41.1474L12.2934 35.916" fill="#A3C8D2"/>
<path d="M14.7831 44.0992H11.5609C11.5469 44.0992 11.5339 44.0992 11.5199 44.0982C10.9085 44.0625 10 43.53 10 42.2089C10 41.7844 10.161 41.4041 10.4656 41.1103C10.8696 40.7214 11.4572 40.5573 11.9368 40.4892L11.5933 35.9696C11.5641 35.5829 11.8536 35.2459 12.2403 35.2167C12.6271 35.1886 12.9641 35.4771 12.9933 35.8638L13.3908 41.0952C13.4059 41.295 13.3357 41.4916 13.1963 41.6353C13.0581 41.779 12.8636 41.8567 12.6638 41.8503C12.2825 41.8384 11.643 41.9259 11.4378 42.1235C11.4108 42.1506 11.4021 42.1646 11.4021 42.21C11.4021 42.4098 11.4388 42.6528 11.6106 42.6961H14.7659C14.8231 42.6518 15.1731 42.318 15.3719 40.5864C15.509 39.3917 15.5112 38.0501 15.5123 37.3296C15.5123 36.9731 15.5134 36.8111 15.5242 36.7053C15.5609 36.3196 15.9033 36.0366 16.29 36.0733C16.6757 36.1101 16.9587 36.4525 16.9219 36.8381C16.9176 36.8954 16.9176 37.1276 16.9165 37.3328C16.9111 40.8489 16.6487 44.1014 14.7821 44.1014L14.7831 44.0992Z" fill="black"/>
<path d="M19.1864 36.7705C19.1356 37.3008 19.4143 43.3975 17.7454 43.3975H15.2436C15.2436 43.3975 14.3838 43.3467 14.3838 42.2093C14.3838 41.0718 16.3735 41.1474 16.3735 41.1474L15.976 35.916" fill="#A3C8D2"/>
<path d="M17.7453 44.0992H15.2435C15.2295 44.0992 15.2165 44.0992 15.2025 44.0982C14.5911 44.0625 13.6826 43.53 13.6826 42.2089C13.6826 41.7844 13.8436 41.4041 14.1482 41.1103C14.5522 40.7214 15.1398 40.5573 15.6194 40.4892L15.2759 35.9696C15.2468 35.5829 15.5362 35.2459 15.923 35.2167C16.3086 35.1886 16.6467 35.4771 16.6759 35.8638L17.0734 41.0952C17.0885 41.295 17.0183 41.4916 16.8789 41.6353C16.7407 41.779 16.5462 41.8567 16.3464 41.8503C15.964 41.8384 15.3256 41.9259 15.1204 42.1235C15.0934 42.1506 15.0847 42.1646 15.0847 42.21C15.0847 42.4098 15.1214 42.6528 15.2932 42.6961H17.728C17.7852 42.6518 18.1352 42.318 18.334 40.5864C18.4711 39.3906 18.4733 38.0501 18.4744 37.3285C18.4744 36.9721 18.4755 36.8111 18.4863 36.7042C18.523 36.3185 18.8654 36.0355 19.2521 36.0723C19.6378 36.109 19.9208 36.4514 19.8851 36.837C19.8808 36.8943 19.8808 37.1265 19.8797 37.3318C19.8743 40.8478 19.6118 44.1014 17.7453 44.1014V44.0992Z" fill="black"/>
<path d="M5.78176 10.7923C5.64565 10.7923 5.50738 10.7524 5.3864 10.6703C5.37668 10.6638 4.58705 10.1237 3.79958 9.58142C3.44204 9.96381 2.9527 10.357 2.35967 10.357C2.02265 10.357 1.70723 10.2274 1.44582 9.9811C0.79554 9.3697 1.02454 8.4807 1.37021 7.79585C1.21682 7.64462 1.06667 7.47071 0.950009 7.27735C0.608665 6.71349 0.621627 6.09345 0.986736 5.57711C1.26543 5.18392 1.69319 4.9668 2.19224 4.9668C3.17307 4.9668 4.23058 5.80936 4.47039 6.01243L7.21626 8.11235C7.51656 8.34135 7.58137 8.76695 7.36317 9.07589L6.35642 10.4974C6.21924 10.6908 6.0032 10.7945 5.78284 10.7945L5.78176 10.7923Z" fill="#EF9178"/>
<path d="M2.19123 5.66794C2.98625 5.66794 4.02865 6.55802 4.02865 6.55802L6.78857 8.66874L5.78182 10.0903C5.78182 10.0903 4.59792 9.28121 3.67326 8.64065C3.43778 8.93339 2.89552 9.65388 2.35866 9.65388C2.21175 9.65388 2.06484 9.59987 1.9255 9.46809C1.46317 9.03277 1.92982 8.15348 2.27008 7.64147C1.75914 7.25367 1.09374 6.63796 1.55823 5.98119C1.71918 5.75435 1.94278 5.66794 2.19014 5.66794M2.19123 4.26367C1.45777 4.26367 0.825849 4.58557 0.412131 5.17104C-0.113927 5.9153 -0.137692 6.8378 0.348399 7.64039C0.40781 7.73868 0.473703 7.83266 0.541756 7.92124C0.508269 8.00982 0.478024 8.09623 0.452099 8.18265C0.0664664 9.47025 0.681102 10.2275 0.964115 10.4932C1.35839 10.8637 1.84124 11.0603 2.35974 11.0603C2.96249 11.0603 3.46586 10.8 3.86554 10.4802C4.47369 10.8983 4.98247 11.2461 4.99111 11.2515C5.23308 11.4168 5.50961 11.4967 5.7829 11.4967C6.22362 11.4967 6.65678 11.2904 6.93007 10.9037L7.93682 9.48213C8.37322 8.86534 8.2436 8.01414 7.64409 7.55505L4.91226 5.46486C4.53743 5.15052 3.37729 4.26475 2.19447 4.26475L2.19123 4.26367Z" fill="black"/>
<path d="M18.2251 8.00313C18.1949 8.00313 18.1646 8.00097 18.1344 7.99773L16.4071 7.77413C16.0323 7.72552 15.7633 7.38958 15.7979 7.01367L16.1155 3.57214C16.1706 2.24349 16.6858 0.703125 17.9616 0.703125C18.0264 0.703125 18.0923 0.707446 18.1571 0.716087C18.7836 0.798183 19.2492 1.20758 19.4317 1.84166C19.4944 2.05878 19.5214 2.2867 19.5279 2.50274C20.2656 2.71338 21.0747 3.14762 21.0833 4.03987C21.0877 4.41686 20.957 4.74848 20.7085 5.00017C20.3834 5.32963 19.8876 5.49274 19.1941 5.49923C19.059 6.44656 18.9208 7.39282 18.9186 7.4047C18.8678 7.75361 18.5686 8.0053 18.2251 8.0053V8.00313Z" fill="#EF9178"/>
<path d="M17.9603 1.40426C17.9938 1.40426 18.0294 1.40642 18.0651 1.41074C18.8634 1.51444 18.8644 2.42181 18.804 3.06021C19.4121 3.15743 20.3746 3.4102 20.381 4.04536C20.3875 4.68376 19.7113 4.79502 19.1507 4.79502C18.9282 4.79502 18.7229 4.77774 18.5868 4.76801C18.4313 5.88062 18.2228 7.30109 18.2228 7.30109L16.4956 7.07749L16.8142 3.6176C16.8142 3.6176 16.8996 1.40426 17.9592 1.40426M17.9603 0C17.4397 0 16.1726 0.208479 15.6368 2.13556C15.4661 2.75128 15.4229 3.34539 15.4132 3.52038L15.0978 6.95002C15.0286 7.70185 15.5666 8.37481 16.3162 8.47095L18.0435 8.69455C18.1051 8.70211 18.1656 8.70643 18.226 8.70643C18.9131 8.70643 19.5115 8.20306 19.6141 7.50525C19.6152 7.49553 19.7048 6.88521 19.8096 6.15392C20.3973 6.06534 20.8574 5.84606 21.2074 5.49283C21.5855 5.11044 21.7918 4.59086 21.7853 4.03132C21.781 3.64352 21.6416 2.67782 20.434 2.08911C20.354 2.05022 20.2698 2.01242 20.1812 1.97785C20.1628 1.86767 20.138 1.75641 20.1056 1.64515C19.8453 0.74426 19.1496 0.136106 18.2466 0.0183634C18.1515 0.00540101 18.0543 0 17.9603 0Z" fill="black"/>
<path d="M35.7315 40.7349C35.7315 40.7349 36.371 39.7648 36.3861 38.4502C36.3969 37.545 35.6127 36.2607 34.5562 35.6439C32.0426 34.178 29.812 35.969 29.812 35.969C29.812 35.969 31.6613 34.9277 32.1366 33.2037C32.3732 32.3449 31.9789 31.1308 31.4226 30.1586C30.1847 27.9982 26.5703 28.6863 26.5703 28.6863C26.5703 28.6863 28.8463 28.5404 29.9405 27.2258C30.4385 26.6274 30.3629 25.3096 30.2538 24.2024C29.9049 20.6593 25.7094 21.6941 25.7094 21.6941C25.7094 21.6941 29.7223 21.0039 29.2546 17.5472C29.1045 16.4379 28.6011 15.8221 28.1398 15.3274C26.7161 13.7957 25.3659 14.7571 25.3659 14.7571C25.3659 14.7571 28.7858 13.2783 27.1396 10.1457C26.5303 8.98662 25.9535 8.55994 24.8582 8.37954C23.4226 8.14406 22.041 8.93909 22.041 8.93909L23.8795 24.1203L27.3567 34.8791L33.3043 39.4537L35.7293 40.7316L35.7315 40.7349Z" fill="#33758E"/>
<path d="M35.9679 41.6525L32.9261 40.0495L26.7581 35.3052L23.1934 24.2742L22.2947 16.8521L19.5488 18.0392L22.2094 16.1446L21.2912 8.56371L21.6941 8.33147C21.7589 8.29366 23.3123 7.41329 24.9758 7.68767C26.3066 7.90587 27.0627 8.48378 27.7649 9.81891C28.3309 10.8948 28.4443 11.9296 28.103 12.8953C27.955 13.3134 27.7346 13.6763 27.484 13.9863C27.8707 14.1559 28.2693 14.4303 28.6571 14.8483C29.2307 15.4651 29.7848 16.2083 29.9533 17.4527C30.1521 18.9185 29.6898 20.1608 28.6117 21.0843C28.9455 21.1924 29.2728 21.3447 29.5731 21.5575C30.3779 22.1267 30.8423 22.9931 30.9547 24.1338C31.0811 25.4203 31.1599 26.8613 30.4816 27.6747C30.3217 27.8659 30.1435 28.0365 29.9533 28.1878C30.7678 28.4589 31.5402 28.9493 32.0327 29.8102C32.3914 30.4367 33.1864 32.0408 32.8148 33.39C32.7187 33.7389 32.5761 34.063 32.4076 34.3589C33.168 34.3449 34.0225 34.5177 34.9115 35.0362C36.1472 35.7567 37.1043 37.2604 37.0902 38.4572C37.0719 39.9598 36.3503 41.0724 36.319 41.1189L35.969 41.6503L35.9679 41.6525ZM33.6865 38.8634L35.4192 39.7762C35.5499 39.4359 35.6784 38.9693 35.6849 38.441C35.6925 37.8188 35.0605 36.7505 34.2029 36.2504C32.6711 35.3571 31.255 35.922 30.6133 36.2828C30.5604 36.3206 30.5118 36.3552 30.4664 36.3854L33.6865 38.8623V38.8634ZM27.9593 34.4583L29.5461 35.679L29.3722 35.4219C29.3981 35.4013 29.5634 35.2717 29.8399 35.1086C30.3379 34.7446 31.188 34.0003 31.4591 33.0173C31.6158 32.4513 31.3619 31.4662 30.8132 30.508C30.0765 29.2226 28.1138 29.2323 27.1913 29.3144C26.8629 29.3695 26.6447 29.3846 26.6144 29.3868L26.4384 27.9966C26.4751 27.9901 26.69 27.9501 27.0195 27.9188C27.6676 27.8043 28.7921 27.5072 29.4014 26.7759C29.639 26.4897 29.6919 25.6471 29.5558 24.2709C29.4845 23.544 29.2242 23.0309 28.7608 22.7036C27.8588 22.0652 26.4168 22.2726 25.9966 22.3514C25.8983 22.3741 25.8388 22.3838 25.8291 22.386L25.5418 21.012C25.558 21.0076 25.6293 20.9904 25.746 20.9688C26.4081 20.8132 28.8872 20.0646 28.5588 17.6407C28.4367 16.7408 28.0479 16.2591 27.6255 15.8043C26.9309 15.0568 26.3195 15.1076 25.9922 15.2232C25.7967 15.3333 25.6639 15.3917 25.6444 15.4003L23.6363 16.2688L24.5685 23.9696L27.9571 34.4572L27.9593 34.4583ZM22.8013 9.3609L23.511 15.2178L24.9606 14.1851C25.0741 14.1041 25.2177 14.0241 25.3852 13.955C25.7935 13.713 26.5107 13.1956 26.7797 12.4222C26.9849 11.8335 26.8996 11.1962 26.5205 10.4735C25.9717 9.42895 25.5483 9.20535 24.7468 9.07357C24.0025 8.9515 23.2496 9.17943 22.8013 9.35982V9.3609Z" fill="black"/>
<path d="M36.8566 41.8056C37.5328 41.7678 36.2215 41.3573 30.4694 36.6736C26.0881 33.1057 25.6819 24.2512 25.7738 19.8732C25.8245 17.4503 25.8418 16.1378 24.9884 13.8694C23.8089 10.7379 21.8429 6.9788 14.3042 6.70551C11.4222 6.60073 5.7468 8.40899 4.39222 10.6569C3.30122 12.4662 3.50646 14.1492 3.70089 15.1721C3.77759 15.574 3.70089 15.9909 3.47837 16.3323C2.84861 17.2947 2.1724 18.5985 2.46298 20.3636C2.5818 21.0873 2.86157 22.4819 3.32498 23.3223C3.8478 24.2696 4.58882 24.6542 5.29527 25.258C5.35036 25.3055 5.37521 25.3801 5.359 25.4503C5.14944 26.3868 4.23451 32.6347 5.88722 36.9253C6.94474 39.6701 9.50266 40.3365 14.2437 40.4024C19.784 40.4791 22.2869 38.5661 23.3249 37.3206C23.7743 36.7816 24.5574 36.6649 25.1516 37.0387C26.2782 37.7473 27.9493 39.4443 29.9196 40.4046C32.2777 41.5528 35.0008 41.9082 36.8556 41.8056H36.8566Z" fill="#A3C8D2"/>
<path d="M36.2431 42.5242C34.4089 42.5242 31.8769 42.1386 29.6128 41.0357C28.2798 40.3865 27.0873 39.4262 26.128 38.6549C25.602 38.2315 25.1483 37.8664 24.7778 37.633C24.4786 37.4451 24.0865 37.5034 23.8639 37.7702C21.3762 40.7527 16.7638 41.1405 14.2328 41.1048C9.46375 41.0389 6.46186 40.3757 5.23043 37.1783C3.66522 33.1156 4.28526 27.3938 4.6104 25.6061C4.51858 25.5337 4.4246 25.4613 4.32846 25.3879C3.78512 24.9709 3.17049 24.4989 2.70816 23.6617C2.19074 22.7241 1.89693 21.2647 1.7673 20.4773C1.44 18.4832 2.19398 17.0087 2.88855 15.948C3.00954 15.7622 3.05274 15.5332 3.00954 15.3031C2.77945 14.09 2.60986 12.2515 3.78944 10.2942C5.31037 7.77084 11.258 5.89345 14.329 6.00363C17.8807 6.13218 20.5499 7.0093 22.4888 8.68362C24.1804 10.1451 25.0338 11.9998 25.6441 13.6212C26.5558 16.042 26.5255 17.4883 26.4748 19.8864C26.3959 23.6196 26.6714 32.6749 30.9112 36.1283C33.7964 38.4778 35.5593 39.747 36.5077 40.4297C36.8609 40.6835 37.0932 40.851 37.2563 40.9817C37.4302 41.121 37.8385 41.4472 37.6905 41.9528C37.6344 42.1461 37.455 42.4756 36.8944 42.5058C36.6892 42.5177 36.471 42.5231 36.242 42.5231L36.2431 42.5242ZM24.4008 36.1208C24.7875 36.1208 25.1785 36.2266 25.5264 36.4448C25.966 36.7214 26.4499 37.1113 27.0095 37.5618C27.9601 38.3265 29.0381 39.195 30.2285 39.774C31.8034 40.541 33.5209 40.9244 34.9846 41.0605C33.9422 40.3001 32.3403 39.1021 30.0265 37.2172C27.9838 35.5537 26.5472 32.6922 25.7554 28.7127C25.1051 25.444 25.0251 22.0922 25.0716 19.8572C25.1213 17.4775 25.1472 16.2828 24.3306 14.116C23.1586 11.0039 21.3179 7.66174 14.2782 7.40682C11.4049 7.30312 6.11728 9.1535 4.99279 11.019C4.07138 12.5475 4.18696 13.9712 4.39004 15.0417C4.50238 15.6304 4.38679 16.2256 4.06489 16.7171C3.47618 17.618 2.90692 18.7425 3.15428 20.2504C3.34656 21.4203 3.63929 22.4422 3.93851 22.9833C4.25825 23.5634 4.68709 23.8929 5.18398 24.2731C5.36762 24.4135 5.55773 24.5594 5.75001 24.7246C6.00386 24.9417 6.1162 25.2788 6.04275 25.6039C5.8159 26.6215 4.98739 32.6393 6.54072 36.6727C7.38652 38.8688 9.33196 39.6325 14.2523 39.6995C19.5626 39.7729 21.8774 37.9582 22.7848 36.8693C23.1942 36.3789 23.7926 36.1186 24.3997 36.1186L24.4008 36.1208Z" fill="black"/>
<path d="M12.597 35.2511C7.29215 34.3027 6.95297 36.1855 7.20898 38.6408C8.62837 39.8463 10.8201 40.3551 14.2443 40.4015C15.4077 40.4177 16.4361 40.3453 17.3456 40.2114C17.6059 38.6591 18.1233 38.617 16.8876 37.081C16.1455 36.1596 14.4442 35.5816 12.597 35.2511Z" fill="white"/>
<path d="M14.5588 41.1067C14.4508 41.1067 14.3428 41.1067 14.2337 41.1046C10.5221 41.0538 8.28498 40.477 6.75434 39.1764L6.53938 38.9939L6.51021 38.7141C6.37194 37.3941 6.37627 36.0503 7.33224 35.1613C8.29471 34.2658 10.0079 34.0757 12.7192 34.5607C15.0751 34.982 16.6609 35.682 17.4332 36.6412C18.5015 37.9688 18.4983 38.4829 18.2228 39.5102C18.1624 39.7381 18.0921 39.9963 18.0371 40.3279L17.9528 40.8313L17.4473 40.9058C16.5485 41.0387 15.5785 41.1057 14.5577 41.1057L14.5588 41.1067ZM7.88099 38.2788C9.1405 39.2175 11.127 39.6571 14.2542 39.7003C15.1335 39.7122 15.9739 39.6722 16.757 39.5815C16.7948 39.4173 16.8337 39.2747 16.8683 39.1473C17.0411 38.5024 17.0638 38.4192 16.3411 37.5216C15.8032 36.8529 14.4303 36.2923 12.474 35.9423C10.2931 35.5523 8.88558 35.6355 8.2893 36.1897C7.91231 36.5397 7.78917 37.1543 7.88099 38.2788Z" fill="black"/>
<path d="M10.5171 15.8181C10.3238 15.7057 10.0786 15.7694 9.93273 15.938C9.81067 16.0784 9.71453 16.2815 9.8852 16.4943C10.2179 16.908 10.7386 16.45 10.7386 16.2285C10.7386 16.0849 10.6813 15.912 10.5171 15.817V15.8181Z" fill="black"/>
<path d="M10.2079 16.9314C10.0048 16.9314 9.81578 16.8385 9.67536 16.6646C9.455 16.3913 9.47552 16.0532 9.72937 15.7615C9.96809 15.4861 10.357 15.4126 10.654 15.5844C10.8765 15.714 11.0094 15.9549 11.0094 16.2292C11.0094 16.4842 10.7577 16.7801 10.4499 16.8882C10.3688 16.9163 10.2878 16.9303 10.209 16.9303L10.2079 16.9314ZM10.3062 16.0316C10.2425 16.0316 10.1766 16.0683 10.1355 16.1158C10.0264 16.2411 10.0632 16.2865 10.0945 16.3265C10.1517 16.3978 10.196 16.3967 10.2327 16.3902C10.3418 16.3697 10.4434 16.2638 10.4661 16.2152C10.4639 16.1709 10.4488 16.0931 10.3797 16.0532C10.3559 16.0391 10.33 16.0337 10.304 16.0337L10.3062 16.0316Z" fill="black"/>
<path d="M14.4722 15.8171C14.2788 15.7047 14.0336 15.7685 13.8878 15.937C13.7657 16.0774 13.6696 16.2805 13.8403 16.4933C14.173 16.907 14.6936 16.449 14.6936 16.2276C14.6936 16.0839 14.6364 15.9111 14.4722 15.816V15.8171Z" fill="black"/>
<path d="M14.162 16.9311C13.9589 16.9311 13.7699 16.8382 13.6295 16.6643C13.4091 16.391 13.4296 16.0529 13.6835 15.7612C13.9222 15.4869 14.3111 15.4123 14.6081 15.5841C14.8306 15.7137 14.9635 15.9546 14.9635 16.229C14.9635 16.4839 14.7118 16.7799 14.404 16.8879C14.323 16.916 14.2419 16.93 14.1631 16.93L14.162 16.9311ZM14.2614 16.0313C14.1976 16.0313 14.1328 16.068 14.0907 16.1156C13.9816 16.2409 14.0183 16.2862 14.0497 16.3262C14.1069 16.3975 14.1512 16.3964 14.1879 16.3899C14.297 16.3694 14.3986 16.2635 14.4212 16.2149C14.4191 16.1706 14.404 16.0929 14.3348 16.0529C14.3111 16.0389 14.2851 16.0335 14.2592 16.0335L14.2614 16.0313Z" fill="black"/>
<path d="M12.272 21.8116C11.8334 21.8116 11.4629 21.4497 10.993 20.5607C10.9131 20.4095 10.9185 20.2291 11.006 20.0822C11.0935 19.9363 11.2523 19.8467 11.4219 19.8467H12.6727C12.8045 19.8467 12.9298 19.8996 13.0216 19.9947C13.1135 20.0897 13.1621 20.2172 13.1588 20.3479C13.1297 21.2769 12.8067 21.8105 12.2709 21.8105L12.272 21.8116Z" fill="#EF9178"/>
<path d="M12.6724 20.3336C12.6724 20.3336 12.6411 21.3252 12.2705 21.3252C12.0848 21.3252 11.8147 21.0779 11.4215 20.3336H12.6724ZM12.6724 19.3614H11.4215C11.0802 19.3614 10.7647 19.5397 10.5887 19.8324C10.4126 20.1241 10.4029 20.487 10.5617 20.7884C10.957 21.5348 11.468 22.2974 12.2695 22.2974C12.5071 22.2974 13.3032 22.2067 13.5592 21.0368C13.6305 20.7106 13.6424 20.3984 13.6435 20.3639C13.6521 20.1014 13.5527 19.8454 13.3702 19.6563C13.1866 19.4673 12.9349 19.3604 12.6724 19.3604V19.3614Z" fill="black"/>
<path d="M53.7516 36.7705C53.7008 37.3008 53.9795 43.3975 52.3106 43.3975H49.0884C49.0884 43.3975 48.2285 43.3467 48.2285 42.2093C48.2285 41.0718 50.2183 41.1474 50.2183 41.1474L49.8207 35.916" fill="white"/>
<path d="M52.3105 44.0992H49.0882C49.0742 44.0992 49.0612 44.0992 49.0472 44.0982C48.4358 44.0625 47.5273 43.53 47.5273 42.2089C47.5273 41.7844 47.6883 41.4041 47.9929 41.1103C48.3969 40.7214 48.9845 40.5573 49.4642 40.4892L49.1206 35.9696C49.0915 35.5829 49.381 35.2459 49.7677 35.2167C50.1544 35.1886 50.4914 35.4771 50.5206 35.8638L50.9181 41.0952C50.9332 41.295 50.863 41.4916 50.7237 41.6353C50.5854 41.779 50.391 41.8567 50.1911 41.8503C49.8098 41.8384 49.1703 41.9259 48.9651 42.1235C48.9381 42.1506 48.9295 42.1646 48.9295 42.21C48.9295 42.4098 48.9662 42.6528 49.1379 42.6961H52.2932C52.3504 42.6518 52.7004 42.318 52.8992 40.5864C53.0364 39.3917 53.0385 38.0501 53.0396 37.3296C53.0396 36.9731 53.0407 36.8111 53.0515 36.7053C53.0882 36.3196 53.4307 36.0366 53.8174 36.0733C54.203 36.1101 54.486 36.4525 54.4493 36.8381C54.445 36.8954 54.445 37.1276 54.4439 37.3328C54.4385 40.8489 54.176 44.1014 52.3094 44.1014L52.3105 44.0992Z" fill="black"/>
<path d="M56.7137 36.7705C56.6629 37.3008 56.9416 43.3975 55.2727 43.3975H52.771C52.771 43.3975 51.9111 43.3467 51.9111 42.2093C51.9111 41.0718 53.9009 41.1474 53.9009 41.1474L53.5034 35.916" fill="white"/>
<path d="M55.2726 44.0992H52.7708C52.7568 44.0992 52.7438 44.0992 52.7298 44.0982C52.1184 44.0625 51.21 43.53 51.21 42.2089C51.21 41.7844 51.3709 41.4041 51.6755 41.1103C52.0795 40.7214 52.6671 40.5573 53.1468 40.4892L52.8033 35.9696C52.7741 35.5829 53.0636 35.2459 53.4503 35.2167C53.8359 35.1886 54.174 35.4771 54.2032 35.8638L54.6007 41.0952C54.6158 41.295 54.5456 41.4916 54.4063 41.6353C54.268 41.779 54.0736 41.8567 53.8737 41.8503C53.4913 41.8384 52.8529 41.9259 52.6477 42.1235C52.6207 42.1506 52.6121 42.1646 52.6121 42.21C52.6121 42.4098 52.6488 42.6528 52.8205 42.6961H55.2553C55.3126 42.6518 55.6625 42.318 55.8613 40.5864C55.9985 39.3906 56.0007 38.0501 56.0017 37.3285C56.0017 36.9721 56.0028 36.8111 56.0136 36.7042C56.0503 36.3185 56.3928 36.0355 56.7795 36.0723C57.1651 36.109 57.4481 36.4514 57.4125 36.837C57.4082 36.8943 57.4082 37.1265 57.4071 37.3318C57.4017 40.8478 57.1392 44.1014 55.2726 44.1014V44.0992Z" fill="black"/>
<path d="M62.5112 34.9126C62.5112 34.9126 62.6808 35.552 63.209 35.8642C63.7372 36.1764 64.098 35.3533 64.098 35.3533C64.098 35.3533 64.4599 36.0446 65.1091 36.0446C65.7583 36.0446 65.62 34.6058 65.62 34.6058C65.62 34.6058 66.1331 34.3001 66.3956 33.6595C66.6581 33.0201 65.9171 32.8105 65.9171 32.8105C65.9171 32.8105 66.2119 32.427 66.0002 31.7659C65.7885 31.1049 65.0572 31.5531 65.0572 31.5531C65.0572 31.5531 64.6975 30.9644 64.1164 30.9839C63.5352 31.0033 63.411 31.645 63.411 31.645C63.411 31.645 63.263 31.2831 62.643 31.4116C62.0229 31.5402 62.0283 32.6366 62.0283 32.6366" fill="white"/>
<path d="M65.108 36.7463C64.7019 36.7463 64.3724 36.6005 64.1196 36.4169C64.0224 36.4849 63.9133 36.5432 63.7912 36.5821C63.4791 36.6826 63.1453 36.6426 62.8515 36.4687C62.0975 36.0237 61.8566 35.1865 61.8318 35.0925C61.7324 34.7177 61.9549 34.3331 62.3297 34.2338C62.7024 34.1355 63.0848 34.3547 63.1874 34.7263C63.2101 34.8052 63.2879 34.9931 63.4186 35.1368C63.4337 35.113 63.4467 35.0882 63.4575 35.0655C63.5655 34.8182 63.8053 34.6583 64.0753 34.6486C64.3432 34.6367 64.5949 34.7879 64.7202 35.0277C64.7505 35.0817 64.8228 35.18 64.9103 35.2524C64.933 35.086 64.9384 34.8614 64.9211 34.6712C64.8963 34.3958 65.0184 34.1387 65.2603 34.0026C65.2603 34.0026 65.5347 33.8233 65.7054 33.4819C65.4666 33.4204 65.2657 33.2713 65.1977 33.0337C65.1296 32.796 65.1782 32.5757 65.3446 32.3974C65.3575 32.3661 65.3802 32.2948 65.3716 32.1835C65.2204 32.2678 65.0551 32.2937 64.8833 32.2527C64.6954 32.2073 64.5517 32.0874 64.4556 31.92C64.4059 31.8433 64.2579 31.6888 64.1445 31.6866C64.1218 31.7158 64.0991 31.7785 64.0991 31.7785C64.0408 32.0831 63.788 32.3142 63.4791 32.3445C63.2393 32.3672 63.0103 32.2678 62.8644 32.0874C62.8569 32.0874 62.8482 32.0885 62.8396 32.0896C62.7823 32.19 62.7316 32.4406 62.7305 32.6361C62.7283 33.0229 62.4151 33.3372 62.0283 33.3372C61.6416 33.3372 61.3284 33.0272 61.3262 32.6405C61.3219 31.8692 61.6265 30.9046 62.5004 30.7231C62.7456 30.6723 62.9606 30.6702 63.1453 30.7004C63.3775 30.4628 63.6951 30.2953 64.0926 30.2824C64.6079 30.2629 65.0011 30.4973 65.2657 30.7317C65.4753 30.6896 65.7194 30.6853 65.9635 30.776C66.2984 30.9003 66.549 31.1768 66.6689 31.5527C66.7877 31.9232 66.7964 32.244 66.7586 32.5033C66.8633 32.6016 66.9606 32.7236 67.034 32.8738C67.1442 33.0985 67.2349 33.4647 67.0459 33.9248C66.8547 34.3904 66.5663 34.7231 66.3373 34.9327C66.3362 35.368 66.2649 35.9999 65.9128 36.3877C65.7032 36.6178 65.418 36.7452 65.1102 36.7452L65.108 36.7463Z" fill="black"/>
<path d="M62.3811 15.5313C62.3811 15.5313 63.6288 16.0552 63.1546 17.8635C62.6793 19.6707 61.6445 18.9286 61.6445 18.9286C61.6445 18.9286 62.9526 20.3965 62.1273 21.4433C61.3031 22.49 60.3925 21.8743 60.3925 21.8743C60.3925 21.8743 61.1152 23.0117 60.2834 23.7322C60.2834 23.7322 63.1513 29.3223 62.2882 35.3919C62.1133 36.6223 61.4219 37.7284 60.3785 38.4046C58.9234 39.3487 56.5675 40.2031 52.8278 40.1524C48.0868 40.0876 45.5278 39.42 44.4714 36.6752C42.9807 32.8038 43.5802 27.339 43.8643 25.6204C43.5953 25.5848 43.2821 25.4919 42.9235 25.3104C41.3982 24.5424 42.6102 23.1316 42.6102 23.1316C42.6102 23.1316 41.8508 23.5637 40.5546 22.4716C39.2594 21.3795 41.4133 19.8089 41.4133 19.8089C41.4133 19.8089 40.708 20.4776 39.6915 18.908C38.675 17.3385 40.5351 16.2237 40.5351 16.2237L42.4817 9.85377L50.9882 6.63477L58.1284 8.09844L62.0268 10.3863L62.3801 15.5292" fill="white"/>
<path d="M53.1509 40.8567C53.0407 40.8567 52.9305 40.8567 52.8182 40.8545C48.0491 40.7886 45.0472 40.1254 43.8157 36.928C42.3423 33.103 42.8317 27.9882 43.078 26.1421C42.9224 26.086 42.7658 26.0179 42.6081 25.938C41.8228 25.5426 41.5646 24.9906 41.4858 24.5974C41.4307 24.322 41.4479 24.0552 41.503 23.8132C41.1012 23.6933 40.6291 23.4535 40.1031 23.0095C39.5306 22.5267 39.4269 21.9779 39.4398 21.6031C39.4571 21.1084 39.6851 20.6493 39.9637 20.2691C39.6656 20.0422 39.3783 19.716 39.1028 19.2915C38.7269 18.7103 38.6016 18.0827 38.7431 17.4746C38.9376 16.6342 39.577 16.0541 39.9367 15.7862L41.812 9.65068C41.8757 9.44328 42.0313 9.27585 42.2354 9.19915L50.742 5.98015C50.8662 5.9337 51.0013 5.92182 51.132 5.94882L58.2721 7.4125C58.3477 7.42762 58.4201 7.4557 58.486 7.49459L62.3844 9.78246C62.5843 9.9002 62.7139 10.1087 62.7301 10.3398L63.0585 15.1251C63.6342 15.5734 64.2348 16.5175 63.8352 18.0406C63.6375 18.7914 63.3145 19.3055 62.8716 19.5734C63.1708 20.2885 63.2583 21.1451 62.6815 21.8775C62.3175 22.3387 61.8681 22.6293 61.382 22.7222C61.4036 23.0895 61.3377 23.4805 61.113 23.837C61.7741 25.2866 63.7412 30.1702 62.985 35.4902C62.7798 36.9334 61.9696 38.2102 60.763 38.9933C58.8565 40.2301 56.2975 40.8556 53.153 40.8556L53.1509 40.8567ZM42.6524 22.3819C42.8349 22.3819 43.0175 22.4651 43.1622 22.6153C43.4128 22.8767 43.3804 23.3152 43.1439 23.5896C43.0369 23.7171 42.8144 24.0854 42.863 24.3241C42.8889 24.4505 43.0153 24.5715 43.2389 24.6839C43.4982 24.8146 43.7401 24.8956 43.9573 24.9247C44.1452 24.9496 44.3159 25.05 44.4282 25.2034C44.5416 25.3557 44.587 25.548 44.5568 25.736C43.7142 30.8183 44.5179 34.8453 45.126 36.4235C45.9718 38.6196 47.9173 39.3833 52.8376 39.4513C55.8514 39.488 58.2613 38.9425 59.9972 37.817C60.8635 37.2553 61.4457 36.3349 61.5937 35.2947C62.4125 29.5275 59.6861 24.1081 59.6591 24.0541C59.5122 23.7668 59.5802 23.4146 59.8244 23.2029C60.1851 22.8896 59.8136 22.2728 59.7984 22.2469C59.617 21.9607 59.6526 21.5772 59.9021 21.3471C60.1495 21.1192 60.5114 21.09 60.7825 21.2899C60.9651 21.3957 61.2491 21.4292 61.5786 21.0101C62.0118 20.4603 61.1314 19.4071 61.1228 19.3963C60.8786 19.123 60.8689 18.6941 61.1228 18.4295C61.3745 18.1681 61.7655 18.127 62.0485 18.3528C62.0798 18.369 62.123 18.382 62.136 18.3787C62.1705 18.369 62.3391 18.2145 62.4784 17.6863C62.7668 16.5899 62.2375 16.2453 62.1057 16.1783C61.8487 16.0822 61.7028 15.8564 61.6845 15.5821L61.3572 10.8087L57.8789 8.76815L51.052 7.36821L43.0585 10.3928L41.2125 16.4333C41.1617 16.5996 41.0504 16.7411 40.9014 16.8308C40.7199 16.942 40.2187 17.3374 40.1139 17.7997C40.061 18.032 40.1171 18.2718 40.2856 18.531C40.695 19.1629 40.9532 19.2418 40.9975 19.2515C40.9997 19.2494 41.0029 19.2483 41.0051 19.2461C41.3043 19.0279 41.7212 19.0798 41.9578 19.3639C42.1944 19.648 42.1695 20.0681 41.9016 20.3231C41.8627 20.3598 41.8174 20.3965 41.7666 20.4311C41.381 20.7325 40.8592 21.292 40.8473 21.6571C40.8463 21.7025 40.843 21.7965 41.0126 21.9401C41.7547 22.5656 42.189 22.5299 42.2905 22.5094C42.405 22.4262 42.5314 22.3863 42.6567 22.3863L42.6524 22.3819Z" fill="black"/>
<path d="M62.3803 15.5322C62.3803 15.5322 63.6279 16.0561 63.1537 17.8644C62.6785 19.6716 61.6436 18.9295 61.6436 18.9295C61.6436 18.9295 62.9517 20.3975 62.1265 21.4442C61.3023 22.4909 60.3917 21.8752 60.3917 21.8752C60.3917 21.8752 61.1143 23.0126 60.2826 23.7331C59.4508 24.4536 58.8362 24.1803 58.6709 23.8455" fill="white"/>
<path d="M59.2946 24.8907C59.1801 24.8907 59.0764 24.8788 58.9846 24.8594C58.5687 24.7751 58.2166 24.5115 58.0416 24.154C57.8709 23.8062 58.0146 23.3849 58.3635 23.2142C58.694 23.0522 59.0894 23.1732 59.2752 23.4843C59.3378 23.4907 59.5269 23.4594 59.8239 23.2012C60.1847 22.888 59.8131 22.2712 59.798 22.2453C59.6165 21.959 59.6522 21.5755 59.9017 21.3455C60.1491 21.1175 60.5109 21.0884 60.7821 21.2882C60.9646 21.3941 61.2487 21.4276 61.5782 21.0084C62.0113 20.4586 61.131 19.4054 61.1223 19.3946C60.8782 19.1213 60.8685 18.6925 61.1223 18.4278C61.374 18.1664 61.765 18.1254 62.048 18.3511C62.0794 18.3673 62.1226 18.3803 62.1355 18.3771C62.1701 18.3673 62.3386 18.2129 62.478 17.6847C62.7729 16.5623 62.2122 16.2275 62.0967 16.1724L62.1118 16.1788L62.6562 14.8848C63.2827 15.1473 64.3348 16.1464 63.8369 18.0422C63.6392 18.7929 63.3162 19.3071 62.8733 19.575C63.1725 20.2901 63.26 21.1467 62.6832 21.8791C62.3192 22.3403 61.8698 22.6309 61.3837 22.7238C61.415 23.2445 61.2692 23.8105 60.7464 24.2642C60.1804 24.7546 59.6792 24.8907 59.2979 24.8907H59.2946Z" fill="black"/>
<path d="M49.2642 15.5681C49.0708 15.4557 48.8256 15.5194 48.6798 15.688C48.5577 15.8284 48.4616 16.0315 48.6323 16.2443C48.965 16.658 49.4856 16.2 49.4856 15.9785C49.4856 15.8349 49.4284 15.662 49.2642 15.567V15.5681Z" fill="black"/>
<path d="M48.954 16.6811C48.7509 16.6811 48.5619 16.5882 48.4215 16.4143C48.2011 16.141 48.2216 15.8029 48.4755 15.5112C48.7142 15.2369 49.1031 15.1623 49.4001 15.3341C49.6226 15.4637 49.7555 15.7046 49.7555 15.979C49.7555 16.2339 49.5038 16.5299 49.1949 16.639C49.1139 16.6671 49.0329 16.6811 48.954 16.6811ZM49.0534 15.7813C48.9896 15.7813 48.9248 15.818 48.8827 15.8656C48.7736 15.9909 48.8103 16.0362 48.8417 16.0762C48.8989 16.1475 48.9432 16.1464 48.9799 16.1399C49.089 16.1205 49.1906 16.0135 49.2132 15.9649C49.2111 15.9206 49.196 15.8429 49.1268 15.8029C49.1031 15.7889 49.0771 15.7835 49.0512 15.7835L49.0534 15.7813Z" fill="black"/>
<path d="M53.2193 15.5681C53.0259 15.4557 52.7807 15.5194 52.6349 15.688C52.5128 15.8284 52.4167 16.0315 52.5874 16.2443C52.9201 16.658 53.4407 16.2 53.4407 15.9785C53.4407 15.8349 53.3835 15.662 53.2193 15.567V15.5681Z" fill="black"/>
<path d="M52.9101 16.6811C52.707 16.6811 52.5179 16.5882 52.3775 16.4143C52.1571 16.141 52.1777 15.8029 52.4315 15.5112C52.6702 15.2369 53.0591 15.1623 53.3562 15.3341C53.5787 15.4637 53.7116 15.7046 53.7116 15.979C53.7116 16.2339 53.4599 16.5299 53.1509 16.639C53.0699 16.6671 52.9889 16.6811 52.9101 16.6811ZM53.0083 15.7813C52.9446 15.7813 52.8787 15.818 52.8377 15.8656C52.7286 15.9909 52.7653 16.0362 52.7966 16.0762C52.8539 16.1475 52.8982 16.1464 52.9349 16.1399C53.044 16.1205 53.1455 16.0135 53.1682 15.9649C53.1661 15.9206 53.1509 15.8429 53.0818 15.8029C53.058 15.7889 53.0321 15.7835 53.0062 15.7835L53.0083 15.7813Z" fill="black"/>
<path d="M51.019 21.5625C50.5805 21.5625 50.21 21.2007 49.7401 20.3117C49.6602 20.1604 49.6656 19.98 49.7531 19.8331C49.8405 19.6873 49.9993 19.5977 50.1689 19.5977H51.4198C51.5516 19.5977 51.6769 19.6506 51.7687 19.7456C51.8605 19.8407 51.9091 19.9682 51.9059 20.0989C51.8767 21.0278 51.5537 21.5615 51.018 21.5615L51.019 21.5625Z" fill="#EF9178"/>
<path d="M51.4204 20.0836C51.4204 20.0836 51.3891 21.0752 51.0186 21.0752C50.8328 21.0752 50.5628 20.8279 50.1696 20.0836H51.4204ZM51.4204 19.1114H50.1696C49.8282 19.1114 49.5128 19.2897 49.3367 19.5824C49.1606 19.8741 49.1509 20.237 49.3097 20.5384C49.7051 21.2848 50.216 22.0474 51.0175 22.0474C51.2552 22.0474 52.0513 21.9567 52.3073 20.7868C52.3786 20.4606 52.3905 20.1484 52.3915 20.1139C52.4002 19.8514 52.3008 19.5954 52.1182 19.4063C51.9346 19.2173 51.6829 19.1104 51.4204 19.1104V19.1114Z" fill="black"/>
<path d="M58.7167 10.2575C58.7167 10.2575 57.8083 10.9337 57.6495 11.9707C57.4896 13.0066 59.0257 13.0584 59.0257 13.0584C59.0257 13.0584 58.1572 14.0727 58.5698 15.1033C58.9825 16.1338 61.1807 15.0006 61.1807 15.0006C61.1807 15.0006 61.993 15.6207 63.1758 15.6315C64.3586 15.6423 64.2193 14.332 64.2193 14.332C64.2193 14.332 65.0154 14.5567 65.9303 13.8016C66.8453 13.0466 65.6689 12.1683 65.6689 12.1683C65.6689 12.1683 66.3754 11.2232 65.9757 10.3126C65.576 9.40087 64.4785 9.61259 64.4785 9.61259C64.4785 9.61259 64.9592 9.1481 64.3619 8.24397C63.7645 7.33984 62.0254 8.04737 62.0254 8.04737C62.0254 8.04737 63.0311 7.26855 61.8428 6.01551C60.6535 4.76139 59.4448 6.27152 59.4448 6.27152C59.4448 6.27152 59.5809 4.62961 58.6746 3.94476C57.7683 3.25991 56.3932 4.30339 56.3932 4.30339C56.7583 3.45651 55.1175 1.995 54.1248 1.95719C52.8912 1.91074 51.9223 3.1789 51.9223 3.1789C51.9223 3.1789 51.6771 1.98095 50.114 1.73035C48.5499 1.48082 48.1351 3.16161 48.1351 3.16161C48.1351 3.16161 47.3627 2.46488 45.8904 2.86132C44.4473 3.25019 44.848 5.55318 44.848 5.55318C44.848 5.55318 44.3619 4.69226 42.4554 4.89534C40.5488 5.09842 40.7778 7.85185 40.7778 7.85185C40.7778 7.85185 39.9558 6.9056 38.5148 7.92531C37.0738 8.94502 37.4713 10.2315 37.4713 10.2315C37.4713 10.2315 35.7041 10.0879 35.7041 11.4295C35.7041 12.7711 37.0868 13.4052 37.0868 13.4052C37.0868 13.4052 35.2915 14.4044 36.2377 15.7622C37.184 17.12 38.9598 15.7643 38.9598 15.7643C38.9598 15.7643 37.8613 17.6731 39.2277 17.9107C40.5953 18.1494 41.7856 18.022 41.8159 16.8402C41.8159 16.8402 43.0354 17.9118 44.121 16.8975C45.2066 15.8832 44.4937 14.9401 44.0573 14.7565C44.0573 14.7565 45.9379 13.7292 45.44 12.514C45.05 11.5613 43.7894 11.2772 43.7894 11.2772" fill="white"/>
<path d="M40.2433 18.7103C39.903 18.7103 39.525 18.6736 39.1059 18.6001C38.582 18.5083 38.1834 18.2231 37.9835 17.7964C37.869 17.5512 37.8312 17.2834 37.842 17.0187C37.5817 17.0684 37.3052 17.0835 37.0254 17.0392C36.4723 16.9528 36.0014 16.6482 35.66 16.1599C35.3025 15.6468 35.1804 15.0851 35.3079 14.5353C35.4105 14.0892 35.6611 13.7208 35.9247 13.4389C35.4666 13.0122 35 12.3501 35 11.4265C35 10.8972 35.1912 10.4413 35.5531 10.1076C35.9009 9.78675 36.3481 9.63876 36.7294 9.57179C36.7834 8.94419 37.074 8.08111 38.1077 7.34873C38.879 6.80323 39.5682 6.68872 40.1191 6.77082C40.2898 5.63121 40.8817 4.35441 42.3789 4.19454C43.1091 4.11676 43.6794 4.17725 44.1191 4.3004C44.2314 3.38871 44.6505 2.46513 45.7059 2.18104C46.6035 1.93907 47.3024 2.03089 47.7896 2.194C48.2076 1.50483 48.9854 0.838347 50.2222 1.03494C51.1566 1.18401 51.7345 1.60961 52.0867 2.02981C52.5857 1.63122 53.3062 1.22074 54.1498 1.25315C55.1371 1.28987 56.2962 2.18104 56.8039 2.98579C56.8525 3.06248 56.8957 3.1381 56.9324 3.21155C57.6097 2.95554 58.4264 2.87561 59.0961 3.38222C59.6416 3.79378 59.9095 4.4095 60.0391 4.97228C60.2508 4.88587 60.4863 4.82538 60.7412 4.81457C61.1496 4.79621 61.761 4.90747 62.3507 5.52967C62.8314 6.03628 63.0896 6.5591 63.1209 7.08516C64.1601 7.02359 64.6851 7.45999 64.9465 7.85426C65.2187 8.26474 65.3364 8.63957 65.3602 8.96471C65.8452 9.09326 66.3432 9.39895 66.6186 10.0276C66.9362 10.7503 66.7839 11.501 66.543 12.0444C66.7601 12.3123 66.9697 12.6828 66.9805 13.1235C66.9881 13.4454 66.8897 13.9174 66.3766 14.3409C65.8139 14.8043 65.2748 14.9836 64.8546 15.0398C64.7909 15.2947 64.6721 15.5712 64.4571 15.8089C64.24 16.0487 63.8447 16.3317 63.189 16.3317C63.1825 16.3317 63.1749 16.3317 63.1685 16.3317C62.2708 16.3241 61.5482 16.0206 61.1344 15.7959C60.5522 16.0476 59.4806 16.417 58.7061 16.1286C58.3356 15.9904 58.0623 15.7257 57.9176 15.3628C57.6454 14.6833 57.7588 14.0298 57.9532 13.5286C57.7026 13.4205 57.4542 13.2639 57.2619 13.0328C56.9929 12.7087 56.886 12.3036 56.954 11.8629C57.1517 10.5796 58.1801 9.78135 58.2967 9.69385C58.6078 9.46161 59.0475 9.52642 59.2797 9.83752C59.5109 10.1475 59.4471 10.585 59.1393 10.8183C59.1231 10.8313 58.4544 11.3541 58.3432 12.0768C58.3367 12.1178 58.341 12.134 58.341 12.134C58.394 12.2269 58.7709 12.3468 59.0486 12.3555C59.3186 12.3641 59.5595 12.5272 59.6675 12.7746C59.7766 13.022 59.7334 13.3093 59.5584 13.5145C59.5552 13.5178 58.987 14.2102 59.2127 14.8205C59.4482 14.9026 60.2422 14.6909 60.8579 14.3754C61.0988 14.2523 61.3904 14.2771 61.6054 14.4413C61.6076 14.4435 62.2622 14.9199 63.1803 14.9274C63.2992 14.9274 63.3769 14.908 63.4147 14.8669C63.5001 14.774 63.5292 14.5353 63.5184 14.3971C63.4925 14.1583 63.5724 13.9196 63.7604 13.7695C63.9462 13.6215 64.1741 13.575 64.3988 13.6506C64.4733 13.6636 64.9259 13.7154 65.4823 13.2574C65.5622 13.1915 65.5762 13.1537 65.5762 13.1537C65.5762 13.0814 65.4207 12.8621 65.2435 12.726C64.9389 12.4916 64.8752 12.053 65.1053 11.7452C65.1063 11.743 65.5546 11.1014 65.331 10.5915C65.1582 10.1983 64.6148 10.2977 64.6094 10.2988C64.3048 10.3571 63.997 10.2091 63.8533 9.93365C63.7194 9.67549 63.7593 9.36331 63.9484 9.14727C63.9689 9.09758 63.9721 8.92799 63.7744 8.62985C63.6027 8.3706 62.7925 8.49482 62.2859 8.69682C61.9532 8.82969 61.5579 8.7033 61.3894 8.38788C61.2219 8.07463 61.2975 7.69871 61.586 7.49564C61.613 7.46971 61.7113 7.36493 61.7177 7.21586C61.7264 7.02467 61.5892 6.76866 61.3299 6.49537C61.0577 6.20803 60.8644 6.21452 60.8017 6.21668C60.4582 6.22856 60.0899 6.58611 59.9873 6.71033C59.7917 6.94797 59.4644 7.03223 59.1793 6.91665C58.8952 6.80107 58.7169 6.51589 58.7418 6.2102C58.7666 5.88397 58.7299 4.86534 58.2481 4.50131C57.8927 4.23234 57.1128 4.63526 56.8125 4.85994C56.5576 5.05006 56.2055 5.04682 55.9559 4.84914C55.7096 4.6547 55.6222 4.322 55.7399 4.03359C55.7399 3.9839 55.6881 3.78298 55.4223 3.48052C55.001 3.00091 54.395 2.66605 54.0947 2.65417C53.3915 2.62932 52.6862 3.33038 52.4744 3.60367C52.3027 3.82403 52.0186 3.93853 51.7475 3.8694C51.4785 3.80026 51.2776 3.59502 51.2311 3.32281C51.203 3.21803 50.9902 2.57963 49.9986 2.42084C49.0999 2.2761 48.8396 3.21911 48.8126 3.32713C48.7521 3.57342 48.576 3.77866 48.3329 3.84671C48.0921 3.91476 47.8458 3.85967 47.6665 3.68576C47.5973 3.63391 47.0669 3.26772 46.0688 3.53669C45.2889 3.74625 45.5331 5.41517 45.5363 5.43137C45.5957 5.78352 45.4002 6.16267 45.0567 6.26205C44.7207 6.35818 44.3837 6.23072 44.2411 5.9153C44.1666 5.83645 43.7432 5.46053 42.5258 5.59016C41.3268 5.71762 41.4726 7.77217 41.4737 7.79269C41.4974 8.10271 41.3289 8.40841 41.0383 8.51967C40.751 8.62985 40.4388 8.5564 40.2487 8.31659C40.1558 8.22693 39.7367 7.91476 38.9157 8.4959C37.9716 9.16347 38.111 9.91205 38.1391 10.0266C38.2158 10.2491 38.1715 10.4835 38.0267 10.6704C37.882 10.8594 37.6465 10.948 37.4089 10.9285C37.2047 10.9145 36.7078 10.9469 36.4993 11.1413C36.4507 11.1867 36.3999 11.2558 36.3999 11.4265C36.3999 12.2907 37.3678 12.7605 37.3775 12.7659C37.6152 12.8783 37.7718 13.1159 37.7804 13.3784C37.7891 13.6409 37.6519 13.8872 37.4229 14.0157C37.2576 14.1097 36.7586 14.4694 36.6711 14.854C36.6484 14.9534 36.6387 15.1143 36.8083 15.3574C36.9649 15.582 37.1194 15.6328 37.236 15.6512C37.7037 15.7257 38.3443 15.3422 38.5312 15.2007C38.798 15.0009 39.1696 15.0149 39.4191 15.2353C39.6686 15.4567 39.7302 15.8218 39.5628 16.1103C39.3262 16.5251 39.1955 17.0371 39.2463 17.1872C39.2592 17.1937 39.2895 17.2056 39.3424 17.2142C40.5371 17.4227 40.9087 17.2099 40.994 17.1408C41.0265 17.1138 41.1021 17.0522 41.1086 16.8178C41.115 16.5456 41.2792 16.3015 41.5287 16.1923C41.7783 16.0832 42.0688 16.1286 42.273 16.3079C42.3951 16.4116 43.0562 16.9204 43.6351 16.3792C43.8112 16.215 44.0143 15.9677 43.9808 15.7268C43.957 15.5561 43.8242 15.4232 43.7723 15.3962C43.5239 15.2915 43.3597 15.0549 43.3456 14.7859C43.3316 14.517 43.4764 14.2642 43.7129 14.1356C43.9743 13.9909 44.993 13.2909 44.7823 12.7757C44.5792 12.2809 43.8771 12.0163 43.6233 11.9569C43.2474 11.8672 43.0119 11.4913 43.0994 11.1154C43.1869 10.7395 43.5595 10.5029 43.9365 10.5883C44.1018 10.6261 45.5687 10.9901 46.0818 12.2442C46.5128 13.2974 45.8668 14.2372 45.1356 14.8529C45.2393 15.0322 45.3192 15.2374 45.3602 15.4643C45.4304 15.8564 45.424 16.6298 44.5933 17.4054C43.7885 18.1583 42.893 18.1259 42.2071 17.8699C42.1045 18.0222 41.9889 18.1389 41.882 18.2264C41.4899 18.5472 40.9465 18.7071 40.2368 18.7071L40.2433 18.7103ZM63.9883 9.10622H63.9872C63.9872 9.10622 63.9872 9.10622 63.9883 9.10622Z" fill="black"/>
<path d="M92.798 31.4391C92.798 31.4391 95.1042 29.8825 96.5236 31.2554C97.943 32.6284 98.4831 33.7345 97.459 34.8017C96.4361 35.869 95.4131 36.9362 93.1447 34.2433L92.7969 31.4391H92.798Z" fill="#FFDED2"/>
<path d="M95.6398 36.6414C95.616 36.6414 95.5922 36.6414 95.5674 36.6403C94.6406 36.6101 93.7008 35.9933 92.6087 34.697C92.5212 34.5933 92.4661 34.4659 92.4488 34.3309L92.101 31.5266C92.0686 31.2642 92.1863 31.006 92.4045 30.858C92.4315 30.8396 93.0829 30.4043 93.933 30.1591C95.1753 29.8005 96.2393 30.0057 97.0105 30.7521C97.7634 31.4802 99.7618 33.4148 97.9654 35.289C97.3562 35.9242 96.6681 36.6425 95.6387 36.6425L95.6398 36.6414ZM93.8164 33.9474C94.727 34.9898 95.2941 35.2263 95.6128 35.2361C96.0286 35.2533 96.3948 34.8969 96.9522 34.3157C97.3022 33.9506 97.7818 33.4505 96.0351 31.76C95.3135 31.0622 94.1415 31.5137 93.5517 31.8151L93.8153 33.9463L93.8164 33.9474Z" fill="black"/>
<path d="M84.9039 36.6806C84.8532 37.211 85.1319 43.3077 83.4629 43.3077H80.2407C80.2407 43.3077 79.3809 43.2569 79.3809 42.1194C79.3809 40.982 81.3706 41.0576 81.3706 41.0576L80.9731 35.8262" fill="#FFDED2"/>
<path d="M83.4638 44.0094H80.2416C80.2275 44.0094 80.2145 44.0094 80.2005 44.0083C79.5891 43.9727 78.6807 43.4401 78.6807 42.119C78.6807 41.6945 78.8416 41.3143 79.1462 41.0205C79.5502 40.6316 80.1379 40.4674 80.6175 40.3994L80.274 35.8798C80.2448 35.4931 80.5343 35.1561 80.921 35.1269C81.3088 35.0988 81.6447 35.3872 81.6739 35.7739L82.0714 41.0054C82.0865 41.2052 82.0163 41.4018 81.877 41.5455C81.7376 41.6891 81.5443 41.7669 81.3444 41.7604C80.962 41.7485 80.3236 41.836 80.1184 42.0337C80.0914 42.0607 80.0828 42.0748 80.0828 42.1201C80.0828 42.32 80.1195 42.563 80.2912 42.6062H83.4465C83.5038 42.5619 83.8538 42.2281 84.0525 40.4966C84.1897 39.3008 84.1918 37.9603 84.1929 37.2387C84.1929 36.8822 84.194 36.7213 84.2048 36.6143C84.2415 36.2287 84.584 35.9457 84.9707 35.9824C85.3563 36.0191 85.6393 36.3616 85.6037 36.7472C85.5994 36.8044 85.5994 37.0367 85.5983 37.2419C85.5929 40.758 85.3304 44.0116 83.4638 44.0116V44.0094Z" fill="black"/>
<path d="M87.8651 36.6806C87.8143 37.211 88.093 43.3077 86.4241 43.3077H83.9223C83.9223 43.3077 83.0625 43.2569 83.0625 42.1194C83.0625 40.982 85.0522 41.0576 85.0522 41.0576L84.6547 35.8262" fill="#FFDED2"/>
<path d="M86.4249 44.0094H83.9232C83.9091 44.0094 83.8962 44.0094 83.8821 44.0083C83.2707 43.9727 82.3623 43.4401 82.3623 42.119C82.3623 41.6945 82.5232 41.3143 82.8279 41.0205C83.2319 40.6316 83.8195 40.4674 84.2991 40.3994L83.9556 35.8798C83.9264 35.4931 84.2159 35.1561 84.6026 35.1269C84.9904 35.0988 85.3264 35.3872 85.3555 35.7739L85.7531 41.0054C85.7682 41.2052 85.698 41.4018 85.5586 41.5455C85.4193 41.6891 85.2259 41.7669 85.0261 41.7604C84.6448 41.7485 84.0053 41.836 83.8 42.0337C83.773 42.0607 83.7644 42.0748 83.7644 42.1201C83.7644 42.536 83.9232 42.5976 83.9567 42.6062H86.4077C86.4649 42.5619 86.8149 42.2281 87.0137 40.4966C87.1508 39.3008 87.153 37.9603 87.1541 37.2387C87.1541 36.8822 87.1552 36.7213 87.166 36.6143C87.2027 36.2287 87.5451 35.9457 87.9318 35.9824C88.3175 36.0191 88.6005 36.3616 88.5648 36.7472C88.5605 36.8044 88.5605 37.0367 88.5594 37.2419C88.554 40.758 88.2915 44.0116 86.4249 44.0116V44.0094Z" fill="black"/>
<path d="M92.2702 25.6527C93.0393 27.8142 93.9866 31.462 93.4411 35.3022C93.2662 36.5325 92.5748 37.6386 91.5314 38.3148C90.0763 39.2589 87.7204 40.1134 83.9807 40.0626C79.2397 39.9978 76.6807 39.3302 75.6243 36.5854C74.1725 32.8166 74.7018 27.5387 74.9945 25.6754L74.6553 25.5252C70.2794 23.4901 70.2568 19.3238 70.556 17.0889C70.8552 14.8539 73.2143 13.2325 73.2143 13.2325C73.2143 13.2325 72.2767 10.3657 72.7455 7.76023C73.2144 5.15478 73.4747 3.27846 75.9764 2.70488C78.4782 2.13129 79.2073 4.99815 79.1555 6.14424C79.1036 7.29034 79.1609 11.1996 79.1576 11.825C79.1576 11.825 81.8128 11.4599 83.2203 11.5647L84.6278 11.6684C84.6278 11.6684 83.5854 7.39512 84.3674 5.05C85.1495 2.70488 86.4004 1.5577 87.2862 1.71433C88.1719 1.87096 89.9445 2.02651 90.4133 5.5188C90.8822 9.0111 90.4133 12.1901 90.4133 12.1901C90.4133 12.1901 93.1754 11.9817 94.4782 14.7956C95.7809 17.6095 96.4582 22.5093 94.2178 24.3856C91.9764 26.2619 89.9964 26.3138 89.9964 26.3138" fill="#FFDED2"/>
<path d="M84.3038 40.7668C84.1936 40.7668 84.0834 40.7668 83.9711 40.7647C79.202 40.6988 76.2001 40.0355 74.9687 36.8381C73.5007 33.0282 73.977 27.9599 74.2233 26.0987C70.839 24.4601 69.29 21.2346 69.8582 16.997C70.1185 15.0558 71.6524 13.5835 72.4042 12.9667C72.1482 12.0021 71.6697 9.76175 72.0521 7.63699L72.0942 7.40151C72.5479 4.86843 72.94 2.68102 75.8177 2.0221C76.805 1.79634 77.7005 1.98753 78.4069 2.5784C79.5466 3.52898 79.8976 5.25191 79.8555 6.17872C79.8177 7.00183 79.8393 9.34263 79.8512 10.7415C79.8512 10.8441 79.8533 10.9424 79.8533 11.0342C80.7737 10.9316 82.286 10.7933 83.27 10.8657L83.7464 10.9014C83.4752 9.45497 83.0885 6.66049 83.6989 4.82955C84.5382 2.31051 86.0288 0.783106 87.405 1.02507L87.512 1.04343C89.0329 1.3016 90.6489 2.02426 91.1058 5.42798C91.4504 7.99022 91.3067 10.3634 91.1933 11.5344C92.2584 11.6834 94.0796 12.2721 95.1123 14.5038C96.4647 17.4247 97.2576 22.7566 94.6651 24.9267C94.1336 25.3707 93.6151 25.7207 93.1269 25.9972C93.9143 28.3909 94.6445 31.8055 94.1336 35.4036C93.9284 36.8468 93.1182 38.1236 91.9116 38.9067C90.0051 40.1435 87.4461 40.769 84.3016 40.769L84.3038 40.7668ZM74.9449 24.8868L75.2776 25.0337C75.5693 25.1622 75.7367 25.4701 75.6881 25.7844C74.7116 32.0107 76.1158 35.9091 76.28 36.3337C77.1258 38.5297 79.0713 39.2934 83.9916 39.3615C87.0053 39.3982 89.4153 38.8527 91.1512 37.7271C92.0175 37.1654 92.5997 36.2451 92.7477 35.2048C93.21 31.9491 92.5673 28.8306 91.849 26.5956C90.7904 26.9899 90.0666 27.0169 90.0148 27.018C89.6302 27.0266 89.3051 26.722 89.2943 26.3342C89.2835 25.9464 89.5903 25.6245 89.9781 25.6137C89.991 25.6137 91.7658 25.5252 93.7674 23.8487C95.6826 22.2446 95.0269 17.6537 93.842 15.0926C92.7564 12.7474 90.4901 12.89 90.4663 12.8922C90.2535 12.9095 90.045 12.8263 89.8992 12.6707C89.7534 12.5152 89.6875 12.3013 89.7188 12.0896C89.7231 12.0593 90.1671 8.96024 89.7177 5.61485C89.3364 2.77716 88.1482 2.57516 87.2808 2.42825L87.1641 2.40773C86.7904 2.34184 85.7458 3.13579 85.034 5.27351C84.3254 7.39827 85.3008 11.4631 85.3105 11.5041C85.3635 11.7223 85.3094 11.9524 85.1636 12.1242C85.0189 12.2959 84.7996 12.3866 84.576 12.3704L83.1685 12.2667C81.8506 12.1695 79.2787 12.5195 79.2538 12.5228C79.0518 12.5508 78.8487 12.4893 78.6954 12.3553C78.542 12.2214 78.4545 12.028 78.4555 11.8239C78.4555 11.6597 78.4523 11.2654 78.448 10.7534C78.435 9.24866 78.4145 6.97483 78.4534 6.11391C78.4825 5.46579 78.2028 4.23543 77.5082 3.65537C77.1409 3.34967 76.6916 3.26217 76.1331 3.39072C74.2395 3.82496 73.9511 5.00994 73.478 7.64888L73.4358 7.88544C73.0027 10.2889 73.8722 12.9883 73.8809 13.0153C73.9781 13.3124 73.8668 13.6386 73.6087 13.8147C73.5892 13.8287 71.5077 15.2762 71.2517 17.1838C70.9071 19.7525 71.2679 23.1735 74.9449 24.8868Z" fill="black"/>
<path d="M80.5083 15.4772C80.315 15.3649 80.0698 15.4286 79.9239 15.5971C79.8019 15.7376 79.7057 15.9406 79.8764 16.1534C80.2091 16.5672 80.7298 16.1091 80.7298 15.8877C80.7298 15.744 80.6725 15.5712 80.5083 15.4762V15.4772Z" fill="black"/>
<path d="M80.1991 16.5906C79.996 16.5906 79.807 16.4977 79.6666 16.3237C79.4462 16.0505 79.4667 15.7123 79.7206 15.4207C79.9593 15.1452 80.3482 15.0718 80.6452 15.2435C80.8677 15.3732 81.0006 15.614 81.0006 15.8884C81.0006 16.1433 80.7489 16.4393 80.44 16.5484C80.359 16.5765 80.278 16.5906 80.1991 16.5906ZM80.2974 15.6907C80.2337 15.6907 80.1678 15.7275 80.1267 15.775C80.0176 15.9003 80.0544 15.9457 80.0857 15.9856C80.1429 16.0569 80.1872 16.0559 80.2239 16.0494C80.333 16.0299 80.4346 15.923 80.4573 15.8744C80.4551 15.8301 80.44 15.7523 80.3709 15.7123C80.3471 15.6983 80.3212 15.6929 80.2952 15.6929L80.2974 15.6907Z" fill="black"/>
<path d="M84.4634 15.4782C84.27 15.3659 84.0249 15.4296 83.879 15.5981C83.757 15.7385 83.6608 15.9416 83.8315 16.1544C84.1642 16.5681 84.6849 16.1101 84.6849 15.8887C84.6849 15.745 84.6276 15.5722 84.4634 15.4771V15.4782Z" fill="black"/>
<path d="M84.1532 16.5913C83.9501 16.5913 83.7611 16.4984 83.6207 16.3245C83.4003 16.0512 83.4208 15.7131 83.6747 15.4214C83.9134 15.147 84.3023 15.0725 84.5993 15.2442C84.8218 15.3739 84.9547 15.6148 84.9547 15.8891C84.9547 16.1441 84.703 16.44 84.3941 16.5491C84.3131 16.5772 84.2321 16.5913 84.1532 16.5913ZM84.2526 15.6915C84.1889 15.6915 84.124 15.7282 84.0819 15.7757C83.9728 15.901 84.0095 15.9464 84.0409 15.9863C84.0981 16.0576 84.1424 16.0566 84.1791 16.0501C84.2882 16.0306 84.3898 15.9237 84.4125 15.8751C84.4103 15.8308 84.3952 15.753 84.326 15.7131C84.3023 15.699 84.2763 15.6936 84.2504 15.6936L84.2526 15.6915Z" fill="black"/>
<path d="M82.2632 21.4727C81.8246 21.4727 81.4541 21.1108 80.9842 20.2218C80.9043 20.0706 80.9097 19.8902 80.9972 19.7433C81.0847 19.5975 81.2435 19.5078 81.4131 19.5078H82.6639C82.7957 19.5078 82.921 19.5607 83.0129 19.6558C83.1047 19.7509 83.1533 19.8783 83.15 20.009C83.1209 20.938 82.7979 21.4716 82.2621 21.4716L82.2632 21.4727Z" fill="#EF9178"/>
<path d="M82.6636 19.9938C82.6636 19.9938 82.6323 20.9854 82.2618 20.9854C82.076 20.9854 81.8059 20.738 81.4127 19.9938H82.6636ZM82.6636 19.0216H81.4127C81.0714 19.0216 80.756 19.1998 80.5799 19.4926C80.4038 19.7842 80.3941 20.1472 80.5529 20.4485C80.9482 21.195 81.4592 21.9576 82.2607 21.9576C82.4983 21.9576 83.2944 21.8668 83.5504 20.697C83.6217 20.3708 83.6336 20.0586 83.6347 20.024C83.6433 19.7615 83.544 19.5055 83.3614 19.3165C83.1778 19.1274 82.9261 19.0205 82.6636 19.0205V19.0216Z" fill="black"/>
<path d="M86.7871 11.7597H88.2108C88.2108 11.7597 88.8211 8.91341 88.4139 6.55425C88.1892 5.24936 87.836 4.27718 87.4136 4.64337C86.9913 5.00956 86.3432 6.43003 86.3399 7.5718C86.3334 10.3782 86.7871 11.7608 86.7871 11.7608V11.7597Z" fill="#F4A28C"/>
<path d="M88.2109 12.462H86.7872C86.4836 12.462 86.2147 12.2675 86.1196 11.9791C86.1002 11.9186 85.6314 10.456 85.6368 7.56972C85.64 6.2616 86.3465 4.63697 86.9525 4.11199C87.2301 3.87219 87.5747 3.80089 87.8987 3.91648C88.6214 4.17464 88.9055 5.27969 89.1042 6.43443C89.5287 8.89837 88.9217 11.7847 88.8957 11.9067C88.8266 12.2308 88.5404 12.462 88.2087 12.462H88.2109ZM87.3381 11.0577H87.6243C87.7702 10.1449 87.9981 8.26969 87.7226 6.67423C87.6524 6.267 87.5811 5.96346 87.5174 5.73878C87.2819 6.23351 87.0432 6.95184 87.0421 7.57296C87.0378 9.29264 87.2139 10.4549 87.3381 11.0577Z" fill="black"/>
<path d="M75.2127 12.4512L76.9075 12.085L77.0523 7.05019C77.0663 6.56842 77.0026 6.08557 76.846 5.63944C76.6418 5.05937 76.2875 4.54736 75.7431 5.3143C74.7893 6.65591 74.6305 10.011 75.2138 12.4512H75.2127Z" fill="#F4A28C"/>
<path d="M75.2115 13.1538C74.8939 13.1538 74.6066 12.9367 74.5288 12.6148C73.9434 10.1649 74.0222 6.52243 75.1694 4.90861C75.6209 4.27237 76.0876 4.19135 76.3997 4.23564C76.8848 4.30369 77.2574 4.69797 77.507 5.40766C77.6874 5.91968 77.7694 6.4803 77.7532 7.07117L77.6085 12.106C77.5988 12.429 77.3708 12.7044 77.0543 12.7725L75.3595 13.1387C75.3098 13.1495 75.2601 13.1549 75.2104 13.1549L75.2115 13.1538ZM76.1956 5.91104C75.5831 7.02365 75.4006 9.51135 75.7581 11.6156L76.2204 11.5162L76.349 7.03121C76.3609 6.62721 76.309 6.2513 76.1956 5.91212V5.91104Z" fill="black"/>
</svg>
