<svg width="236" height="195" viewBox="0 0 236 195" fill="none" xmlns="http://www.w3.org/2000/svg">
<path d="M14.8786 162.986C14.8786 162.986 9.05781 159.058 5.47536 162.523C1.8929 165.988 0.529739 168.78 3.11434 171.474C5.69894 174.167 8.27808 176.861 14.0035 170.064L14.8813 162.986H14.8786Z" fill="#FFDED2"/>
<path d="M7.70832 176.114C7.7683 176.114 7.82825 176.114 7.89096 176.111C10.2302 176.035 12.6021 174.478 15.3585 171.204C15.5793 170.942 15.7184 170.621 15.762 170.28L16.6399 163.202C16.7217 162.54 16.4245 161.888 15.8738 161.514C15.8056 161.468 14.1616 160.369 12.016 159.751C8.88064 158.845 6.19516 159.363 4.24853 161.247C2.34825 163.085 -2.69554 167.968 1.83842 172.698C3.3761 174.301 5.11281 176.114 7.71104 176.114H7.70832ZM12.3077 169.317C10.0094 171.948 8.57803 172.545 7.77375 172.57C6.73227 172.594 5.79984 171.714 4.39304 170.247C3.50969 169.326 2.29918 168.063 6.70772 163.796C8.52894 162.035 11.4871 163.175 12.9757 163.936L12.3104 169.315L12.3077 169.317Z" fill="black"/>
<path d="M34.8032 176.215C34.9314 177.554 34.2279 192.941 38.4402 192.941H46.5729C46.5729 192.941 48.7432 192.813 48.7432 189.942C48.7432 187.071 43.7212 187.262 43.7212 187.262L44.7245 174.058" fill="#FFDED2"/>
<path d="M38.4398 194.713H46.5726C46.608 194.713 46.6407 194.713 46.6762 194.71C48.2193 194.62 50.5122 193.276 50.5122 189.942C50.5122 188.871 50.106 187.911 49.3344 187.169C48.3147 186.188 46.8316 185.773 45.6211 185.602L46.4881 174.194C46.5617 173.218 45.831 172.368 44.855 172.294C43.8762 172.221 43.0283 172.951 42.9547 173.927L41.9514 187.131C41.9132 187.635 42.0904 188.132 42.4421 188.494C42.7911 188.857 43.2791 189.056 43.7862 189.037C44.7486 189.007 46.3626 189.228 46.8779 189.727C46.9461 189.795 46.9679 189.83 46.9679 189.945C46.9679 190.449 46.8752 191.063 46.4417 191.172H38.478C38.3335 191.06 37.4501 190.217 36.9485 185.847C36.6022 182.829 36.5968 179.445 36.5941 177.624C36.5941 176.725 36.5913 176.318 36.5641 176.048C36.4714 175.075 35.6071 174.361 34.6311 174.453C33.6578 174.546 32.9435 175.41 33.0334 176.384C33.0443 176.528 33.0443 177.114 33.047 177.632C33.0607 186.507 33.7232 194.719 38.4344 194.719L38.4398 194.713Z" fill="black"/>
<path d="M27.3273 176.215C27.4554 177.554 26.752 192.941 30.9643 192.941H37.2785C37.2785 192.941 39.4487 192.813 39.4487 189.942C39.4487 187.071 34.4268 187.262 34.4268 187.262L35.4301 174.058" fill="#FFDED2"/>
<path d="M30.9643 194.713H37.2786C37.3141 194.713 37.3468 194.713 37.3822 194.71C38.9254 194.62 41.2183 193.276 41.2183 189.942C41.2183 188.871 40.812 187.911 40.0404 187.169C39.0208 186.188 37.5376 185.773 36.3271 185.602L37.1941 174.194C37.2677 173.218 36.5371 172.368 35.561 172.294C34.5823 172.221 33.7343 172.951 33.6607 173.927L32.6574 187.131C32.6193 187.635 32.7965 188.132 33.1482 188.494C33.4999 188.857 33.9879 189.056 34.4923 189.037C35.4547 189.007 37.0687 189.228 37.5867 189.727C37.6549 189.795 37.6767 189.83 37.6767 189.945C37.6767 190.994 37.2759 191.15 37.1914 191.172H31.0052C30.8607 191.06 29.9774 190.217 29.4757 185.847C29.1295 182.829 29.124 179.445 29.1213 177.624C29.1213 176.725 29.1186 176.318 29.0913 176.048C28.9986 175.075 28.1344 174.361 27.1583 174.453C26.185 174.546 25.4707 175.41 25.5607 176.384C25.5716 176.528 25.5716 177.114 25.5743 177.632C25.588 186.507 26.2504 194.719 30.9616 194.719L30.9643 194.713Z" fill="black"/>
<path d="M16.212 148.381C14.2709 153.837 11.8798 163.044 13.2567 172.736C13.6983 175.841 15.4432 178.633 18.0769 180.34C21.7493 182.723 27.6955 184.879 37.1342 184.751C49.1003 184.588 55.5591 182.903 58.2255 175.975C61.8897 166.463 60.5538 153.142 59.815 148.439L60.671 148.06C71.7156 142.923 71.7728 132.408 71.0176 126.767C70.2542 121.077 64.308 117.034 64.308 117.034C64.308 117.034 66.6745 109.798 65.4913 103.222C64.308 96.6457 63.651 91.91 57.3367 90.4623C51.0224 89.0146 49.1821 96.2504 49.313 99.143C49.4438 102.036 49.2993 111.902 49.3075 113.481C49.3075 113.481 42.6061 112.56 39.0536 112.824L35.5011 113.086C35.5011 113.086 38.1321 102.3 36.1582 96.3812C34.1843 90.4623 31.0272 87.5669 28.7915 87.9622C26.5559 88.3575 22.0819 88.7501 20.8987 97.5645C19.7155 106.379 20.8987 114.403 20.8987 114.403C20.8987 114.403 13.9274 113.876 10.6394 120.979C7.35135 128.081 5.64192 140.448 11.2964 145.183C16.9536 149.919 21.9511 150.05 21.9511 150.05" fill="#FFDED2"/>
<path d="M36.3162 186.529C36.5943 186.529 36.8724 186.529 37.1559 186.523C49.1929 186.357 56.7695 184.683 59.8775 176.613C63.5827 166.997 62.3803 154.205 61.7587 149.507C70.3005 145.371 74.2101 137.23 72.776 126.535C72.119 121.636 68.2475 117.92 66.3499 116.363C66.9961 113.928 68.2039 108.274 67.2387 102.911L67.1324 102.316C65.9873 95.9231 64.9977 90.4022 57.7346 88.7391C55.2427 88.1693 52.9853 88.6519 51.1995 90.1432C48.3232 92.5424 47.4371 96.891 47.5434 99.2302C47.6388 101.308 47.5843 107.216 47.5543 110.746C47.5543 111.005 47.5489 111.254 47.5489 111.485C45.226 111.226 41.4091 110.877 38.9254 111.06L37.723 111.15C38.4073 107.499 39.3834 100.446 37.843 95.825C35.7246 89.4671 31.9622 85.612 28.4888 86.2227L28.2189 86.2691C24.3801 86.9207 20.3015 88.7446 19.1482 97.3354C18.2785 103.805 18.6411 109.792 18.9274 112.748C16.2392 113.124 11.6425 114.61 9.03612 120.242C5.6227 127.615 3.62154 141.072 10.1648 146.549C11.5062 147.67 12.8149 148.553 14.0472 149.251C12.0597 155.293 10.2166 163.911 11.5062 172.992C12.0242 176.635 14.069 179.857 17.1144 181.834C21.9264 184.956 28.3852 186.534 36.3217 186.534L36.3162 186.529ZM59.9402 146.448L59.1005 146.819C58.3644 147.144 57.9418 147.921 58.0645 148.714C60.5291 164.429 56.9848 174.268 56.5704 175.337C54.4357 180.88 49.5255 182.807 37.1068 182.979C29.5003 183.077 23.4177 181.695 19.0364 178.854C16.8499 177.436 15.3804 175.113 15.0069 172.488C13.84 164.271 15.4622 156.4 17.2752 150.759C19.9471 151.754 21.7737 151.822 21.9046 151.825C22.8752 151.841 23.6958 151.078 23.7231 150.099C23.7504 149.12 22.9761 148.308 21.9973 148.28C21.9646 148.28 17.4851 148.057 12.4332 143.826C7.5993 139.777 9.25423 128.19 12.2451 121.726C14.9851 115.807 20.705 116.166 20.765 116.172C21.3021 116.216 21.8283 116.006 22.1963 115.613C22.5644 115.22 22.7307 114.681 22.6516 114.146C22.6407 114.07 21.5202 106.248 22.6543 97.8043C23.6167 90.6422 26.6158 90.1323 28.8051 89.7615L29.0995 89.7097C30.0428 89.5407 32.6792 91.5473 34.4759 96.9428C36.2644 102.306 33.8025 112.565 33.778 112.669C33.6444 113.219 33.7807 113.8 34.1487 114.233C34.5141 114.667 35.0675 114.896 35.6319 114.855L39.1843 114.593C42.5051 114.348 49.002 115.231 49.0674 115.24C49.5773 115.31 50.0899 115.155 50.477 114.817C50.8641 114.479 51.085 113.991 51.0822 113.476C51.0822 113.058 51.0904 112.066 51.1013 110.774C51.1341 106.976 51.1859 101.237 51.0877 99.0639C51.0141 97.4281 51.7202 94.3228 53.4733 92.8587C54.4002 92.0871 55.5344 91.8663 56.9439 92.1907C61.7233 93.2867 62.4512 96.2776 63.6454 102.938L63.7517 103.535C64.845 109.601 62.6502 116.415 62.6284 116.483C62.3831 117.232 62.6639 118.056 63.3155 118.5C63.3646 118.536 68.6183 122.189 69.2644 127.004C70.1342 133.487 69.2208 142.122 59.943 146.446L59.9402 146.448Z" fill="black"/>
<path d="M45.8964 122.699C46.3844 122.416 47.0033 122.576 47.3714 123.002C47.6795 123.356 47.9221 123.869 47.4913 124.406C46.6516 125.45 45.3375 124.294 45.3375 123.735C45.3375 123.372 45.482 122.936 45.8964 122.696V122.699Z" fill="black"/>
<path d="M46.6787 125.51C47.1913 125.51 47.6684 125.275 48.0228 124.837C48.579 124.147 48.5272 123.293 47.8865 122.557C47.284 121.865 46.3025 121.677 45.5527 122.11C44.9911 122.437 44.6557 123.045 44.6557 123.738C44.6557 124.381 45.291 125.128 46.0707 125.404C46.2752 125.474 46.4797 125.51 46.6787 125.51ZM46.4279 123.239C46.5887 123.239 46.755 123.332 46.8586 123.452C47.134 123.768 47.0413 123.882 46.9622 123.983C46.8177 124.163 46.706 124.16 46.6133 124.144C46.3379 124.095 46.0816 123.825 46.0244 123.702C46.0298 123.591 46.068 123.394 46.2425 123.293C46.3025 123.258 46.3679 123.244 46.4333 123.244L46.4279 123.239Z" fill="black"/>
<path d="M35.915 122.699C36.403 122.416 37.0219 122.576 37.3899 123.002C37.698 123.356 37.9406 123.869 37.5099 124.406C36.6702 125.45 35.3561 124.294 35.3561 123.735C35.3561 123.372 35.5005 122.936 35.915 122.696V122.699Z" fill="black"/>
<path d="M36.6953 125.51C37.2079 125.51 37.685 125.275 38.0394 124.837C38.5956 124.147 38.5438 123.293 37.9031 122.557C37.3006 121.865 36.3191 121.677 35.5693 122.11C35.0077 122.437 34.6723 123.045 34.6723 123.738C34.6723 124.381 35.3076 125.128 36.0873 125.404C36.2918 125.474 36.4963 125.51 36.6953 125.51ZM36.4472 123.239C36.6081 123.239 36.7716 123.332 36.878 123.452C37.1533 123.768 37.0606 123.882 36.9816 123.983C36.8371 124.163 36.7253 124.16 36.6326 124.144C36.3572 124.095 36.1009 123.825 36.0437 123.702C36.0491 123.591 36.0873 123.394 36.2618 123.293C36.3218 123.258 36.3872 123.244 36.4526 123.244L36.4472 123.239Z" fill="black"/>
<path d="M42.5996 132.869C41.4927 132.869 40.5576 133.782 39.3716 136.026C39.1698 136.407 39.1835 136.863 39.4043 137.234C39.6251 137.602 40.0259 137.828 40.454 137.828L43.6111 137.828C43.9437 137.828 44.26 137.694 44.4917 137.454C44.7234 137.214 44.8461 136.893 44.838 136.563C44.7643 134.218 43.9492 132.871 42.5969 132.871L42.5996 132.869Z" fill="#EF9178"/>
<path d="M43.6136 136.598C43.6136 136.598 43.5345 134.095 42.5994 134.095C42.1305 134.095 41.4489 134.72 40.4565 136.598L43.6136 136.598ZM43.6136 139.052L40.4565 139.052C39.5949 139.052 38.7988 138.602 38.3544 137.863C37.91 137.127 37.8855 136.211 38.2863 135.45C39.2841 133.566 40.5737 131.642 42.5967 131.642C43.1965 131.642 45.2058 131.871 45.8519 134.823C46.0319 135.647 46.0619 136.435 46.0646 136.522C46.0864 137.184 45.8356 137.831 45.3748 138.308C44.9113 138.785 44.2761 139.055 43.6136 139.055L43.6136 139.052Z" fill="black"/>
<path d="M30.0483 113.315H26.455C26.455 113.315 24.9146 106.131 25.9424 100.176C26.5095 96.883 27.4011 94.4292 28.4671 95.3535C29.5331 96.2777 31.1689 99.8629 31.1771 102.745C31.1934 109.828 30.0483 113.318 30.0483 113.318V113.315Z" fill="#F4A28C"/>
<path d="M26.4575 115.087H30.0509C30.817 115.087 31.4959 114.596 31.7358 113.868C31.7849 113.716 32.9681 110.024 32.9545 102.739C32.9463 99.4375 31.1632 95.3371 29.6337 94.012C28.9331 93.4068 28.0634 93.2268 27.2455 93.5186C25.4215 94.1702 24.7045 96.9592 24.2028 99.8737C23.1314 106.093 24.6636 113.377 24.729 113.686C24.9035 114.503 25.626 115.087 26.463 115.087H26.4575ZM28.6604 111.543H27.9379C27.5699 109.239 26.9946 104.506 27.6898 100.479C27.867 99.4512 28.047 98.685 28.2078 98.118C28.8022 99.3666 29.4047 101.18 29.4075 102.747C29.4184 107.088 28.974 110.021 28.6604 111.543Z" fill="black"/>
<path d="M59.2639 115.059L54.9862 114.135L54.6208 101.428C54.5854 100.212 54.7463 98.9929 55.1416 97.8669C55.6569 96.4028 56.5511 95.1105 57.9252 97.0463C60.3326 100.432 60.7334 108.901 59.2611 115.059H59.2639Z" fill="#F4A28C"/>
<path d="M59.2642 116.834C60.0657 116.834 60.7909 116.286 60.9872 115.474C62.4649 109.29 62.2659 100.097 59.3705 96.024C58.2309 94.4181 57.0531 94.2136 56.2651 94.3254C55.041 94.4972 54.1004 95.4923 53.4706 97.2835C53.0153 98.5758 52.8081 99.9908 52.849 101.482L53.2143 114.19C53.2389 115.005 53.8141 115.7 54.6129 115.872L58.8906 116.796C59.0161 116.823 59.1415 116.837 59.2669 116.837L59.2642 116.834ZM56.7804 98.554C58.3263 101.362 58.787 107.641 57.8846 112.952L56.7177 112.701L56.3933 101.381C56.3633 100.362 56.4942 99.4128 56.7804 98.5568V98.554Z" fill="black"/>
<path d="M95.2652 47.4255C94.6671 47.4255 94.0595 47.2499 93.5278 46.8891C93.4851 46.8606 90.0152 44.4872 86.5547 42.1043C84.9836 43.7847 82.8332 45.5125 80.2272 45.5125C78.7462 45.5125 77.3602 44.9429 76.2114 43.8606C73.3539 41.1739 74.3602 37.2673 75.8792 34.2578C75.2051 33.5933 74.5453 32.829 74.0327 31.9794C72.5327 29.5015 72.5896 26.7769 74.194 24.5079C75.4187 22.78 77.2985 21.8259 79.4915 21.8259C83.8016 21.8259 88.4487 25.5284 89.5025 26.4208L101.569 35.6486C102.889 36.655 103.173 38.5252 102.214 39.8828L97.7905 46.1296C97.1876 46.9793 96.2382 47.435 95.2699 47.435L95.2652 47.4255Z" fill="#EF9178"/>
<path d="M79.487 24.9065C82.9806 24.9065 87.5613 28.8178 87.5613 28.8178L99.6894 38.0931L95.2654 44.3399C95.2654 44.3399 90.0629 40.7845 85.9996 37.9697C84.9648 39.2561 82.5819 42.4222 80.2227 42.4222C79.5772 42.4222 78.9316 42.1849 78.3193 41.6057C76.2876 39.6928 78.3382 35.8289 79.8335 33.5789C77.5882 31.8748 74.6642 29.1691 76.7053 26.283C77.4126 25.2862 78.3952 24.9065 79.4822 24.9065M79.487 18.7356C76.2639 18.7356 73.487 20.1501 71.669 22.7229C69.3573 25.9935 69.2528 30.0473 71.3889 33.5741C71.65 34.0061 71.9395 34.4191 72.2386 34.8083C72.0914 35.1975 71.9585 35.5773 71.8446 35.957C70.15 41.6152 72.8509 44.9428 74.0946 46.1105C75.8272 47.7386 77.949 48.6025 80.2275 48.6025C82.8762 48.6025 85.0882 47.4586 86.8445 46.0535C89.517 47.8905 91.7527 49.419 91.7907 49.4427C92.854 50.169 94.0692 50.5203 95.2701 50.5203C97.2068 50.5203 99.1103 49.6136 100.311 47.9143L104.735 41.6674C106.653 38.957 106.083 35.2165 103.449 33.1991L91.4442 24.0141C89.797 22.6327 84.699 18.7403 79.5012 18.7403L79.487 18.7356Z" fill="black"/>
<path d="M149.944 35.169C149.811 35.169 149.678 35.1596 149.545 35.1453L141.955 34.1627C140.308 33.9491 139.126 32.4729 139.278 30.821L140.673 15.6976C140.915 9.85904 143.18 3.09009 148.786 3.09009C149.07 3.09009 149.36 3.10908 149.645 3.14705C152.398 3.50781 154.444 5.30685 155.246 8.09323C155.521 9.04734 155.64 10.0489 155.669 10.9983C158.911 11.9239 162.466 13.8321 162.504 17.753C162.523 19.4096 161.949 20.8669 160.857 21.9729C159.428 23.4207 157.249 24.1375 154.202 24.1659C153.608 28.3289 153.001 32.4871 152.991 32.5393C152.768 34.0725 151.453 35.1785 149.944 35.1785V35.169Z" fill="#EF9178"/>
<path d="M148.781 6.17086C148.928 6.17086 149.085 6.18035 149.242 6.19934C152.749 6.65503 152.754 10.6424 152.488 13.4477C155.161 13.8749 159.39 14.9857 159.419 17.7768C159.447 20.5822 156.476 21.0711 154.012 21.0711C153.034 21.0711 152.132 20.9952 151.534 20.9524C150.851 25.8417 149.935 32.0837 149.935 32.0837L142.344 31.1011L143.745 15.8971C143.745 15.8971 144.12 6.17086 148.776 6.17086M148.781 0C146.493 0 140.925 0.916135 138.571 9.38445C137.821 12.0901 137.631 14.7009 137.588 15.4699L136.202 30.541C135.898 33.8448 138.262 36.802 141.556 37.2245L149.147 38.2071C149.417 38.2403 149.683 38.2593 149.949 38.2593C152.968 38.2593 155.598 36.0473 156.048 32.9809C156.053 32.9381 156.447 30.2562 156.908 27.0426C159.49 26.6534 161.512 25.6898 163.05 24.1375C164.711 22.4572 165.618 20.174 165.59 17.7151C165.571 16.011 164.958 11.7673 159.651 9.18034C159.3 9.00945 158.93 8.84331 158.541 8.69141C158.46 8.20724 158.351 7.71832 158.208 7.2294C157.064 3.27055 154.007 0.598098 150.039 0.0806958C149.621 0.0237341 149.194 0 148.781 0Z" fill="black"/>
<path d="M226.875 179.002C226.875 179.002 229.686 174.74 229.752 168.963C229.799 164.985 226.353 159.341 221.711 156.631C210.665 150.189 200.863 158.059 200.863 158.059C200.863 158.059 208.989 153.483 211.078 145.908C212.118 142.134 210.385 136.798 207.94 132.526C202.501 123.033 186.618 126.056 186.618 126.056C186.618 126.056 196.619 125.416 201.428 119.639C203.616 117.009 203.284 111.218 202.804 106.352C201.271 90.7828 182.835 95.3302 182.835 95.3302C182.835 95.3302 200.469 92.297 198.414 77.1072C197.754 72.2322 195.542 69.5266 193.515 67.3525C187.259 60.6215 181.325 64.8462 181.325 64.8462C181.325 64.8462 196.353 58.3478 189.119 44.582C186.442 39.4887 183.907 37.6137 179.094 36.821C172.786 35.7862 166.714 39.2799 166.714 39.2799L174.793 105.992L190.073 153.27L216.209 173.373L226.866 178.988L226.875 179.002Z" fill="#33758E"/>
<path d="M227.915 183.037L214.548 175.993L187.444 155.145L171.779 106.67L167.83 74.055L155.764 79.2717L167.455 70.9458L163.42 37.6327L165.191 36.6121C165.476 36.446 172.302 32.5773 179.612 33.783C185.46 34.7419 188.783 37.2814 191.868 43.1485C194.355 47.8763 194.854 52.4237 193.354 56.6674C192.703 58.5044 191.735 60.0993 190.634 61.4617C192.333 62.2069 194.085 63.4126 195.789 65.2496C198.309 67.9601 200.744 71.2259 201.485 76.6942C202.358 83.1356 200.327 88.5944 195.589 92.653C197.056 93.1277 198.494 93.797 199.814 94.7321C203.35 97.2337 205.392 101.041 205.885 106.053C206.441 111.707 206.787 118.039 203.806 121.613C203.104 122.453 202.32 123.203 201.485 123.868C205.064 125.059 208.458 127.215 210.623 130.998C212.199 133.751 215.692 140.8 214.059 146.729C213.637 148.262 213.01 149.686 212.27 150.987C215.611 150.925 219.366 151.684 223.273 153.963C228.703 157.129 232.909 163.736 232.847 168.996C232.766 175.599 229.596 180.488 229.458 180.692L227.92 183.028L227.915 183.037ZM217.89 170.781L225.504 174.792C226.078 173.297 226.643 171.246 226.672 168.925C226.705 166.191 223.928 161.496 220.159 159.298C213.428 155.373 207.205 157.855 204.385 159.441C204.153 159.607 203.939 159.759 203.74 159.892L217.89 170.776V170.781ZM192.722 151.423L199.695 156.787L198.931 155.657C199.045 155.567 199.771 154.998 200.987 154.281C203.175 152.681 206.911 149.411 208.102 145.091C208.79 142.604 207.675 138.275 205.263 134.064C202.026 128.415 193.401 128.458 189.347 128.819C187.904 129.061 186.945 129.127 186.813 129.137L186.039 123.028C186.2 122.999 187.145 122.824 188.593 122.686C191.441 122.183 196.382 120.878 199.059 117.664C200.104 116.406 200.336 112.704 199.738 106.656C199.425 103.461 198.281 101.207 196.244 99.7684C192.281 96.9631 185.944 97.8745 184.097 98.221C183.665 98.3207 183.404 98.3634 183.362 98.3729L182.099 92.3349C182.17 92.3159 182.483 92.24 182.996 92.1451C185.906 91.4615 196.8 88.172 195.357 77.5201C194.82 73.566 193.112 71.449 191.256 69.4506C188.203 66.1658 185.517 66.3889 184.078 66.8968C183.219 67.3809 182.635 67.6373 182.55 67.6752L173.726 71.4917L177.822 105.332L192.713 151.419L192.722 151.423ZM170.056 41.1358L173.175 66.873L179.545 62.3351C180.044 61.9791 180.675 61.6278 181.411 61.324C183.205 60.2607 186.357 57.987 187.539 54.5883C188.441 52.0013 188.066 49.2006 186.4 46.025C183.988 41.4349 182.127 40.4523 178.605 39.8732C175.335 39.3368 172.026 40.3383 170.056 41.1311V41.1358Z" fill="black"/>
<path d="M141.38 162.683C141.157 165.014 142.382 191.805 135.048 191.805H120.888C120.888 191.805 117.11 191.582 117.11 186.583C117.11 181.585 125.853 181.917 125.853 181.917L124.107 158.928" fill="#A3C8D2"/>
<path d="M135.053 194.89H120.713C118.026 194.729 114.034 192.384 114.034 186.583C114.034 184.717 114.741 183.047 116.085 181.755C117.86 180.047 120.442 179.325 122.55 179.026L121.04 159.165L127.192 158.7L129.2 185.14L125.745 185.007C124.069 184.955 121.259 185.339 120.362 186.208C120.243 186.327 120.205 186.388 120.205 186.588C120.205 187.466 120.366 188.534 121.121 188.724H134.987C135.238 188.529 136.776 187.062 137.65 179.453C138.252 174.199 138.262 168.308 138.267 165.137C138.267 163.57 138.271 162.863 138.319 162.393L144.461 162.972C144.442 163.219 144.442 164.244 144.438 165.146C144.414 180.597 143.26 194.895 135.058 194.895L135.053 194.89Z" fill="black"/>
<path d="M154.396 162.683C154.173 165.014 155.398 191.805 148.064 191.805H137.07C137.07 191.805 133.292 191.582 133.292 186.583C133.292 181.585 142.036 181.917 142.036 181.917L140.289 158.928" fill="#A3C8D2"/>
<path d="M148.064 194.89H136.89C134.203 194.729 130.211 192.384 130.211 186.583C130.211 184.717 130.919 183.047 132.262 181.755C134.037 180.047 136.62 179.325 138.727 179.026L137.218 159.165L143.37 158.7L145.377 185.14L141.922 185.007C140.246 184.955 137.436 185.339 136.534 186.208C136.416 186.327 136.378 186.388 136.378 186.588C136.378 188.415 137.075 188.686 137.222 188.724H147.993C148.245 188.529 149.783 187.062 150.656 179.453C151.259 174.199 151.268 168.308 151.273 165.137C151.273 163.57 151.278 162.863 151.325 162.393L157.468 162.977L154.396 162.683L157.468 162.968C157.449 163.214 157.449 164.24 157.444 165.142C157.42 180.593 156.267 194.89 148.064 194.89Z" fill="black"/>
<path d="M231.822 183.711C234.793 183.545 229.03 181.741 203.754 161.159C184.501 145.48 182.716 106.57 183.119 87.3317C183.342 76.6846 183.418 70.9172 179.668 60.9489C174.485 47.1879 165.846 30.669 132.718 29.468C120.053 29.0076 95.1133 36.9537 89.1608 46.8319C84.3665 54.7828 85.2684 62.1783 86.1229 66.6735C86.4599 68.4394 86.1229 70.2716 85.145 71.7716C82.3776 76.001 79.4061 81.7304 80.683 89.4867C81.2052 92.6671 82.4346 98.7952 84.471 102.488C86.7684 106.651 90.0247 108.341 93.1292 110.995C93.3712 111.203 93.4804 111.531 93.4092 111.839C92.4883 115.955 88.4678 143.411 95.7304 162.265C100.378 174.327 111.618 177.255 132.452 177.545C156.798 177.882 167.797 169.475 172.358 164.002C174.333 161.634 177.774 161.121 180.385 162.763C185.336 165.877 192.679 173.334 201.338 177.554C211.7 182.6 223.667 184.162 231.817 183.711H231.822Z" fill="#A3C8D2"/>
<path d="M229.125 186.868C221.065 186.868 209.939 185.173 199.99 180.327C194.132 177.474 188.891 173.254 184.676 169.865C182.365 168.004 180.371 166.4 178.743 165.374C177.428 164.548 175.705 164.805 174.727 165.977C163.795 179.083 143.526 180.787 132.404 180.63C111.447 180.341 98.2558 177.426 92.8445 163.376C85.9663 145.523 88.691 120.379 90.1198 112.523C89.7163 112.205 89.3033 111.887 88.8809 111.564C86.4932 109.732 83.7923 107.658 81.7607 103.979C79.4869 99.8587 78.1958 93.4458 77.6262 89.9854C76.1879 81.2227 79.5012 74.7433 82.5534 70.082C83.085 69.2655 83.2749 68.2592 83.085 67.2481C82.0739 61.9174 81.3287 53.8384 86.5122 45.2371C93.1957 34.1486 119.332 25.8986 132.827 26.3828C148.434 26.9477 160.164 30.8021 168.684 38.1596C176.118 44.5821 179.868 52.7324 182.55 59.8573C186.556 70.4949 186.423 76.8509 186.2 87.3888C185.854 103.794 187.064 143.586 205.695 158.762C218.374 169.086 226.121 174.664 230.288 177.664C231.841 178.779 232.861 179.515 233.578 180.089C234.342 180.702 236.137 182.135 235.486 184.357C235.239 185.206 234.451 186.654 231.988 186.787C231.086 186.839 230.127 186.863 229.121 186.863L229.125 186.868ZM177.086 158.729C178.786 158.729 180.504 159.194 182.032 160.153C183.964 161.368 186.091 163.082 188.55 165.061C192.727 168.422 197.464 172.238 202.695 174.782C209.616 178.153 217.163 179.838 223.595 180.436C219.015 177.094 211.975 171.83 201.808 163.547C192.831 156.237 186.518 143.662 183.039 126.175C180.181 111.811 179.83 97.0818 180.034 87.2607C180.252 76.8035 180.366 71.5535 176.778 62.0314C171.627 48.3558 163.539 33.6692 132.604 32.5489C119.977 32.0932 96.7416 40.2245 91.8002 48.4223C87.7511 55.139 88.259 61.3953 89.1514 66.0994C89.6451 68.6864 89.1372 71.3019 87.7227 73.4617C85.1356 77.4205 82.6341 82.362 83.7211 88.9885C84.566 94.1293 85.8524 98.6198 87.1673 100.998C88.5723 103.547 90.4568 104.995 92.6403 106.666C93.4473 107.283 94.2827 107.924 95.1277 108.65C96.2432 109.604 96.7368 111.085 96.4141 112.514C95.4172 116.985 91.7764 143.43 98.6023 161.154C102.319 170.805 110.868 174.161 132.49 174.455C155.825 174.778 165.998 166.803 169.985 162.018C171.784 159.863 174.414 158.719 177.081 158.719L177.086 158.729Z" fill="black"/>
<path d="M125.213 154.907C101.902 150.74 100.411 159.013 101.536 169.803C107.773 175.1 117.405 177.336 132.452 177.54C137.564 177.611 142.083 177.293 146.08 176.705C147.224 169.883 149.498 169.698 144.068 162.948C140.806 158.899 133.33 156.36 125.213 154.907Z" fill="white"/>
<path d="M133.833 180.64C133.359 180.64 132.884 180.64 132.405 180.63C116.095 180.407 106.264 177.872 99.5377 172.157L98.593 171.355L98.4649 170.126C97.8573 164.325 97.8763 158.42 102.077 154.513C106.307 150.578 113.835 149.743 125.75 151.874C136.102 153.725 143.071 156.801 146.465 161.017C151.159 166.85 151.145 169.11 149.935 173.624C149.669 174.626 149.36 175.76 149.118 177.217L148.748 179.429L146.526 179.757C142.577 180.341 138.314 180.635 133.829 180.635L133.833 180.64ZM104.489 168.213C110.023 172.338 118.753 174.27 132.495 174.46C136.359 174.512 140.052 174.336 143.493 173.937C143.659 173.216 143.83 172.589 143.982 172.029C144.742 169.195 144.841 168.83 141.666 164.885C139.302 161.947 133.269 159.483 124.672 157.945C115.088 156.232 108.903 156.597 106.283 159.032C104.626 160.57 104.085 163.271 104.489 168.213Z" fill="black"/>
<path d="M116.07 69.5073C115.221 69.0136 114.143 69.2937 113.502 70.0342C112.966 70.6513 112.543 71.5437 113.293 72.4788C114.756 74.2968 117.043 72.2842 117.043 71.3111C117.043 70.6798 116.792 69.9203 116.07 69.5026V69.5073Z" fill="black"/>
<path d="M114.713 74.4017C113.82 74.4017 112.99 73.9935 112.373 73.2293C111.404 72.0283 111.495 70.5426 112.61 69.2609C113.659 68.0505 115.368 67.7277 116.673 68.4824C117.651 69.0521 118.235 70.1106 118.235 71.3163C118.235 72.4365 117.129 73.7372 115.776 74.2118C115.42 74.3353 115.064 74.397 114.718 74.397L114.713 74.4017ZM115.145 70.4476C114.865 70.4476 114.575 70.609 114.395 70.8179C113.915 71.3685 114.077 71.5679 114.214 71.7435C114.466 72.0568 114.661 72.052 114.822 72.0236C115.301 71.9334 115.748 71.4682 115.847 71.2546C115.838 71.06 115.771 70.7182 115.468 70.5426C115.363 70.4808 115.249 70.4571 115.135 70.4571L115.145 70.4476Z" fill="black"/>
<path d="M133.454 69.5073C132.604 69.0136 131.526 69.2937 130.886 70.0342C130.349 70.6513 129.927 71.5437 130.677 72.4788C132.139 74.2968 134.427 72.2842 134.427 71.3111C134.427 70.6798 134.175 69.9203 133.454 69.5026V69.5073Z" fill="black"/>
<path d="M132.091 74.4015C131.199 74.4015 130.368 73.9933 129.751 73.229C128.783 72.0281 128.873 70.5423 129.988 69.2607C131.037 68.055 132.746 67.7275 134.052 68.4822C135.03 69.0518 135.613 70.1104 135.613 71.3161C135.613 72.4363 134.507 73.7369 133.155 74.2116C132.799 74.335 132.443 74.3968 132.096 74.3968L132.091 74.4015ZM132.528 70.4474C132.248 70.4474 131.963 70.6088 131.778 70.8177C131.299 71.3683 131.46 71.5677 131.598 71.7433C131.849 72.0566 132.044 72.0518 132.205 72.0233C132.685 71.9332 133.131 71.468 133.231 71.2544C133.221 71.0597 133.155 70.718 132.851 70.5423C132.746 70.4806 132.632 70.4569 132.518 70.4569L132.528 70.4474Z" fill="black"/>
<path d="M121.807 87.2134C123.734 87.2134 125.362 88.8036 127.427 92.7103C127.778 93.3748 127.755 94.1675 127.37 94.8131C126.986 95.4539 126.288 95.8479 125.543 95.8479L120.046 95.8479C119.467 95.8479 118.916 95.6153 118.513 95.1976C118.109 94.7799 117.895 94.2197 117.91 93.6454C118.038 89.5631 119.457 87.2182 121.812 87.2182L121.807 87.2134Z" fill="#EF9178"/>
<path d="M120.046 93.707C120.046 93.707 120.183 89.3494 121.811 89.3494C122.628 89.3494 123.814 90.4365 125.542 93.707L120.046 93.707ZM120.046 97.9791L125.542 97.9791C127.042 97.9791 128.428 97.1959 129.202 95.9095C129.976 94.6279 130.019 93.033 129.321 91.7086C127.583 88.4286 125.338 85.0773 121.816 85.0773C120.772 85.0773 117.273 85.476 116.148 90.6168C115.835 92.0504 115.783 93.4222 115.778 93.5741C115.74 94.7276 116.177 95.8526 116.979 96.6833C117.786 97.514 118.892 97.9839 120.046 97.9839L120.046 97.9791Z" fill="black"/>
<path d="M137.388 74.5164C139.247 79.597 143.479 92.2987 145.538 102.46" stroke="#1891D5" stroke-width="5" stroke-linecap="round"/>
<path d="M110.609 75.6807C108.746 80.2887 104.741 91.8628 103.623 101.296" stroke="#1891D5" stroke-width="5" stroke-linecap="round"/>
<path d="M50.0659 126.163C51.4269 129.442 54.5935 137.659 56.3716 144.301" stroke="#3CA7E4" stroke-width="4" stroke-linecap="round"/>
<path d="M33.7652 126.911C32.5232 129.843 29.8531 137.208 29.1079 143.211" stroke="#3CA7E4" stroke-width="4" stroke-linecap="round"/>
</svg>
